  0
SECTION
  2
BLOCKS
  0
ENDSEC
  0
SECTION
  2
ENTITIES
  0
LINE
  8
0
 10
30.75
 20
26.625
 11
30.875
 21
26.625
  0
LINE
  8
0
 10
30.875
 20
26.625
 11
30.875
 21
26.5
  0
LINE
  8
0
 10
30.875
 20
26.5
 11
31.125
 21
26.5
  0
LINE
  8
0
 10
31.125
 20
26.5
 11
31.125
 21
26.625
  0
LINE
  8
0
 10
31.125
 20
26.625
 11
34.375
 21
26.625
  0
LINE
  8
0
 10
34.375
 20
26.625
 11
34.375
 21
26.5
  0
LINE
  8
0
 10
34.375
 20
26.5
 11
34.625
 21
26.5
  0
LINE
  8
0
 10
34.625
 20
26.5
 11
34.625
 21
26.625
  0
LINE
  8
0
 10
34.625
 20
26.625
 11
34.75
 21
26.625
  0
LINE
  8
0
 10
34.75
 20
26.625
 11
34.75
 21
26
  0
LINE
  8
0
 10
34.75
 20
26
 11
35.5
 21
26
  0
LINE
  8
0
 10
35.5
 20
26
 11
35.5
 21
32.2188
  0
LINE
  8
0
 10
35.5
 20
32.2188
 11
35.25
 21
32.2188
  0
LINE
  8
0
 10
35.25
 20
32.2188
 11
35.25
 21
32.125
  0
LINE
  8
0
 10
35.25
 20
32.125
 11
34.625
 21
32.125
  0
LINE
  8
0
 10
34.625
 20
32.125
 11
34.625
 21
32.375
  0
LINE
  8
0
 10
34.625
 20
32.375
 11
34.7188
 21
32.375
  0
LINE
  8
0
 10
34.7188
 20
32.375
 11
34.7188
 21
32.625
  0
LINE
  8
0
 10
34.7188
 20
32.625
 11
34.625
 21
32.625
  0
LINE
  8
0
 10
34.625
 20
32.625
 11
34.625
 21
32.875
  0
LINE
  8
0
 10
34.625
 20
32.875
 11
35.25
 21
32.875
  0
LINE
  8
0
 10
35.25
 20
32.875
 11
35.25
 21
32.7812
  0
LINE
  8
0
 10
35.25
 20
32.7812
 11
35.5
 21
32.7812
  0
LINE
  8
0
 10
35.5
 20
32.7812
 11
35.5
 21
38.2188
  0
LINE
  8
0
 10
35.5
 20
38.2188
 11
35.25
 21
38.2188
  0
LINE
  8
0
 10
35.25
 20
38.2188
 11
35.25
 21
38.125
  0
LINE
  8
0
 10
35.25
 20
38.125
 11
34.625
 21
38.125
  0
LINE
  8
0
 10
34.625
 20
38.125
 11
34.625
 21
38.375
  0
LINE
  8
0
 10
34.625
 20
38.375
 11
34.7188
 21
38.375
  0
LINE
  8
0
 10
34.7188
 20
38.375
 11
34.7188
 21
38.625
  0
LINE
  8
0
 10
34.7188
 20
38.625
 11
34.625
 21
38.625
  0
LINE
  8
0
 10
34.625
 20
38.625
 11
34.625
 21
38.875
  0
LINE
  8
0
 10
34.625
 20
38.875
 11
35.25
 21
38.875
  0
LINE
  8
0
 10
35.25
 20
38.875
 11
35.25
 21
38.7812
  0
LINE
  8
0
 10
35.25
 20
38.7812
 11
35.5
 21
38.7812
  0
LINE
  8
0
 10
35.5
 20
38.7812
 11
35.5
 21
44.2188
  0
LINE
  8
0
 10
35.5
 20
44.2188
 11
35.25
 21
44.2188
  0
LINE
  8
0
 10
35.25
 20
44.2188
 11
35.25
 21
44.125
  0
LINE
  8
0
 10
35.25
 20
44.125
 11
34.625
 21
44.125
  0
LINE
  8
0
 10
34.625
 20
44.125
 11
34.625
 21
44.375
  0
LINE
  8
0
 10
34.625
 20
44.375
 11
34.7188
 21
44.375
  0
LINE
  8
0
 10
34.7188
 20
44.375
 11
34.7188
 21
44.625
  0
LINE
  8
0
 10
34.7188
 20
44.625
 11
34.625
 21
44.625
  0
LINE
  8
0
 10
34.625
 20
44.625
 11
34.625
 21
44.875
  0
LINE
  8
0
 10
34.625
 20
44.875
 11
35.25
 21
44.875
  0
LINE
  8
0
 10
35.25
 20
44.875
 11
35.25
 21
44.7812
  0
LINE
  8
0
 10
35.25
 20
44.7812
 11
35.5
 21
44.7812
  0
LINE
  8
0
 10
35.5
 20
44.7812
 11
35.5
 21
51
  0
LINE
  8
0
 10
35.5
 20
51
 11
34.75
 21
51
  0
LINE
  8
0
 10
34.75
 20
51
 11
34.75
 21
50.375
  0
LINE
  8
0
 10
34.75
 20
50.375
 11
34.625
 21
50.375
  0
LINE
  8
0
 10
34.625
 20
50.375
 11
34.625
 21
50.5
  0
LINE
  8
0
 10
34.625
 20
50.5
 11
34.375
 21
50.5
  0
LINE
  8
0
 10
34.375
 20
50.5
 11
34.375
 21
50.375
  0
LINE
  8
0
 10
34.375
 20
50.375
 11
31.125
 21
50.375
  0
LINE
  8
0
 10
31.125
 20
50.375
 11
31.125
 21
50.5
  0
LINE
  8
0
 10
31.125
 20
50.5
 11
30.875
 21
50.5
  0
LINE
  8
0
 10
30.875
 20
50.5
 11
30.875
 21
50.375
  0
LINE
  8
0
 10
30.875
 20
50.375
 11
30.75
 21
50.375
  0
LINE
  8
0
 10
30.75
 20
50.375
 11
30.75
 21
51
  0
LINE
  8
0
 10
30.75
 20
51
 11
30
 21
51
  0
LINE
  8
0
 10
30
 20
51
 11
30
 21
26
  0
LINE
  8
0
 10
30
 20
26
 11
30.75
 21
26
  0
LINE
  8
0
 10
30.75
 20
26
 11
30.75
 21
26.625
  0
LINE
  8
0
 10
30.375
 20
44.125
 11
30.375
 21
44.375
  0
LINE
  8
0
 10
30.375
 20
44.375
 11
30.4688
 21
44.375
  0
LINE
  8
0
 10
30.4688
 20
44.375
 11
30.4688
 21
44.625
  0
LINE
  8
0
 10
30.4688
 20
44.625
 11
30.375
 21
44.625
  0
LINE
  8
0
 10
30.375
 20
44.625
 11
30.375
 21
44.875
  0
LINE
  8
0
 10
30.375
 20
44.875
 11
30.75
 21
44.875
  0
LINE
  8
0
 10
30.75
 20
44.875
 11
30.75
 21
44.7812
  0
LINE
  8
0
 10
30.75
 20
44.7812
 11
31
 21
44.7812
  0
LINE
  8
0
 10
31
 20
44.7812
 11
31
 21
44.875
  0
LINE
  8
0
 10
31
 20
44.875
 11
31.375
 21
44.875
  0
LINE
  8
0
 10
31.375
 20
44.875
 11
31.375
 21
44.625
  0
LINE
  8
0
 10
31.375
 20
44.625
 11
31.2812
 21
44.625
  0
LINE
  8
0
 10
31.2812
 20
44.625
 11
31.2812
 21
44.375
  0
LINE
  8
0
 10
31.2812
 20
44.375
 11
31.375
 21
44.375
  0
LINE
  8
0
 10
31.375
 20
44.375
 11
31.375
 21
44.125
  0
LINE
  8
0
 10
31.375
 20
44.125
 11
31
 21
44.125
  0
LINE
  8
0
 10
31
 20
44.125
 11
31
 21
44.2188
  0
LINE
  8
0
 10
31
 20
44.2188
 11
30.75
 21
44.2188
  0
LINE
  8
0
 10
30.75
 20
44.2188
 11
30.75
 21
44.125
  0
LINE
  8
0
 10
30.75
 20
44.125
 11
30.375
 21
44.125
  0
LINE
  8
0
 10
30.375
 20
38.125
 11
30.375
 21
38.375
  0
LINE
  8
0
 10
30.375
 20
38.375
 11
30.4688
 21
38.375
  0
LINE
  8
0
 10
30.4688
 20
38.375
 11
30.4688
 21
38.625
  0
LINE
  8
0
 10
30.4688
 20
38.625
 11
30.375
 21
38.625
  0
LINE
  8
0
 10
30.375
 20
38.625
 11
30.375
 21
38.875
  0
LINE
  8
0
 10
30.375
 20
38.875
 11
30.75
 21
38.875
  0
LINE
  8
0
 10
30.75
 20
38.875
 11
30.75
 21
38.7812
  0
LINE
  8
0
 10
30.75
 20
38.7812
 11
31
 21
38.7812
  0
LINE
  8
0
 10
31
 20
38.7812
 11
31
 21
38.875
  0
LINE
  8
0
 10
31
 20
38.875
 11
31.375
 21
38.875
  0
LINE
  8
0
 10
31.375
 20
38.875
 11
31.375
 21
38.625
  0
LINE
  8
0
 10
31.375
 20
38.625
 11
31.2812
 21
38.625
  0
LINE
  8
0
 10
31.2812
 20
38.625
 11
31.2812
 21
38.375
  0
LINE
  8
0
 10
31.2812
 20
38.375
 11
31.375
 21
38.375
  0
LINE
  8
0
 10
31.375
 20
38.375
 11
31.375
 21
38.125
  0
LINE
  8
0
 10
31.375
 20
38.125
 11
31
 21
38.125
  0
LINE
  8
0
 10
31
 20
38.125
 11
31
 21
38.2188
  0
LINE
  8
0
 10
31
 20
38.2188
 11
30.75
 21
38.2188
  0
LINE
  8
0
 10
30.75
 20
38.2188
 11
30.75
 21
38.125
  0
LINE
  8
0
 10
30.75
 20
38.125
 11
30.375
 21
38.125
  0
LINE
  8
0
 10
30.375
 20
32.125
 11
30.375
 21
32.375
  0
LINE
  8
0
 10
30.375
 20
32.375
 11
30.4688
 21
32.375
  0
LINE
  8
0
 10
30.4688
 20
32.375
 11
30.4688
 21
32.625
  0
LINE
  8
0
 10
30.4688
 20
32.625
 11
30.375
 21
32.625
  0
LINE
  8
0
 10
30.375
 20
32.625
 11
30.375
 21
32.875
  0
LINE
  8
0
 10
30.375
 20
32.875
 11
30.75
 21
32.875
  0
LINE
  8
0
 10
30.75
 20
32.875
 11
30.75
 21
32.7812
  0
LINE
  8
0
 10
30.75
 20
32.7812
 11
31
 21
32.7812
  0
LINE
  8
0
 10
31
 20
32.7812
 11
31
 21
32.875
  0
LINE
  8
0
 10
31
 20
32.875
 11
31.375
 21
32.875
  0
LINE
  8
0
 10
31.375
 20
32.875
 11
31.375
 21
32.625
  0
LINE
  8
0
 10
31.375
 20
32.625
 11
31.2812
 21
32.625
  0
LINE
  8
0
 10
31.2812
 20
32.625
 11
31.2812
 21
32.375
  0
LINE
  8
0
 10
31.2812
 20
32.375
 11
31.375
 21
32.375
  0
LINE
  8
0
 10
31.375
 20
32.375
 11
31.375
 21
32.125
  0
LINE
  8
0
 10
31.375
 20
32.125
 11
31
 21
32.125
  0
LINE
  8
0
 10
31
 20
32.125
 11
31
 21
32.2188
  0
LINE
  8
0
 10
31
 20
32.2188
 11
30.75
 21
32.2188
  0
LINE
  8
0
 10
30.75
 20
32.2188
 11
30.75
 21
32.125
  0
LINE
  8
0
 10
30.75
 20
32.125
 11
30.375
 21
32.125
  0
LINE
  8
0
 10
28.4688
 20
20.1562
 11
28.3438
 21
20.1562
  0
LINE
  8
0
 10
28.3438
 20
20.1562
 11
28.3438
 21
20.4062
  0
LINE
  8
0
 10
28.3438
 20
20.4062
 11
28.5938
 21
20.4062
  0
LINE
  8
0
 10
28.5938
 20
20.4062
 11
28.5938
 21
20.2812
  0
LINE
  8
0
 10
28.5938
 20
20.2812
 11
29
 21
20.2812
  0
LINE
  8
0
 10
29
 20
20.2812
 11
29
 21
23.7188
  0
LINE
  8
0
 10
29
 20
23.7188
 11
28.5938
 21
23.7188
  0
LINE
  8
0
 10
28.5938
 20
23.7188
 11
28.5938
 21
23.5938
  0
LINE
  8
0
 10
28.5938
 20
23.5938
 11
28.3438
 21
23.5938
  0
LINE
  8
0
 10
28.3438
 20
23.5938
 11
28.3438
 21
23.8438
  0
LINE
  8
0
 10
28.3438
 20
23.8438
 11
28.4688
 21
23.8438
  0
LINE
  8
0
 10
28.4688
 20
23.8438
 11
28.4688
 21
24.4688
  0
LINE
  8
0
 10
28.4688
 20
24.4688
 11
28.0938
 21
24.4688
  0
LINE
  8
0
 10
28.0938
 20
24.4688
 11
28.0938
 21
24.3438
  0
LINE
  8
0
 10
28.0938
 20
24.3438
 11
27.8438
 21
24.3438
  0
LINE
  8
0
 10
27.8438
 20
24.3438
 11
27.8438
 21
24.5938
  0
LINE
  8
0
 10
27.8438
 20
24.5938
 11
27.9688
 21
24.5938
  0
LINE
  8
0
 10
27.9688
 20
24.5938
 11
27.9688
 21
24.9062
  0
LINE
  8
0
 10
27.9688
 20
24.9062
 11
27.8438
 21
24.9062
  0
LINE
  8
0
 10
27.8438
 20
24.9062
 11
27.8438
 21
25.1562
  0
LINE
  8
0
 10
27.8438
 20
25.1562
 11
28.4688
 21
25.1562
  0
LINE
  8
0
 10
28.4688
 20
25.1562
 11
28.4688
 21
25.0312
  0
LINE
  8
0
 10
28.4688
 20
25.0312
 11
29
 21
25.0312
  0
LINE
  8
0
 10
29
 20
25.0312
 11
29
 21
30.9688
  0
LINE
  8
0
 10
29
 20
30.9688
 11
28.5938
 21
30.9688
  0
LINE
  8
0
 10
28.5938
 20
30.9688
 11
28.5938
 21
30.8438
  0
LINE
  8
0
 10
28.5938
 20
30.8438
 11
28.0938
 21
30.8438
  0
LINE
  8
0
 10
28.0938
 20
30.8438
 11
28.0938
 21
31.0938
  0
LINE
  8
0
 10
28.0938
 20
31.0938
 11
28.2188
 21
31.0938
  0
LINE
  8
0
 10
28.2188
 20
31.0938
 11
28.2188
 21
31.4062
  0
LINE
  8
0
 10
28.2188
 20
31.4062
 11
28.0938
 21
31.4062
  0
LINE
  8
0
 10
28.0938
 20
31.4062
 11
28.0938
 21
31.6562
  0
LINE
  8
0
 10
28.0938
 20
31.6562
 11
28.3438
 21
31.6562
  0
LINE
  8
0
 10
28.3438
 20
31.6562
 11
28.3438
 21
31.5312
  0
LINE
  8
0
 10
28.3438
 20
31.5312
 11
28.4688
 21
31.5312
  0
LINE
  8
0
 10
28.4688
 20
31.5312
 11
28.4688
 21
31.9062
  0
LINE
  8
0
 10
28.4688
 20
31.9062
 11
28.3438
 21
31.9062
  0
LINE
  8
0
 10
28.3438
 20
31.9062
 11
28.3438
 21
32.1562
  0
LINE
  8
0
 10
28.3438
 20
32.1562
 11
28.7188
 21
32.1562
  0
LINE
  8
0
 10
28.7188
 20
32.1562
 11
28.7188
 21
32.0312
  0
LINE
  8
0
 10
28.7188
 20
32.0312
 11
29
 21
32.0312
  0
LINE
  8
0
 10
29
 20
32.0312
 11
29
 21
36.9688
  0
LINE
  8
0
 10
29
 20
36.9688
 11
28.5938
 21
36.9688
  0
LINE
  8
0
 10
28.5938
 20
36.9688
 11
28.5938
 21
36.8438
  0
LINE
  8
0
 10
28.5938
 20
36.8438
 11
28.3438
 21
36.8438
  0
LINE
  8
0
 10
28.3438
 20
36.8438
 11
28.3438
 21
37.0938
  0
LINE
  8
0
 10
28.3438
 20
37.0938
 11
28.4688
 21
37.0938
  0
LINE
  8
0
 10
28.4688
 20
37.0938
 11
28.4688
 21
37.4688
  0
LINE
  8
0
 10
28.4688
 20
37.4688
 11
28.3438
 21
37.4688
  0
LINE
  8
0
 10
28.3438
 20
37.4688
 11
28.3438
 21
37.3438
  0
LINE
  8
0
 10
28.3438
 20
37.3438
 11
28.0938
 21
37.3438
  0
LINE
  8
0
 10
28.0938
 20
37.3438
 11
28.0938
 21
37.5938
  0
LINE
  8
0
 10
28.0938
 20
37.5938
 11
28.2188
 21
37.5938
  0
LINE
  8
0
 10
28.2188
 20
37.5938
 11
28.2188
 21
38
  0
LINE
  8
0
 10
28.2188
 20
38
 11
24.2812
 21
38
  0
LINE
  8
0
 10
24.2812
 20
38
 11
24.2812
 21
37.5938
  0
LINE
  8
0
 10
24.2812
 20
37.5938
 11
24.4062
 21
37.5938
  0
LINE
  8
0
 10
24.4062
 20
37.5938
 11
24.4062
 21
37.3438
  0
LINE
  8
0
 10
24.4062
 20
37.3438
 11
23.9062
 21
37.3438
  0
LINE
  8
0
 10
23.9062
 20
37.3438
 11
23.9062
 21
37.4688
  0
LINE
  8
0
 10
23.9062
 20
37.4688
 11
23
 21
37.4688
  0
LINE
  8
0
 10
23
 20
37.4688
 11
23
 21
32.5312
  0
LINE
  8
0
 10
23
 20
32.5312
 11
23.4062
 21
32.5312
  0
LINE
  8
0
 10
23.4062
 20
32.5312
 11
23.4062
 21
32.6562
  0
LINE
  8
0
 10
23.4062
 20
32.6562
 11
23.6562
 21
32.6562
  0
LINE
  8
0
 10
23.6562
 20
32.6562
 11
23.6562
 21
32.0312
  0
LINE
  8
0
 10
23.6562
 20
32.0312
 11
23.5312
 21
32.0312
  0
LINE
  8
0
 10
23.5312
 20
32.0312
 11
23.5312
 21
31.5312
  0
LINE
  8
0
 10
23.5312
 20
31.5312
 11
24.0312
 21
31.5312
  0
LINE
  8
0
 10
24.0312
 20
31.5312
 11
24.0312
 21
31.6562
  0
LINE
  8
0
 10
24.0312
 20
31.6562
 11
24.4062
 21
31.6562
  0
LINE
  8
0
 10
24.4062
 20
31.6562
 11
24.4062
 21
31.4062
  0
LINE
  8
0
 10
24.4062
 20
31.4062
 11
24.2812
 21
31.4062
  0
LINE
  8
0
 10
24.2812
 20
31.4062
 11
24.2812
 21
31.0938
  0
LINE
  8
0
 10
24.2812
 20
31.0938
 11
24.4062
 21
31.0938
  0
LINE
  8
0
 10
24.4062
 20
31.0938
 11
24.4062
 21
30.8438
  0
LINE
  8
0
 10
24.4062
 20
30.8438
 11
24.0312
 21
30.8438
  0
LINE
  8
0
 10
24.0312
 20
30.8438
 11
24.0312
 21
30.9688
  0
LINE
  8
0
 10
24.0312
 20
30.9688
 11
23
 21
30.9688
  0
LINE
  8
0
 10
23
 20
30.9688
 11
23
 21
25.0312
  0
LINE
  8
0
 10
23
 20
25.0312
 11
23.4062
 21
25.0312
  0
LINE
  8
0
 10
23.4062
 20
25.0312
 11
23.4062
 21
25.1562
  0
LINE
  8
0
 10
23.4062
 20
25.1562
 11
23.6562
 21
25.1562
  0
LINE
  8
0
 10
23.6562
 20
25.1562
 11
23.6562
 21
24.9062
  0
LINE
  8
0
 10
23.6562
 20
24.9062
 11
23.5312
 21
24.9062
  0
LINE
  8
0
 10
23.5312
 20
24.9062
 11
23.5312
 21
24.5938
  0
LINE
  8
0
 10
23.5312
 20
24.5938
 11
23.6562
 21
24.5938
  0
LINE
  8
0
 10
23.6562
 20
24.5938
 11
23.6562
 21
24.3438
  0
LINE
  8
0
 10
23.6562
 20
24.3438
 11
23.4062
 21
24.3438
  0
LINE
  8
0
 10
23.4062
 20
24.3438
 11
23.4062
 21
24.4688
  0
LINE
  8
0
 10
23.4062
 20
24.4688
 11
23
 21
24.4688
  0
LINE
  8
0
 10
23
 20
24.4688
 11
23
 21
21.5312
  0
LINE
  8
0
 10
23
 20
21.5312
 11
23.4062
 21
21.5312
  0
LINE
  8
0
 10
23.4062
 20
21.5312
 11
23.4062
 21
21.6562
  0
LINE
  8
0
 10
23.4062
 20
21.6562
 11
23.6562
 21
21.6562
  0
LINE
  8
0
 10
23.6562
 20
21.6562
 11
23.6562
 21
21.4062
  0
LINE
  8
0
 10
23.6562
 20
21.4062
 11
23.5312
 21
21.4062
  0
LINE
  8
0
 10
23.5312
 20
21.4062
 11
23.5312
 21
19.5
  0
LINE
  8
0
 10
23.5312
 20
19.5
 11
28.4688
 21
19.5
  0
LINE
  8
0
 10
28.4688
 20
19.5
 11
28.4688
 21
20.1562
  0
LINE
  8
0
 10
26.4895
 20
21.5228
 11
26.237
 21
21.5905
  0
LINE
  8
0
 10
26.237
 20
21.5905
 11
26
 21
21.701
  0
LINE
  8
0
 10
26
 20
21.701
 11
25.7858
 21
21.8509
  0
LINE
  8
0
 10
25.7858
 20
21.8509
 11
25.6009
 21
22.0358
  0
LINE
  8
0
 10
25.6009
 20
22.0358
 11
25.451
 21
22.25
  0
LINE
  8
0
 10
25.451
 20
22.25
 11
25.3405
 21
22.487
  0
LINE
  8
0
 10
25.3405
 20
22.487
 11
25.2728
 21
22.7395
  0
LINE
  8
0
 10
25.2728
 20
22.7395
 11
25.25
 21
23
  0
LINE
  8
0
 10
25.25
 20
23
 11
25.2728
 21
23.2605
  0
LINE
  8
0
 10
25.2728
 20
23.2605
 11
25.3405
 21
23.513
  0
LINE
  8
0
 10
25.3405
 20
23.513
 11
25.451
 21
23.75
  0
LINE
  8
0
 10
25.451
 20
23.75
 11
25.6009
 21
23.9642
  0
LINE
  8
0
 10
25.6009
 20
23.9642
 11
25.7858
 21
24.1491
  0
LINE
  8
0
 10
25.7858
 20
24.1491
 11
26
 21
24.299
  0
LINE
  8
0
 10
26
 20
24.299
 11
26.237
 21
24.4095
  0
LINE
  8
0
 10
26.237
 20
24.4095
 11
26.4895
 21
24.4772
  0
LINE
  8
0
 10
26.4895
 20
24.4772
 11
26.75
 21
24.5
  0
LINE
  8
0
 10
26.75
 20
24.5
 11
27.0105
 21
24.4772
  0
LINE
  8
0
 10
27.0105
 20
24.4772
 11
27.263
 21
24.4095
  0
LINE
  8
0
 10
27.263
 20
24.4095
 11
27.5
 21
24.299
  0
LINE
  8
0
 10
27.5
 20
24.299
 11
27.7142
 21
24.1491
  0
LINE
  8
0
 10
27.7142
 20
24.1491
 11
27.8991
 21
23.9642
  0
LINE
  8
0
 10
27.8991
 20
23.9642
 11
28.049
 21
23.75
  0
LINE
  8
0
 10
28.049
 20
23.75
 11
28.1595
 21
23.513
  0
LINE
  8
0
 10
28.1595
 20
23.513
 11
28.2272
 21
23.2605
  0
LINE
  8
0
 10
28.2272
 20
23.2605
 11
28.25
 21
23
  0
LINE
  8
0
 10
28.25
 20
23
 11
28.2272
 21
22.7395
  0
LINE
  8
0
 10
28.2272
 20
22.7395
 11
28.1595
 21
22.487
  0
LINE
  8
0
 10
28.1595
 20
22.487
 11
28.049
 21
22.25
  0
LINE
  8
0
 10
28.049
 20
22.25
 11
27.8991
 21
22.0358
  0
LINE
  8
0
 10
27.8991
 20
22.0358
 11
27.7142
 21
21.8509
  0
LINE
  8
0
 10
27.7142
 20
21.8509
 11
27.5
 21
21.701
  0
LINE
  8
0
 10
27.5
 20
21.701
 11
27.263
 21
21.5905
  0
LINE
  8
0
 10
27.263
 20
21.5905
 11
27.0105
 21
21.5228
  0
LINE
  8
0
 10
27.0105
 20
21.5228
 11
26.75
 21
21.5
  0
LINE
  8
0
 10
26.75
 20
21.5
 11
26.4895
 21
21.5228
  0
LINE
  8
0
 10
75.5
 20
37
 11
72.5
 21
37
  0
LINE
  8
0
 10
72.5
 20
37
 11
72.5
 21
19
  0
LINE
  8
0
 10
72.5
 20
19
 11
75.5
 21
19
  0
LINE
  8
0
 10
75.5
 20
19
 11
75.5
 21
37
  0
LINE
  8
0
 10
73.83
 20
35.4769
 11
73.6767
 21
35.555
  0
LINE
  8
0
 10
73.6767
 20
35.555
 11
73.555
 21
35.6767
  0
LINE
  8
0
 10
73.555
 20
35.6767
 11
73.4769
 21
35.83
  0
LINE
  8
0
 10
73.4769
 20
35.83
 11
73.45
 21
36
  0
LINE
  8
0
 10
73.45
 20
36
 11
73.4769
 21
36.17
  0
LINE
  8
0
 10
73.4769
 20
36.17
 11
73.555
 21
36.3233
  0
LINE
  8
0
 10
73.555
 20
36.3233
 11
73.6767
 21
36.4449
  0
LINE
  8
0
 10
73.6767
 20
36.4449
 11
73.83
 21
36.5231
  0
LINE
  8
0
 10
73.83
 20
36.5231
 11
74
 21
36.55
  0
LINE
  8
0
 10
74
 20
36.55
 11
74.17
 21
36.5231
  0
LINE
  8
0
 10
74.17
 20
36.5231
 11
74.3233
 21
36.4449
  0
LINE
  8
0
 10
74.3233
 20
36.4449
 11
74.4449
 21
36.3233
  0
LINE
  8
0
 10
74.4449
 20
36.3233
 11
74.5231
 21
36.17
  0
LINE
  8
0
 10
74.5231
 20
36.17
 11
74.55
 21
36
  0
LINE
  8
0
 10
74.55
 20
36
 11
74.5231
 21
35.83
  0
LINE
  8
0
 10
74.5231
 20
35.83
 11
74.4449
 21
35.6767
  0
LINE
  8
0
 10
74.4449
 20
35.6767
 11
74.3233
 21
35.555
  0
LINE
  8
0
 10
74.3233
 20
35.555
 11
74.17
 21
35.4769
  0
LINE
  8
0
 10
74.17
 20
35.4769
 11
74
 21
35.45
  0
LINE
  8
0
 10
74
 20
35.45
 11
73.83
 21
35.4769
  0
LINE
  8
0
 10
73.83
 20
32.4769
 11
73.6767
 21
32.555
  0
LINE
  8
0
 10
73.6767
 20
32.555
 11
73.555
 21
32.6767
  0
LINE
  8
0
 10
73.555
 20
32.6767
 11
73.4769
 21
32.83
  0
LINE
  8
0
 10
73.4769
 20
32.83
 11
73.45
 21
33
  0
LINE
  8
0
 10
73.45
 20
33
 11
73.4769
 21
33.17
  0
LINE
  8
0
 10
73.4769
 20
33.17
 11
73.555
 21
33.3233
  0
LINE
  8
0
 10
73.555
 20
33.3233
 11
73.6767
 21
33.4449
  0
LINE
  8
0
 10
73.6767
 20
33.4449
 11
73.83
 21
33.5231
  0
LINE
  8
0
 10
73.83
 20
33.5231
 11
74
 21
33.55
  0
LINE
  8
0
 10
74
 20
33.55
 11
74.17
 21
33.5231
  0
LINE
  8
0
 10
74.17
 20
33.5231
 11
74.3233
 21
33.4449
  0
LINE
  8
0
 10
74.3233
 20
33.4449
 11
74.4449
 21
33.3233
  0
LINE
  8
0
 10
74.4449
 20
33.3233
 11
74.5231
 21
33.17
  0
LINE
  8
0
 10
74.5231
 20
33.17
 11
74.55
 21
33
  0
LINE
  8
0
 10
74.55
 20
33
 11
74.5231
 21
32.83
  0
LINE
  8
0
 10
74.5231
 20
32.83
 11
74.4449
 21
32.6767
  0
LINE
  8
0
 10
74.4449
 20
32.6767
 11
74.3233
 21
32.555
  0
LINE
  8
0
 10
74.3233
 20
32.555
 11
74.17
 21
32.4769
  0
LINE
  8
0
 10
74.17
 20
32.4769
 11
74
 21
32.45
  0
LINE
  8
0
 10
74
 20
32.45
 11
73.83
 21
32.4769
  0
LINE
  8
0
 10
73.83
 20
27.4769
 11
73.6767
 21
27.555
  0
LINE
  8
0
 10
73.6767
 20
27.555
 11
73.555
 21
27.6767
  0
LINE
  8
0
 10
73.555
 20
27.6767
 11
73.4769
 21
27.83
  0
LINE
  8
0
 10
73.4769
 20
27.83
 11
73.45
 21
28
  0
LINE
  8
0
 10
73.45
 20
28
 11
73.4769
 21
28.17
  0
LINE
  8
0
 10
73.4769
 20
28.17
 11
73.555
 21
28.3233
  0
LINE
  8
0
 10
73.555
 20
28.3233
 11
73.6767
 21
28.4449
  0
LINE
  8
0
 10
73.6767
 20
28.4449
 11
73.83
 21
28.5231
  0
LINE
  8
0
 10
73.83
 20
28.5231
 11
74
 21
28.55
  0
LINE
  8
0
 10
74
 20
28.55
 11
74.17
 21
28.5231
  0
LINE
  8
0
 10
74.17
 20
28.5231
 11
74.3233
 21
28.4449
  0
LINE
  8
0
 10
74.3233
 20
28.4449
 11
74.4449
 21
28.3233
  0
LINE
  8
0
 10
74.4449
 20
28.3233
 11
74.5231
 21
28.17
  0
LINE
  8
0
 10
74.5231
 20
28.17
 11
74.55
 21
28
  0
LINE
  8
0
 10
74.55
 20
28
 11
74.5231
 21
27.83
  0
LINE
  8
0
 10
74.5231
 20
27.83
 11
74.4449
 21
27.6767
  0
LINE
  8
0
 10
74.4449
 20
27.6767
 11
74.3233
 21
27.555
  0
LINE
  8
0
 10
74.3233
 20
27.555
 11
74.17
 21
27.4769
  0
LINE
  8
0
 10
74.17
 20
27.4769
 11
74
 21
27.45
  0
LINE
  8
0
 10
74
 20
27.45
 11
73.83
 21
27.4769
  0
LINE
  8
0
 10
73.83
 20
22.4769
 11
73.6767
 21
22.555
  0
LINE
  8
0
 10
73.6767
 20
22.555
 11
73.555
 21
22.6767
  0
LINE
  8
0
 10
73.555
 20
22.6767
 11
73.4769
 21
22.83
  0
LINE
  8
0
 10
73.4769
 20
22.83
 11
73.45
 21
23
  0
LINE
  8
0
 10
73.45
 20
23
 11
73.4769
 21
23.17
  0
LINE
  8
0
 10
73.4769
 20
23.17
 11
73.555
 21
23.3233
  0
LINE
  8
0
 10
73.555
 20
23.3233
 11
73.6767
 21
23.4449
  0
LINE
  8
0
 10
73.6767
 20
23.4449
 11
73.83
 21
23.5231
  0
LINE
  8
0
 10
73.83
 20
23.5231
 11
74
 21
23.55
  0
LINE
  8
0
 10
74
 20
23.55
 11
74.17
 21
23.5231
  0
LINE
  8
0
 10
74.17
 20
23.5231
 11
74.3233
 21
23.4449
  0
LINE
  8
0
 10
74.3233
 20
23.4449
 11
74.4449
 21
23.3233
  0
LINE
  8
0
 10
74.4449
 20
23.3233
 11
74.5231
 21
23.17
  0
LINE
  8
0
 10
74.5231
 20
23.17
 11
74.55
 21
23
  0
LINE
  8
0
 10
74.55
 20
23
 11
74.5231
 21
22.83
  0
LINE
  8
0
 10
74.5231
 20
22.83
 11
74.4449
 21
22.6767
  0
LINE
  8
0
 10
74.4449
 20
22.6767
 11
74.3233
 21
22.555
  0
LINE
  8
0
 10
74.3233
 20
22.555
 11
74.17
 21
22.4769
  0
LINE
  8
0
 10
74.17
 20
22.4769
 11
74
 21
22.45
  0
LINE
  8
0
 10
74
 20
22.45
 11
73.83
 21
22.4769
  0
LINE
  8
0
 10
73.83
 20
19.4769
 11
73.6767
 21
19.555
  0
LINE
  8
0
 10
73.6767
 20
19.555
 11
73.555
 21
19.6767
  0
LINE
  8
0
 10
73.555
 20
19.6767
 11
73.4769
 21
19.83
  0
LINE
  8
0
 10
73.4769
 20
19.83
 11
73.45
 21
20
  0
LINE
  8
0
 10
73.45
 20
20
 11
73.4769
 21
20.17
  0
LINE
  8
0
 10
73.4769
 20
20.17
 11
73.555
 21
20.3233
  0
LINE
  8
0
 10
73.555
 20
20.3233
 11
73.6767
 21
20.4449
  0
LINE
  8
0
 10
73.6767
 20
20.4449
 11
73.83
 21
20.5231
  0
LINE
  8
0
 10
73.83
 20
20.5231
 11
74
 21
20.55
  0
LINE
  8
0
 10
74
 20
20.55
 11
74.17
 21
20.5231
  0
LINE
  8
0
 10
74.17
 20
20.5231
 11
74.3233
 21
20.4449
  0
LINE
  8
0
 10
74.3233
 20
20.4449
 11
74.4449
 21
20.3233
  0
LINE
  8
0
 10
74.4449
 20
20.3233
 11
74.5231
 21
20.17
  0
LINE
  8
0
 10
74.5231
 20
20.17
 11
74.55
 21
20
  0
LINE
  8
0
 10
74.55
 20
20
 11
74.5231
 21
19.83
  0
LINE
  8
0
 10
74.5231
 20
19.83
 11
74.4449
 21
19.6767
  0
LINE
  8
0
 10
74.4449
 20
19.6767
 11
74.3233
 21
19.555
  0
LINE
  8
0
 10
74.3233
 20
19.555
 11
74.17
 21
19.4769
  0
LINE
  8
0
 10
74.17
 20
19.4769
 11
74
 21
19.45
  0
LINE
  8
0
 10
74
 20
19.45
 11
73.83
 21
19.4769
  0
LINE
  8
0
 10
86.5
 20
25
 11
81.5
 21
25
  0
LINE
  8
0
 10
81.5
 20
25
 11
81.5
 21
0
  0
LINE
  8
0
 10
81.5
 20
0
 11
86.5
 21
0
  0
LINE
  8
0
 10
86.5
 20
0
 11
86.5
 21
25
  0
LINE
  8
0
 10
82.4132
 20
22.1268
 11
82.329
 21
22.1494
  0
LINE
  8
0
 10
82.329
 20
22.1494
 11
82.25
 21
22.1862
  0
LINE
  8
0
 10
82.25
 20
22.1862
 11
82.1786
 21
22.2362
  0
LINE
  8
0
 10
82.1786
 20
22.2362
 11
82.117
 21
22.2978
  0
LINE
  8
0
 10
82.117
 20
22.2978
 11
82.067
 21
22.3692
  0
LINE
  8
0
 10
82.067
 20
22.3692
 11
82.0302
 21
22.4482
  0
LINE
  8
0
 10
82.0302
 20
22.4482
 11
82.0076
 21
22.5324
  0
LINE
  8
0
 10
82.0076
 20
22.5324
 11
82
 21
22.6192
  0
LINE
  8
0
 10
82
 20
22.6192
 11
82.0076
 21
22.706
  0
LINE
  8
0
 10
82.0076
 20
22.706
 11
82.0302
 21
22.7902
  0
LINE
  8
0
 10
82.0302
 20
22.7902
 11
82.067
 21
22.8692
  0
LINE
  8
0
 10
82.067
 20
22.8692
 11
82.117
 21
22.9406
  0
LINE
  8
0
 10
82.117
 20
22.9406
 11
82.1786
 21
23.0022
  0
LINE
  8
0
 10
82.1786
 20
23.0022
 11
82.25
 21
23.0522
  0
LINE
  8
0
 10
82.25
 20
23.0522
 11
82.329
 21
23.089
  0
LINE
  8
0
 10
82.329
 20
23.089
 11
82.4132
 21
23.1116
  0
LINE
  8
0
 10
82.4132
 20
23.1116
 11
82.5
 21
23.1192
  0
LINE
  8
0
 10
82.5
 20
23.1192
 11
82.5868
 21
23.1116
  0
LINE
  8
0
 10
82.5868
 20
23.1116
 11
82.671
 21
23.089
  0
LINE
  8
0
 10
82.671
 20
23.089
 11
82.75
 21
23.0522
  0
LINE
  8
0
 10
82.75
 20
23.0522
 11
82.8214
 21
23.0022
  0
LINE
  8
0
 10
82.8214
 20
23.0022
 11
82.883
 21
22.9406
  0
LINE
  8
0
 10
82.883
 20
22.9406
 11
82.933
 21
22.8692
  0
LINE
  8
0
 10
82.933
 20
22.8692
 11
82.9698
 21
22.7902
  0
LINE
  8
0
 10
82.9698
 20
22.7902
 11
82.9924
 21
22.706
  0
LINE
  8
0
 10
82.9924
 20
22.706
 11
83
 21
22.6192
  0
LINE
  8
0
 10
83
 20
22.6192
 11
82.9924
 21
22.5324
  0
LINE
  8
0
 10
82.9924
 20
22.5324
 11
82.9698
 21
22.4482
  0
LINE
  8
0
 10
82.9698
 20
22.4482
 11
82.933
 21
22.3692
  0
LINE
  8
0
 10
82.933
 20
22.3692
 11
82.883
 21
22.2978
  0
LINE
  8
0
 10
82.883
 20
22.2978
 11
82.8214
 21
22.2362
  0
LINE
  8
0
 10
82.8214
 20
22.2362
 11
82.75
 21
22.1862
  0
LINE
  8
0
 10
82.75
 20
22.1862
 11
82.671
 21
22.1494
  0
LINE
  8
0
 10
82.671
 20
22.1494
 11
82.5868
 21
22.1268
  0
LINE
  8
0
 10
82.5868
 20
22.1268
 11
82.5
 21
22.1192
  0
LINE
  8
0
 10
82.5
 20
22.1192
 11
82.4132
 21
22.1268
  0
LINE
  8
0
 10
84.4132
 20
22.1268
 11
84.329
 21
22.1494
  0
LINE
  8
0
 10
84.329
 20
22.1494
 11
84.25
 21
22.1862
  0
LINE
  8
0
 10
84.25
 20
22.1862
 11
84.1786
 21
22.2362
  0
LINE
  8
0
 10
84.1786
 20
22.2362
 11
84.117
 21
22.2978
  0
LINE
  8
0
 10
84.117
 20
22.2978
 11
84.067
 21
22.3692
  0
LINE
  8
0
 10
84.067
 20
22.3692
 11
84.0302
 21
22.4482
  0
LINE
  8
0
 10
84.0302
 20
22.4482
 11
84.0076
 21
22.5324
  0
LINE
  8
0
 10
84.0076
 20
22.5324
 11
84
 21
22.6192
  0
LINE
  8
0
 10
84
 20
22.6192
 11
84.0076
 21
22.706
  0
LINE
  8
0
 10
84.0076
 20
22.706
 11
84.0302
 21
22.7902
  0
LINE
  8
0
 10
84.0302
 20
22.7902
 11
84.067
 21
22.8692
  0
LINE
  8
0
 10
84.067
 20
22.8692
 11
84.117
 21
22.9406
  0
LINE
  8
0
 10
84.117
 20
22.9406
 11
84.1786
 21
23.0022
  0
LINE
  8
0
 10
84.1786
 20
23.0022
 11
84.25
 21
23.0522
  0
LINE
  8
0
 10
84.25
 20
23.0522
 11
84.329
 21
23.089
  0
LINE
  8
0
 10
84.329
 20
23.089
 11
84.4132
 21
23.1116
  0
LINE
  8
0
 10
84.4132
 20
23.1116
 11
84.5
 21
23.1192
  0
LINE
  8
0
 10
84.5
 20
23.1192
 11
84.5868
 21
23.1116
  0
LINE
  8
0
 10
84.5868
 20
23.1116
 11
84.671
 21
23.089
  0
LINE
  8
0
 10
84.671
 20
23.089
 11
84.75
 21
23.0522
  0
LINE
  8
0
 10
84.75
 20
23.0522
 11
84.8214
 21
23.0022
  0
LINE
  8
0
 10
84.8214
 20
23.0022
 11
84.883
 21
22.9406
  0
LINE
  8
0
 10
84.883
 20
22.9406
 11
84.933
 21
22.8692
  0
LINE
  8
0
 10
84.933
 20
22.8692
 11
84.9698
 21
22.7902
  0
LINE
  8
0
 10
84.9698
 20
22.7902
 11
84.9924
 21
22.706
  0
LINE
  8
0
 10
84.9924
 20
22.706
 11
85
 21
22.6192
  0
LINE
  8
0
 10
85
 20
22.6192
 11
84.9924
 21
22.5324
  0
LINE
  8
0
 10
84.9924
 20
22.5324
 11
84.9698
 21
22.4482
  0
LINE
  8
0
 10
84.9698
 20
22.4482
 11
84.933
 21
22.3692
  0
LINE
  8
0
 10
84.933
 20
22.3692
 11
84.883
 21
22.2978
  0
LINE
  8
0
 10
84.883
 20
22.2978
 11
84.8214
 21
22.2362
  0
LINE
  8
0
 10
84.8214
 20
22.2362
 11
84.75
 21
22.1862
  0
LINE
  8
0
 10
84.75
 20
22.1862
 11
84.671
 21
22.1494
  0
LINE
  8
0
 10
84.671
 20
22.1494
 11
84.5868
 21
22.1268
  0
LINE
  8
0
 10
84.5868
 20
22.1268
 11
84.5
 21
22.1192
  0
LINE
  8
0
 10
84.5
 20
22.1192
 11
84.4132
 21
22.1268
  0
LINE
  8
0
 10
82.4132
 20
1.88838
 11
82.329
 21
1.91095
  0
LINE
  8
0
 10
82.329
 20
1.91095
 11
82.25
 21
1.94778
  0
LINE
  8
0
 10
82.25
 20
1.94778
 11
82.1786
 21
1.99777
  0
LINE
  8
0
 10
82.1786
 20
1.99777
 11
82.117
 21
2.0594
  0
LINE
  8
0
 10
82.117
 20
2.0594
 11
82.067
 21
2.1308
  0
LINE
  8
0
 10
82.067
 20
2.1308
 11
82.0302
 21
2.20978
  0
LINE
  8
0
 10
82.0302
 20
2.20978
 11
82.0076
 21
2.29398
  0
LINE
  8
0
 10
82.0076
 20
2.29398
 11
82
 21
2.3808
  0
LINE
  8
0
 10
82
 20
2.3808
 11
82.0076
 21
2.46762
  0
LINE
  8
0
 10
82.0076
 20
2.46762
 11
82.0302
 21
2.5518
  0
LINE
  8
0
 10
82.0302
 20
2.5518
 11
82.067
 21
2.6308
  0
LINE
  8
0
 10
82.067
 20
2.6308
 11
82.117
 21
2.70218
  0
LINE
  8
0
 10
82.117
 20
2.70218
 11
82.1786
 21
2.76381
  0
LINE
  8
0
 10
82.1786
 20
2.76381
 11
82.25
 21
2.81381
  0
LINE
  8
0
 10
82.25
 20
2.81381
 11
82.329
 21
2.85063
  0
LINE
  8
0
 10
82.329
 20
2.85063
 11
82.4132
 21
2.8732
  0
LINE
  8
0
 10
82.4132
 20
2.8732
 11
82.5
 21
2.8808
  0
LINE
  8
0
 10
82.5
 20
2.8808
 11
82.5868
 21
2.8732
  0
LINE
  8
0
 10
82.5868
 20
2.8732
 11
82.671
 21
2.85063
  0
LINE
  8
0
 10
82.671
 20
2.85063
 11
82.75
 21
2.81381
  0
LINE
  8
0
 10
82.75
 20
2.81381
 11
82.8214
 21
2.76381
  0
LINE
  8
0
 10
82.8214
 20
2.76381
 11
82.883
 21
2.70218
  0
LINE
  8
0
 10
82.883
 20
2.70218
 11
82.933
 21
2.6308
  0
LINE
  8
0
 10
82.933
 20
2.6308
 11
82.9698
 21
2.5518
  0
LINE
  8
0
 10
82.9698
 20
2.5518
 11
82.9924
 21
2.46762
  0
LINE
  8
0
 10
82.9924
 20
2.46762
 11
83
 21
2.3808
  0
LINE
  8
0
 10
83
 20
2.3808
 11
82.9924
 21
2.29398
  0
LINE
  8
0
 10
82.9924
 20
2.29398
 11
82.9698
 21
2.20978
  0
LINE
  8
0
 10
82.9698
 20
2.20978
 11
82.933
 21
2.1308
  0
LINE
  8
0
 10
82.933
 20
2.1308
 11
82.883
 21
2.0594
  0
LINE
  8
0
 10
82.883
 20
2.0594
 11
82.8214
 21
1.99777
  0
LINE
  8
0
 10
82.8214
 20
1.99777
 11
82.75
 21
1.94778
  0
LINE
  8
0
 10
82.75
 20
1.94778
 11
82.671
 21
1.91095
  0
LINE
  8
0
 10
82.671
 20
1.91095
 11
82.5868
 21
1.88838
  0
LINE
  8
0
 10
82.5868
 20
1.88838
 11
82.5
 21
1.8808
  0
LINE
  8
0
 10
82.5
 20
1.8808
 11
82.4132
 21
1.88838
  0
LINE
  8
0
 10
84.4132
 20
1.88838
 11
84.329
 21
1.91095
  0
LINE
  8
0
 10
84.329
 20
1.91095
 11
84.25
 21
1.94778
  0
LINE
  8
0
 10
84.25
 20
1.94778
 11
84.1786
 21
1.99777
  0
LINE
  8
0
 10
84.1786
 20
1.99777
 11
84.117
 21
2.0594
  0
LINE
  8
0
 10
84.117
 20
2.0594
 11
84.067
 21
2.1308
  0
LINE
  8
0
 10
84.067
 20
2.1308
 11
84.0302
 21
2.20978
  0
LINE
  8
0
 10
84.0302
 20
2.20978
 11
84.0076
 21
2.29398
  0
LINE
  8
0
 10
84.0076
 20
2.29398
 11
84
 21
2.3808
  0
LINE
  8
0
 10
84
 20
2.3808
 11
84.0076
 21
2.46762
  0
LINE
  8
0
 10
84.0076
 20
2.46762
 11
84.0302
 21
2.5518
  0
LINE
  8
0
 10
84.0302
 20
2.5518
 11
84.067
 21
2.6308
  0
LINE
  8
0
 10
84.067
 20
2.6308
 11
84.117
 21
2.70218
  0
LINE
  8
0
 10
84.117
 20
2.70218
 11
84.1786
 21
2.76381
  0
LINE
  8
0
 10
84.1786
 20
2.76381
 11
84.25
 21
2.81381
  0
LINE
  8
0
 10
84.25
 20
2.81381
 11
84.329
 21
2.85063
  0
LINE
  8
0
 10
84.329
 20
2.85063
 11
84.4132
 21
2.8732
  0
LINE
  8
0
 10
84.4132
 20
2.8732
 11
84.5
 21
2.8808
  0
LINE
  8
0
 10
84.5
 20
2.8808
 11
84.5868
 21
2.8732
  0
LINE
  8
0
 10
84.5868
 20
2.8732
 11
84.671
 21
2.85063
  0
LINE
  8
0
 10
84.671
 20
2.85063
 11
84.75
 21
2.81381
  0
LINE
  8
0
 10
84.75
 20
2.81381
 11
84.8214
 21
2.76381
  0
LINE
  8
0
 10
84.8214
 20
2.76381
 11
84.883
 21
2.70218
  0
LINE
  8
0
 10
84.883
 20
2.70218
 11
84.933
 21
2.6308
  0
LINE
  8
0
 10
84.933
 20
2.6308
 11
84.9698
 21
2.5518
  0
LINE
  8
0
 10
84.9698
 20
2.5518
 11
84.9924
 21
2.46762
  0
LINE
  8
0
 10
84.9924
 20
2.46762
 11
85
 21
2.3808
  0
LINE
  8
0
 10
85
 20
2.3808
 11
84.9924
 21
2.29398
  0
LINE
  8
0
 10
84.9924
 20
2.29398
 11
84.9698
 21
2.20978
  0
LINE
  8
0
 10
84.9698
 20
2.20978
 11
84.933
 21
2.1308
  0
LINE
  8
0
 10
84.933
 20
2.1308
 11
84.883
 21
2.0594
  0
LINE
  8
0
 10
84.883
 20
2.0594
 11
84.8214
 21
1.99777
  0
LINE
  8
0
 10
84.8214
 20
1.99777
 11
84.75
 21
1.94778
  0
LINE
  8
0
 10
84.75
 20
1.94778
 11
84.671
 21
1.91095
  0
LINE
  8
0
 10
84.671
 20
1.91095
 11
84.5868
 21
1.88838
  0
LINE
  8
0
 10
84.5868
 20
1.88838
 11
84.5
 21
1.8808
  0
LINE
  8
0
 10
84.5
 20
1.8808
 11
84.4132
 21
1.88838
  0
LINE
  8
0
 10
62.75
 20
0.625
 11
62.875
 21
0.625
  0
LINE
  8
0
 10
62.875
 20
0.625
 11
62.875
 21
0.5
  0
LINE
  8
0
 10
62.875
 20
0.5
 11
63.125
 21
0.5
  0
LINE
  8
0
 10
63.125
 20
0.5
 11
63.125
 21
0.625
  0
LINE
  8
0
 10
63.125
 20
0.625
 11
65.875
 21
0.625
  0
LINE
  8
0
 10
65.875
 20
0.625
 11
65.875
 21
0.5
  0
LINE
  8
0
 10
65.875
 20
0.5
 11
66.125
 21
0.5
  0
LINE
  8
0
 10
66.125
 20
0.5
 11
66.125
 21
0.625
  0
LINE
  8
0
 10
66.125
 20
0.625
 11
66.25
 21
0.625
  0
LINE
  8
0
 10
66.25
 20
0.625
 11
66.25
 21
0
  0
LINE
  8
0
 10
66.25
 20
0
 11
67
 21
0
  0
LINE
  8
0
 10
67
 20
0
 11
67
 21
25
  0
LINE
  8
0
 10
67
 20
25
 11
66.25
 21
25
  0
LINE
  8
0
 10
66.25
 20
25
 11
66.25
 21
24.375
  0
LINE
  8
0
 10
66.25
 20
24.375
 11
66.125
 21
24.375
  0
LINE
  8
0
 10
66.125
 20
24.375
 11
66.125
 21
24.5
  0
LINE
  8
0
 10
66.125
 20
24.5
 11
65.875
 21
24.5
  0
LINE
  8
0
 10
65.875
 20
24.5
 11
65.875
 21
24.375
  0
LINE
  8
0
 10
65.875
 20
24.375
 11
63.125
 21
24.375
  0
LINE
  8
0
 10
63.125
 20
24.375
 11
63.125
 21
24.5
  0
LINE
  8
0
 10
63.125
 20
24.5
 11
62.875
 21
24.5
  0
LINE
  8
0
 10
62.875
 20
24.5
 11
62.875
 21
24.375
  0
LINE
  8
0
 10
62.875
 20
24.375
 11
62.75
 21
24.375
  0
LINE
  8
0
 10
62.75
 20
24.375
 11
62.75
 21
25
  0
LINE
  8
0
 10
62.75
 20
25
 11
62
 21
25
  0
LINE
  8
0
 10
62
 20
25
 11
62
 21
24
  0
LINE
  8
0
 10
62
 20
24
 11
62.125
 21
24
  0
LINE
  8
0
 10
62.125
 20
24
 11
62.125
 21
13
  0
LINE
  8
0
 10
62.125
 20
13
 11
62
 21
13
  0
LINE
  8
0
 10
62
 20
13
 11
62
 21
12
  0
LINE
  8
0
 10
62
 20
12
 11
62.125
 21
12
  0
LINE
  8
0
 10
62.125
 20
12
 11
62.125
 21
1
  0
LINE
  8
0
 10
62.125
 20
1
 11
62
 21
1
  0
LINE
  8
0
 10
62
 20
1
 11
62
 21
0
  0
LINE
  8
0
 10
62
 20
0
 11
62.75
 21
0
  0
LINE
  8
0
 10
62.75
 20
0
 11
62.75
 21
0.625
  0
LINE
  8
0
 10
63.125
 20
13.625
 11
63.125
 21
13.875
  0
LINE
  8
0
 10
63.125
 20
13.875
 11
63.2188
 21
13.875
  0
LINE
  8
0
 10
63.2188
 20
13.875
 11
63.2188
 21
14.125
  0
LINE
  8
0
 10
63.2188
 20
14.125
 11
63.125
 21
14.125
  0
LINE
  8
0
 10
63.125
 20
14.125
 11
63.125
 21
14.375
  0
LINE
  8
0
 10
63.125
 20
14.375
 11
63.375
 21
14.375
  0
LINE
  8
0
 10
63.375
 20
14.375
 11
63.375
 21
14.2812
  0
LINE
  8
0
 10
63.375
 20
14.2812
 11
63.625
 21
14.2812
  0
LINE
  8
0
 10
63.625
 20
14.2812
 11
63.625
 21
14.375
  0
LINE
  8
0
 10
63.625
 20
14.375
 11
63.875
 21
14.375
  0
LINE
  8
0
 10
63.875
 20
14.375
 11
63.875
 21
14.125
  0
LINE
  8
0
 10
63.875
 20
14.125
 11
63.7812
 21
14.125
  0
LINE
  8
0
 10
63.7812
 20
14.125
 11
63.7812
 21
13.875
  0
LINE
  8
0
 10
63.7812
 20
13.875
 11
63.875
 21
13.875
  0
LINE
  8
0
 10
63.875
 20
13.875
 11
63.875
 21
13.625
  0
LINE
  8
0
 10
63.875
 20
13.625
 11
63.625
 21
13.625
  0
LINE
  8
0
 10
63.625
 20
13.625
 11
63.625
 21
13.7188
  0
LINE
  8
0
 10
63.625
 20
13.7188
 11
63.375
 21
13.7188
  0
LINE
  8
0
 10
63.375
 20
13.7188
 11
63.375
 21
13.625
  0
LINE
  8
0
 10
63.375
 20
13.625
 11
63.125
 21
13.625
  0
LINE
  8
0
 10
63.125
 20
10.625
 11
63.125
 21
10.875
  0
LINE
  8
0
 10
63.125
 20
10.875
 11
63.2188
 21
10.875
  0
LINE
  8
0
 10
63.2188
 20
10.875
 11
63.2188
 21
11.125
  0
LINE
  8
0
 10
63.2188
 20
11.125
 11
63.125
 21
11.125
  0
LINE
  8
0
 10
63.125
 20
11.125
 11
63.125
 21
11.375
  0
LINE
  8
0
 10
63.125
 20
11.375
 11
63.375
 21
11.375
  0
LINE
  8
0
 10
63.375
 20
11.375
 11
63.375
 21
11.2812
  0
LINE
  8
0
 10
63.375
 20
11.2812
 11
63.625
 21
11.2812
  0
LINE
  8
0
 10
63.625
 20
11.2812
 11
63.625
 21
11.375
  0
LINE
  8
0
 10
63.625
 20
11.375
 11
63.875
 21
11.375
  0
LINE
  8
0
 10
63.875
 20
11.375
 11
63.875
 21
11.125
  0
LINE
  8
0
 10
63.875
 20
11.125
 11
63.7812
 21
11.125
  0
LINE
  8
0
 10
63.7812
 20
11.125
 11
63.7812
 21
10.875
  0
LINE
  8
0
 10
63.7812
 20
10.875
 11
63.875
 21
10.875
  0
LINE
  8
0
 10
63.875
 20
10.875
 11
63.875
 21
10.625
  0
LINE
  8
0
 10
63.875
 20
10.625
 11
63.625
 21
10.625
  0
LINE
  8
0
 10
63.625
 20
10.625
 11
63.625
 21
10.7188
  0
LINE
  8
0
 10
63.625
 20
10.7188
 11
63.375
 21
10.7188
  0
LINE
  8
0
 10
63.375
 20
10.7188
 11
63.375
 21
10.625
  0
LINE
  8
0
 10
63.375
 20
10.625
 11
63.125
 21
10.625
  0
LINE
  8
0
 10
30.75
 20
0.625
 11
30.875
 21
0.625
  0
LINE
  8
0
 10
30.875
 20
0.625
 11
30.875
 21
0.5
  0
LINE
  8
0
 10
30.875
 20
0.5
 11
31.125
 21
0.5
  0
LINE
  8
0
 10
31.125
 20
0.5
 11
31.125
 21
0.625
  0
LINE
  8
0
 10
31.125
 20
0.625
 11
34.375
 21
0.625
  0
LINE
  8
0
 10
34.375
 20
0.625
 11
34.375
 21
0.5
  0
LINE
  8
0
 10
34.375
 20
0.5
 11
34.625
 21
0.5
  0
LINE
  8
0
 10
34.625
 20
0.5
 11
34.625
 21
0.625
  0
LINE
  8
0
 10
34.625
 20
0.625
 11
34.75
 21
0.625
  0
LINE
  8
0
 10
34.75
 20
0.625
 11
34.75
 21
0
  0
LINE
  8
0
 10
34.75
 20
0
 11
35.5
 21
0
  0
LINE
  8
0
 10
35.5
 20
0
 11
35.5
 21
6.21875
  0
LINE
  8
0
 10
35.5
 20
6.21875
 11
35.25
 21
6.21875
  0
LINE
  8
0
 10
35.25
 20
6.21875
 11
35.25
 21
6.125
  0
LINE
  8
0
 10
35.25
 20
6.125
 11
34.625
 21
6.125
  0
LINE
  8
0
 10
34.625
 20
6.125
 11
34.625
 21
6.375
  0
LINE
  8
0
 10
34.625
 20
6.375
 11
34.7188
 21
6.375
  0
LINE
  8
0
 10
34.7188
 20
6.375
 11
34.7188
 21
6.625
  0
LINE
  8
0
 10
34.7188
 20
6.625
 11
34.625
 21
6.625
  0
LINE
  8
0
 10
34.625
 20
6.625
 11
34.625
 21
6.875
  0
LINE
  8
0
 10
34.625
 20
6.875
 11
35.25
 21
6.875
  0
LINE
  8
0
 10
35.25
 20
6.875
 11
35.25
 21
6.78125
  0
LINE
  8
0
 10
35.25
 20
6.78125
 11
35.5
 21
6.78125
  0
LINE
  8
0
 10
35.5
 20
6.78125
 11
35.5
 21
12.2188
  0
LINE
  8
0
 10
35.5
 20
12.2188
 11
35.25
 21
12.2188
  0
LINE
  8
0
 10
35.25
 20
12.2188
 11
35.25
 21
12.125
  0
LINE
  8
0
 10
35.25
 20
12.125
 11
34.625
 21
12.125
  0
LINE
  8
0
 10
34.625
 20
12.125
 11
34.625
 21
12.375
  0
LINE
  8
0
 10
34.625
 20
12.375
 11
34.7188
 21
12.375
  0
LINE
  8
0
 10
34.7188
 20
12.375
 11
34.7188
 21
12.625
  0
LINE
  8
0
 10
34.7188
 20
12.625
 11
34.625
 21
12.625
  0
LINE
  8
0
 10
34.625
 20
12.625
 11
34.625
 21
12.875
  0
LINE
  8
0
 10
34.625
 20
12.875
 11
35.25
 21
12.875
  0
LINE
  8
0
 10
35.25
 20
12.875
 11
35.25
 21
12.7812
  0
LINE
  8
0
 10
35.25
 20
12.7812
 11
35.5
 21
12.7812
  0
LINE
  8
0
 10
35.5
 20
12.7812
 11
35.5
 21
18.2188
  0
LINE
  8
0
 10
35.5
 20
18.2188
 11
35.25
 21
18.2188
  0
LINE
  8
0
 10
35.25
 20
18.2188
 11
35.25
 21
18.125
  0
LINE
  8
0
 10
35.25
 20
18.125
 11
34.625
 21
18.125
  0
LINE
  8
0
 10
34.625
 20
18.125
 11
34.625
 21
18.375
  0
LINE
  8
0
 10
34.625
 20
18.375
 11
34.7188
 21
18.375
  0
LINE
  8
0
 10
34.7188
 20
18.375
 11
34.7188
 21
18.625
  0
LINE
  8
0
 10
34.7188
 20
18.625
 11
34.625
 21
18.625
  0
LINE
  8
0
 10
34.625
 20
18.625
 11
34.625
 21
18.875
  0
LINE
  8
0
 10
34.625
 20
18.875
 11
35.25
 21
18.875
  0
LINE
  8
0
 10
35.25
 20
18.875
 11
35.25
 21
18.7812
  0
LINE
  8
0
 10
35.25
 20
18.7812
 11
35.5
 21
18.7812
  0
LINE
  8
0
 10
35.5
 20
18.7812
 11
35.5
 21
25
  0
LINE
  8
0
 10
35.5
 20
25
 11
34.75
 21
25
  0
LINE
  8
0
 10
34.75
 20
25
 11
34.75
 21
24.375
  0
LINE
  8
0
 10
34.75
 20
24.375
 11
34.625
 21
24.375
  0
LINE
  8
0
 10
34.625
 20
24.375
 11
34.625
 21
24.5
  0
LINE
  8
0
 10
34.625
 20
24.5
 11
34.375
 21
24.5
  0
LINE
  8
0
 10
34.375
 20
24.5
 11
34.375
 21
24.375
  0
LINE
  8
0
 10
34.375
 20
24.375
 11
31.125
 21
24.375
  0
LINE
  8
0
 10
31.125
 20
24.375
 11
31.125
 21
24.5
  0
LINE
  8
0
 10
31.125
 20
24.5
 11
30.875
 21
24.5
  0
LINE
  8
0
 10
30.875
 20
24.5
 11
30.875
 21
24.375
  0
LINE
  8
0
 10
30.875
 20
24.375
 11
30.75
 21
24.375
  0
LINE
  8
0
 10
30.75
 20
24.375
 11
30.75
 21
25
  0
LINE
  8
0
 10
30.75
 20
25
 11
30
 21
25
  0
LINE
  8
0
 10
30
 20
25
 11
30
 21
0
  0
LINE
  8
0
 10
30
 20
0
 11
30.75
 21
0
  0
LINE
  8
0
 10
30.75
 20
0
 11
30.75
 21
0.625
  0
LINE
  8
0
 10
30.375
 20
18.125
 11
30.375
 21
18.375
  0
LINE
  8
0
 10
30.375
 20
18.375
 11
30.4688
 21
18.375
  0
LINE
  8
0
 10
30.4688
 20
18.375
 11
30.4688
 21
18.625
  0
LINE
  8
0
 10
30.4688
 20
18.625
 11
30.375
 21
18.625
  0
LINE
  8
0
 10
30.375
 20
18.625
 11
30.375
 21
18.875
  0
LINE
  8
0
 10
30.375
 20
18.875
 11
30.75
 21
18.875
  0
LINE
  8
0
 10
30.75
 20
18.875
 11
30.75
 21
18.7812
  0
LINE
  8
0
 10
30.75
 20
18.7812
 11
31
 21
18.7812
  0
LINE
  8
0
 10
31
 20
18.7812
 11
31
 21
18.875
  0
LINE
  8
0
 10
31
 20
18.875
 11
31.375
 21
18.875
  0
LINE
  8
0
 10
31.375
 20
18.875
 11
31.375
 21
18.625
  0
LINE
  8
0
 10
31.375
 20
18.625
 11
31.2812
 21
18.625
  0
LINE
  8
0
 10
31.2812
 20
18.625
 11
31.2812
 21
18.375
  0
LINE
  8
0
 10
31.2812
 20
18.375
 11
31.375
 21
18.375
  0
LINE
  8
0
 10
31.375
 20
18.375
 11
31.375
 21
18.125
  0
LINE
  8
0
 10
31.375
 20
18.125
 11
31
 21
18.125
  0
LINE
  8
0
 10
31
 20
18.125
 11
31
 21
18.2188
  0
LINE
  8
0
 10
31
 20
18.2188
 11
30.75
 21
18.2188
  0
LINE
  8
0
 10
30.75
 20
18.2188
 11
30.75
 21
18.125
  0
LINE
  8
0
 10
30.75
 20
18.125
 11
30.375
 21
18.125
  0
LINE
  8
0
 10
30.375
 20
12.125
 11
30.375
 21
12.375
  0
LINE
  8
0
 10
30.375
 20
12.375
 11
30.4688
 21
12.375
  0
LINE
  8
0
 10
30.4688
 20
12.375
 11
30.4688
 21
12.625
  0
LINE
  8
0
 10
30.4688
 20
12.625
 11
30.375
 21
12.625
  0
LINE
  8
0
 10
30.375
 20
12.625
 11
30.375
 21
12.875
  0
LINE
  8
0
 10
30.375
 20
12.875
 11
30.75
 21
12.875
  0
LINE
  8
0
 10
30.75
 20
12.875
 11
30.75
 21
12.7812
  0
LINE
  8
0
 10
30.75
 20
12.7812
 11
31
 21
12.7812
  0
LINE
  8
0
 10
31
 20
12.7812
 11
31
 21
12.875
  0
LINE
  8
0
 10
31
 20
12.875
 11
31.375
 21
12.875
  0
LINE
  8
0
 10
31.375
 20
12.875
 11
31.375
 21
12.625
  0
LINE
  8
0
 10
31.375
 20
12.625
 11
31.2812
 21
12.625
  0
LINE
  8
0
 10
31.2812
 20
12.625
 11
31.2812
 21
12.375
  0
LINE
  8
0
 10
31.2812
 20
12.375
 11
31.375
 21
12.375
  0
LINE
  8
0
 10
31.375
 20
12.375
 11
31.375
 21
12.125
  0
LINE
  8
0
 10
31.375
 20
12.125
 11
31
 21
12.125
  0
LINE
  8
0
 10
31
 20
12.125
 11
31
 21
12.2188
  0
LINE
  8
0
 10
31
 20
12.2188
 11
30.75
 21
12.2188
  0
LINE
  8
0
 10
30.75
 20
12.2188
 11
30.75
 21
12.125
  0
LINE
  8
0
 10
30.75
 20
12.125
 11
30.375
 21
12.125
  0
LINE
  8
0
 10
30.375
 20
6.125
 11
30.375
 21
6.375
  0
LINE
  8
0
 10
30.375
 20
6.375
 11
30.4688
 21
6.375
  0
LINE
  8
0
 10
30.4688
 20
6.375
 11
30.4688
 21
6.625
  0
LINE
  8
0
 10
30.4688
 20
6.625
 11
30.375
 21
6.625
  0
LINE
  8
0
 10
30.375
 20
6.625
 11
30.375
 21
6.875
  0
LINE
  8
0
 10
30.375
 20
6.875
 11
30.75
 21
6.875
  0
LINE
  8
0
 10
30.75
 20
6.875
 11
30.75
 21
6.78125
  0
LINE
  8
0
 10
30.75
 20
6.78125
 11
31
 21
6.78125
  0
LINE
  8
0
 10
31
 20
6.78125
 11
31
 21
6.875
  0
LINE
  8
0
 10
31
 20
6.875
 11
31.375
 21
6.875
  0
LINE
  8
0
 10
31.375
 20
6.875
 11
31.375
 21
6.625
  0
LINE
  8
0
 10
31.375
 20
6.625
 11
31.2812
 21
6.625
  0
LINE
  8
0
 10
31.2812
 20
6.625
 11
31.2812
 21
6.375
  0
LINE
  8
0
 10
31.2812
 20
6.375
 11
31.375
 21
6.375
  0
LINE
  8
0
 10
31.375
 20
6.375
 11
31.375
 21
6.125
  0
LINE
  8
0
 10
31.375
 20
6.125
 11
31
 21
6.125
  0
LINE
  8
0
 10
31
 20
6.125
 11
31
 21
6.21875
  0
LINE
  8
0
 10
31
 20
6.21875
 11
30.75
 21
6.21875
  0
LINE
  8
0
 10
30.75
 20
6.21875
 11
30.75
 21
6.125
  0
LINE
  8
0
 10
30.75
 20
6.125
 11
30.375
 21
6.125
  0
LINE
  8
0
 10
50.5
 20
0.625
 11
50.625
 21
0.625
  0
LINE
  8
0
 10
50.625
 20
0.625
 11
50.625
 21
0.5
  0
LINE
  8
0
 10
50.625
 20
0.5
 11
50.875
 21
0.5
  0
LINE
  8
0
 10
50.875
 20
0.5
 11
50.875
 21
0.625
  0
LINE
  8
0
 10
50.875
 20
0.625
 11
54.625
 21
0.625
  0
LINE
  8
0
 10
54.625
 20
0.625
 11
54.625
 21
0.5
  0
LINE
  8
0
 10
54.625
 20
0.5
 11
54.875
 21
0.5
  0
LINE
  8
0
 10
54.875
 20
0.5
 11
54.875
 21
0.625
  0
LINE
  8
0
 10
54.875
 20
0.625
 11
55
 21
0.625
  0
LINE
  8
0
 10
55
 20
0.625
 11
55
 21
0
  0
LINE
  8
0
 10
55
 20
0
 11
56
 21
0
  0
LINE
  8
0
 10
56
 20
0
 11
56
 21
25
  0
LINE
  8
0
 10
56
 20
25
 11
55
 21
25
  0
LINE
  8
0
 10
55
 20
25
 11
55
 21
24.375
  0
LINE
  8
0
 10
55
 20
24.375
 11
54.875
 21
24.375
  0
LINE
  8
0
 10
54.875
 20
24.375
 11
54.875
 21
24.5
  0
LINE
  8
0
 10
54.875
 20
24.5
 11
54.625
 21
24.5
  0
LINE
  8
0
 10
54.625
 20
24.5
 11
54.625
 21
24.375
  0
LINE
  8
0
 10
54.625
 20
24.375
 11
50.875
 21
24.375
  0
LINE
  8
0
 10
50.875
 20
24.375
 11
50.875
 21
24.5
  0
LINE
  8
0
 10
50.875
 20
24.5
 11
50.625
 21
24.5
  0
LINE
  8
0
 10
50.625
 20
24.5
 11
50.625
 21
24.375
  0
LINE
  8
0
 10
50.625
 20
24.375
 11
50.5
 21
24.375
  0
LINE
  8
0
 10
50.5
 20
24.375
 11
50.5
 21
25
  0
LINE
  8
0
 10
50.5
 20
25
 11
50
 21
25
  0
LINE
  8
0
 10
50
 20
25
 11
50
 21
0
  0
LINE
  8
0
 10
50
 20
0
 11
50.5
 21
0
  0
LINE
  8
0
 10
50.5
 20
0
 11
50.5
 21
0.625
  0
LINE
  8
0
 10
53.625
 20
13.625
 11
53.625
 21
13.875
  0
LINE
  8
0
 10
53.625
 20
13.875
 11
53.7188
 21
13.875
  0
LINE
  8
0
 10
53.7188
 20
13.875
 11
53.7188
 21
14.125
  0
LINE
  8
0
 10
53.7188
 20
14.125
 11
53.625
 21
14.125
  0
LINE
  8
0
 10
53.625
 20
14.125
 11
53.625
 21
14.375
  0
LINE
  8
0
 10
53.625
 20
14.375
 11
53.875
 21
14.375
  0
LINE
  8
0
 10
53.875
 20
14.375
 11
53.875
 21
14.2812
  0
LINE
  8
0
 10
53.875
 20
14.2812
 11
54.125
 21
14.2812
  0
LINE
  8
0
 10
54.125
 20
14.2812
 11
54.125
 21
14.375
  0
LINE
  8
0
 10
54.125
 20
14.375
 11
54.375
 21
14.375
  0
LINE
  8
0
 10
54.375
 20
14.375
 11
54.375
 21
14.125
  0
LINE
  8
0
 10
54.375
 20
14.125
 11
54.2812
 21
14.125
  0
LINE
  8
0
 10
54.2812
 20
14.125
 11
54.2812
 21
13.875
  0
LINE
  8
0
 10
54.2812
 20
13.875
 11
54.375
 21
13.875
  0
LINE
  8
0
 10
54.375
 20
13.875
 11
54.375
 21
13.625
  0
LINE
  8
0
 10
54.375
 20
13.625
 11
54.125
 21
13.625
  0
LINE
  8
0
 10
54.125
 20
13.625
 11
54.125
 21
13.7188
  0
LINE
  8
0
 10
54.125
 20
13.7188
 11
53.875
 21
13.7188
  0
LINE
  8
0
 10
53.875
 20
13.7188
 11
53.875
 21
13.625
  0
LINE
  8
0
 10
53.875
 20
13.625
 11
53.625
 21
13.625
  0
LINE
  8
0
 10
53.625
 20
10.625
 11
53.625
 21
10.875
  0
LINE
  8
0
 10
53.625
 20
10.875
 11
53.7188
 21
10.875
  0
LINE
  8
0
 10
53.7188
 20
10.875
 11
53.7188
 21
11.125
  0
LINE
  8
0
 10
53.7188
 20
11.125
 11
53.625
 21
11.125
  0
LINE
  8
0
 10
53.625
 20
11.125
 11
53.625
 21
11.375
  0
LINE
  8
0
 10
53.625
 20
11.375
 11
53.875
 21
11.375
  0
LINE
  8
0
 10
53.875
 20
11.375
 11
53.875
 21
11.2812
  0
LINE
  8
0
 10
53.875
 20
11.2812
 11
54.125
 21
11.2812
  0
LINE
  8
0
 10
54.125
 20
11.2812
 11
54.125
 21
11.375
  0
LINE
  8
0
 10
54.125
 20
11.375
 11
54.375
 21
11.375
  0
LINE
  8
0
 10
54.375
 20
11.375
 11
54.375
 21
11.125
  0
LINE
  8
0
 10
54.375
 20
11.125
 11
54.2812
 21
11.125
  0
LINE
  8
0
 10
54.2812
 20
11.125
 11
54.2812
 21
10.875
  0
LINE
  8
0
 10
54.2812
 20
10.875
 11
54.375
 21
10.875
  0
LINE
  8
0
 10
54.375
 20
10.875
 11
54.375
 21
10.625
  0
LINE
  8
0
 10
54.375
 20
10.625
 11
54.125
 21
10.625
  0
LINE
  8
0
 10
54.125
 20
10.625
 11
54.125
 21
10.7188
  0
LINE
  8
0
 10
54.125
 20
10.7188
 11
53.875
 21
10.7188
  0
LINE
  8
0
 10
53.875
 20
10.7188
 11
53.875
 21
10.625
  0
LINE
  8
0
 10
53.875
 20
10.625
 11
53.625
 21
10.625
  0
LINE
  8
0
 10
43.5
 20
0.625
 11
43.625
 21
0.625
  0
LINE
  8
0
 10
43.625
 20
0.625
 11
43.625
 21
0.5
  0
LINE
  8
0
 10
43.625
 20
0.5
 11
43.875
 21
0.5
  0
LINE
  8
0
 10
43.875
 20
0.5
 11
43.875
 21
0.625
  0
LINE
  8
0
 10
43.875
 20
0.625
 11
48.125
 21
0.625
  0
LINE
  8
0
 10
48.125
 20
0.625
 11
48.125
 21
0.5
  0
LINE
  8
0
 10
48.125
 20
0.5
 11
48.375
 21
0.5
  0
LINE
  8
0
 10
48.375
 20
0.5
 11
48.375
 21
0.625
  0
LINE
  8
0
 10
48.375
 20
0.625
 11
48.5
 21
0.625
  0
LINE
  8
0
 10
48.5
 20
0.625
 11
48.5
 21
0
  0
LINE
  8
0
 10
48.5
 20
0
 11
49
 21
0
  0
LINE
  8
0
 10
49
 20
0
 11
49
 21
1
  0
LINE
  8
0
 10
49
 20
1
 11
48.875
 21
1
  0
LINE
  8
0
 10
48.875
 20
1
 11
48.875
 21
12
  0
LINE
  8
0
 10
48.875
 20
12
 11
49
 21
12
  0
LINE
  8
0
 10
49
 20
12
 11
49
 21
13
  0
LINE
  8
0
 10
49
 20
13
 11
48.875
 21
13
  0
LINE
  8
0
 10
48.875
 20
13
 11
48.875
 21
24
  0
LINE
  8
0
 10
48.875
 20
24
 11
49
 21
24
  0
LINE
  8
0
 10
49
 20
24
 11
49
 21
25
  0
LINE
  8
0
 10
49
 20
25
 11
48.5
 21
25
  0
LINE
  8
0
 10
48.5
 20
25
 11
48.5
 21
24.375
  0
LINE
  8
0
 10
48.5
 20
24.375
 11
48.375
 21
24.375
  0
LINE
  8
0
 10
48.375
 20
24.375
 11
48.375
 21
24.5
  0
LINE
  8
0
 10
48.375
 20
24.5
 11
48.125
 21
24.5
  0
LINE
  8
0
 10
48.125
 20
24.5
 11
48.125
 21
24.375
  0
LINE
  8
0
 10
48.125
 20
24.375
 11
43.875
 21
24.375
  0
LINE
  8
0
 10
43.875
 20
24.375
 11
43.875
 21
24.5
  0
LINE
  8
0
 10
43.875
 20
24.5
 11
43.625
 21
24.5
  0
LINE
  8
0
 10
43.625
 20
24.5
 11
43.625
 21
24.375
  0
LINE
  8
0
 10
43.625
 20
24.375
 11
43.5
 21
24.375
  0
LINE
  8
0
 10
43.5
 20
24.375
 11
43.5
 21
25
  0
LINE
  8
0
 10
43.5
 20
25
 11
43
 21
25
  0
LINE
  8
0
 10
43
 20
25
 11
43
 21
24
  0
LINE
  8
0
 10
43
 20
24
 11
43.125
 21
24
  0
LINE
  8
0
 10
43.125
 20
24
 11
43.125
 21
13
  0
LINE
  8
0
 10
43.125
 20
13
 11
43
 21
13
  0
LINE
  8
0
 10
43
 20
13
 11
43
 21
12
  0
LINE
  8
0
 10
43
 20
12
 11
43.125
 21
12
  0
LINE
  8
0
 10
43.125
 20
12
 11
43.125
 21
1
  0
LINE
  8
0
 10
43.125
 20
1
 11
43
 21
1
  0
LINE
  8
0
 10
43
 20
1
 11
43
 21
0
  0
LINE
  8
0
 10
43
 20
0
 11
43.5
 21
0
  0
LINE
  8
0
 10
43.5
 20
0
 11
43.5
 21
0.625
  0
LINE
  8
0
 10
45.625
 20
18.125
 11
45.625
 21
18.375
  0
LINE
  8
0
 10
45.625
 20
18.375
 11
45.7188
 21
18.375
  0
LINE
  8
0
 10
45.7188
 20
18.375
 11
45.7188
 21
18.625
  0
LINE
  8
0
 10
45.7188
 20
18.625
 11
45.625
 21
18.625
  0
LINE
  8
0
 10
45.625
 20
18.625
 11
45.625
 21
18.875
  0
LINE
  8
0
 10
45.625
 20
18.875
 11
45.875
 21
18.875
  0
LINE
  8
0
 10
45.875
 20
18.875
 11
45.875
 21
18.7812
  0
LINE
  8
0
 10
45.875
 20
18.7812
 11
46.125
 21
18.7812
  0
LINE
  8
0
 10
46.125
 20
18.7812
 11
46.125
 21
18.875
  0
LINE
  8
0
 10
46.125
 20
18.875
 11
46.375
 21
18.875
  0
LINE
  8
0
 10
46.375
 20
18.875
 11
46.375
 21
18.625
  0
LINE
  8
0
 10
46.375
 20
18.625
 11
46.2812
 21
18.625
  0
LINE
  8
0
 10
46.2812
 20
18.625
 11
46.2812
 21
18.375
  0
LINE
  8
0
 10
46.2812
 20
18.375
 11
46.375
 21
18.375
  0
LINE
  8
0
 10
46.375
 20
18.375
 11
46.375
 21
18.125
  0
LINE
  8
0
 10
46.375
 20
18.125
 11
46.125
 21
18.125
  0
LINE
  8
0
 10
46.125
 20
18.125
 11
46.125
 21
18.2188
  0
LINE
  8
0
 10
46.125
 20
18.2188
 11
45.875
 21
18.2188
  0
LINE
  8
0
 10
45.875
 20
18.2188
 11
45.875
 21
18.125
  0
LINE
  8
0
 10
45.875
 20
18.125
 11
45.625
 21
18.125
  0
LINE
  8
0
 10
45.625
 20
12.125
 11
45.625
 21
12.375
  0
LINE
  8
0
 10
45.625
 20
12.375
 11
45.7188
 21
12.375
  0
LINE
  8
0
 10
45.7188
 20
12.375
 11
45.7188
 21
12.625
  0
LINE
  8
0
 10
45.7188
 20
12.625
 11
45.625
 21
12.625
  0
LINE
  8
0
 10
45.625
 20
12.625
 11
45.625
 21
12.875
  0
LINE
  8
0
 10
45.625
 20
12.875
 11
45.875
 21
12.875
  0
LINE
  8
0
 10
45.875
 20
12.875
 11
45.875
 21
12.7812
  0
LINE
  8
0
 10
45.875
 20
12.7812
 11
46.125
 21
12.7812
  0
LINE
  8
0
 10
46.125
 20
12.7812
 11
46.125
 21
12.875
  0
LINE
  8
0
 10
46.125
 20
12.875
 11
46.375
 21
12.875
  0
LINE
  8
0
 10
46.375
 20
12.875
 11
46.375
 21
12.625
  0
LINE
  8
0
 10
46.375
 20
12.625
 11
46.2812
 21
12.625
  0
LINE
  8
0
 10
46.2812
 20
12.625
 11
46.2812
 21
12.375
  0
LINE
  8
0
 10
46.2812
 20
12.375
 11
46.375
 21
12.375
  0
LINE
  8
0
 10
46.375
 20
12.375
 11
46.375
 21
12.125
  0
LINE
  8
0
 10
46.375
 20
12.125
 11
46.125
 21
12.125
  0
LINE
  8
0
 10
46.125
 20
12.125
 11
46.125
 21
12.2188
  0
LINE
  8
0
 10
46.125
 20
12.2188
 11
45.875
 21
12.2188
  0
LINE
  8
0
 10
45.875
 20
12.2188
 11
45.875
 21
12.125
  0
LINE
  8
0
 10
45.875
 20
12.125
 11
45.625
 21
12.125
  0
LINE
  8
0
 10
45.625
 20
6.125
 11
45.625
 21
6.375
  0
LINE
  8
0
 10
45.625
 20
6.375
 11
45.7188
 21
6.375
  0
LINE
  8
0
 10
45.7188
 20
6.375
 11
45.7188
 21
6.625
  0
LINE
  8
0
 10
45.7188
 20
6.625
 11
45.625
 21
6.625
  0
LINE
  8
0
 10
45.625
 20
6.625
 11
45.625
 21
6.875
  0
LINE
  8
0
 10
45.625
 20
6.875
 11
45.875
 21
6.875
  0
LINE
  8
0
 10
45.875
 20
6.875
 11
45.875
 21
6.78125
  0
LINE
  8
0
 10
45.875
 20
6.78125
 11
46.125
 21
6.78125
  0
LINE
  8
0
 10
46.125
 20
6.78125
 11
46.125
 21
6.875
  0
LINE
  8
0
 10
46.125
 20
6.875
 11
46.375
 21
6.875
  0
LINE
  8
0
 10
46.375
 20
6.875
 11
46.375
 21
6.625
  0
LINE
  8
0
 10
46.375
 20
6.625
 11
46.2812
 21
6.625
  0
LINE
  8
0
 10
46.2812
 20
6.625
 11
46.2812
 21
6.375
  0
LINE
  8
0
 10
46.2812
 20
6.375
 11
46.375
 21
6.375
  0
LINE
  8
0
 10
46.375
 20
6.375
 11
46.375
 21
6.125
  0
LINE
  8
0
 10
46.375
 20
6.125
 11
46.125
 21
6.125
  0
LINE
  8
0
 10
46.125
 20
6.125
 11
46.125
 21
6.21875
  0
LINE
  8
0
 10
46.125
 20
6.21875
 11
45.875
 21
6.21875
  0
LINE
  8
0
 10
45.875
 20
6.21875
 11
45.875
 21
6.125
  0
LINE
  8
0
 10
45.875
 20
6.125
 11
45.625
 21
6.125
  0
LINE
  8
0
 10
15.5
 20
0.53125
 11
20.5
 21
0.53125
  0
LINE
  8
0
 10
20.5
 20
0.53125
 11
20.5
 21
0
  0
LINE
  8
0
 10
20.5
 20
0
 11
22
 21
0
  0
LINE
  8
0
 10
22
 20
0
 11
22
 21
25
  0
LINE
  8
0
 10
22
 20
25
 11
20.5
 21
25
  0
LINE
  8
0
 10
20.5
 20
25
 11
20.5
 21
24.4688
  0
LINE
  8
0
 10
20.5
 20
24.4688
 11
15.5
 21
24.4688
  0
LINE
  8
0
 10
15.5
 20
24.4688
 11
15.5
 21
25
  0
LINE
  8
0
 10
15.5
 20
25
 11
0
 21
25
  0
LINE
  8
0
 10
0
 20
25
 11
0
 21
21.6192
  0
LINE
  8
0
 10
0
 20
21.6192
 11
6
 21
21.6192
  0
LINE
  8
0
 10
6
 20
21.6192
 11
6
 21
3.3808
  0
LINE
  8
0
 10
6
 20
3.3808
 11
0
 21
3.3808
  0
LINE
  8
0
 10
0
 20
3.3808
 11
0
 21
0
  0
LINE
  8
0
 10
0
 20
0
 11
15.5
 21
0
  0
LINE
  8
0
 10
15.5
 20
0
 11
15.5
 21
0.53125
  0
LINE
  8
0
 10
0.913162
 20
22.1268
 11
0.828979
 21
22.1494
  0
LINE
  8
0
 10
0.828979
 20
22.1494
 11
0.75
 21
22.1862
  0
LINE
  8
0
 10
0.75
 20
22.1862
 11
0.678604
 21
22.2362
  0
LINE
  8
0
 10
0.678604
 20
22.2362
 11
0.616974
 21
22.2978
  0
LINE
  8
0
 10
0.616974
 20
22.2978
 11
0.566986
 21
22.3692
  0
LINE
  8
0
 10
0.566986
 20
22.3692
 11
0.530151
 21
22.4482
  0
LINE
  8
0
 10
0.530151
 20
22.4482
 11
0.507584
 21
22.5324
  0
LINE
  8
0
 10
0.507584
 20
22.5324
 11
0.5
 21
22.6192
  0
LINE
  8
0
 10
0.5
 20
22.6192
 11
0.507584
 21
22.706
  0
LINE
  8
0
 10
0.507584
 20
22.706
 11
0.530151
 21
22.7902
  0
LINE
  8
0
 10
0.530151
 20
22.7902
 11
0.566986
 21
22.8692
  0
LINE
  8
0
 10
0.566986
 20
22.8692
 11
0.616974
 21
22.9406
  0
LINE
  8
0
 10
0.616974
 20
22.9406
 11
0.678604
 21
23.0022
  0
LINE
  8
0
 10
0.678604
 20
23.0022
 11
0.75
 21
23.0522
  0
LINE
  8
0
 10
0.75
 20
23.0522
 11
0.828979
 21
23.089
  0
LINE
  8
0
 10
0.828979
 20
23.089
 11
0.913162
 21
23.1116
  0
LINE
  8
0
 10
0.913162
 20
23.1116
 11
1
 21
23.1192
  0
LINE
  8
0
 10
1
 20
23.1192
 11
1.08682
 21
23.1116
  0
LINE
  8
0
 10
1.08682
 20
23.1116
 11
1.17101
 21
23.089
  0
LINE
  8
0
 10
1.17101
 20
23.089
 11
1.25
 21
23.0522
  0
LINE
  8
0
 10
1.25
 20
23.0522
 11
1.32138
 21
23.0022
  0
LINE
  8
0
 10
1.32138
 20
23.0022
 11
1.38301
 21
22.9406
  0
LINE
  8
0
 10
1.38301
 20
22.9406
 11
1.433
 21
22.8692
  0
LINE
  8
0
 10
1.433
 20
22.8692
 11
1.46983
 21
22.7902
  0
LINE
  8
0
 10
1.46983
 20
22.7902
 11
1.4924
 21
22.706
  0
LINE
  8
0
 10
1.4924
 20
22.706
 11
1.5
 21
22.6192
  0
LINE
  8
0
 10
1.5
 20
22.6192
 11
1.4924
 21
22.5324
  0
LINE
  8
0
 10
1.4924
 20
22.5324
 11
1.46983
 21
22.4482
  0
LINE
  8
0
 10
1.46983
 20
22.4482
 11
1.433
 21
22.3692
  0
LINE
  8
0
 10
1.433
 20
22.3692
 11
1.38301
 21
22.2978
  0
LINE
  8
0
 10
1.38301
 20
22.2978
 11
1.32138
 21
22.2362
  0
LINE
  8
0
 10
1.32138
 20
22.2362
 11
1.25
 21
22.1862
  0
LINE
  8
0
 10
1.25
 20
22.1862
 11
1.17101
 21
22.1494
  0
LINE
  8
0
 10
1.17101
 20
22.1494
 11
1.08682
 21
22.1268
  0
LINE
  8
0
 10
1.08682
 20
22.1268
 11
1
 21
22.1192
  0
LINE
  8
0
 10
1
 20
22.1192
 11
0.913162
 21
22.1268
  0
LINE
  8
0
 10
2.91316
 20
22.1268
 11
2.82898
 21
22.1494
  0
LINE
  8
0
 10
2.82898
 20
22.1494
 11
2.75
 21
22.1862
  0
LINE
  8
0
 10
2.75
 20
22.1862
 11
2.6786
 21
22.2362
  0
LINE
  8
0
 10
2.6786
 20
22.2362
 11
2.61697
 21
22.2978
  0
LINE
  8
0
 10
2.61697
 20
22.2978
 11
2.56699
 21
22.3692
  0
LINE
  8
0
 10
2.56699
 20
22.3692
 11
2.53015
 21
22.4482
  0
LINE
  8
0
 10
2.53015
 20
22.4482
 11
2.50758
 21
22.5324
  0
LINE
  8
0
 10
2.50758
 20
22.5324
 11
2.5
 21
22.6192
  0
LINE
  8
0
 10
2.5
 20
22.6192
 11
2.50758
 21
22.706
  0
LINE
  8
0
 10
2.50758
 20
22.706
 11
2.53015
 21
22.7902
  0
LINE
  8
0
 10
2.53015
 20
22.7902
 11
2.56699
 21
22.8692
  0
LINE
  8
0
 10
2.56699
 20
22.8692
 11
2.61697
 21
22.9406
  0
LINE
  8
0
 10
2.61697
 20
22.9406
 11
2.6786
 21
23.0022
  0
LINE
  8
0
 10
2.6786
 20
23.0022
 11
2.75
 21
23.0522
  0
LINE
  8
0
 10
2.75
 20
23.0522
 11
2.82898
 21
23.089
  0
LINE
  8
0
 10
2.82898
 20
23.089
 11
2.91316
 21
23.1116
  0
LINE
  8
0
 10
2.91316
 20
23.1116
 11
3
 21
23.1192
  0
LINE
  8
0
 10
3
 20
23.1192
 11
3.08682
 21
23.1116
  0
LINE
  8
0
 10
3.08682
 20
23.1116
 11
3.17101
 21
23.089
  0
LINE
  8
0
 10
3.17101
 20
23.089
 11
3.25
 21
23.0522
  0
LINE
  8
0
 10
3.25
 20
23.0522
 11
3.32138
 21
23.0022
  0
LINE
  8
0
 10
3.32138
 20
23.0022
 11
3.38301
 21
22.9406
  0
LINE
  8
0
 10
3.38301
 20
22.9406
 11
3.433
 21
22.8692
  0
LINE
  8
0
 10
3.433
 20
22.8692
 11
3.46983
 21
22.7902
  0
LINE
  8
0
 10
3.46983
 20
22.7902
 11
3.4924
 21
22.706
  0
LINE
  8
0
 10
3.4924
 20
22.706
 11
3.5
 21
22.6192
  0
LINE
  8
0
 10
3.5
 20
22.6192
 11
3.4924
 21
22.5324
  0
LINE
  8
0
 10
3.4924
 20
22.5324
 11
3.46983
 21
22.4482
  0
LINE
  8
0
 10
3.46983
 20
22.4482
 11
3.433
 21
22.3692
  0
LINE
  8
0
 10
3.433
 20
22.3692
 11
3.38301
 21
22.2978
  0
LINE
  8
0
 10
3.38301
 20
22.2978
 11
3.32138
 21
22.2362
  0
LINE
  8
0
 10
3.32138
 20
22.2362
 11
3.25
 21
22.1862
  0
LINE
  8
0
 10
3.25
 20
22.1862
 11
3.17101
 21
22.1494
  0
LINE
  8
0
 10
3.17101
 20
22.1494
 11
3.08682
 21
22.1268
  0
LINE
  8
0
 10
3.08682
 20
22.1268
 11
3
 21
22.1192
  0
LINE
  8
0
 10
3
 20
22.1192
 11
2.91316
 21
22.1268
  0
LINE
  8
0
 10
2.91316
 20
1.88838
 11
2.82898
 21
1.91095
  0
LINE
  8
0
 10
2.82898
 20
1.91095
 11
2.75
 21
1.94778
  0
LINE
  8
0
 10
2.75
 20
1.94778
 11
2.6786
 21
1.99777
  0
LINE
  8
0
 10
2.6786
 20
1.99777
 11
2.61697
 21
2.0594
  0
LINE
  8
0
 10
2.61697
 20
2.0594
 11
2.56699
 21
2.1308
  0
LINE
  8
0
 10
2.56699
 20
2.1308
 11
2.53015
 21
2.20978
  0
LINE
  8
0
 10
2.53015
 20
2.20978
 11
2.50758
 21
2.29398
  0
LINE
  8
0
 10
2.50758
 20
2.29398
 11
2.5
 21
2.3808
  0
LINE
  8
0
 10
2.5
 20
2.3808
 11
2.50758
 21
2.46762
  0
LINE
  8
0
 10
2.50758
 20
2.46762
 11
2.53015
 21
2.5518
  0
LINE
  8
0
 10
2.53015
 20
2.5518
 11
2.56699
 21
2.6308
  0
LINE
  8
0
 10
2.56699
 20
2.6308
 11
2.61697
 21
2.70218
  0
LINE
  8
0
 10
2.61697
 20
2.70218
 11
2.6786
 21
2.76381
  0
LINE
  8
0
 10
2.6786
 20
2.76381
 11
2.75
 21
2.81381
  0
LINE
  8
0
 10
2.75
 20
2.81381
 11
2.82898
 21
2.85063
  0
LINE
  8
0
 10
2.82898
 20
2.85063
 11
2.91316
 21
2.8732
  0
LINE
  8
0
 10
2.91316
 20
2.8732
 11
3
 21
2.8808
  0
LINE
  8
0
 10
3
 20
2.8808
 11
3.08682
 21
2.8732
  0
LINE
  8
0
 10
3.08682
 20
2.8732
 11
3.17101
 21
2.85063
  0
LINE
  8
0
 10
3.17101
 20
2.85063
 11
3.25
 21
2.81381
  0
LINE
  8
0
 10
3.25
 20
2.81381
 11
3.32138
 21
2.76381
  0
LINE
  8
0
 10
3.32138
 20
2.76381
 11
3.38301
 21
2.70218
  0
LINE
  8
0
 10
3.38301
 20
2.70218
 11
3.433
 21
2.6308
  0
LINE
  8
0
 10
3.433
 20
2.6308
 11
3.46983
 21
2.5518
  0
LINE
  8
0
 10
3.46983
 20
2.5518
 11
3.4924
 21
2.46762
  0
LINE
  8
0
 10
3.4924
 20
2.46762
 11
3.5
 21
2.3808
  0
LINE
  8
0
 10
3.5
 20
2.3808
 11
3.4924
 21
2.29398
  0
LINE
  8
0
 10
3.4924
 20
2.29398
 11
3.46983
 21
2.20978
  0
LINE
  8
0
 10
3.46983
 20
2.20978
 11
3.433
 21
2.1308
  0
LINE
  8
0
 10
3.433
 20
2.1308
 11
3.38301
 21
2.0594
  0
LINE
  8
0
 10
3.38301
 20
2.0594
 11
3.32138
 21
1.99777
  0
LINE
  8
0
 10
3.32138
 20
1.99777
 11
3.25
 21
1.94778
  0
LINE
  8
0
 10
3.25
 20
1.94778
 11
3.17101
 21
1.91095
  0
LINE
  8
0
 10
3.17101
 20
1.91095
 11
3.08682
 21
1.88838
  0
LINE
  8
0
 10
3.08682
 20
1.88838
 11
3
 21
1.8808
  0
LINE
  8
0
 10
3
 20
1.8808
 11
2.91316
 21
1.88838
  0
LINE
  8
0
 10
0.913162
 20
1.88838
 11
0.828979
 21
1.91095
  0
LINE
  8
0
 10
0.828979
 20
1.91095
 11
0.75
 21
1.94778
  0
LINE
  8
0
 10
0.75
 20
1.94778
 11
0.678604
 21
1.99777
  0
LINE
  8
0
 10
0.678604
 20
1.99777
 11
0.616974
 21
2.0594
  0
LINE
  8
0
 10
0.616974
 20
2.0594
 11
0.566986
 21
2.1308
  0
LINE
  8
0
 10
0.566986
 20
2.1308
 11
0.530151
 21
2.20978
  0
LINE
  8
0
 10
0.530151
 20
2.20978
 11
0.507584
 21
2.29398
  0
LINE
  8
0
 10
0.507584
 20
2.29398
 11
0.5
 21
2.3808
  0
LINE
  8
0
 10
0.5
 20
2.3808
 11
0.507584
 21
2.46762
  0
LINE
  8
0
 10
0.507584
 20
2.46762
 11
0.530151
 21
2.5518
  0
LINE
  8
0
 10
0.530151
 20
2.5518
 11
0.566986
 21
2.6308
  0
LINE
  8
0
 10
0.566986
 20
2.6308
 11
0.616974
 21
2.70218
  0
LINE
  8
0
 10
0.616974
 20
2.70218
 11
0.678604
 21
2.76381
  0
LINE
  8
0
 10
0.678604
 20
2.76381
 11
0.75
 21
2.81381
  0
LINE
  8
0
 10
0.75
 20
2.81381
 11
0.828979
 21
2.85063
  0
LINE
  8
0
 10
0.828979
 20
2.85063
 11
0.913162
 21
2.8732
  0
LINE
  8
0
 10
0.913162
 20
2.8732
 11
1
 21
2.8808
  0
LINE
  8
0
 10
1
 20
2.8808
 11
1.08682
 21
2.8732
  0
LINE
  8
0
 10
1.08682
 20
2.8732
 11
1.17101
 21
2.85063
  0
LINE
  8
0
 10
1.17101
 20
2.85063
 11
1.25
 21
2.81381
  0
LINE
  8
0
 10
1.25
 20
2.81381
 11
1.32138
 21
2.76381
  0
LINE
  8
0
 10
1.32138
 20
2.76381
 11
1.38301
 21
2.70218
  0
LINE
  8
0
 10
1.38301
 20
2.70218
 11
1.433
 21
2.6308
  0
LINE
  8
0
 10
1.433
 20
2.6308
 11
1.46983
 21
2.5518
  0
LINE
  8
0
 10
1.46983
 20
2.5518
 11
1.4924
 21
2.46762
  0
LINE
  8
0
 10
1.4924
 20
2.46762
 11
1.5
 21
2.3808
  0
LINE
  8
0
 10
1.5
 20
2.3808
 11
1.4924
 21
2.29398
  0
LINE
  8
0
 10
1.4924
 20
2.29398
 11
1.46983
 21
2.20978
  0
LINE
  8
0
 10
1.46983
 20
2.20978
 11
1.433
 21
2.1308
  0
LINE
  8
0
 10
1.433
 20
2.1308
 11
1.38301
 21
2.0594
  0
LINE
  8
0
 10
1.38301
 20
2.0594
 11
1.32138
 21
1.99777
  0
LINE
  8
0
 10
1.32138
 20
1.99777
 11
1.25
 21
1.94778
  0
LINE
  8
0
 10
1.25
 20
1.94778
 11
1.17101
 21
1.91095
  0
LINE
  8
0
 10
1.17101
 20
1.91095
 11
1.08682
 21
1.88838
  0
LINE
  8
0
 10
1.08682
 20
1.88838
 11
1
 21
1.8808
  0
LINE
  8
0
 10
1
 20
1.8808
 11
0.913162
 21
1.88838
  0
LINE
  8
0
 10
37.25
 20
16.625
 11
37.375
 21
16.625
  0
LINE
  8
0
 10
37.375
 20
16.625
 11
37.375
 21
16.5
  0
LINE
  8
0
 10
37.375
 20
16.5
 11
40.625
 21
16.5
  0
LINE
  8
0
 10
40.625
 20
16.5
 11
40.625
 21
16.625
  0
LINE
  8
0
 10
40.625
 20
16.625
 11
40.75
 21
16.625
  0
LINE
  8
0
 10
40.75
 20
16.625
 11
40.75
 21
16
  0
LINE
  8
0
 10
40.75
 20
16
 11
41.5
 21
16
  0
LINE
  8
0
 10
41.5
 20
16
 11
41.5
 21
19.125
  0
LINE
  8
0
 10
41.5
 20
19.125
 11
41.375
 21
19.125
  0
LINE
  8
0
 10
41.375
 20
19.125
 11
41.375
 21
19.25
  0
LINE
  8
0
 10
41.375
 20
19.25
 11
42
 21
19.25
  0
LINE
  8
0
 10
42
 20
19.25
 11
42
 21
19.75
  0
LINE
  8
0
 10
42
 20
19.75
 11
41.375
 21
19.75
  0
LINE
  8
0
 10
41.375
 20
19.75
 11
41.375
 21
19.875
  0
LINE
  8
0
 10
41.375
 20
19.875
 11
41.5
 21
19.875
  0
LINE
  8
0
 10
41.5
 20
19.875
 11
41.5
 21
23
  0
LINE
  8
0
 10
41.5
 20
23
 11
40.75
 21
23
  0
LINE
  8
0
 10
40.75
 20
23
 11
40.75
 21
22.375
  0
LINE
  8
0
 10
40.75
 20
22.375
 11
40.625
 21
22.375
  0
LINE
  8
0
 10
40.625
 20
22.375
 11
40.625
 21
22.5
  0
LINE
  8
0
 10
40.625
 20
22.5
 11
37.375
 21
22.5
  0
LINE
  8
0
 10
37.375
 20
22.5
 11
37.375
 21
22.375
  0
LINE
  8
0
 10
37.375
 20
22.375
 11
37.25
 21
22.375
  0
LINE
  8
0
 10
37.25
 20
22.375
 11
37.25
 21
23
  0
LINE
  8
0
 10
37.25
 20
23
 11
36.5
 21
23
  0
LINE
  8
0
 10
36.5
 20
23
 11
36.5
 21
16
  0
LINE
  8
0
 10
36.5
 20
16
 11
37.25
 21
16
  0
LINE
  8
0
 10
37.25
 20
16
 11
37.25
 21
16.625
  0
LINE
  8
0
 10
28.4688
 20
0.65625
 11
28.3438
 21
0.65625
  0
LINE
  8
0
 10
28.3438
 20
0.65625
 11
28.3438
 21
0.90625
  0
LINE
  8
0
 10
28.3438
 20
0.90625
 11
28.5938
 21
0.90625
  0
LINE
  8
0
 10
28.5938
 20
0.90625
 11
28.5938
 21
0.78125
  0
LINE
  8
0
 10
28.5938
 20
0.78125
 11
29
 21
0.78125
  0
LINE
  8
0
 10
29
 20
0.78125
 11
29
 21
4.21875
  0
LINE
  8
0
 10
29
 20
4.21875
 11
28.5938
 21
4.21875
  0
LINE
  8
0
 10
28.5938
 20
4.21875
 11
28.5938
 21
4.09375
  0
LINE
  8
0
 10
28.5938
 20
4.09375
 11
28.3438
 21
4.09375
  0
LINE
  8
0
 10
28.3438
 20
4.09375
 11
28.3438
 21
4.34375
  0
LINE
  8
0
 10
28.3438
 20
4.34375
 11
28.4688
 21
4.34375
  0
LINE
  8
0
 10
28.4688
 20
4.34375
 11
28.4688
 21
4.96875
  0
LINE
  8
0
 10
28.4688
 20
4.96875
 11
28.0938
 21
4.96875
  0
LINE
  8
0
 10
28.0938
 20
4.96875
 11
28.0938
 21
4.84375
  0
LINE
  8
0
 10
28.0938
 20
4.84375
 11
27.8438
 21
4.84375
  0
LINE
  8
0
 10
27.8438
 20
4.84375
 11
27.8438
 21
5.09375
  0
LINE
  8
0
 10
27.8438
 20
5.09375
 11
27.9688
 21
5.09375
  0
LINE
  8
0
 10
27.9688
 20
5.09375
 11
27.9688
 21
5.40625
  0
LINE
  8
0
 10
27.9688
 20
5.40625
 11
27.8438
 21
5.40625
  0
LINE
  8
0
 10
27.8438
 20
5.40625
 11
27.8438
 21
5.65625
  0
LINE
  8
0
 10
27.8438
 20
5.65625
 11
28.4688
 21
5.65625
  0
LINE
  8
0
 10
28.4688
 20
5.65625
 11
28.4688
 21
5.53125
  0
LINE
  8
0
 10
28.4688
 20
5.53125
 11
29
 21
5.53125
  0
LINE
  8
0
 10
29
 20
5.53125
 11
29
 21
11.4688
  0
LINE
  8
0
 10
29
 20
11.4688
 11
28.5938
 21
11.4688
  0
LINE
  8
0
 10
28.5938
 20
11.4688
 11
28.5938
 21
11.3438
  0
LINE
  8
0
 10
28.5938
 20
11.3438
 11
28.0938
 21
11.3438
  0
LINE
  8
0
 10
28.0938
 20
11.3438
 11
28.0938
 21
11.5938
  0
LINE
  8
0
 10
28.0938
 20
11.5938
 11
28.2188
 21
11.5938
  0
LINE
  8
0
 10
28.2188
 20
11.5938
 11
28.2188
 21
11.9062
  0
LINE
  8
0
 10
28.2188
 20
11.9062
 11
28.0938
 21
11.9062
  0
LINE
  8
0
 10
28.0938
 20
11.9062
 11
28.0938
 21
12.1562
  0
LINE
  8
0
 10
28.0938
 20
12.1562
 11
28.3438
 21
12.1562
  0
LINE
  8
0
 10
28.3438
 20
12.1562
 11
28.3438
 21
12.0312
  0
LINE
  8
0
 10
28.3438
 20
12.0312
 11
28.4688
 21
12.0312
  0
LINE
  8
0
 10
28.4688
 20
12.0312
 11
28.4688
 21
12.4062
  0
LINE
  8
0
 10
28.4688
 20
12.4062
 11
28.3438
 21
12.4062
  0
LINE
  8
0
 10
28.3438
 20
12.4062
 11
28.3438
 21
12.6562
  0
LINE
  8
0
 10
28.3438
 20
12.6562
 11
28.7188
 21
12.6562
  0
LINE
  8
0
 10
28.7188
 20
12.6562
 11
28.7188
 21
12.5312
  0
LINE
  8
0
 10
28.7188
 20
12.5312
 11
29
 21
12.5312
  0
LINE
  8
0
 10
29
 20
12.5312
 11
29
 21
17.4688
  0
LINE
  8
0
 10
29
 20
17.4688
 11
28.5938
 21
17.4688
  0
LINE
  8
0
 10
28.5938
 20
17.4688
 11
28.5938
 21
17.3438
  0
LINE
  8
0
 10
28.5938
 20
17.3438
 11
28.3438
 21
17.3438
  0
LINE
  8
0
 10
28.3438
 20
17.3438
 11
28.3438
 21
17.5938
  0
LINE
  8
0
 10
28.3438
 20
17.5938
 11
28.4688
 21
17.5938
  0
LINE
  8
0
 10
28.4688
 20
17.5938
 11
28.4688
 21
17.9688
  0
LINE
  8
0
 10
28.4688
 20
17.9688
 11
28.3438
 21
17.9688
  0
LINE
  8
0
 10
28.3438
 20
17.9688
 11
28.3438
 21
17.8438
  0
LINE
  8
0
 10
28.3438
 20
17.8438
 11
28.0938
 21
17.8438
  0
LINE
  8
0
 10
28.0938
 20
17.8438
 11
28.0938
 21
18.0938
  0
LINE
  8
0
 10
28.0938
 20
18.0938
 11
28.2188
 21
18.0938
  0
LINE
  8
0
 10
28.2188
 20
18.0938
 11
28.2188
 21
18.5
  0
LINE
  8
0
 10
28.2188
 20
18.5
 11
24.2812
 21
18.5
  0
LINE
  8
0
 10
24.2812
 20
18.5
 11
24.2812
 21
18.0938
  0
LINE
  8
0
 10
24.2812
 20
18.0938
 11
24.4062
 21
18.0938
  0
LINE
  8
0
 10
24.4062
 20
18.0938
 11
24.4062
 21
17.8438
  0
LINE
  8
0
 10
24.4062
 20
17.8438
 11
23.9062
 21
17.8438
  0
LINE
  8
0
 10
23.9062
 20
17.8438
 11
23.9062
 21
17.9688
  0
LINE
  8
0
 10
23.9062
 20
17.9688
 11
23
 21
17.9688
  0
LINE
  8
0
 10
23
 20
17.9688
 11
23
 21
13.0312
  0
LINE
  8
0
 10
23
 20
13.0312
 11
23.4062
 21
13.0312
  0
LINE
  8
0
 10
23.4062
 20
13.0312
 11
23.4062
 21
13.1562
  0
LINE
  8
0
 10
23.4062
 20
13.1562
 11
23.6562
 21
13.1562
  0
LINE
  8
0
 10
23.6562
 20
13.1562
 11
23.6562
 21
12.5312
  0
LINE
  8
0
 10
23.6562
 20
12.5312
 11
23.5312
 21
12.5312
  0
LINE
  8
0
 10
23.5312
 20
12.5312
 11
23.5312
 21
12.0312
  0
LINE
  8
0
 10
23.5312
 20
12.0312
 11
24.0312
 21
12.0312
  0
LINE
  8
0
 10
24.0312
 20
12.0312
 11
24.0312
 21
12.1562
  0
LINE
  8
0
 10
24.0312
 20
12.1562
 11
24.4062
 21
12.1562
  0
LINE
  8
0
 10
24.4062
 20
12.1562
 11
24.4062
 21
11.9062
  0
LINE
  8
0
 10
24.4062
 20
11.9062
 11
24.2812
 21
11.9062
  0
LINE
  8
0
 10
24.2812
 20
11.9062
 11
24.2812
 21
11.5938
  0
LINE
  8
0
 10
24.2812
 20
11.5938
 11
24.4062
 21
11.5938
  0
LINE
  8
0
 10
24.4062
 20
11.5938
 11
24.4062
 21
11.3438
  0
LINE
  8
0
 10
24.4062
 20
11.3438
 11
24.0312
 21
11.3438
  0
LINE
  8
0
 10
24.0312
 20
11.3438
 11
24.0312
 21
11.4688
  0
LINE
  8
0
 10
24.0312
 20
11.4688
 11
23
 21
11.4688
  0
LINE
  8
0
 10
23
 20
11.4688
 11
23
 21
5.53125
  0
LINE
  8
0
 10
23
 20
5.53125
 11
23.4062
 21
5.53125
  0
LINE
  8
0
 10
23.4062
 20
5.53125
 11
23.4062
 21
5.65625
  0
LINE
  8
0
 10
23.4062
 20
5.65625
 11
23.6562
 21
5.65625
  0
LINE
  8
0
 10
23.6562
 20
5.65625
 11
23.6562
 21
5.40625
  0
LINE
  8
0
 10
23.6562
 20
5.40625
 11
23.5312
 21
5.40625
  0
LINE
  8
0
 10
23.5312
 20
5.40625
 11
23.5312
 21
5.09375
  0
LINE
  8
0
 10
23.5312
 20
5.09375
 11
23.6562
 21
5.09375
  0
LINE
  8
0
 10
23.6562
 20
5.09375
 11
23.6562
 21
4.84375
  0
LINE
  8
0
 10
23.6562
 20
4.84375
 11
23.4062
 21
4.84375
  0
LINE
  8
0
 10
23.4062
 20
4.84375
 11
23.4062
 21
4.96875
  0
LINE
  8
0
 10
23.4062
 20
4.96875
 11
23
 21
4.96875
  0
LINE
  8
0
 10
23
 20
4.96875
 11
23
 21
2.03125
  0
LINE
  8
0
 10
23
 20
2.03125
 11
23.4062
 21
2.03125
  0
LINE
  8
0
 10
23.4062
 20
2.03125
 11
23.4062
 21
2.15625
  0
LINE
  8
0
 10
23.4062
 20
2.15625
 11
23.6562
 21
2.15625
  0
LINE
  8
0
 10
23.6562
 20
2.15625
 11
23.6562
 21
1.90625
  0
LINE
  8
0
 10
23.6562
 20
1.90625
 11
23.5312
 21
1.90625
  0
LINE
  8
0
 10
23.5312
 20
1.90625
 11
23.5312
 21
0
  0
LINE
  8
0
 10
23.5312
 20
0
 11
28.4688
 21
0
  0
LINE
  8
0
 10
28.4688
 20
0
 11
28.4688
 21
0.65625
  0
LINE
  8
0
 10
26.4895
 20
2.02278
 11
26.237
 21
2.09045
  0
LINE
  8
0
 10
26.237
 20
2.09045
 11
26
 21
2.20096
  0
LINE
  8
0
 10
26
 20
2.20096
 11
25.7858
 21
2.35092
  0
LINE
  8
0
 10
25.7858
 20
2.35092
 11
25.6009
 21
2.53581
  0
LINE
  8
0
 10
25.6009
 20
2.53581
 11
25.451
 21
2.75
  0
LINE
  8
0
 10
25.451
 20
2.75
 11
25.3405
 21
2.98697
  0
LINE
  8
0
 10
25.3405
 20
2.98697
 11
25.2728
 21
3.23952
  0
LINE
  8
0
 10
25.2728
 20
3.23952
 11
25.25
 21
3.5
  0
LINE
  8
0
 10
25.25
 20
3.5
 11
25.2728
 21
3.76047
  0
LINE
  8
0
 10
25.2728
 20
3.76047
 11
25.3405
 21
4.01302
  0
LINE
  8
0
 10
25.3405
 20
4.01302
 11
25.451
 21
4.25
  0
LINE
  8
0
 10
25.451
 20
4.25
 11
25.6009
 21
4.46417
  0
LINE
  8
0
 10
25.6009
 20
4.46417
 11
25.7858
 21
4.64906
  0
LINE
  8
0
 10
25.7858
 20
4.64906
 11
26
 21
4.79903
  0
LINE
  8
0
 10
26
 20
4.79903
 11
26.237
 21
4.90953
  0
LINE
  8
0
 10
26.237
 20
4.90953
 11
26.4895
 21
4.9772
  0
LINE
  8
0
 10
26.4895
 20
4.9772
 11
26.75
 21
5
  0
LINE
  8
0
 10
26.75
 20
5
 11
27.0105
 21
4.9772
  0
LINE
  8
0
 10
27.0105
 20
4.9772
 11
27.263
 21
4.90953
  0
LINE
  8
0
 10
27.263
 20
4.90953
 11
27.5
 21
4.79903
  0
LINE
  8
0
 10
27.5
 20
4.79903
 11
27.7142
 21
4.64906
  0
LINE
  8
0
 10
27.7142
 20
4.64906
 11
27.8991
 21
4.46417
  0
LINE
  8
0
 10
27.8991
 20
4.46417
 11
28.049
 21
4.25
  0
LINE
  8
0
 10
28.049
 20
4.25
 11
28.1595
 21
4.01302
  0
LINE
  8
0
 10
28.1595
 20
4.01302
 11
28.2272
 21
3.76047
  0
LINE
  8
0
 10
28.2272
 20
3.76047
 11
28.25
 21
3.5
  0
LINE
  8
0
 10
28.25
 20
3.5
 11
28.2272
 21
3.23952
  0
LINE
  8
0
 10
28.2272
 20
3.23952
 11
28.1595
 21
2.98697
  0
LINE
  8
0
 10
28.1595
 20
2.98697
 11
28.049
 21
2.75
  0
LINE
  8
0
 10
28.049
 20
2.75
 11
27.8991
 21
2.53581
  0
LINE
  8
0
 10
27.8991
 20
2.53581
 11
27.7142
 21
2.35092
  0
LINE
  8
0
 10
27.7142
 20
2.35092
 11
27.5
 21
2.20096
  0
LINE
  8
0
 10
27.5
 20
2.20096
 11
27.263
 21
2.09045
  0
LINE
  8
0
 10
27.263
 20
2.09045
 11
27.0105
 21
2.02278
  0
LINE
  8
0
 10
27.0105
 20
2.02278
 11
26.75
 21
2
  0
LINE
  8
0
 10
26.75
 20
2
 11
26.4895
 21
2.02278
  0
LINE
  8
0
 10
75.5
 20
18
 11
72.5
 21
18
  0
LINE
  8
0
 10
72.5
 20
18
 11
72.5
 21
0
  0
LINE
  8
0
 10
72.5
 20
0
 11
75.5
 21
0
  0
LINE
  8
0
 10
75.5
 20
0
 11
75.5
 21
18
  0
LINE
  8
0
 10
73.83
 20
16.4769
 11
73.6767
 21
16.555
  0
LINE
  8
0
 10
73.6767
 20
16.555
 11
73.555
 21
16.6767
  0
LINE
  8
0
 10
73.555
 20
16.6767
 11
73.4769
 21
16.83
  0
LINE
  8
0
 10
73.4769
 20
16.83
 11
73.45
 21
17
  0
LINE
  8
0
 10
73.45
 20
17
 11
73.4769
 21
17.17
  0
LINE
  8
0
 10
73.4769
 20
17.17
 11
73.555
 21
17.3233
  0
LINE
  8
0
 10
73.555
 20
17.3233
 11
73.6767
 21
17.4449
  0
LINE
  8
0
 10
73.6767
 20
17.4449
 11
73.83
 21
17.5231
  0
LINE
  8
0
 10
73.83
 20
17.5231
 11
74
 21
17.55
  0
LINE
  8
0
 10
74
 20
17.55
 11
74.17
 21
17.5231
  0
LINE
  8
0
 10
74.17
 20
17.5231
 11
74.3233
 21
17.4449
  0
LINE
  8
0
 10
74.3233
 20
17.4449
 11
74.4449
 21
17.3233
  0
LINE
  8
0
 10
74.4449
 20
17.3233
 11
74.5231
 21
17.17
  0
LINE
  8
0
 10
74.5231
 20
17.17
 11
74.55
 21
17
  0
LINE
  8
0
 10
74.55
 20
17
 11
74.5231
 21
16.83
  0
LINE
  8
0
 10
74.5231
 20
16.83
 11
74.4449
 21
16.6767
  0
LINE
  8
0
 10
74.4449
 20
16.6767
 11
74.3233
 21
16.555
  0
LINE
  8
0
 10
74.3233
 20
16.555
 11
74.17
 21
16.4769
  0
LINE
  8
0
 10
74.17
 20
16.4769
 11
74
 21
16.45
  0
LINE
  8
0
 10
74
 20
16.45
 11
73.83
 21
16.4769
  0
LINE
  8
0
 10
73.83
 20
13.4769
 11
73.6767
 21
13.555
  0
LINE
  8
0
 10
73.6767
 20
13.555
 11
73.555
 21
13.6767
  0
LINE
  8
0
 10
73.555
 20
13.6767
 11
73.4769
 21
13.83
  0
LINE
  8
0
 10
73.4769
 20
13.83
 11
73.45
 21
14
  0
LINE
  8
0
 10
73.45
 20
14
 11
73.4769
 21
14.17
  0
LINE
  8
0
 10
73.4769
 20
14.17
 11
73.555
 21
14.3233
  0
LINE
  8
0
 10
73.555
 20
14.3233
 11
73.6767
 21
14.4449
  0
LINE
  8
0
 10
73.6767
 20
14.4449
 11
73.83
 21
14.5231
  0
LINE
  8
0
 10
73.83
 20
14.5231
 11
74
 21
14.55
  0
LINE
  8
0
 10
74
 20
14.55
 11
74.17
 21
14.5231
  0
LINE
  8
0
 10
74.17
 20
14.5231
 11
74.3233
 21
14.4449
  0
LINE
  8
0
 10
74.3233
 20
14.4449
 11
74.4449
 21
14.3233
  0
LINE
  8
0
 10
74.4449
 20
14.3233
 11
74.5231
 21
14.17
  0
LINE
  8
0
 10
74.5231
 20
14.17
 11
74.55
 21
14
  0
LINE
  8
0
 10
74.55
 20
14
 11
74.5231
 21
13.83
  0
LINE
  8
0
 10
74.5231
 20
13.83
 11
74.4449
 21
13.6767
  0
LINE
  8
0
 10
74.4449
 20
13.6767
 11
74.3233
 21
13.555
  0
LINE
  8
0
 10
74.3233
 20
13.555
 11
74.17
 21
13.4769
  0
LINE
  8
0
 10
74.17
 20
13.4769
 11
74
 21
13.45
  0
LINE
  8
0
 10
74
 20
13.45
 11
73.83
 21
13.4769
  0
LINE
  8
0
 10
73.83
 20
8.47691
 11
73.6767
 21
8.55504
  0
LINE
  8
0
 10
73.6767
 20
8.55504
 11
73.555
 21
8.67671
  0
LINE
  8
0
 10
73.555
 20
8.67671
 11
73.4769
 21
8.83003
  0
LINE
  8
0
 10
73.4769
 20
8.83003
 11
73.45
 21
9
  0
LINE
  8
0
 10
73.45
 20
9
 11
73.4769
 21
9.16995
  0
LINE
  8
0
 10
73.4769
 20
9.16995
 11
73.555
 21
9.32327
  0
LINE
  8
0
 10
73.555
 20
9.32327
 11
73.6767
 21
9.44495
  0
LINE
  8
0
 10
73.6767
 20
9.44495
 11
73.83
 21
9.52307
  0
LINE
  8
0
 10
73.83
 20
9.52307
 11
74
 21
9.54999
  0
LINE
  8
0
 10
74
 20
9.54999
 11
74.17
 21
9.52307
  0
LINE
  8
0
 10
74.17
 20
9.52307
 11
74.3233
 21
9.44495
  0
LINE
  8
0
 10
74.3233
 20
9.44495
 11
74.4449
 21
9.32327
  0
LINE
  8
0
 10
74.4449
 20
9.32327
 11
74.5231
 21
9.16995
  0
LINE
  8
0
 10
74.5231
 20
9.16995
 11
74.55
 21
9
  0
LINE
  8
0
 10
74.55
 20
9
 11
74.5231
 21
8.83003
  0
LINE
  8
0
 10
74.5231
 20
8.83003
 11
74.4449
 21
8.67671
  0
LINE
  8
0
 10
74.4449
 20
8.67671
 11
74.3233
 21
8.55504
  0
LINE
  8
0
 10
74.3233
 20
8.55504
 11
74.17
 21
8.47691
  0
LINE
  8
0
 10
74.17
 20
8.47691
 11
74
 21
8.45
  0
LINE
  8
0
 10
74
 20
8.45
 11
73.83
 21
8.47691
  0
LINE
  8
0
 10
73.83
 20
3.47691
 11
73.6767
 21
3.55504
  0
LINE
  8
0
 10
73.6767
 20
3.55504
 11
73.555
 21
3.67671
  0
LINE
  8
0
 10
73.555
 20
3.67671
 11
73.4769
 21
3.83003
  0
LINE
  8
0
 10
73.4769
 20
3.83003
 11
73.45
 21
4
  0
LINE
  8
0
 10
73.45
 20
4
 11
73.4769
 21
4.16995
  0
LINE
  8
0
 10
73.4769
 20
4.16995
 11
73.555
 21
4.32327
  0
LINE
  8
0
 10
73.555
 20
4.32327
 11
73.6767
 21
4.44495
  0
LINE
  8
0
 10
73.6767
 20
4.44495
 11
73.83
 21
4.52307
  0
LINE
  8
0
 10
73.83
 20
4.52307
 11
74
 21
4.54999
  0
LINE
  8
0
 10
74
 20
4.54999
 11
74.17
 21
4.52307
  0
LINE
  8
0
 10
74.17
 20
4.52307
 11
74.3233
 21
4.44495
  0
LINE
  8
0
 10
74.3233
 20
4.44495
 11
74.4449
 21
4.32327
  0
LINE
  8
0
 10
74.4449
 20
4.32327
 11
74.5231
 21
4.16995
  0
LINE
  8
0
 10
74.5231
 20
4.16995
 11
74.55
 21
4
  0
LINE
  8
0
 10
74.55
 20
4
 11
74.5231
 21
3.83003
  0
LINE
  8
0
 10
74.5231
 20
3.83003
 11
74.4449
 21
3.67671
  0
LINE
  8
0
 10
74.4449
 20
3.67671
 11
74.3233
 21
3.55504
  0
LINE
  8
0
 10
74.3233
 20
3.55504
 11
74.17
 21
3.47691
  0
LINE
  8
0
 10
74.17
 20
3.47691
 11
74
 21
3.45
  0
LINE
  8
0
 10
74
 20
3.45
 11
73.83
 21
3.47691
  0
LINE
  8
0
 10
73.83
 20
0.476913
 11
73.6767
 21
0.555038
  0
LINE
  8
0
 10
73.6767
 20
0.555038
 11
73.555
 21
0.676712
  0
LINE
  8
0
 10
73.555
 20
0.676712
 11
73.4769
 21
0.830032
  0
LINE
  8
0
 10
73.4769
 20
0.830032
 11
73.45
 21
1
  0
LINE
  8
0
 10
73.45
 20
1
 11
73.4769
 21
1.16995
  0
LINE
  8
0
 10
73.4769
 20
1.16995
 11
73.555
 21
1.32327
  0
LINE
  8
0
 10
73.555
 20
1.32327
 11
73.6767
 21
1.44495
  0
LINE
  8
0
 10
73.6767
 20
1.44495
 11
73.83
 21
1.52307
  0
LINE
  8
0
 10
73.83
 20
1.52307
 11
74
 21
1.54999
  0
LINE
  8
0
 10
74
 20
1.54999
 11
74.17
 21
1.52307
  0
LINE
  8
0
 10
74.17
 20
1.52307
 11
74.3233
 21
1.44495
  0
LINE
  8
0
 10
74.3233
 20
1.44495
 11
74.4449
 21
1.32327
  0
LINE
  8
0
 10
74.4449
 20
1.32327
 11
74.5231
 21
1.16995
  0
LINE
  8
0
 10
74.5231
 20
1.16995
 11
74.55
 21
1
  0
LINE
  8
0
 10
74.55
 20
1
 11
74.5231
 21
0.830032
  0
LINE
  8
0
 10
74.5231
 20
0.830032
 11
74.4449
 21
0.676712
  0
LINE
  8
0
 10
74.4449
 20
0.676712
 11
74.3233
 21
0.555038
  0
LINE
  8
0
 10
74.3233
 20
0.555038
 11
74.17
 21
0.476913
  0
LINE
  8
0
 10
74.17
 20
0.476913
 11
74
 21
0.449997
  0
LINE
  8
0
 10
74
 20
0.449997
 11
73.83
 21
0.476913
  0
LINE
  8
0
 10
37.25
 20
8.625
 11
37.375
 21
8.625
  0
LINE
  8
0
 10
37.375
 20
8.625
 11
37.375
 21
8.5
  0
LINE
  8
0
 10
37.375
 20
8.5
 11
40.625
 21
8.5
  0
LINE
  8
0
 10
40.625
 20
8.5
 11
40.625
 21
8.625
  0
LINE
  8
0
 10
40.625
 20
8.625
 11
40.75
 21
8.625
  0
LINE
  8
0
 10
40.75
 20
8.625
 11
40.75
 21
8
  0
LINE
  8
0
 10
40.75
 20
8
 11
41.5
 21
8
  0
LINE
  8
0
 10
41.5
 20
8
 11
41.5
 21
11.125
  0
LINE
  8
0
 10
41.5
 20
11.125
 11
41.375
 21
11.125
  0
LINE
  8
0
 10
41.375
 20
11.125
 11
41.375
 21
11.25
  0
LINE
  8
0
 10
41.375
 20
11.25
 11
42
 21
11.25
  0
LINE
  8
0
 10
42
 20
11.25
 11
42
 21
11.75
  0
LINE
  8
0
 10
42
 20
11.75
 11
41.375
 21
11.75
  0
LINE
  8
0
 10
41.375
 20
11.75
 11
41.375
 21
11.875
  0
LINE
  8
0
 10
41.375
 20
11.875
 11
41.5
 21
11.875
  0
LINE
  8
0
 10
41.5
 20
11.875
 11
41.5
 21
15
  0
LINE
  8
0
 10
41.5
 20
15
 11
40.75
 21
15
  0
LINE
  8
0
 10
40.75
 20
15
 11
40.75
 21
14.375
  0
LINE
  8
0
 10
40.75
 20
14.375
 11
40.625
 21
14.375
  0
LINE
  8
0
 10
40.625
 20
14.375
 11
40.625
 21
14.5
  0
LINE
  8
0
 10
40.625
 20
14.5
 11
37.375
 21
14.5
  0
LINE
  8
0
 10
37.375
 20
14.5
 11
37.375
 21
14.375
  0
LINE
  8
0
 10
37.375
 20
14.375
 11
37.25
 21
14.375
  0
LINE
  8
0
 10
37.25
 20
14.375
 11
37.25
 21
15
  0
LINE
  8
0
 10
37.25
 20
15
 11
36.5
 21
15
  0
LINE
  8
0
 10
36.5
 20
15
 11
36.5
 21
8
  0
LINE
  8
0
 10
36.5
 20
8
 11
37.25
 21
8
  0
LINE
  8
0
 10
37.25
 20
8
 11
37.25
 21
8.625
  0
LINE
  8
0
 10
80.5
 20
10.5
 11
76.5
 21
10.5
  0
LINE
  8
0
 10
76.5
 20
10.5
 11
76.5
 21
5.75
  0
LINE
  8
0
 10
76.5
 20
5.75
 11
80.5
 21
5.75
  0
LINE
  8
0
 10
80.5
 20
5.75
 11
80.5
 21
10.5
  0
LINE
  8
0
 10
77.4349
 20
9.13069
 11
77.3717
 21
9.14761
  0
LINE
  8
0
 10
77.3717
 20
9.14761
 11
77.3125
 21
9.17523
  0
LINE
  8
0
 10
77.3125
 20
9.17523
 11
77.2589
 21
9.21272
  0
LINE
  8
0
 10
77.2589
 20
9.21272
 11
77.2127
 21
9.25894
  0
LINE
  8
0
 10
77.2127
 20
9.25894
 11
77.1752
 21
9.3125
  0
LINE
  8
0
 10
77.1752
 20
9.3125
 11
77.1476
 21
9.37173
  0
LINE
  8
0
 10
77.1476
 20
9.37173
 11
77.1307
 21
9.43488
  0
LINE
  8
0
 10
77.1307
 20
9.43488
 11
77.125
 21
9.5
  0
LINE
  8
0
 10
77.125
 20
9.5
 11
77.1307
 21
9.56511
  0
LINE
  8
0
 10
77.1307
 20
9.56511
 11
77.1476
 21
9.62825
  0
LINE
  8
0
 10
77.1476
 20
9.62825
 11
77.1752
 21
9.6875
  0
LINE
  8
0
 10
77.1752
 20
9.6875
 11
77.2127
 21
9.74104
  0
LINE
  8
0
 10
77.2127
 20
9.74104
 11
77.2589
 21
9.78726
  0
LINE
  8
0
 10
77.2589
 20
9.78726
 11
77.3125
 21
9.82475
  0
LINE
  8
0
 10
77.3125
 20
9.82475
 11
77.3717
 21
9.85237
  0
LINE
  8
0
 10
77.3717
 20
9.85237
 11
77.4349
 21
9.86929
  0
LINE
  8
0
 10
77.4349
 20
9.86929
 11
77.5
 21
9.875
  0
LINE
  8
0
 10
77.5
 20
9.875
 11
77.5651
 21
9.86929
  0
LINE
  8
0
 10
77.5651
 20
9.86929
 11
77.6283
 21
9.85237
  0
LINE
  8
0
 10
77.6283
 20
9.85237
 11
77.6875
 21
9.82475
  0
LINE
  8
0
 10
77.6875
 20
9.82475
 11
77.741
 21
9.78726
  0
LINE
  8
0
 10
77.741
 20
9.78726
 11
77.7873
 21
9.74104
  0
LINE
  8
0
 10
77.7873
 20
9.74104
 11
77.8248
 21
9.6875
  0
LINE
  8
0
 10
77.8248
 20
9.6875
 11
77.8524
 21
9.62825
  0
LINE
  8
0
 10
77.8524
 20
9.62825
 11
77.8693
 21
9.56511
  0
LINE
  8
0
 10
77.8693
 20
9.56511
 11
77.875
 21
9.5
  0
LINE
  8
0
 10
77.875
 20
9.5
 11
77.8693
 21
9.43488
  0
LINE
  8
0
 10
77.8693
 20
9.43488
 11
77.8524
 21
9.37173
  0
LINE
  8
0
 10
77.8524
 20
9.37173
 11
77.8248
 21
9.3125
  0
LINE
  8
0
 10
77.8248
 20
9.3125
 11
77.7873
 21
9.25894
  0
LINE
  8
0
 10
77.7873
 20
9.25894
 11
77.741
 21
9.21272
  0
LINE
  8
0
 10
77.741
 20
9.21272
 11
77.6875
 21
9.17523
  0
LINE
  8
0
 10
77.6875
 20
9.17523
 11
77.6283
 21
9.14761
  0
LINE
  8
0
 10
77.6283
 20
9.14761
 11
77.5651
 21
9.13069
  0
LINE
  8
0
 10
77.5651
 20
9.13069
 11
77.5
 21
9.125
  0
LINE
  8
0
 10
77.5
 20
9.125
 11
77.4349
 21
9.13069
  0
LINE
  8
0
 10
79.4349
 20
9.13069
 11
79.3717
 21
9.14761
  0
LINE
  8
0
 10
79.3717
 20
9.14761
 11
79.3125
 21
9.17523
  0
LINE
  8
0
 10
79.3125
 20
9.17523
 11
79.2589
 21
9.21272
  0
LINE
  8
0
 10
79.2589
 20
9.21272
 11
79.2127
 21
9.25894
  0
LINE
  8
0
 10
79.2127
 20
9.25894
 11
79.1752
 21
9.3125
  0
LINE
  8
0
 10
79.1752
 20
9.3125
 11
79.1476
 21
9.37173
  0
LINE
  8
0
 10
79.1476
 20
9.37173
 11
79.1307
 21
9.43488
  0
LINE
  8
0
 10
79.1307
 20
9.43488
 11
79.125
 21
9.5
  0
LINE
  8
0
 10
79.125
 20
9.5
 11
79.1307
 21
9.56511
  0
LINE
  8
0
 10
79.1307
 20
9.56511
 11
79.1476
 21
9.62825
  0
LINE
  8
0
 10
79.1476
 20
9.62825
 11
79.1752
 21
9.6875
  0
LINE
  8
0
 10
79.1752
 20
9.6875
 11
79.2127
 21
9.74104
  0
LINE
  8
0
 10
79.2127
 20
9.74104
 11
79.2589
 21
9.78726
  0
LINE
  8
0
 10
79.2589
 20
9.78726
 11
79.3125
 21
9.82475
  0
LINE
  8
0
 10
79.3125
 20
9.82475
 11
79.3717
 21
9.85237
  0
LINE
  8
0
 10
79.3717
 20
9.85237
 11
79.4349
 21
9.86929
  0
LINE
  8
0
 10
79.4349
 20
9.86929
 11
79.5
 21
9.875
  0
LINE
  8
0
 10
79.5
 20
9.875
 11
79.5651
 21
9.86929
  0
LINE
  8
0
 10
79.5651
 20
9.86929
 11
79.6283
 21
9.85237
  0
LINE
  8
0
 10
79.6283
 20
9.85237
 11
79.6875
 21
9.82475
  0
LINE
  8
0
 10
79.6875
 20
9.82475
 11
79.741
 21
9.78726
  0
LINE
  8
0
 10
79.741
 20
9.78726
 11
79.7873
 21
9.74104
  0
LINE
  8
0
 10
79.7873
 20
9.74104
 11
79.8248
 21
9.6875
  0
LINE
  8
0
 10
79.8248
 20
9.6875
 11
79.8524
 21
9.62825
  0
LINE
  8
0
 10
79.8524
 20
9.62825
 11
79.8693
 21
9.56511
  0
LINE
  8
0
 10
79.8693
 20
9.56511
 11
79.875
 21
9.5
  0
LINE
  8
0
 10
79.875
 20
9.5
 11
79.8693
 21
9.43488
  0
LINE
  8
0
 10
79.8693
 20
9.43488
 11
79.8524
 21
9.37173
  0
LINE
  8
0
 10
79.8524
 20
9.37173
 11
79.8248
 21
9.3125
  0
LINE
  8
0
 10
79.8248
 20
9.3125
 11
79.7873
 21
9.25894
  0
LINE
  8
0
 10
79.7873
 20
9.25894
 11
79.741
 21
9.21272
  0
LINE
  8
0
 10
79.741
 20
9.21272
 11
79.6875
 21
9.17523
  0
LINE
  8
0
 10
79.6875
 20
9.17523
 11
79.6283
 21
9.14761
  0
LINE
  8
0
 10
79.6283
 20
9.14761
 11
79.5651
 21
9.13069
  0
LINE
  8
0
 10
79.5651
 20
9.13069
 11
79.5
 21
9.125
  0
LINE
  8
0
 10
79.5
 20
9.125
 11
79.4349
 21
9.13069
  0
LINE
  8
0
 10
77.4132
 20
6.25758
 11
77.329
 21
6.28015
  0
LINE
  8
0
 10
77.329
 20
6.28015
 11
77.25
 21
6.31699
  0
LINE
  8
0
 10
77.25
 20
6.31699
 11
77.1786
 21
6.36697
  0
LINE
  8
0
 10
77.1786
 20
6.36697
 11
77.117
 21
6.4286
  0
LINE
  8
0
 10
77.117
 20
6.4286
 11
77.067
 21
6.5
  0
LINE
  8
0
 10
77.067
 20
6.5
 11
77.0302
 21
6.57898
  0
LINE
  8
0
 10
77.0302
 20
6.57898
 11
77.0076
 21
6.66316
  0
LINE
  8
0
 10
77.0076
 20
6.66316
 11
77
 21
6.75
  0
LINE
  8
0
 10
77
 20
6.75
 11
77.0076
 21
6.83682
  0
LINE
  8
0
 10
77.0076
 20
6.83682
 11
77.0302
 21
6.92101
  0
LINE
  8
0
 10
77.0302
 20
6.92101
 11
77.067
 21
7
  0
LINE
  8
0
 10
77.067
 20
7
 11
77.117
 21
7.07138
  0
LINE
  8
0
 10
77.117
 20
7.07138
 11
77.1786
 21
7.13301
  0
LINE
  8
0
 10
77.1786
 20
7.13301
 11
77.25
 21
7.183
  0
LINE
  8
0
 10
77.25
 20
7.183
 11
77.329
 21
7.21983
  0
LINE
  8
0
 10
77.329
 20
7.21983
 11
77.4132
 21
7.2424
  0
LINE
  8
0
 10
77.4132
 20
7.2424
 11
77.5
 21
7.25
  0
LINE
  8
0
 10
77.5
 20
7.25
 11
77.5868
 21
7.2424
  0
LINE
  8
0
 10
77.5868
 20
7.2424
 11
77.671
 21
7.21983
  0
LINE
  8
0
 10
77.671
 20
7.21983
 11
77.75
 21
7.183
  0
LINE
  8
0
 10
77.75
 20
7.183
 11
77.8214
 21
7.13301
  0
LINE
  8
0
 10
77.8214
 20
7.13301
 11
77.883
 21
7.07138
  0
LINE
  8
0
 10
77.883
 20
7.07138
 11
77.933
 21
7
  0
LINE
  8
0
 10
77.933
 20
7
 11
77.9698
 21
6.92101
  0
LINE
  8
0
 10
77.9698
 20
6.92101
 11
77.9924
 21
6.83682
  0
LINE
  8
0
 10
77.9924
 20
6.83682
 11
78
 21
6.75
  0
LINE
  8
0
 10
78
 20
6.75
 11
77.9924
 21
6.66316
  0
LINE
  8
0
 10
77.9924
 20
6.66316
 11
77.9698
 21
6.57898
  0
LINE
  8
0
 10
77.9698
 20
6.57898
 11
77.933
 21
6.5
  0
LINE
  8
0
 10
77.933
 20
6.5
 11
77.883
 21
6.4286
  0
LINE
  8
0
 10
77.883
 20
6.4286
 11
77.8214
 21
6.36697
  0
LINE
  8
0
 10
77.8214
 20
6.36697
 11
77.75
 21
6.31699
  0
LINE
  8
0
 10
77.75
 20
6.31699
 11
77.671
 21
6.28015
  0
LINE
  8
0
 10
77.671
 20
6.28015
 11
77.5868
 21
6.25758
  0
LINE
  8
0
 10
77.5868
 20
6.25758
 11
77.5
 21
6.25
  0
LINE
  8
0
 10
77.5
 20
6.25
 11
77.4132
 21
6.25758
  0
LINE
  8
0
 10
79.4132
 20
6.25758
 11
79.329
 21
6.28015
  0
LINE
  8
0
 10
79.329
 20
6.28015
 11
79.25
 21
6.31699
  0
LINE
  8
0
 10
79.25
 20
6.31699
 11
79.1786
 21
6.36697
  0
LINE
  8
0
 10
79.1786
 20
6.36697
 11
79.117
 21
6.4286
  0
LINE
  8
0
 10
79.117
 20
6.4286
 11
79.067
 21
6.5
  0
LINE
  8
0
 10
79.067
 20
6.5
 11
79.0302
 21
6.57898
  0
LINE
  8
0
 10
79.0302
 20
6.57898
 11
79.0076
 21
6.66316
  0
LINE
  8
0
 10
79.0076
 20
6.66316
 11
79
 21
6.75
  0
LINE
  8
0
 10
79
 20
6.75
 11
79.0076
 21
6.83682
  0
LINE
  8
0
 10
79.0076
 20
6.83682
 11
79.0302
 21
6.92101
  0
LINE
  8
0
 10
79.0302
 20
6.92101
 11
79.067
 21
7
  0
LINE
  8
0
 10
79.067
 20
7
 11
79.117
 21
7.07138
  0
LINE
  8
0
 10
79.117
 20
7.07138
 11
79.1786
 21
7.13301
  0
LINE
  8
0
 10
79.1786
 20
7.13301
 11
79.25
 21
7.183
  0
LINE
  8
0
 10
79.25
 20
7.183
 11
79.329
 21
7.21983
  0
LINE
  8
0
 10
79.329
 20
7.21983
 11
79.4132
 21
7.2424
  0
LINE
  8
0
 10
79.4132
 20
7.2424
 11
79.5
 21
7.25
  0
LINE
  8
0
 10
79.5
 20
7.25
 11
79.5868
 21
7.2424
  0
LINE
  8
0
 10
79.5868
 20
7.2424
 11
79.671
 21
7.21983
  0
LINE
  8
0
 10
79.671
 20
7.21983
 11
79.75
 21
7.183
  0
LINE
  8
0
 10
79.75
 20
7.183
 11
79.8214
 21
7.13301
  0
LINE
  8
0
 10
79.8214
 20
7.13301
 11
79.883
 21
7.07138
  0
LINE
  8
0
 10
79.883
 20
7.07138
 11
79.933
 21
7
  0
LINE
  8
0
 10
79.933
 20
7
 11
79.9698
 21
6.92101
  0
LINE
  8
0
 10
79.9698
 20
6.92101
 11
79.9924
 21
6.83682
  0
LINE
  8
0
 10
79.9924
 20
6.83682
 11
80
 21
6.75
  0
LINE
  8
0
 10
80
 20
6.75
 11
79.9924
 21
6.66316
  0
LINE
  8
0
 10
79.9924
 20
6.66316
 11
79.9698
 21
6.57898
  0
LINE
  8
0
 10
79.9698
 20
6.57898
 11
79.933
 21
6.5
  0
LINE
  8
0
 10
79.933
 20
6.5
 11
79.883
 21
6.4286
  0
LINE
  8
0
 10
79.883
 20
6.4286
 11
79.8214
 21
6.36697
  0
LINE
  8
0
 10
79.8214
 20
6.36697
 11
79.75
 21
6.31699
  0
LINE
  8
0
 10
79.75
 20
6.31699
 11
79.671
 21
6.28015
  0
LINE
  8
0
 10
79.671
 20
6.28015
 11
79.5868
 21
6.25758
  0
LINE
  8
0
 10
79.5868
 20
6.25758
 11
79.5
 21
6.25
  0
LINE
  8
0
 10
79.5
 20
6.25
 11
79.4132
 21
6.25758
  0
LINE
  8
0
 10
69.75
 20
5.125
 11
69.875
 21
5.125
  0
LINE
  8
0
 10
69.875
 20
5.125
 11
69.875
 21
5
  0
LINE
  8
0
 10
69.875
 20
5
 11
71
 21
5
  0
LINE
  8
0
 10
71
 20
5
 11
71
 21
6.125
  0
LINE
  8
0
 10
71
 20
6.125
 11
70.875
 21
6.125
  0
LINE
  8
0
 10
70.875
 20
6.125
 11
70.875
 21
6.25
  0
LINE
  8
0
 10
70.875
 20
6.25
 11
71.5
 21
6.25
  0
LINE
  8
0
 10
71.5
 20
6.25
 11
71.5
 21
6.75
  0
LINE
  8
0
 10
71.5
 20
6.75
 11
70.875
 21
6.75
  0
LINE
  8
0
 10
70.875
 20
6.75
 11
70.875
 21
6.875
  0
LINE
  8
0
 10
70.875
 20
6.875
 11
71
 21
6.875
  0
LINE
  8
0
 10
71
 20
6.875
 11
71
 21
8
  0
LINE
  8
0
 10
71
 20
8
 11
68
 21
8
  0
LINE
  8
0
 10
68
 20
8
 11
68
 21
5
  0
LINE
  8
0
 10
68
 20
5
 11
69.125
 21
5
  0
LINE
  8
0
 10
69.125
 20
5
 11
69.125
 21
5.125
  0
LINE
  8
0
 10
69.125
 20
5.125
 11
69.25
 21
5.125
  0
LINE
  8
0
 10
69.25
 20
5.125
 11
69.25
 21
4.5
  0
LINE
  8
0
 10
69.25
 20
4.5
 11
69.75
 21
4.5
  0
LINE
  8
0
 10
69.75
 20
4.5
 11
69.75
 21
5.125
  0
LINE
  8
0
 10
69.4132
 20
6.00758
 11
69.329
 21
6.03015
  0
LINE
  8
0
 10
69.329
 20
6.03015
 11
69.25
 21
6.06699
  0
LINE
  8
0
 10
69.25
 20
6.06699
 11
69.1786
 21
6.11697
  0
LINE
  8
0
 10
69.1786
 20
6.11697
 11
69.117
 21
6.1786
  0
LINE
  8
0
 10
69.117
 20
6.1786
 11
69.067
 21
6.25
  0
LINE
  8
0
 10
69.067
 20
6.25
 11
69.0302
 21
6.32898
  0
LINE
  8
0
 10
69.0302
 20
6.32898
 11
69.0076
 21
6.41316
  0
LINE
  8
0
 10
69.0076
 20
6.41316
 11
69
 21
6.5
  0
LINE
  8
0
 10
69
 20
6.5
 11
69.0076
 21
6.58682
  0
LINE
  8
0
 10
69.0076
 20
6.58682
 11
69.0302
 21
6.67101
  0
LINE
  8
0
 10
69.0302
 20
6.67101
 11
69.067
 21
6.75
  0
LINE
  8
0
 10
69.067
 20
6.75
 11
69.117
 21
6.82138
  0
LINE
  8
0
 10
69.117
 20
6.82138
 11
69.1786
 21
6.88301
  0
LINE
  8
0
 10
69.1786
 20
6.88301
 11
69.25
 21
6.933
  0
LINE
  8
0
 10
69.25
 20
6.933
 11
69.329
 21
6.96983
  0
LINE
  8
0
 10
69.329
 20
6.96983
 11
69.4132
 21
6.9924
  0
LINE
  8
0
 10
69.4132
 20
6.9924
 11
69.5
 21
7
  0
LINE
  8
0
 10
69.5
 20
7
 11
69.5868
 21
6.9924
  0
LINE
  8
0
 10
69.5868
 20
6.9924
 11
69.671
 21
6.96983
  0
LINE
  8
0
 10
69.671
 20
6.96983
 11
69.75
 21
6.933
  0
LINE
  8
0
 10
69.75
 20
6.933
 11
69.8214
 21
6.88301
  0
LINE
  8
0
 10
69.8214
 20
6.88301
 11
69.883
 21
6.82138
  0
LINE
  8
0
 10
69.883
 20
6.82138
 11
69.933
 21
6.75
  0
LINE
  8
0
 10
69.933
 20
6.75
 11
69.9698
 21
6.67101
  0
LINE
  8
0
 10
69.9698
 20
6.67101
 11
69.9924
 21
6.58682
  0
LINE
  8
0
 10
69.9924
 20
6.58682
 11
70
 21
6.5
  0
LINE
  8
0
 10
70
 20
6.5
 11
69.9924
 21
6.41316
  0
LINE
  8
0
 10
69.9924
 20
6.41316
 11
69.9698
 21
6.32898
  0
LINE
  8
0
 10
69.9698
 20
6.32898
 11
69.933
 21
6.25
  0
LINE
  8
0
 10
69.933
 20
6.25
 11
69.883
 21
6.1786
  0
LINE
  8
0
 10
69.883
 20
6.1786
 11
69.8214
 21
6.11697
  0
LINE
  8
0
 10
69.8214
 20
6.11697
 11
69.75
 21
6.06699
  0
LINE
  8
0
 10
69.75
 20
6.06699
 11
69.671
 21
6.03015
  0
LINE
  8
0
 10
69.671
 20
6.03015
 11
69.5868
 21
6.00758
  0
LINE
  8
0
 10
69.5868
 20
6.00758
 11
69.5
 21
6
  0
LINE
  8
0
 10
69.5
 20
6
 11
69.4132
 21
6.00758
  0
LINE
  8
0
 10
37.25
 20
0.625
 11
37.375
 21
0.625
  0
LINE
  8
0
 10
37.375
 20
0.625
 11
37.375
 21
0.5
  0
LINE
  8
0
 10
37.375
 20
0.5
 11
40.625
 21
0.5
  0
LINE
  8
0
 10
40.625
 20
0.5
 11
40.625
 21
0.625
  0
LINE
  8
0
 10
40.625
 20
0.625
 11
40.75
 21
0.625
  0
LINE
  8
0
 10
40.75
 20
0.625
 11
40.75
 21
0
  0
LINE
  8
0
 10
40.75
 20
0
 11
41.5
 21
0
  0
LINE
  8
0
 10
41.5
 20
0
 11
41.5
 21
3.125
  0
LINE
  8
0
 10
41.5
 20
3.125
 11
41.375
 21
3.125
  0
LINE
  8
0
 10
41.375
 20
3.125
 11
41.375
 21
3.25
  0
LINE
  8
0
 10
41.375
 20
3.25
 11
42
 21
3.25
  0
LINE
  8
0
 10
42
 20
3.25
 11
42
 21
3.75
  0
LINE
  8
0
 10
42
 20
3.75
 11
41.375
 21
3.75
  0
LINE
  8
0
 10
41.375
 20
3.75
 11
41.375
 21
3.875
  0
LINE
  8
0
 10
41.375
 20
3.875
 11
41.5
 21
3.875
  0
LINE
  8
0
 10
41.5
 20
3.875
 11
41.5
 21
7
  0
LINE
  8
0
 10
41.5
 20
7
 11
40.75
 21
7
  0
LINE
  8
0
 10
40.75
 20
7
 11
40.75
 21
6.375
  0
LINE
  8
0
 10
40.75
 20
6.375
 11
40.625
 21
6.375
  0
LINE
  8
0
 10
40.625
 20
6.375
 11
40.625
 21
6.5
  0
LINE
  8
0
 10
40.625
 20
6.5
 11
37.375
 21
6.5
  0
LINE
  8
0
 10
37.375
 20
6.5
 11
37.375
 21
6.375
  0
LINE
  8
0
 10
37.375
 20
6.375
 11
37.25
 21
6.375
  0
LINE
  8
0
 10
37.25
 20
6.375
 11
37.25
 21
7
  0
LINE
  8
0
 10
37.25
 20
7
 11
36.5
 21
7
  0
LINE
  8
0
 10
36.5
 20
7
 11
36.5
 21
0
  0
LINE
  8
0
 10
36.5
 20
0
 11
37.25
 21
0
  0
LINE
  8
0
 10
37.25
 20
0
 11
37.25
 21
0.625
  0
LINE
  8
0
 10
61
 20
4.5
 11
60.375
 21
4.5
  0
LINE
  8
0
 10
60.375
 20
4.5
 11
60.375
 21
4.625
  0
LINE
  8
0
 10
60.375
 20
4.625
 11
60.5
 21
4.625
  0
LINE
  8
0
 10
60.5
 20
4.625
 11
60.5
 21
4.875
  0
LINE
  8
0
 10
60.5
 20
4.875
 11
60.375
 21
4.875
  0
LINE
  8
0
 10
60.375
 20
4.875
 11
60.375
 21
6.125
  0
LINE
  8
0
 10
60.375
 20
6.125
 11
60.5
 21
6.125
  0
LINE
  8
0
 10
60.5
 20
6.125
 11
60.5
 21
6.375
  0
LINE
  8
0
 10
60.5
 20
6.375
 11
60.375
 21
6.375
  0
LINE
  8
0
 10
60.375
 20
6.375
 11
60.375
 21
6.5
  0
LINE
  8
0
 10
60.375
 20
6.5
 11
61
 21
6.5
  0
LINE
  8
0
 10
61
 20
6.5
 11
61
 21
7
  0
LINE
  8
0
 10
61
 20
7
 11
57
 21
7
  0
LINE
  8
0
 10
57
 20
7
 11
57
 21
4
  0
LINE
  8
0
 10
57
 20
4
 11
61
 21
4
  0
LINE
  8
0
 10
61
 20
4
 11
61
 21
4.5
  0
LINE
  8
0
 10
58.4132
 20
5.00758
 11
58.329
 21
5.03015
  0
LINE
  8
0
 10
58.329
 20
5.03015
 11
58.25
 21
5.06699
  0
LINE
  8
0
 10
58.25
 20
5.06699
 11
58.1786
 21
5.11697
  0
LINE
  8
0
 10
58.1786
 20
5.11697
 11
58.117
 21
5.1786
  0
LINE
  8
0
 10
58.117
 20
5.1786
 11
58.067
 21
5.25
  0
LINE
  8
0
 10
58.067
 20
5.25
 11
58.0302
 21
5.32898
  0
LINE
  8
0
 10
58.0302
 20
5.32898
 11
58.0076
 21
5.41316
  0
LINE
  8
0
 10
58.0076
 20
5.41316
 11
58
 21
5.5
  0
LINE
  8
0
 10
58
 20
5.5
 11
58.0076
 21
5.58682
  0
LINE
  8
0
 10
58.0076
 20
5.58682
 11
58.0302
 21
5.67101
  0
LINE
  8
0
 10
58.0302
 20
5.67101
 11
58.067
 21
5.75
  0
LINE
  8
0
 10
58.067
 20
5.75
 11
58.117
 21
5.82138
  0
LINE
  8
0
 10
58.117
 20
5.82138
 11
58.1786
 21
5.88301
  0
LINE
  8
0
 10
58.1786
 20
5.88301
 11
58.25
 21
5.933
  0
LINE
  8
0
 10
58.25
 20
5.933
 11
58.329
 21
5.96983
  0
LINE
  8
0
 10
58.329
 20
5.96983
 11
58.4132
 21
5.9924
  0
LINE
  8
0
 10
58.4132
 20
5.9924
 11
58.5
 21
6
  0
LINE
  8
0
 10
58.5
 20
6
 11
58.5868
 21
5.9924
  0
LINE
  8
0
 10
58.5868
 20
5.9924
 11
58.671
 21
5.96983
  0
LINE
  8
0
 10
58.671
 20
5.96983
 11
58.75
 21
5.933
  0
LINE
  8
0
 10
58.75
 20
5.933
 11
58.8214
 21
5.88301
  0
LINE
  8
0
 10
58.8214
 20
5.88301
 11
58.883
 21
5.82138
  0
LINE
  8
0
 10
58.883
 20
5.82138
 11
58.933
 21
5.75
  0
LINE
  8
0
 10
58.933
 20
5.75
 11
58.9698
 21
5.67101
  0
LINE
  8
0
 10
58.9698
 20
5.67101
 11
58.9924
 21
5.58682
  0
LINE
  8
0
 10
58.9924
 20
5.58682
 11
59
 21
5.5
  0
LINE
  8
0
 10
59
 20
5.5
 11
58.9924
 21
5.41316
  0
LINE
  8
0
 10
58.9924
 20
5.41316
 11
58.9698
 21
5.32898
  0
LINE
  8
0
 10
58.9698
 20
5.32898
 11
58.933
 21
5.25
  0
LINE
  8
0
 10
58.933
 20
5.25
 11
58.883
 21
5.1786
  0
LINE
  8
0
 10
58.883
 20
5.1786
 11
58.8214
 21
5.11697
  0
LINE
  8
0
 10
58.8214
 20
5.11697
 11
58.75
 21
5.06699
  0
LINE
  8
0
 10
58.75
 20
5.06699
 11
58.671
 21
5.03015
  0
LINE
  8
0
 10
58.671
 20
5.03015
 11
58.5868
 21
5.00758
  0
LINE
  8
0
 10
58.5868
 20
5.00758
 11
58.5
 21
5
  0
LINE
  8
0
 10
58.5
 20
5
 11
58.4132
 21
5.00758
  0
LINE
  8
0
 10
80.5
 20
4.75
 11
76.5
 21
4.75
  0
LINE
  8
0
 10
76.5
 20
4.75
 11
76.5
 21
0
  0
LINE
  8
0
 10
76.5
 20
0
 11
80.5
 21
0
  0
LINE
  8
0
 10
80.5
 20
0
 11
80.5
 21
4.75
  0
LINE
  8
0
 10
79.4349
 20
3.38069
 11
79.3717
 21
3.39761
  0
LINE
  8
0
 10
79.3717
 20
3.39761
 11
79.3125
 21
3.42523
  0
LINE
  8
0
 10
79.3125
 20
3.42523
 11
79.2589
 21
3.46272
  0
LINE
  8
0
 10
79.2589
 20
3.46272
 11
79.2127
 21
3.50894
  0
LINE
  8
0
 10
79.2127
 20
3.50894
 11
79.1752
 21
3.5625
  0
LINE
  8
0
 10
79.1752
 20
3.5625
 11
79.1476
 21
3.62173
  0
LINE
  8
0
 10
79.1476
 20
3.62173
 11
79.1307
 21
3.68488
  0
LINE
  8
0
 10
79.1307
 20
3.68488
 11
79.125
 21
3.75
  0
LINE
  8
0
 10
79.125
 20
3.75
 11
79.1307
 21
3.81511
  0
LINE
  8
0
 10
79.1307
 20
3.81511
 11
79.1476
 21
3.87825
  0
LINE
  8
0
 10
79.1476
 20
3.87825
 11
79.1752
 21
3.9375
  0
LINE
  8
0
 10
79.1752
 20
3.9375
 11
79.2127
 21
3.99104
  0
LINE
  8
0
 10
79.2127
 20
3.99104
 11
79.2589
 21
4.03726
  0
LINE
  8
0
 10
79.2589
 20
4.03726
 11
79.3125
 21
4.07475
  0
LINE
  8
0
 10
79.3125
 20
4.07475
 11
79.3717
 21
4.10237
  0
LINE
  8
0
 10
79.3717
 20
4.10237
 11
79.4349
 21
4.11929
  0
LINE
  8
0
 10
79.4349
 20
4.11929
 11
79.5
 21
4.125
  0
LINE
  8
0
 10
79.5
 20
4.125
 11
79.5651
 21
4.11929
  0
LINE
  8
0
 10
79.5651
 20
4.11929
 11
79.6283
 21
4.10237
  0
LINE
  8
0
 10
79.6283
 20
4.10237
 11
79.6875
 21
4.07475
  0
LINE
  8
0
 10
79.6875
 20
4.07475
 11
79.741
 21
4.03726
  0
LINE
  8
0
 10
79.741
 20
4.03726
 11
79.7873
 21
3.99104
  0
LINE
  8
0
 10
79.7873
 20
3.99104
 11
79.8248
 21
3.9375
  0
LINE
  8
0
 10
79.8248
 20
3.9375
 11
79.8524
 21
3.87825
  0
LINE
  8
0
 10
79.8524
 20
3.87825
 11
79.8693
 21
3.81511
  0
LINE
  8
0
 10
79.8693
 20
3.81511
 11
79.875
 21
3.75
  0
LINE
  8
0
 10
79.875
 20
3.75
 11
79.8693
 21
3.68488
  0
LINE
  8
0
 10
79.8693
 20
3.68488
 11
79.8524
 21
3.62173
  0
LINE
  8
0
 10
79.8524
 20
3.62173
 11
79.8248
 21
3.5625
  0
LINE
  8
0
 10
79.8248
 20
3.5625
 11
79.7873
 21
3.50894
  0
LINE
  8
0
 10
79.7873
 20
3.50894
 11
79.741
 21
3.46272
  0
LINE
  8
0
 10
79.741
 20
3.46272
 11
79.6875
 21
3.42523
  0
LINE
  8
0
 10
79.6875
 20
3.42523
 11
79.6283
 21
3.39761
  0
LINE
  8
0
 10
79.6283
 20
3.39761
 11
79.5651
 21
3.38069
  0
LINE
  8
0
 10
79.5651
 20
3.38069
 11
79.5
 21
3.375
  0
LINE
  8
0
 10
79.5
 20
3.375
 11
79.4349
 21
3.38069
  0
LINE
  8
0
 10
77.4349
 20
3.38069
 11
77.3717
 21
3.39761
  0
LINE
  8
0
 10
77.3717
 20
3.39761
 11
77.3125
 21
3.42523
  0
LINE
  8
0
 10
77.3125
 20
3.42523
 11
77.2589
 21
3.46272
  0
LINE
  8
0
 10
77.2589
 20
3.46272
 11
77.2127
 21
3.50894
  0
LINE
  8
0
 10
77.2127
 20
3.50894
 11
77.1752
 21
3.5625
  0
LINE
  8
0
 10
77.1752
 20
3.5625
 11
77.1476
 21
3.62173
  0
LINE
  8
0
 10
77.1476
 20
3.62173
 11
77.1307
 21
3.68488
  0
LINE
  8
0
 10
77.1307
 20
3.68488
 11
77.125
 21
3.75
  0
LINE
  8
0
 10
77.125
 20
3.75
 11
77.1307
 21
3.81511
  0
LINE
  8
0
 10
77.1307
 20
3.81511
 11
77.1476
 21
3.87825
  0
LINE
  8
0
 10
77.1476
 20
3.87825
 11
77.1752
 21
3.9375
  0
LINE
  8
0
 10
77.1752
 20
3.9375
 11
77.2127
 21
3.99104
  0
LINE
  8
0
 10
77.2127
 20
3.99104
 11
77.2589
 21
4.03726
  0
LINE
  8
0
 10
77.2589
 20
4.03726
 11
77.3125
 21
4.07475
  0
LINE
  8
0
 10
77.3125
 20
4.07475
 11
77.3717
 21
4.10237
  0
LINE
  8
0
 10
77.3717
 20
4.10237
 11
77.4349
 21
4.11929
  0
LINE
  8
0
 10
77.4349
 20
4.11929
 11
77.5
 21
4.125
  0
LINE
  8
0
 10
77.5
 20
4.125
 11
77.5651
 21
4.11929
  0
LINE
  8
0
 10
77.5651
 20
4.11929
 11
77.6283
 21
4.10237
  0
LINE
  8
0
 10
77.6283
 20
4.10237
 11
77.6875
 21
4.07475
  0
LINE
  8
0
 10
77.6875
 20
4.07475
 11
77.741
 21
4.03726
  0
LINE
  8
0
 10
77.741
 20
4.03726
 11
77.7873
 21
3.99104
  0
LINE
  8
0
 10
77.7873
 20
3.99104
 11
77.8248
 21
3.9375
  0
LINE
  8
0
 10
77.8248
 20
3.9375
 11
77.8524
 21
3.87825
  0
LINE
  8
0
 10
77.8524
 20
3.87825
 11
77.8693
 21
3.81511
  0
LINE
  8
0
 10
77.8693
 20
3.81511
 11
77.875
 21
3.75
  0
LINE
  8
0
 10
77.875
 20
3.75
 11
77.8693
 21
3.68488
  0
LINE
  8
0
 10
77.8693
 20
3.68488
 11
77.8524
 21
3.62173
  0
LINE
  8
0
 10
77.8524
 20
3.62173
 11
77.8248
 21
3.5625
  0
LINE
  8
0
 10
77.8248
 20
3.5625
 11
77.7873
 21
3.50894
  0
LINE
  8
0
 10
77.7873
 20
3.50894
 11
77.741
 21
3.46272
  0
LINE
  8
0
 10
77.741
 20
3.46272
 11
77.6875
 21
3.42523
  0
LINE
  8
0
 10
77.6875
 20
3.42523
 11
77.6283
 21
3.39761
  0
LINE
  8
0
 10
77.6283
 20
3.39761
 11
77.5651
 21
3.38069
  0
LINE
  8
0
 10
77.5651
 20
3.38069
 11
77.5
 21
3.375
  0
LINE
  8
0
 10
77.5
 20
3.375
 11
77.4349
 21
3.38069
  0
LINE
  8
0
 10
79.4132
 20
0.507584
 11
79.329
 21
0.530151
  0
LINE
  8
0
 10
79.329
 20
0.530151
 11
79.25
 21
0.566986
  0
LINE
  8
0
 10
79.25
 20
0.566986
 11
79.1786
 21
0.616974
  0
LINE
  8
0
 10
79.1786
 20
0.616974
 11
79.117
 21
0.678604
  0
LINE
  8
0
 10
79.117
 20
0.678604
 11
79.067
 21
0.75
  0
LINE
  8
0
 10
79.067
 20
0.75
 11
79.0302
 21
0.828979
  0
LINE
  8
0
 10
79.0302
 20
0.828979
 11
79.0076
 21
0.913162
  0
LINE
  8
0
 10
79.0076
 20
0.913162
 11
79
 21
1
  0
LINE
  8
0
 10
79
 20
1
 11
79.0076
 21
1.08682
  0
LINE
  8
0
 10
79.0076
 20
1.08682
 11
79.0302
 21
1.17101
  0
LINE
  8
0
 10
79.0302
 20
1.17101
 11
79.067
 21
1.25
  0
LINE
  8
0
 10
79.067
 20
1.25
 11
79.117
 21
1.32138
  0
LINE
  8
0
 10
79.117
 20
1.32138
 11
79.1786
 21
1.38301
  0
LINE
  8
0
 10
79.1786
 20
1.38301
 11
79.25
 21
1.433
  0
LINE
  8
0
 10
79.25
 20
1.433
 11
79.329
 21
1.46983
  0
LINE
  8
0
 10
79.329
 20
1.46983
 11
79.4132
 21
1.4924
  0
LINE
  8
0
 10
79.4132
 20
1.4924
 11
79.5
 21
1.5
  0
LINE
  8
0
 10
79.5
 20
1.5
 11
79.5868
 21
1.4924
  0
LINE
  8
0
 10
79.5868
 20
1.4924
 11
79.671
 21
1.46983
  0
LINE
  8
0
 10
79.671
 20
1.46983
 11
79.75
 21
1.433
  0
LINE
  8
0
 10
79.75
 20
1.433
 11
79.8214
 21
1.38301
  0
LINE
  8
0
 10
79.8214
 20
1.38301
 11
79.883
 21
1.32138
  0
LINE
  8
0
 10
79.883
 20
1.32138
 11
79.933
 21
1.25
  0
LINE
  8
0
 10
79.933
 20
1.25
 11
79.9698
 21
1.17101
  0
LINE
  8
0
 10
79.9698
 20
1.17101
 11
79.9924
 21
1.08682
  0
LINE
  8
0
 10
79.9924
 20
1.08682
 11
80
 21
1
  0
LINE
  8
0
 10
80
 20
1
 11
79.9924
 21
0.913162
  0
LINE
  8
0
 10
79.9924
 20
0.913162
 11
79.9698
 21
0.828979
  0
LINE
  8
0
 10
79.9698
 20
0.828979
 11
79.933
 21
0.75
  0
LINE
  8
0
 10
79.933
 20
0.75
 11
79.883
 21
0.678604
  0
LINE
  8
0
 10
79.883
 20
0.678604
 11
79.8214
 21
0.616974
  0
LINE
  8
0
 10
79.8214
 20
0.616974
 11
79.75
 21
0.566986
  0
LINE
  8
0
 10
79.75
 20
0.566986
 11
79.671
 21
0.530151
  0
LINE
  8
0
 10
79.671
 20
0.530151
 11
79.5868
 21
0.507584
  0
LINE
  8
0
 10
79.5868
 20
0.507584
 11
79.5
 21
0.5
  0
LINE
  8
0
 10
79.5
 20
0.5
 11
79.4132
 21
0.507584
  0
LINE
  8
0
 10
77.4132
 20
0.507584
 11
77.329
 21
0.530151
  0
LINE
  8
0
 10
77.329
 20
0.530151
 11
77.25
 21
0.566986
  0
LINE
  8
0
 10
77.25
 20
0.566986
 11
77.1786
 21
0.616974
  0
LINE
  8
0
 10
77.1786
 20
0.616974
 11
77.117
 21
0.678604
  0
LINE
  8
0
 10
77.117
 20
0.678604
 11
77.067
 21
0.75
  0
LINE
  8
0
 10
77.067
 20
0.75
 11
77.0302
 21
0.828979
  0
LINE
  8
0
 10
77.0302
 20
0.828979
 11
77.0076
 21
0.913162
  0
LINE
  8
0
 10
77.0076
 20
0.913162
 11
77
 21
1
  0
LINE
  8
0
 10
77
 20
1
 11
77.0076
 21
1.08682
  0
LINE
  8
0
 10
77.0076
 20
1.08682
 11
77.0302
 21
1.17101
  0
LINE
  8
0
 10
77.0302
 20
1.17101
 11
77.067
 21
1.25
  0
LINE
  8
0
 10
77.067
 20
1.25
 11
77.117
 21
1.32138
  0
LINE
  8
0
 10
77.117
 20
1.32138
 11
77.1786
 21
1.38301
  0
LINE
  8
0
 10
77.1786
 20
1.38301
 11
77.25
 21
1.433
  0
LINE
  8
0
 10
77.25
 20
1.433
 11
77.329
 21
1.46983
  0
LINE
  8
0
 10
77.329
 20
1.46983
 11
77.4132
 21
1.4924
  0
LINE
  8
0
 10
77.4132
 20
1.4924
 11
77.5
 21
1.5
  0
LINE
  8
0
 10
77.5
 20
1.5
 11
77.5868
 21
1.4924
  0
LINE
  8
0
 10
77.5868
 20
1.4924
 11
77.671
 21
1.46983
  0
LINE
  8
0
 10
77.671
 20
1.46983
 11
77.75
 21
1.433
  0
LINE
  8
0
 10
77.75
 20
1.433
 11
77.8214
 21
1.38301
  0
LINE
  8
0
 10
77.8214
 20
1.38301
 11
77.883
 21
1.32138
  0
LINE
  8
0
 10
77.883
 20
1.32138
 11
77.933
 21
1.25
  0
LINE
  8
0
 10
77.933
 20
1.25
 11
77.9698
 21
1.17101
  0
LINE
  8
0
 10
77.9698
 20
1.17101
 11
77.9924
 21
1.08682
  0
LINE
  8
0
 10
77.9924
 20
1.08682
 11
78
 21
1
  0
LINE
  8
0
 10
78
 20
1
 11
77.9924
 21
0.913162
  0
LINE
  8
0
 10
77.9924
 20
0.913162
 11
77.9698
 21
0.828979
  0
LINE
  8
0
 10
77.9698
 20
0.828979
 11
77.933
 21
0.75
  0
LINE
  8
0
 10
77.933
 20
0.75
 11
77.883
 21
0.678604
  0
LINE
  8
0
 10
77.883
 20
0.678604
 11
77.8214
 21
0.616974
  0
LINE
  8
0
 10
77.8214
 20
0.616974
 11
77.75
 21
0.566986
  0
LINE
  8
0
 10
77.75
 20
0.566986
 11
77.671
 21
0.530151
  0
LINE
  8
0
 10
77.671
 20
0.530151
 11
77.5868
 21
0.507584
  0
LINE
  8
0
 10
77.5868
 20
0.507584
 11
77.5
 21
0.5
  0
LINE
  8
0
 10
77.5
 20
0.5
 11
77.4132
 21
0.507584
  0
LINE
  8
0
 10
69.75
 20
0.625
 11
69.875
 21
0.625
  0
LINE
  8
0
 10
69.875
 20
0.625
 11
69.875
 21
0.5
  0
LINE
  8
0
 10
69.875
 20
0.5
 11
71
 21
0.5
  0
LINE
  8
0
 10
71
 20
0.5
 11
71
 21
1.625
  0
LINE
  8
0
 10
71
 20
1.625
 11
70.875
 21
1.625
  0
LINE
  8
0
 10
70.875
 20
1.625
 11
70.875
 21
1.75
  0
LINE
  8
0
 10
70.875
 20
1.75
 11
71.5
 21
1.75
  0
LINE
  8
0
 10
71.5
 20
1.75
 11
71.5
 21
2.25
  0
LINE
  8
0
 10
71.5
 20
2.25
 11
70.875
 21
2.25
  0
LINE
  8
0
 10
70.875
 20
2.25
 11
70.875
 21
2.375
  0
LINE
  8
0
 10
70.875
 20
2.375
 11
71
 21
2.375
  0
LINE
  8
0
 10
71
 20
2.375
 11
71
 21
3.5
  0
LINE
  8
0
 10
71
 20
3.5
 11
68
 21
3.5
  0
LINE
  8
0
 10
68
 20
3.5
 11
68
 21
0.5
  0
LINE
  8
0
 10
68
 20
0.5
 11
69.125
 21
0.5
  0
LINE
  8
0
 10
69.125
 20
0.5
 11
69.125
 21
0.625
  0
LINE
  8
0
 10
69.125
 20
0.625
 11
69.25
 21
0.625
  0
LINE
  8
0
 10
69.25
 20
0.625
 11
69.25
 21
0
  0
LINE
  8
0
 10
69.25
 20
0
 11
69.75
 21
0
  0
LINE
  8
0
 10
69.75
 20
0
 11
69.75
 21
0.625
  0
LINE
  8
0
 10
69.4132
 20
1.50758
 11
69.329
 21
1.53015
  0
LINE
  8
0
 10
69.329
 20
1.53015
 11
69.25
 21
1.56699
  0
LINE
  8
0
 10
69.25
 20
1.56699
 11
69.1786
 21
1.61697
  0
LINE
  8
0
 10
69.1786
 20
1.61697
 11
69.117
 21
1.6786
  0
LINE
  8
0
 10
69.117
 20
1.6786
 11
69.067
 21
1.75
  0
LINE
  8
0
 10
69.067
 20
1.75
 11
69.0302
 21
1.82898
  0
LINE
  8
0
 10
69.0302
 20
1.82898
 11
69.0076
 21
1.91316
  0
LINE
  8
0
 10
69.0076
 20
1.91316
 11
69
 21
2
  0
LINE
  8
0
 10
69
 20
2
 11
69.0076
 21
2.08682
  0
LINE
  8
0
 10
69.0076
 20
2.08682
 11
69.0302
 21
2.17101
  0
LINE
  8
0
 10
69.0302
 20
2.17101
 11
69.067
 21
2.25
  0
LINE
  8
0
 10
69.067
 20
2.25
 11
69.117
 21
2.32138
  0
LINE
  8
0
 10
69.117
 20
2.32138
 11
69.1786
 21
2.38301
  0
LINE
  8
0
 10
69.1786
 20
2.38301
 11
69.25
 21
2.433
  0
LINE
  8
0
 10
69.25
 20
2.433
 11
69.329
 21
2.46983
  0
LINE
  8
0
 10
69.329
 20
2.46983
 11
69.4132
 21
2.4924
  0
LINE
  8
0
 10
69.4132
 20
2.4924
 11
69.5
 21
2.5
  0
LINE
  8
0
 10
69.5
 20
2.5
 11
69.5868
 21
2.4924
  0
LINE
  8
0
 10
69.5868
 20
2.4924
 11
69.671
 21
2.46983
  0
LINE
  8
0
 10
69.671
 20
2.46983
 11
69.75
 21
2.433
  0
LINE
  8
0
 10
69.75
 20
2.433
 11
69.8214
 21
2.38301
  0
LINE
  8
0
 10
69.8214
 20
2.38301
 11
69.883
 21
2.32138
  0
LINE
  8
0
 10
69.883
 20
2.32138
 11
69.933
 21
2.25
  0
LINE
  8
0
 10
69.933
 20
2.25
 11
69.9698
 21
2.17101
  0
LINE
  8
0
 10
69.9698
 20
2.17101
 11
69.9924
 21
2.08682
  0
LINE
  8
0
 10
69.9924
 20
2.08682
 11
70
 21
2
  0
LINE
  8
0
 10
70
 20
2
 11
69.9924
 21
1.91316
  0
LINE
  8
0
 10
69.9924
 20
1.91316
 11
69.9698
 21
1.82898
  0
LINE
  8
0
 10
69.9698
 20
1.82898
 11
69.933
 21
1.75
  0
LINE
  8
0
 10
69.933
 20
1.75
 11
69.883
 21
1.6786
  0
LINE
  8
0
 10
69.883
 20
1.6786
 11
69.8214
 21
1.61697
  0
LINE
  8
0
 10
69.8214
 20
1.61697
 11
69.75
 21
1.56699
  0
LINE
  8
0
 10
69.75
 20
1.56699
 11
69.671
 21
1.53015
  0
LINE
  8
0
 10
69.671
 20
1.53015
 11
69.5868
 21
1.50758
  0
LINE
  8
0
 10
69.5868
 20
1.50758
 11
69.5
 21
1.5
  0
LINE
  8
0
 10
69.5
 20
1.5
 11
69.4132
 21
1.50758
  0
LINE
  8
0
 10
61
 20
0.5
 11
60.375
 21
0.5
  0
LINE
  8
0
 10
60.375
 20
0.5
 11
60.375
 21
0.625
  0
LINE
  8
0
 10
60.375
 20
0.625
 11
60.5
 21
0.625
  0
LINE
  8
0
 10
60.5
 20
0.625
 11
60.5
 21
0.875
  0
LINE
  8
0
 10
60.5
 20
0.875
 11
60.375
 21
0.875
  0
LINE
  8
0
 10
60.375
 20
0.875
 11
60.375
 21
2.125
  0
LINE
  8
0
 10
60.375
 20
2.125
 11
60.5
 21
2.125
  0
LINE
  8
0
 10
60.5
 20
2.125
 11
60.5
 21
2.375
  0
LINE
  8
0
 10
60.5
 20
2.375
 11
60.375
 21
2.375
  0
LINE
  8
0
 10
60.375
 20
2.375
 11
60.375
 21
2.5
  0
LINE
  8
0
 10
60.375
 20
2.5
 11
61
 21
2.5
  0
LINE
  8
0
 10
61
 20
2.5
 11
61
 21
3
  0
LINE
  8
0
 10
61
 20
3
 11
57
 21
3
  0
LINE
  8
0
 10
57
 20
3
 11
57
 21
0
  0
LINE
  8
0
 10
57
 20
0
 11
61
 21
0
  0
LINE
  8
0
 10
61
 20
0
 11
61
 21
0.5
  0
LINE
  8
0
 10
58.4132
 20
1.00758
 11
58.329
 21
1.03015
  0
LINE
  8
0
 10
58.329
 20
1.03015
 11
58.25
 21
1.06699
  0
LINE
  8
0
 10
58.25
 20
1.06699
 11
58.1786
 21
1.11697
  0
LINE
  8
0
 10
58.1786
 20
1.11697
 11
58.117
 21
1.1786
  0
LINE
  8
0
 10
58.117
 20
1.1786
 11
58.067
 21
1.25
  0
LINE
  8
0
 10
58.067
 20
1.25
 11
58.0302
 21
1.32898
  0
LINE
  8
0
 10
58.0302
 20
1.32898
 11
58.0076
 21
1.41316
  0
LINE
  8
0
 10
58.0076
 20
1.41316
 11
58
 21
1.5
  0
LINE
  8
0
 10
58
 20
1.5
 11
58.0076
 21
1.58682
  0
LINE
  8
0
 10
58.0076
 20
1.58682
 11
58.0302
 21
1.67101
  0
LINE
  8
0
 10
58.0302
 20
1.67101
 11
58.067
 21
1.75
  0
LINE
  8
0
 10
58.067
 20
1.75
 11
58.117
 21
1.82138
  0
LINE
  8
0
 10
58.117
 20
1.82138
 11
58.1786
 21
1.88301
  0
LINE
  8
0
 10
58.1786
 20
1.88301
 11
58.25
 21
1.933
  0
LINE
  8
0
 10
58.25
 20
1.933
 11
58.329
 21
1.96983
  0
LINE
  8
0
 10
58.329
 20
1.96983
 11
58.4132
 21
1.9924
  0
LINE
  8
0
 10
58.4132
 20
1.9924
 11
58.5
 21
2
  0
LINE
  8
0
 10
58.5
 20
2
 11
58.5868
 21
1.9924
  0
LINE
  8
0
 10
58.5868
 20
1.9924
 11
58.671
 21
1.96983
  0
LINE
  8
0
 10
58.671
 20
1.96983
 11
58.75
 21
1.933
  0
LINE
  8
0
 10
58.75
 20
1.933
 11
58.8214
 21
1.88301
  0
LINE
  8
0
 10
58.8214
 20
1.88301
 11
58.883
 21
1.82138
  0
LINE
  8
0
 10
58.883
 20
1.82138
 11
58.933
 21
1.75
  0
LINE
  8
0
 10
58.933
 20
1.75
 11
58.9698
 21
1.67101
  0
LINE
  8
0
 10
58.9698
 20
1.67101
 11
58.9924
 21
1.58682
  0
LINE
  8
0
 10
58.9924
 20
1.58682
 11
59
 21
1.5
  0
LINE
  8
0
 10
59
 20
1.5
 11
58.9924
 21
1.41316
  0
LINE
  8
0
 10
58.9924
 20
1.41316
 11
58.9698
 21
1.32898
  0
LINE
  8
0
 10
58.9698
 20
1.32898
 11
58.933
 21
1.25
  0
LINE
  8
0
 10
58.933
 20
1.25
 11
58.883
 21
1.1786
  0
LINE
  8
0
 10
58.883
 20
1.1786
 11
58.8214
 21
1.11697
  0
LINE
  8
0
 10
58.8214
 20
1.11697
 11
58.75
 21
1.06699
  0
LINE
  8
0
 10
58.75
 20
1.06699
 11
58.671
 21
1.03015
  0
LINE
  8
0
 10
58.671
 20
1.03015
 11
58.5868
 21
1.00758
  0
LINE
  8
0
 10
58.5868
 20
1.00758
 11
58.5
 21
1
  0
LINE
  8
0
 10
58.5
 20
1
 11
58.4132
 21
1.00758
  0
ENDSEC
  0
SECTION
  2
OBJECTS
  0
DICTIONARY
  0
ENDSEC
  0
EOF
