<?xml version="1.0"?>
<svg xmlns="http://www.w3.org/2000/svg" xmlns:lc="http://www.librecad.org" xmlns:xlink="http://www.w3.org/1999/xlink" width="246in" height="48in" viewBox="0 0 246 48">
    <g lc:layername="0" lc:is_locked="false" lc:is_construction="false" fill="none" stroke="black" stroke-width="1">
        <line x1="196" y1="0" x2="100" y2="0"/>
        <line x1="100" y1="0" x2="100" y2="47.99000549"/>
        <line x1="100" y1="47.99000549" x2="96" y2="47.99000549"/>
        <line x1="96" y1="47.99000549" x2="96" y2="0"/>
        <line x1="96" y1="0" x2="0" y2="0"/>
        <line x1="0" y1="0" x2="0" y2="48"/>
        <line x1="0" y1="48" x2="196" y2="48"/>
        <line x1="196" y1="48" x2="196" y2="0"/>
        <line x1="212.5" y1="47.46875" x2="217.5" y2="47.46875"/>
        <line x1="217.5" y1="47.46875" x2="217.5" y2="48"/>
        <line x1="217.5" y1="48" x2="219" y2="48"/>
        <line x1="219" y1="48" x2="219" y2="23"/>
        <line x1="219" y1="23" x2="217.5" y2="23"/>
        <line x1="217.5" y1="23" x2="217.5" y2="23.5312"/>
        <line x1="217.5" y1="23.5312" x2="212.5" y2="23.5312"/>
        <line x1="212.5" y1="23.5312" x2="212.5" y2="23"/>
        <line x1="212.5" y1="23" x2="197" y2="23"/>
        <line x1="197" y1="23" x2="197" y2="26.3808"/>
        <line x1="197" y1="26.3808" x2="203" y2="26.3808"/>
        <line x1="203" y1="26.3808" x2="202.99998" y2="44.6192"/>
        <line x1="202.99998" y1="44.6192" x2="197" y2="44.6192"/>
        <line x1="197" y1="44.6192" x2="197" y2="48"/>
        <line x1="197" y1="48" x2="212.5" y2="48"/>
        <line x1="212.5" y1="48" x2="212.5" y2="47.46875"/>
        <line x1="199.64644" y1="25.7344" x2="199.5" y2="25.3808"/>
        <line x1="199.5" y1="25.3808" x2="199.64644" y2="25.0273"/>
        <line x1="199.64644" y1="25.0273" x2="200" y2="24.8808"/>
        <line x1="200" y1="24.8808" x2="200.35355" y2="25.0273"/>
        <line x1="200.35355" y1="25.0273" x2="200.5" y2="25.3808"/>
        <line x1="200.5" y1="25.3808" x2="200.35355" y2="25.7344"/>
        <line x1="200.35355" y1="25.7344" x2="200" y2="25.8808"/>
        <line x1="200" y1="25.8808" x2="199.64644" y2="25.7344"/>
        <line x1="197.646439" y1="25.7344" x2="197.5" y2="25.3808"/>
        <line x1="197.5" y1="25.3808" x2="197.646439" y2="25.0273"/>
        <line x1="197.646439" y1="25.0273" x2="198" y2="24.8808"/>
        <line x1="198" y1="24.8808" x2="198.35355" y2="25.0273"/>
        <line x1="198.35355" y1="25.0273" x2="198.5" y2="25.3808"/>
        <line x1="198.5" y1="25.3808" x2="198.35355" y2="25.7344"/>
        <line x1="198.35355" y1="25.7344" x2="198" y2="25.8808"/>
        <line x1="198" y1="25.8808" x2="197.646439" y2="25.7344"/>
        <line x1="199.64644" y1="45.97276" x2="199.49998" y2="45.6192"/>
        <line x1="199.49998" y1="45.6192" x2="199.64644" y2="45.26566"/>
        <line x1="199.64644" y1="45.26566" x2="199.99998" y2="45.1192"/>
        <line x1="199.99998" y1="45.1192" x2="200.35355" y2="45.26566"/>
        <line x1="200.35355" y1="45.26566" x2="200.49998" y2="45.6192"/>
        <line x1="200.49998" y1="45.6192" x2="200.35355" y2="45.97276"/>
        <line x1="200.35355" y1="45.97276" x2="199.99998" y2="46.1192"/>
        <line x1="199.99998" y1="46.1192" x2="199.64644" y2="45.97276"/>
        <line x1="197.646439" y1="45.97276" x2="197.499985" y2="45.6192"/>
        <line x1="197.499985" y1="45.6192" x2="197.646439" y2="45.26566"/>
        <line x1="197.646439" y1="45.26566" x2="197.999985" y2="45.1192"/>
        <line x1="197.999985" y1="45.1192" x2="198.35355" y2="45.26566"/>
        <line x1="198.35355" y1="45.26566" x2="198.49998" y2="45.6192"/>
        <line x1="198.49998" y1="45.6192" x2="198.35355" y2="45.97276"/>
        <line x1="198.35355" y1="45.97276" x2="197.999985" y2="46.1192"/>
        <line x1="197.999985" y1="46.1192" x2="197.646439" y2="45.97276"/>
        <line x1="234.75" y1="47.375" x2="234.875" y2="47.375"/>
        <line x1="234.875" y1="47.375" x2="234.875" y2="47.5"/>
        <line x1="234.875" y1="47.5" x2="235.125" y2="47.5"/>
        <line x1="235.125" y1="47.5" x2="235.125" y2="47.375"/>
        <line x1="235.125" y1="47.375" x2="238.375" y2="47.375015"/>
        <line x1="238.375" y1="47.375015" x2="238.375" y2="47.500015"/>
        <line x1="238.375" y1="47.500015" x2="238.625" y2="47.500015"/>
        <line x1="238.625" y1="47.500015" x2="238.625" y2="47.375015"/>
        <line x1="238.625" y1="47.375015" x2="238.75" y2="47.375015"/>
        <line x1="238.75" y1="47.375015" x2="238.75" y2="48"/>
        <line x1="238.75" y1="48" x2="239.5" y2="48"/>
        <line x1="239.5" y1="48" x2="239.5" y2="41.78125"/>
        <line x1="239.5" y1="41.78125" x2="239.25" y2="41.78125"/>
        <line x1="239.25" y1="41.78125" x2="239.25" y2="41.875"/>
        <line x1="239.25" y1="41.875" x2="238.625" y2="41.875"/>
        <line x1="238.625" y1="41.875" x2="238.625" y2="41.625"/>
        <line x1="238.625" y1="41.625" x2="238.7187" y2="41.625"/>
        <line x1="238.7187" y1="41.625" x2="238.7187" y2="41.375"/>
        <line x1="238.7187" y1="41.375" x2="238.625" y2="41.375"/>
        <line x1="238.625" y1="41.375" x2="238.625" y2="41.125"/>
        <line x1="238.625" y1="41.125" x2="239.25" y2="41.125"/>
        <line x1="239.25" y1="41.125" x2="239.25" y2="41.21875"/>
        <line x1="239.25" y1="41.21875" x2="239.5" y2="41.21875"/>
        <line x1="239.5" y1="41.21875" x2="239.5" y2="35.7812"/>
        <line x1="239.5" y1="35.7812" x2="239.25" y2="35.7812"/>
        <line x1="239.25" y1="35.7812" x2="239.25" y2="35.875"/>
        <line x1="239.25" y1="35.875" x2="238.625" y2="35.875"/>
        <line x1="238.625" y1="35.875" x2="238.625" y2="35.625"/>
        <line x1="238.625" y1="35.625" x2="238.7187" y2="35.625"/>
        <line x1="238.7187" y1="35.625" x2="238.7188" y2="35.375"/>
        <line x1="238.7188" y1="35.375" x2="238.625" y2="35.375"/>
        <line x1="238.625" y1="35.375" x2="238.625" y2="35.125"/>
        <line x1="238.625" y1="35.125" x2="239.25" y2="35.125"/>
        <line x1="239.25" y1="35.125" x2="239.25" y2="35.2188"/>
        <line x1="239.25" y1="35.2188" x2="239.5" y2="35.2188"/>
        <line x1="239.5" y1="35.2188" x2="239.5" y2="29.7812"/>
        <line x1="239.5" y1="29.7812" x2="239.25" y2="29.7812"/>
        <line x1="239.25" y1="29.7812" x2="239.25" y2="29.875"/>
        <line x1="239.25" y1="29.875" x2="238.625" y2="29.875"/>
        <line x1="238.625" y1="29.875" x2="238.625" y2="29.625"/>
        <line x1="238.625" y1="29.625" x2="238.7188" y2="29.625"/>
        <line x1="238.7188" y1="29.625" x2="238.7188" y2="29.375"/>
        <line x1="238.7188" y1="29.375" x2="238.625" y2="29.375"/>
        <line x1="238.625" y1="29.375" x2="238.625" y2="29.125"/>
        <line x1="238.625" y1="29.125" x2="239.25" y2="29.125"/>
        <line x1="239.25" y1="29.125" x2="239.25" y2="29.2188"/>
        <line x1="239.25" y1="29.2188" x2="239.5" y2="29.2188"/>
        <line x1="239.5" y1="29.2188" x2="239.5" y2="23"/>
        <line x1="239.5" y1="23" x2="238.75" y2="23"/>
        <line x1="238.75" y1="23" x2="238.75" y2="23.625"/>
        <line x1="238.75" y1="23.625" x2="238.625" y2="23.625"/>
        <line x1="238.625" y1="23.625" x2="238.625" y2="23.5"/>
        <line x1="238.625" y1="23.5" x2="238.375" y2="23.5"/>
        <line x1="238.375" y1="23.5" x2="238.375" y2="23.625"/>
        <line x1="238.375" y1="23.625" x2="235.125" y2="23.625"/>
        <line x1="235.125" y1="23.625" x2="235.125" y2="23.5"/>
        <line x1="235.125" y1="23.5" x2="234.875" y2="23.5"/>
        <line x1="234.875" y1="23.5" x2="234.875" y2="23.625"/>
        <line x1="234.875" y1="23.625" x2="234.75" y2="23.625"/>
        <line x1="234.75" y1="23.625" x2="234.75" y2="23"/>
        <line x1="234.75" y1="23" x2="234" y2="23"/>
        <line x1="234" y1="23" x2="234" y2="48"/>
        <line x1="234" y1="48" x2="234.75" y2="48"/>
        <line x1="234.75" y1="48" x2="234.75" y2="47.375"/>
        <line x1="234.375" y1="29.875" x2="234.375" y2="29.625"/>
        <line x1="234.375" y1="29.625" x2="234.4688" y2="29.625"/>
        <line x1="234.4688" y1="29.625" x2="234.4688" y2="29.375"/>
        <line x1="234.4688" y1="29.375" x2="234.375" y2="29.375"/>
        <line x1="234.375" y1="29.375" x2="234.375" y2="29.125"/>
        <line x1="234.375" y1="29.125" x2="234.75" y2="29.125"/>
        <line x1="234.75" y1="29.125" x2="234.75" y2="29.2188"/>
        <line x1="234.75" y1="29.2188" x2="235" y2="29.2188"/>
        <line x1="235" y1="29.2188" x2="235" y2="29.125"/>
        <line x1="235" y1="29.125" x2="235.375" y2="29.125"/>
        <line x1="235.375" y1="29.125" x2="235.375" y2="29.375"/>
        <line x1="235.375" y1="29.375" x2="235.2812" y2="29.375"/>
        <line x1="235.2812" y1="29.375" x2="235.2812" y2="29.625"/>
        <line x1="235.2812" y1="29.625" x2="235.375" y2="29.625"/>
        <line x1="235.375" y1="29.625" x2="235.375" y2="29.875"/>
        <line x1="235.375" y1="29.875" x2="235" y2="29.875"/>
        <line x1="235" y1="29.875" x2="235" y2="29.7812"/>
        <line x1="235" y1="29.7812" x2="234.75" y2="29.7812"/>
        <line x1="234.75" y1="29.7812" x2="234.75" y2="29.875"/>
        <line x1="234.75" y1="29.875" x2="234.375" y2="29.875"/>
        <line x1="234.375" y1="35.875" x2="234.375" y2="35.625"/>
        <line x1="234.375" y1="35.625" x2="234.4687" y2="35.625"/>
        <line x1="234.4687" y1="35.625" x2="234.4688" y2="35.375"/>
        <line x1="234.4688" y1="35.375" x2="234.375" y2="35.375"/>
        <line x1="234.375" y1="35.375" x2="234.375" y2="35.125"/>
        <line x1="234.375" y1="35.125" x2="234.75" y2="35.125"/>
        <line x1="234.75" y1="35.125" x2="234.75" y2="35.2188"/>
        <line x1="234.75" y1="35.2188" x2="235" y2="35.2188"/>
        <line x1="235" y1="35.2188" x2="235" y2="35.125"/>
        <line x1="235" y1="35.125" x2="235.375" y2="35.125"/>
        <line x1="235.375" y1="35.125" x2="235.375" y2="35.375"/>
        <line x1="235.375" y1="35.375" x2="235.2812" y2="35.375"/>
        <line x1="235.2812" y1="35.375" x2="235.2812" y2="35.625"/>
        <line x1="235.2812" y1="35.625" x2="235.375" y2="35.625"/>
        <line x1="235.375" y1="35.625" x2="235.375" y2="35.875"/>
        <line x1="235.375" y1="35.875" x2="235" y2="35.875"/>
        <line x1="235" y1="35.875" x2="235" y2="35.7812"/>
        <line x1="235" y1="35.7812" x2="234.75" y2="35.7812"/>
        <line x1="234.75" y1="35.7812" x2="234.75" y2="35.875"/>
        <line x1="234.75" y1="35.875" x2="234.375" y2="35.875"/>
        <line x1="234.375" y1="41.875" x2="234.375" y2="41.625"/>
        <line x1="234.375" y1="41.625" x2="234.4687" y2="41.625"/>
        <line x1="234.4687" y1="41.625" x2="234.4687" y2="41.375"/>
        <line x1="234.4687" y1="41.375" x2="234.375" y2="41.375"/>
        <line x1="234.375" y1="41.375" x2="234.375" y2="41.125"/>
        <line x1="234.375" y1="41.125" x2="234.75" y2="41.125"/>
        <line x1="234.75" y1="41.125" x2="234.75" y2="41.21875"/>
        <line x1="234.75" y1="41.21875" x2="235" y2="41.21875"/>
        <line x1="235" y1="41.21875" x2="235" y2="41.125"/>
        <line x1="235" y1="41.125" x2="235.375" y2="41.125"/>
        <line x1="235.375" y1="41.125" x2="235.375" y2="41.375"/>
        <line x1="235.375" y1="41.375" x2="235.2812" y2="41.375"/>
        <line x1="235.2812" y1="41.375" x2="235.2812" y2="41.625"/>
        <line x1="235.2812" y1="41.625" x2="235.375" y2="41.625"/>
        <line x1="235.375" y1="41.625" x2="235.375" y2="41.875"/>
        <line x1="235.375" y1="41.875" x2="235" y2="41.875"/>
        <line x1="235" y1="41.875" x2="235" y2="41.78125"/>
        <line x1="235" y1="41.78125" x2="234.75" y2="41.78125"/>
        <line x1="234.75" y1="41.78125" x2="234.75" y2="41.875"/>
        <line x1="234.75" y1="41.875" x2="234.375" y2="41.875"/>
        <line x1="241.25" y1="47.375" x2="241.375" y2="47.375"/>
        <line x1="241.375" y1="47.375" x2="241.375" y2="47.5"/>
        <line x1="241.375" y1="47.5" x2="241.625" y2="47.5"/>
        <line x1="241.625" y1="47.5" x2="241.625" y2="47.375"/>
        <line x1="241.625" y1="47.375" x2="244.875" y2="47.375015"/>
        <line x1="244.875" y1="47.375015" x2="244.875" y2="47.500015"/>
        <line x1="244.875" y1="47.500015" x2="245.125" y2="47.500015"/>
        <line x1="245.125" y1="47.500015" x2="245.125" y2="47.375015"/>
        <line x1="245.125" y1="47.375015" x2="245.25" y2="47.375015"/>
        <line x1="245.25" y1="47.375015" x2="245.25" y2="48"/>
        <line x1="245.25" y1="48" x2="246" y2="48"/>
        <line x1="246" y1="48" x2="246" y2="41.78125"/>
        <line x1="246" y1="41.78125" x2="245.75" y2="41.78125"/>
        <line x1="245.75" y1="41.78125" x2="245.75" y2="41.875"/>
        <line x1="245.75" y1="41.875" x2="245.125" y2="41.875"/>
        <line x1="245.125" y1="41.875" x2="245.125" y2="41.625"/>
        <line x1="245.125" y1="41.625" x2="245.2187" y2="41.625"/>
        <line x1="245.2187" y1="41.625" x2="245.2187" y2="41.375"/>
        <line x1="245.2187" y1="41.375" x2="245.125" y2="41.375"/>
        <line x1="245.125" y1="41.375" x2="245.125" y2="41.125"/>
        <line x1="245.125" y1="41.125" x2="245.75" y2="41.125"/>
        <line x1="245.75" y1="41.125" x2="245.75" y2="41.21875"/>
        <line x1="245.75" y1="41.21875" x2="246" y2="41.21875"/>
        <line x1="246" y1="41.21875" x2="246" y2="35.7812"/>
        <line x1="246" y1="35.7812" x2="245.75" y2="35.7812"/>
        <line x1="245.75" y1="35.7812" x2="245.75" y2="35.875"/>
        <line x1="245.75" y1="35.875" x2="245.125" y2="35.875"/>
        <line x1="245.125" y1="35.875" x2="245.125" y2="35.625"/>
        <line x1="245.125" y1="35.625" x2="245.2187" y2="35.625"/>
        <line x1="245.2187" y1="35.625" x2="245.2188" y2="35.375"/>
        <line x1="245.2188" y1="35.375" x2="245.125" y2="35.375"/>
        <line x1="245.125" y1="35.375" x2="245.125" y2="35.125"/>
        <line x1="245.125" y1="35.125" x2="245.75" y2="35.125"/>
        <line x1="245.75" y1="35.125" x2="245.75" y2="35.2188"/>
        <line x1="245.75" y1="35.2188" x2="246" y2="35.2188"/>
        <line x1="246" y1="35.2188" x2="246" y2="29.7812"/>
        <line x1="246" y1="29.7812" x2="245.75" y2="29.7812"/>
        <line x1="245.75" y1="29.7812" x2="245.75" y2="29.875"/>
        <line x1="245.75" y1="29.875" x2="245.125" y2="29.875"/>
        <line x1="245.125" y1="29.875" x2="245.125" y2="29.625"/>
        <line x1="245.125" y1="29.625" x2="245.2188" y2="29.625"/>
        <line x1="245.2188" y1="29.625" x2="245.2188" y2="29.375"/>
        <line x1="245.2188" y1="29.375" x2="245.125" y2="29.375"/>
        <line x1="245.125" y1="29.375" x2="245.125" y2="29.125"/>
        <line x1="245.125" y1="29.125" x2="245.75" y2="29.125"/>
        <line x1="245.75" y1="29.125" x2="245.75" y2="29.2188"/>
        <line x1="245.75" y1="29.2188" x2="246" y2="29.2188"/>
        <line x1="246" y1="29.2188" x2="246" y2="23"/>
        <line x1="246" y1="23" x2="245.25" y2="23"/>
        <line x1="245.25" y1="23" x2="245.25" y2="23.625"/>
        <line x1="245.25" y1="23.625" x2="245.125" y2="23.625"/>
        <line x1="245.125" y1="23.625" x2="245.125" y2="23.5"/>
        <line x1="245.125" y1="23.5" x2="244.875" y2="23.5"/>
        <line x1="244.875" y1="23.5" x2="244.875" y2="23.625"/>
        <line x1="244.875" y1="23.625" x2="241.625" y2="23.625"/>
        <line x1="241.625" y1="23.625" x2="241.625" y2="23.5"/>
        <line x1="241.625" y1="23.5" x2="241.375" y2="23.5"/>
        <line x1="241.375" y1="23.5" x2="241.375" y2="23.625"/>
        <line x1="241.375" y1="23.625" x2="241.25" y2="23.625"/>
        <line x1="241.25" y1="23.625" x2="241.25" y2="23"/>
        <line x1="241.25" y1="23" x2="240.5" y2="23"/>
        <line x1="240.5" y1="23" x2="240.5" y2="48"/>
        <line x1="240.5" y1="48" x2="241.25" y2="48"/>
        <line x1="241.25" y1="48" x2="241.25" y2="47.375"/>
        <line x1="240.875" y1="29.875" x2="240.875" y2="29.625"/>
        <line x1="240.875" y1="29.625" x2="240.9688" y2="29.625"/>
        <line x1="240.9688" y1="29.625" x2="240.9688" y2="29.375"/>
        <line x1="240.9688" y1="29.375" x2="240.875" y2="29.375"/>
        <line x1="240.875" y1="29.375" x2="240.875" y2="29.125"/>
        <line x1="240.875" y1="29.125" x2="241.25" y2="29.125"/>
        <line x1="241.25" y1="29.125" x2="241.25" y2="29.2188"/>
        <line x1="241.25" y1="29.2188" x2="241.5" y2="29.2188"/>
        <line x1="241.5" y1="29.2188" x2="241.5" y2="29.125"/>
        <line x1="241.5" y1="29.125" x2="241.875" y2="29.125"/>
        <line x1="241.875" y1="29.125" x2="241.875" y2="29.375"/>
        <line x1="241.875" y1="29.375" x2="241.7812" y2="29.375"/>
        <line x1="241.7812" y1="29.375" x2="241.7812" y2="29.625"/>
        <line x1="241.7812" y1="29.625" x2="241.875" y2="29.625"/>
        <line x1="241.875" y1="29.625" x2="241.875" y2="29.875"/>
        <line x1="241.875" y1="29.875" x2="241.5" y2="29.875"/>
        <line x1="241.5" y1="29.875" x2="241.5" y2="29.7812"/>
        <line x1="241.5" y1="29.7812" x2="241.25" y2="29.7812"/>
        <line x1="241.25" y1="29.7812" x2="241.25" y2="29.875"/>
        <line x1="241.25" y1="29.875" x2="240.875" y2="29.875"/>
        <line x1="240.875" y1="35.875" x2="240.875" y2="35.625"/>
        <line x1="240.875" y1="35.625" x2="240.9687" y2="35.625"/>
        <line x1="240.9687" y1="35.625" x2="240.9688" y2="35.375"/>
        <line x1="240.9688" y1="35.375" x2="240.875" y2="35.375"/>
        <line x1="240.875" y1="35.375" x2="240.875" y2="35.125"/>
        <line x1="240.875" y1="35.125" x2="241.25" y2="35.125"/>
        <line x1="241.25" y1="35.125" x2="241.25" y2="35.2188"/>
        <line x1="241.25" y1="35.2188" x2="241.5" y2="35.2188"/>
        <line x1="241.5" y1="35.2188" x2="241.5" y2="35.125"/>
        <line x1="241.5" y1="35.125" x2="241.875" y2="35.125"/>
        <line x1="241.875" y1="35.125" x2="241.875" y2="35.375"/>
        <line x1="241.875" y1="35.375" x2="241.7812" y2="35.375"/>
        <line x1="241.7812" y1="35.375" x2="241.7812" y2="35.625"/>
        <line x1="241.7812" y1="35.625" x2="241.875" y2="35.625"/>
        <line x1="241.875" y1="35.625" x2="241.875" y2="35.875"/>
        <line x1="241.875" y1="35.875" x2="241.5" y2="35.875"/>
        <line x1="241.5" y1="35.875" x2="241.5" y2="35.7812"/>
        <line x1="241.5" y1="35.7812" x2="241.25" y2="35.7812"/>
        <line x1="241.25" y1="35.7812" x2="241.25" y2="35.875"/>
        <line x1="241.25" y1="35.875" x2="240.875" y2="35.875"/>
        <line x1="240.875" y1="41.875" x2="240.875" y2="41.625"/>
        <line x1="240.875" y1="41.625" x2="240.9687" y2="41.625"/>
        <line x1="240.9687" y1="41.625" x2="240.9687" y2="41.375"/>
        <line x1="240.9687" y1="41.375" x2="240.875" y2="41.375"/>
        <line x1="240.875" y1="41.375" x2="240.875" y2="41.125"/>
        <line x1="240.875" y1="41.125" x2="241.25" y2="41.125"/>
        <line x1="241.25" y1="41.125" x2="241.25" y2="41.21875"/>
        <line x1="241.25" y1="41.21875" x2="241.5" y2="41.21875"/>
        <line x1="241.5" y1="41.21875" x2="241.5" y2="41.125"/>
        <line x1="241.5" y1="41.125" x2="241.875" y2="41.125"/>
        <line x1="241.875" y1="41.125" x2="241.875" y2="41.375"/>
        <line x1="241.875" y1="41.375" x2="241.7812" y2="41.375"/>
        <line x1="241.7812" y1="41.375" x2="241.7812" y2="41.625"/>
        <line x1="241.7812" y1="41.625" x2="241.875" y2="41.625"/>
        <line x1="241.875" y1="41.625" x2="241.875" y2="41.875"/>
        <line x1="241.875" y1="41.875" x2="241.5" y2="41.875"/>
        <line x1="241.5" y1="41.875" x2="241.5" y2="41.78125"/>
        <line x1="241.5" y1="41.78125" x2="241.25" y2="41.78125"/>
        <line x1="241.25" y1="41.78125" x2="241.25" y2="41.875"/>
        <line x1="241.25" y1="41.875" x2="240.875" y2="41.875"/>
        <line x1="225.4688" y1="47.34375" x2="225.3438" y2="47.34375"/>
        <line x1="225.3438" y1="47.34375" x2="225.3438" y2="47.09375"/>
        <line x1="225.3438" y1="47.09375" x2="225.5938" y2="47.09375"/>
        <line x1="225.5938" y1="47.09375" x2="225.5938" y2="47.21875"/>
        <line x1="225.5938" y1="47.21875" x2="226" y2="47.21875"/>
        <line x1="226" y1="47.21875" x2="226" y2="43.78125"/>
        <line x1="226" y1="43.78125" x2="225.5938" y2="43.78125"/>
        <line x1="225.5938" y1="43.78125" x2="225.5938" y2="43.90625"/>
        <line x1="225.5938" y1="43.90625" x2="225.3438" y2="43.90625"/>
        <line x1="225.3438" y1="43.90625" x2="225.3438" y2="43.65625"/>
        <line x1="225.3438" y1="43.65625" x2="225.4688" y2="43.65625"/>
        <line x1="225.4688" y1="43.65625" x2="225.4688" y2="43.03125"/>
        <line x1="225.4688" y1="43.03125" x2="225.0938" y2="43.03125"/>
        <line x1="225.0938" y1="43.03125" x2="225.0938" y2="43.15625"/>
        <line x1="225.0938" y1="43.15625" x2="224.8438" y2="43.15625"/>
        <line x1="224.8438" y1="43.15625" x2="224.8438" y2="42.90625"/>
        <line x1="224.8438" y1="42.90625" x2="224.9688" y2="42.90625"/>
        <line x1="224.9688" y1="42.90625" x2="224.9688" y2="42.59375"/>
        <line x1="224.9688" y1="42.59375" x2="224.8438" y2="42.59375"/>
        <line x1="224.8438" y1="42.59375" x2="224.8438" y2="42.34375"/>
        <line x1="224.8438" y1="42.34375" x2="225.4688" y2="42.34375"/>
        <line x1="225.4688" y1="42.34375" x2="225.4688" y2="42.46875"/>
        <line x1="225.4688" y1="42.46875" x2="226" y2="42.46875"/>
        <line x1="226" y1="42.46875" x2="226" y2="36.5312"/>
        <line x1="226" y1="36.5312" x2="225.5938" y2="36.5312"/>
        <line x1="225.5938" y1="36.5312" x2="225.5938" y2="36.6562"/>
        <line x1="225.5938" y1="36.6562" x2="225.0938" y2="36.6562"/>
        <line x1="225.0938" y1="36.6562" x2="225.0938" y2="36.4062"/>
        <line x1="225.0938" y1="36.4062" x2="225.2188" y2="36.4062"/>
        <line x1="225.2188" y1="36.4062" x2="225.2188" y2="36.0938"/>
        <line x1="225.2188" y1="36.0938" x2="225.0938" y2="36.0938"/>
        <line x1="225.0938" y1="36.0938" x2="225.0938" y2="35.8438"/>
        <line x1="225.0938" y1="35.8438" x2="225.3438" y2="35.8438"/>
        <line x1="225.3438" y1="35.8438" x2="225.3438" y2="35.9688"/>
        <line x1="225.3438" y1="35.9688" x2="225.4688" y2="35.9688"/>
        <line x1="225.4688" y1="35.9688" x2="225.4688" y2="35.5938"/>
        <line x1="225.4688" y1="35.5938" x2="225.3438" y2="35.5938"/>
        <line x1="225.3438" y1="35.5938" x2="225.3438" y2="35.3438"/>
        <line x1="225.3438" y1="35.3438" x2="225.7188" y2="35.3438"/>
        <line x1="225.7188" y1="35.3438" x2="225.7188" y2="35.4688"/>
        <line x1="225.7188" y1="35.4688" x2="226" y2="35.4688"/>
        <line x1="226" y1="35.4688" x2="226" y2="30.5312"/>
        <line x1="226" y1="30.5312" x2="225.5938" y2="30.5312"/>
        <line x1="225.5938" y1="30.5312" x2="225.5938" y2="30.6562"/>
        <line x1="225.5938" y1="30.6562" x2="225.3438" y2="30.6562"/>
        <line x1="225.3438" y1="30.6562" x2="225.3438" y2="30.4062"/>
        <line x1="225.3438" y1="30.4062" x2="225.4688" y2="30.4062"/>
        <line x1="225.4688" y1="30.4062" x2="225.4688" y2="30.0312"/>
        <line x1="225.4688" y1="30.0312" x2="225.3438" y2="30.0312"/>
        <line x1="225.3438" y1="30.0312" x2="225.3438" y2="30.1562"/>
        <line x1="225.3438" y1="30.1562" x2="225.0938" y2="30.1562"/>
        <line x1="225.0938" y1="30.1562" x2="225.0938" y2="29.9062"/>
        <line x1="225.0938" y1="29.9062" x2="225.2188" y2="29.9062"/>
        <line x1="225.2188" y1="29.9062" x2="225.2188" y2="29.5"/>
        <line x1="225.2188" y1="29.5" x2="221.2812" y2="29.5"/>
        <line x1="221.2812" y1="29.5" x2="221.2812" y2="29.9062"/>
        <line x1="221.2812" y1="29.9062" x2="221.4062" y2="29.9062"/>
        <line x1="221.4062" y1="29.9062" x2="221.4062" y2="30.1562"/>
        <line x1="221.4062" y1="30.1562" x2="220.9062" y2="30.1562"/>
        <line x1="220.9062" y1="30.1562" x2="220.9062" y2="30.0312"/>
        <line x1="220.9062" y1="30.0312" x2="220" y2="30.0312"/>
        <line x1="220" y1="30.0312" x2="220" y2="34.9688"/>
        <line x1="220" y1="34.9688" x2="220.4062" y2="34.9688"/>
        <line x1="220.4062" y1="34.9688" x2="220.4062" y2="34.8438"/>
        <line x1="220.4062" y1="34.8438" x2="220.6562" y2="34.8438"/>
        <line x1="220.6562" y1="34.8438" x2="220.6562" y2="35.4688"/>
        <line x1="220.6562" y1="35.4688" x2="220.5312" y2="35.4688"/>
        <line x1="220.5312" y1="35.4688" x2="220.5312" y2="35.9688"/>
        <line x1="220.5312" y1="35.9688" x2="221.0312" y2="35.9688"/>
        <line x1="221.0312" y1="35.9688" x2="221.0312" y2="35.8438"/>
        <line x1="221.0312" y1="35.8438" x2="221.4062" y2="35.8438"/>
        <line x1="221.4062" y1="35.8438" x2="221.4062" y2="36.0938"/>
        <line x1="221.4062" y1="36.0938" x2="221.2812" y2="36.0938"/>
        <line x1="221.2812" y1="36.0938" x2="221.2812" y2="36.4062"/>
        <line x1="221.2812" y1="36.4062" x2="221.4062" y2="36.4062"/>
        <line x1="221.4062" y1="36.4062" x2="221.4062" y2="36.6562"/>
        <line x1="221.4062" y1="36.6562" x2="221.0312" y2="36.6562"/>
        <line x1="221.0312" y1="36.6562" x2="221.0312" y2="36.5312"/>
        <line x1="221.0312" y1="36.5312" x2="220" y2="36.5312"/>
        <line x1="220" y1="36.5312" x2="220" y2="42.46875"/>
        <line x1="220" y1="42.46875" x2="220.4062" y2="42.46875"/>
        <line x1="220.4062" y1="42.46875" x2="220.4062" y2="42.34375"/>
        <line x1="220.4062" y1="42.34375" x2="220.6562" y2="42.34375"/>
        <line x1="220.6562" y1="42.34375" x2="220.6562" y2="42.59375"/>
        <line x1="220.6562" y1="42.59375" x2="220.5312" y2="42.59375"/>
        <line x1="220.5312" y1="42.59375" x2="220.5312" y2="42.90625"/>
        <line x1="220.5312" y1="42.90625" x2="220.6562" y2="42.90625"/>
        <line x1="220.6562" y1="42.90625" x2="220.6562" y2="43.15625"/>
        <line x1="220.6562" y1="43.15625" x2="220.4062" y2="43.15625"/>
        <line x1="220.4062" y1="43.15625" x2="220.4062" y2="43.03125"/>
        <line x1="220.4062" y1="43.03125" x2="220" y2="43.03125"/>
        <line x1="220" y1="43.03125" x2="220" y2="45.96875"/>
        <line x1="220" y1="45.96875" x2="220.4062" y2="45.96875"/>
        <line x1="220.4062" y1="45.96875" x2="220.4062" y2="45.84375"/>
        <line x1="220.4062" y1="45.84375" x2="220.6562" y2="45.84375"/>
        <line x1="220.6562" y1="45.84375" x2="220.6562" y2="46.09375"/>
        <line x1="220.6562" y1="46.09375" x2="220.5312" y2="46.09375"/>
        <line x1="220.5312" y1="46.09375" x2="220.5312" y2="48"/>
        <line x1="220.5312" y1="48" x2="225.4688" y2="48"/>
        <line x1="225.4688" y1="48" x2="225.4688" y2="47.34375"/>
        <line x1="222.6893" y1="45.56067" x2="222.25" y2="44.5"/>
        <line x1="222.25" y1="44.5" x2="222.6893" y2="43.43935"/>
        <line x1="222.6893" y1="43.43935" x2="223.75" y2="43"/>
        <line x1="223.75" y1="43" x2="224.8107" y2="43.43935"/>
        <line x1="224.8107" y1="43.43935" x2="225.25" y2="44.50002"/>
        <line x1="225.25" y1="44.50002" x2="224.8107" y2="45.56067"/>
        <line x1="224.8107" y1="45.56067" x2="223.75" y2="46"/>
        <line x1="223.75" y1="46" x2="222.6893" y2="45.56067"/>
        <line x1="232.4688" y1="47.34375" x2="232.3438" y2="47.34375"/>
        <line x1="232.3438" y1="47.34375" x2="232.3438" y2="47.09375"/>
        <line x1="232.3438" y1="47.09375" x2="232.5938" y2="47.09375"/>
        <line x1="232.5938" y1="47.09375" x2="232.5938" y2="47.21875"/>
        <line x1="232.5938" y1="47.21875" x2="233" y2="47.21875"/>
        <line x1="233" y1="47.21875" x2="233" y2="43.78125"/>
        <line x1="233" y1="43.78125" x2="232.5938" y2="43.78125"/>
        <line x1="232.5938" y1="43.78125" x2="232.5938" y2="43.90625"/>
        <line x1="232.5938" y1="43.90625" x2="232.3438" y2="43.90625"/>
        <line x1="232.3438" y1="43.90625" x2="232.3438" y2="43.65625"/>
        <line x1="232.3438" y1="43.65625" x2="232.4688" y2="43.65625"/>
        <line x1="232.4688" y1="43.65625" x2="232.4688" y2="43.03125"/>
        <line x1="232.4688" y1="43.03125" x2="232.0938" y2="43.03125"/>
        <line x1="232.0938" y1="43.03125" x2="232.0938" y2="43.15625"/>
        <line x1="232.0938" y1="43.15625" x2="231.8438" y2="43.15625"/>
        <line x1="231.8438" y1="43.15625" x2="231.8438" y2="42.90625"/>
        <line x1="231.8438" y1="42.90625" x2="231.9688" y2="42.90625"/>
        <line x1="231.9688" y1="42.90625" x2="231.9688" y2="42.59375"/>
        <line x1="231.9688" y1="42.59375" x2="231.8438" y2="42.59375"/>
        <line x1="231.8438" y1="42.59375" x2="231.8438" y2="42.34375"/>
        <line x1="231.8438" y1="42.34375" x2="232.4688" y2="42.34375"/>
        <line x1="232.4688" y1="42.34375" x2="232.4688" y2="42.46875"/>
        <line x1="232.4688" y1="42.46875" x2="233" y2="42.46875"/>
        <line x1="233" y1="42.46875" x2="233" y2="36.5312"/>
        <line x1="233" y1="36.5312" x2="232.5938" y2="36.5312"/>
        <line x1="232.5938" y1="36.5312" x2="232.5938" y2="36.6562"/>
        <line x1="232.5938" y1="36.6562" x2="232.0938" y2="36.6562"/>
        <line x1="232.0938" y1="36.6562" x2="232.0938" y2="36.4062"/>
        <line x1="232.0938" y1="36.4062" x2="232.2188" y2="36.4062"/>
        <line x1="232.2188" y1="36.4062" x2="232.2188" y2="36.0938"/>
        <line x1="232.2188" y1="36.0938" x2="232.0938" y2="36.0938"/>
        <line x1="232.0938" y1="36.0938" x2="232.0938" y2="35.8438"/>
        <line x1="232.0938" y1="35.8438" x2="232.3438" y2="35.8438"/>
        <line x1="232.3438" y1="35.8438" x2="232.3438" y2="35.9688"/>
        <line x1="232.3438" y1="35.9688" x2="232.4688" y2="35.9688"/>
        <line x1="232.4688" y1="35.9688" x2="232.4688" y2="35.5938"/>
        <line x1="232.4688" y1="35.5938" x2="232.3438" y2="35.5938"/>
        <line x1="232.3438" y1="35.5938" x2="232.3438" y2="35.3438"/>
        <line x1="232.3438" y1="35.3438" x2="232.7188" y2="35.3438"/>
        <line x1="232.7188" y1="35.3438" x2="232.7188" y2="35.4688"/>
        <line x1="232.7188" y1="35.4688" x2="233" y2="35.4688"/>
        <line x1="233" y1="35.4688" x2="233" y2="30.5312"/>
        <line x1="233" y1="30.5312" x2="232.5938" y2="30.5312"/>
        <line x1="232.5938" y1="30.5312" x2="232.5938" y2="30.6562"/>
        <line x1="232.5938" y1="30.6562" x2="232.3438" y2="30.6562"/>
        <line x1="232.3438" y1="30.6562" x2="232.3438" y2="30.4062"/>
        <line x1="232.3438" y1="30.4062" x2="232.4688" y2="30.4062"/>
        <line x1="232.4688" y1="30.4062" x2="232.4688" y2="30.0312"/>
        <line x1="232.4688" y1="30.0312" x2="232.3438" y2="30.0312"/>
        <line x1="232.3438" y1="30.0312" x2="232.3438" y2="30.1562"/>
        <line x1="232.3438" y1="30.1562" x2="232.0938" y2="30.1562"/>
        <line x1="232.0938" y1="30.1562" x2="232.0938" y2="29.9062"/>
        <line x1="232.0938" y1="29.9062" x2="232.2188" y2="29.9062"/>
        <line x1="232.2188" y1="29.9062" x2="232.2188" y2="29.5"/>
        <line x1="232.2188" y1="29.5" x2="228.2812" y2="29.5"/>
        <line x1="228.2812" y1="29.5" x2="228.2812" y2="29.9062"/>
        <line x1="228.2812" y1="29.9062" x2="228.4062" y2="29.9062"/>
        <line x1="228.4062" y1="29.9062" x2="228.4062" y2="30.1562"/>
        <line x1="228.4062" y1="30.1562" x2="227.9062" y2="30.1562"/>
        <line x1="227.9062" y1="30.1562" x2="227.9062" y2="30.0312"/>
        <line x1="227.9062" y1="30.0312" x2="227" y2="30.0312"/>
        <line x1="227" y1="30.0312" x2="227" y2="34.9688"/>
        <line x1="227" y1="34.9688" x2="227.4062" y2="34.9688"/>
        <line x1="227.4062" y1="34.9688" x2="227.4062" y2="34.8438"/>
        <line x1="227.4062" y1="34.8438" x2="227.6562" y2="34.8438"/>
        <line x1="227.6562" y1="34.8438" x2="227.6562" y2="35.4688"/>
        <line x1="227.6562" y1="35.4688" x2="227.5312" y2="35.4688"/>
        <line x1="227.5312" y1="35.4688" x2="227.5312" y2="35.9688"/>
        <line x1="227.5312" y1="35.9688" x2="228.0312" y2="35.9688"/>
        <line x1="228.0312" y1="35.9688" x2="228.0312" y2="35.8438"/>
        <line x1="228.0312" y1="35.8438" x2="228.4062" y2="35.8438"/>
        <line x1="228.4062" y1="35.8438" x2="228.4062" y2="36.0938"/>
        <line x1="228.4062" y1="36.0938" x2="228.2812" y2="36.0938"/>
        <line x1="228.2812" y1="36.0938" x2="228.2812" y2="36.4062"/>
        <line x1="228.2812" y1="36.4062" x2="228.4062" y2="36.4062"/>
        <line x1="228.4062" y1="36.4062" x2="228.4062" y2="36.6562"/>
        <line x1="228.4062" y1="36.6562" x2="228.0312" y2="36.6562"/>
        <line x1="228.0312" y1="36.6562" x2="228.0312" y2="36.5312"/>
        <line x1="228.0312" y1="36.5312" x2="227" y2="36.5312"/>
        <line x1="227" y1="36.5312" x2="227" y2="42.46875"/>
        <line x1="227" y1="42.46875" x2="227.4062" y2="42.46875"/>
        <line x1="227.4062" y1="42.46875" x2="227.4062" y2="42.34375"/>
        <line x1="227.4062" y1="42.34375" x2="227.6562" y2="42.34375"/>
        <line x1="227.6562" y1="42.34375" x2="227.6562" y2="42.59375"/>
        <line x1="227.6562" y1="42.59375" x2="227.5312" y2="42.59375"/>
        <line x1="227.5312" y1="42.59375" x2="227.5312" y2="42.90625"/>
        <line x1="227.5312" y1="42.90625" x2="227.6562" y2="42.90625"/>
        <line x1="227.6562" y1="42.90625" x2="227.6562" y2="43.15625"/>
        <line x1="227.6562" y1="43.15625" x2="227.4062" y2="43.15625"/>
        <line x1="227.4062" y1="43.15625" x2="227.4062" y2="43.03125"/>
        <line x1="227.4062" y1="43.03125" x2="227" y2="43.03125"/>
        <line x1="227" y1="43.03125" x2="227" y2="45.96875"/>
        <line x1="227" y1="45.96875" x2="227.4062" y2="45.96875"/>
        <line x1="227.4062" y1="45.96875" x2="227.4062" y2="45.84375"/>
        <line x1="227.4062" y1="45.84375" x2="227.6562" y2="45.84375"/>
        <line x1="227.6562" y1="45.84375" x2="227.6562" y2="46.09375"/>
        <line x1="227.6562" y1="46.09375" x2="227.5312" y2="46.09375"/>
        <line x1="227.5312" y1="46.09375" x2="227.5312" y2="48"/>
        <line x1="227.5312" y1="48" x2="232.4688" y2="48"/>
        <line x1="232.4688" y1="48" x2="232.4688" y2="47.34375"/>
        <line x1="229.6893" y1="45.56067" x2="229.25" y2="44.5"/>
        <line x1="229.25" y1="44.5" x2="229.6893" y2="43.43935"/>
        <line x1="229.6893" y1="43.43935" x2="230.75" y2="43"/>
        <line x1="230.75" y1="43" x2="231.8107" y2="43.43935"/>
        <line x1="231.8107" y1="43.43935" x2="232.25" y2="44.50002"/>
        <line x1="232.25" y1="44.50002" x2="231.8107" y2="45.56067"/>
        <line x1="231.8107" y1="45.56067" x2="230.75" y2="46"/>
        <line x1="230.75" y1="46" x2="229.6893" y2="45.56067"/>
    </g>
</svg>
