<?xml version="1.0" standalone="no"?>
<!DOCTYPE svg PUBLIC "-//W3C//DTD SVG 1.1//EN" "http://www.w3.org/Graphics/SVG/1.1/DTD/svg11.dtd">
<svg width="246" height="48" viewBox="-197 -48 246 48" xmlns="http://www.w3.org/2000/svg" version="1.1">
<title>OpenSCAD Model</title>
<path d="
M -1,-48 L -97,-48 L -97,-0.00999451 L -101,-0.00999451 L -101,-48 L -197,-48
 L -197,-0 L -1,-0 z
M 15.5,-0.53125 L 20.5,-0.53125 L 20.5,-0 L 22,-0 L 22,-25 L 20.5,-25
 L 20.5,-24.4688 L 15.5,-24.4688 L 15.5,-25 L 0,-25 L 0,-21.6192 L 6,-21.6192
 L 5.99998,-3.3808 L 0,-3.3808 L 0,-0 L 15.5,-0 z
M 2.64644,-22.2656 L 2.5,-22.6192 L 2.64644,-22.9727 L 3,-23.1192 L 3.35355,-22.9727 L 3.5,-22.6192
 L 3.35355,-22.2656 L 3,-22.1192 z
M 0.646439,-22.2656 L 0.5,-22.6192 L 0.646439,-22.9727 L 1,-23.1192 L 1.35355,-22.9727 L 1.5,-22.6192
 L 1.35355,-22.2656 L 1,-22.1192 z
M 2.64644,-2.02724 L 2.49998,-2.3808 L 2.64644,-2.73434 L 2.99998,-2.8808 L 3.35355,-2.73434 L 3.49998,-2.3808
 L 3.35355,-2.02724 L 2.99998,-1.8808 z
M 0.646439,-2.02724 L 0.499985,-2.3808 L 0.646439,-2.73434 L 0.999985,-2.8808 L 1.35355,-2.73434 L 1.49998,-2.3808
 L 1.35355,-2.02724 L 0.999985,-1.8808 z
M 37.75,-0.625 L 37.875,-0.625 L 37.875,-0.5 L 38.125,-0.5 L 38.125,-0.625 L 41.375,-0.624985
 L 41.375,-0.499985 L 41.625,-0.499985 L 41.625,-0.624985 L 41.75,-0.624985 L 41.75,-0 L 42.5,-0
 L 42.5,-6.21875 L 42.25,-6.21875 L 42.25,-6.125 L 41.625,-6.125 L 41.625,-6.375 L 41.7187,-6.375
 L 41.7187,-6.625 L 41.625,-6.625 L 41.625,-6.875 L 42.25,-6.875 L 42.25,-6.78125 L 42.5,-6.78125
 L 42.5,-12.2188 L 42.25,-12.2188 L 42.25,-12.125 L 41.625,-12.125 L 41.625,-12.375 L 41.7187,-12.375
 L 41.7188,-12.625 L 41.625,-12.625 L 41.625,-12.875 L 42.25,-12.875 L 42.25,-12.7812 L 42.5,-12.7812
 L 42.5,-18.2188 L 42.25,-18.2188 L 42.25,-18.125 L 41.625,-18.125 L 41.625,-18.375 L 41.7188,-18.375
 L 41.7188,-18.625 L 41.625,-18.625 L 41.625,-18.875 L 42.25,-18.875 L 42.25,-18.7812 L 42.5,-18.7812
 L 42.5,-25 L 41.75,-25 L 41.75,-24.375 L 41.625,-24.375 L 41.625,-24.5 L 41.375,-24.5
 L 41.375,-24.375 L 38.125,-24.375 L 38.125,-24.5 L 37.875,-24.5 L 37.875,-24.375 L 37.75,-24.375
 L 37.75,-25 L 37,-25 L 37,-0 L 37.75,-0 z
M 37.375,-18.125 L 37.375,-18.375 L 37.4688,-18.375 L 37.4688,-18.625 L 37.375,-18.625 L 37.375,-18.875
 L 37.75,-18.875 L 37.75,-18.7812 L 38,-18.7812 L 38,-18.875 L 38.375,-18.875 L 38.375,-18.625
 L 38.2812,-18.625 L 38.2812,-18.375 L 38.375,-18.375 L 38.375,-18.125 L 38,-18.125 L 38,-18.2188
 L 37.75,-18.2188 L 37.75,-18.125 z
M 37.375,-12.125 L 37.375,-12.375 L 37.4687,-12.375 L 37.4688,-12.625 L 37.375,-12.625 L 37.375,-12.875
 L 37.75,-12.875 L 37.75,-12.7812 L 38,-12.7812 L 38,-12.875 L 38.375,-12.875 L 38.375,-12.625
 L 38.2812,-12.625 L 38.2812,-12.375 L 38.375,-12.375 L 38.375,-12.125 L 38,-12.125 L 38,-12.2188
 L 37.75,-12.2188 L 37.75,-12.125 z
M 37.375,-6.125 L 37.375,-6.375 L 37.4687,-6.375 L 37.4687,-6.625 L 37.375,-6.625 L 37.375,-6.875
 L 37.75,-6.875 L 37.75,-6.78125 L 38,-6.78125 L 38,-6.875 L 38.375,-6.875 L 38.375,-6.625
 L 38.2812,-6.625 L 38.2812,-6.375 L 38.375,-6.375 L 38.375,-6.125 L 38,-6.125 L 38,-6.21875
 L 37.75,-6.21875 L 37.75,-6.125 z
M 44.25,-0.625 L 44.375,-0.625 L 44.375,-0.5 L 44.625,-0.5 L 44.625,-0.625 L 47.875,-0.624985
 L 47.875,-0.499985 L 48.125,-0.499985 L 48.125,-0.624985 L 48.25,-0.624985 L 48.25,-0 L 49,-0
 L 49,-6.21875 L 48.75,-6.21875 L 48.75,-6.125 L 48.125,-6.125 L 48.125,-6.375 L 48.2187,-6.375
 L 48.2187,-6.625 L 48.125,-6.625 L 48.125,-6.875 L 48.75,-6.875 L 48.75,-6.78125 L 49,-6.78125
 L 49,-12.2188 L 48.75,-12.2188 L 48.75,-12.125 L 48.125,-12.125 L 48.125,-12.375 L 48.2187,-12.375
 L 48.2188,-12.625 L 48.125,-12.625 L 48.125,-12.875 L 48.75,-12.875 L 48.75,-12.7812 L 49,-12.7812
 L 49,-18.2188 L 48.75,-18.2188 L 48.75,-18.125 L 48.125,-18.125 L 48.125,-18.375 L 48.2188,-18.375
 L 48.2188,-18.625 L 48.125,-18.625 L 48.125,-18.875 L 48.75,-18.875 L 48.75,-18.7812 L 49,-18.7812
 L 49,-25 L 48.25,-25 L 48.25,-24.375 L 48.125,-24.375 L 48.125,-24.5 L 47.875,-24.5
 L 47.875,-24.375 L 44.625,-24.375 L 44.625,-24.5 L 44.375,-24.5 L 44.375,-24.375 L 44.25,-24.375
 L 44.25,-25 L 43.5,-25 L 43.5,-0 L 44.25,-0 z
M 43.875,-18.125 L 43.875,-18.375 L 43.9688,-18.375 L 43.9688,-18.625 L 43.875,-18.625 L 43.875,-18.875
 L 44.25,-18.875 L 44.25,-18.7812 L 44.5,-18.7812 L 44.5,-18.875 L 44.875,-18.875 L 44.875,-18.625
 L 44.7812,-18.625 L 44.7812,-18.375 L 44.875,-18.375 L 44.875,-18.125 L 44.5,-18.125 L 44.5,-18.2188
 L 44.25,-18.2188 L 44.25,-18.125 z
M 43.875,-12.125 L 43.875,-12.375 L 43.9687,-12.375 L 43.9688,-12.625 L 43.875,-12.625 L 43.875,-12.875
 L 44.25,-12.875 L 44.25,-12.7812 L 44.5,-12.7812 L 44.5,-12.875 L 44.875,-12.875 L 44.875,-12.625
 L 44.7812,-12.625 L 44.7812,-12.375 L 44.875,-12.375 L 44.875,-12.125 L 44.5,-12.125 L 44.5,-12.2188
 L 44.25,-12.2188 L 44.25,-12.125 z
M 43.875,-6.125 L 43.875,-6.375 L 43.9687,-6.375 L 43.9687,-6.625 L 43.875,-6.625 L 43.875,-6.875
 L 44.25,-6.875 L 44.25,-6.78125 L 44.5,-6.78125 L 44.5,-6.875 L 44.875,-6.875 L 44.875,-6.625
 L 44.7812,-6.625 L 44.7812,-6.375 L 44.875,-6.375 L 44.875,-6.125 L 44.5,-6.125 L 44.5,-6.21875
 L 44.25,-6.21875 L 44.25,-6.125 z
M 28.4688,-0.65625 L 28.3438,-0.65625 L 28.3438,-0.90625 L 28.5938,-0.90625 L 28.5938,-0.78125 L 29,-0.78125
 L 29,-4.21875 L 28.5938,-4.21875 L 28.5938,-4.09375 L 28.3438,-4.09375 L 28.3438,-4.34375 L 28.4688,-4.34375
 L 28.4688,-4.96875 L 28.0938,-4.96875 L 28.0938,-4.84375 L 27.8438,-4.84375 L 27.8438,-5.09375 L 27.9688,-5.09375
 L 27.9688,-5.40625 L 27.8438,-5.40625 L 27.8438,-5.65625 L 28.4688,-5.65625 L 28.4688,-5.53125 L 29,-5.53125
 L 29,-11.4688 L 28.5938,-11.4688 L 28.5938,-11.3438 L 28.0938,-11.3438 L 28.0938,-11.5938 L 28.2188,-11.5938
 L 28.2188,-11.9062 L 28.0938,-11.9062 L 28.0938,-12.1562 L 28.3438,-12.1562 L 28.3438,-12.0312 L 28.4688,-12.0312
 L 28.4688,-12.4062 L 28.3438,-12.4062 L 28.3438,-12.6562 L 28.7188,-12.6562 L 28.7188,-12.5312 L 29,-12.5312
 L 29,-17.4688 L 28.5938,-17.4688 L 28.5938,-17.3438 L 28.3438,-17.3438 L 28.3438,-17.5938 L 28.4688,-17.5938
 L 28.4688,-17.9688 L 28.3438,-17.9688 L 28.3438,-17.8438 L 28.0938,-17.8438 L 28.0938,-18.0938 L 28.2188,-18.0938
 L 28.2188,-18.5 L 24.2812,-18.5 L 24.2812,-18.0938 L 24.4062,-18.0938 L 24.4062,-17.8438 L 23.9062,-17.8438
 L 23.9062,-17.9688 L 23,-17.9688 L 23,-13.0312 L 23.4062,-13.0312 L 23.4062,-13.1562 L 23.6562,-13.1562
 L 23.6562,-12.5312 L 23.5312,-12.5312 L 23.5312,-12.0312 L 24.0312,-12.0312 L 24.0312,-12.1562 L 24.4062,-12.1562
 L 24.4062,-11.9062 L 24.2812,-11.9062 L 24.2812,-11.5938 L 24.4062,-11.5938 L 24.4062,-11.3438 L 24.0312,-11.3438
 L 24.0312,-11.4688 L 23,-11.4688 L 23,-5.53125 L 23.4062,-5.53125 L 23.4062,-5.65625 L 23.6562,-5.65625
 L 23.6562,-5.40625 L 23.5312,-5.40625 L 23.5312,-5.09375 L 23.6562,-5.09375 L 23.6562,-4.84375 L 23.4062,-4.84375
 L 23.4062,-4.96875 L 23,-4.96875 L 23,-2.03125 L 23.4062,-2.03125 L 23.4062,-2.15625 L 23.6562,-2.15625
 L 23.6562,-1.90625 L 23.5312,-1.90625 L 23.5312,-0 L 28.4688,-0 z
M 25.6893,-2.43933 L 25.25,-3.5 L 25.6893,-4.56065 L 26.75,-5 L 27.8107,-4.56065 L 28.25,-3.49998
 L 27.8107,-2.43933 L 26.75,-2 z
M 35.4688,-0.65625 L 35.3438,-0.65625 L 35.3438,-0.90625 L 35.5938,-0.90625 L 35.5938,-0.78125 L 36,-0.78125
 L 36,-4.21875 L 35.5938,-4.21875 L 35.5938,-4.09375 L 35.3438,-4.09375 L 35.3438,-4.34375 L 35.4688,-4.34375
 L 35.4688,-4.96875 L 35.0938,-4.96875 L 35.0938,-4.84375 L 34.8438,-4.84375 L 34.8438,-5.09375 L 34.9688,-5.09375
 L 34.9688,-5.40625 L 34.8438,-5.40625 L 34.8438,-5.65625 L 35.4688,-5.65625 L 35.4688,-5.53125 L 36,-5.53125
 L 36,-11.4688 L 35.5938,-11.4688 L 35.5938,-11.3438 L 35.0938,-11.3438 L 35.0938,-11.5938 L 35.2188,-11.5938
 L 35.2188,-11.9062 L 35.0938,-11.9062 L 35.0938,-12.1562 L 35.3438,-12.1562 L 35.3438,-12.0312 L 35.4688,-12.0312
 L 35.4688,-12.4062 L 35.3438,-12.4062 L 35.3438,-12.6562 L 35.7188,-12.6562 L 35.7188,-12.5312 L 36,-12.5312
 L 36,-17.4688 L 35.5938,-17.4688 L 35.5938,-17.3438 L 35.3438,-17.3438 L 35.3438,-17.5938 L 35.4688,-17.5938
 L 35.4688,-17.9688 L 35.3438,-17.9688 L 35.3438,-17.8438 L 35.0938,-17.8438 L 35.0938,-18.0938 L 35.2188,-18.0938
 L 35.2188,-18.5 L 31.2812,-18.5 L 31.2812,-18.0938 L 31.4062,-18.0938 L 31.4062,-17.8438 L 30.9062,-17.8438
 L 30.9062,-17.9688 L 30,-17.9688 L 30,-13.0312 L 30.4062,-13.0312 L 30.4062,-13.1562 L 30.6562,-13.1562
 L 30.6562,-12.5312 L 30.5312,-12.5312 L 30.5312,-12.0312 L 31.0312,-12.0312 L 31.0312,-12.1562 L 31.4062,-12.1562
 L 31.4062,-11.9062 L 31.2812,-11.9062 L 31.2812,-11.5938 L 31.4062,-11.5938 L 31.4062,-11.3438 L 31.0312,-11.3438
 L 31.0312,-11.4688 L 30,-11.4688 L 30,-5.53125 L 30.4062,-5.53125 L 30.4062,-5.65625 L 30.6562,-5.65625
 L 30.6562,-5.40625 L 30.5312,-5.40625 L 30.5312,-5.09375 L 30.6562,-5.09375 L 30.6562,-4.84375 L 30.4062,-4.84375
 L 30.4062,-4.96875 L 30,-4.96875 L 30,-2.03125 L 30.4062,-2.03125 L 30.4062,-2.15625 L 30.6562,-2.15625
 L 30.6562,-1.90625 L 30.5312,-1.90625 L 30.5312,-0 L 35.4688,-0 z
M 32.6893,-2.43933 L 32.25,-3.5 L 32.6893,-4.56065 L 33.75,-5 L 34.8107,-4.56065 L 35.25,-3.49998
 L 34.8107,-2.43933 L 33.75,-2 z
" stroke="black" fill="lightgray" stroke-width="0.5"/></svg>
