<?xml version="1.0" standalone="no"?>
<!DOCTYPE svg PUBLIC "-//W3C//DTD SVG 1.1//EN" "http://www.w3.org/Graphics/SVG/1.1/DTD/svg11.dtd">
<svg width="4mm" height="78mm" viewBox="0 -78 4 78" xmlns="http://www.w3.org/2000/svg" version="1.1">
<title>OpenSCAD Model</title>
<path d="
M 3.375,-0.0625 L 3.5,-0.0625 L 3.5,-0.5625 L 3.375,-0.5625 L 3.375,-5.8802 L 3.5,-5.8802
 L 3.5,-6.3802 L 3.375,-6.3802 L 3.375,-6.5052 L 4,-6.5052 L 4,-12.9479 L 3.375,-12.9479
 L 3.375,-13.0729 L 3.5,-13.0729 L 3.5,-13.5729 L 3.375,-13.5729 L 3.375,-18.8906 L 3.5,-18.8906
 L 3.5,-19.3906 L 3.375,-19.3906 L 3.375,-19.5156 L 4,-19.5156 L 4,-25.9583 L 3.375,-25.9583
 L 3.375,-26.0833 L 3.5,-26.0833 L 3.5,-26.5833 L 3.375,-26.5833 L 3.375,-31.901 L 3.5,-31.901
 L 3.5,-32.401 L 3.375,-32.401 L 3.375,-32.526 L 4,-32.526 L 4,-38.9688 L 3.375,-38.9688
 L 3.375,-39.0938 L 3.5,-39.0938 L 3.5,-39.5938 L 3.375,-39.5938 L 3.375,-44.9115 L 3.5,-44.9115
 L 3.5,-45.4115 L 3.375,-45.4115 L 3.375,-45.5365 L 4,-45.5365 L 4,-51.9792 L 3.375,-51.9792
 L 3.375,-52.1042 L 3.5,-52.1042 L 3.5,-52.6042 L 3.375,-52.6042 L 3.375,-57.9219 L 3.5,-57.9219
 L 3.5,-58.4219 L 3.375,-58.4219 L 3.375,-58.5469 L 4,-58.5469 L 4,-64.9896 L 3.375,-64.9896
 L 3.375,-65.1146 L 3.5,-65.1146 L 3.5,-65.6146 L 3.375,-65.6146 L 3.375,-70.9323 L 3.5,-70.9323
 L 3.5,-71.4323 L 3.375,-71.4323 L 3.375,-71.5573 L 4,-71.5573 L 4,-78 L 0,-78
 L 0,-77.3438 L 0.5625,-77.3438 L 0.5625,-77.4688 L 0.8125,-77.4688 L 0.8125,-77.2188 L 0.6875,-77.2188
 L 0.6875,-76.7812 L 0.8125,-76.7812 L 0.8125,-76.5312 L 0.5625,-76.5312 L 0.5625,-76.6562 L 0,-76.6562
 L 0,-51.3438 L 0.5625,-51.3438 L 0.5625,-51.4688 L 0.8125,-51.4688 L 0.8125,-51.2188 L 0.6875,-51.2188
 L 0.6875,-50.7812 L 0.8125,-50.7812 L 0.8125,-50.5312 L 0.5625,-50.5312 L 0.5625,-50.6562 L 0,-50.6562
 L 0,-1.34375 L 0.5625,-1.34375 L 0.5625,-1.46875 L 0.8125,-1.46875 L 0.8125,-1.21875 L 0.6875,-1.21875
 L 0.6875,-0.78125 L 0.8125,-0.78125 L 0.8125,-0.53125 L 0.5625,-0.53125 L 0.5625,-0.65625 L 0,-0.65625
 L 0,-0 L 3.375,-0 z
M 1.93053,-74.6061 L 1.86319,-74.6241 L 1.79999,-74.6536 L 1.74287,-74.6936 L 1.69357,-74.7429 L 1.65358,-74.8
 L 1.62411,-74.8632 L 1.60606,-74.9305 L 1.59999,-75 L 1.60606,-75.0695 L 1.62411,-75.1368 L 1.65358,-75.2
 L 1.69357,-75.2571 L 1.74287,-75.3064 L 1.79999,-75.3464 L 1.86319,-75.3759 L 1.93053,-75.3939 L 2,-75.4
 L 2.06946,-75.3939 L 2.1368,-75.3759 L 2.2,-75.3464 L 2.25711,-75.3064 L 2.30641,-75.2571 L 2.34641,-75.2
 L 2.37587,-75.1368 L 2.39392,-75.0695 L 2.39999,-75 L 2.39392,-74.9305 L 2.37587,-74.8632 L 2.34641,-74.8
 L 2.30641,-74.7429 L 2.25711,-74.6936 L 2.2,-74.6536 L 2.1368,-74.6241 L 2.06946,-74.6061 L 2,-74.6
 z
M 1.93053,-69.6061 L 1.86319,-69.6241 L 1.79999,-69.6536 L 1.74287,-69.6936 L 1.69357,-69.7429 L 1.65358,-69.8
 L 1.62411,-69.8632 L 1.60606,-69.9305 L 1.59999,-70 L 1.60606,-70.0695 L 1.62411,-70.1368 L 1.65358,-70.2
 L 1.69357,-70.2571 L 1.74287,-70.3064 L 1.79999,-70.3464 L 1.86319,-70.3759 L 1.93053,-70.3939 L 2,-70.4
 L 2.06946,-70.3939 L 2.1368,-70.3759 L 2.2,-70.3464 L 2.25711,-70.3064 L 2.30641,-70.2571 L 2.34641,-70.2
 L 2.37587,-70.1368 L 2.39392,-70.0695 L 2.39999,-70 L 2.39392,-69.9305 L 2.37587,-69.8632 L 2.34641,-69.8
 L 2.30641,-69.7429 L 2.25711,-69.6936 L 2.2,-69.6536 L 2.1368,-69.6241 L 2.06946,-69.6061 L 2,-69.6
 z
M 1.93053,-62.1061 L 1.86319,-62.1241 L 1.79999,-62.1536 L 1.74287,-62.1936 L 1.69357,-62.2429 L 1.65358,-62.3
 L 1.62411,-62.3632 L 1.60606,-62.4305 L 1.59999,-62.5 L 1.60606,-62.5695 L 1.62411,-62.6368 L 1.65358,-62.7
 L 1.69357,-62.7571 L 1.74287,-62.8064 L 1.79999,-62.8464 L 1.86319,-62.8759 L 1.93053,-62.8939 L 2,-62.9
 L 2.06946,-62.8939 L 2.1368,-62.8759 L 2.2,-62.8464 L 2.25711,-62.8064 L 2.30641,-62.7571 L 2.34641,-62.7
 L 2.37587,-62.6368 L 2.39392,-62.5695 L 2.39999,-62.5 L 2.39392,-62.4305 L 2.37587,-62.3632 L 2.34641,-62.3
 L 2.30641,-62.2429 L 2.25711,-62.1936 L 2.2,-62.1536 L 2.1368,-62.1241 L 2.06946,-62.1061 L 2,-62.1
 z
M 1.93053,-59.1061 L 1.86319,-59.1241 L 1.79999,-59.1536 L 1.74287,-59.1936 L 1.69357,-59.2429 L 1.65358,-59.3
 L 1.62411,-59.3632 L 1.60606,-59.4305 L 1.59999,-59.5 L 1.60606,-59.5695 L 1.62411,-59.6368 L 1.65358,-59.7
 L 1.69357,-59.7571 L 1.74287,-59.8064 L 1.79999,-59.8464 L 1.86319,-59.8759 L 1.93053,-59.8939 L 2,-59.9
 L 2.06946,-59.8939 L 2.1368,-59.8759 L 2.2,-59.8464 L 2.25711,-59.8064 L 2.30641,-59.7571 L 2.34641,-59.7
 L 2.37587,-59.6368 L 2.39392,-59.5695 L 2.39999,-59.5 L 2.39392,-59.4305 L 2.37587,-59.3632 L 2.34641,-59.3
 L 2.30641,-59.2429 L 2.25711,-59.1936 L 2.2,-59.1536 L 2.1368,-59.1241 L 2.06946,-59.1061 L 2,-59.1
 z
M 1.93053,-55.6061 L 1.86319,-55.6241 L 1.79999,-55.6536 L 1.74287,-55.6936 L 1.69357,-55.7429 L 1.65358,-55.8
 L 1.62411,-55.8632 L 1.60606,-55.9305 L 1.59999,-56 L 1.60606,-56.0695 L 1.62411,-56.1368 L 1.65358,-56.2
 L 1.69357,-56.2571 L 1.74287,-56.3064 L 1.79999,-56.3464 L 1.86319,-56.3759 L 1.93053,-56.3939 L 2,-56.4
 L 2.06946,-56.3939 L 2.1368,-56.3759 L 2.2,-56.3464 L 2.25711,-56.3064 L 2.30641,-56.2571 L 2.34641,-56.2
 L 2.37587,-56.1368 L 2.39392,-56.0695 L 2.39999,-56 L 2.39392,-55.9305 L 2.37587,-55.8632 L 2.34641,-55.8
 L 2.30641,-55.7429 L 2.25711,-55.6936 L 2.2,-55.6536 L 2.1368,-55.6241 L 2.06946,-55.6061 L 2,-55.6
 z
M 1.93053,-45.6061 L 1.86319,-45.6241 L 1.79999,-45.6536 L 1.74287,-45.6936 L 1.69357,-45.7429 L 1.65358,-45.8
 L 1.62411,-45.8632 L 1.60606,-45.9305 L 1.59999,-46 L 1.60606,-46.0695 L 1.62411,-46.1368 L 1.65358,-46.2
 L 1.69357,-46.2571 L 1.74287,-46.3064 L 1.79999,-46.3464 L 1.86319,-46.3759 L 1.93053,-46.3939 L 2,-46.4
 L 2.06946,-46.3939 L 2.1368,-46.3759 L 2.2,-46.3464 L 2.25711,-46.3064 L 2.30641,-46.2571 L 2.34641,-46.2
 L 2.37587,-46.1368 L 2.39392,-46.0695 L 2.39999,-46 L 2.39392,-45.9305 L 2.37587,-45.8632 L 2.34641,-45.8
 L 2.30641,-45.7429 L 2.25711,-45.6936 L 2.2,-45.6536 L 2.1368,-45.6241 L 2.06946,-45.6061 L 2,-45.6
 z
M 1.93053,-42.3561 L 1.86319,-42.3741 L 1.79999,-42.4036 L 1.74287,-42.4436 L 1.69357,-42.4929 L 1.65358,-42.55
 L 1.62411,-42.6132 L 1.60606,-42.6805 L 1.59999,-42.75 L 1.60606,-42.8195 L 1.62411,-42.8868 L 1.65358,-42.95
 L 1.69357,-43.0071 L 1.74287,-43.0564 L 1.79999,-43.0964 L 1.86319,-43.1259 L 1.93053,-43.1439 L 2,-43.15
 L 2.06946,-43.1439 L 2.1368,-43.1259 L 2.2,-43.0964 L 2.25711,-43.0564 L 2.30641,-43.0071 L 2.34641,-42.95
 L 2.37587,-42.8868 L 2.39392,-42.8195 L 2.39999,-42.75 L 2.39392,-42.6805 L 2.37587,-42.6132 L 2.34641,-42.55
 L 2.30641,-42.4929 L 2.25711,-42.4436 L 2.2,-42.4036 L 2.1368,-42.3741 L 2.06946,-42.3561 L 2,-42.35
 z
M 1.93053,-29.8561 L 1.86319,-29.8741 L 1.79999,-29.9036 L 1.74287,-29.9436 L 1.69357,-29.9929 L 1.65358,-30.05
 L 1.62411,-30.1132 L 1.60606,-30.1805 L 1.59999,-30.25 L 1.60606,-30.3195 L 1.62411,-30.3868 L 1.65358,-30.45
 L 1.69357,-30.5071 L 1.74287,-30.5564 L 1.79999,-30.5964 L 1.86319,-30.6259 L 1.93053,-30.6439 L 2,-30.65
 L 2.06946,-30.6439 L 2.1368,-30.6259 L 2.2,-30.5964 L 2.25711,-30.5564 L 2.30641,-30.5071 L 2.34641,-30.45
 L 2.37587,-30.3868 L 2.39392,-30.3195 L 2.39999,-30.25 L 2.39392,-30.1805 L 2.37587,-30.1132 L 2.34641,-30.05
 L 2.30641,-29.9929 L 2.25711,-29.9436 L 2.2,-29.9036 L 2.1368,-29.8741 L 2.06946,-29.8561 L 2,-29.85
 z
M 1.93053,-3.60606 L 1.86319,-3.62411 L 1.79999,-3.65358 L 1.74287,-3.69357 L 1.69357,-3.74287 L 1.65358,-3.79999
 L 1.62411,-3.86319 L 1.60606,-3.93053 L 1.59999,-4 L 1.60606,-4.06946 L 1.62411,-4.1368 L 1.65358,-4.2
 L 1.69357,-4.25711 L 1.74287,-4.30641 L 1.79999,-4.34641 L 1.86319,-4.37587 L 1.93053,-4.39392 L 2,-4.39999
 L 2.06946,-4.39392 L 2.1368,-4.37587 L 2.2,-4.34641 L 2.25711,-4.30641 L 2.30641,-4.25711 L 2.34641,-4.2
 L 2.37587,-4.1368 L 2.39392,-4.06946 L 2.39999,-4 L 2.39392,-3.93053 L 2.37587,-3.86319 L 2.34641,-3.79999
 L 2.30641,-3.74287 L 2.25711,-3.69357 L 2.2,-3.65358 L 2.1368,-3.62411 L 2.06946,-3.60606 L 2,-3.59999
 z
M 1.93053,-1.60606 L 1.86319,-1.62411 L 1.79999,-1.65358 L 1.74287,-1.69357 L 1.69357,-1.74287 L 1.65358,-1.79999
 L 1.62411,-1.86319 L 1.60606,-1.93053 L 1.59999,-2 L 1.60606,-2.06946 L 1.62411,-2.1368 L 1.65358,-2.2
 L 1.69357,-2.25711 L 1.74287,-2.30641 L 1.79999,-2.34641 L 1.86319,-2.37587 L 1.93053,-2.39392 L 2,-2.39999
 L 2.06946,-2.39392 L 2.1368,-2.37587 L 2.2,-2.34641 L 2.25711,-2.30641 L 2.30641,-2.25711 L 2.34641,-2.2
 L 2.37587,-2.1368 L 2.39392,-2.06946 L 2.39999,-2 L 2.39392,-1.93053 L 2.37587,-1.86319 L 2.34641,-1.79999
 L 2.30641,-1.74287 L 2.25711,-1.69357 L 2.2,-1.65358 L 2.1368,-1.62411 L 2.06946,-1.60606 L 2,-1.59999
 z
" stroke="black" fill="lightgray" stroke-width="0.5"/>
</svg>
