<?xml version="1.0" standalone="no"?>
<!DOCTYPE svg PUBLIC "-//W3C//DTD SVG 1.1//EN" "http://www.w3.org/Graphics/SVG/1.1/DTD/svg11.dtd">
<svg width="6mm" height="78mm" viewBox="0 -78 6 78" xmlns="http://www.w3.org/2000/svg" version="1.1">
<title>OpenSCAD Model</title>
<path d="
M 6,-6.4427 L 5.375,-6.4427 L 5.375,-6.5677 L 5.5,-6.5677 L 5.5,-7.0677 L 5.375,-7.0677
 L 5.375,-12.3854 L 5.5,-12.3854 L 5.5,-12.8854 L 5.375,-12.8854 L 5.375,-13.0104 L 6,-13.0104
 L 6,-19.4531 L 5.375,-19.4531 L 5.375,-19.5781 L 5.5,-19.5781 L 5.5,-20.0781 L 5.375,-20.0781
 L 5.375,-25.3958 L 5.5,-25.3958 L 5.5,-25.8958 L 5.375,-25.8958 L 5.375,-26.0208 L 6,-26.0208
 L 6,-32.4635 L 5.375,-32.4635 L 5.375,-32.5885 L 5.5,-32.5885 L 5.5,-33.0885 L 5.375,-33.0885
 L 5.375,-38.4062 L 5.5,-38.4062 L 5.5,-38.9062 L 5.375,-38.9062 L 5.375,-39.0312 L 6,-39.0312
 L 6,-45.474 L 5.375,-45.474 L 5.375,-45.599 L 5.5,-45.599 L 5.5,-46.099 L 5.375,-46.099
 L 5.375,-51.4167 L 5.5,-51.4167 L 5.5,-51.9167 L 5.375,-51.9167 L 5.375,-52.0417 L 6,-52.0417
 L 6,-58.4844 L 5.375,-58.4844 L 5.375,-58.6094 L 5.5,-58.6094 L 5.5,-59.1094 L 5.375,-59.1094
 L 5.375,-64.4271 L 5.5,-64.4271 L 5.5,-64.9271 L 5.375,-64.9271 L 5.375,-65.0521 L 6,-65.0521
 L 6,-71.4948 L 5.375,-71.4948 L 5.375,-71.6198 L 5.5,-71.6198 L 5.5,-72.1198 L 5.375,-72.1198
 L 5.375,-77.4375 L 5.5,-77.4375 L 5.5,-77.9375 L 5.375,-77.9375 L 5.375,-78 L 0,-78
 L 0,-77.3438 L 0.5625,-77.3438 L 0.5625,-77.4688 L 0.8125,-77.4688 L 0.8125,-77.2188 L 0.6875,-77.2188
 L 0.6875,-76.7812 L 0.8125,-76.7812 L 0.8125,-76.5312 L 0.5625,-76.5312 L 0.5625,-76.6562 L 0,-76.6562
 L 0,-51.3438 L 0.5625,-51.3438 L 0.5625,-51.4688 L 0.8125,-51.4688 L 0.8125,-51.2188 L 0.6875,-51.2188
 L 0.6875,-50.7812 L 0.8125,-50.7812 L 0.8125,-50.5312 L 0.5625,-50.5312 L 0.5625,-50.6562 L 0,-50.6562
 L 0,-1.34375 L 0.5625,-1.34375 L 0.5625,-1.46875 L 0.8125,-1.46875 L 0.8125,-1.21875 L 0.6875,-1.21875
 L 0.6875,-0.78125 L 0.8125,-0.78125 L 0.8125,-0.53125 L 0.5625,-0.53125 L 0.5625,-0.65625 L 0,-0.65625
 L 0,-0 L 6,-0 z
" stroke="black" fill="lightgray" stroke-width="0.5"/>
</svg>
