<?xml version="1.0" standalone="no"?>
<!DOCTYPE svg PUBLIC "-//W3C//DTD SVG 1.1//EN" "http://www.w3.org/Graphics/SVG/1.1/DTD/svg11.dtd">
<svg width="4mm" height="72mm" viewBox="0 -72 4 72" xmlns="http://www.w3.org/2000/svg" version="1.1">
<title>OpenSCAD Model</title>
<path d="
M 4,-5.9427 L 3.375,-5.9427 L 3.375,-6.0677 L 3.5,-6.0677 L 3.5,-6.5677 L 3.375,-6.5677
 L 3.375,-11.3854 L 3.5,-11.3854 L 3.5,-11.8854 L 3.375,-11.8854 L 3.375,-12.0104 L 4,-12.0104
 L 4,-17.9531 L 3.375,-17.9531 L 3.375,-18.0781 L 3.5,-18.0781 L 3.5,-18.5781 L 3.375,-18.5781
 L 3.375,-23.3958 L 3.5,-23.3958 L 3.5,-23.8958 L 3.375,-23.8958 L 3.375,-24.0208 L 4,-24.0208
 L 4,-29.9635 L 3.375,-29.9635 L 3.375,-30.0885 L 3.5,-30.0885 L 3.5,-30.5885 L 3.375,-30.5885
 L 3.375,-35.4062 L 3.5,-35.4062 L 3.5,-35.9062 L 3.375,-35.9062 L 3.375,-36.0312 L 4,-36.0312
 L 4,-41.974 L 3.375,-41.974 L 3.375,-42.099 L 3.5,-42.099 L 3.5,-42.599 L 3.375,-42.599
 L 3.375,-47.4167 L 3.5,-47.4167 L 3.5,-47.9167 L 3.375,-47.9167 L 3.375,-48.0417 L 4,-48.0417
 L 4,-53.9844 L 3.375,-53.9844 L 3.375,-54.1094 L 3.5,-54.1094 L 3.5,-54.6094 L 3.375,-54.6094
 L 3.375,-59.4271 L 3.5,-59.4271 L 3.5,-59.9271 L 3.375,-59.9271 L 3.375,-60.0521 L 4,-60.0521
 L 4,-65.9948 L 3.375,-65.9948 L 3.375,-66.1198 L 3.5,-66.1198 L 3.5,-66.6198 L 3.375,-66.6198
 L 3.375,-71.4375 L 3.5,-71.4375 L 3.5,-71.9375 L 3.375,-71.9375 L 3.375,-72 L 0,-72
 L 0,-0 L 4,-0 z
" stroke="black" fill="lightgray" stroke-width="0.5"/>
</svg>
