<?xml version="1.0" standalone="no"?>
<!DOCTYPE svg PUBLIC "-//W3C//DTD SVG 1.1//EN" "http://www.w3.org/Graphics/SVG/1.1/DTD/svg11.dtd">
<svg width="6mm" height="72mm" viewBox="0 -72 6 72" xmlns="http://www.w3.org/2000/svg" version="1.1">
<title>OpenSCAD Model</title>
<path d="
M 5.375,-0.0625 L 5.5,-0.0625 L 5.5,-0.5625 L 5.375,-0.5625 L 5.375,-5.3802 L 5.5,-5.3802
 L 5.5,-5.8802 L 5.375,-5.8802 L 5.375,-6.0052 L 6,-6.0052 L 6,-11.9479 L 5.375,-11.9479
 L 5.375,-12.0729 L 5.5,-12.0729 L 5.5,-12.5729 L 5.375,-12.5729 L 5.375,-17.3906 L 5.5,-17.3906
 L 5.5,-17.8906 L 5.375,-17.8906 L 5.375,-18.0156 L 6,-18.0156 L 6,-23.9583 L 5.375,-23.9583
 L 5.375,-24.0833 L 5.5,-24.0833 L 5.5,-24.5833 L 5.375,-24.5833 L 5.375,-29.401 L 5.5,-29.401
 L 5.5,-29.901 L 5.375,-29.901 L 5.375,-30.026 L 6,-30.026 L 6,-35.9688 L 5.375,-35.9688
 L 5.375,-36.0938 L 5.5,-36.0938 L 5.5,-36.5938 L 5.375,-36.5938 L 5.375,-41.4115 L 5.5,-41.4115
 L 5.5,-41.9115 L 5.375,-41.9115 L 5.375,-42.0365 L 6,-42.0365 L 6,-47.9792 L 5.375,-47.9792
 L 5.375,-48.1042 L 5.5,-48.1042 L 5.5,-48.6042 L 5.375,-48.6042 L 5.375,-53.4219 L 5.5,-53.4219
 L 5.5,-53.9219 L 5.375,-53.9219 L 5.375,-54.0469 L 6,-54.0469 L 6,-59.9896 L 5.375,-59.9896
 L 5.375,-60.1146 L 5.5,-60.1146 L 5.5,-60.6146 L 5.375,-60.6146 L 5.375,-65.4323 L 5.5,-65.4323
 L 5.5,-65.9323 L 5.375,-65.9323 L 5.375,-66.0573 L 6,-66.0573 L 6,-72 L 0,-72
 L 0,-0 L 5.375,-0 z
" stroke="black" fill="lightgray" stroke-width="0.5"/>
</svg>
