<?xml version="1.0" standalone="no"?>
<!DOCTYPE svg PUBLIC "-//W3C//DTD SVG 1.1//EN" "http://www.w3.org/Graphics/SVG/1.1/DTD/svg11.dtd">
<svg width="18mm" height="3mm" viewBox="0 -3 18 3" xmlns="http://www.w3.org/2000/svg" version="1.1">
<title>OpenSCAD Model</title>
<path d="
M 18,-3 L 0,-3 L 0,-0 L 18,-0 z
M 9.32327,-1.94495 L 9.44495,-1.82327 L 9.52307,-1.66995 L 9.54999,-1.5 L 9.52307,-1.33003 L 9.44495,-1.17671
 L 9.32327,-1.05504 L 9.16995,-0.976913 L 9,-0.949997 L 8.83003,-0.976913 L 8.67671,-1.05504 L 8.55504,-1.17671
 L 8.47691,-1.33003 L 8.45,-1.5 L 8.47691,-1.66995 L 8.55504,-1.82327 L 8.67671,-1.94495 L 8.83003,-2.02307
 L 9,-2.04999 L 9.16995,-2.02307 z
M 0.830032,-0.976913 L 0.676712,-1.05504 L 0.555038,-1.17671 L 0.476913,-1.33003 L 0.449997,-1.5 L 0.476913,-1.66995
 L 0.555038,-1.82327 L 0.676712,-1.94495 L 0.830032,-2.02307 L 1,-2.04999 L 1.16995,-2.02307 L 1.32327,-1.94495
 L 1.44495,-1.82327 L 1.52307,-1.66995 L 1.54999,-1.5 L 1.52307,-1.33003 L 1.44495,-1.17671 L 1.32327,-1.05504
 L 1.16995,-0.976913 L 1,-0.949997 z
M 16.83,-0.976913 L 16.6767,-1.05504 L 16.555,-1.17671 L 16.4769,-1.33003 L 16.45,-1.5 L 16.4769,-1.66995
 L 16.555,-1.82327 L 16.6767,-1.94495 L 16.83,-2.02307 L 17,-2.04999 L 17.17,-2.02307 L 17.3233,-1.94495
 L 17.4449,-1.82327 L 17.5231,-1.66995 L 17.55,-1.5 L 17.5231,-1.33003 L 17.4449,-1.17671 L 17.3233,-1.05504
 L 17.17,-0.976913 L 17,-0.949997 z
M 3.83003,-0.976913 L 3.67671,-1.05504 L 3.55504,-1.17671 L 3.47691,-1.33003 L 3.45,-1.5 L 3.47691,-1.66995
 L 3.55504,-1.82327 L 3.67671,-1.94495 L 3.83003,-2.02307 L 4,-2.04999 L 4.16995,-2.02307 L 4.32327,-1.94495
 L 4.44495,-1.82327 L 4.52307,-1.66995 L 4.54999,-1.5 L 4.52307,-1.33003 L 4.44495,-1.17671 L 4.32327,-1.05504
 L 4.16995,-0.976913 L 4,-0.949997 z
M 13.83,-0.976913 L 13.6767,-1.05504 L 13.555,-1.17671 L 13.4769,-1.33003 L 13.45,-1.5 L 13.4769,-1.66995
 L 13.555,-1.82327 L 13.6767,-1.94495 L 13.83,-2.02307 L 14,-2.04999 L 14.17,-2.02307 L 14.3233,-1.94495
 L 14.4449,-1.82327 L 14.5231,-1.66995 L 14.55,-1.5 L 14.5231,-1.33003 L 14.4449,-1.17671 L 14.3233,-1.05504
 L 14.17,-0.976913 L 14,-0.949997 z
" stroke="black" fill="lightgray" stroke-width="0.5"/>
</svg>
