<?xml version="1.0" standalone="no"?>
<!DOCTYPE svg PUBLIC "-//W3C//DTD SVG 1.1//EN" "http://www.w3.org/Graphics/SVG/1.1/DTD/svg11.dtd">
<svg width="5mm" height="4mm" viewBox="0 -4 5 4" xmlns="http://www.w3.org/2000/svg" version="1.1">
<title>OpenSCAD Model</title>
<path d="
M 4.75,-4 L 0,-4 L 0,-0 L 4.75,-0 z
M 0.913162,-2.50758 L 0.828979,-2.53015 L 0.75,-2.56699 L 0.678604,-2.61697 L 0.616974,-2.6786 L 0.566986,-2.75
 L 0.530151,-2.82898 L 0.507584,-2.91316 L 0.5,-3 L 0.507584,-3.08682 L 0.530151,-3.17101 L 0.566986,-3.25
 L 0.616974,-3.32138 L 0.678604,-3.38301 L 0.75,-3.433 L 0.828979,-3.46983 L 0.913162,-3.4924 L 1,-3.5
 L 1.08682,-3.4924 L 1.17101,-3.46983 L 1.25,-3.433 L 1.32138,-3.38301 L 1.38301,-3.32138 L 1.433,-3.25
 L 1.46983,-3.17101 L 1.4924,-3.08682 L 1.5,-3 L 1.4924,-2.91316 L 1.46983,-2.82898 L 1.433,-2.75
 L 1.38301,-2.6786 L 1.32138,-2.61697 L 1.25,-2.56699 L 1.17101,-2.53015 L 1.08682,-2.50758 L 1,-2.5
 z
M 3.68488,-2.63069 L 3.62173,-2.64761 L 3.5625,-2.67523 L 3.50894,-2.71272 L 3.46272,-2.75894 L 3.42523,-2.8125
 L 3.39761,-2.87173 L 3.38069,-2.93488 L 3.375,-3 L 3.38069,-3.06511 L 3.39761,-3.12825 L 3.42523,-3.1875
 L 3.46272,-3.24104 L 3.50894,-3.28726 L 3.5625,-3.32475 L 3.62173,-3.35237 L 3.68488,-3.36929 L 3.75,-3.375
 L 3.81511,-3.36929 L 3.87825,-3.35237 L 3.9375,-3.32475 L 3.99104,-3.28726 L 4.03726,-3.24104 L 4.07475,-3.1875
 L 4.10237,-3.12825 L 4.11929,-3.06511 L 4.125,-3 L 4.11929,-2.93488 L 4.10237,-2.87173 L 4.07475,-2.8125
 L 4.03726,-2.75894 L 3.99104,-2.71272 L 3.9375,-2.67523 L 3.87825,-2.64761 L 3.81511,-2.63069 L 3.75,-2.625
 z
M 0.913162,-0.507584 L 0.828979,-0.530151 L 0.75,-0.566986 L 0.678604,-0.616974 L 0.616974,-0.678604 L 0.566986,-0.75
 L 0.530151,-0.828979 L 0.507584,-0.913162 L 0.5,-1 L 0.507584,-1.08682 L 0.530151,-1.17101 L 0.566986,-1.25
 L 0.616974,-1.32138 L 0.678604,-1.38301 L 0.75,-1.433 L 0.828979,-1.46983 L 0.913162,-1.4924 L 1,-1.5
 L 1.08682,-1.4924 L 1.17101,-1.46983 L 1.25,-1.433 L 1.32138,-1.38301 L 1.38301,-1.32138 L 1.433,-1.25
 L 1.46983,-1.17101 L 1.4924,-1.08682 L 1.5,-1 L 1.4924,-0.913162 L 1.46983,-0.828979 L 1.433,-0.75
 L 1.38301,-0.678604 L 1.32138,-0.616974 L 1.25,-0.566986 L 1.17101,-0.530151 L 1.08682,-0.507584 L 1,-0.5
 z
M 3.68488,-0.630692 L 3.62173,-0.647614 L 3.5625,-0.675232 L 3.50894,-0.712723 L 3.46272,-0.758942 L 3.42523,-0.8125
 L 3.39761,-0.871735 L 3.38069,-0.934875 L 3.375,-1 L 3.38069,-1.06511 L 3.39761,-1.12825 L 3.42523,-1.1875
 L 3.46272,-1.24104 L 3.50894,-1.28726 L 3.5625,-1.32475 L 3.62173,-1.35237 L 3.68488,-1.36929 L 3.75,-1.375
 L 3.81511,-1.36929 L 3.87825,-1.35237 L 3.9375,-1.32475 L 3.99104,-1.28726 L 4.03726,-1.24104 L 4.07475,-1.1875
 L 4.10237,-1.12825 L 4.11929,-1.06511 L 4.125,-1 L 4.11929,-0.934875 L 4.10237,-0.871735 L 4.07475,-0.8125
 L 4.03726,-0.758942 L 3.99104,-0.712723 L 3.9375,-0.675232 L 3.87825,-0.647614 L 3.81511,-0.630692 L 3.75,-0.625
 z
" stroke="black" fill="lightgray" stroke-width="0.5"/>
</svg>
