<?xml version="1.0" standalone="no"?>
<!DOCTYPE svg PUBLIC "-//W3C//DTD SVG 1.1//EN" "http://www.w3.org/Graphics/SVG/1.1/DTD/svg11.dtd">
<svg width="26mm" height="5mm" viewBox="-13 -5 26 5" xmlns="http://www.w3.org/2000/svg" version="1.1">
<title>OpenSCAD Model</title>
<path d="
M 12.5,-5 L -12.5,-5 L -12.5,-0 L 12.5,-0 z
M 10.0324,-3.50758 L 9.94818,-3.53015 L 9.86919,-3.56699 L 9.79781,-3.61697 L 9.73618,-3.6786 L 9.68619,-3.75
 L 9.64935,-3.82898 L 9.62679,-3.91316 L 9.61919,-4 L 9.62679,-4.08682 L 9.64935,-4.17101 L 9.68619,-4.25
 L 9.73618,-4.32138 L 9.79781,-4.38301 L 9.86919,-4.433 L 9.94818,-4.46983 L 10.0324,-4.4924 L 10.1192,-4.5
 L 10.206,-4.4924 L 10.2902,-4.46983 L 10.3692,-4.433 L 10.4406,-4.38301 L 10.5022,-4.32138 L 10.5522,-4.25
 L 10.589,-4.17101 L 10.6116,-4.08682 L 10.6192,-4 L 10.6116,-3.91316 L 10.589,-3.82898 L 10.5522,-3.75
 L 10.5022,-3.6786 L 10.4406,-3.61697 L 10.3692,-3.56699 L 10.2902,-3.53015 L 10.206,-3.50758 L 10.1192,-3.5
 z
M -10.206,-3.50758 L -10.2902,-3.53015 L -10.3692,-3.56699 L -10.4406,-3.61697 L -10.5022,-3.6786 L -10.5522,-3.75
 L -10.589,-3.82898 L -10.6116,-3.91316 L -10.6192,-4 L -10.6116,-4.08682 L -10.589,-4.17101 L -10.5522,-4.25
 L -10.5022,-4.32138 L -10.4406,-4.38301 L -10.3692,-4.433 L -10.2902,-4.46983 L -10.206,-4.4924 L -10.1192,-4.5
 L -10.0324,-4.4924 L -9.94818,-4.46983 L -9.86919,-4.433 L -9.79781,-4.38301 L -9.73618,-4.32138 L -9.68619,-4.25
 L -9.64935,-4.17101 L -9.62679,-4.08682 L -9.61919,-4 L -9.62679,-3.91316 L -9.64935,-3.82898 L -9.68619,-3.75
 L -9.73618,-3.6786 L -9.79781,-3.61697 L -9.86919,-3.56699 L -9.94818,-3.53015 L -10.0324,-3.50758 L -10.1192,-3.5
 z
M -10.206,-1.50758 L -10.2902,-1.53015 L -10.3692,-1.56699 L -10.4406,-1.61697 L -10.5022,-1.6786 L -10.5522,-1.75
 L -10.589,-1.82898 L -10.6116,-1.91316 L -10.6192,-2 L -10.6116,-2.08682 L -10.589,-2.17101 L -10.5522,-2.25
 L -10.5022,-2.32138 L -10.4406,-2.38301 L -10.3692,-2.433 L -10.2902,-2.46983 L -10.206,-2.4924 L -10.1192,-2.5
 L -10.0324,-2.4924 L -9.94818,-2.46983 L -9.86919,-2.433 L -9.79781,-2.38301 L -9.73618,-2.32138 L -9.68619,-2.25
 L -9.64935,-2.17101 L -9.62679,-2.08682 L -9.61919,-2 L -9.62679,-1.91316 L -9.64935,-1.82898 L -9.68619,-1.75
 L -9.73618,-1.6786 L -9.79781,-1.61697 L -9.86919,-1.56699 L -9.94818,-1.53015 L -10.0324,-1.50758 L -10.1192,-1.5
 z
M 10.0324,-1.50758 L 9.94818,-1.53015 L 9.86919,-1.56699 L 9.79781,-1.61697 L 9.73618,-1.6786 L 9.68619,-1.75
 L 9.64935,-1.82898 L 9.62679,-1.91316 L 9.61919,-2 L 9.62679,-2.08682 L 9.64935,-2.17101 L 9.68619,-2.25
 L 9.73618,-2.32138 L 9.79781,-2.38301 L 9.86919,-2.433 L 9.94818,-2.46983 L 10.0324,-2.4924 L 10.1192,-2.5
 L 10.206,-2.4924 L 10.2902,-2.46983 L 10.3692,-2.433 L 10.4406,-2.38301 L 10.5022,-2.32138 L 10.5522,-2.25
 L 10.589,-2.17101 L 10.6116,-2.08682 L 10.6192,-2 L 10.6116,-1.91316 L 10.589,-1.82898 L 10.5522,-1.75
 L 10.5022,-1.6786 L 10.4406,-1.61697 L 10.3692,-1.56699 L 10.2902,-1.53015 L 10.206,-1.50758 L 10.1192,-1.5
 z
" stroke="black" fill="lightgray" stroke-width="0.5"/>
</svg>
