<?xml version="1.0" standalone="no"?>
<!DOCTYPE svg PUBLIC "-//W3C//DTD SVG 1.1//EN" "http://www.w3.org/Graphics/SVG/1.1/DTD/svg11.dtd">
<svg width="26mm" height="22mm" viewBox="-13 -22 26 22" xmlns="http://www.w3.org/2000/svg" version="1.1">
<title>OpenSCAD Model</title>
<path d="
M 12.5,-1.5 L 11.9688,-1.5 L 11.9688,-6.5 L 12.5,-6.5 L 12.5,-22 L 9.11919,-22
 L 9.11919,-16 L -9.11919,-16 L -9.11919,-22 L -12.5,-22 L -12.5,-6.5 L -11.9688,-6.5
 L -11.9688,-1.5 L -12.5,-1.5 L -12.5,-0 L 12.5,-0 z
M -10.206,-20.5076 L -10.2902,-20.5302 L -10.3692,-20.567 L -10.4406,-20.617 L -10.5022,-20.6786 L -10.5522,-20.75
 L -10.589,-20.829 L -10.6116,-20.9132 L -10.6192,-21 L -10.6116,-21.0868 L -10.589,-21.171 L -10.5522,-21.25
 L -10.5022,-21.3214 L -10.4406,-21.383 L -10.3692,-21.433 L -10.2902,-21.4698 L -10.206,-21.4924 L -10.1192,-21.5
 L -10.0324,-21.4924 L -9.94818,-21.4698 L -9.86919,-21.433 L -9.79781,-21.383 L -9.73618,-21.3214 L -9.68619,-21.25
 L -9.64935,-21.171 L -9.62679,-21.0868 L -9.61919,-21 L -9.62679,-20.9132 L -9.64935,-20.829 L -9.68619,-20.75
 L -9.73618,-20.6786 L -9.79781,-20.617 L -9.86919,-20.567 L -9.94818,-20.5302 L -10.0324,-20.5076 L -10.1192,-20.5
 z
M 10.0324,-20.5076 L 9.94818,-20.5302 L 9.86919,-20.567 L 9.79781,-20.617 L 9.73618,-20.6786 L 9.68619,-20.75
 L 9.64935,-20.829 L 9.62679,-20.9132 L 9.61919,-21 L 9.62679,-21.0868 L 9.64935,-21.171 L 9.68619,-21.25
 L 9.73618,-21.3214 L 9.79781,-21.383 L 9.86919,-21.433 L 9.94818,-21.4698 L 10.0324,-21.4924 L 10.1192,-21.5
 L 10.206,-21.4924 L 10.2902,-21.4698 L 10.3692,-21.433 L 10.4406,-21.383 L 10.5022,-21.3214 L 10.5522,-21.25
 L 10.589,-21.171 L 10.6116,-21.0868 L 10.6192,-21 L 10.6116,-20.9132 L 10.589,-20.829 L 10.5522,-20.75
 L 10.5022,-20.6786 L 10.4406,-20.617 L 10.3692,-20.567 L 10.2902,-20.5302 L 10.206,-20.5076 L 10.1192,-20.5
 z
M -10.206,-18.5076 L -10.2902,-18.5302 L -10.3692,-18.567 L -10.4406,-18.617 L -10.5022,-18.6786 L -10.5522,-18.75
 L -10.589,-18.829 L -10.6116,-18.9132 L -10.6192,-19 L -10.6116,-19.0868 L -10.589,-19.171 L -10.5522,-19.25
 L -10.5022,-19.3214 L -10.4406,-19.383 L -10.3692,-19.433 L -10.2902,-19.4698 L -10.206,-19.4924 L -10.1192,-19.5
 L -10.0324,-19.4924 L -9.94818,-19.4698 L -9.86919,-19.433 L -9.79781,-19.383 L -9.73618,-19.3214 L -9.68619,-19.25
 L -9.64935,-19.171 L -9.62679,-19.0868 L -9.61919,-19 L -9.62679,-18.9132 L -9.64935,-18.829 L -9.68619,-18.75
 L -9.73618,-18.6786 L -9.79781,-18.617 L -9.86919,-18.567 L -9.94818,-18.5302 L -10.0324,-18.5076 L -10.1192,-18.5
 z
M 10.0324,-18.5076 L 9.94818,-18.5302 L 9.86919,-18.567 L 9.79781,-18.617 L 9.73618,-18.6786 L 9.68619,-18.75
 L 9.64935,-18.829 L 9.62679,-18.9132 L 9.61919,-19 L 9.62679,-19.0868 L 9.64935,-19.171 L 9.68619,-19.25
 L 9.73618,-19.3214 L 9.79781,-19.383 L 9.86919,-19.433 L 9.94818,-19.4698 L 10.0324,-19.4924 L 10.1192,-19.5
 L 10.206,-19.4924 L 10.2902,-19.4698 L 10.3692,-19.433 L 10.4406,-19.383 L 10.5022,-19.3214 L 10.5522,-19.25
 L 10.589,-19.171 L 10.6116,-19.0868 L 10.6192,-19 L 10.6116,-18.9132 L 10.589,-18.829 L 10.5522,-18.75
 L 10.5022,-18.6786 L 10.4406,-18.617 L 10.3692,-18.567 L 10.2902,-18.5302 L 10.206,-18.5076 L 10.1192,-18.5
 z
" stroke="black" fill="lightgray" stroke-width="0.5"/>
</svg>
