<?xml version="1.0" standalone="no"?>
<!DOCTYPE svg PUBLIC "-//W3C//DTD SVG 1.1//EN" "http://www.w3.org/Graphics/SVG/1.1/DTD/svg11.dtd">
<svg width="19mm" height="6mm" viewBox="0 -6 19 6" xmlns="http://www.w3.org/2000/svg" version="1.1">
<title>OpenSCAD Model</title>
<path d="
M 4.21875,-0.40625 L 4.09375,-0.40625 L 4.09375,-0.65625 L 4.34375,-0.65625 L 4.34375,-0.53125 L 4.96875,-0.53125
 L 4.96875,-0.90625 L 4.84375,-0.90625 L 4.84375,-1.15625 L 5.09375,-1.15625 L 5.09375,-1.03125 L 5.40625,-1.03125
 L 5.40625,-1.15625 L 5.65625,-1.15625 L 5.65625,-0.53125 L 5.53125,-0.53125 L 5.53125,-0 L 11.4688,-0
 L 11.4688,-0.40625 L 11.3438,-0.40625 L 11.3438,-0.90625 L 11.5938,-0.90625 L 11.5938,-0.78125 L 11.9062,-0.78125
 L 11.9062,-0.90625 L 12.1562,-0.90625 L 12.1562,-0.65625 L 12.0312,-0.65625 L 12.0312,-0.53125 L 12.4062,-0.53125
 L 12.4062,-0.65625 L 12.6562,-0.65625 L 12.6562,-0.28125 L 12.5312,-0.28125 L 12.5312,-0 L 17.4688,-0
 L 17.4688,-0.40625 L 17.3438,-0.40625 L 17.3438,-0.65625 L 17.5938,-0.65625 L 17.5938,-0.53125 L 17.9688,-0.53125
 L 17.9688,-0.65625 L 17.8438,-0.65625 L 17.8438,-0.90625 L 18.0938,-0.90625 L 18.0938,-0.78125 L 18.5,-0.78125
 L 18.5,-4.71875 L 18.0938,-4.71875 L 18.0938,-4.59375 L 17.8438,-4.59375 L 17.8438,-5.09375 L 17.9688,-5.09375
 L 17.9688,-6 L 13.0312,-6 L 13.0312,-5.59375 L 13.1562,-5.59375 L 13.1562,-5.34375 L 12.5312,-5.34375
 L 12.5312,-5.46875 L 12.0312,-5.46875 L 12.0312,-4.96875 L 12.1562,-4.96875 L 12.1562,-4.59375 L 11.9062,-4.59375
 L 11.9062,-4.71875 L 11.5938,-4.71875 L 11.5938,-4.59375 L 11.3438,-4.59375 L 11.3438,-4.96875 L 11.4688,-4.96875
 L 11.4688,-6 L 5.53125,-6 L 5.53125,-5.59375 L 5.65625,-5.59375 L 5.65625,-5.34375 L 5.40625,-5.34375
 L 5.40625,-5.46875 L 5.09375,-5.46875 L 5.09375,-5.34375 L 4.84375,-5.34375 L 4.84375,-5.59375 L 4.96875,-5.59375
 L 4.96875,-6 L 2.03125,-6 L 2.03125,-5.59375 L 2.15625,-5.59375 L 2.15625,-5.34375 L 1.90625,-5.34375
 L 1.90625,-5.46875 L 0,-5.46875 L 0,-0.53125 L 0.65625,-0.53125 L 0.65625,-0.65625 L 0.90625,-0.65625
 L 0.90625,-0.40625 L 0.78125,-0.40625 L 0.78125,-0 L 4.21875,-0 z
M 3.23952,-0.772781 L 2.98697,-0.840454 L 2.75,-0.950958 L 2.53581,-1.10092 L 2.35092,-1.28581 L 2.20096,-1.5
 L 2.09045,-1.73697 L 2.02278,-1.98952 L 2,-2.25 L 2.02278,-2.51047 L 2.09045,-2.76302 L 2.20096,-3
 L 2.35092,-3.21417 L 2.53581,-3.39906 L 2.75,-3.54903 L 2.98697,-3.65953 L 3.23952,-3.7272 L 3.5,-3.75
 L 3.76047,-3.7272 L 4.01302,-3.65953 L 4.25,-3.54903 L 4.46417,-3.39906 L 4.64906,-3.21417 L 4.79903,-3
 L 4.90953,-2.76302 L 4.9772,-2.51047 L 5,-2.25 L 4.9772,-1.98952 L 4.90953,-1.73697 L 4.79903,-1.5
 L 4.64906,-1.28581 L 4.46417,-1.10092 L 4.25,-0.950958 L 4.01302,-0.840454 L 3.76047,-0.772781 L 3.5,-0.75
 z
" stroke="black" fill="lightgray" stroke-width="0.5"/>
</svg>
