<?xml version="1.0" standalone="no"?>
<!DOCTYPE svg PUBLIC "-//W3C//DTD SVG 1.1//EN" "http://www.w3.org/Graphics/SVG/1.1/DTD/svg11.dtd">
<svg width="26mm" height="6mm" viewBox="-13 -6 26 6" xmlns="http://www.w3.org/2000/svg" version="1.1">
<title>OpenSCAD Model</title>
<path d="
M -6.28125,-0.25 L -6.375,-0.25 L -6.375,-0.875 L -6.125,-0.875 L -6.125,-0.78125 L -5.875,-0.78125
 L -5.875,-0.875 L -5.625,-0.875 L -5.625,-0.25 L -5.71875,-0.25 L -5.71875,-0 L -0.28125,-0
 L -0.28125,-0.25 L -0.375,-0.25 L -0.375,-0.875 L -0.125,-0.875 L -0.125,-0.78125 L 0.125,-0.78125
 L 0.125,-0.875 L 0.375,-0.875 L 0.375,-0.25 L 0.28125,-0.25 L 0.28125,-0 L 5.71875,-0
 L 5.71875,-0.25 L 5.625,-0.25 L 5.625,-0.875 L 5.875,-0.875 L 5.875,-0.78125 L 6.125,-0.78125
 L 6.125,-0.875 L 6.375,-0.875 L 6.375,-0.25 L 6.28125,-0.25 L 6.28125,-0 L 12.5,-0
 L 12.5,-0.75 L 11.875,-0.75 L 11.875,-0.875 L 12,-0.875 L 12,-1.125 L 11.875,-1.125
 L 11.875,-4.375 L 12,-4.375 L 12,-4.625 L 11.875,-4.625 L 11.875,-4.75 L 12.5,-4.75
 L 12.5,-5.5 L -12.5,-5.5 L -12.5,-4.75 L -11.875,-4.75 L -11.875,-4.625 L -12,-4.625
 L -12,-4.375 L -11.875,-4.375 L -11.875,-1.125 L -12,-1.125 L -12,-0.875 L -11.875,-0.875
 L -11.875,-0.75 L -12.5,-0.75 L -12.5,-0 L -6.28125,-0 z
M 5.875,-5.125 L 5.875,-5.03125 L 6.125,-5.03125 L 6.125,-5.125 L 6.375,-5.125 L 6.375,-4.75
 L 6.28125,-4.75 L 6.28125,-4.5 L 6.375,-4.5 L 6.375,-4.125 L 6.125,-4.125 L 6.125,-4.21875
 L 5.875,-4.21875 L 5.875,-4.125 L 5.625,-4.125 L 5.625,-4.5 L 5.71875,-4.5 L 5.71875,-4.75
 L 5.625,-4.75 L 5.625,-5.125 z
M -5.71875,-4.5 L -5.625,-4.5 L -5.625,-4.125 L -5.875,-4.125 L -5.875,-4.21875 L -6.125,-4.21875
 L -6.125,-4.125 L -6.375,-4.125 L -6.375,-4.5 L -6.28125,-4.5 L -6.28125,-4.75 L -6.375,-4.75
 L -6.375,-5.125 L -6.125,-5.125 L -6.125,-5.03125 L -5.875,-5.03125 L -5.875,-5.125 L -5.625,-5.125
 L -5.625,-4.75 L -5.71875,-4.75 z
M -0.125,-5.125 L -0.125,-5.03125 L 0.125,-5.03125 L 0.125,-5.125 L 0.375,-5.125 L 0.375,-4.75
 L 0.28125,-4.75 L 0.28125,-4.5 L 0.375,-4.5 L 0.375,-4.125 L 0.125,-4.125 L 0.125,-4.21875
 L -0.125,-4.21875 L -0.125,-4.125 L -0.375,-4.125 L -0.375,-4.5 L -0.28125,-4.5 L -0.28125,-4.75
 L -0.375,-4.75 L -0.375,-5.125 z
" stroke="black" fill="lightgray" stroke-width="0.5"/>
</svg>
