<?xml version="1.0" standalone="no"?>
<!DOCTYPE svg PUBLIC "-//W3C//DTD SVG 1.1//EN" "http://www.w3.org/Graphics/SVG/1.1/DTD/svg11.dtd">
<svg width="26mm" height="6mm" viewBox="-13 -6 26 6" xmlns="http://www.w3.org/2000/svg" version="1.1">
<title>OpenSCAD Model</title>
<path d="
M -11.5,-0.125 L -0.5,-0.125 L -0.5,-0 L 0.5,-0 L 0.5,-0.125 L 11.5,-0.125
 L 11.5,-0 L 12.5,-0 L 12.5,-0.5 L 11.875,-0.5 L 11.875,-0.625 L 12,-0.625
 L 12,-0.875 L 11.875,-0.875 L 11.875,-5.125 L 12,-5.125 L 12,-5.375 L 11.875,-5.375
 L 11.875,-5.5 L 12.5,-5.5 L 12.5,-6 L 11.5,-6 L 11.5,-5.875 L 0.5,-5.875
 L 0.5,-6 L -0.5,-6 L -0.5,-5.875 L -11.5,-5.875 L -11.5,-6 L -12.5,-6
 L -12.5,-5.5 L -11.875,-5.5 L -11.875,-5.375 L -12,-5.375 L -12,-5.125 L -11.875,-5.125
 L -11.875,-0.875 L -12,-0.875 L -12,-0.625 L -11.875,-0.625 L -11.875,-0.5 L -12.5,-0.5
 L -12.5,-0 L -11.5,-0 z
M -0.375,-2.625 L -0.375,-2.875 L -0.28125,-2.875 L -0.28125,-3.125 L -0.375,-3.125 L -0.375,-3.375
 L -0.125,-3.375 L -0.125,-3.28125 L 0.125,-3.28125 L 0.125,-3.375 L 0.375,-3.375 L 0.375,-3.125
 L 0.28125,-3.125 L 0.28125,-2.875 L 0.375,-2.875 L 0.375,-2.625 L 0.125,-2.625 L 0.125,-2.71875
 L -0.125,-2.71875 L -0.125,-2.625 z
M -6.375,-2.625 L -6.375,-2.875 L -6.28125,-2.875 L -6.28125,-3.125 L -6.375,-3.125 L -6.375,-3.375
 L -6.125,-3.375 L -6.125,-3.28125 L -5.875,-3.28125 L -5.875,-3.375 L -5.625,-3.375 L -5.625,-3.125
 L -5.71875,-3.125 L -5.71875,-2.875 L -5.625,-2.875 L -5.625,-2.625 L -5.875,-2.625 L -5.875,-2.71875
 L -6.125,-2.71875 L -6.125,-2.625 z
M 5.625,-2.625 L 5.625,-2.875 L 5.71875,-2.875 L 5.71875,-3.125 L 5.625,-3.125 L 5.625,-3.375
 L 5.875,-3.375 L 5.875,-3.28125 L 6.125,-3.28125 L 6.125,-3.375 L 6.375,-3.375 L 6.375,-3.125
 L 6.28125,-3.125 L 6.28125,-2.875 L 6.375,-2.875 L 6.375,-2.625 L 6.125,-2.625 L 6.125,-2.71875
 L 5.875,-2.71875 L 5.875,-2.625 z
" stroke="black" fill="lightgray" stroke-width="0.5"/>
</svg>
