<?xml version="1.0" standalone="no"?>
<!DOCTYPE svg PUBLIC "-//W3C//DTD SVG 1.1//EN" "http://www.w3.org/Graphics/SVG/1.1/DTD/svg11.dtd">
<svg width="26mm" height="6mm" viewBox="-13 -6 26 6" xmlns="http://www.w3.org/2000/svg" version="1.1">
<title>OpenSCAD Model</title>
<path d="
M 12.5,-1 L 11.875,-1 L 11.875,-1.125 L 12,-1.125 L 12,-1.375 L 11.875,-1.375
 L 11.875,-5.125 L 12,-5.125 L 12,-5.375 L 11.875,-5.375 L 11.875,-5.5 L 12.5,-5.5
 L 12.5,-6 L -12.5,-6 L -12.5,-5.5 L -11.875,-5.5 L -11.875,-5.375 L -12,-5.375
 L -12,-5.125 L -11.875,-5.125 L -11.875,-1.375 L -12,-1.375 L -12,-1.125 L -11.875,-1.125
 L -11.875,-1 L -12.5,-1 L -12.5,-0 L 12.5,-0 z
M -1.875,-1.625 L -1.875,-1.875 L -1.78125,-1.875 L -1.78125,-2.125 L -1.875,-2.125 L -1.875,-2.375
 L -1.625,-2.375 L -1.625,-2.28125 L -1.375,-2.28125 L -1.375,-2.375 L -1.125,-2.375 L -1.125,-2.125
 L -1.21875,-2.125 L -1.21875,-1.875 L -1.125,-1.875 L -1.125,-1.625 L -1.375,-1.625 L -1.375,-1.71875
 L -1.625,-1.71875 L -1.625,-1.625 z
M 1.875,-2.125 L 1.78125,-2.125 L 1.78125,-1.875 L 1.875,-1.875 L 1.875,-1.625 L 1.625,-1.625
 L 1.625,-1.71875 L 1.375,-1.71875 L 1.375,-1.625 L 1.125,-1.625 L 1.125,-1.875 L 1.21875,-1.875
 L 1.21875,-2.125 L 1.125,-2.125 L 1.125,-2.375 L 1.375,-2.375 L 1.375,-2.28125 L 1.625,-2.28125
 L 1.625,-2.375 L 1.875,-2.375 z
" stroke="black" fill="lightgray" stroke-width="0.5"/>
</svg>
