<?xml version="1.0" standalone="no"?>
<!DOCTYPE svg PUBLIC "-//W3C//DTD SVG 1.1//EN" "http://www.w3.org/Graphics/SVG/1.1/DTD/svg11.dtd">
<svg width="3mm" height="4mm" viewBox="0 -4 3 4" xmlns="http://www.w3.org/2000/svg" version="1.1">
<title>OpenSCAD Model</title>
<path d="
M 0.5,-0.625 L 0.625,-0.625 L 0.625,-0.5 L 0.875,-0.5 L 0.875,-0.625 L 2.125,-0.625
 L 2.125,-0.5 L 2.375,-0.5 L 2.375,-0.625 L 2.5,-0.625 L 2.5,-0 L 3,-0
 L 3,-4 L 0,-4 L 0,-0 L 0.5,-0 z
M 1.41316,-2.00758 L 1.32898,-2.03015 L 1.25,-2.06699 L 1.1786,-2.11697 L 1.11697,-2.1786 L 1.06699,-2.25
 L 1.03015,-2.32898 L 1.00758,-2.41316 L 1,-2.5 L 1.00758,-2.58682 L 1.03015,-2.67101 L 1.06699,-2.75
 L 1.11697,-2.82138 L 1.1786,-2.88301 L 1.25,-2.933 L 1.32898,-2.96983 L 1.41316,-2.9924 L 1.5,-3
 L 1.58682,-2.9924 L 1.67101,-2.96983 L 1.75,-2.933 L 1.82138,-2.88301 L 1.88301,-2.82138 L 1.933,-2.75
 L 1.96983,-2.67101 L 1.9924,-2.58682 L 2,-2.5 L 1.9924,-2.41316 L 1.96983,-2.32898 L 1.933,-2.25
 L 1.88301,-2.1786 L 1.82138,-2.11697 L 1.75,-2.06699 L 1.67101,-2.03015 L 1.58682,-2.00758 L 1.5,-2
 z
" stroke="black" fill="lightgray" stroke-width="0.5"/>
</svg>
