<?xml version="1.0" standalone="no"?>
<!DOCTYPE svg PUBLIC "-//W3C//DTD SVG 1.1//EN" "http://www.w3.org/Graphics/SVG/1.1/DTD/svg11.dtd">
<svg width="26mm" height="5mm" viewBox="-13 -5 26 5" xmlns="http://www.w3.org/2000/svg" version="1.1">
<title>OpenSCAD Model</title>
<path d="
M 12.5,-0.75 L 11.875,-0.75 L 11.875,-0.875 L 12,-0.875 L 12,-1.125 L 11.875,-1.125
 L 11.875,-3.875 L 12,-3.875 L 12,-4.125 L 11.875,-4.125 L 11.875,-4.25 L 12.5,-4.25
 L 12.5,-5 L 11.5,-5 L 11.5,-4.875 L 0.5,-4.875 L 0.5,-5 L -0.5,-5
 L -0.5,-4.875 L -11.5,-4.875 L -11.5,-5 L -12.5,-5 L -12.5,-4.25 L -11.875,-4.25
 L -11.875,-4.125 L -12,-4.125 L -12,-3.875 L -11.875,-3.875 L -11.875,-1.125 L -12,-1.125
 L -12,-0.875 L -11.875,-0.875 L -11.875,-0.75 L -12.5,-0.75 L -12.5,-0 L 12.5,-0
 z
M 1.125,-3.125 L 1.125,-3.375 L 1.21875,-3.375 L 1.21875,-3.625 L 1.125,-3.625 L 1.125,-3.875
 L 1.375,-3.875 L 1.375,-3.78125 L 1.625,-3.78125 L 1.625,-3.875 L 1.875,-3.875 L 1.875,-3.625
 L 1.78125,-3.625 L 1.78125,-3.375 L 1.875,-3.375 L 1.875,-3.125 L 1.625,-3.125 L 1.625,-3.21875
 L 1.375,-3.21875 L 1.375,-3.125 z
M -1.875,-3.125 L -1.875,-3.375 L -1.78125,-3.375 L -1.78125,-3.625 L -1.875,-3.625 L -1.875,-3.875
 L -1.625,-3.875 L -1.625,-3.78125 L -1.375,-3.78125 L -1.375,-3.875 L -1.125,-3.875 L -1.125,-3.625
 L -1.21875,-3.625 L -1.21875,-3.375 L -1.125,-3.375 L -1.125,-3.125 L -1.375,-3.125 L -1.375,-3.21875
 L -1.625,-3.21875 L -1.625,-3.125 z
" stroke="black" fill="lightgray" stroke-width="0.5"/>
</svg>
