<?xml version="1.0" standalone="no"?>
<!DOCTYPE svg PUBLIC "-//W3C//DTD SVG 1.1//EN" "http://www.w3.org/Graphics/SVG/1.1/DTD/svg11.dtd">
<svg width="4mm" height="4mm" viewBox="0 -4 4 4" xmlns="http://www.w3.org/2000/svg" version="1.1">
<title>OpenSCAD Model</title>
<path d="
M 2.25,-0.625 L 2.375,-0.625 L 2.375,-0.5 L 3.5,-0.5 L 3.5,-3.5 L 0.5,-3.5
 L 0.5,-2.375 L 0.625,-2.375 L 0.625,-2.25 L 0,-2.25 L 0,-1.75 L 0.625,-1.75
 L 0.625,-1.625 L 0.5,-1.625 L 0.5,-0.5 L 1.625,-0.5 L 1.625,-0.625 L 1.75,-0.625
 L 1.75,-0 L 2.25,-0 z
M 1.91316,-1.50758 L 1.82898,-1.53015 L 1.75,-1.56699 L 1.6786,-1.61697 L 1.61697,-1.6786 L 1.56699,-1.75
 L 1.53015,-1.82898 L 1.50758,-1.91316 L 1.5,-2 L 1.50758,-2.08682 L 1.53015,-2.17101 L 1.56699,-2.25
 L 1.61697,-2.32138 L 1.6786,-2.38301 L 1.75,-2.433 L 1.82898,-2.46983 L 1.91316,-2.4924 L 2,-2.5
 L 2.08682,-2.4924 L 2.17101,-2.46983 L 2.25,-2.433 L 2.32138,-2.38301 L 2.38301,-2.32138 L 2.433,-2.25
 L 2.46983,-2.17101 L 2.4924,-2.08682 L 2.5,-2 L 2.4924,-1.91316 L 2.46983,-1.82898 L 2.433,-1.75
 L 2.38301,-1.6786 L 2.32138,-1.61697 L 2.25,-1.56699 L 2.17101,-1.53015 L 2.08682,-1.50758 L 2,-1.5
 z
" stroke="black" fill="lightgray" stroke-width="0.5"/>
</svg>
