<?xml version="1.0" standalone="no"?>
<!DOCTYPE svg PUBLIC "-//W3C//DTD SVG 1.1//EN" "http://www.w3.org/Graphics/SVG/1.1/DTD/svg11.dtd">
<svg width="36mm" height="13mm" viewBox="-18 -13 36 13" xmlns="http://www.w3.org/2000/svg" version="1.1">
<title>OpenSCAD Model</title>
<path d="
M 17.0942,-13 L -17.0942,-13 L -17.0942,-0 L 17.0942,-0 z
M -11.806,-10.7576 L -11.8902,-10.7802 L -11.9692,-10.817 L -12.0406,-10.867 L -12.1022,-10.9286 L -12.1522,-11
 L -12.189,-11.079 L -12.2116,-11.1632 L -12.2192,-11.25 L -12.2116,-11.3368 L -12.189,-11.421 L -12.1522,-11.5
 L -12.1022,-11.5714 L -12.0406,-11.633 L -11.9692,-11.683 L -11.8902,-11.7198 L -11.806,-11.7424 L -11.7192,-11.75
 L -11.6324,-11.7424 L -11.5482,-11.7198 L -11.4692,-11.683 L -11.3978,-11.633 L -11.3362,-11.5714 L -11.2862,-11.5
 L -11.2493,-11.421 L -11.2268,-11.3368 L -11.2192,-11.25 L -11.2268,-11.1632 L -11.2493,-11.079 L -11.2862,-11
 L -11.3362,-10.9286 L -11.3978,-10.867 L -11.4692,-10.817 L -11.5482,-10.7802 L -11.6324,-10.7576 L -11.7192,-10.75
 z
M 11.6324,-10.7576 L 11.5482,-10.7802 L 11.4692,-10.817 L 11.3978,-10.867 L 11.3362,-10.9286 L 11.2862,-11
 L 11.2493,-11.079 L 11.2268,-11.1632 L 11.2192,-11.25 L 11.2268,-11.3368 L 11.2493,-11.421 L 11.2862,-11.5
 L 11.3362,-11.5714 L 11.3978,-11.633 L 11.4692,-11.683 L 11.5482,-11.7198 L 11.6324,-11.7424 L 11.7192,-11.75
 L 11.806,-11.7424 L 11.8902,-11.7198 L 11.9692,-11.683 L 12.0406,-11.633 L 12.1022,-11.5714 L 12.1522,-11.5
 L 12.189,-11.421 L 12.2116,-11.3368 L 12.2192,-11.25 L 12.2116,-11.1632 L 12.189,-11.079 L 12.1522,-11
 L 12.1022,-10.9286 L 12.0406,-10.867 L 11.9692,-10.817 L 11.8902,-10.7802 L 11.806,-10.7576 L 11.7192,-10.75
 z
M -12.75,-3.25 L -12.75,-9.75 L 12.75,-9.75 L 12.75,-3.25 z
M -11.806,-1.25758 L -11.8902,-1.28015 L -11.9692,-1.31699 L -12.0406,-1.36697 L -12.1022,-1.4286 L -12.1522,-1.5
 L -12.189,-1.57898 L -12.2116,-1.66316 L -12.2192,-1.75 L -12.2116,-1.83682 L -12.189,-1.92101 L -12.1522,-2
 L -12.1022,-2.07138 L -12.0406,-2.13301 L -11.9692,-2.183 L -11.8902,-2.21983 L -11.806,-2.2424 L -11.7192,-2.25
 L -11.6324,-2.2424 L -11.5482,-2.21983 L -11.4692,-2.183 L -11.3978,-2.13301 L -11.3362,-2.07138 L -11.2862,-2
 L -11.2493,-1.92101 L -11.2268,-1.83682 L -11.2192,-1.75 L -11.2268,-1.66316 L -11.2493,-1.57898 L -11.2862,-1.5
 L -11.3362,-1.4286 L -11.3978,-1.36697 L -11.4692,-1.31699 L -11.5482,-1.28015 L -11.6324,-1.25758 L -11.7192,-1.25
 z
M 11.6324,-1.25758 L 11.5482,-1.28015 L 11.4692,-1.31699 L 11.3978,-1.36697 L 11.3362,-1.4286 L 11.2862,-1.5
 L 11.2493,-1.57898 L 11.2268,-1.66316 L 11.2192,-1.75 L 11.2268,-1.83682 L 11.2493,-1.92101 L 11.2862,-2
 L 11.3362,-2.07138 L 11.3978,-2.13301 L 11.4692,-2.183 L 11.5482,-2.21983 L 11.6324,-2.2424 L 11.7192,-2.25
 L 11.806,-2.2424 L 11.8902,-2.21983 L 11.9692,-2.183 L 12.0406,-2.13301 L 12.1022,-2.07138 L 12.1522,-2
 L 12.189,-1.92101 L 12.2116,-1.83682 L 12.2192,-1.75 L 12.2116,-1.66316 L 12.189,-1.57898 L 12.1522,-1.5
 L 12.1022,-1.4286 L 12.0406,-1.36697 L 11.9692,-1.31699 L 11.8902,-1.28015 L 11.806,-1.25758 L 11.7192,-1.25
 z
" stroke="black" fill="lightgray" stroke-width="0.5"/>
</svg>
