<?xml version="1.0" standalone="no"?>
<!DOCTYPE svg PUBLIC "-//W3C//DTD SVG 1.1//EN" "http://www.w3.org/Graphics/SVG/1.1/DTD/svg11.dtd">
<svg width="8mm" height="5mm" viewBox="0 -5 8 5" xmlns="http://www.w3.org/2000/svg" version="1.1">
<title>OpenSCAD Model</title>
<path d="
M 8,-4.5 L 0,-4.5 L 0,-0 L 8,-0 z
M 1.93401,-1.62576 L 1.87003,-1.64291 L 1.81,-1.6709 L 1.75574,-1.70889 L 1.70889,-1.75574 L 1.6709,-1.81
 L 1.64291,-1.87003 L 1.62576,-1.93401 L 1.62,-2 L 1.62576,-2.06598 L 1.64291,-2.12996 L 1.6709,-2.18999
 L 1.70889,-2.24425 L 1.75574,-2.29109 L 1.81,-2.32909 L 1.87003,-2.35707 L 1.93401,-2.37422 L 2,-2.37999
 L 2.06598,-2.37422 L 2.12996,-2.35707 L 2.18999,-2.32909 L 2.24425,-2.29109 L 2.29109,-2.24425 L 2.32909,-2.18999
 L 2.35707,-2.12996 L 2.37422,-2.06598 L 2.37999,-2 L 2.37422,-1.93401 L 2.35707,-1.87003 L 2.32909,-1.81
 L 2.29109,-1.75574 L 2.24425,-1.70889 L 2.18999,-1.6709 L 2.12996,-1.64291 L 2.06598,-1.62576 L 2,-1.62
 z
M 5.93401,-1.62576 L 5.87003,-1.64291 L 5.81,-1.6709 L 5.75574,-1.70889 L 5.70889,-1.75574 L 5.6709,-1.81
 L 5.64291,-1.87003 L 5.62576,-1.93401 L 5.62,-2 L 5.62576,-2.06598 L 5.64291,-2.12996 L 5.6709,-2.18999
 L 5.70889,-2.24425 L 5.75574,-2.29109 L 5.81,-2.32909 L 5.87003,-2.35707 L 5.93401,-2.37422 L 6,-2.37999
 L 6.06598,-2.37422 L 6.12996,-2.35707 L 6.18999,-2.32909 L 6.24425,-2.29109 L 6.29109,-2.24425 L 6.32909,-2.18999
 L 6.35707,-2.12996 L 6.37422,-2.06598 L 6.37999,-2 L 6.37422,-1.93401 L 6.35707,-1.87003 L 6.32909,-1.81
 L 6.29109,-1.75574 L 6.24425,-1.70889 L 6.18999,-1.6709 L 6.12996,-1.64291 L 6.06598,-1.62576 L 6,-1.62
 z
" stroke="black" fill="lightgray" stroke-width="0.5"/>
</svg>
