<?xml version="1.0" standalone="no"?>
<!DOCTYPE svg PUBLIC "-//W3C//DTD SVG 1.1//EN" "http://www.w3.org/Graphics/SVG/1.1/DTD/svg11.dtd">
<svg width="36mm" height="6mm" viewBox="-18 -6 36 6" xmlns="http://www.w3.org/2000/svg" version="1.1">
<title>OpenSCAD Model</title>
<path d="
M -1.0625,-0.4375 L -1.1875,-0.4375 L -1.1875,-0.6875 L -0.9375,-0.6875 L -0.9375,-0.5625 L 0.9375,-0.5625
 L 0.9375,-0.6875 L 1.1875,-0.6875 L 1.1875,-0.4375 L 1.0625,-0.4375 L 1.0625,-0 L 16.0317,-0
 L 16.0317,-0.4375 L 15.9067,-0.4375 L 15.9067,-0.6875 L 16.1567,-0.6875 L 16.1567,-0.5625 L 17.0942,-0.5625
 L 17.0942,-5.75 L 16.6942,-5.75 L 16.6942,-6 L 15.7567,-6 L 15.7567,-5.5625 L 15.8817,-5.5625
 L 15.8817,-5.3125 L 15.6317,-5.3125 L 15.6317,-5.4375 L 14.7567,-5.4375 L 14.7567,-5.3125 L 14.5067,-5.3125
 L 14.5067,-5.5625 L 14.6317,-5.5625 L 14.6317,-6 L -14.6317,-6 L -14.6317,-5.5625 L -14.5067,-5.5625
 L -14.5067,-5.3125 L -14.7567,-5.3125 L -14.7567,-5.4375 L -15.6317,-5.4375 L -15.6317,-5.3125 L -15.8817,-5.3125
 L -15.8817,-5.5625 L -15.7567,-5.5625 L -15.7567,-6 L -16.6942,-6 L -16.6942,-5.75 L -17.0942,-5.75
 L -17.0942,-0.5625 L -16.1567,-0.5625 L -16.1567,-0.6875 L -15.9067,-0.6875 L -15.9067,-0.4375 L -16.0317,-0.4375
 L -16.0317,-0 L -1.0625,-0 z
M 11.39,-3.80911 L 11.289,-3.83618 L 11.1942,-3.88037 L 11.1085,-3.94037 L 11.0346,-4.01431 L 10.9746,-4.09999
 L 10.9304,-4.19478 L 10.9033,-4.29581 L 10.8942,-4.39999 L 10.9033,-4.50418 L 10.9304,-4.60521 L 10.9746,-4.7
 L 11.0346,-4.78566 L 11.1085,-4.85962 L 11.1942,-4.9196 L 11.289,-4.96381 L 11.39,-4.99088 L 11.4942,-5
 L 11.5984,-4.99088 L 11.6994,-4.96381 L 11.7942,-4.9196 L 11.8799,-4.85962 L 11.9538,-4.78566 L 12.0138,-4.7
 L 12.058,-4.60521 L 12.0851,-4.50418 L 12.0942,-4.39999 L 12.0851,-4.29581 L 12.058,-4.19478 L 12.0138,-4.09999
 L 11.9538,-4.01431 L 11.8799,-3.94037 L 11.7942,-3.88037 L 11.6994,-3.83618 L 11.5984,-3.80911 L 11.4942,-3.79999
 z
M -11.5984,-3.80911 L -11.6994,-3.83618 L -11.7942,-3.88037 L -11.8799,-3.94037 L -11.9538,-4.01431 L -12.0138,-4.09999
 L -12.058,-4.19478 L -12.0851,-4.29581 L -12.0942,-4.39999 L -12.0851,-4.50418 L -12.058,-4.60521 L -12.0138,-4.7
 L -11.9538,-4.78566 L -11.8799,-4.85962 L -11.7942,-4.9196 L -11.6994,-4.96381 L -11.5984,-4.99088 L -11.4942,-5
 L -11.39,-4.99088 L -11.289,-4.96381 L -11.1942,-4.9196 L -11.1085,-4.85962 L -11.0346,-4.78566 L -10.9746,-4.7
 L -10.9304,-4.60521 L -10.9033,-4.50418 L -10.8942,-4.39999 L -10.9033,-4.29581 L -10.9304,-4.19478 L -10.9746,-4.09999
 L -11.0346,-4.01431 L -11.1085,-3.94037 L -11.1942,-3.88037 L -11.289,-3.83618 L -11.39,-3.80911 L -11.4942,-3.79999
 z
M 14.5291,-4.13069 L 14.4659,-4.14761 L 14.4067,-4.17523 L 14.3531,-4.21272 L 14.3069,-4.25894 L 14.2694,-4.3125
 L 14.2418,-4.37173 L 14.2249,-4.43488 L 14.2192,-4.5 L 14.2249,-4.56511 L 14.2418,-4.62825 L 14.2694,-4.6875
 L 14.3069,-4.74104 L 14.3531,-4.78726 L 14.4067,-4.82475 L 14.4659,-4.85237 L 14.5291,-4.86929 L 14.5942,-4.875
 L 14.6593,-4.86929 L 14.7225,-4.85237 L 14.7817,-4.82475 L 14.8352,-4.78726 L 14.8815,-4.74104 L 14.919,-4.6875
 L 14.9466,-4.62825 L 14.9635,-4.56511 L 14.9692,-4.5 L 14.9635,-4.43488 L 14.9466,-4.37173 L 14.919,-4.3125
 L 14.8815,-4.25894 L 14.8352,-4.21272 L 14.7817,-4.17523 L 14.7225,-4.14761 L 14.6593,-4.13069 L 14.5942,-4.125
 z
M -14.6593,-4.13069 L -14.7225,-4.14761 L -14.7817,-4.17523 L -14.8352,-4.21272 L -14.8815,-4.25894 L -14.919,-4.3125
 L -14.9466,-4.37173 L -14.9635,-4.43488 L -14.9692,-4.5 L -14.9635,-4.56511 L -14.9466,-4.62825 L -14.919,-4.6875
 L -14.8815,-4.74104 L -14.8352,-4.78726 L -14.7817,-4.82475 L -14.7225,-4.85237 L -14.6593,-4.86929 L -14.5942,-4.875
 L -14.5291,-4.86929 L -14.4659,-4.85237 L -14.4067,-4.82475 L -14.3531,-4.78726 L -14.3069,-4.74104 L -14.2694,-4.6875
 L -14.2418,-4.62825 L -14.2249,-4.56511 L -14.2192,-4.5 L -14.2249,-4.43488 L -14.2418,-4.37173 L -14.2694,-4.3125
 L -14.3069,-4.25894 L -14.3531,-4.21272 L -14.4067,-4.17523 L -14.4659,-4.14761 L -14.5291,-4.13069 L -14.5942,-4.125
 z
M -14.6593,-1.13069 L -14.7225,-1.14761 L -14.7817,-1.17523 L -14.8352,-1.21272 L -14.8815,-1.25894 L -14.919,-1.3125
 L -14.9466,-1.37173 L -14.9635,-1.43488 L -14.9692,-1.5 L -14.9635,-1.56511 L -14.9466,-1.62825 L -14.919,-1.6875
 L -14.8815,-1.74104 L -14.8352,-1.78726 L -14.7817,-1.82475 L -14.7225,-1.85237 L -14.6593,-1.86929 L -14.5942,-1.875
 L -14.5291,-1.86929 L -14.4659,-1.85237 L -14.4067,-1.82475 L -14.3531,-1.78726 L -14.3069,-1.74104 L -14.2694,-1.6875
 L -14.2418,-1.62825 L -14.2249,-1.56511 L -14.2192,-1.5 L -14.2249,-1.43488 L -14.2418,-1.37173 L -14.2694,-1.3125
 L -14.3069,-1.25894 L -14.3531,-1.21272 L -14.4067,-1.17523 L -14.4659,-1.14761 L -14.5291,-1.13069 L -14.5942,-1.125
 z
M 14.5291,-1.13069 L 14.4659,-1.14761 L 14.4067,-1.17523 L 14.3531,-1.21272 L 14.3069,-1.25894 L 14.2694,-1.3125
 L 14.2418,-1.37173 L 14.2249,-1.43488 L 14.2192,-1.5 L 14.2249,-1.56511 L 14.2418,-1.62825 L 14.2694,-1.6875
 L 14.3069,-1.74104 L 14.3531,-1.78726 L 14.4067,-1.82475 L 14.4659,-1.85237 L 14.5291,-1.86929 L 14.5942,-1.875
 L 14.6593,-1.86929 L 14.7225,-1.85237 L 14.7817,-1.82475 L 14.8352,-1.78726 L 14.8815,-1.74104 L 14.919,-1.6875
 L 14.9466,-1.62825 L 14.9635,-1.56511 L 14.9692,-1.5 L 14.9635,-1.43488 L 14.9466,-1.37173 L 14.919,-1.3125
 L 14.8815,-1.25894 L 14.8352,-1.21272 L 14.7817,-1.17523 L 14.7225,-1.14761 L 14.6593,-1.13069 L 14.5942,-1.125
 z
" stroke="black" fill="lightgray" stroke-width="0.5"/>
</svg>
