<?xml version="1.0" standalone="no"?>
<!DOCTYPE svg PUBLIC "-//W3C//DTD SVG 1.1//EN" "http://www.w3.org/Graphics/SVG/1.1/DTD/svg11.dtd">
<svg width="36mm" height="4mm" viewBox="-18 -4 36 4" xmlns="http://www.w3.org/2000/svg" version="1.1">
<title>OpenSCAD Model</title>
<path d="
M -16.0942,-0.625 L -15.0942,-0.625 L -15.0942,-0.5 L -14.0942,-0.5 L -14.0942,-0.625 L -3,-0.625
 L -3,-0.5 L -2,-0.5 L -2,-0.625 L -1,-0.625 L -1,-0 L 1,-0
 L 1,-0.625 L 2,-0.625 L 2,-0.5 L 3,-0.5 L 3,-0.625 L 14.0942,-0.625
 L 14.0942,-0.5 L 15.0942,-0.5 L 15.0942,-0.625 L 16.0942,-0.625 L 16.0942,-0 L 17.0942,-0
 L 17.0942,-3.5 L -17.0942,-3.5 L -17.0942,-0 L -16.0942,-0 z
M -11.806,-1.25758 L -11.8902,-1.28015 L -11.9692,-1.31699 L -12.0406,-1.36697 L -12.1022,-1.4286 L -12.1522,-1.5
 L -12.189,-1.57898 L -12.2116,-1.66316 L -12.2192,-1.75 L -12.2116,-1.83682 L -12.189,-1.92101 L -12.1522,-2
 L -12.1022,-2.07138 L -12.0406,-2.13301 L -11.9692,-2.183 L -11.8902,-2.21983 L -11.806,-2.2424 L -11.7192,-2.25
 L -11.6324,-2.2424 L -11.5482,-2.21983 L -11.4692,-2.183 L -11.3978,-2.13301 L -11.3362,-2.07138 L -11.2862,-2
 L -11.2493,-1.92101 L -11.2268,-1.83682 L -11.2192,-1.75 L -11.2268,-1.66316 L -11.2493,-1.57898 L -11.2862,-1.5
 L -11.3362,-1.4286 L -11.3978,-1.36697 L -11.4692,-1.31699 L -11.5482,-1.28015 L -11.6324,-1.25758 L -11.7192,-1.25
 z
M 11.6324,-1.25758 L 11.5482,-1.28015 L 11.4692,-1.31699 L 11.3978,-1.36697 L 11.3362,-1.4286 L 11.2862,-1.5
 L 11.2493,-1.57898 L 11.2268,-1.66316 L 11.2192,-1.75 L 11.2268,-1.83682 L 11.2493,-1.92101 L 11.2862,-2
 L 11.3362,-2.07138 L 11.3978,-2.13301 L 11.4692,-2.183 L 11.5482,-2.21983 L 11.6324,-2.2424 L 11.7192,-2.25
 L 11.806,-2.2424 L 11.8902,-2.21983 L 11.9692,-2.183 L 12.0406,-2.13301 L 12.1022,-2.07138 L 12.1522,-2
 L 12.189,-1.92101 L 12.2116,-1.83682 L 12.2192,-1.75 L 12.2116,-1.66316 L 12.189,-1.57898 L 12.1522,-1.5
 L 12.1022,-1.4286 L 12.0406,-1.36697 L 11.9692,-1.31699 L 11.8902,-1.28015 L 11.806,-1.25758 L 11.7192,-1.25
 z
" stroke="black" fill="lightgray" stroke-width="0.5"/>
</svg>
