<?xml version="1.0" standalone="no"?>
<!DOCTYPE svg PUBLIC "-//W3C//DTD SVG 1.1//EN" "http://www.w3.org/Graphics/SVG/1.1/DTD/svg11.dtd">
<svg width="42mm" height="11mm" viewBox="-21 -11 42 11" xmlns="http://www.w3.org/2000/svg" version="1.1">
<title>OpenSCAD Model</title>
<path d="
M 17.0942,-5.5 L 20.5033,-10.5 L 19.9692,-10.5 L 19.9692,-10.375 L 18.2192,-10.375 L 18.2192,-10.5
 L 17.2192,-10.5 L 17.2192,-10.375 L 17.0942,-10.375 L 17.0942,-11 L 1.0625,-11 L 1.0625,-10.5625
 L 1.1875,-10.5625 L 1.1875,-10.3125 L 0.9375,-10.3125 L 0.9375,-10.4375 L -0.9375,-10.4375 L -0.9375,-10.3125
 L -1.1875,-10.3125 L -1.1875,-10.5625 L -1.0625,-10.5625 L -1.0625,-11 L -17.0942,-11 L -17.0942,-10.375
 L -17.2192,-10.375 L -17.2192,-10.5 L -18.2192,-10.5 L -18.2192,-10.375 L -19.9692,-10.375 L -19.9692,-10.5
 L -20.5033,-10.5 L -17.0942,-5.5 L -17.0942,-0 L 17.0942,-0 z
M 14.5069,-8.50513 L 14.4223,-8.5278 L 14.3429,-8.56482 L 14.2712,-8.61505 L 14.2093,-8.67699 L 14.159,-8.74875
 L 14.122,-8.82812 L 14.0993,-8.91273 L 14.0917,-9 L 14.0993,-9.08725 L 14.122,-9.17186 L 14.159,-9.25124
 L 14.2093,-9.323 L 14.2712,-9.38493 L 14.3429,-9.43517 L 14.4223,-9.47218 L 14.5069,-9.49486 L 14.5942,-9.50249
 L 14.6815,-9.49486 L 14.7661,-9.47218 L 14.8454,-9.43517 L 14.9172,-9.38493 L 14.9791,-9.323 L 15.0294,-9.25124
 L 15.0664,-9.17186 L 15.0891,-9.08725 L 15.0967,-9 L 15.0891,-8.91273 L 15.0664,-8.82812 L 15.0294,-8.74875
 L 14.9791,-8.67699 L 14.9172,-8.61505 L 14.8454,-8.56482 L 14.7661,-8.5278 L 14.6815,-8.50513 L 14.5942,-8.4975
 z
M -14.6815,-8.50513 L -14.7661,-8.5278 L -14.8454,-8.56482 L -14.9172,-8.61505 L -14.9791,-8.67699 L -15.0294,-8.74875
 L -15.0664,-8.82812 L -15.0891,-8.91273 L -15.0967,-9 L -15.0891,-9.08725 L -15.0664,-9.17186 L -15.0294,-9.25124
 L -14.9791,-9.323 L -14.9172,-9.38493 L -14.8454,-9.43517 L -14.7661,-9.47218 L -14.6815,-9.49486 L -14.5942,-9.50249
 L -14.5069,-9.49486 L -14.4223,-9.47218 L -14.3429,-9.43517 L -14.2712,-9.38493 L -14.2093,-9.323 L -14.159,-9.25124
 L -14.122,-9.17186 L -14.0993,-9.08725 L -14.0917,-9 L -14.0993,-8.91273 L -14.122,-8.82812 L -14.159,-8.74875
 L -14.2093,-8.67699 L -14.2712,-8.61505 L -14.3429,-8.56482 L -14.4223,-8.5278 L -14.5069,-8.50513 L -14.5942,-8.4975
 z
M -13.3438,-7.0625 L -13.3438,-7.3125 L -13.2188,-7.3125 L -13.2188,-7.6875 L -13.3438,-7.6875 L -13.3438,-7.9375
 L -13.0938,-7.9375 L -13.0938,-7.8125 L -12.2188,-7.8125 L -12.2188,-7.9375 L -11.9688,-7.9375 L -11.9688,-7.6875
 L -12.0938,-7.6875 L -12.0938,-7.3125 L -11.9688,-7.3125 L -11.9688,-7.0625 L -12.2188,-7.0625 L -12.2188,-7.1875
 L -13.0938,-7.1875 L -13.0938,-7.0625 z
M 11.9688,-7.0625 L 11.9688,-7.3125 L 12.0938,-7.3125 L 12.0938,-7.6875 L 11.9688,-7.6875 L 11.9688,-7.9375
 L 12.2188,-7.9375 L 12.2188,-7.8125 L 13.0938,-7.8125 L 13.0938,-7.9375 L 13.3438,-7.9375 L 13.3438,-7.6875
 L 13.2188,-7.6875 L 13.2188,-7.3125 L 13.3438,-7.3125 L 13.3438,-7.0625 L 13.0938,-7.0625 L 13.0938,-7.1875
 L 12.2188,-7.1875 L 12.2188,-7.0625 z
M -14.6815,-5.50513 L -14.7661,-5.5278 L -14.8454,-5.56482 L -14.9172,-5.61505 L -14.9791,-5.67699 L -15.0294,-5.74875
 L -15.0664,-5.82812 L -15.0891,-5.91273 L -15.0967,-6 L -15.0891,-6.08725 L -15.0664,-6.17186 L -15.0294,-6.25124
 L -14.9791,-6.323 L -14.9172,-6.38493 L -14.8454,-6.43517 L -14.7661,-6.47218 L -14.6815,-6.49486 L -14.5942,-6.50249
 L -14.5069,-6.49486 L -14.4223,-6.47218 L -14.3429,-6.43517 L -14.2712,-6.38493 L -14.2093,-6.323 L -14.159,-6.25124
 L -14.122,-6.17186 L -14.0993,-6.08725 L -14.0917,-6 L -14.0993,-5.91273 L -14.122,-5.82812 L -14.159,-5.74875
 L -14.2093,-5.67699 L -14.2712,-5.61505 L -14.3429,-5.56482 L -14.4223,-5.5278 L -14.5069,-5.50513 L -14.5942,-5.4975
 z
M 14.5069,-5.50513 L 14.4223,-5.5278 L 14.3429,-5.56482 L 14.2712,-5.61505 L 14.2093,-5.67699 L 14.159,-5.74875
 L 14.122,-5.82812 L 14.0993,-5.91273 L 14.0917,-6 L 14.0993,-6.08725 L 14.122,-6.17186 L 14.159,-6.25124
 L 14.2093,-6.323 L 14.2712,-6.38493 L 14.3429,-6.43517 L 14.4223,-6.47218 L 14.5069,-6.49486 L 14.5942,-6.50249
 L 14.6815,-6.49486 L 14.7661,-6.47218 L 14.8454,-6.43517 L 14.9172,-6.38493 L 14.9791,-6.323 L 15.0294,-6.25124
 L 15.0664,-6.17186 L 15.0891,-6.08725 L 15.0967,-6 L 15.0891,-5.91273 L 15.0664,-5.82812 L 15.0294,-5.74875
 L 14.9791,-5.67699 L 14.9172,-5.61505 L 14.8454,-5.56482 L 14.7661,-5.5278 L 14.6815,-5.50513 L 14.5942,-5.4975
 z
M 14.5069,-1.50513 L 14.4223,-1.5278 L 14.3429,-1.56482 L 14.2712,-1.61505 L 14.2093,-1.67699 L 14.159,-1.74875
 L 14.122,-1.82812 L 14.0993,-1.91273 L 14.0917,-2 L 14.0993,-2.08725 L 14.122,-2.17186 L 14.159,-2.25124
 L 14.2093,-2.323 L 14.2712,-2.38493 L 14.3429,-2.43517 L 14.4223,-2.47218 L 14.5069,-2.49486 L 14.5942,-2.50249
 L 14.6815,-2.49486 L 14.7661,-2.47218 L 14.8454,-2.43517 L 14.9172,-2.38493 L 14.9791,-2.323 L 15.0294,-2.25124
 L 15.0664,-2.17186 L 15.0891,-2.08725 L 15.0967,-2 L 15.0891,-1.91273 L 15.0664,-1.82812 L 15.0294,-1.74875
 L 14.9791,-1.67699 L 14.9172,-1.61505 L 14.8454,-1.56482 L 14.7661,-1.5278 L 14.6815,-1.50513 L 14.5942,-1.4975
 z
M -14.6815,-1.50513 L -14.7661,-1.5278 L -14.8454,-1.56482 L -14.9172,-1.61505 L -14.9791,-1.67699 L -15.0294,-1.74875
 L -15.0664,-1.82812 L -15.0891,-1.91273 L -15.0967,-2 L -15.0891,-2.08725 L -15.0664,-2.17186 L -15.0294,-2.25124
 L -14.9791,-2.323 L -14.9172,-2.38493 L -14.8454,-2.43517 L -14.7661,-2.47218 L -14.6815,-2.49486 L -14.5942,-2.50249
 L -14.5069,-2.49486 L -14.4223,-2.47218 L -14.3429,-2.43517 L -14.2712,-2.38493 L -14.2093,-2.323 L -14.159,-2.25124
 L -14.122,-2.17186 L -14.0993,-2.08725 L -14.0917,-2 L -14.0993,-1.91273 L -14.122,-1.82812 L -14.159,-1.74875
 L -14.2093,-1.67699 L -14.2712,-1.61505 L -14.3429,-1.56482 L -14.4223,-1.5278 L -14.5069,-1.50513 L -14.5942,-1.4975
 z
" stroke="black" fill="lightgray" stroke-width="0.5"/>
</svg>
