<?xml version="1.0" standalone="no"?>
<!DOCTYPE svg PUBLIC "-//W3C//DTD SVG 1.1//EN" "http://www.w3.org/Graphics/SVG/1.1/DTD/svg11.dtd">
<svg width="44mm" height="4mm" viewBox="-22 -4 44 4" xmlns="http://www.w3.org/2000/svg" version="1.1">
<title>OpenSCAD Model</title>
<path d="
M -3,-0.5 L -2,-0.5 L -2,-0.625 L -1,-0.625 L -1,-0 L 1,-0
 L 1,-0.625 L 2,-0.625 L 2,-0.5 L 3,-0.5 L 3,-0.625 L 15.0942,-0.625
 L 15.0942,-0.5 L 16.0942,-0.5 L 16.0942,-0.625 L 17.0942,-0.625 L 17.0942,-0 L 21.0942,-0
 L 21.0942,-3.5 L -21.0942,-3.5 L -21.0942,-0 L -17.0942,-0 L -17.0942,-0.625 L -16.0942,-0.625
 L -16.0942,-0.5 L -15.0942,-0.5 L -15.0942,-0.625 L -3,-0.625 z
M 19.0074,-1.50758 L 18.9232,-1.53015 L 18.8442,-1.56699 L 18.7728,-1.61697 L 18.7112,-1.6786 L 18.6612,-1.75
 L 18.6243,-1.82898 L 18.6018,-1.91316 L 18.5942,-2 L 18.6018,-2.08682 L 18.6243,-2.17101 L 18.6612,-2.25
 L 18.7112,-2.32138 L 18.7728,-2.38301 L 18.8442,-2.433 L 18.9232,-2.46983 L 19.0074,-2.4924 L 19.0942,-2.5
 L 19.181,-2.4924 L 19.2652,-2.46983 L 19.3442,-2.433 L 19.4156,-2.38301 L 19.4772,-2.32138 L 19.5272,-2.25
 L 19.564,-2.17101 L 19.5866,-2.08682 L 19.5942,-2 L 19.5866,-1.91316 L 19.564,-1.82898 L 19.5272,-1.75
 L 19.4772,-1.6786 L 19.4156,-1.61697 L 19.3442,-1.56699 L 19.2652,-1.53015 L 19.181,-1.50758 L 19.0942,-1.5
 z
M -19.181,-1.50758 L -19.2652,-1.53015 L -19.3442,-1.56699 L -19.4156,-1.61697 L -19.4772,-1.6786 L -19.5272,-1.75
 L -19.564,-1.82898 L -19.5866,-1.91316 L -19.5942,-2 L -19.5866,-2.08682 L -19.564,-2.17101 L -19.5272,-2.25
 L -19.4772,-2.32138 L -19.4156,-2.38301 L -19.3442,-2.433 L -19.2652,-2.46983 L -19.181,-2.4924 L -19.0942,-2.5
 L -19.0074,-2.4924 L -18.9232,-2.46983 L -18.8442,-2.433 L -18.7728,-2.38301 L -18.7112,-2.32138 L -18.6612,-2.25
 L -18.6243,-2.17101 L -18.6018,-2.08682 L -18.5942,-2 L -18.6018,-1.91316 L -18.6243,-1.82898 L -18.6612,-1.75
 L -18.7112,-1.6786 L -18.7728,-1.61697 L -18.8442,-1.56699 L -18.9232,-1.53015 L -19.0074,-1.50758 L -19.0942,-1.5
 z
" stroke="black" fill="lightgray" stroke-width="0.5"/>
</svg>
