<?xml version="1.0" standalone="no"?>
<!DOCTYPE svg PUBLIC "-//W3C//DTD SVG 1.1//EN" "http://www.w3.org/Graphics/SVG/1.1/DTD/svg11.dtd">
<svg width="36mm" height="8mm" viewBox="-18 -8 36 8" xmlns="http://www.w3.org/2000/svg" version="1.1">
<title>OpenSCAD Model</title>
<path d="
M 17.0942,-8 L 15.7567,-8 L 15.7567,-7.5625 L 15.8817,-7.5625 L 15.8817,-7.3125 L 15.6317,-7.3125
 L 15.6317,-7.4375 L 14.7567,-7.4375 L 14.7567,-7.3125 L 14.5067,-7.3125 L 14.5067,-7.5625 L 14.6317,-7.5625
 L 14.6317,-8 L -14.6317,-8 L -14.6317,-7.5625 L -14.5067,-7.5625 L -14.5067,-7.3125 L -14.7567,-7.3125
 L -14.7567,-7.4375 L -15.6317,-7.4375 L -15.6317,-7.3125 L -15.8817,-7.3125 L -15.8817,-7.5625 L -15.7567,-7.5625
 L -15.7567,-8 L -17.0942,-8 L -17.0942,-0 L 17.0942,-0 z
M -0.227905,-4.89493 L -0.448898,-4.95415 L -0.65625,-5.05083 L -0.843658,-5.18205 L -1.00543,-5.34383 L -1.13666,-5.53125
 L -1.23334,-5.73859 L -1.29256,-5.95958 L -1.3125,-6.1875 L -1.29256,-6.41541 L -1.23334,-6.6364 L -1.13666,-6.84375
 L -1.00543,-7.03116 L -0.843658,-7.19293 L -0.65625,-7.32416 L -0.448898,-7.42084 L -0.227905,-7.48006 L 0,-7.5
 L 0.227905,-7.48006 L 0.448898,-7.42084 L 0.65625,-7.32416 L 0.843658,-7.19293 L 1.00543,-7.03116 L 1.13666,-6.84375
 L 1.23334,-6.6364 L 1.29256,-6.41541 L 1.3125,-6.1875 L 1.29256,-5.95958 L 1.23334,-5.73859 L 1.13666,-5.53125
 L 1.00543,-5.34383 L 0.843658,-5.18205 L 0.65625,-5.05083 L 0.448898,-4.95415 L 0.227905,-4.89493 L 0,-4.875
 z
M -14.6602,-5.62576 L -14.7242,-5.64291 L -14.7842,-5.6709 L -14.8385,-5.70889 L -14.8853,-5.75574 L -14.9233,-5.81
 L -14.9513,-5.87003 L -14.9684,-5.93401 L -14.9742,-6 L -14.9684,-6.06598 L -14.9513,-6.12996 L -14.9233,-6.18999
 L -14.8853,-6.24425 L -14.8385,-6.29109 L -14.7842,-6.32909 L -14.7242,-6.35707 L -14.6602,-6.37422 L -14.5942,-6.37999
 L -14.5282,-6.37422 L -14.4642,-6.35707 L -14.4042,-6.32909 L -14.3499,-6.29109 L -14.3031,-6.24425 L -14.2651,-6.18999
 L -14.2371,-6.12996 L -14.22,-6.06598 L -14.2142,-6 L -14.22,-5.93401 L -14.2371,-5.87003 L -14.2651,-5.81
 L -14.3031,-5.75574 L -14.3499,-5.70889 L -14.4042,-5.6709 L -14.4642,-5.64291 L -14.5282,-5.62576 L -14.5942,-5.62
 z
M 14.5282,-5.62576 L 14.4642,-5.64291 L 14.4042,-5.6709 L 14.3499,-5.70889 L 14.3031,-5.75574 L 14.2651,-5.81
 L 14.2371,-5.87003 L 14.22,-5.93401 L 14.2142,-6 L 14.22,-6.06598 L 14.2371,-6.12996 L 14.2651,-6.18999
 L 14.3031,-6.24425 L 14.3499,-6.29109 L 14.4042,-6.32909 L 14.4642,-6.35707 L 14.5282,-6.37422 L 14.5942,-6.37999
 L 14.6602,-6.37422 L 14.7242,-6.35707 L 14.7842,-6.32909 L 14.8385,-6.29109 L 14.8853,-6.24425 L 14.9233,-6.18999
 L 14.9513,-6.12996 L 14.9684,-6.06598 L 14.9742,-6 L 14.9684,-5.93401 L 14.9513,-5.87003 L 14.9233,-5.81
 L 14.8853,-5.75574 L 14.8385,-5.70889 L 14.7842,-5.6709 L 14.7242,-5.64291 L 14.6602,-5.62576 L 14.5942,-5.62
 z
M -14.6602,-1.62576 L -14.7242,-1.64291 L -14.7842,-1.6709 L -14.8385,-1.70889 L -14.8853,-1.75574 L -14.9233,-1.81
 L -14.9513,-1.87003 L -14.9684,-1.93401 L -14.9742,-2 L -14.9684,-2.06598 L -14.9513,-2.12996 L -14.9233,-2.18999
 L -14.8853,-2.24425 L -14.8385,-2.29109 L -14.7842,-2.32909 L -14.7242,-2.35707 L -14.6602,-2.37422 L -14.5942,-2.37999
 L -14.5282,-2.37422 L -14.4642,-2.35707 L -14.4042,-2.32909 L -14.3499,-2.29109 L -14.3031,-2.24425 L -14.2651,-2.18999
 L -14.2371,-2.12996 L -14.22,-2.06598 L -14.2142,-2 L -14.22,-1.93401 L -14.2371,-1.87003 L -14.2651,-1.81
 L -14.3031,-1.75574 L -14.3499,-1.70889 L -14.4042,-1.6709 L -14.4642,-1.64291 L -14.5282,-1.62576 L -14.5942,-1.62
 z
M 14.5282,-1.62576 L 14.4642,-1.64291 L 14.4042,-1.6709 L 14.3499,-1.70889 L 14.3031,-1.75574 L 14.2651,-1.81
 L 14.2371,-1.87003 L 14.22,-1.93401 L 14.2142,-2 L 14.22,-2.06598 L 14.2371,-2.12996 L 14.2651,-2.18999
 L 14.3031,-2.24425 L 14.3499,-2.29109 L 14.4042,-2.32909 L 14.4642,-2.35707 L 14.5282,-2.37422 L 14.5942,-2.37999
 L 14.6602,-2.37422 L 14.7242,-2.35707 L 14.7842,-2.32909 L 14.8385,-2.29109 L 14.8853,-2.24425 L 14.9233,-2.18999
 L 14.9513,-2.12996 L 14.9684,-2.06598 L 14.9742,-2 L 14.9684,-1.93401 L 14.9513,-1.87003 L 14.9233,-1.81
 L 14.8853,-1.75574 L 14.8385,-1.70889 L 14.7842,-1.6709 L 14.7242,-1.64291 L 14.6602,-1.62576 L 14.5942,-1.62
 z
" stroke="black" fill="lightgray" stroke-width="0.5"/>
</svg>
