<?xml version="1.0" standalone="no"?>
<!DOCTYPE svg PUBLIC "-//W3C//DTD SVG 1.1//EN" "http://www.w3.org/Graphics/SVG/1.1/DTD/svg11.dtd">
<svg width="50mm" height="6mm" viewBox="0 -6 50 6" xmlns="http://www.w3.org/2000/svg" version="1.1">
<title>OpenSCAD Model</title>
<path d="
M 16.3469,-0.625 L 16.5969,-0.625 L 16.5969,-0.5 L 17.0969,-0.5 L 17.0969,-0.625 L 23.7704,-0.625
 L 23.7704,-0.5 L 24.2704,-0.5 L 24.2704,-0.625 L 24.5204,-0.625 L 24.5204,-0 L 32.6939,-0
 L 32.6939,-0.625 L 32.9439,-0.625 L 32.9439,-0.5 L 33.4439,-0.5 L 33.4439,-0.625 L 40.1173,-0.625
 L 40.1173,-0.5 L 40.6173,-0.5 L 40.6173,-0.625 L 40.8673,-0.625 L 40.8673,-0 L 49.0408,-0
 L 49.0408,-6 L 40.8673,-6 L 40.8673,-5.375 L 40.6173,-5.375 L 40.6173,-5.5 L 40.1173,-5.5
 L 40.1173,-5.375 L 33.4439,-5.375 L 33.4439,-5.5 L 32.9439,-5.5 L 32.9439,-5.375 L 32.6939,-5.375
 L 32.6939,-6 L 24.5204,-6 L 24.5204,-5.375 L 24.2704,-5.375 L 24.2704,-5.5 L 23.7704,-5.5
 L 23.7704,-5.375 L 17.0969,-5.375 L 17.0969,-5.5 L 16.5969,-5.5 L 16.5969,-5.375 L 16.3469,-5.375
 L 16.3469,-6 L 8.17346,-6 L 8.17346,-5.375 L 7.92346,-5.375 L 7.92346,-5.5 L 7.42346,-5.5
 L 7.42346,-5.375 L 0.75,-5.375 L 0.75,-5.5 L 0.25,-5.5 L 0.25,-5.375 L 0,-5.375
 L 0,-0.625 L 0.25,-0.625 L 0.25,-0.5 L 0.75,-0.5 L 0.75,-0.625 L 7.42346,-0.625
 L 7.42346,-0.5 L 7.92346,-0.5 L 7.92346,-0.625 L 8.17346,-0.625 L 8.17346,-0 L 16.3469,-0
 z
M 28.8825,-2.5 L 28.7957,-2.50758 L 28.7115,-2.53015 L 28.6325,-2.56699 L 28.5611,-2.61697 L 28.4995,-2.6786
 L 28.4495,-2.75 L 28.4126,-2.82898 L 28.3901,-2.91316 L 28.3825,-3 L 28.3901,-3.08682 L 28.4126,-3.17101
 L 28.4495,-3.25 L 28.4995,-3.32138 L 28.5611,-3.38301 L 28.6325,-3.433 L 28.7115,-3.46983 L 28.7957,-3.4924
 L 28.8825,-3.5 L 29.1425,-3.5 L 29.2293,-3.4924 L 29.3135,-3.46983 L 29.3925,-3.433 L 29.4639,-3.38301
 L 29.5255,-3.32138 L 29.5755,-3.25 L 29.6123,-3.17101 L 29.6349,-3.08682 L 29.6425,-3 L 29.6349,-2.91316
 L 29.6123,-2.82898 L 29.5755,-2.75 L 29.5255,-2.6786 L 29.4639,-2.61697 L 29.3925,-2.56699 L 29.3135,-2.53015
 L 29.2293,-2.50758 L 29.1425,-2.5 z
M 35.8825,-2.5 L 35.7957,-2.50758 L 35.7115,-2.53015 L 35.6325,-2.56699 L 35.5611,-2.61697 L 35.4995,-2.6786
 L 35.4495,-2.75 L 35.4126,-2.82898 L 35.3901,-2.91316 L 35.3825,-3 L 35.3901,-3.08682 L 35.4126,-3.17101
 L 35.4495,-3.25 L 35.4995,-3.32138 L 35.5611,-3.38301 L 35.6325,-3.433 L 35.7115,-3.46983 L 35.7957,-3.4924
 L 35.8825,-3.5 L 36.1425,-3.5 L 36.2293,-3.4924 L 36.3135,-3.46983 L 36.3925,-3.433 L 36.4639,-3.38301
 L 36.5255,-3.32138 L 36.5755,-3.25 L 36.6123,-3.17101 L 36.6349,-3.08682 L 36.6425,-3 L 36.6349,-2.91316
 L 36.6123,-2.82898 L 36.5755,-2.75 L 36.5255,-2.6786 L 36.4639,-2.61697 L 36.3925,-2.56699 L 36.3135,-2.53015
 L 36.2293,-2.50758 L 36.1425,-2.5 z
" stroke="black" fill="lightgray" stroke-width="0.5"/>
</svg>
