<?xml version="1.0" standalone="no"?>
<!DOCTYPE svg PUBLIC "-//W3C//DTD SVG 1.1//EN" "http://www.w3.org/Graphics/SVG/1.1/DTD/svg11.dtd">
<svg width="50mm" height="5mm" viewBox="0 -5 50 5" xmlns="http://www.w3.org/2000/svg" version="1.1">
<title>OpenSCAD Model</title>
<path d="
M 8.17346,-0.625 L 8.42346,-0.625 L 8.42346,-0.5 L 8.92346,-0.5 L 8.92346,-0.625 L 15.5969,-0.625
 L 15.5969,-0.5 L 16.0969,-0.5 L 16.0969,-0.625 L 16.3469,-0.625 L 16.3469,-0 L 24.5204,-0
 L 24.5204,-0.625 L 24.7704,-0.625 L 24.7704,-0.5 L 25.2704,-0.5 L 25.2704,-0.625 L 31.9439,-0.625
 L 31.9439,-0.5 L 32.4439,-0.5 L 32.4439,-0.625 L 32.6939,-0.625 L 32.6939,-0 L 40.8673,-0
 L 40.8673,-0.625 L 41.1173,-0.625 L 41.1173,-0.5 L 41.6173,-0.5 L 41.6173,-0.625 L 48.2908,-0.625
 L 48.2908,-0.5 L 48.7908,-0.5 L 48.7908,-0.625 L 49.0408,-0.625 L 49.0408,-3.96875 L 48.6345,-3.96875
 L 48.6345,-3.84375 L 48.3845,-3.84375 L 48.3845,-4.09375 L 48.5095,-4.09375 L 48.5095,-4.5 L 43.2408,-4.5
 L 43.2408,-3.09999 L 36.8408,-3.09999 L 36.8408,-4.5 L 26.0437,-4.5 L 26.0437,-4.09375 L 26.1687,-4.09375
 L 26.1687,-3.84375 L 25.9187,-3.84375 L 25.9187,-3.96875 L 25.6062,-3.96875 L 25.6062,-3.84375 L 25.3562,-3.84375
 L 25.3562,-4.09375 L 25.4812,-4.09375 L 25.4812,-4.5 L 0.53125,-4.5 L 0.53125,-4.09375 L 0.65625,-4.09375
 L 0.65625,-3.84375 L 0.40625,-3.84375 L 0.40625,-3.96875 L 0,-3.96875 L 0,-0 L 8.17346,-0
 z
M 31.9252,-1.50513 L 31.8406,-1.5278 L 31.7612,-1.56482 L 31.6895,-1.61505 L 31.6276,-1.67699 L 31.5773,-1.74875
 L 31.5403,-1.82812 L 31.5176,-1.91273 L 31.51,-2 L 31.5176,-2.08725 L 31.5403,-2.17186 L 31.5773,-2.25124
 L 31.6276,-2.323 L 31.6895,-2.38493 L 31.7612,-2.43517 L 31.8406,-2.47218 L 31.9252,-2.49486 L 32.0125,-2.50249
 L 32.0997,-2.49486 L 32.1844,-2.47218 L 32.2637,-2.43517 L 32.3355,-2.38493 L 32.3974,-2.323 L 32.4477,-2.25124
 L 32.4847,-2.17186 L 32.5074,-2.08725 L 32.515,-2 L 32.5074,-1.91273 L 32.4847,-1.82812 L 32.4477,-1.74875
 L 32.3974,-1.67699 L 32.3355,-1.61505 L 32.2637,-1.56482 L 32.1844,-1.5278 L 32.0997,-1.50513 L 32.0125,-1.4975
 z
M 27.9252,-1.50513 L 27.8406,-1.5278 L 27.7612,-1.56482 L 27.6895,-1.61505 L 27.6276,-1.67699 L 27.5773,-1.74875
 L 27.5403,-1.82812 L 27.5176,-1.91273 L 27.51,-2 L 27.5176,-2.08725 L 27.5403,-2.17186 L 27.5773,-2.25124
 L 27.6276,-2.323 L 27.6895,-2.38493 L 27.7612,-2.43517 L 27.8406,-2.47218 L 27.9252,-2.49486 L 28.0125,-2.50249
 L 28.0997,-2.49486 L 28.1844,-2.47218 L 28.2637,-2.43517 L 28.3355,-2.38493 L 28.3974,-2.323 L 28.4477,-2.25124
 L 28.4847,-2.17186 L 28.5074,-2.08725 L 28.515,-2 L 28.5074,-1.91273 L 28.4847,-1.82812 L 28.4477,-1.74875
 L 28.3974,-1.67699 L 28.3355,-1.61505 L 28.2637,-1.56482 L 28.1844,-1.5278 L 28.0997,-1.50513 L 28.0125,-1.4975
 z
M 34.9252,-1.50513 L 34.8406,-1.5278 L 34.7612,-1.56482 L 34.6895,-1.61505 L 34.6276,-1.67699 L 34.5773,-1.74875
 L 34.5403,-1.82812 L 34.5176,-1.91273 L 34.51,-2 L 34.5176,-2.08725 L 34.5403,-2.17186 L 34.5773,-2.25124
 L 34.6276,-2.323 L 34.6895,-2.38493 L 34.7612,-2.43517 L 34.8406,-2.47218 L 34.9252,-2.49486 L 35.0125,-2.50249
 L 35.0997,-2.49486 L 35.1844,-2.47218 L 35.2637,-2.43517 L 35.3355,-2.38493 L 35.3974,-2.323 L 35.4477,-2.25124
 L 35.4847,-2.17186 L 35.5074,-2.08725 L 35.515,-2 L 35.5074,-1.91273 L 35.4847,-1.82812 L 35.4477,-1.74875
 L 35.3974,-1.67699 L 35.3355,-1.61505 L 35.2637,-1.56482 L 35.1844,-1.5278 L 35.0997,-1.50513 L 35.0125,-1.4975
 z
M 44.4748,-1.62576 L 44.4108,-1.64291 L 44.3508,-1.6709 L 44.2965,-1.70889 L 44.2497,-1.75574 L 44.2117,-1.81
 L 44.1837,-1.87003 L 44.1666,-1.93401 L 44.1608,-2 L 44.1666,-2.06598 L 44.1837,-2.12996 L 44.2117,-2.18999
 L 44.2497,-2.24425 L 44.2965,-2.29109 L 44.3508,-2.32909 L 44.4108,-2.35707 L 44.4748,-2.37422 L 44.5408,-2.37999
 L 44.6068,-2.37422 L 44.6708,-2.35707 L 44.7308,-2.32909 L 44.785,-2.29109 L 44.8319,-2.24425 L 44.8699,-2.18999
 L 44.8979,-2.12996 L 44.915,-2.06598 L 44.9208,-2 L 44.915,-1.93401 L 44.8979,-1.87003 L 44.8699,-1.81
 L 44.8319,-1.75574 L 44.785,-1.70889 L 44.7308,-1.6709 L 44.6708,-1.64291 L 44.6068,-1.62576 L 44.5408,-1.62
 z
M 47.4748,-1.62576 L 47.4108,-1.64291 L 47.3508,-1.6709 L 47.2965,-1.70889 L 47.2497,-1.75574 L 47.2117,-1.81
 L 47.1837,-1.87003 L 47.1666,-1.93401 L 47.1608,-2 L 47.1666,-2.06598 L 47.1837,-2.12996 L 47.2117,-2.18999
 L 47.2497,-2.24425 L 47.2965,-2.29109 L 47.3508,-2.32909 L 47.4108,-2.35707 L 47.4748,-2.37422 L 47.5408,-2.37999
 L 47.6068,-2.37422 L 47.6708,-2.35707 L 47.7308,-2.32909 L 47.785,-2.29109 L 47.8319,-2.24425 L 47.8699,-2.18999
 L 47.8979,-2.12996 L 47.915,-2.06598 L 47.9208,-2 L 47.915,-1.93401 L 47.8979,-1.87003 L 47.8699,-1.81
 L 47.8319,-1.75574 L 47.785,-1.70889 L 47.7308,-1.6709 L 47.6708,-1.64291 L 47.6068,-1.62576 L 47.5408,-1.62
 z
M 5.93401,-1.62576 L 5.87003,-1.64291 L 5.81,-1.6709 L 5.75574,-1.70889 L 5.70889,-1.75574 L 5.6709,-1.81
 L 5.64291,-1.87003 L 5.62576,-1.93401 L 5.62,-2 L 5.62576,-2.06598 L 5.64291,-2.12996 L 5.6709,-2.18999
 L 5.70889,-2.24425 L 5.75574,-2.29109 L 5.81,-2.32909 L 5.87003,-2.35707 L 5.93401,-2.37422 L 6,-2.37999
 L 6.06598,-2.37422 L 6.12996,-2.35707 L 6.18999,-2.32909 L 6.24425,-2.29109 L 6.29109,-2.24425 L 6.32909,-2.18999
 L 6.35707,-2.12996 L 6.37422,-2.06598 L 6.37999,-2 L 6.37422,-1.93401 L 6.35707,-1.87003 L 6.32909,-1.81
 L 6.29109,-1.75574 L 6.24425,-1.70889 L 6.18999,-1.6709 L 6.12996,-1.64291 L 6.06598,-1.62576 L 6,-1.62
 z
M 1.93401,-1.62576 L 1.87003,-1.64291 L 1.81,-1.6709 L 1.75574,-1.70889 L 1.70889,-1.75574 L 1.6709,-1.81
 L 1.64291,-1.87003 L 1.62576,-1.93401 L 1.62,-2 L 1.62576,-2.06598 L 1.64291,-2.12996 L 1.6709,-2.18999
 L 1.70889,-2.24425 L 1.75574,-2.29109 L 1.81,-2.32909 L 1.87003,-2.35707 L 1.93401,-2.37422 L 2,-2.37999
 L 2.06598,-2.37422 L 2.12996,-2.35707 L 2.18999,-2.32909 L 2.24425,-2.29109 L 2.29109,-2.24425 L 2.32909,-2.18999
 L 2.35707,-2.12996 L 2.37422,-2.06598 L 2.37999,-2 L 2.37422,-1.93401 L 2.35707,-1.87003 L 2.32909,-1.81
 L 2.29109,-1.75574 L 2.24425,-1.70889 L 2.18999,-1.6709 L 2.12996,-1.64291 L 2.06598,-1.62576 L 2,-1.62
 z
" stroke="black" fill="lightgray" stroke-width="0.5"/>
</svg>
