<?xml version="1.0" standalone="no"?>
<!DOCTYPE svg PUBLIC "-//W3C//DTD SVG 1.1//EN" "http://www.w3.org/Graphics/SVG/1.1/DTD/svg11.dtd">
<svg width="42mm" height="16mm" viewBox="-21 -16 42 16" xmlns="http://www.w3.org/2000/svg" version="1.1">
<title>OpenSCAD Model</title>
<path d="
M 20.5942,-1.25 L 19.0942,-1.25 L 19.0074,-1.25758 L 18.9232,-1.28015 L 18.8442,-1.31699 L 18.7728,-1.36697
 L 18.7112,-1.4286 L 18.6612,-1.5 L 18.6243,-1.57898 L 18.6018,-1.66316 L 18.5942,-1.75 L 18.6018,-1.83682
 L 18.6243,-1.92101 L 18.6612,-2 L 18.7112,-2.07138 L 18.7728,-2.13301 L 18.8442,-2.183 L 18.9232,-2.21983
 L 19.0074,-2.2424 L 19.0942,-2.25 L 20.5942,-2.25 L 20.5942,-13.75 L 19.0942,-13.75 L 19.0074,-13.7576
 L 18.9232,-13.7802 L 18.8442,-13.817 L 18.7728,-13.867 L 18.7112,-13.9286 L 18.6612,-14 L 18.6243,-14.079
 L 18.6018,-14.1632 L 18.5942,-14.25 L 18.6018,-14.3368 L 18.6243,-14.421 L 18.6612,-14.5 L 18.7112,-14.5714
 L 18.7728,-14.633 L 18.8442,-14.683 L 18.9232,-14.7198 L 19.0074,-14.7424 L 19.0942,-14.75 L 20.5942,-14.75
 L 20.5942,-16 L -20.5942,-16 L -20.5942,-14.75 L -19.0942,-14.75 L -19.0074,-14.7424 L -18.9232,-14.7198
 L -18.8442,-14.683 L -18.7728,-14.633 L -18.7112,-14.5714 L -18.6612,-14.5 L -18.6243,-14.421 L -18.6018,-14.3368
 L -18.5942,-14.25 L -18.6018,-14.1632 L -18.6243,-14.079 L -18.6612,-14 L -18.7112,-13.9286 L -18.7728,-13.867
 L -18.8442,-13.817 L -18.9232,-13.7802 L -19.0074,-13.7576 L -19.0942,-13.75 L -20.5942,-13.75 L -20.5942,-2.25
 L -19.0942,-2.25 L -19.0074,-2.2424 L -18.9232,-2.21983 L -18.8442,-2.183 L -18.7728,-2.13301 L -18.7112,-2.07138
 L -18.6612,-2 L -18.6243,-1.92101 L -18.6018,-1.83682 L -18.5942,-1.75 L -18.6018,-1.66316 L -18.6243,-1.57898
 L -18.6612,-1.5 L -18.7112,-1.4286 L -18.7728,-1.36697 L -18.8442,-1.31699 L -18.9232,-1.28015 L -19.0074,-1.25758
 L -19.0942,-1.25 L -20.5942,-1.25 L -20.5942,-0 L 20.5942,-0 z
" stroke="black" fill="lightgray" stroke-width="0.5"/>
</svg>
