<?xml version="1.0" standalone="no"?>
<!DOCTYPE svg PUBLIC "-//W3C//DTD SVG 1.1//EN" "http://www.w3.org/Graphics/SVG/1.1/DTD/svg11.dtd">
<svg width="42mm" height="15mm" viewBox="-21 -15 42 15" xmlns="http://www.w3.org/2000/svg" version="1.1">
<title>OpenSCAD Model</title>
<path d="
M 20.5942,-1.5 L 19.0942,-1.5 L 19.0074,-1.50758 L 18.9232,-1.53015 L 18.8442,-1.56699 L 18.7728,-1.61697
 L 18.7112,-1.6786 L 18.6612,-1.75 L 18.6243,-1.82898 L 18.6018,-1.91316 L 18.5942,-2 L 18.6018,-2.08682
 L 18.6243,-2.17101 L 18.6612,-2.25 L 18.7112,-2.32138 L 18.7728,-2.38301 L 18.8442,-2.433 L 18.9232,-2.46983
 L 19.0074,-2.4924 L 19.0942,-2.5 L 20.5942,-2.5 L 20.5942,-12 L 19.0942,-12 L 19.0074,-12.0076
 L 18.9232,-12.0302 L 18.8442,-12.067 L 18.7728,-12.117 L 18.7112,-12.1786 L 18.6612,-12.25 L 18.6243,-12.329
 L 18.6018,-12.4132 L 18.5942,-12.5 L 18.6018,-12.5868 L 18.6243,-12.671 L 18.6612,-12.75 L 18.7112,-12.8214
 L 18.7728,-12.883 L 18.8442,-12.933 L 18.9232,-12.9698 L 19.0074,-12.9924 L 19.0942,-13 L 20.5942,-13
 L 20.5942,-14.5 L -20.5942,-14.5 L -20.5942,-13 L -19.0942,-13 L -19.0074,-12.9924 L -18.9232,-12.9698
 L -18.8442,-12.933 L -18.7728,-12.883 L -18.7112,-12.8214 L -18.6612,-12.75 L -18.6243,-12.671 L -18.6018,-12.5868
 L -18.5942,-12.5 L -18.6018,-12.4132 L -18.6243,-12.329 L -18.6612,-12.25 L -18.7112,-12.1786 L -18.7728,-12.117
 L -18.8442,-12.067 L -18.9232,-12.0302 L -19.0074,-12.0076 L -19.0942,-12 L -20.5942,-12 L -20.5942,-10
 L -19.0942,-10 L -19.0074,-9.9924 L -18.9232,-9.96983 L -18.8442,-9.933 L -18.7728,-9.88301 L -18.7112,-9.82138
 L -18.6612,-9.75 L -18.6243,-9.67101 L -18.6018,-9.58682 L -18.5942,-9.5 L -18.6018,-9.41316 L -18.6243,-9.32898
 L -18.6612,-9.25 L -18.7112,-9.1786 L -18.7728,-9.11697 L -18.8442,-9.06699 L -18.9232,-9.03015 L -19.0074,-9.00758
 L -19.0942,-9 L -20.5942,-9 L -20.5942,-2.5 L -19.0942,-2.5 L -19.0074,-2.4924 L -18.9232,-2.46983
 L -18.8442,-2.433 L -18.7728,-2.38301 L -18.7112,-2.32138 L -18.6612,-2.25 L -18.6243,-2.17101 L -18.6018,-2.08682
 L -18.5942,-2 L -18.6018,-1.91316 L -18.6243,-1.82898 L -18.6612,-1.75 L -18.7112,-1.6786 L -18.7728,-1.61697
 L -18.8442,-1.56699 L -18.9232,-1.53015 L -19.0074,-1.50758 L -19.0942,-1.5 L -20.5942,-1.5 L -20.5942,-0
 L 20.5942,-0 z
" stroke="black" fill="lightgray" stroke-width="0.5"/>
</svg>
