<?xml version="1.0" standalone="no"?>
<!DOCTYPE svg PUBLIC "-//W3C//DTD SVG 1.1//EN" "http://www.w3.org/Graphics/SVG/1.1/DTD/svg11.dtd">
<svg width="314mm" height="117mm" viewBox="0 -117 314 117" xmlns="http://www.w3.org/2000/svg" version="1.1">
<title>OpenSCAD Model</title>
<path d="
M 94.875,-39.0625 L 95,-39.0625 L 95,-39.5625 L 94.875,-39.5625 L 94.875,-44.8802 L 95,-44.8802
 L 95,-45.3802 L 94.875,-45.3802 L 94.875,-45.5052 L 95.5,-45.5052 L 95.5,-51.9479 L 94.875,-51.9479
 L 94.875,-52.0729 L 95,-52.0729 L 95,-52.5729 L 94.875,-52.5729 L 94.875,-57.8906 L 95,-57.8906
 L 95,-58.3906 L 94.875,-58.3906 L 94.875,-58.5156 L 95.5,-58.5156 L 95.5,-64.9583 L 94.875,-64.9583
 L 94.875,-65.0833 L 95,-65.0833 L 95,-65.5833 L 94.875,-65.5833 L 94.875,-70.901 L 95,-70.901
 L 95,-71.401 L 94.875,-71.401 L 94.875,-71.526 L 95.5,-71.526 L 95.5,-77.9687 L 94.875,-77.9687
 L 94.875,-78.0937 L 95,-78.0937 L 95,-78.5937 L 94.875,-78.5937 L 94.875,-83.9115 L 95,-83.9115
 L 95,-84.4115 L 94.875,-84.4115 L 94.875,-84.5365 L 95.5,-84.5365 L 95.5,-90.9792 L 94.875,-90.9792
 L 94.875,-91.1042 L 95,-91.1042 L 95,-91.6042 L 94.875,-91.6042 L 94.875,-96.9219 L 95,-96.9219
 L 95,-97.4219 L 94.875,-97.4219 L 94.875,-97.5469 L 95.5,-97.5469 L 95.5,-103.99 L 94.875,-103.99
 L 94.875,-104.115 L 95,-104.115 L 95,-104.615 L 94.875,-104.615 L 94.875,-109.932 L 95,-109.932
 L 95,-110.432 L 94.875,-110.432 L 94.875,-110.557 L 95.5,-110.557 L 95.5,-117 L 91.5,-117
 L 91.5,-116.344 L 92.0625,-116.344 L 92.0625,-116.469 L 92.3125,-116.469 L 92.3125,-116.219 L 92.1875,-116.219
 L 92.1875,-115.781 L 92.3125,-115.781 L 92.3125,-115.531 L 92.0625,-115.531 L 92.0625,-115.656 L 91.5,-115.656
 L 91.5,-90.3438 L 92.0625,-90.3438 L 92.0625,-90.4688 L 92.3125,-90.4688 L 92.3125,-90.2188 L 92.1875,-90.2188
 L 92.1875,-89.7812 L 92.3125,-89.7812 L 92.3125,-89.5312 L 92.0625,-89.5312 L 92.0625,-89.6562 L 91.5,-89.6562
 L 91.5,-40.3438 L 92.0625,-40.3438 L 92.0625,-40.4688 L 92.3125,-40.4688 L 92.3125,-40.2188 L 92.1875,-40.2188
 L 92.1875,-39.7812 L 92.3125,-39.7812 L 92.3125,-39.5312 L 92.0625,-39.5312 L 92.0625,-39.6562 L 91.5,-39.6562
 L 91.5,-39 L 94.875,-39 z
M 93.4305,-113.606 L 93.3632,-113.624 L 93.3,-113.654 L 93.2429,-113.694 L 93.1936,-113.743 L 93.1536,-113.8
 L 93.1241,-113.863 L 93.1061,-113.931 L 93.1,-114 L 93.1061,-114.069 L 93.1241,-114.137 L 93.1536,-114.2
 L 93.1936,-114.257 L 93.2429,-114.306 L 93.3,-114.346 L 93.3632,-114.376 L 93.4305,-114.394 L 93.5,-114.4
 L 93.5695,-114.394 L 93.6368,-114.376 L 93.7,-114.346 L 93.7571,-114.306 L 93.8064,-114.257 L 93.8464,-114.2
 L 93.8759,-114.137 L 93.8939,-114.069 L 93.9,-114 L 93.8939,-113.931 L 93.8759,-113.863 L 93.8464,-113.8
 L 93.8064,-113.743 L 93.7571,-113.694 L 93.7,-113.654 L 93.6368,-113.624 L 93.5695,-113.606 L 93.5,-113.6
 z
M 93.4305,-108.606 L 93.3632,-108.624 L 93.3,-108.654 L 93.2429,-108.694 L 93.1936,-108.743 L 93.1536,-108.8
 L 93.1241,-108.863 L 93.1061,-108.931 L 93.1,-109 L 93.1061,-109.069 L 93.1241,-109.137 L 93.1536,-109.2
 L 93.1936,-109.257 L 93.2429,-109.306 L 93.3,-109.346 L 93.3632,-109.376 L 93.4305,-109.394 L 93.5,-109.4
 L 93.5695,-109.394 L 93.6368,-109.376 L 93.7,-109.346 L 93.7571,-109.306 L 93.8064,-109.257 L 93.8464,-109.2
 L 93.8759,-109.137 L 93.8939,-109.069 L 93.9,-109 L 93.8939,-108.931 L 93.8759,-108.863 L 93.8464,-108.8
 L 93.8064,-108.743 L 93.7571,-108.694 L 93.7,-108.654 L 93.6368,-108.624 L 93.5695,-108.606 L 93.5,-108.6
 z
M 93.4305,-101.106 L 93.3632,-101.124 L 93.3,-101.154 L 93.2429,-101.194 L 93.1936,-101.243 L 93.1536,-101.3
 L 93.1241,-101.363 L 93.1061,-101.431 L 93.1,-101.5 L 93.1061,-101.569 L 93.1241,-101.637 L 93.1536,-101.7
 L 93.1936,-101.757 L 93.2429,-101.806 L 93.3,-101.846 L 93.3632,-101.876 L 93.4305,-101.894 L 93.5,-101.9
 L 93.5695,-101.894 L 93.6368,-101.876 L 93.7,-101.846 L 93.7571,-101.806 L 93.8064,-101.757 L 93.8464,-101.7
 L 93.8759,-101.637 L 93.8939,-101.569 L 93.9,-101.5 L 93.8939,-101.431 L 93.8759,-101.363 L 93.8464,-101.3
 L 93.8064,-101.243 L 93.7571,-101.194 L 93.7,-101.154 L 93.6368,-101.124 L 93.5695,-101.106 L 93.5,-101.1
 z
M 93.4305,-98.1061 L 93.3632,-98.1241 L 93.3,-98.1536 L 93.2429,-98.1936 L 93.1936,-98.2429 L 93.1536,-98.3
 L 93.1241,-98.3632 L 93.1061,-98.4305 L 93.1,-98.5 L 93.1061,-98.5695 L 93.1241,-98.6368 L 93.1536,-98.7
 L 93.1936,-98.7571 L 93.2429,-98.8064 L 93.3,-98.8464 L 93.3632,-98.8759 L 93.4305,-98.8939 L 93.5,-98.9
 L 93.5695,-98.8939 L 93.6368,-98.8759 L 93.7,-98.8464 L 93.7571,-98.8064 L 93.8064,-98.7571 L 93.8464,-98.7
 L 93.8759,-98.6368 L 93.8939,-98.5695 L 93.9,-98.5 L 93.8939,-98.4305 L 93.8759,-98.3632 L 93.8464,-98.3
 L 93.8064,-98.2429 L 93.7571,-98.1936 L 93.7,-98.1536 L 93.6368,-98.1241 L 93.5695,-98.1061 L 93.5,-98.1
 z
M 93.4305,-94.6061 L 93.3632,-94.6241 L 93.3,-94.6536 L 93.2429,-94.6936 L 93.1936,-94.7429 L 93.1536,-94.8
 L 93.1241,-94.8632 L 93.1061,-94.9305 L 93.1,-95 L 93.1061,-95.0695 L 93.1241,-95.1368 L 93.1536,-95.2
 L 93.1936,-95.2571 L 93.2429,-95.3064 L 93.3,-95.3464 L 93.3632,-95.3759 L 93.4305,-95.3939 L 93.5,-95.4
 L 93.5695,-95.3939 L 93.6368,-95.3759 L 93.7,-95.3464 L 93.7571,-95.3064 L 93.8064,-95.2571 L 93.8464,-95.2
 L 93.8759,-95.1368 L 93.8939,-95.0695 L 93.9,-95 L 93.8939,-94.9305 L 93.8759,-94.8632 L 93.8464,-94.8
 L 93.8064,-94.7429 L 93.7571,-94.6936 L 93.7,-94.6536 L 93.6368,-94.6241 L 93.5695,-94.6061 L 93.5,-94.6
 z
M 93.4305,-84.6061 L 93.3632,-84.6241 L 93.3,-84.6536 L 93.2429,-84.6936 L 93.1936,-84.7429 L 93.1536,-84.8
 L 93.1241,-84.8632 L 93.1061,-84.9305 L 93.1,-85 L 93.1061,-85.0695 L 93.1241,-85.1368 L 93.1536,-85.2
 L 93.1936,-85.2571 L 93.2429,-85.3064 L 93.3,-85.3464 L 93.3632,-85.3759 L 93.4305,-85.3939 L 93.5,-85.4
 L 93.5695,-85.3939 L 93.6368,-85.3759 L 93.7,-85.3464 L 93.7571,-85.3064 L 93.8064,-85.2571 L 93.8464,-85.2
 L 93.8759,-85.1368 L 93.8939,-85.0695 L 93.9,-85 L 93.8939,-84.9305 L 93.8759,-84.8632 L 93.8464,-84.8
 L 93.8064,-84.7429 L 93.7571,-84.6936 L 93.7,-84.6536 L 93.6368,-84.6241 L 93.5695,-84.6061 L 93.5,-84.6
 z
M 93.4305,-81.3561 L 93.3632,-81.3741 L 93.3,-81.4036 L 93.2429,-81.4436 L 93.1936,-81.4929 L 93.1536,-81.55
 L 93.1241,-81.6132 L 93.1061,-81.6805 L 93.1,-81.75 L 93.1061,-81.8195 L 93.1241,-81.8868 L 93.1536,-81.95
 L 93.1936,-82.0071 L 93.2429,-82.0564 L 93.3,-82.0964 L 93.3632,-82.1259 L 93.4305,-82.1439 L 93.5,-82.15
 L 93.5695,-82.1439 L 93.6368,-82.1259 L 93.7,-82.0964 L 93.7571,-82.0564 L 93.8064,-82.0071 L 93.8464,-81.95
 L 93.8759,-81.8868 L 93.8939,-81.8195 L 93.9,-81.75 L 93.8939,-81.6805 L 93.8759,-81.6132 L 93.8464,-81.55
 L 93.8064,-81.4929 L 93.7571,-81.4436 L 93.7,-81.4036 L 93.6368,-81.3741 L 93.5695,-81.3561 L 93.5,-81.35
 z
M 93.4305,-68.8561 L 93.3632,-68.8741 L 93.3,-68.9036 L 93.2429,-68.9436 L 93.1936,-68.9929 L 93.1536,-69.05
 L 93.1241,-69.1132 L 93.1061,-69.1805 L 93.1,-69.25 L 93.1061,-69.3195 L 93.1241,-69.3868 L 93.1536,-69.45
 L 93.1936,-69.5071 L 93.2429,-69.5564 L 93.3,-69.5964 L 93.3632,-69.6259 L 93.4305,-69.6439 L 93.5,-69.65
 L 93.5695,-69.6439 L 93.6368,-69.6259 L 93.7,-69.5964 L 93.7571,-69.5564 L 93.8064,-69.5071 L 93.8464,-69.45
 L 93.8759,-69.3868 L 93.8939,-69.3195 L 93.9,-69.25 L 93.8939,-69.1805 L 93.8759,-69.1132 L 93.8464,-69.05
 L 93.8064,-68.9929 L 93.7571,-68.9436 L 93.7,-68.9036 L 93.6368,-68.8741 L 93.5695,-68.8561 L 93.5,-68.85
 z
M 93.4305,-42.6061 L 93.3632,-42.6241 L 93.3,-42.6536 L 93.2429,-42.6936 L 93.1936,-42.7429 L 93.1536,-42.8
 L 93.1241,-42.8632 L 93.1061,-42.9305 L 93.1,-43 L 93.1061,-43.0695 L 93.1241,-43.1368 L 93.1536,-43.2
 L 93.1936,-43.2571 L 93.2429,-43.3064 L 93.3,-43.3464 L 93.3632,-43.3759 L 93.4305,-43.3939 L 93.5,-43.4
 L 93.5695,-43.3939 L 93.6368,-43.3759 L 93.7,-43.3464 L 93.7571,-43.3064 L 93.8064,-43.2571 L 93.8464,-43.2
 L 93.8759,-43.1368 L 93.8939,-43.0695 L 93.9,-43 L 93.8939,-42.9305 L 93.8759,-42.8632 L 93.8464,-42.8
 L 93.8064,-42.7429 L 93.7571,-42.6936 L 93.7,-42.6536 L 93.6368,-42.6241 L 93.5695,-42.6061 L 93.5,-42.6
 z
M 93.4305,-40.6061 L 93.3632,-40.6241 L 93.3,-40.6536 L 93.2429,-40.6936 L 93.1936,-40.7429 L 93.1536,-40.8
 L 93.1241,-40.8632 L 93.1061,-40.9305 L 93.1,-41 L 93.1061,-41.0695 L 93.1241,-41.1368 L 93.1536,-41.2
 L 93.1936,-41.2571 L 93.2429,-41.3064 L 93.3,-41.3464 L 93.3632,-41.3759 L 93.4305,-41.3939 L 93.5,-41.4
 L 93.5695,-41.3939 L 93.6368,-41.3759 L 93.7,-41.3464 L 93.7571,-41.3064 L 93.8064,-41.2571 L 93.8464,-41.2
 L 93.8759,-41.1368 L 93.8939,-41.0695 L 93.9,-41 L 93.8939,-40.9305 L 93.8759,-40.8632 L 93.8464,-40.8
 L 93.8064,-40.7429 L 93.7571,-40.6936 L 93.7,-40.6536 L 93.6368,-40.6241 L 93.5695,-40.6061 L 93.5,-40.6
 z
M 107.5,-7.9427 L 106.875,-7.9427 L 106.875,-8.0677 L 107,-8.0677 L 107,-8.5677 L 106.875,-8.5677
 L 106.875,-13.3854 L 107,-13.3854 L 107,-13.8854 L 106.875,-13.8854 L 106.875,-14.0104 L 107.5,-14.0104
 L 107.5,-19.9531 L 106.875,-19.9531 L 106.875,-20.0781 L 107,-20.0781 L 107,-20.5781 L 106.875,-20.5781
 L 106.875,-25.3958 L 107,-25.3958 L 107,-25.8958 L 106.875,-25.8958 L 106.875,-26.0208 L 107.5,-26.0208
 L 107.5,-31.9635 L 106.875,-31.9635 L 106.875,-32.0885 L 107,-32.0885 L 107,-32.5885 L 106.875,-32.5885
 L 106.875,-37.4062 L 107,-37.4062 L 107,-37.9062 L 106.875,-37.9062 L 106.875,-38.0312 L 107.5,-38.0312
 L 107.5,-43.974 L 106.875,-43.974 L 106.875,-44.099 L 107,-44.099 L 107,-44.599 L 106.875,-44.599
 L 106.875,-49.4167 L 107,-49.4167 L 107,-49.9167 L 106.875,-49.9167 L 106.875,-50.0417 L 107.5,-50.0417
 L 107.5,-55.9844 L 106.875,-55.9844 L 106.875,-56.1094 L 107,-56.1094 L 107,-56.6094 L 106.875,-56.6094
 L 106.875,-61.4271 L 107,-61.4271 L 107,-61.9271 L 106.875,-61.9271 L 106.875,-62.0521 L 107.5,-62.0521
 L 107.5,-67.9948 L 106.875,-67.9948 L 106.875,-68.1198 L 107,-68.1198 L 107,-68.6198 L 106.875,-68.6198
 L 106.875,-73.4375 L 107,-73.4375 L 107,-73.9375 L 106.875,-73.9375 L 106.875,-74 L 103.875,-74
 L 103.875,-77.4062 L 104,-77.4062 L 104,-77.9062 L 103.875,-77.9062 L 103.875,-78.0312 L 104.5,-78.0312
 L 104.5,-84.474 L 103.875,-84.474 L 103.875,-84.599 L 104,-84.599 L 104,-85.099 L 103.875,-85.099
 L 103.875,-90.4167 L 104,-90.4167 L 104,-90.9167 L 103.875,-90.9167 L 103.875,-91.0417 L 104.5,-91.0417
 L 104.5,-97.4844 L 103.875,-97.4844 L 103.875,-97.6094 L 104,-97.6094 L 104,-98.1094 L 103.875,-98.1094
 L 103.875,-103.427 L 104,-103.427 L 104,-103.927 L 103.875,-103.927 L 103.875,-104.052 L 104.5,-104.052
 L 104.5,-110.495 L 103.875,-110.495 L 103.875,-110.62 L 104,-110.62 L 104,-111.12 L 103.875,-111.12
 L 103.875,-116.437 L 104,-116.437 L 104,-116.937 L 103.875,-116.937 L 103.875,-117 L 98.5,-117
 L 98.5,-116.344 L 99.0625,-116.344 L 99.0625,-116.469 L 99.3125,-116.469 L 99.3125,-116.219 L 99.1875,-116.219
 L 99.1875,-115.781 L 99.3125,-115.781 L 99.3125,-115.531 L 99.0625,-115.531 L 99.0625,-115.656 L 98.5,-115.656
 L 98.5,-90.3438 L 99.0625,-90.3438 L 99.0625,-90.4688 L 99.3125,-90.4688 L 99.3125,-90.2188 L 99.1875,-90.2188
 L 99.1875,-89.7812 L 99.3125,-89.7812 L 99.3125,-89.5312 L 99.0625,-89.5312 L 99.0625,-89.6562 L 98.5,-89.6562
 L 98.5,-40.3438 L 99.0625,-40.3438 L 99.0625,-40.4688 L 99.3125,-40.4688 L 99.3125,-40.2188 L 99.1875,-40.2188
 L 99.1875,-39.7812 L 99.3125,-39.7812 L 99.3125,-39.5312 L 99.0625,-39.5312 L 99.0625,-39.6562 L 98.5,-39.6562
 L 98.5,-39 L 103.5,-39 L 103.5,-2 L 107.5,-2 z
M 122.375,-3.0625 L 122.5,-3.0625 L 122.5,-3.5625 L 122.375,-3.5625 L 122.375,-4.04167 L 123,-3
 L 124,-3 L 124,-3.625 L 123.5,-3.625 L 123.5,-4.43332 L 122.375,-6.30832 L 122.375,-8.3802
 L 122.5,-8.3802 L 122.5,-8.8802 L 122.375,-8.8802 L 122.375,-9.0052 L 123,-9.0052 L 123,-14.9479
 L 122.375,-14.9479 L 122.375,-15.0729 L 122.5,-15.0729 L 122.5,-15.5729 L 122.375,-15.5729 L 122.375,-20.3906
 L 122.5,-20.3906 L 122.5,-20.8906 L 122.375,-20.8906 L 122.375,-21.0156 L 123,-21.0156 L 123,-26.9583
 L 122.375,-26.9583 L 122.375,-27.0833 L 122.5,-27.0833 L 122.5,-27.5833 L 122.375,-27.5833 L 122.375,-32.401
 L 122.5,-32.401 L 122.5,-32.901 L 122.375,-32.901 L 122.375,-33.026 L 123,-33.026 L 123,-38.9687
 L 122.375,-38.9687 L 122.375,-39.0937 L 122.5,-39.0937 L 122.5,-39.5937 L 122.375,-39.5937 L 122.375,-44.4115
 L 122.5,-44.4115 L 122.5,-44.9115 L 122.375,-44.9115 L 122.375,-45.0365 L 123,-45.0365 L 123,-50.9792
 L 122.375,-50.9792 L 122.375,-51.1042 L 122.5,-51.1042 L 122.5,-51.6042 L 122.375,-51.6042 L 122.375,-56.4219
 L 122.5,-56.4219 L 122.5,-56.9219 L 122.375,-56.9219 L 122.375,-57.0469 L 123,-57.0469 L 123,-62.9896
 L 122.375,-62.9896 L 122.375,-63.1146 L 122.5,-63.1146 L 122.5,-63.6146 L 122.375,-63.6146 L 122.375,-68.4323
 L 122.5,-68.4323 L 122.5,-68.9323 L 122.375,-68.9323 L 122.375,-69.0573 L 123,-69.0573 L 123,-75
 L 117,-75 L 117,-3 L 122.375,-3 z
M 115.875,-3.0625 L 116,-3.0625 L 116,-3.5625 L 115.875,-3.5625 L 115.875,-8.3802 L 116,-8.3802
 L 116,-8.8802 L 115.875,-8.8802 L 115.875,-9.0052 L 116.5,-9.0052 L 116.5,-14.9479 L 115.875,-14.9479
 L 115.875,-15.0729 L 116,-15.0729 L 116,-15.5729 L 115.875,-15.5729 L 115.875,-20.3906 L 116,-20.3906
 L 116,-20.8906 L 115.875,-20.8906 L 115.875,-21.0156 L 116.5,-21.0156 L 116.5,-26.9583 L 115.875,-26.9583
 L 115.875,-27.0833 L 116,-27.0833 L 116,-27.5833 L 115.875,-27.5833 L 115.875,-32.401 L 116,-32.401
 L 116,-32.901 L 115.875,-32.901 L 115.875,-33.026 L 116.5,-33.026 L 116.5,-38.9687 L 115.875,-38.9687
 L 115.875,-39.0937 L 116,-39.0937 L 116,-39.5937 L 115.875,-39.5937 L 115.875,-44.4115 L 116,-44.4115
 L 116,-44.9115 L 115.875,-44.9115 L 115.875,-45.0365 L 116.5,-45.0365 L 116.5,-50.9792 L 115.875,-50.9792
 L 115.875,-51.1042 L 116,-51.1042 L 116,-51.6042 L 115.875,-51.6042 L 115.875,-56.4219 L 116,-56.4219
 L 116,-56.9219 L 115.875,-56.9219 L 115.875,-57.0469 L 116.5,-57.0469 L 116.5,-62.9896 L 115.875,-62.9896
 L 115.875,-63.1146 L 116,-63.1146 L 116,-63.6146 L 115.875,-63.6146 L 115.875,-68.4323 L 116,-68.4323
 L 116,-68.9323 L 115.875,-68.9323 L 115.875,-69.0573 L 116.5,-69.0573 L 116.5,-75 L 110.5,-75
 L 110.5,-3 L 115.875,-3 z
M 171.875,-24.7704 L 172,-24.7704 L 172,-25.2704 L 171.875,-25.2704 L 171.875,-31.9439 L 172,-31.9439
 L 172,-32.4439 L 171.875,-32.4439 L 171.875,-32.6939 L 172.5,-32.6939 L 172.5,-40.8673 L 171.875,-40.8673
 L 171.875,-41.1173 L 172,-41.1173 L 172,-41.6173 L 171.875,-41.6173 L 171.875,-48.2908 L 172,-48.2908
 L 172,-48.7908 L 171.875,-48.7908 L 171.875,-49.0408 L 172.5,-49.0408 L 172.5,-57.2143 L 171.875,-57.2143
 L 171.875,-57.4643 L 172,-57.4643 L 172,-57.9643 L 171.875,-57.9643 L 171.875,-64.6377 L 172,-64.6377
 L 172,-65.1377 L 171.875,-65.1377 L 171.875,-65.3877 L 172.5,-65.3877 L 172.5,-73.5612 L 166.5,-73.5612
 L 166.5,-65.3877 L 167.125,-65.3877 L 167.125,-65.1377 L 167,-65.1377 L 167,-64.6377 L 167.125,-64.6377
 L 167.125,-57.9643 L 167,-57.9643 L 167,-57.4643 L 167.125,-57.4643 L 167.125,-57.2143 L 166.5,-57.2143
 L 166.5,-49.0408 L 167.125,-49.0408 L 167.125,-48.7908 L 167,-48.7908 L 167,-48.2908 L 167.125,-48.2908
 L 167.125,-41.6173 L 167,-41.6173 L 167,-41.1173 L 167.125,-41.1173 L 167.125,-40.8673 L 166.5,-40.8673
 L 166.5,-32.6939 L 167.125,-32.6939 L 167.125,-32.4439 L 167,-32.4439 L 167,-31.9439 L 167.125,-31.9439
 L 167.125,-25.2704 L 167,-25.2704 L 167,-24.7704 L 167.125,-24.7704 L 167.125,-24.5204 L 171.875,-24.5204
 z
M 169.413,-59.9105 L 169.329,-59.933 L 169.25,-59.9699 L 169.179,-60.0199 L 169.117,-60.0815 L 169.067,-60.1529
 L 169.03,-60.2319 L 169.008,-60.3161 L 169,-60.4029 L 169,-60.6629 L 169.008,-60.7497 L 169.03,-60.8339
 L 169.067,-60.9129 L 169.117,-60.9843 L 169.179,-61.0459 L 169.25,-61.0959 L 169.329,-61.1327 L 169.413,-61.1553
 L 169.5,-61.1629 L 169.587,-61.1553 L 169.671,-61.1327 L 169.75,-61.0959 L 169.821,-61.0459 L 169.883,-60.9843
 L 169.933,-60.9129 L 169.97,-60.8339 L 169.992,-60.7497 L 170,-60.6629 L 170,-60.4029 L 169.992,-60.3161
 L 169.97,-60.2319 L 169.933,-60.1529 L 169.883,-60.0815 L 169.821,-60.0199 L 169.75,-59.9699 L 169.671,-59.933
 L 169.587,-59.9105 L 169.5,-59.9029 z
M 169.413,-52.9105 L 169.329,-52.933 L 169.25,-52.9699 L 169.179,-53.0199 L 169.117,-53.0815 L 169.067,-53.1529
 L 169.03,-53.2319 L 169.008,-53.3161 L 169,-53.4029 L 169,-53.6629 L 169.008,-53.7497 L 169.03,-53.8339
 L 169.067,-53.9129 L 169.117,-53.9843 L 169.179,-54.0459 L 169.25,-54.0959 L 169.329,-54.1327 L 169.413,-54.1553
 L 169.5,-54.1629 L 169.587,-54.1553 L 169.671,-54.1327 L 169.75,-54.0959 L 169.821,-54.0459 L 169.883,-53.9843
 L 169.933,-53.9129 L 169.97,-53.8339 L 169.992,-53.7497 L 170,-53.6629 L 170,-53.4029 L 169.992,-53.3161
 L 169.97,-53.2319 L 169.933,-53.1529 L 169.883,-53.0815 L 169.821,-53.0199 L 169.75,-52.9699 L 169.671,-52.933
 L 169.587,-52.9105 L 169.5,-52.9029 z
M 178,-32.6939 L 177.375,-32.6939 L 177.375,-32.9439 L 177.5,-32.9439 L 177.5,-33.4439 L 177.375,-33.4439
 L 177.375,-40.1173 L 177.5,-40.1173 L 177.5,-40.6173 L 177.375,-40.6173 L 177.375,-40.8673 L 178,-40.8673
 L 178,-49.0408 L 177.375,-49.0408 L 177.375,-49.2908 L 177.5,-49.2908 L 177.5,-49.7908 L 177.375,-49.7908
 L 177.375,-56.4643 L 177.5,-56.4643 L 177.5,-56.9643 L 177.375,-56.9643 L 177.375,-57.2143 L 178,-57.2143
 L 178,-65.3877 L 177.375,-65.3877 L 177.375,-65.6377 L 177.5,-65.6377 L 177.5,-66.1377 L 177.375,-66.1377
 L 177.375,-72.8112 L 177.5,-72.8112 L 177.5,-73.3112 L 177.375,-73.3112 L 177.375,-73.5612 L 174.031,-73.5612
 L 174.031,-73.1549 L 174.156,-73.1549 L 174.156,-72.9049 L 173.906,-72.9049 L 173.906,-73.0299 L 173.5,-73.0299
 L 173.5,-67.7612 L 174.9,-67.7612 L 174.9,-61.3612 L 173.5,-61.3612 L 173.5,-50.5641 L 173.906,-50.5641
 L 173.906,-50.6891 L 174.156,-50.6891 L 174.156,-50.4391 L 174.031,-50.4391 L 174.031,-50.1266 L 174.156,-50.1266
 L 174.156,-49.8766 L 173.906,-49.8766 L 173.906,-50.0016 L 173.5,-50.0016 L 173.5,-25.0516 L 173.906,-25.0516
 L 173.906,-25.1766 L 174.156,-25.1766 L 174.156,-24.9266 L 174.031,-24.9266 L 174.031,-24.5204 L 178,-24.5204
 z
M 175.934,-71.687 L 175.87,-71.7041 L 175.81,-71.7321 L 175.756,-71.7701 L 175.709,-71.8169 L 175.671,-71.8712
 L 175.643,-71.9312 L 175.626,-71.9952 L 175.62,-72.0612 L 175.626,-72.1272 L 175.643,-72.1912 L 175.671,-72.2512
 L 175.709,-72.3055 L 175.756,-72.3523 L 175.81,-72.3903 L 175.87,-72.4183 L 175.934,-72.4354 L 176,-72.4412
 L 176.066,-72.4354 L 176.13,-72.4183 L 176.19,-72.3903 L 176.244,-72.3523 L 176.291,-72.3055 L 176.329,-72.2512
 L 176.357,-72.1912 L 176.374,-72.1272 L 176.38,-72.0612 L 176.374,-71.9952 L 176.357,-71.9312 L 176.329,-71.8712
 L 176.291,-71.8169 L 176.244,-71.7701 L 176.19,-71.7321 L 176.13,-71.7041 L 176.066,-71.687 L 176,-71.6812
 z
M 175.934,-68.687 L 175.87,-68.7041 L 175.81,-68.7321 L 175.756,-68.7701 L 175.709,-68.8169 L 175.671,-68.8712
 L 175.643,-68.9312 L 175.626,-68.9952 L 175.62,-69.0612 L 175.626,-69.1272 L 175.643,-69.1912 L 175.671,-69.2512
 L 175.709,-69.3055 L 175.756,-69.3523 L 175.81,-69.3903 L 175.87,-69.4183 L 175.934,-69.4354 L 176,-69.4412
 L 176.066,-69.4354 L 176.13,-69.4183 L 176.19,-69.3903 L 176.244,-69.3523 L 176.291,-69.3055 L 176.329,-69.2512
 L 176.357,-69.1912 L 176.374,-69.1272 L 176.38,-69.0612 L 176.374,-68.9952 L 176.357,-68.9312 L 176.329,-68.8712
 L 176.291,-68.8169 L 176.244,-68.7701 L 176.19,-68.7321 L 176.13,-68.7041 L 176.066,-68.687 L 176,-68.6812
 z
M 175.913,-59.038 L 175.828,-59.0607 L 175.749,-59.0977 L 175.677,-59.1479 L 175.615,-59.2099 L 175.565,-59.2816
 L 175.528,-59.361 L 175.505,-59.4456 L 175.497,-59.5329 L 175.505,-59.6201 L 175.528,-59.7048 L 175.565,-59.7841
 L 175.615,-59.8559 L 175.677,-59.9178 L 175.749,-59.9681 L 175.828,-60.0051 L 175.913,-60.0278 L 176,-60.0354
 L 176.087,-60.0278 L 176.172,-60.0051 L 176.251,-59.9681 L 176.323,-59.9178 L 176.385,-59.8559 L 176.435,-59.7841
 L 176.472,-59.7048 L 176.495,-59.6201 L 176.502,-59.5329 L 176.495,-59.4456 L 176.472,-59.361 L 176.435,-59.2816
 L 176.385,-59.2099 L 176.323,-59.1479 L 176.251,-59.0977 L 176.172,-59.0607 L 176.087,-59.038 L 176,-59.0304
 z
M 175.913,-56.038 L 175.828,-56.0607 L 175.749,-56.0977 L 175.677,-56.1479 L 175.615,-56.2099 L 175.565,-56.2816
 L 175.528,-56.361 L 175.505,-56.4456 L 175.497,-56.5329 L 175.505,-56.6201 L 175.528,-56.7048 L 175.565,-56.7841
 L 175.615,-56.8559 L 175.677,-56.9178 L 175.749,-56.9681 L 175.828,-57.0051 L 175.913,-57.0278 L 176,-57.0354
 L 176.087,-57.0278 L 176.172,-57.0051 L 176.251,-56.9681 L 176.323,-56.9178 L 176.385,-56.8559 L 176.435,-56.7841
 L 176.472,-56.7048 L 176.495,-56.6201 L 176.502,-56.5329 L 176.495,-56.4456 L 176.472,-56.361 L 176.435,-56.2816
 L 176.385,-56.2099 L 176.323,-56.1479 L 176.251,-56.0977 L 176.172,-56.0607 L 176.087,-56.038 L 176,-56.0304
 z
M 175.913,-52.038 L 175.828,-52.0607 L 175.749,-52.0977 L 175.677,-52.1479 L 175.615,-52.2099 L 175.565,-52.2816
 L 175.528,-52.361 L 175.505,-52.4456 L 175.497,-52.5329 L 175.505,-52.6201 L 175.528,-52.7048 L 175.565,-52.7841
 L 175.615,-52.8559 L 175.677,-52.9178 L 175.749,-52.9681 L 175.828,-53.0051 L 175.913,-53.0278 L 176,-53.0354
 L 176.087,-53.0278 L 176.172,-53.0051 L 176.251,-52.9681 L 176.323,-52.9178 L 176.385,-52.8559 L 176.435,-52.7841
 L 176.472,-52.7048 L 176.495,-52.6201 L 176.502,-52.5329 L 176.495,-52.4456 L 176.472,-52.361 L 176.435,-52.2816
 L 176.385,-52.2099 L 176.323,-52.1479 L 176.251,-52.0977 L 176.172,-52.0607 L 176.087,-52.038 L 176,-52.0304
 z
M 175.934,-30.1462 L 175.87,-30.1633 L 175.81,-30.1913 L 175.756,-30.2293 L 175.709,-30.2761 L 175.671,-30.3304
 L 175.643,-30.3904 L 175.626,-30.4544 L 175.62,-30.5204 L 175.626,-30.5864 L 175.643,-30.6504 L 175.671,-30.7104
 L 175.709,-30.7646 L 175.756,-30.8115 L 175.81,-30.8495 L 175.87,-30.8775 L 175.934,-30.8946 L 176,-30.9004
 L 176.066,-30.8946 L 176.13,-30.8775 L 176.19,-30.8495 L 176.244,-30.8115 L 176.291,-30.7646 L 176.329,-30.7104
 L 176.357,-30.6504 L 176.374,-30.5864 L 176.38,-30.5204 L 176.374,-30.4544 L 176.357,-30.3904 L 176.329,-30.3304
 L 176.291,-30.2761 L 176.244,-30.2293 L 176.19,-30.1913 L 176.13,-30.1633 L 176.066,-30.1462 L 176,-30.1404
 z
M 175.934,-26.1462 L 175.87,-26.1633 L 175.81,-26.1913 L 175.756,-26.2293 L 175.709,-26.2761 L 175.671,-26.3304
 L 175.643,-26.3904 L 175.626,-26.4544 L 175.62,-26.5204 L 175.626,-26.5864 L 175.643,-26.6504 L 175.671,-26.7104
 L 175.709,-26.7646 L 175.756,-26.8115 L 175.81,-26.8495 L 175.87,-26.8775 L 175.934,-26.8946 L 176,-26.9004
 L 176.066,-26.8946 L 176.13,-26.8775 L 176.19,-26.8495 L 176.244,-26.8115 L 176.291,-26.7646 L 176.329,-26.7104
 L 176.357,-26.6504 L 176.374,-26.5864 L 176.38,-26.5204 L 176.374,-26.4544 L 176.357,-26.3904 L 176.329,-26.3304
 L 176.291,-26.2761 L 176.244,-26.2293 L 176.19,-26.1913 L 176.13,-26.1633 L 176.066,-26.1462 L 176,-26.1404
 z
M 245.75,-18.2431 L 245.75,-37.7569 L 208.75,-56 L 208.75,-0 z
M 280.794,-16 L 280.794,-40 L 246.75,-56 L 246.75,-0 z
M 30.75,-26.625 L 30.875,-26.625 L 30.875,-26.5 L 31.125,-26.5 L 31.125,-26.625 L 34.375,-26.625
 L 34.375,-26.5 L 34.625,-26.5 L 34.625,-26.625 L 34.75,-26.625 L 34.75,-26 L 35.5,-26
 L 35.5,-32.2188 L 35.25,-32.2188 L 35.25,-32.125 L 34.625,-32.125 L 34.625,-32.375 L 34.7188,-32.375
 L 34.7188,-32.625 L 34.625,-32.625 L 34.625,-32.875 L 35.25,-32.875 L 35.25,-32.7812 L 35.5,-32.7812
 L 35.5,-38.2188 L 35.25,-38.2188 L 35.25,-38.125 L 34.625,-38.125 L 34.625,-38.375 L 34.7188,-38.375
 L 34.7188,-38.625 L 34.625,-38.625 L 34.625,-38.875 L 35.25,-38.875 L 35.25,-38.7812 L 35.5,-38.7812
 L 35.5,-44.2188 L 35.25,-44.2188 L 35.25,-44.125 L 34.625,-44.125 L 34.625,-44.375 L 34.7188,-44.375
 L 34.7188,-44.625 L 34.625,-44.625 L 34.625,-44.875 L 35.25,-44.875 L 35.25,-44.7812 L 35.5,-44.7812
 L 35.5,-51 L 34.75,-51 L 34.75,-50.375 L 34.625,-50.375 L 34.625,-50.5 L 34.375,-50.5
 L 34.375,-50.375 L 31.125,-50.375 L 31.125,-50.5 L 30.875,-50.5 L 30.875,-50.375 L 30.75,-50.375
 L 30.75,-51 L 30,-51 L 30,-26 L 30.75,-26 z
M 30.375,-44.125 L 30.375,-44.375 L 30.4688,-44.375 L 30.4688,-44.625 L 30.375,-44.625 L 30.375,-44.875
 L 30.75,-44.875 L 30.75,-44.7812 L 31,-44.7812 L 31,-44.875 L 31.375,-44.875 L 31.375,-44.625
 L 31.2812,-44.625 L 31.2812,-44.375 L 31.375,-44.375 L 31.375,-44.125 L 31,-44.125 L 31,-44.2188
 L 30.75,-44.2188 L 30.75,-44.125 z
M 30.375,-38.125 L 30.375,-38.375 L 30.4688,-38.375 L 30.4688,-38.625 L 30.375,-38.625 L 30.375,-38.875
 L 30.75,-38.875 L 30.75,-38.7812 L 31,-38.7812 L 31,-38.875 L 31.375,-38.875 L 31.375,-38.625
 L 31.2812,-38.625 L 31.2812,-38.375 L 31.375,-38.375 L 31.375,-38.125 L 31,-38.125 L 31,-38.2188
 L 30.75,-38.2188 L 30.75,-38.125 z
M 30.375,-32.125 L 30.375,-32.375 L 30.4688,-32.375 L 30.4688,-32.625 L 30.375,-32.625 L 30.375,-32.875
 L 30.75,-32.875 L 30.75,-32.7812 L 31,-32.7812 L 31,-32.875 L 31.375,-32.875 L 31.375,-32.625
 L 31.2812,-32.625 L 31.2812,-32.375 L 31.375,-32.375 L 31.375,-32.125 L 31,-32.125 L 31,-32.2188
 L 30.75,-32.2188 L 30.75,-32.125 z
M 135.5,-16.6942 L 134.875,-16.6942 L 134.875,-16.8192 L 135,-16.8192 L 135,-45.9576 L 134.875,-45.9576
 L 134.875,-46.0826 L 135.5,-46.0826 L 135.5,-47.0826 L 132,-47.0826 L 132,-15.6942 L 135.5,-15.6942
 z
M 156.5,-4 L 155.875,-4 L 155.875,-5 L 156,-5 L 156,-6 L 155.875,-6
 L 155.875,-18.0942 L 156,-18.0942 L 156,-19.0942 L 155.875,-19.0942 L 155.875,-20.0942 L 156.5,-20.0942
 L 156.5,-22.0942 L 155.875,-22.0942 L 155.875,-23.0942 L 156,-23.0942 L 156,-24.0942 L 155.875,-24.0942
 L 155.875,-36.1884 L 156,-36.1884 L 156,-37.1884 L 155.875,-37.1884 L 155.875,-38.1884 L 156.5,-38.1884
 L 156.5,-42.1884 L 153,-42.1884 L 153,-0 L 156.5,-0 z
M 154.413,-39.696 L 154.329,-39.7186 L 154.25,-39.7554 L 154.179,-39.8054 L 154.117,-39.867 L 154.067,-39.9384
 L 154.03,-40.0174 L 154.008,-40.1016 L 154,-40.1884 L 154.008,-40.2752 L 154.03,-40.3594 L 154.067,-40.4384
 L 154.117,-40.5098 L 154.179,-40.5714 L 154.25,-40.6214 L 154.329,-40.6582 L 154.413,-40.6808 L 154.5,-40.6884
 L 154.587,-40.6808 L 154.671,-40.6582 L 154.75,-40.6214 L 154.821,-40.5714 L 154.883,-40.5098 L 154.933,-40.4384
 L 154.97,-40.3594 L 154.992,-40.2752 L 155,-40.1884 L 154.992,-40.1016 L 154.97,-40.0174 L 154.933,-39.9384
 L 154.883,-39.867 L 154.821,-39.8054 L 154.75,-39.7554 L 154.671,-39.7186 L 154.587,-39.696 L 154.5,-39.6884
 z
M 154.413,-1.50758 L 154.329,-1.53015 L 154.25,-1.56699 L 154.179,-1.61697 L 154.117,-1.6786 L 154.067,-1.75
 L 154.03,-1.82898 L 154.008,-1.91316 L 154,-2 L 154.008,-2.08682 L 154.03,-2.17101 L 154.067,-2.25
 L 154.117,-2.32138 L 154.179,-2.38301 L 154.25,-2.433 L 154.329,-2.46983 L 154.413,-2.4924 L 154.5,-2.5
 L 154.587,-2.4924 L 154.671,-2.46983 L 154.75,-2.433 L 154.821,-2.38301 L 154.883,-2.32138 L 154.933,-2.25
 L 154.97,-2.17101 L 154.992,-2.08682 L 155,-2 L 154.992,-1.91316 L 154.97,-1.82898 L 154.933,-1.75
 L 154.883,-1.6786 L 154.821,-1.61697 L 154.75,-1.56699 L 154.671,-1.53015 L 154.587,-1.50758 L 154.5,-1.5
 z
M 141,-21.9067 L 141.438,-21.9067 L 141.438,-22.0317 L 141.688,-22.0317 L 141.688,-21.7817 L 141.562,-21.7817
 L 141.562,-19.9067 L 141.688,-19.9067 L 141.688,-19.6567 L 141.438,-19.6567 L 141.438,-19.7817 L 141,-19.7817
 L 141,-3.75 L 141.625,-3.75 L 141.625,-3.625 L 141.5,-3.625 L 141.5,-2.625 L 141.625,-2.625
 L 141.625,-0.875 L 141.5,-0.875 L 141.5,-0.340897 L 146.5,-3.75 L 152,-3.75 L 152,-37.9384
 L 146.5,-37.9384 L 141.5,-41.3475 L 141.5,-40.8134 L 141.625,-40.8134 L 141.625,-39.0634 L 141.5,-39.0634
 L 141.5,-38.0634 L 141.625,-38.0634 L 141.625,-37.9384 L 141,-37.9384 z
M 142.913,-34.9435 L 142.828,-34.9662 L 142.749,-35.0032 L 142.677,-35.0535 L 142.615,-35.1154 L 142.565,-35.1871
 L 142.528,-35.2665 L 142.505,-35.3511 L 142.497,-35.4384 L 142.505,-35.5257 L 142.528,-35.6103 L 142.565,-35.6896
 L 142.615,-35.7614 L 142.677,-35.8233 L 142.749,-35.8736 L 142.828,-35.9106 L 142.913,-35.9333 L 143,-35.9409
 L 143.087,-35.9333 L 143.172,-35.9106 L 143.251,-35.8736 L 143.323,-35.8233 L 143.385,-35.7614 L 143.435,-35.6896
 L 143.472,-35.6103 L 143.495,-35.5257 L 143.502,-35.4384 L 143.495,-35.3511 L 143.472,-35.2665 L 143.435,-35.1871
 L 143.385,-35.1154 L 143.323,-35.0535 L 143.251,-35.0032 L 143.172,-34.9662 L 143.087,-34.9435 L 143,-34.9359
 z
M 145.913,-34.9435 L 145.828,-34.9662 L 145.749,-35.0032 L 145.677,-35.0535 L 145.615,-35.1154 L 145.565,-35.1871
 L 145.528,-35.2665 L 145.505,-35.3511 L 145.497,-35.4384 L 145.505,-35.5257 L 145.528,-35.6103 L 145.565,-35.6896
 L 145.615,-35.7614 L 145.677,-35.8233 L 145.749,-35.8736 L 145.828,-35.9106 L 145.913,-35.9333 L 146,-35.9409
 L 146.087,-35.9333 L 146.172,-35.9106 L 146.251,-35.8736 L 146.323,-35.8233 L 146.385,-35.7614 L 146.435,-35.6896
 L 146.472,-35.6103 L 146.495,-35.5257 L 146.502,-35.4384 L 146.495,-35.3511 L 146.472,-35.2665 L 146.435,-35.1871
 L 146.385,-35.1154 L 146.323,-35.0535 L 146.251,-35.0032 L 146.172,-34.9662 L 146.087,-34.9435 L 146,-34.9359
 z
M 149.913,-34.9435 L 149.828,-34.9662 L 149.749,-35.0032 L 149.677,-35.0535 L 149.615,-35.1154 L 149.565,-35.1871
 L 149.528,-35.2665 L 149.505,-35.3511 L 149.497,-35.4384 L 149.505,-35.5257 L 149.528,-35.6103 L 149.565,-35.6896
 L 149.615,-35.7614 L 149.677,-35.8233 L 149.749,-35.8736 L 149.828,-35.9106 L 149.913,-35.9333 L 150,-35.9409
 L 150.087,-35.9333 L 150.172,-35.9106 L 150.251,-35.8736 L 150.323,-35.8233 L 150.385,-35.7614 L 150.435,-35.6896
 L 150.472,-35.6103 L 150.495,-35.5257 L 150.502,-35.4384 L 150.495,-35.3511 L 150.472,-35.2665 L 150.435,-35.1871
 L 150.385,-35.1154 L 150.323,-35.0535 L 150.251,-35.0032 L 150.172,-34.9662 L 150.087,-34.9435 L 150,-34.9359
 z
M 144.062,-32.8129 L 144.062,-33.0629 L 144.188,-33.0629 L 144.188,-33.9379 L 144.062,-33.9379 L 144.062,-34.1879
 L 144.312,-34.1879 L 144.312,-34.0629 L 144.688,-34.0629 L 144.688,-34.1879 L 144.938,-34.1879 L 144.938,-33.9379
 L 144.812,-33.9379 L 144.812,-33.0629 L 144.938,-33.0629 L 144.938,-32.8129 L 144.688,-32.8129 L 144.688,-32.9379
 L 144.312,-32.9379 L 144.312,-32.8129 z
M 144.062,-7.50044 L 144.062,-7.75044 L 144.188,-7.75044 L 144.188,-8.62544 L 144.062,-8.62544 L 144.062,-8.87544
 L 144.312,-8.87544 L 144.312,-8.75044 L 144.688,-8.75044 L 144.688,-8.87544 L 144.938,-8.87544 L 144.938,-8.62544
 L 144.812,-8.62544 L 144.812,-7.75044 L 144.938,-7.75044 L 144.938,-7.50044 L 144.688,-7.50044 L 144.688,-7.62544
 L 144.312,-7.62544 L 144.312,-7.50044 z
M 142.913,-5.75513 L 142.828,-5.7778 L 142.749,-5.81482 L 142.677,-5.86505 L 142.615,-5.92699 L 142.565,-5.99875
 L 142.528,-6.07812 L 142.505,-6.16273 L 142.497,-6.25 L 142.505,-6.33725 L 142.528,-6.42186 L 142.565,-6.50124
 L 142.615,-6.573 L 142.677,-6.63493 L 142.749,-6.68517 L 142.828,-6.72218 L 142.913,-6.74486 L 143,-6.75249
 L 143.087,-6.74486 L 143.172,-6.72218 L 143.251,-6.68517 L 143.323,-6.63493 L 143.385,-6.573 L 143.435,-6.50124
 L 143.472,-6.42186 L 143.495,-6.33725 L 143.502,-6.25 L 143.495,-6.16273 L 143.472,-6.07812 L 143.435,-5.99875
 L 143.385,-5.92699 L 143.323,-5.86505 L 143.251,-5.81482 L 143.172,-5.7778 L 143.087,-5.75513 L 143,-5.7475
 z
M 145.913,-5.75513 L 145.828,-5.7778 L 145.749,-5.81482 L 145.677,-5.86505 L 145.615,-5.92699 L 145.565,-5.99875
 L 145.528,-6.07812 L 145.505,-6.16273 L 145.497,-6.25 L 145.505,-6.33725 L 145.528,-6.42186 L 145.565,-6.50124
 L 145.615,-6.573 L 145.677,-6.63493 L 145.749,-6.68517 L 145.828,-6.72218 L 145.913,-6.74486 L 146,-6.75249
 L 146.087,-6.74486 L 146.172,-6.72218 L 146.251,-6.68517 L 146.323,-6.63493 L 146.385,-6.573 L 146.435,-6.50124
 L 146.472,-6.42186 L 146.495,-6.33725 L 146.502,-6.25 L 146.495,-6.16273 L 146.472,-6.07812 L 146.435,-5.99875
 L 146.385,-5.92699 L 146.323,-5.86505 L 146.251,-5.81482 L 146.172,-5.7778 L 146.087,-5.75513 L 146,-5.7475
 z
M 149.913,-5.75513 L 149.828,-5.7778 L 149.749,-5.81482 L 149.677,-5.86505 L 149.615,-5.92699 L 149.565,-5.99875
 L 149.528,-6.07812 L 149.505,-6.16273 L 149.497,-6.25 L 149.505,-6.33725 L 149.528,-6.42186 L 149.565,-6.50124
 L 149.615,-6.573 L 149.677,-6.63493 L 149.749,-6.68517 L 149.828,-6.72218 L 149.913,-6.74486 L 150,-6.75249
 L 150.087,-6.74486 L 150.172,-6.72218 L 150.251,-6.68517 L 150.323,-6.63493 L 150.385,-6.573 L 150.435,-6.50124
 L 150.472,-6.42186 L 150.495,-6.33725 L 150.502,-6.25 L 150.495,-6.16273 L 150.472,-6.07812 L 150.435,-5.99875
 L 150.385,-5.92699 L 150.323,-5.86505 L 150.251,-5.81482 L 150.172,-5.7778 L 150.087,-5.75513 L 150,-5.7475
 z
M 283.044,-1.5 L 283.051,-1.58682 L 283.074,-1.67101 L 283.111,-1.75 L 283.161,-1.82138 L 283.222,-1.88301
 L 283.294,-1.933 L 283.373,-1.96983 L 283.457,-1.9924 L 283.544,-2 L 283.631,-1.9924 L 283.715,-1.96983
 L 283.794,-1.933 L 283.865,-1.88301 L 283.927,-1.82138 L 283.977,-1.75 L 284.014,-1.67101 L 284.036,-1.58682
 L 284.044,-1.5 L 284.044,-0 L 295.544,-0 L 295.544,-1.5 L 295.551,-1.58682 L 295.574,-1.67101
 L 295.611,-1.75 L 295.661,-1.82138 L 295.722,-1.88301 L 295.794,-1.933 L 295.873,-1.96983 L 295.957,-1.9924
 L 296.044,-2 L 296.131,-1.9924 L 296.215,-1.96983 L 296.294,-1.933 L 296.365,-1.88301 L 296.427,-1.82138
 L 296.477,-1.75 L 296.514,-1.67101 L 296.536,-1.58682 L 296.544,-1.5 L 296.544,-0 L 297.794,-0
 L 297.794,-41.1884 L 296.544,-41.1884 L 296.544,-39.6884 L 296.536,-39.6016 L 296.514,-39.5174 L 296.477,-39.4384
 L 296.427,-39.367 L 296.365,-39.3054 L 296.294,-39.2554 L 296.215,-39.2186 L 296.131,-39.196 L 296.044,-39.1884
 L 295.957,-39.196 L 295.873,-39.2186 L 295.794,-39.2554 L 295.722,-39.3054 L 295.661,-39.367 L 295.611,-39.4384
 L 295.574,-39.5174 L 295.551,-39.6016 L 295.544,-39.6884 L 295.544,-41.1884 L 284.044,-41.1884 L 284.044,-39.6884
 L 284.036,-39.6016 L 284.014,-39.5174 L 283.977,-39.4384 L 283.927,-39.367 L 283.865,-39.3054 L 283.794,-39.2554
 L 283.715,-39.2186 L 283.631,-39.196 L 283.544,-39.1884 L 283.457,-39.196 L 283.373,-39.2186 L 283.294,-39.2554
 L 283.222,-39.3054 L 283.161,-39.367 L 283.111,-39.4384 L 283.074,-39.5174 L 283.051,-39.6016 L 283.044,-39.6884
 L 283.044,-41.1884 L 281.794,-41.1884 L 281.794,-0 L 283.044,-0 z
M 300.294,-1.5 L 300.301,-1.58682 L 300.324,-1.67101 L 300.361,-1.75 L 300.411,-1.82138 L 300.472,-1.88301
 L 300.544,-1.933 L 300.623,-1.96983 L 300.707,-1.9924 L 300.794,-2 L 300.881,-1.9924 L 300.965,-1.96983
 L 301.044,-1.933 L 301.115,-1.88301 L 301.177,-1.82138 L 301.227,-1.75 L 301.264,-1.67101 L 301.286,-1.58682
 L 301.294,-1.5 L 301.294,-0 L 303.294,-0 L 303.294,-1.5 L 303.301,-1.58682 L 303.324,-1.67101
 L 303.361,-1.75 L 303.411,-1.82138 L 303.472,-1.88301 L 303.544,-1.933 L 303.623,-1.96983 L 303.707,-1.9924
 L 303.794,-2 L 303.881,-1.9924 L 303.965,-1.96983 L 304.044,-1.933 L 304.115,-1.88301 L 304.177,-1.82138
 L 304.227,-1.75 L 304.264,-1.67101 L 304.286,-1.58682 L 304.294,-1.5 L 304.294,-0 L 310.794,-0
 L 310.794,-1.5 L 310.801,-1.58682 L 310.824,-1.67101 L 310.861,-1.75 L 310.911,-1.82138 L 310.972,-1.88301
 L 311.044,-1.933 L 311.123,-1.96983 L 311.207,-1.9924 L 311.294,-2 L 311.381,-1.9924 L 311.465,-1.96983
 L 311.544,-1.933 L 311.615,-1.88301 L 311.677,-1.82138 L 311.727,-1.75 L 311.764,-1.67101 L 311.786,-1.58682
 L 311.794,-1.5 L 311.794,-0 L 313.294,-0 L 313.294,-41.1884 L 311.794,-41.1884 L 311.794,-39.6884
 L 311.786,-39.6016 L 311.764,-39.5174 L 311.727,-39.4384 L 311.677,-39.367 L 311.615,-39.3054 L 311.544,-39.2554
 L 311.465,-39.2186 L 311.381,-39.196 L 311.294,-39.1884 L 311.207,-39.196 L 311.123,-39.2186 L 311.044,-39.2554
 L 310.972,-39.3054 L 310.911,-39.367 L 310.861,-39.4384 L 310.824,-39.5174 L 310.801,-39.6016 L 310.794,-39.6884
 L 310.794,-41.1884 L 301.294,-41.1884 L 301.294,-39.6884 L 301.286,-39.6016 L 301.264,-39.5174 L 301.227,-39.4384
 L 301.177,-39.367 L 301.115,-39.3054 L 301.044,-39.2554 L 300.965,-39.2186 L 300.881,-39.196 L 300.794,-39.1884
 L 300.707,-39.196 L 300.623,-39.2186 L 300.544,-39.2554 L 300.472,-39.3054 L 300.411,-39.367 L 300.361,-39.4384
 L 300.324,-39.5174 L 300.301,-39.6016 L 300.294,-39.6884 L 300.294,-41.1884 L 298.794,-41.1884 L 298.794,-0
 L 300.294,-0 z
M 207.75,-14.1562 L 207.125,-14.1562 L 207.125,-14.2812 L 207.25,-14.2812 L 207.25,-38.3438 L 207.125,-38.3438
 L 207.125,-38.4688 L 207.75,-38.4688 L 207.75,-39.4688 L 204.25,-39.4688 L 204.25,-13.1562 L 207.75,-13.1562
 z
M 28.4688,-20.1562 L 28.3438,-20.1562 L 28.3438,-20.4062 L 28.5938,-20.4062 L 28.5938,-20.2812 L 29,-20.2812
 L 29,-23.7188 L 28.5938,-23.7188 L 28.5938,-23.5938 L 28.3438,-23.5938 L 28.3438,-23.8438 L 28.4688,-23.8438
 L 28.4688,-24.4688 L 28.0938,-24.4688 L 28.0938,-24.3438 L 27.8438,-24.3438 L 27.8438,-24.5938 L 27.9688,-24.5938
 L 27.9688,-24.9062 L 27.8438,-24.9062 L 27.8438,-25.1562 L 28.4688,-25.1562 L 28.4688,-25.0312 L 29,-25.0312
 L 29,-30.9688 L 28.5938,-30.9688 L 28.5938,-30.8438 L 28.0938,-30.8438 L 28.0938,-31.0938 L 28.2188,-31.0938
 L 28.2188,-31.4062 L 28.0938,-31.4062 L 28.0938,-31.6562 L 28.3438,-31.6562 L 28.3438,-31.5312 L 28.4688,-31.5312
 L 28.4688,-31.9062 L 28.3438,-31.9062 L 28.3438,-32.1562 L 28.7188,-32.1562 L 28.7188,-32.0312 L 29,-32.0312
 L 29,-36.9688 L 28.5938,-36.9688 L 28.5938,-36.8438 L 28.3438,-36.8438 L 28.3438,-37.0938 L 28.4688,-37.0938
 L 28.4688,-37.4688 L 28.3438,-37.4688 L 28.3438,-37.3438 L 28.0938,-37.3438 L 28.0938,-37.5938 L 28.2188,-37.5938
 L 28.2188,-38 L 24.2812,-38 L 24.2812,-37.5938 L 24.4062,-37.5938 L 24.4062,-37.3438 L 23.9062,-37.3438
 L 23.9062,-37.4688 L 23,-37.4688 L 23,-32.5312 L 23.4062,-32.5312 L 23.4062,-32.6562 L 23.6562,-32.6562
 L 23.6562,-32.0312 L 23.5312,-32.0312 L 23.5312,-31.5312 L 24.0312,-31.5312 L 24.0312,-31.6562 L 24.4062,-31.6562
 L 24.4062,-31.4062 L 24.2812,-31.4062 L 24.2812,-31.0938 L 24.4062,-31.0938 L 24.4062,-30.8438 L 24.0312,-30.8438
 L 24.0312,-30.9688 L 23,-30.9688 L 23,-25.0312 L 23.4062,-25.0312 L 23.4062,-25.1562 L 23.6562,-25.1562
 L 23.6562,-24.9062 L 23.5312,-24.9062 L 23.5312,-24.5938 L 23.6562,-24.5938 L 23.6562,-24.3438 L 23.4062,-24.3438
 L 23.4062,-24.4688 L 23,-24.4688 L 23,-21.5312 L 23.4062,-21.5312 L 23.4062,-21.6562 L 23.6562,-21.6562
 L 23.6562,-21.4062 L 23.5312,-21.4062 L 23.5312,-19.5 L 28.4688,-19.5 z
M 26.4895,-21.5228 L 26.237,-21.5905 L 26,-21.701 L 25.7858,-21.8509 L 25.6009,-22.0358 L 25.451,-22.25
 L 25.3405,-22.487 L 25.2728,-22.7395 L 25.25,-23 L 25.2728,-23.2605 L 25.3405,-23.513 L 25.451,-23.75
 L 25.6009,-23.9642 L 25.7858,-24.1491 L 26,-24.299 L 26.237,-24.4095 L 26.4895,-24.4772 L 26.75,-24.5
 L 27.0105,-24.4772 L 27.263,-24.4095 L 27.5,-24.299 L 27.7142,-24.1491 L 27.8991,-23.9642 L 28.049,-23.75
 L 28.1595,-23.513 L 28.2272,-23.2605 L 28.25,-23 L 28.2272,-22.7395 L 28.1595,-22.487 L 28.049,-22.25
 L 27.8991,-22.0358 L 27.7142,-21.8509 L 27.5,-21.701 L 27.263,-21.5905 L 27.0105,-21.5228 L 26.75,-21.5
 z
M 75.5,-37 L 72.5,-37 L 72.5,-19 L 75.5,-19 z
M 73.83,-35.4769 L 73.6767,-35.555 L 73.555,-35.6767 L 73.4769,-35.83 L 73.45,-36 L 73.4769,-36.17
 L 73.555,-36.3233 L 73.6767,-36.4449 L 73.83,-36.5231 L 74,-36.55 L 74.17,-36.5231 L 74.3233,-36.4449
 L 74.4449,-36.3233 L 74.5231,-36.17 L 74.55,-36 L 74.5231,-35.83 L 74.4449,-35.6767 L 74.3233,-35.555
 L 74.17,-35.4769 L 74,-35.45 z
M 73.83,-32.4769 L 73.6767,-32.555 L 73.555,-32.6767 L 73.4769,-32.83 L 73.45,-33 L 73.4769,-33.17
 L 73.555,-33.3233 L 73.6767,-33.4449 L 73.83,-33.5231 L 74,-33.55 L 74.17,-33.5231 L 74.3233,-33.4449
 L 74.4449,-33.3233 L 74.5231,-33.17 L 74.55,-33 L 74.5231,-32.83 L 74.4449,-32.6767 L 74.3233,-32.555
 L 74.17,-32.4769 L 74,-32.45 z
M 73.83,-27.4769 L 73.6767,-27.555 L 73.555,-27.6767 L 73.4769,-27.83 L 73.45,-28 L 73.4769,-28.17
 L 73.555,-28.3233 L 73.6767,-28.4449 L 73.83,-28.5231 L 74,-28.55 L 74.17,-28.5231 L 74.3233,-28.4449
 L 74.4449,-28.3233 L 74.5231,-28.17 L 74.55,-28 L 74.5231,-27.83 L 74.4449,-27.6767 L 74.3233,-27.555
 L 74.17,-27.4769 L 74,-27.45 z
M 73.83,-22.4769 L 73.6767,-22.555 L 73.555,-22.6767 L 73.4769,-22.83 L 73.45,-23 L 73.4769,-23.17
 L 73.555,-23.3233 L 73.6767,-23.4449 L 73.83,-23.5231 L 74,-23.55 L 74.17,-23.5231 L 74.3233,-23.4449
 L 74.4449,-23.3233 L 74.5231,-23.17 L 74.55,-23 L 74.5231,-22.83 L 74.4449,-22.6767 L 74.3233,-22.555
 L 74.17,-22.4769 L 74,-22.45 z
M 73.83,-19.4769 L 73.6767,-19.555 L 73.555,-19.6767 L 73.4769,-19.83 L 73.45,-20 L 73.4769,-20.17
 L 73.555,-20.3233 L 73.6767,-20.4449 L 73.83,-20.5231 L 74,-20.55 L 74.17,-20.5231 L 74.3233,-20.4449
 L 74.4449,-20.3233 L 74.5231,-20.17 L 74.55,-20 L 74.5231,-19.83 L 74.4449,-19.6767 L 74.3233,-19.555
 L 74.17,-19.4769 L 74,-19.45 z
M 140,-1 L 139.375,-1 L 139.375,-2 L 139.5,-2 L 139.5,-3 L 139.375,-3
 L 139.375,-14.0942 L 139.5,-14.0942 L 139.5,-15.0942 L 139.375,-15.0942 L 139.375,-16.0942 L 140,-16.0942
 L 140,-18.0942 L 139.375,-18.0942 L 139.375,-19.0942 L 139.5,-19.0942 L 139.5,-20.0942 L 139.375,-20.0942
 L 139.375,-31.1884 L 139.5,-31.1884 L 139.5,-32.1884 L 139.375,-32.1884 L 139.375,-33.1884 L 140,-33.1884
 L 140,-34.1884 L 136.5,-34.1884 L 136.5,-0 L 140,-0 z
M 138.163,-28.321 L 138.079,-28.3436 L 138,-28.3804 L 137.929,-28.4304 L 137.867,-28.492 L 137.817,-28.5634
 L 137.78,-28.6424 L 137.758,-28.7266 L 137.75,-28.8134 L 137.758,-28.9002 L 137.78,-28.9844 L 137.817,-29.0634
 L 137.867,-29.1348 L 137.929,-29.1964 L 138,-29.2464 L 138.079,-29.2832 L 138.163,-29.3058 L 138.25,-29.3134
 L 138.337,-29.3058 L 138.421,-29.2832 L 138.5,-29.2464 L 138.571,-29.1964 L 138.633,-29.1348 L 138.683,-29.0634
 L 138.72,-28.9844 L 138.742,-28.9002 L 138.75,-28.8134 L 138.742,-28.7266 L 138.72,-28.6424 L 138.683,-28.5634
 L 138.633,-28.492 L 138.571,-28.4304 L 138.5,-28.3804 L 138.421,-28.3436 L 138.337,-28.321 L 138.25,-28.3134
 z
M 138.163,-4.88258 L 138.079,-4.90515 L 138,-4.94199 L 137.929,-4.99197 L 137.867,-5.0536 L 137.817,-5.125
 L 137.78,-5.20398 L 137.758,-5.28816 L 137.75,-5.375 L 137.758,-5.46182 L 137.78,-5.54601 L 137.817,-5.625
 L 137.867,-5.69638 L 137.929,-5.75801 L 138,-5.808 L 138.079,-5.84483 L 138.163,-5.8674 L 138.25,-5.875
 L 138.337,-5.8674 L 138.421,-5.84483 L 138.5,-5.808 L 138.571,-5.75801 L 138.633,-5.69638 L 138.683,-5.625
 L 138.72,-5.54601 L 138.742,-5.46182 L 138.75,-5.375 L 138.742,-5.28816 L 138.72,-5.20398 L 138.683,-5.125
 L 138.633,-5.0536 L 138.571,-4.99197 L 138.5,-4.94199 L 138.421,-4.90515 L 138.337,-4.88258 L 138.25,-4.875
 z
M 130.438,-0.9375 L 130.312,-0.9375 L 130.312,-1.1875 L 130.562,-1.1875 L 130.562,-1.0625 L 131,-1.0625
 L 131,-16.0317 L 130.562,-16.0317 L 130.562,-15.9067 L 130.312,-15.9067 L 130.312,-16.1567 L 130.438,-16.1567
 L 130.438,-18.0317 L 130.312,-18.0317 L 130.312,-18.2817 L 130.562,-18.2817 L 130.562,-18.1567 L 131,-18.1567
 L 131,-33.1259 L 130.562,-33.1259 L 130.562,-33.0009 L 130.312,-33.0009 L 130.312,-33.2509 L 130.438,-33.2509
 L 130.438,-34.1884 L 125.25,-34.1884 L 125.25,-33.7884 L 125,-33.7884 L 125,-32.8509 L 125.438,-32.8509
 L 125.438,-32.9759 L 125.688,-32.9759 L 125.688,-32.7259 L 125.562,-32.7259 L 125.562,-31.8509 L 125.688,-31.8509
 L 125.688,-31.6009 L 125.438,-31.6009 L 125.438,-31.7259 L 125,-31.7259 L 125,-2.46249 L 125.438,-2.46249
 L 125.438,-2.58749 L 125.688,-2.58749 L 125.688,-2.33749 L 125.562,-2.33749 L 125.562,-1.46249 L 125.688,-1.46249
 L 125.688,-1.21249 L 125.438,-1.21249 L 125.438,-1.33749 L 125,-1.33749 L 125,-0.399994 L 125.25,-0.399994
 L 125.25,-0 L 130.438,-0 z
M 129.435,-31.3191 L 129.372,-31.336 L 129.312,-31.3636 L 129.259,-31.4011 L 129.213,-31.4473 L 129.175,-31.5009
 L 129.148,-31.5601 L 129.131,-31.6233 L 129.125,-31.6884 L 129.131,-31.7535 L 129.148,-31.8167 L 129.175,-31.8759
 L 129.213,-31.9294 L 129.259,-31.9757 L 129.312,-32.0132 L 129.372,-32.0408 L 129.435,-32.0577 L 129.5,-32.0634
 L 129.565,-32.0577 L 129.628,-32.0408 L 129.688,-32.0132 L 129.741,-31.9757 L 129.787,-31.9294 L 129.825,-31.8759
 L 129.852,-31.8167 L 129.869,-31.7535 L 129.875,-31.6884 L 129.869,-31.6233 L 129.852,-31.5601 L 129.825,-31.5009
 L 129.787,-31.4473 L 129.741,-31.4011 L 129.688,-31.3636 L 129.628,-31.336 L 129.565,-31.3191 L 129.5,-31.3134
 z
M 126.435,-31.3191 L 126.372,-31.336 L 126.312,-31.3636 L 126.259,-31.4011 L 126.213,-31.4473 L 126.175,-31.5009
 L 126.148,-31.5601 L 126.131,-31.6233 L 126.125,-31.6884 L 126.131,-31.7535 L 126.148,-31.8167 L 126.175,-31.8759
 L 126.213,-31.9294 L 126.259,-31.9757 L 126.312,-32.0132 L 126.372,-32.0408 L 126.435,-32.0577 L 126.5,-32.0634
 L 126.565,-32.0577 L 126.628,-32.0408 L 126.688,-32.0132 L 126.741,-31.9757 L 126.787,-31.9294 L 126.825,-31.8759
 L 126.852,-31.8167 L 126.869,-31.7535 L 126.875,-31.6884 L 126.869,-31.6233 L 126.852,-31.5601 L 126.825,-31.5009
 L 126.787,-31.4473 L 126.741,-31.4011 L 126.688,-31.3636 L 126.628,-31.336 L 126.565,-31.3191 L 126.5,-31.3134
 z
M 126.496,-27.9975 L 126.395,-28.0246 L 126.3,-28.0688 L 126.214,-28.1288 L 126.14,-28.2027 L 126.08,-28.2884
 L 126.036,-28.3832 L 126.009,-28.4842 L 126,-28.5884 L 126.009,-28.6926 L 126.036,-28.7936 L 126.08,-28.8884
 L 126.14,-28.9741 L 126.214,-29.048 L 126.3,-29.108 L 126.395,-29.1522 L 126.496,-29.1793 L 126.6,-29.1884
 L 126.704,-29.1793 L 126.805,-29.1522 L 126.9,-29.108 L 126.986,-29.048 L 127.06,-28.9741 L 127.12,-28.8884
 L 127.164,-28.7936 L 127.191,-28.6926 L 127.2,-28.5884 L 127.191,-28.4842 L 127.164,-28.3832 L 127.12,-28.2884
 L 127.06,-28.2027 L 126.986,-28.1288 L 126.9,-28.0688 L 126.805,-28.0246 L 126.704,-27.9975 L 126.6,-27.9884
 z
M 126.496,-5.00911 L 126.395,-5.03618 L 126.3,-5.08038 L 126.214,-5.14037 L 126.14,-5.21432 L 126.08,-5.29999
 L 126.036,-5.39478 L 126.009,-5.4958 L 126,-5.59999 L 126.009,-5.70418 L 126.036,-5.80521 L 126.08,-5.89999
 L 126.14,-5.98567 L 126.214,-6.05962 L 126.3,-6.11961 L 126.395,-6.1638 L 126.496,-6.19087 L 126.6,-6.2
 L 126.704,-6.19087 L 126.805,-6.1638 L 126.9,-6.11961 L 126.986,-6.05962 L 127.06,-5.98567 L 127.12,-5.89999
 L 127.164,-5.80521 L 127.191,-5.70418 L 127.2,-5.59999 L 127.191,-5.4958 L 127.164,-5.39478 L 127.12,-5.29999
 L 127.06,-5.21432 L 126.986,-5.14037 L 126.9,-5.08038 L 126.805,-5.03618 L 126.704,-5.00911 L 126.6,-5
 z
M 129.435,-2.13069 L 129.372,-2.14761 L 129.312,-2.17523 L 129.259,-2.21272 L 129.213,-2.25894 L 129.175,-2.3125
 L 129.148,-2.37173 L 129.131,-2.43488 L 129.125,-2.5 L 129.131,-2.56511 L 129.148,-2.62825 L 129.175,-2.6875
 L 129.213,-2.74104 L 129.259,-2.78726 L 129.312,-2.82475 L 129.372,-2.85237 L 129.435,-2.86929 L 129.5,-2.875
 L 129.565,-2.86929 L 129.628,-2.85237 L 129.688,-2.82475 L 129.741,-2.78726 L 129.787,-2.74104 L 129.825,-2.6875
 L 129.852,-2.62825 L 129.869,-2.56511 L 129.875,-2.5 L 129.869,-2.43488 L 129.852,-2.37173 L 129.825,-2.3125
 L 129.787,-2.25894 L 129.741,-2.21272 L 129.688,-2.17523 L 129.628,-2.14761 L 129.565,-2.13069 L 129.5,-2.125
 z
M 126.435,-2.13069 L 126.372,-2.14761 L 126.312,-2.17523 L 126.259,-2.21272 L 126.213,-2.25894 L 126.175,-2.3125
 L 126.148,-2.37173 L 126.131,-2.43488 L 126.125,-2.5 L 126.131,-2.56511 L 126.148,-2.62825 L 126.175,-2.6875
 L 126.213,-2.74104 L 126.259,-2.78726 L 126.312,-2.82475 L 126.372,-2.85237 L 126.435,-2.86929 L 126.5,-2.875
 L 126.565,-2.86929 L 126.628,-2.85237 L 126.688,-2.82475 L 126.741,-2.78726 L 126.787,-2.74104 L 126.825,-2.6875
 L 126.852,-2.62825 L 126.869,-2.56511 L 126.875,-2.5 L 126.869,-2.43488 L 126.852,-2.37173 L 126.825,-2.3125
 L 126.787,-2.25894 L 126.741,-2.21272 L 126.688,-2.17523 L 126.628,-2.14761 L 126.565,-2.13069 L 126.5,-2.125
 z
M 165.5,-34.1884 L 157.5,-34.1884 L 157.5,-32.8509 L 157.938,-32.8509 L 157.938,-32.9759 L 158.188,-32.9759
 L 158.188,-32.7259 L 158.062,-32.7259 L 158.062,-31.8509 L 158.188,-31.8509 L 158.188,-31.6009 L 157.938,-31.6009
 L 157.938,-31.7259 L 157.5,-31.7259 L 157.5,-2.46249 L 157.938,-2.46249 L 157.938,-2.58749 L 158.188,-2.58749
 L 158.188,-2.33749 L 158.062,-2.33749 L 158.062,-1.46249 L 158.188,-1.46249 L 158.188,-1.21249 L 157.938,-1.21249
 L 157.938,-1.33749 L 157.5,-1.33749 L 157.5,-0 L 165.5,-0 z
M 163.434,-31.3142 L 163.37,-31.3313 L 163.31,-31.3593 L 163.256,-31.3973 L 163.209,-31.4441 L 163.171,-31.4984
 L 163.143,-31.5584 L 163.126,-31.6224 L 163.12,-31.6884 L 163.126,-31.7544 L 163.143,-31.8184 L 163.171,-31.8784
 L 163.209,-31.9326 L 163.256,-31.9795 L 163.31,-32.0175 L 163.37,-32.0455 L 163.434,-32.0626 L 163.5,-32.0684
 L 163.566,-32.0626 L 163.63,-32.0455 L 163.69,-32.0175 L 163.744,-31.9795 L 163.791,-31.9326 L 163.829,-31.8784
 L 163.857,-31.8184 L 163.874,-31.7544 L 163.88,-31.6884 L 163.874,-31.6224 L 163.857,-31.5584 L 163.829,-31.4984
 L 163.791,-31.4441 L 163.744,-31.3973 L 163.69,-31.3593 L 163.63,-31.3313 L 163.566,-31.3142 L 163.5,-31.3084
 z
M 159.434,-31.3142 L 159.37,-31.3313 L 159.31,-31.3593 L 159.256,-31.3973 L 159.209,-31.4441 L 159.171,-31.4984
 L 159.143,-31.5584 L 159.126,-31.6224 L 159.12,-31.6884 L 159.126,-31.7544 L 159.143,-31.8184 L 159.171,-31.8784
 L 159.209,-31.9326 L 159.256,-31.9795 L 159.31,-32.0175 L 159.37,-32.0455 L 159.434,-32.0626 L 159.5,-32.0684
 L 159.566,-32.0626 L 159.63,-32.0455 L 159.69,-32.0175 L 159.744,-31.9795 L 159.791,-31.9326 L 159.829,-31.8784
 L 159.857,-31.8184 L 159.874,-31.7544 L 159.88,-31.6884 L 159.874,-31.6224 L 159.857,-31.5584 L 159.829,-31.4984
 L 159.791,-31.4441 L 159.744,-31.3973 L 159.69,-31.3593 L 159.63,-31.3313 L 159.566,-31.3142 L 159.5,-31.3084
 z
M 159.085,-15.8016 L 158.864,-15.8608 L 158.656,-15.9575 L 158.469,-16.0888 L 158.307,-16.2505 L 158.176,-16.4379
 L 158.079,-16.6453 L 158.02,-16.8663 L 158,-17.0942 L 158.02,-17.3221 L 158.079,-17.5431 L 158.176,-17.7504
 L 158.307,-17.9379 L 158.469,-18.0996 L 158.656,-18.2309 L 158.864,-18.3275 L 159.085,-18.3867 L 159.312,-18.4067
 L 159.54,-18.3867 L 159.761,-18.3275 L 159.969,-18.2309 L 160.156,-18.0996 L 160.318,-17.9379 L 160.449,-17.7504
 L 160.546,-17.5431 L 160.605,-17.3221 L 160.625,-17.0942 L 160.605,-16.8663 L 160.546,-16.6453 L 160.449,-16.4379
 L 160.318,-16.2505 L 160.156,-16.0888 L 159.969,-15.9575 L 159.761,-15.8608 L 159.54,-15.8016 L 159.312,-15.7817
 z
M 159.434,-2.12576 L 159.37,-2.14291 L 159.31,-2.1709 L 159.256,-2.20889 L 159.209,-2.25574 L 159.171,-2.31
 L 159.143,-2.37003 L 159.126,-2.43401 L 159.12,-2.5 L 159.126,-2.56598 L 159.143,-2.62996 L 159.171,-2.68999
 L 159.209,-2.74425 L 159.256,-2.79109 L 159.31,-2.82909 L 159.37,-2.85707 L 159.434,-2.87422 L 159.5,-2.87999
 L 159.566,-2.87422 L 159.63,-2.85707 L 159.69,-2.82909 L 159.744,-2.79109 L 159.791,-2.74425 L 159.829,-2.68999
 L 159.857,-2.62996 L 159.874,-2.56598 L 159.88,-2.5 L 159.874,-2.43401 L 159.857,-2.37003 L 159.829,-2.31
 L 159.791,-2.25574 L 159.744,-2.20889 L 159.69,-2.1709 L 159.63,-2.14291 L 159.566,-2.12576 L 159.5,-2.12
 z
M 163.434,-2.12576 L 163.37,-2.14291 L 163.31,-2.1709 L 163.256,-2.20889 L 163.209,-2.25574 L 163.171,-2.31
 L 163.143,-2.37003 L 163.126,-2.43401 L 163.12,-2.5 L 163.126,-2.56598 L 163.143,-2.62996 L 163.171,-2.68999
 L 163.209,-2.74425 L 163.256,-2.79109 L 163.31,-2.82909 L 163.37,-2.85707 L 163.434,-2.87422 L 163.5,-2.87999
 L 163.566,-2.87422 L 163.63,-2.85707 L 163.69,-2.82909 L 163.744,-2.79109 L 163.791,-2.74425 L 163.829,-2.68999
 L 163.857,-2.62996 L 163.874,-2.56598 L 163.88,-2.5 L 163.874,-2.43401 L 163.857,-2.37003 L 163.829,-2.31
 L 163.791,-2.25574 L 163.744,-2.20889 L 163.69,-2.1709 L 163.63,-2.14291 L 163.566,-2.12576 L 163.5,-2.12
 z
M 194.25,-34.1884 L 181.25,-34.1884 L 181.25,-0 L 194.25,-0 z
M 184.5,-4.34419 L 184.5,-29.8442 L 191,-29.8442 L 191,-4.34419 z
M 182.913,-28.321 L 182.829,-28.3436 L 182.75,-28.3804 L 182.679,-28.4304 L 182.617,-28.492 L 182.567,-28.5634
 L 182.53,-28.6424 L 182.508,-28.7266 L 182.5,-28.8134 L 182.508,-28.9002 L 182.53,-28.9844 L 182.567,-29.0634
 L 182.617,-29.1348 L 182.679,-29.1964 L 182.75,-29.2464 L 182.829,-29.2832 L 182.913,-29.3058 L 183,-29.3134
 L 183.087,-29.3058 L 183.171,-29.2832 L 183.25,-29.2464 L 183.321,-29.1964 L 183.383,-29.1348 L 183.433,-29.0634
 L 183.47,-28.9844 L 183.492,-28.9002 L 183.5,-28.8134 L 183.492,-28.7266 L 183.47,-28.6424 L 183.433,-28.5634
 L 183.383,-28.492 L 183.321,-28.4304 L 183.25,-28.3804 L 183.171,-28.3436 L 183.087,-28.321 L 183,-28.3134
 z
M 192.413,-28.321 L 192.329,-28.3436 L 192.25,-28.3804 L 192.179,-28.4304 L 192.117,-28.492 L 192.067,-28.5634
 L 192.03,-28.6424 L 192.008,-28.7266 L 192,-28.8134 L 192.008,-28.9002 L 192.03,-28.9844 L 192.067,-29.0634
 L 192.117,-29.1348 L 192.179,-29.1964 L 192.25,-29.2464 L 192.329,-29.2832 L 192.413,-29.3058 L 192.5,-29.3134
 L 192.587,-29.3058 L 192.671,-29.2832 L 192.75,-29.2464 L 192.821,-29.1964 L 192.883,-29.1348 L 192.933,-29.0634
 L 192.97,-28.9844 L 192.992,-28.9002 L 193,-28.8134 L 192.992,-28.7266 L 192.97,-28.6424 L 192.933,-28.5634
 L 192.883,-28.492 L 192.821,-28.4304 L 192.75,-28.3804 L 192.671,-28.3436 L 192.587,-28.321 L 192.5,-28.3134
 z
M 182.913,-4.88258 L 182.829,-4.90515 L 182.75,-4.94199 L 182.679,-4.99197 L 182.617,-5.0536 L 182.567,-5.125
 L 182.53,-5.20398 L 182.508,-5.28816 L 182.5,-5.375 L 182.508,-5.46182 L 182.53,-5.54601 L 182.567,-5.625
 L 182.617,-5.69638 L 182.679,-5.75801 L 182.75,-5.808 L 182.829,-5.84483 L 182.913,-5.8674 L 183,-5.875
 L 183.087,-5.8674 L 183.171,-5.84483 L 183.25,-5.808 L 183.321,-5.75801 L 183.383,-5.69638 L 183.433,-5.625
 L 183.47,-5.54601 L 183.492,-5.46182 L 183.5,-5.375 L 183.492,-5.28816 L 183.47,-5.20398 L 183.433,-5.125
 L 183.383,-5.0536 L 183.321,-4.99197 L 183.25,-4.94199 L 183.171,-4.90515 L 183.087,-4.88258 L 183,-4.875
 z
M 192.413,-4.88258 L 192.329,-4.90515 L 192.25,-4.94199 L 192.179,-4.99197 L 192.117,-5.0536 L 192.067,-5.125
 L 192.03,-5.20398 L 192.008,-5.28816 L 192,-5.375 L 192.008,-5.46182 L 192.03,-5.54601 L 192.067,-5.625
 L 192.117,-5.69638 L 192.179,-5.75801 L 192.25,-5.808 L 192.329,-5.84483 L 192.413,-5.8674 L 192.5,-5.875
 L 192.587,-5.8674 L 192.671,-5.84483 L 192.75,-5.808 L 192.821,-5.75801 L 192.883,-5.69638 L 192.933,-5.625
 L 192.97,-5.54601 L 192.992,-5.46182 L 193,-5.375 L 192.992,-5.28816 L 192.97,-5.20398 L 192.933,-5.125
 L 192.883,-5.0536 L 192.821,-4.99197 L 192.75,-4.94199 L 192.671,-4.90515 L 192.587,-4.88258 L 192.5,-4.875
 z
M 15.5,-0.53125 L 20.5,-0.53125 L 20.5,-0 L 22,-0 L 22,-25 L 20.5,-25
 L 20.5,-24.4688 L 15.5,-24.4688 L 15.5,-25 L 0,-25 L 0,-21.6192 L 6,-21.6192
 L 6,-3.3808 L 0,-3.3808 L 0,-0 L 15.5,-0 z
M 2.91316,-22.1268 L 2.82898,-22.1494 L 2.75,-22.1862 L 2.6786,-22.2362 L 2.61697,-22.2978 L 2.56699,-22.3692
 L 2.53015,-22.4482 L 2.50758,-22.5324 L 2.5,-22.6192 L 2.50758,-22.706 L 2.53015,-22.7902 L 2.56699,-22.8692
 L 2.61697,-22.9406 L 2.6786,-23.0022 L 2.75,-23.0522 L 2.82898,-23.089 L 2.91316,-23.1116 L 3,-23.1192
 L 3.08682,-23.1116 L 3.17101,-23.089 L 3.25,-23.0522 L 3.32138,-23.0022 L 3.38301,-22.9406 L 3.433,-22.8692
 L 3.46983,-22.7902 L 3.4924,-22.706 L 3.5,-22.6192 L 3.4924,-22.5324 L 3.46983,-22.4482 L 3.433,-22.3692
 L 3.38301,-22.2978 L 3.32138,-22.2362 L 3.25,-22.1862 L 3.17101,-22.1494 L 3.08682,-22.1268 L 3,-22.1192
 z
M 0.913162,-22.1268 L 0.828979,-22.1494 L 0.75,-22.1862 L 0.678604,-22.2362 L 0.616974,-22.2978 L 0.566986,-22.3692
 L 0.530151,-22.4482 L 0.507584,-22.5324 L 0.5,-22.6192 L 0.507584,-22.706 L 0.530151,-22.7902 L 0.566986,-22.8692
 L 0.616974,-22.9406 L 0.678604,-23.0022 L 0.75,-23.0522 L 0.828979,-23.089 L 0.913162,-23.1116 L 1,-23.1192
 L 1.08682,-23.1116 L 1.17101,-23.089 L 1.25,-23.0522 L 1.32138,-23.0022 L 1.38301,-22.9406 L 1.433,-22.8692
 L 1.46983,-22.7902 L 1.4924,-22.706 L 1.5,-22.6192 L 1.4924,-22.5324 L 1.46983,-22.4482 L 1.433,-22.3692
 L 1.38301,-22.2978 L 1.32138,-22.2362 L 1.25,-22.1862 L 1.17101,-22.1494 L 1.08682,-22.1268 L 1,-22.1192
 z
M 0.913162,-1.88838 L 0.828979,-1.91095 L 0.75,-1.94778 L 0.678604,-1.99777 L 0.616974,-2.0594 L 0.566986,-2.1308
 L 0.530151,-2.20978 L 0.507584,-2.29398 L 0.5,-2.3808 L 0.507584,-2.46762 L 0.530151,-2.5518 L 0.566986,-2.6308
 L 0.616974,-2.70218 L 0.678604,-2.76381 L 0.75,-2.81381 L 0.828979,-2.85063 L 0.913162,-2.8732 L 1,-2.8808
 L 1.08682,-2.8732 L 1.17101,-2.85063 L 1.25,-2.81381 L 1.32138,-2.76381 L 1.38301,-2.70218 L 1.433,-2.6308
 L 1.46983,-2.5518 L 1.4924,-2.46762 L 1.5,-2.3808 L 1.4924,-2.29398 L 1.46983,-2.20978 L 1.433,-2.1308
 L 1.38301,-2.0594 L 1.32138,-1.99777 L 1.25,-1.94778 L 1.17101,-1.91095 L 1.08682,-1.88838 L 1,-1.8808
 z
M 2.91316,-1.88838 L 2.82898,-1.91095 L 2.75,-1.94778 L 2.6786,-1.99777 L 2.61697,-2.0594 L 2.56699,-2.1308
 L 2.53015,-2.20978 L 2.50758,-2.29398 L 2.5,-2.3808 L 2.50758,-2.46762 L 2.53015,-2.5518 L 2.56699,-2.6308
 L 2.61697,-2.70218 L 2.6786,-2.76381 L 2.75,-2.81381 L 2.82898,-2.85063 L 2.91316,-2.8732 L 3,-2.8808
 L 3.08682,-2.8732 L 3.17101,-2.85063 L 3.25,-2.81381 L 3.32138,-2.76381 L 3.38301,-2.70218 L 3.433,-2.6308
 L 3.46983,-2.5518 L 3.4924,-2.46762 L 3.5,-2.3808 L 3.4924,-2.29398 L 3.46983,-2.20978 L 3.433,-2.1308
 L 3.38301,-2.0594 L 3.32138,-1.99777 L 3.25,-1.94778 L 3.17101,-1.91095 L 3.08682,-1.88838 L 3,-1.8808
 z
M 86.5,-25 L 81.5,-25 L 81.5,-0 L 86.5,-0 z
M 82.4132,-22.1268 L 82.329,-22.1494 L 82.25,-22.1862 L 82.1786,-22.2362 L 82.117,-22.2978 L 82.067,-22.3692
 L 82.0302,-22.4482 L 82.0076,-22.5324 L 82,-22.6192 L 82.0076,-22.706 L 82.0302,-22.7902 L 82.067,-22.8692
 L 82.117,-22.9406 L 82.1786,-23.0022 L 82.25,-23.0522 L 82.329,-23.089 L 82.4132,-23.1116 L 82.5,-23.1192
 L 82.5868,-23.1116 L 82.671,-23.089 L 82.75,-23.0522 L 82.8214,-23.0022 L 82.883,-22.9406 L 82.933,-22.8692
 L 82.9698,-22.7902 L 82.9924,-22.706 L 83,-22.6192 L 82.9924,-22.5324 L 82.9698,-22.4482 L 82.933,-22.3692
 L 82.883,-22.2978 L 82.8214,-22.2362 L 82.75,-22.1862 L 82.671,-22.1494 L 82.5868,-22.1268 L 82.5,-22.1192
 z
M 84.4132,-22.1268 L 84.329,-22.1494 L 84.25,-22.1862 L 84.1786,-22.2362 L 84.117,-22.2978 L 84.067,-22.3692
 L 84.0302,-22.4482 L 84.0076,-22.5324 L 84,-22.6192 L 84.0076,-22.706 L 84.0302,-22.7902 L 84.067,-22.8692
 L 84.117,-22.9406 L 84.1786,-23.0022 L 84.25,-23.0522 L 84.329,-23.089 L 84.4132,-23.1116 L 84.5,-23.1192
 L 84.5868,-23.1116 L 84.671,-23.089 L 84.75,-23.0522 L 84.8214,-23.0022 L 84.883,-22.9406 L 84.933,-22.8692
 L 84.9698,-22.7902 L 84.9924,-22.706 L 85,-22.6192 L 84.9924,-22.5324 L 84.9698,-22.4482 L 84.933,-22.3692
 L 84.883,-22.2978 L 84.8214,-22.2362 L 84.75,-22.1862 L 84.671,-22.1494 L 84.5868,-22.1268 L 84.5,-22.1192
 z
M 82.4132,-1.88838 L 82.329,-1.91095 L 82.25,-1.94778 L 82.1786,-1.99777 L 82.117,-2.0594 L 82.067,-2.1308
 L 82.0302,-2.20978 L 82.0076,-2.29398 L 82,-2.3808 L 82.0076,-2.46762 L 82.0302,-2.5518 L 82.067,-2.6308
 L 82.117,-2.70218 L 82.1786,-2.76381 L 82.25,-2.81381 L 82.329,-2.85063 L 82.4132,-2.8732 L 82.5,-2.8808
 L 82.5868,-2.8732 L 82.671,-2.85063 L 82.75,-2.81381 L 82.8214,-2.76381 L 82.883,-2.70218 L 82.933,-2.6308
 L 82.9698,-2.5518 L 82.9924,-2.46762 L 83,-2.3808 L 82.9924,-2.29398 L 82.9698,-2.20978 L 82.933,-2.1308
 L 82.883,-2.0594 L 82.8214,-1.99777 L 82.75,-1.94778 L 82.671,-1.91095 L 82.5868,-1.88838 L 82.5,-1.8808
 z
M 84.4132,-1.88838 L 84.329,-1.91095 L 84.25,-1.94778 L 84.1786,-1.99777 L 84.117,-2.0594 L 84.067,-2.1308
 L 84.0302,-2.20978 L 84.0076,-2.29398 L 84,-2.3808 L 84.0076,-2.46762 L 84.0302,-2.5518 L 84.067,-2.6308
 L 84.117,-2.70218 L 84.1786,-2.76381 L 84.25,-2.81381 L 84.329,-2.85063 L 84.4132,-2.8732 L 84.5,-2.8808
 L 84.5868,-2.8732 L 84.671,-2.85063 L 84.75,-2.81381 L 84.8214,-2.76381 L 84.883,-2.70218 L 84.933,-2.6308
 L 84.9698,-2.5518 L 84.9924,-2.46762 L 85,-2.3808 L 84.9924,-2.29398 L 84.9698,-2.20978 L 84.933,-2.1308
 L 84.883,-2.0594 L 84.8214,-1.99777 L 84.75,-1.94778 L 84.671,-1.91095 L 84.5868,-1.88838 L 84.5,-1.8808
 z
M 62.75,-0.625 L 62.875,-0.625 L 62.875,-0.5 L 63.125,-0.5 L 63.125,-0.625 L 65.875,-0.625
 L 65.875,-0.5 L 66.125,-0.5 L 66.125,-0.625 L 66.25,-0.625 L 66.25,-0 L 67,-0
 L 67,-25 L 66.25,-25 L 66.25,-24.375 L 66.125,-24.375 L 66.125,-24.5 L 65.875,-24.5
 L 65.875,-24.375 L 63.125,-24.375 L 63.125,-24.5 L 62.875,-24.5 L 62.875,-24.375 L 62.75,-24.375
 L 62.75,-25 L 62,-25 L 62,-24 L 62.125,-24 L 62.125,-13 L 62,-13
 L 62,-12 L 62.125,-12 L 62.125,-1 L 62,-1 L 62,-0 L 62.75,-0
 z
M 63.125,-13.625 L 63.125,-13.875 L 63.2188,-13.875 L 63.2188,-14.125 L 63.125,-14.125 L 63.125,-14.375
 L 63.375,-14.375 L 63.375,-14.2812 L 63.625,-14.2812 L 63.625,-14.375 L 63.875,-14.375 L 63.875,-14.125
 L 63.7812,-14.125 L 63.7812,-13.875 L 63.875,-13.875 L 63.875,-13.625 L 63.625,-13.625 L 63.625,-13.7188
 L 63.375,-13.7188 L 63.375,-13.625 z
M 63.125,-10.625 L 63.125,-10.875 L 63.2188,-10.875 L 63.2188,-11.125 L 63.125,-11.125 L 63.125,-11.375
 L 63.375,-11.375 L 63.375,-11.2812 L 63.625,-11.2812 L 63.625,-11.375 L 63.875,-11.375 L 63.875,-11.125
 L 63.7812,-11.125 L 63.7812,-10.875 L 63.875,-10.875 L 63.875,-10.625 L 63.625,-10.625 L 63.625,-10.7188
 L 63.375,-10.7188 L 63.375,-10.625 z
M 50.5,-0.625 L 50.625,-0.625 L 50.625,-0.5 L 50.875,-0.5 L 50.875,-0.625 L 54.625,-0.625
 L 54.625,-0.5 L 54.875,-0.5 L 54.875,-0.625 L 55,-0.625 L 55,-0 L 56,-0
 L 56,-25 L 55,-25 L 55,-24.375 L 54.875,-24.375 L 54.875,-24.5 L 54.625,-24.5
 L 54.625,-24.375 L 50.875,-24.375 L 50.875,-24.5 L 50.625,-24.5 L 50.625,-24.375 L 50.5,-24.375
 L 50.5,-25 L 50,-25 L 50,-0 L 50.5,-0 z
M 53.625,-13.625 L 53.625,-13.875 L 53.7188,-13.875 L 53.7188,-14.125 L 53.625,-14.125 L 53.625,-14.375
 L 53.875,-14.375 L 53.875,-14.2812 L 54.125,-14.2812 L 54.125,-14.375 L 54.375,-14.375 L 54.375,-14.125
 L 54.2812,-14.125 L 54.2812,-13.875 L 54.375,-13.875 L 54.375,-13.625 L 54.125,-13.625 L 54.125,-13.7188
 L 53.875,-13.7188 L 53.875,-13.625 z
M 53.625,-10.625 L 53.625,-10.875 L 53.7188,-10.875 L 53.7188,-11.125 L 53.625,-11.125 L 53.625,-11.375
 L 53.875,-11.375 L 53.875,-11.2812 L 54.125,-11.2812 L 54.125,-11.375 L 54.375,-11.375 L 54.375,-11.125
 L 54.2812,-11.125 L 54.2812,-10.875 L 54.375,-10.875 L 54.375,-10.625 L 54.125,-10.625 L 54.125,-10.7188
 L 53.875,-10.7188 L 53.875,-10.625 z
M 30.75,-0.625 L 30.875,-0.625 L 30.875,-0.5 L 31.125,-0.5 L 31.125,-0.625 L 34.375,-0.625
 L 34.375,-0.5 L 34.625,-0.5 L 34.625,-0.625 L 34.75,-0.625 L 34.75,-0 L 35.5,-0
 L 35.5,-6.21875 L 35.25,-6.21875 L 35.25,-6.125 L 34.625,-6.125 L 34.625,-6.375 L 34.7188,-6.375
 L 34.7188,-6.625 L 34.625,-6.625 L 34.625,-6.875 L 35.25,-6.875 L 35.25,-6.78125 L 35.5,-6.78125
 L 35.5,-12.2188 L 35.25,-12.2188 L 35.25,-12.125 L 34.625,-12.125 L 34.625,-12.375 L 34.7188,-12.375
 L 34.7188,-12.625 L 34.625,-12.625 L 34.625,-12.875 L 35.25,-12.875 L 35.25,-12.7812 L 35.5,-12.7812
 L 35.5,-18.2188 L 35.25,-18.2188 L 35.25,-18.125 L 34.625,-18.125 L 34.625,-18.375 L 34.7188,-18.375
 L 34.7188,-18.625 L 34.625,-18.625 L 34.625,-18.875 L 35.25,-18.875 L 35.25,-18.7812 L 35.5,-18.7812
 L 35.5,-25 L 34.75,-25 L 34.75,-24.375 L 34.625,-24.375 L 34.625,-24.5 L 34.375,-24.5
 L 34.375,-24.375 L 31.125,-24.375 L 31.125,-24.5 L 30.875,-24.5 L 30.875,-24.375 L 30.75,-24.375
 L 30.75,-25 L 30,-25 L 30,-0 L 30.75,-0 z
M 30.375,-18.125 L 30.375,-18.375 L 30.4688,-18.375 L 30.4688,-18.625 L 30.375,-18.625 L 30.375,-18.875
 L 30.75,-18.875 L 30.75,-18.7812 L 31,-18.7812 L 31,-18.875 L 31.375,-18.875 L 31.375,-18.625
 L 31.2812,-18.625 L 31.2812,-18.375 L 31.375,-18.375 L 31.375,-18.125 L 31,-18.125 L 31,-18.2188
 L 30.75,-18.2188 L 30.75,-18.125 z
M 30.375,-12.125 L 30.375,-12.375 L 30.4688,-12.375 L 30.4688,-12.625 L 30.375,-12.625 L 30.375,-12.875
 L 30.75,-12.875 L 30.75,-12.7812 L 31,-12.7812 L 31,-12.875 L 31.375,-12.875 L 31.375,-12.625
 L 31.2812,-12.625 L 31.2812,-12.375 L 31.375,-12.375 L 31.375,-12.125 L 31,-12.125 L 31,-12.2188
 L 30.75,-12.2188 L 30.75,-12.125 z
M 30.375,-6.125 L 30.375,-6.375 L 30.4688,-6.375 L 30.4688,-6.625 L 30.375,-6.625 L 30.375,-6.875
 L 30.75,-6.875 L 30.75,-6.78125 L 31,-6.78125 L 31,-6.875 L 31.375,-6.875 L 31.375,-6.625
 L 31.2812,-6.625 L 31.2812,-6.375 L 31.375,-6.375 L 31.375,-6.125 L 31,-6.125 L 31,-6.21875
 L 30.75,-6.21875 L 30.75,-6.125 z
M 43.5,-0.625 L 43.625,-0.625 L 43.625,-0.5 L 43.875,-0.5 L 43.875,-0.625 L 48.125,-0.625
 L 48.125,-0.5 L 48.375,-0.5 L 48.375,-0.625 L 48.5,-0.625 L 48.5,-0 L 49,-0
 L 49,-1 L 48.875,-1 L 48.875,-12 L 49,-12 L 49,-13 L 48.875,-13
 L 48.875,-24 L 49,-24 L 49,-25 L 48.5,-25 L 48.5,-24.375 L 48.375,-24.375
 L 48.375,-24.5 L 48.125,-24.5 L 48.125,-24.375 L 43.875,-24.375 L 43.875,-24.5 L 43.625,-24.5
 L 43.625,-24.375 L 43.5,-24.375 L 43.5,-25 L 43,-25 L 43,-24 L 43.125,-24
 L 43.125,-13 L 43,-13 L 43,-12 L 43.125,-12 L 43.125,-1 L 43,-1
 L 43,-0 L 43.5,-0 z
M 45.625,-18.125 L 45.625,-18.375 L 45.7188,-18.375 L 45.7188,-18.625 L 45.625,-18.625 L 45.625,-18.875
 L 45.875,-18.875 L 45.875,-18.7812 L 46.125,-18.7812 L 46.125,-18.875 L 46.375,-18.875 L 46.375,-18.625
 L 46.2812,-18.625 L 46.2812,-18.375 L 46.375,-18.375 L 46.375,-18.125 L 46.125,-18.125 L 46.125,-18.2188
 L 45.875,-18.2188 L 45.875,-18.125 z
M 45.625,-12.125 L 45.625,-12.375 L 45.7188,-12.375 L 45.7188,-12.625 L 45.625,-12.625 L 45.625,-12.875
 L 45.875,-12.875 L 45.875,-12.7812 L 46.125,-12.7812 L 46.125,-12.875 L 46.375,-12.875 L 46.375,-12.625
 L 46.2812,-12.625 L 46.2812,-12.375 L 46.375,-12.375 L 46.375,-12.125 L 46.125,-12.125 L 46.125,-12.2188
 L 45.875,-12.2188 L 45.875,-12.125 z
M 45.625,-6.125 L 45.625,-6.375 L 45.7188,-6.375 L 45.7188,-6.625 L 45.625,-6.625 L 45.625,-6.875
 L 45.875,-6.875 L 45.875,-6.78125 L 46.125,-6.78125 L 46.125,-6.875 L 46.375,-6.875 L 46.375,-6.625
 L 46.2812,-6.625 L 46.2812,-6.375 L 46.375,-6.375 L 46.375,-6.125 L 46.125,-6.125 L 46.125,-6.21875
 L 45.875,-6.21875 L 45.875,-6.125 z
M 37.25,-16.625 L 37.375,-16.625 L 37.375,-16.5 L 40.625,-16.5 L 40.625,-16.625 L 40.75,-16.625
 L 40.75,-16 L 41.5,-16 L 41.5,-19.125 L 41.375,-19.125 L 41.375,-19.25 L 42,-19.25
 L 42,-19.75 L 41.375,-19.75 L 41.375,-19.875 L 41.5,-19.875 L 41.5,-23 L 40.75,-23
 L 40.75,-22.375 L 40.625,-22.375 L 40.625,-22.5 L 37.375,-22.5 L 37.375,-22.375 L 37.25,-22.375
 L 37.25,-23 L 36.5,-23 L 36.5,-16 L 37.25,-16 z
M 28.4688,-0.65625 L 28.3438,-0.65625 L 28.3438,-0.90625 L 28.5938,-0.90625 L 28.5938,-0.78125 L 29,-0.78125
 L 29,-4.21875 L 28.5938,-4.21875 L 28.5938,-4.09375 L 28.3438,-4.09375 L 28.3438,-4.34375 L 28.4688,-4.34375
 L 28.4688,-4.96875 L 28.0938,-4.96875 L 28.0938,-4.84375 L 27.8438,-4.84375 L 27.8438,-5.09375 L 27.9688,-5.09375
 L 27.9688,-5.40625 L 27.8438,-5.40625 L 27.8438,-5.65625 L 28.4688,-5.65625 L 28.4688,-5.53125 L 29,-5.53125
 L 29,-11.4688 L 28.5938,-11.4688 L 28.5938,-11.3438 L 28.0938,-11.3438 L 28.0938,-11.5938 L 28.2188,-11.5938
 L 28.2188,-11.9062 L 28.0938,-11.9062 L 28.0938,-12.1562 L 28.3438,-12.1562 L 28.3438,-12.0312 L 28.4688,-12.0312
 L 28.4688,-12.4062 L 28.3438,-12.4062 L 28.3438,-12.6562 L 28.7188,-12.6562 L 28.7188,-12.5312 L 29,-12.5312
 L 29,-17.4688 L 28.5938,-17.4688 L 28.5938,-17.3438 L 28.3438,-17.3438 L 28.3438,-17.5938 L 28.4688,-17.5938
 L 28.4688,-17.9688 L 28.3438,-17.9688 L 28.3438,-17.8438 L 28.0938,-17.8438 L 28.0938,-18.0938 L 28.2188,-18.0938
 L 28.2188,-18.5 L 24.2812,-18.5 L 24.2812,-18.0938 L 24.4062,-18.0938 L 24.4062,-17.8438 L 23.9062,-17.8438
 L 23.9062,-17.9688 L 23,-17.9688 L 23,-13.0312 L 23.4062,-13.0312 L 23.4062,-13.1562 L 23.6562,-13.1562
 L 23.6562,-12.5312 L 23.5312,-12.5312 L 23.5312,-12.0312 L 24.0312,-12.0312 L 24.0312,-12.1562 L 24.4062,-12.1562
 L 24.4062,-11.9062 L 24.2812,-11.9062 L 24.2812,-11.5938 L 24.4062,-11.5938 L 24.4062,-11.3438 L 24.0312,-11.3438
 L 24.0312,-11.4688 L 23,-11.4688 L 23,-5.53125 L 23.4062,-5.53125 L 23.4062,-5.65625 L 23.6562,-5.65625
 L 23.6562,-5.40625 L 23.5312,-5.40625 L 23.5312,-5.09375 L 23.6562,-5.09375 L 23.6562,-4.84375 L 23.4062,-4.84375
 L 23.4062,-4.96875 L 23,-4.96875 L 23,-2.03125 L 23.4062,-2.03125 L 23.4062,-2.15625 L 23.6562,-2.15625
 L 23.6562,-1.90625 L 23.5312,-1.90625 L 23.5312,-0 L 28.4688,-0 z
M 26.4895,-2.02278 L 26.237,-2.09045 L 26,-2.20096 L 25.7858,-2.35092 L 25.6009,-2.53581 L 25.451,-2.75
 L 25.3405,-2.98697 L 25.2728,-3.23952 L 25.25,-3.5 L 25.2728,-3.76047 L 25.3405,-4.01302 L 25.451,-4.25
 L 25.6009,-4.46417 L 25.7858,-4.64906 L 26,-4.79903 L 26.237,-4.90953 L 26.4895,-4.9772 L 26.75,-5
 L 27.0105,-4.9772 L 27.263,-4.90953 L 27.5,-4.79903 L 27.7142,-4.64906 L 27.8991,-4.46417 L 28.049,-4.25
 L 28.1595,-4.01302 L 28.2272,-3.76047 L 28.25,-3.5 L 28.2272,-3.23952 L 28.1595,-2.98697 L 28.049,-2.75
 L 27.8991,-2.53581 L 27.7142,-2.35092 L 27.5,-2.20096 L 27.263,-2.09045 L 27.0105,-2.02278 L 26.75,-2
 z
M 75.5,-18 L 72.5,-18 L 72.5,-0 L 75.5,-0 z
M 73.83,-16.4769 L 73.6767,-16.555 L 73.555,-16.6767 L 73.4769,-16.83 L 73.45,-17 L 73.4769,-17.17
 L 73.555,-17.3233 L 73.6767,-17.4449 L 73.83,-17.5231 L 74,-17.55 L 74.17,-17.5231 L 74.3233,-17.4449
 L 74.4449,-17.3233 L 74.5231,-17.17 L 74.55,-17 L 74.5231,-16.83 L 74.4449,-16.6767 L 74.3233,-16.555
 L 74.17,-16.4769 L 74,-16.45 z
M 73.83,-13.4769 L 73.6767,-13.555 L 73.555,-13.6767 L 73.4769,-13.83 L 73.45,-14 L 73.4769,-14.17
 L 73.555,-14.3233 L 73.6767,-14.4449 L 73.83,-14.5231 L 74,-14.55 L 74.17,-14.5231 L 74.3233,-14.4449
 L 74.4449,-14.3233 L 74.5231,-14.17 L 74.55,-14 L 74.5231,-13.83 L 74.4449,-13.6767 L 74.3233,-13.555
 L 74.17,-13.4769 L 74,-13.45 z
M 73.83,-8.47691 L 73.6767,-8.55504 L 73.555,-8.67671 L 73.4769,-8.83003 L 73.45,-9 L 73.4769,-9.16995
 L 73.555,-9.32327 L 73.6767,-9.44495 L 73.83,-9.52307 L 74,-9.54999 L 74.17,-9.52307 L 74.3233,-9.44495
 L 74.4449,-9.32327 L 74.5231,-9.16995 L 74.55,-9 L 74.5231,-8.83003 L 74.4449,-8.67671 L 74.3233,-8.55504
 L 74.17,-8.47691 L 74,-8.45 z
M 73.83,-3.47691 L 73.6767,-3.55504 L 73.555,-3.67671 L 73.4769,-3.83003 L 73.45,-4 L 73.4769,-4.16995
 L 73.555,-4.32327 L 73.6767,-4.44495 L 73.83,-4.52307 L 74,-4.54999 L 74.17,-4.52307 L 74.3233,-4.44495
 L 74.4449,-4.32327 L 74.5231,-4.16995 L 74.55,-4 L 74.5231,-3.83003 L 74.4449,-3.67671 L 74.3233,-3.55504
 L 74.17,-3.47691 L 74,-3.45 z
M 73.83,-0.476913 L 73.6767,-0.555038 L 73.555,-0.676712 L 73.4769,-0.830032 L 73.45,-1 L 73.4769,-1.16995
 L 73.555,-1.32327 L 73.6767,-1.44495 L 73.83,-1.52307 L 74,-1.54999 L 74.17,-1.52307 L 74.3233,-1.44495
 L 74.4449,-1.32327 L 74.5231,-1.16995 L 74.55,-1 L 74.5231,-0.830032 L 74.4449,-0.676712 L 74.3233,-0.555038
 L 74.17,-0.476913 L 74,-0.449997 z
M 37.25,-8.625 L 37.375,-8.625 L 37.375,-8.5 L 40.625,-8.5 L 40.625,-8.625 L 40.75,-8.625
 L 40.75,-8 L 41.5,-8 L 41.5,-11.125 L 41.375,-11.125 L 41.375,-11.25 L 42,-11.25
 L 42,-11.75 L 41.375,-11.75 L 41.375,-11.875 L 41.5,-11.875 L 41.5,-15 L 40.75,-15
 L 40.75,-14.375 L 40.625,-14.375 L 40.625,-14.5 L 37.375,-14.5 L 37.375,-14.375 L 37.25,-14.375
 L 37.25,-15 L 36.5,-15 L 36.5,-8 L 37.25,-8 z
M 199.75,-12 L 195.25,-12 L 195.25,-4 L 199.75,-4 z
M 197.684,-9.62576 L 197.62,-9.64291 L 197.56,-9.6709 L 197.506,-9.70889 L 197.459,-9.75574 L 197.421,-9.81
 L 197.393,-9.87003 L 197.376,-9.93401 L 197.37,-10 L 197.376,-10.066 L 197.393,-10.13 L 197.421,-10.19
 L 197.459,-10.2442 L 197.506,-10.2911 L 197.56,-10.3291 L 197.62,-10.3571 L 197.684,-10.3742 L 197.75,-10.38
 L 197.816,-10.3742 L 197.88,-10.3571 L 197.94,-10.3291 L 197.994,-10.2911 L 198.041,-10.2442 L 198.079,-10.19
 L 198.107,-10.13 L 198.124,-10.066 L 198.13,-10 L 198.124,-9.93401 L 198.107,-9.87003 L 198.079,-9.81
 L 198.041,-9.75574 L 197.994,-9.70889 L 197.94,-9.6709 L 197.88,-9.64291 L 197.816,-9.62576 L 197.75,-9.62
 z
M 197.684,-5.62576 L 197.62,-5.64291 L 197.56,-5.6709 L 197.506,-5.70889 L 197.459,-5.75574 L 197.421,-5.81
 L 197.393,-5.87003 L 197.376,-5.93401 L 197.37,-6 L 197.376,-6.06598 L 197.393,-6.12996 L 197.421,-6.18999
 L 197.459,-6.24425 L 197.506,-6.29109 L 197.56,-6.32909 L 197.62,-6.35707 L 197.684,-6.37422 L 197.75,-6.37999
 L 197.816,-6.37422 L 197.88,-6.35707 L 197.94,-6.32909 L 197.994,-6.29109 L 198.041,-6.24425 L 198.079,-6.18999
 L 198.107,-6.12996 L 198.124,-6.06598 L 198.13,-6 L 198.124,-5.93401 L 198.107,-5.87003 L 198.079,-5.81
 L 198.041,-5.75574 L 197.994,-5.70889 L 197.94,-5.6709 L 197.88,-5.64291 L 197.816,-5.62576 L 197.75,-5.62
 z
M 80.5,-10.5 L 76.5,-10.5 L 76.5,-5.75 L 80.5,-5.75 z
M 77.4349,-9.13069 L 77.3717,-9.14761 L 77.3125,-9.17523 L 77.2589,-9.21272 L 77.2127,-9.25894 L 77.1752,-9.3125
 L 77.1476,-9.37173 L 77.1307,-9.43488 L 77.125,-9.5 L 77.1307,-9.56511 L 77.1476,-9.62825 L 77.1752,-9.6875
 L 77.2127,-9.74104 L 77.2589,-9.78726 L 77.3125,-9.82475 L 77.3717,-9.85237 L 77.4349,-9.86929 L 77.5,-9.875
 L 77.5651,-9.86929 L 77.6283,-9.85237 L 77.6875,-9.82475 L 77.741,-9.78726 L 77.7873,-9.74104 L 77.8248,-9.6875
 L 77.8524,-9.62825 L 77.8693,-9.56511 L 77.875,-9.5 L 77.8693,-9.43488 L 77.8524,-9.37173 L 77.8248,-9.3125
 L 77.7873,-9.25894 L 77.741,-9.21272 L 77.6875,-9.17523 L 77.6283,-9.14761 L 77.5651,-9.13069 L 77.5,-9.125
 z
M 79.4349,-9.13069 L 79.3717,-9.14761 L 79.3125,-9.17523 L 79.2589,-9.21272 L 79.2127,-9.25894 L 79.1752,-9.3125
 L 79.1476,-9.37173 L 79.1307,-9.43488 L 79.125,-9.5 L 79.1307,-9.56511 L 79.1476,-9.62825 L 79.1752,-9.6875
 L 79.2127,-9.74104 L 79.2589,-9.78726 L 79.3125,-9.82475 L 79.3717,-9.85237 L 79.4349,-9.86929 L 79.5,-9.875
 L 79.5651,-9.86929 L 79.6283,-9.85237 L 79.6875,-9.82475 L 79.741,-9.78726 L 79.7873,-9.74104 L 79.8248,-9.6875
 L 79.8524,-9.62825 L 79.8693,-9.56511 L 79.875,-9.5 L 79.8693,-9.43488 L 79.8524,-9.37173 L 79.8248,-9.3125
 L 79.7873,-9.25894 L 79.741,-9.21272 L 79.6875,-9.17523 L 79.6283,-9.14761 L 79.5651,-9.13069 L 79.5,-9.125
 z
M 77.4132,-6.25758 L 77.329,-6.28015 L 77.25,-6.31699 L 77.1786,-6.36697 L 77.117,-6.4286 L 77.067,-6.5
 L 77.0302,-6.57898 L 77.0076,-6.66316 L 77,-6.75 L 77.0076,-6.83682 L 77.0302,-6.92101 L 77.067,-7
 L 77.117,-7.07138 L 77.1786,-7.13301 L 77.25,-7.183 L 77.329,-7.21983 L 77.4132,-7.2424 L 77.5,-7.25
 L 77.5868,-7.2424 L 77.671,-7.21983 L 77.75,-7.183 L 77.8214,-7.13301 L 77.883,-7.07138 L 77.933,-7
 L 77.9698,-6.92101 L 77.9924,-6.83682 L 78,-6.75 L 77.9924,-6.66316 L 77.9698,-6.57898 L 77.933,-6.5
 L 77.883,-6.4286 L 77.8214,-6.36697 L 77.75,-6.31699 L 77.671,-6.28015 L 77.5868,-6.25758 L 77.5,-6.25
 z
M 79.4132,-6.25758 L 79.329,-6.28015 L 79.25,-6.31699 L 79.1786,-6.36697 L 79.117,-6.4286 L 79.067,-6.5
 L 79.0302,-6.57898 L 79.0076,-6.66316 L 79,-6.75 L 79.0076,-6.83682 L 79.0302,-6.92101 L 79.067,-7
 L 79.117,-7.07138 L 79.1786,-7.13301 L 79.25,-7.183 L 79.329,-7.21983 L 79.4132,-7.2424 L 79.5,-7.25
 L 79.5868,-7.2424 L 79.671,-7.21983 L 79.75,-7.183 L 79.8214,-7.13301 L 79.883,-7.07138 L 79.933,-7
 L 79.9698,-6.92101 L 79.9924,-6.83682 L 80,-6.75 L 79.9924,-6.66316 L 79.9698,-6.57898 L 79.933,-6.5
 L 79.883,-6.4286 L 79.8214,-6.36697 L 79.75,-6.31699 L 79.671,-6.28015 L 79.5868,-6.25758 L 79.5,-6.25
 z
M 69.75,-5.125 L 69.875,-5.125 L 69.875,-5 L 71,-5 L 71,-6.125 L 70.875,-6.125
 L 70.875,-6.25 L 71.5,-6.25 L 71.5,-6.75 L 70.875,-6.75 L 70.875,-6.875 L 71,-6.875
 L 71,-8 L 68,-8 L 68,-5 L 69.125,-5 L 69.125,-5.125 L 69.25,-5.125
 L 69.25,-4.5 L 69.75,-4.5 z
M 69.4132,-6.00758 L 69.329,-6.03015 L 69.25,-6.06699 L 69.1786,-6.11697 L 69.117,-6.1786 L 69.067,-6.25
 L 69.0302,-6.32898 L 69.0076,-6.41316 L 69,-6.5 L 69.0076,-6.58682 L 69.0302,-6.67101 L 69.067,-6.75
 L 69.117,-6.82138 L 69.1786,-6.88301 L 69.25,-6.933 L 69.329,-6.96983 L 69.4132,-6.9924 L 69.5,-7
 L 69.5868,-6.9924 L 69.671,-6.96983 L 69.75,-6.933 L 69.8214,-6.88301 L 69.883,-6.82138 L 69.933,-6.75
 L 69.9698,-6.67101 L 69.9924,-6.58682 L 70,-6.5 L 69.9924,-6.41316 L 69.9698,-6.32898 L 69.933,-6.25
 L 69.883,-6.1786 L 69.8214,-6.11697 L 69.75,-6.06699 L 69.671,-6.03015 L 69.5868,-6.00758 L 69.5,-6
 z
M 37.25,-0.625 L 37.375,-0.625 L 37.375,-0.5 L 40.625,-0.5 L 40.625,-0.625 L 40.75,-0.625
 L 40.75,-0 L 41.5,-0 L 41.5,-3.125 L 41.375,-3.125 L 41.375,-3.25 L 42,-3.25
 L 42,-3.75 L 41.375,-3.75 L 41.375,-3.875 L 41.5,-3.875 L 41.5,-7 L 40.75,-7
 L 40.75,-6.375 L 40.625,-6.375 L 40.625,-6.5 L 37.375,-6.5 L 37.375,-6.375 L 37.25,-6.375
 L 37.25,-7 L 36.5,-7 L 36.5,-0 L 37.25,-0 z
M 61,-4.5 L 60.375,-4.5 L 60.375,-4.625 L 60.5,-4.625 L 60.5,-4.875 L 60.375,-4.875
 L 60.375,-6.125 L 60.5,-6.125 L 60.5,-6.375 L 60.375,-6.375 L 60.375,-6.5 L 61,-6.5
 L 61,-7 L 57,-7 L 57,-4 L 61,-4 z
M 58.4132,-5.00758 L 58.329,-5.03015 L 58.25,-5.06699 L 58.1786,-5.11697 L 58.117,-5.1786 L 58.067,-5.25
 L 58.0302,-5.32898 L 58.0076,-5.41316 L 58,-5.5 L 58.0076,-5.58682 L 58.0302,-5.67101 L 58.067,-5.75
 L 58.117,-5.82138 L 58.1786,-5.88301 L 58.25,-5.933 L 58.329,-5.96983 L 58.4132,-5.9924 L 58.5,-6
 L 58.5868,-5.9924 L 58.671,-5.96983 L 58.75,-5.933 L 58.8214,-5.88301 L 58.883,-5.82138 L 58.933,-5.75
 L 58.9698,-5.67101 L 58.9924,-5.58682 L 59,-5.5 L 58.9924,-5.41316 L 58.9698,-5.32898 L 58.933,-5.25
 L 58.883,-5.1786 L 58.8214,-5.11697 L 58.75,-5.06699 L 58.671,-5.03015 L 58.5868,-5.00758 L 58.5,-5
 z
M 80.5,-4.75 L 76.5,-4.75 L 76.5,-0 L 80.5,-0 z
M 79.4349,-3.38069 L 79.3717,-3.39761 L 79.3125,-3.42523 L 79.2589,-3.46272 L 79.2127,-3.50894 L 79.1752,-3.5625
 L 79.1476,-3.62173 L 79.1307,-3.68488 L 79.125,-3.75 L 79.1307,-3.81511 L 79.1476,-3.87825 L 79.1752,-3.9375
 L 79.2127,-3.99104 L 79.2589,-4.03726 L 79.3125,-4.07475 L 79.3717,-4.10237 L 79.4349,-4.11929 L 79.5,-4.125
 L 79.5651,-4.11929 L 79.6283,-4.10237 L 79.6875,-4.07475 L 79.741,-4.03726 L 79.7873,-3.99104 L 79.8248,-3.9375
 L 79.8524,-3.87825 L 79.8693,-3.81511 L 79.875,-3.75 L 79.8693,-3.68488 L 79.8524,-3.62173 L 79.8248,-3.5625
 L 79.7873,-3.50894 L 79.741,-3.46272 L 79.6875,-3.42523 L 79.6283,-3.39761 L 79.5651,-3.38069 L 79.5,-3.375
 z
M 77.4349,-3.38069 L 77.3717,-3.39761 L 77.3125,-3.42523 L 77.2589,-3.46272 L 77.2127,-3.50894 L 77.1752,-3.5625
 L 77.1476,-3.62173 L 77.1307,-3.68488 L 77.125,-3.75 L 77.1307,-3.81511 L 77.1476,-3.87825 L 77.1752,-3.9375
 L 77.2127,-3.99104 L 77.2589,-4.03726 L 77.3125,-4.07475 L 77.3717,-4.10237 L 77.4349,-4.11929 L 77.5,-4.125
 L 77.5651,-4.11929 L 77.6283,-4.10237 L 77.6875,-4.07475 L 77.741,-4.03726 L 77.7873,-3.99104 L 77.8248,-3.9375
 L 77.8524,-3.87825 L 77.8693,-3.81511 L 77.875,-3.75 L 77.8693,-3.68488 L 77.8524,-3.62173 L 77.8248,-3.5625
 L 77.7873,-3.50894 L 77.741,-3.46272 L 77.6875,-3.42523 L 77.6283,-3.39761 L 77.5651,-3.38069 L 77.5,-3.375
 z
M 79.4132,-0.507584 L 79.329,-0.530151 L 79.25,-0.566986 L 79.1786,-0.616974 L 79.117,-0.678604 L 79.067,-0.75
 L 79.0302,-0.828979 L 79.0076,-0.913162 L 79,-1 L 79.0076,-1.08682 L 79.0302,-1.17101 L 79.067,-1.25
 L 79.117,-1.32138 L 79.1786,-1.38301 L 79.25,-1.433 L 79.329,-1.46983 L 79.4132,-1.4924 L 79.5,-1.5
 L 79.5868,-1.4924 L 79.671,-1.46983 L 79.75,-1.433 L 79.8214,-1.38301 L 79.883,-1.32138 L 79.933,-1.25
 L 79.9698,-1.17101 L 79.9924,-1.08682 L 80,-1 L 79.9924,-0.913162 L 79.9698,-0.828979 L 79.933,-0.75
 L 79.883,-0.678604 L 79.8214,-0.616974 L 79.75,-0.566986 L 79.671,-0.530151 L 79.5868,-0.507584 L 79.5,-0.5
 z
M 77.4132,-0.507584 L 77.329,-0.530151 L 77.25,-0.566986 L 77.1786,-0.616974 L 77.117,-0.678604 L 77.067,-0.75
 L 77.0302,-0.828979 L 77.0076,-0.913162 L 77,-1 L 77.0076,-1.08682 L 77.0302,-1.17101 L 77.067,-1.25
 L 77.117,-1.32138 L 77.1786,-1.38301 L 77.25,-1.433 L 77.329,-1.46983 L 77.4132,-1.4924 L 77.5,-1.5
 L 77.5868,-1.4924 L 77.671,-1.46983 L 77.75,-1.433 L 77.8214,-1.38301 L 77.883,-1.32138 L 77.933,-1.25
 L 77.9698,-1.17101 L 77.9924,-1.08682 L 78,-1 L 77.9924,-0.913162 L 77.9698,-0.828979 L 77.933,-0.75
 L 77.883,-0.678604 L 77.8214,-0.616974 L 77.75,-0.566986 L 77.671,-0.530151 L 77.5868,-0.507584 L 77.5,-0.5
 z
M 69.75,-0.625 L 69.875,-0.625 L 69.875,-0.5 L 71,-0.5 L 71,-1.625 L 70.875,-1.625
 L 70.875,-1.75 L 71.5,-1.75 L 71.5,-2.25 L 70.875,-2.25 L 70.875,-2.375 L 71,-2.375
 L 71,-3.5 L 68,-3.5 L 68,-0.5 L 69.125,-0.5 L 69.125,-0.625 L 69.25,-0.625
 L 69.25,-0 L 69.75,-0 z
M 69.4132,-1.50758 L 69.329,-1.53015 L 69.25,-1.56699 L 69.1786,-1.61697 L 69.117,-1.6786 L 69.067,-1.75
 L 69.0302,-1.82898 L 69.0076,-1.91316 L 69,-2 L 69.0076,-2.08682 L 69.0302,-2.17101 L 69.067,-2.25
 L 69.117,-2.32138 L 69.1786,-2.38301 L 69.25,-2.433 L 69.329,-2.46983 L 69.4132,-2.4924 L 69.5,-2.5
 L 69.5868,-2.4924 L 69.671,-2.46983 L 69.75,-2.433 L 69.8214,-2.38301 L 69.883,-2.32138 L 69.933,-2.25
 L 69.9698,-2.17101 L 69.9924,-2.08682 L 70,-2 L 69.9924,-1.91316 L 69.9698,-1.82898 L 69.933,-1.75
 L 69.883,-1.6786 L 69.8214,-1.61697 L 69.75,-1.56699 L 69.671,-1.53015 L 69.5868,-1.50758 L 69.5,-1.5
 z
M 61,-0.5 L 60.375,-0.5 L 60.375,-0.625 L 60.5,-0.625 L 60.5,-0.875 L 60.375,-0.875
 L 60.375,-2.125 L 60.5,-2.125 L 60.5,-2.375 L 60.375,-2.375 L 60.375,-2.5 L 61,-2.5
 L 61,-3 L 57,-3 L 57,-0 L 61,-0 z
M 58.4132,-1.00758 L 58.329,-1.03015 L 58.25,-1.06699 L 58.1786,-1.11697 L 58.117,-1.1786 L 58.067,-1.25
 L 58.0302,-1.32898 L 58.0076,-1.41316 L 58,-1.5 L 58.0076,-1.58682 L 58.0302,-1.67101 L 58.067,-1.75
 L 58.117,-1.82138 L 58.1786,-1.88301 L 58.25,-1.933 L 58.329,-1.96983 L 58.4132,-1.9924 L 58.5,-2
 L 58.5868,-1.9924 L 58.671,-1.96983 L 58.75,-1.933 L 58.8214,-1.88301 L 58.883,-1.82138 L 58.933,-1.75
 L 58.9698,-1.67101 L 58.9924,-1.58682 L 59,-1.5 L 58.9924,-1.41316 L 58.9698,-1.32898 L 58.933,-1.25
 L 58.883,-1.1786 L 58.8214,-1.11697 L 58.75,-1.06699 L 58.671,-1.03015 L 58.5868,-1.00758 L 58.5,-1
 z
" stroke="black" fill="lightgray" stroke-width="0.5"/>
</svg>
