<?xml version="1.0" standalone="no"?>
<!DOCTYPE svg PUBLIC "-//W3C//DTD SVG 1.1//EN" "http://www.w3.org/Graphics/SVG/1.1/DTD/svg11.dtd">
<svg width="657mm" height="108mm" viewBox="-197 -108 657 108" xmlns="http://www.w3.org/2000/svg" version="1.1">
<title>OpenSCAD Model</title>
<path d="
M 268.375,-36.0625 L 268.5,-36.0625 L 268.5,-36.5625 L 268.375,-36.5625 L 268.375,-41.3802 L 268.5,-41.3802
 L 268.5,-41.8802 L 268.375,-41.8802 L 268.375,-42.0052 L 269,-42.0052 L 269,-47.9479 L 268.375,-47.9479
 L 268.375,-48.0729 L 268.5,-48.0729 L 268.5,-48.5729 L 268.375,-48.5729 L 268.375,-53.3906 L 268.5,-53.3906
 L 268.5,-53.8906 L 268.375,-53.8906 L 268.375,-54.0156 L 269,-54.0156 L 269,-59.9583 L 268.375,-59.9583
 L 268.375,-60.0833 L 268.5,-60.0833 L 268.5,-60.5833 L 268.375,-60.5833 L 268.375,-65.401 L 268.5,-65.401
 L 268.5,-65.901 L 268.375,-65.901 L 268.375,-66.026 L 269,-66.026 L 269,-71.9687 L 268.375,-71.9687
 L 268.375,-72.0937 L 268.5,-72.0937 L 268.5,-72.5937 L 268.375,-72.5937 L 268.375,-77.4115 L 268.5,-77.4115
 L 268.5,-77.9115 L 268.375,-77.9115 L 268.375,-78.0365 L 269,-78.0365 L 269,-83.9792 L 268.375,-83.9792
 L 268.375,-84.1042 L 268.5,-84.1042 L 268.5,-84.6042 L 268.375,-84.6042 L 268.375,-89.4219 L 268.5,-89.4219
 L 268.5,-89.9219 L 268.375,-89.9219 L 268.375,-90.0469 L 269,-90.0469 L 269,-95.9896 L 268.375,-95.9896
 L 268.375,-96.1146 L 268.5,-96.1146 L 268.5,-96.6146 L 268.375,-96.6146 L 268.375,-101.432 L 268.5,-101.432
 L 268.5,-101.932 L 268.375,-101.932 L 268.375,-102.057 L 269,-102.057 L 269,-108 L 263,-108
 L 263,-36 L 268.375,-36 z
M 261.875,-36.0625 L 262,-36.0625 L 262,-36.5625 L 261.875,-36.5625 L 261.875,-41.3802 L 262,-41.3802
 L 262,-41.8802 L 261.875,-41.8802 L 261.875,-42.0052 L 262.5,-42.0052 L 262.5,-47.9479 L 261.875,-47.9479
 L 261.875,-48.0729 L 262,-48.0729 L 262,-48.5729 L 261.875,-48.5729 L 261.875,-53.3906 L 262,-53.3906
 L 262,-53.8906 L 261.875,-53.8906 L 261.875,-54.0156 L 262.5,-54.0156 L 262.5,-59.9583 L 261.875,-59.9583
 L 261.875,-60.0833 L 262,-60.0833 L 262,-60.5833 L 261.875,-60.5833 L 261.875,-65.401 L 262,-65.401
 L 262,-65.901 L 261.875,-65.901 L 261.875,-66.026 L 262.5,-66.026 L 262.5,-71.9687 L 261.875,-71.9687
 L 261.875,-72.0937 L 262,-72.0937 L 262,-72.5937 L 261.875,-72.5937 L 261.875,-77.4115 L 262,-77.4115
 L 262,-77.9115 L 261.875,-77.9115 L 261.875,-78.0365 L 262.5,-78.0365 L 262.5,-83.9792 L 261.875,-83.9792
 L 261.875,-84.1042 L 262,-84.1042 L 262,-84.6042 L 261.875,-84.6042 L 261.875,-89.4219 L 262,-89.4219
 L 262,-89.9219 L 261.875,-89.9219 L 261.875,-90.0469 L 262.5,-90.0469 L 262.5,-95.9896 L 261.875,-95.9896
 L 261.875,-96.1146 L 262,-96.1146 L 262,-96.6146 L 261.875,-96.6146 L 261.875,-101.432 L 262,-101.432
 L 262,-101.932 L 261.875,-101.932 L 261.875,-102.057 L 262.5,-102.057 L 262.5,-108 L 256.5,-108
 L 256.5,-36 L 261.875,-36 z
M 250.5,-9.4427 L 249.875,-9.4427 L 249.875,-9.5677 L 250,-9.5677 L 250,-10.0677 L 249.875,-10.0677
 L 249.875,-15.3854 L 250,-15.3854 L 250,-15.8854 L 249.875,-15.8854 L 249.875,-16.0104 L 250.5,-16.0104
 L 250.5,-22.4531 L 249.875,-22.4531 L 249.875,-22.5781 L 250,-22.5781 L 250,-23.0781 L 249.875,-23.0781
 L 249.875,-28.3958 L 250,-28.3958 L 250,-28.8958 L 249.875,-28.8958 L 249.875,-29.0208 L 250.5,-29.0208
 L 250.5,-35.4635 L 249.875,-35.4635 L 249.875,-35.5885 L 250,-35.5885 L 250,-36 L 253.5,-36
 L 253.5,-41.9427 L 252.875,-41.9427 L 252.875,-42.0677 L 253,-42.0677 L 253,-42.5677 L 252.875,-42.5677
 L 252.875,-47.3854 L 253,-47.3854 L 253,-47.8854 L 252.875,-47.8854 L 252.875,-48.0104 L 253.5,-48.0104
 L 253.5,-53.9531 L 252.875,-53.9531 L 252.875,-54.0781 L 253,-54.0781 L 253,-54.5781 L 252.875,-54.5781
 L 252.875,-59.3958 L 253,-59.3958 L 253,-59.8958 L 252.875,-59.8958 L 252.875,-60.0208 L 253.5,-60.0208
 L 253.5,-65.9635 L 252.875,-65.9635 L 252.875,-66.0885 L 253,-66.0885 L 253,-66.5885 L 252.875,-66.5885
 L 252.875,-71.4062 L 253,-71.4062 L 253,-71.9062 L 252.875,-71.9062 L 252.875,-72.0312 L 253.5,-72.0312
 L 253.5,-77.974 L 252.875,-77.974 L 252.875,-78.099 L 253,-78.099 L 253,-78.599 L 252.875,-78.599
 L 252.875,-83.4167 L 253,-83.4167 L 253,-83.9167 L 252.875,-83.9167 L 252.875,-84.0417 L 253.5,-84.0417
 L 253.5,-89.9844 L 252.875,-89.9844 L 252.875,-90.1094 L 253,-90.1094 L 253,-90.6094 L 252.875,-90.6094
 L 252.875,-95.4271 L 253,-95.4271 L 253,-95.9271 L 252.875,-95.9271 L 252.875,-96.0521 L 253.5,-96.0521
 L 253.5,-101.995 L 252.875,-101.995 L 252.875,-102.12 L 253,-102.12 L 253,-102.62 L 252.875,-102.62
 L 252.875,-107.437 L 253,-107.437 L 253,-107.937 L 252.875,-107.937 L 252.875,-108 L 249.5,-108
 L 249.5,-81 L 244.5,-81 L 244.5,-80.3438 L 245.062,-80.3438 L 245.062,-80.4688 L 245.312,-80.4688
 L 245.312,-80.2188 L 245.188,-80.2188 L 245.188,-79.7812 L 245.312,-79.7812 L 245.312,-79.5312 L 245.062,-79.5312
 L 245.062,-79.6562 L 244.5,-79.6562 L 244.5,-54.3438 L 245.062,-54.3438 L 245.062,-54.4688 L 245.312,-54.4688
 L 245.312,-54.2188 L 245.188,-54.2188 L 245.188,-53.7812 L 245.312,-53.7812 L 245.312,-53.5312 L 245.062,-53.5312
 L 245.062,-53.6562 L 244.5,-53.6562 L 244.5,-4.34375 L 245.062,-4.34375 L 245.062,-4.46875 L 245.312,-4.46875
 L 245.312,-4.21875 L 245.188,-4.21875 L 245.188,-3.78125 L 245.312,-3.78125 L 245.312,-3.53125 L 245.062,-3.53125
 L 245.062,-3.65625 L 244.5,-3.65625 L 244.5,-3 L 250.5,-3 z
M 168.875,-2.0625 L 169,-2.0625 L 169,-2.5625 L 168.875,-2.5625 L 168.875,-7.8802 L 169,-7.8802
 L 169,-8.3802 L 168.875,-8.3802 L 168.875,-8.5052 L 169.5,-8.5052 L 169.5,-14.9479 L 168.875,-14.9479
 L 168.875,-15.0729 L 169,-15.0729 L 169,-15.5729 L 168.875,-15.5729 L 168.875,-20.8906 L 169,-20.8906
 L 169,-21.3906 L 168.875,-21.3906 L 168.875,-21.5156 L 169.5,-21.5156 L 169.5,-27.9583 L 168.875,-27.9583
 L 168.875,-28.0833 L 169,-28.0833 L 169,-28.5833 L 168.875,-28.5833 L 168.875,-33.901 L 169,-33.901
 L 169,-34.401 L 168.875,-34.401 L 168.875,-34.526 L 169.5,-34.526 L 169.5,-40.9687 L 168.875,-40.9687
 L 168.875,-41.0937 L 169,-41.0937 L 169,-41.5937 L 168.875,-41.5937 L 168.875,-46.9115 L 169,-46.9115
 L 169,-47.4115 L 168.875,-47.4115 L 168.875,-47.5365 L 169.5,-47.5365 L 169.5,-53.9792 L 168.875,-53.9792
 L 168.875,-54.1042 L 169,-54.1042 L 169,-54.6042 L 168.875,-54.6042 L 168.875,-59.9219 L 169,-59.9219
 L 169,-60.4219 L 168.875,-60.4219 L 168.875,-60.5469 L 169.5,-60.5469 L 169.5,-66.9896 L 168.875,-66.9896
 L 168.875,-67.1146 L 169,-67.1146 L 169,-67.6146 L 168.875,-67.6146 L 168.875,-72.9323 L 169,-72.9323
 L 169,-73.4323 L 168.875,-73.4323 L 168.875,-73.5573 L 169.5,-73.5573 L 169.5,-80 L 165.5,-80
 L 165.5,-79.3438 L 166.062,-79.3438 L 166.062,-79.4688 L 166.312,-79.4688 L 166.312,-79.2188 L 166.188,-79.2188
 L 166.188,-78.7812 L 166.312,-78.7812 L 166.312,-78.5312 L 166.062,-78.5312 L 166.062,-78.6562 L 165.5,-78.6562
 L 165.5,-53.3438 L 166.062,-53.3438 L 166.062,-53.4688 L 166.312,-53.4688 L 166.312,-53.2188 L 166.188,-53.2188
 L 166.188,-52.7812 L 166.312,-52.7812 L 166.312,-52.5312 L 166.062,-52.5312 L 166.062,-52.6562 L 165.5,-52.6562
 L 165.5,-3.34375 L 166.062,-3.34375 L 166.062,-3.46875 L 166.312,-3.46875 L 166.312,-3.21875 L 166.188,-3.21875
 L 166.188,-2.78125 L 166.312,-2.78125 L 166.312,-2.53125 L 166.062,-2.53125 L 166.062,-2.65625 L 165.5,-2.65625
 L 165.5,-2 L 168.875,-2 z
M 167.431,-76.6061 L 167.363,-76.6241 L 167.3,-76.6536 L 167.243,-76.6936 L 167.194,-76.7429 L 167.154,-76.8
 L 167.124,-76.8632 L 167.106,-76.9305 L 167.1,-77 L 167.106,-77.0695 L 167.124,-77.1368 L 167.154,-77.2
 L 167.194,-77.2571 L 167.243,-77.3064 L 167.3,-77.3464 L 167.363,-77.3759 L 167.431,-77.3939 L 167.5,-77.4
 L 167.569,-77.3939 L 167.637,-77.3759 L 167.7,-77.3464 L 167.757,-77.3064 L 167.806,-77.2571 L 167.846,-77.2
 L 167.876,-77.1368 L 167.894,-77.0695 L 167.9,-77 L 167.894,-76.9305 L 167.876,-76.8632 L 167.846,-76.8
 L 167.806,-76.7429 L 167.757,-76.6936 L 167.7,-76.6536 L 167.637,-76.6241 L 167.569,-76.6061 L 167.5,-76.6
 z
M 167.431,-71.6061 L 167.363,-71.6241 L 167.3,-71.6536 L 167.243,-71.6936 L 167.194,-71.7429 L 167.154,-71.8
 L 167.124,-71.8632 L 167.106,-71.9305 L 167.1,-72 L 167.106,-72.0695 L 167.124,-72.1368 L 167.154,-72.2
 L 167.194,-72.2571 L 167.243,-72.3064 L 167.3,-72.3464 L 167.363,-72.3759 L 167.431,-72.3939 L 167.5,-72.4
 L 167.569,-72.3939 L 167.637,-72.3759 L 167.7,-72.3464 L 167.757,-72.3064 L 167.806,-72.2571 L 167.846,-72.2
 L 167.876,-72.1368 L 167.894,-72.0695 L 167.9,-72 L 167.894,-71.9305 L 167.876,-71.8632 L 167.846,-71.8
 L 167.806,-71.7429 L 167.757,-71.6936 L 167.7,-71.6536 L 167.637,-71.6241 L 167.569,-71.6061 L 167.5,-71.6
 z
M 167.431,-64.1061 L 167.363,-64.1241 L 167.3,-64.1536 L 167.243,-64.1936 L 167.194,-64.2429 L 167.154,-64.3
 L 167.124,-64.3632 L 167.106,-64.4305 L 167.1,-64.5 L 167.106,-64.5695 L 167.124,-64.6368 L 167.154,-64.7
 L 167.194,-64.7571 L 167.243,-64.8064 L 167.3,-64.8464 L 167.363,-64.8759 L 167.431,-64.8939 L 167.5,-64.9
 L 167.569,-64.8939 L 167.637,-64.8759 L 167.7,-64.8464 L 167.757,-64.8064 L 167.806,-64.7571 L 167.846,-64.7
 L 167.876,-64.6368 L 167.894,-64.5695 L 167.9,-64.5 L 167.894,-64.4305 L 167.876,-64.3632 L 167.846,-64.3
 L 167.806,-64.2429 L 167.757,-64.1936 L 167.7,-64.1536 L 167.637,-64.1241 L 167.569,-64.1061 L 167.5,-64.1
 z
M 167.431,-61.1061 L 167.363,-61.1241 L 167.3,-61.1536 L 167.243,-61.1936 L 167.194,-61.2429 L 167.154,-61.3
 L 167.124,-61.3632 L 167.106,-61.4305 L 167.1,-61.5 L 167.106,-61.5695 L 167.124,-61.6368 L 167.154,-61.7
 L 167.194,-61.7571 L 167.243,-61.8064 L 167.3,-61.8464 L 167.363,-61.8759 L 167.431,-61.8939 L 167.5,-61.9
 L 167.569,-61.8939 L 167.637,-61.8759 L 167.7,-61.8464 L 167.757,-61.8064 L 167.806,-61.7571 L 167.846,-61.7
 L 167.876,-61.6368 L 167.894,-61.5695 L 167.9,-61.5 L 167.894,-61.4305 L 167.876,-61.3632 L 167.846,-61.3
 L 167.806,-61.2429 L 167.757,-61.1936 L 167.7,-61.1536 L 167.637,-61.1241 L 167.569,-61.1061 L 167.5,-61.1
 z
M 167.431,-57.6061 L 167.363,-57.6241 L 167.3,-57.6536 L 167.243,-57.6936 L 167.194,-57.7429 L 167.154,-57.8
 L 167.124,-57.8632 L 167.106,-57.9305 L 167.1,-58 L 167.106,-58.0695 L 167.124,-58.1368 L 167.154,-58.2
 L 167.194,-58.2571 L 167.243,-58.3064 L 167.3,-58.3464 L 167.363,-58.3759 L 167.431,-58.3939 L 167.5,-58.4
 L 167.569,-58.3939 L 167.637,-58.3759 L 167.7,-58.3464 L 167.757,-58.3064 L 167.806,-58.2571 L 167.846,-58.2
 L 167.876,-58.1368 L 167.894,-58.0695 L 167.9,-58 L 167.894,-57.9305 L 167.876,-57.8632 L 167.846,-57.8
 L 167.806,-57.7429 L 167.757,-57.6936 L 167.7,-57.6536 L 167.637,-57.6241 L 167.569,-57.6061 L 167.5,-57.6
 z
M 167.431,-47.6061 L 167.363,-47.6241 L 167.3,-47.6536 L 167.243,-47.6936 L 167.194,-47.7429 L 167.154,-47.8
 L 167.124,-47.8632 L 167.106,-47.9305 L 167.1,-48 L 167.106,-48.0695 L 167.124,-48.1368 L 167.154,-48.2
 L 167.194,-48.2571 L 167.243,-48.3064 L 167.3,-48.3464 L 167.363,-48.3759 L 167.431,-48.3939 L 167.5,-48.4
 L 167.569,-48.3939 L 167.637,-48.3759 L 167.7,-48.3464 L 167.757,-48.3064 L 167.806,-48.2571 L 167.846,-48.2
 L 167.876,-48.1368 L 167.894,-48.0695 L 167.9,-48 L 167.894,-47.9305 L 167.876,-47.8632 L 167.846,-47.8
 L 167.806,-47.7429 L 167.757,-47.6936 L 167.7,-47.6536 L 167.637,-47.6241 L 167.569,-47.6061 L 167.5,-47.6
 z
M 167.431,-44.3561 L 167.363,-44.3741 L 167.3,-44.4036 L 167.243,-44.4436 L 167.194,-44.4929 L 167.154,-44.55
 L 167.124,-44.6132 L 167.106,-44.6805 L 167.1,-44.75 L 167.106,-44.8195 L 167.124,-44.8868 L 167.154,-44.95
 L 167.194,-45.0071 L 167.243,-45.0564 L 167.3,-45.0964 L 167.363,-45.1259 L 167.431,-45.1439 L 167.5,-45.15
 L 167.569,-45.1439 L 167.637,-45.1259 L 167.7,-45.0964 L 167.757,-45.0564 L 167.806,-45.0071 L 167.846,-44.95
 L 167.876,-44.8868 L 167.894,-44.8195 L 167.9,-44.75 L 167.894,-44.6805 L 167.876,-44.6132 L 167.846,-44.55
 L 167.806,-44.4929 L 167.757,-44.4436 L 167.7,-44.4036 L 167.637,-44.3741 L 167.569,-44.3561 L 167.5,-44.35
 z
M 167.431,-31.8561 L 167.363,-31.8741 L 167.3,-31.9036 L 167.243,-31.9436 L 167.194,-31.9929 L 167.154,-32.05
 L 167.124,-32.1132 L 167.106,-32.1805 L 167.1,-32.25 L 167.106,-32.3195 L 167.124,-32.3868 L 167.154,-32.45
 L 167.194,-32.5071 L 167.243,-32.5564 L 167.3,-32.5964 L 167.363,-32.6259 L 167.431,-32.6439 L 167.5,-32.65
 L 167.569,-32.6439 L 167.637,-32.6259 L 167.7,-32.5964 L 167.757,-32.5564 L 167.806,-32.5071 L 167.846,-32.45
 L 167.876,-32.3868 L 167.894,-32.3195 L 167.9,-32.25 L 167.894,-32.1805 L 167.876,-32.1132 L 167.846,-32.05
 L 167.806,-31.9929 L 167.757,-31.9436 L 167.7,-31.9036 L 167.637,-31.8741 L 167.569,-31.8561 L 167.5,-31.85
 z
M 167.431,-5.60606 L 167.363,-5.62411 L 167.3,-5.65358 L 167.243,-5.69357 L 167.194,-5.74287 L 167.154,-5.79999
 L 167.124,-5.86319 L 167.106,-5.93053 L 167.1,-6 L 167.106,-6.06946 L 167.124,-6.1368 L 167.154,-6.2
 L 167.194,-6.25711 L 167.243,-6.30641 L 167.3,-6.34641 L 167.363,-6.37587 L 167.431,-6.39392 L 167.5,-6.39999
 L 167.569,-6.39392 L 167.637,-6.37587 L 167.7,-6.34641 L 167.757,-6.30641 L 167.806,-6.25711 L 167.846,-6.2
 L 167.876,-6.1368 L 167.894,-6.06946 L 167.9,-6 L 167.894,-5.93053 L 167.876,-5.86319 L 167.846,-5.79999
 L 167.806,-5.74287 L 167.757,-5.69357 L 167.7,-5.65358 L 167.637,-5.62411 L 167.569,-5.60606 L 167.5,-5.59999
 z
M 167.431,-3.60606 L 167.363,-3.62411 L 167.3,-3.65358 L 167.243,-3.69357 L 167.194,-3.74287 L 167.154,-3.79999
 L 167.124,-3.86319 L 167.106,-3.93053 L 167.1,-4 L 167.106,-4.06946 L 167.124,-4.1368 L 167.154,-4.2
 L 167.194,-4.25711 L 167.243,-4.30641 L 167.3,-4.34641 L 167.363,-4.37587 L 167.431,-4.39392 L 167.5,-4.39999
 L 167.569,-4.39392 L 167.637,-4.37587 L 167.7,-4.34641 L 167.757,-4.30641 L 167.806,-4.25711 L 167.846,-4.2
 L 167.876,-4.1368 L 167.894,-4.06946 L 167.9,-4 L 167.894,-3.93053 L 167.876,-3.86319 L 167.846,-3.79999
 L 167.806,-3.74287 L 167.757,-3.69357 L 167.7,-3.65358 L 167.637,-3.62411 L 167.569,-3.60606 L 167.5,-3.59999
 z
M 317.875,-24.7704 L 318,-24.7704 L 318,-25.2704 L 317.875,-25.2704 L 317.875,-31.9439 L 318,-31.9439
 L 318,-32.4439 L 317.875,-32.4439 L 317.875,-32.6939 L 318.5,-32.6939 L 318.5,-40.8673 L 317.875,-40.8673
 L 317.875,-41.1173 L 318,-41.1173 L 318,-41.6173 L 317.875,-41.6173 L 317.875,-48.2908 L 318,-48.2908
 L 318,-48.7908 L 317.875,-48.7908 L 317.875,-49.0408 L 318.5,-49.0408 L 318.5,-57.2143 L 317.875,-57.2143
 L 317.875,-57.4643 L 318,-57.4643 L 318,-57.9643 L 317.875,-57.9643 L 317.875,-64.6377 L 318,-64.6377
 L 318,-65.1377 L 317.875,-65.1377 L 317.875,-65.3877 L 318.5,-65.3877 L 318.5,-73.5612 L 312.5,-73.5612
 L 312.5,-65.3877 L 313.125,-65.3877 L 313.125,-65.1377 L 313,-65.1377 L 313,-64.6377 L 313.125,-64.6377
 L 313.125,-57.9643 L 313,-57.9643 L 313,-57.4643 L 313.125,-57.4643 L 313.125,-57.2143 L 312.5,-57.2143
 L 312.5,-49.0408 L 313.125,-49.0408 L 313.125,-48.7908 L 313,-48.7908 L 313,-48.2908 L 313.125,-48.2908
 L 313.125,-41.6173 L 313,-41.6173 L 313,-41.1173 L 313.125,-41.1173 L 313.125,-40.8673 L 312.5,-40.8673
 L 312.5,-32.6939 L 313.125,-32.6939 L 313.125,-32.4439 L 313,-32.4439 L 313,-31.9439 L 313.125,-31.9439
 L 313.125,-25.2704 L 313,-25.2704 L 313,-24.7704 L 313.125,-24.7704 L 313.125,-24.5204 L 317.875,-24.5204
 z
M 315.413,-59.9105 L 315.329,-59.933 L 315.25,-59.9699 L 315.179,-60.0199 L 315.117,-60.0815 L 315.067,-60.1529
 L 315.03,-60.2319 L 315.008,-60.3161 L 315,-60.4029 L 315,-60.6629 L 315.008,-60.7497 L 315.03,-60.8339
 L 315.067,-60.9129 L 315.117,-60.9843 L 315.179,-61.0459 L 315.25,-61.0959 L 315.329,-61.1327 L 315.413,-61.1553
 L 315.5,-61.1629 L 315.587,-61.1553 L 315.671,-61.1327 L 315.75,-61.0959 L 315.821,-61.0459 L 315.883,-60.9843
 L 315.933,-60.9129 L 315.97,-60.8339 L 315.992,-60.7497 L 316,-60.6629 L 316,-60.4029 L 315.992,-60.3161
 L 315.97,-60.2319 L 315.933,-60.1529 L 315.883,-60.0815 L 315.821,-60.0199 L 315.75,-59.9699 L 315.671,-59.933
 L 315.587,-59.9105 L 315.5,-59.9029 z
M 315.413,-52.9105 L 315.329,-52.933 L 315.25,-52.9699 L 315.179,-53.0199 L 315.117,-53.0815 L 315.067,-53.1529
 L 315.03,-53.2319 L 315.008,-53.3161 L 315,-53.4029 L 315,-53.6629 L 315.008,-53.7497 L 315.03,-53.8339
 L 315.067,-53.9129 L 315.117,-53.9843 L 315.179,-54.0459 L 315.25,-54.0959 L 315.329,-54.1327 L 315.413,-54.1553
 L 315.5,-54.1629 L 315.587,-54.1553 L 315.671,-54.1327 L 315.75,-54.0959 L 315.821,-54.0459 L 315.883,-53.9843
 L 315.933,-53.9129 L 315.97,-53.8339 L 315.992,-53.7497 L 316,-53.6629 L 316,-53.4029 L 315.992,-53.3161
 L 315.97,-53.2319 L 315.933,-53.1529 L 315.883,-53.0815 L 315.821,-53.0199 L 315.75,-52.9699 L 315.671,-52.933
 L 315.587,-52.9105 L 315.5,-52.9029 z
M 324,-32.6939 L 323.375,-32.6939 L 323.375,-32.9439 L 323.5,-32.9439 L 323.5,-33.4439 L 323.375,-33.4439
 L 323.375,-40.1173 L 323.5,-40.1173 L 323.5,-40.6173 L 323.375,-40.6173 L 323.375,-40.8673 L 324,-40.8673
 L 324,-49.0408 L 323.375,-49.0408 L 323.375,-49.2908 L 323.5,-49.2908 L 323.5,-49.7908 L 323.375,-49.7908
 L 323.375,-56.4643 L 323.5,-56.4643 L 323.5,-56.9643 L 323.375,-56.9643 L 323.375,-57.2143 L 324,-57.2143
 L 324,-65.3877 L 323.375,-65.3877 L 323.375,-65.6377 L 323.5,-65.6377 L 323.5,-66.1377 L 323.375,-66.1377
 L 323.375,-72.8112 L 323.5,-72.8112 L 323.5,-73.3112 L 323.375,-73.3112 L 323.375,-73.5612 L 320.031,-73.5612
 L 320.031,-73.1549 L 320.156,-73.1549 L 320.156,-72.9049 L 319.906,-72.9049 L 319.906,-73.0299 L 319.5,-73.0299
 L 319.5,-67.7612 L 320.9,-67.7612 L 320.9,-61.3612 L 319.5,-61.3612 L 319.5,-50.5641 L 319.906,-50.5641
 L 319.906,-50.6891 L 320.156,-50.6891 L 320.156,-50.4391 L 320.031,-50.4391 L 320.031,-50.1266 L 320.156,-50.1266
 L 320.156,-49.8766 L 319.906,-49.8766 L 319.906,-50.0016 L 319.5,-50.0016 L 319.5,-25.0516 L 319.906,-25.0516
 L 319.906,-25.1766 L 320.156,-25.1766 L 320.156,-24.9266 L 320.031,-24.9266 L 320.031,-24.5204 L 324,-24.5204
 z
M 321.934,-71.687 L 321.87,-71.7041 L 321.81,-71.7321 L 321.756,-71.7701 L 321.709,-71.8169 L 321.671,-71.8712
 L 321.643,-71.9312 L 321.626,-71.9952 L 321.62,-72.0612 L 321.626,-72.1272 L 321.643,-72.1912 L 321.671,-72.2512
 L 321.709,-72.3055 L 321.756,-72.3523 L 321.81,-72.3903 L 321.87,-72.4183 L 321.934,-72.4354 L 322,-72.4412
 L 322.066,-72.4354 L 322.13,-72.4183 L 322.19,-72.3903 L 322.244,-72.3523 L 322.291,-72.3055 L 322.329,-72.2512
 L 322.357,-72.1912 L 322.374,-72.1272 L 322.38,-72.0612 L 322.374,-71.9952 L 322.357,-71.9312 L 322.329,-71.8712
 L 322.291,-71.8169 L 322.244,-71.7701 L 322.19,-71.7321 L 322.13,-71.7041 L 322.066,-71.687 L 322,-71.6812
 z
M 321.934,-68.687 L 321.87,-68.7041 L 321.81,-68.7321 L 321.756,-68.7701 L 321.709,-68.8169 L 321.671,-68.8712
 L 321.643,-68.9312 L 321.626,-68.9952 L 321.62,-69.0612 L 321.626,-69.1272 L 321.643,-69.1912 L 321.671,-69.2512
 L 321.709,-69.3055 L 321.756,-69.3523 L 321.81,-69.3903 L 321.87,-69.4183 L 321.934,-69.4354 L 322,-69.4412
 L 322.066,-69.4354 L 322.13,-69.4183 L 322.19,-69.3903 L 322.244,-69.3523 L 322.291,-69.3055 L 322.329,-69.2512
 L 322.357,-69.1912 L 322.374,-69.1272 L 322.38,-69.0612 L 322.374,-68.9952 L 322.357,-68.9312 L 322.329,-68.8712
 L 322.291,-68.8169 L 322.244,-68.7701 L 322.19,-68.7321 L 322.13,-68.7041 L 322.066,-68.687 L 322,-68.6812
 z
M 321.913,-59.038 L 321.828,-59.0607 L 321.749,-59.0977 L 321.677,-59.1479 L 321.615,-59.2099 L 321.565,-59.2816
 L 321.528,-59.361 L 321.505,-59.4456 L 321.497,-59.5329 L 321.505,-59.6201 L 321.528,-59.7048 L 321.565,-59.7841
 L 321.615,-59.8559 L 321.677,-59.9178 L 321.749,-59.9681 L 321.828,-60.0051 L 321.913,-60.0278 L 322,-60.0354
 L 322.087,-60.0278 L 322.172,-60.0051 L 322.251,-59.9681 L 322.323,-59.9178 L 322.385,-59.8559 L 322.435,-59.7841
 L 322.472,-59.7048 L 322.495,-59.6201 L 322.502,-59.5329 L 322.495,-59.4456 L 322.472,-59.361 L 322.435,-59.2816
 L 322.385,-59.2099 L 322.323,-59.1479 L 322.251,-59.0977 L 322.172,-59.0607 L 322.087,-59.038 L 322,-59.0304
 z
M 321.913,-56.038 L 321.828,-56.0607 L 321.749,-56.0977 L 321.677,-56.1479 L 321.615,-56.2099 L 321.565,-56.2816
 L 321.528,-56.361 L 321.505,-56.4456 L 321.497,-56.5329 L 321.505,-56.6201 L 321.528,-56.7048 L 321.565,-56.7841
 L 321.615,-56.8559 L 321.677,-56.9178 L 321.749,-56.9681 L 321.828,-57.0051 L 321.913,-57.0278 L 322,-57.0354
 L 322.087,-57.0278 L 322.172,-57.0051 L 322.251,-56.9681 L 322.323,-56.9178 L 322.385,-56.8559 L 322.435,-56.7841
 L 322.472,-56.7048 L 322.495,-56.6201 L 322.502,-56.5329 L 322.495,-56.4456 L 322.472,-56.361 L 322.435,-56.2816
 L 322.385,-56.2099 L 322.323,-56.1479 L 322.251,-56.0977 L 322.172,-56.0607 L 322.087,-56.038 L 322,-56.0304
 z
M 321.913,-52.038 L 321.828,-52.0607 L 321.749,-52.0977 L 321.677,-52.1479 L 321.615,-52.2099 L 321.565,-52.2816
 L 321.528,-52.361 L 321.505,-52.4456 L 321.497,-52.5329 L 321.505,-52.6201 L 321.528,-52.7048 L 321.565,-52.7841
 L 321.615,-52.8559 L 321.677,-52.9178 L 321.749,-52.9681 L 321.828,-53.0051 L 321.913,-53.0278 L 322,-53.0354
 L 322.087,-53.0278 L 322.172,-53.0051 L 322.251,-52.9681 L 322.323,-52.9178 L 322.385,-52.8559 L 322.435,-52.7841
 L 322.472,-52.7048 L 322.495,-52.6201 L 322.502,-52.5329 L 322.495,-52.4456 L 322.472,-52.361 L 322.435,-52.2816
 L 322.385,-52.2099 L 322.323,-52.1479 L 322.251,-52.0977 L 322.172,-52.0607 L 322.087,-52.038 L 322,-52.0304
 z
M 321.934,-30.1462 L 321.87,-30.1633 L 321.81,-30.1913 L 321.756,-30.2293 L 321.709,-30.2761 L 321.671,-30.3304
 L 321.643,-30.3904 L 321.626,-30.4544 L 321.62,-30.5204 L 321.626,-30.5864 L 321.643,-30.6504 L 321.671,-30.7104
 L 321.709,-30.7646 L 321.756,-30.8115 L 321.81,-30.8495 L 321.87,-30.8775 L 321.934,-30.8946 L 322,-30.9004
 L 322.066,-30.8946 L 322.13,-30.8775 L 322.19,-30.8495 L 322.244,-30.8115 L 322.291,-30.7646 L 322.329,-30.7104
 L 322.357,-30.6504 L 322.374,-30.5864 L 322.38,-30.5204 L 322.374,-30.4544 L 322.357,-30.3904 L 322.329,-30.3304
 L 322.291,-30.2761 L 322.244,-30.2293 L 322.19,-30.1913 L 322.13,-30.1633 L 322.066,-30.1462 L 322,-30.1404
 z
M 321.934,-26.1462 L 321.87,-26.1633 L 321.81,-26.1913 L 321.756,-26.2293 L 321.709,-26.2761 L 321.671,-26.3304
 L 321.643,-26.3904 L 321.626,-26.4544 L 321.62,-26.5204 L 321.626,-26.5864 L 321.643,-26.6504 L 321.671,-26.7104
 L 321.709,-26.7646 L 321.756,-26.8115 L 321.81,-26.8495 L 321.87,-26.8775 L 321.934,-26.8946 L 322,-26.9004
 L 322.066,-26.8946 L 322.13,-26.8775 L 322.19,-26.8495 L 322.244,-26.8115 L 322.291,-26.7646 L 322.329,-26.7104
 L 322.357,-26.6504 L 322.374,-26.5864 L 322.38,-26.5204 L 322.374,-26.4544 L 322.357,-26.3904 L 322.329,-26.3304
 L 322.291,-26.2761 L 322.244,-26.2293 L 322.19,-26.1913 L 322.13,-26.1633 L 322.066,-26.1462 L 322,-26.1404
 z
M 391.75,-18.2431 L 391.75,-37.7569 L 354.75,-56 L 354.75,-0 z
M 426.794,-16 L 426.794,-40 L 392.75,-56 L 392.75,-0 z
M 30.75,-26.625 L 30.875,-26.625 L 30.875,-26.5 L 31.125,-26.5 L 31.125,-26.625 L 34.375,-26.625
 L 34.375,-26.5 L 34.625,-26.5 L 34.625,-26.625 L 34.75,-26.625 L 34.75,-26 L 35.5,-26
 L 35.5,-32.2188 L 35.25,-32.2188 L 35.25,-32.125 L 34.625,-32.125 L 34.625,-32.375 L 34.7188,-32.375
 L 34.7188,-32.625 L 34.625,-32.625 L 34.625,-32.875 L 35.25,-32.875 L 35.25,-32.7812 L 35.5,-32.7812
 L 35.5,-38.2188 L 35.25,-38.2188 L 35.25,-38.125 L 34.625,-38.125 L 34.625,-38.375 L 34.7188,-38.375
 L 34.7188,-38.625 L 34.625,-38.625 L 34.625,-38.875 L 35.25,-38.875 L 35.25,-38.7812 L 35.5,-38.7812
 L 35.5,-44.2188 L 35.25,-44.2188 L 35.25,-44.125 L 34.625,-44.125 L 34.625,-44.375 L 34.7188,-44.375
 L 34.7188,-44.625 L 34.625,-44.625 L 34.625,-44.875 L 35.25,-44.875 L 35.25,-44.7812 L 35.5,-44.7812
 L 35.5,-51 L 34.75,-51 L 34.75,-50.375 L 34.625,-50.375 L 34.625,-50.5 L 34.375,-50.5
 L 34.375,-50.375 L 31.125,-50.375 L 31.125,-50.5 L 30.875,-50.5 L 30.875,-50.375 L 30.75,-50.375
 L 30.75,-51 L 30,-51 L 30,-26 L 30.75,-26 z
M 30.375,-44.125 L 30.375,-44.375 L 30.4688,-44.375 L 30.4688,-44.625 L 30.375,-44.625 L 30.375,-44.875
 L 30.75,-44.875 L 30.75,-44.7812 L 31,-44.7812 L 31,-44.875 L 31.375,-44.875 L 31.375,-44.625
 L 31.2812,-44.625 L 31.2812,-44.375 L 31.375,-44.375 L 31.375,-44.125 L 31,-44.125 L 31,-44.2188
 L 30.75,-44.2188 L 30.75,-44.125 z
M 30.375,-38.125 L 30.375,-38.375 L 30.4688,-38.375 L 30.4688,-38.625 L 30.375,-38.625 L 30.375,-38.875
 L 30.75,-38.875 L 30.75,-38.7812 L 31,-38.7812 L 31,-38.875 L 31.375,-38.875 L 31.375,-38.625
 L 31.2812,-38.625 L 31.2812,-38.375 L 31.375,-38.375 L 31.375,-38.125 L 31,-38.125 L 31,-38.2188
 L 30.75,-38.2188 L 30.75,-38.125 z
M 30.375,-32.125 L 30.375,-32.375 L 30.4688,-32.375 L 30.4688,-32.625 L 30.375,-32.625 L 30.375,-32.875
 L 30.75,-32.875 L 30.75,-32.7812 L 31,-32.7812 L 31,-32.875 L 31.375,-32.875 L 31.375,-32.625
 L 31.2812,-32.625 L 31.2812,-32.375 L 31.375,-32.375 L 31.375,-32.125 L 31,-32.125 L 31,-32.2188
 L 30.75,-32.2188 L 30.75,-32.125 z
M -1,-48 L -97,-48 L -97,-0.00999451 L -101,-0.00999451 L -101,-48 L -197,-48
 L -197,-0 L -1,-0 z
M 281.5,-16.6942 L 280.875,-16.6942 L 280.875,-16.8192 L 281,-16.8192 L 281,-45.9576 L 280.875,-45.9576
 L 280.875,-46.0826 L 281.5,-46.0826 L 281.5,-47.0826 L 278,-47.0826 L 278,-15.6942 L 281.5,-15.6942
 z
M 302.5,-4 L 301.875,-4 L 301.875,-5 L 302,-5 L 302,-6 L 301.875,-6
 L 301.875,-18.0942 L 302,-18.0942 L 302,-19.0942 L 301.875,-19.0942 L 301.875,-20.0942 L 302.5,-20.0942
 L 302.5,-22.0942 L 301.875,-22.0942 L 301.875,-23.0942 L 302,-23.0942 L 302,-24.0942 L 301.875,-24.0942
 L 301.875,-36.1884 L 302,-36.1884 L 302,-37.1884 L 301.875,-37.1884 L 301.875,-38.1884 L 302.5,-38.1884
 L 302.5,-42.1884 L 299,-42.1884 L 299,-0 L 302.5,-0 z
M 300.413,-39.696 L 300.329,-39.7186 L 300.25,-39.7554 L 300.179,-39.8054 L 300.117,-39.867 L 300.067,-39.9384
 L 300.03,-40.0174 L 300.008,-40.1016 L 300,-40.1884 L 300.008,-40.2752 L 300.03,-40.3594 L 300.067,-40.4384
 L 300.117,-40.5098 L 300.179,-40.5714 L 300.25,-40.6214 L 300.329,-40.6582 L 300.413,-40.6808 L 300.5,-40.6884
 L 300.587,-40.6808 L 300.671,-40.6582 L 300.75,-40.6214 L 300.821,-40.5714 L 300.883,-40.5098 L 300.933,-40.4384
 L 300.97,-40.3594 L 300.992,-40.2752 L 301,-40.1884 L 300.992,-40.1016 L 300.97,-40.0174 L 300.933,-39.9384
 L 300.883,-39.867 L 300.821,-39.8054 L 300.75,-39.7554 L 300.671,-39.7186 L 300.587,-39.696 L 300.5,-39.6884
 z
M 300.413,-1.50758 L 300.329,-1.53015 L 300.25,-1.56699 L 300.179,-1.61697 L 300.117,-1.6786 L 300.067,-1.75
 L 300.03,-1.82898 L 300.008,-1.91316 L 300,-2 L 300.008,-2.08682 L 300.03,-2.17101 L 300.067,-2.25
 L 300.117,-2.32138 L 300.179,-2.38301 L 300.25,-2.433 L 300.329,-2.46983 L 300.413,-2.4924 L 300.5,-2.5
 L 300.587,-2.4924 L 300.671,-2.46983 L 300.75,-2.433 L 300.821,-2.38301 L 300.883,-2.32138 L 300.933,-2.25
 L 300.97,-2.17101 L 300.992,-2.08682 L 301,-2 L 300.992,-1.91316 L 300.97,-1.82898 L 300.933,-1.75
 L 300.883,-1.6786 L 300.821,-1.61697 L 300.75,-1.56699 L 300.671,-1.53015 L 300.587,-1.50758 L 300.5,-1.5
 z
M 287,-21.9067 L 287.438,-21.9067 L 287.438,-22.0317 L 287.688,-22.0317 L 287.688,-21.7817 L 287.562,-21.7817
 L 287.562,-19.9067 L 287.688,-19.9067 L 287.688,-19.6567 L 287.438,-19.6567 L 287.438,-19.7817 L 287,-19.7817
 L 287,-3.75 L 287.625,-3.75 L 287.625,-3.625 L 287.5,-3.625 L 287.5,-2.625 L 287.625,-2.625
 L 287.625,-0.875 L 287.5,-0.875 L 287.5,-0.340897 L 292.5,-3.75 L 298,-3.75 L 298,-37.9384
 L 292.5,-37.9384 L 287.5,-41.3475 L 287.5,-40.8134 L 287.625,-40.8134 L 287.625,-39.0634 L 287.5,-39.0634
 L 287.5,-38.0634 L 287.625,-38.0634 L 287.625,-37.9384 L 287,-37.9384 z
M 295.913,-34.9435 L 295.828,-34.9662 L 295.749,-35.0032 L 295.677,-35.0535 L 295.615,-35.1154 L 295.565,-35.1871
 L 295.528,-35.2665 L 295.505,-35.3511 L 295.497,-35.4384 L 295.505,-35.5257 L 295.528,-35.6103 L 295.565,-35.6896
 L 295.615,-35.7614 L 295.677,-35.8233 L 295.749,-35.8736 L 295.828,-35.9106 L 295.913,-35.9333 L 296,-35.9409
 L 296.087,-35.9333 L 296.172,-35.9106 L 296.251,-35.8736 L 296.323,-35.8233 L 296.385,-35.7614 L 296.435,-35.6896
 L 296.472,-35.6103 L 296.495,-35.5257 L 296.502,-35.4384 L 296.495,-35.3511 L 296.472,-35.2665 L 296.435,-35.1871
 L 296.385,-35.1154 L 296.323,-35.0535 L 296.251,-35.0032 L 296.172,-34.9662 L 296.087,-34.9435 L 296,-34.9359
 z
M 288.913,-34.9435 L 288.828,-34.9662 L 288.749,-35.0032 L 288.677,-35.0535 L 288.615,-35.1154 L 288.565,-35.1871
 L 288.528,-35.2665 L 288.505,-35.3511 L 288.497,-35.4384 L 288.505,-35.5257 L 288.528,-35.6103 L 288.565,-35.6896
 L 288.615,-35.7614 L 288.677,-35.8233 L 288.749,-35.8736 L 288.828,-35.9106 L 288.913,-35.9333 L 289,-35.9409
 L 289.087,-35.9333 L 289.172,-35.9106 L 289.251,-35.8736 L 289.323,-35.8233 L 289.385,-35.7614 L 289.435,-35.6896
 L 289.472,-35.6103 L 289.495,-35.5257 L 289.502,-35.4384 L 289.495,-35.3511 L 289.472,-35.2665 L 289.435,-35.1871
 L 289.385,-35.1154 L 289.323,-35.0535 L 289.251,-35.0032 L 289.172,-34.9662 L 289.087,-34.9435 L 289,-34.9359
 z
M 291.913,-34.9435 L 291.828,-34.9662 L 291.749,-35.0032 L 291.677,-35.0535 L 291.615,-35.1154 L 291.565,-35.1871
 L 291.528,-35.2665 L 291.505,-35.3511 L 291.497,-35.4384 L 291.505,-35.5257 L 291.528,-35.6103 L 291.565,-35.6896
 L 291.615,-35.7614 L 291.677,-35.8233 L 291.749,-35.8736 L 291.828,-35.9106 L 291.913,-35.9333 L 292,-35.9409
 L 292.087,-35.9333 L 292.172,-35.9106 L 292.251,-35.8736 L 292.323,-35.8233 L 292.385,-35.7614 L 292.435,-35.6896
 L 292.472,-35.6103 L 292.495,-35.5257 L 292.502,-35.4384 L 292.495,-35.3511 L 292.472,-35.2665 L 292.435,-35.1871
 L 292.385,-35.1154 L 292.323,-35.0535 L 292.251,-35.0032 L 292.172,-34.9662 L 292.087,-34.9435 L 292,-34.9359
 z
M 290.062,-32.8129 L 290.062,-33.0629 L 290.188,-33.0629 L 290.188,-33.9379 L 290.062,-33.9379 L 290.062,-34.1879
 L 290.312,-34.1879 L 290.312,-34.0629 L 290.688,-34.0629 L 290.688,-34.1879 L 290.938,-34.1879 L 290.938,-33.9379
 L 290.812,-33.9379 L 290.812,-33.0629 L 290.938,-33.0629 L 290.938,-32.8129 L 290.688,-32.8129 L 290.688,-32.9379
 L 290.312,-32.9379 L 290.312,-32.8129 z
M 290.062,-7.50044 L 290.062,-7.75044 L 290.188,-7.75044 L 290.188,-8.62544 L 290.062,-8.62544 L 290.062,-8.87544
 L 290.312,-8.87544 L 290.312,-8.75044 L 290.688,-8.75044 L 290.688,-8.87544 L 290.938,-8.87544 L 290.938,-8.62544
 L 290.812,-8.62544 L 290.812,-7.75044 L 290.938,-7.75044 L 290.938,-7.50044 L 290.688,-7.50044 L 290.688,-7.62544
 L 290.312,-7.62544 L 290.312,-7.50044 z
M 295.913,-5.75513 L 295.828,-5.7778 L 295.749,-5.81482 L 295.677,-5.86505 L 295.615,-5.92699 L 295.565,-5.99875
 L 295.528,-6.07812 L 295.505,-6.16273 L 295.497,-6.25 L 295.505,-6.33725 L 295.528,-6.42186 L 295.565,-6.50124
 L 295.615,-6.573 L 295.677,-6.63493 L 295.749,-6.68517 L 295.828,-6.72218 L 295.913,-6.74486 L 296,-6.75249
 L 296.087,-6.74486 L 296.172,-6.72218 L 296.251,-6.68517 L 296.323,-6.63493 L 296.385,-6.573 L 296.435,-6.50124
 L 296.472,-6.42186 L 296.495,-6.33725 L 296.502,-6.25 L 296.495,-6.16273 L 296.472,-6.07812 L 296.435,-5.99875
 L 296.385,-5.92699 L 296.323,-5.86505 L 296.251,-5.81482 L 296.172,-5.7778 L 296.087,-5.75513 L 296,-5.7475
 z
M 291.913,-5.75513 L 291.828,-5.7778 L 291.749,-5.81482 L 291.677,-5.86505 L 291.615,-5.92699 L 291.565,-5.99875
 L 291.528,-6.07812 L 291.505,-6.16273 L 291.497,-6.25 L 291.505,-6.33725 L 291.528,-6.42186 L 291.565,-6.50124
 L 291.615,-6.573 L 291.677,-6.63493 L 291.749,-6.68517 L 291.828,-6.72218 L 291.913,-6.74486 L 292,-6.75249
 L 292.087,-6.74486 L 292.172,-6.72218 L 292.251,-6.68517 L 292.323,-6.63493 L 292.385,-6.573 L 292.435,-6.50124
 L 292.472,-6.42186 L 292.495,-6.33725 L 292.502,-6.25 L 292.495,-6.16273 L 292.472,-6.07812 L 292.435,-5.99875
 L 292.385,-5.92699 L 292.323,-5.86505 L 292.251,-5.81482 L 292.172,-5.7778 L 292.087,-5.75513 L 292,-5.7475
 z
M 288.913,-5.75513 L 288.828,-5.7778 L 288.749,-5.81482 L 288.677,-5.86505 L 288.615,-5.92699 L 288.565,-5.99875
 L 288.528,-6.07812 L 288.505,-6.16273 L 288.497,-6.25 L 288.505,-6.33725 L 288.528,-6.42186 L 288.565,-6.50124
 L 288.615,-6.573 L 288.677,-6.63493 L 288.749,-6.68517 L 288.828,-6.72218 L 288.913,-6.74486 L 289,-6.75249
 L 289.087,-6.74486 L 289.172,-6.72218 L 289.251,-6.68517 L 289.323,-6.63493 L 289.385,-6.573 L 289.435,-6.50124
 L 289.472,-6.42186 L 289.495,-6.33725 L 289.502,-6.25 L 289.495,-6.16273 L 289.472,-6.07812 L 289.435,-5.99875
 L 289.385,-5.92699 L 289.323,-5.86505 L 289.251,-5.81482 L 289.172,-5.7778 L 289.087,-5.75513 L 289,-5.7475
 z
M 429.044,-1.5 L 429.051,-1.58682 L 429.074,-1.67101 L 429.111,-1.75 L 429.161,-1.82138 L 429.222,-1.88301
 L 429.294,-1.933 L 429.373,-1.96983 L 429.457,-1.9924 L 429.544,-2 L 429.631,-1.9924 L 429.715,-1.96983
 L 429.794,-1.933 L 429.865,-1.88301 L 429.927,-1.82138 L 429.977,-1.75 L 430.014,-1.67101 L 430.036,-1.58682
 L 430.044,-1.5 L 430.044,-0 L 441.544,-0 L 441.544,-1.5 L 441.551,-1.58682 L 441.574,-1.67101
 L 441.611,-1.75 L 441.661,-1.82138 L 441.722,-1.88301 L 441.794,-1.933 L 441.873,-1.96983 L 441.957,-1.9924
 L 442.044,-2 L 442.131,-1.9924 L 442.215,-1.96983 L 442.294,-1.933 L 442.365,-1.88301 L 442.427,-1.82138
 L 442.477,-1.75 L 442.514,-1.67101 L 442.536,-1.58682 L 442.544,-1.5 L 442.544,-0 L 443.794,-0
 L 443.794,-41.1884 L 442.544,-41.1884 L 442.544,-39.6884 L 442.536,-39.6016 L 442.514,-39.5174 L 442.477,-39.4384
 L 442.427,-39.367 L 442.365,-39.3054 L 442.294,-39.2554 L 442.215,-39.2186 L 442.131,-39.196 L 442.044,-39.1884
 L 441.957,-39.196 L 441.873,-39.2186 L 441.794,-39.2554 L 441.722,-39.3054 L 441.661,-39.367 L 441.611,-39.4384
 L 441.574,-39.5174 L 441.551,-39.6016 L 441.544,-39.6884 L 441.544,-41.1884 L 430.044,-41.1884 L 430.044,-39.6884
 L 430.036,-39.6016 L 430.014,-39.5174 L 429.977,-39.4384 L 429.927,-39.367 L 429.865,-39.3054 L 429.794,-39.2554
 L 429.715,-39.2186 L 429.631,-39.196 L 429.544,-39.1884 L 429.457,-39.196 L 429.373,-39.2186 L 429.294,-39.2554
 L 429.222,-39.3054 L 429.161,-39.367 L 429.111,-39.4384 L 429.074,-39.5174 L 429.051,-39.6016 L 429.044,-39.6884
 L 429.044,-41.1884 L 427.794,-41.1884 L 427.794,-0 L 429.044,-0 z
M 446.294,-1.5 L 446.301,-1.58682 L 446.324,-1.67101 L 446.361,-1.75 L 446.411,-1.82138 L 446.472,-1.88301
 L 446.544,-1.933 L 446.623,-1.96983 L 446.707,-1.9924 L 446.794,-2 L 446.881,-1.9924 L 446.965,-1.96983
 L 447.044,-1.933 L 447.115,-1.88301 L 447.177,-1.82138 L 447.227,-1.75 L 447.264,-1.67101 L 447.286,-1.58682
 L 447.294,-1.5 L 447.294,-0 L 449.294,-0 L 449.294,-1.5 L 449.301,-1.58682 L 449.324,-1.67101
 L 449.361,-1.75 L 449.411,-1.82138 L 449.472,-1.88301 L 449.544,-1.933 L 449.623,-1.96983 L 449.707,-1.9924
 L 449.794,-2 L 449.881,-1.9924 L 449.965,-1.96983 L 450.044,-1.933 L 450.115,-1.88301 L 450.177,-1.82138
 L 450.227,-1.75 L 450.264,-1.67101 L 450.286,-1.58682 L 450.294,-1.5 L 450.294,-0 L 456.794,-0
 L 456.794,-1.5 L 456.801,-1.58682 L 456.824,-1.67101 L 456.861,-1.75 L 456.911,-1.82138 L 456.972,-1.88301
 L 457.044,-1.933 L 457.123,-1.96983 L 457.207,-1.9924 L 457.294,-2 L 457.381,-1.9924 L 457.465,-1.96983
 L 457.544,-1.933 L 457.615,-1.88301 L 457.677,-1.82138 L 457.727,-1.75 L 457.764,-1.67101 L 457.786,-1.58682
 L 457.794,-1.5 L 457.794,-0 L 459.294,-0 L 459.294,-41.1884 L 457.794,-41.1884 L 457.794,-39.6884
 L 457.786,-39.6016 L 457.764,-39.5174 L 457.727,-39.4384 L 457.677,-39.367 L 457.615,-39.3054 L 457.544,-39.2554
 L 457.465,-39.2186 L 457.381,-39.196 L 457.294,-39.1884 L 457.207,-39.196 L 457.123,-39.2186 L 457.044,-39.2554
 L 456.972,-39.3054 L 456.911,-39.367 L 456.861,-39.4384 L 456.824,-39.5174 L 456.801,-39.6016 L 456.794,-39.6884
 L 456.794,-41.1884 L 447.294,-41.1884 L 447.294,-39.6884 L 447.286,-39.6016 L 447.264,-39.5174 L 447.227,-39.4384
 L 447.177,-39.367 L 447.115,-39.3054 L 447.044,-39.2554 L 446.965,-39.2186 L 446.881,-39.196 L 446.794,-39.1884
 L 446.707,-39.196 L 446.623,-39.2186 L 446.544,-39.2554 L 446.472,-39.3054 L 446.411,-39.367 L 446.361,-39.4384
 L 446.324,-39.5174 L 446.301,-39.6016 L 446.294,-39.6884 L 446.294,-41.1884 L 444.794,-41.1884 L 444.794,-0
 L 446.294,-0 z
M 353.75,-14.1562 L 353.125,-14.1562 L 353.125,-14.2812 L 353.25,-14.2812 L 353.25,-38.3438 L 353.125,-38.3438
 L 353.125,-38.4688 L 353.75,-38.4688 L 353.75,-39.4688 L 350.25,-39.4688 L 350.25,-13.1562 L 353.75,-13.1562
 z
M 28.4688,-20.1562 L 28.3438,-20.1562 L 28.3438,-20.4062 L 28.5938,-20.4062 L 28.5938,-20.2812 L 29,-20.2812
 L 29,-23.7188 L 28.5938,-23.7188 L 28.5938,-23.5938 L 28.3438,-23.5938 L 28.3438,-23.8438 L 28.4688,-23.8438
 L 28.4688,-24.4688 L 28.0938,-24.4688 L 28.0938,-24.3438 L 27.8438,-24.3438 L 27.8438,-24.5938 L 27.9688,-24.5938
 L 27.9688,-24.9062 L 27.8438,-24.9062 L 27.8438,-25.1562 L 28.4688,-25.1562 L 28.4688,-25.0312 L 29,-25.0312
 L 29,-30.9688 L 28.5938,-30.9688 L 28.5938,-30.8438 L 28.0938,-30.8438 L 28.0938,-31.0938 L 28.2188,-31.0938
 L 28.2188,-31.4062 L 28.0938,-31.4062 L 28.0938,-31.6562 L 28.3438,-31.6562 L 28.3438,-31.5312 L 28.4688,-31.5312
 L 28.4688,-31.9062 L 28.3438,-31.9062 L 28.3438,-32.1562 L 28.7188,-32.1562 L 28.7188,-32.0312 L 29,-32.0312
 L 29,-36.9688 L 28.5938,-36.9688 L 28.5938,-36.8438 L 28.3438,-36.8438 L 28.3438,-37.0938 L 28.4688,-37.0938
 L 28.4688,-37.4688 L 28.3438,-37.4688 L 28.3438,-37.3438 L 28.0938,-37.3438 L 28.0938,-37.5938 L 28.2188,-37.5938
 L 28.2188,-38 L 24.2812,-38 L 24.2812,-37.5938 L 24.4062,-37.5938 L 24.4062,-37.3438 L 23.9062,-37.3438
 L 23.9062,-37.4688 L 23,-37.4688 L 23,-32.5312 L 23.4062,-32.5312 L 23.4062,-32.6562 L 23.6562,-32.6562
 L 23.6562,-32.0312 L 23.5312,-32.0312 L 23.5312,-31.5312 L 24.0312,-31.5312 L 24.0312,-31.6562 L 24.4062,-31.6562
 L 24.4062,-31.4062 L 24.2812,-31.4062 L 24.2812,-31.0938 L 24.4062,-31.0938 L 24.4062,-30.8438 L 24.0312,-30.8438
 L 24.0312,-30.9688 L 23,-30.9688 L 23,-25.0312 L 23.4062,-25.0312 L 23.4062,-25.1562 L 23.6562,-25.1562
 L 23.6562,-24.9062 L 23.5312,-24.9062 L 23.5312,-24.5938 L 23.6562,-24.5938 L 23.6562,-24.3438 L 23.4062,-24.3438
 L 23.4062,-24.4688 L 23,-24.4688 L 23,-21.5312 L 23.4062,-21.5312 L 23.4062,-21.6562 L 23.6562,-21.6562
 L 23.6562,-21.4062 L 23.5312,-21.4062 L 23.5312,-19.5 L 28.4688,-19.5 z
M 26.4895,-21.5228 L 26.237,-21.5905 L 26,-21.701 L 25.7858,-21.8509 L 25.6009,-22.0358 L 25.451,-22.25
 L 25.3405,-22.487 L 25.2728,-22.7395 L 25.25,-23 L 25.2728,-23.2605 L 25.3405,-23.513 L 25.451,-23.75
 L 25.6009,-23.9642 L 25.7858,-24.1491 L 26,-24.299 L 26.237,-24.4095 L 26.4895,-24.4772 L 26.75,-24.5
 L 27.0105,-24.4772 L 27.263,-24.4095 L 27.5,-24.299 L 27.7142,-24.1491 L 27.8991,-23.9642 L 28.049,-23.75
 L 28.1595,-23.513 L 28.2272,-23.2605 L 28.25,-23 L 28.2272,-22.7395 L 28.1595,-22.487 L 28.049,-22.25
 L 27.8991,-22.0358 L 27.7142,-21.8509 L 27.5,-21.701 L 27.263,-21.5905 L 27.0105,-21.5228 L 26.75,-21.5
 z
M 75.5,-37 L 72.5,-37 L 72.5,-19 L 75.5,-19 z
M 73.83,-35.4769 L 73.6767,-35.555 L 73.555,-35.6767 L 73.4769,-35.83 L 73.45,-36 L 73.4769,-36.17
 L 73.555,-36.3233 L 73.6767,-36.4449 L 73.83,-36.5231 L 74,-36.55 L 74.17,-36.5231 L 74.3233,-36.4449
 L 74.4449,-36.3233 L 74.5231,-36.17 L 74.55,-36 L 74.5231,-35.83 L 74.4449,-35.6767 L 74.3233,-35.555
 L 74.17,-35.4769 L 74,-35.45 z
M 73.83,-32.4769 L 73.6767,-32.555 L 73.555,-32.6767 L 73.4769,-32.83 L 73.45,-33 L 73.4769,-33.17
 L 73.555,-33.3233 L 73.6767,-33.4449 L 73.83,-33.5231 L 74,-33.55 L 74.17,-33.5231 L 74.3233,-33.4449
 L 74.4449,-33.3233 L 74.5231,-33.17 L 74.55,-33 L 74.5231,-32.83 L 74.4449,-32.6767 L 74.3233,-32.555
 L 74.17,-32.4769 L 74,-32.45 z
M 73.83,-27.4769 L 73.6767,-27.555 L 73.555,-27.6767 L 73.4769,-27.83 L 73.45,-28 L 73.4769,-28.17
 L 73.555,-28.3233 L 73.6767,-28.4449 L 73.83,-28.5231 L 74,-28.55 L 74.17,-28.5231 L 74.3233,-28.4449
 L 74.4449,-28.3233 L 74.5231,-28.17 L 74.55,-28 L 74.5231,-27.83 L 74.4449,-27.6767 L 74.3233,-27.555
 L 74.17,-27.4769 L 74,-27.45 z
M 73.83,-22.4769 L 73.6767,-22.555 L 73.555,-22.6767 L 73.4769,-22.83 L 73.45,-23 L 73.4769,-23.17
 L 73.555,-23.3233 L 73.6767,-23.4449 L 73.83,-23.5231 L 74,-23.55 L 74.17,-23.5231 L 74.3233,-23.4449
 L 74.4449,-23.3233 L 74.5231,-23.17 L 74.55,-23 L 74.5231,-22.83 L 74.4449,-22.6767 L 74.3233,-22.555
 L 74.17,-22.4769 L 74,-22.45 z
M 73.83,-19.4769 L 73.6767,-19.555 L 73.555,-19.6767 L 73.4769,-19.83 L 73.45,-20 L 73.4769,-20.17
 L 73.555,-20.3233 L 73.6767,-20.4449 L 73.83,-20.5231 L 74,-20.55 L 74.17,-20.5231 L 74.3233,-20.4449
 L 74.4449,-20.3233 L 74.5231,-20.17 L 74.55,-20 L 74.5231,-19.83 L 74.4449,-19.6767 L 74.3233,-19.555
 L 74.17,-19.4769 L 74,-19.45 z
M 311.5,-34.1884 L 303.5,-34.1884 L 303.5,-32.8509 L 303.938,-32.8509 L 303.938,-32.9759 L 304.188,-32.9759
 L 304.188,-32.7259 L 304.062,-32.7259 L 304.062,-31.8509 L 304.188,-31.8509 L 304.188,-31.6009 L 303.938,-31.6009
 L 303.938,-31.7259 L 303.5,-31.7259 L 303.5,-2.46249 L 303.938,-2.46249 L 303.938,-2.58749 L 304.188,-2.58749
 L 304.188,-2.33749 L 304.062,-2.33749 L 304.062,-1.46249 L 304.188,-1.46249 L 304.188,-1.21249 L 303.938,-1.21249
 L 303.938,-1.33749 L 303.5,-1.33749 L 303.5,-0 L 311.5,-0 z
M 305.434,-31.3142 L 305.37,-31.3313 L 305.31,-31.3593 L 305.256,-31.3973 L 305.209,-31.4441 L 305.171,-31.4984
 L 305.143,-31.5584 L 305.126,-31.6224 L 305.12,-31.6884 L 305.126,-31.7544 L 305.143,-31.8184 L 305.171,-31.8784
 L 305.209,-31.9326 L 305.256,-31.9795 L 305.31,-32.0175 L 305.37,-32.0455 L 305.434,-32.0626 L 305.5,-32.0684
 L 305.566,-32.0626 L 305.63,-32.0455 L 305.69,-32.0175 L 305.744,-31.9795 L 305.791,-31.9326 L 305.829,-31.8784
 L 305.857,-31.8184 L 305.874,-31.7544 L 305.88,-31.6884 L 305.874,-31.6224 L 305.857,-31.5584 L 305.829,-31.4984
 L 305.791,-31.4441 L 305.744,-31.3973 L 305.69,-31.3593 L 305.63,-31.3313 L 305.566,-31.3142 L 305.5,-31.3084
 z
M 309.434,-31.3142 L 309.37,-31.3313 L 309.31,-31.3593 L 309.256,-31.3973 L 309.209,-31.4441 L 309.171,-31.4984
 L 309.143,-31.5584 L 309.126,-31.6224 L 309.12,-31.6884 L 309.126,-31.7544 L 309.143,-31.8184 L 309.171,-31.8784
 L 309.209,-31.9326 L 309.256,-31.9795 L 309.31,-32.0175 L 309.37,-32.0455 L 309.434,-32.0626 L 309.5,-32.0684
 L 309.566,-32.0626 L 309.63,-32.0455 L 309.69,-32.0175 L 309.744,-31.9795 L 309.791,-31.9326 L 309.829,-31.8784
 L 309.857,-31.8184 L 309.874,-31.7544 L 309.88,-31.6884 L 309.874,-31.6224 L 309.857,-31.5584 L 309.829,-31.4984
 L 309.791,-31.4441 L 309.744,-31.3973 L 309.69,-31.3593 L 309.63,-31.3313 L 309.566,-31.3142 L 309.5,-31.3084
 z
M 305.085,-15.8016 L 304.864,-15.8608 L 304.656,-15.9575 L 304.469,-16.0888 L 304.307,-16.2505 L 304.176,-16.4379
 L 304.079,-16.6453 L 304.02,-16.8663 L 304,-17.0942 L 304.02,-17.3221 L 304.079,-17.5431 L 304.176,-17.7504
 L 304.307,-17.9379 L 304.469,-18.0996 L 304.656,-18.2309 L 304.864,-18.3275 L 305.085,-18.3867 L 305.312,-18.4067
 L 305.54,-18.3867 L 305.761,-18.3275 L 305.969,-18.2309 L 306.156,-18.0996 L 306.318,-17.9379 L 306.449,-17.7504
 L 306.546,-17.5431 L 306.605,-17.3221 L 306.625,-17.0942 L 306.605,-16.8663 L 306.546,-16.6453 L 306.449,-16.4379
 L 306.318,-16.2505 L 306.156,-16.0888 L 305.969,-15.9575 L 305.761,-15.8608 L 305.54,-15.8016 L 305.312,-15.7817
 z
M 305.434,-2.12576 L 305.37,-2.14291 L 305.31,-2.1709 L 305.256,-2.20889 L 305.209,-2.25574 L 305.171,-2.31
 L 305.143,-2.37003 L 305.126,-2.43401 L 305.12,-2.5 L 305.126,-2.56598 L 305.143,-2.62996 L 305.171,-2.68999
 L 305.209,-2.74425 L 305.256,-2.79109 L 305.31,-2.82909 L 305.37,-2.85707 L 305.434,-2.87422 L 305.5,-2.87999
 L 305.566,-2.87422 L 305.63,-2.85707 L 305.69,-2.82909 L 305.744,-2.79109 L 305.791,-2.74425 L 305.829,-2.68999
 L 305.857,-2.62996 L 305.874,-2.56598 L 305.88,-2.5 L 305.874,-2.43401 L 305.857,-2.37003 L 305.829,-2.31
 L 305.791,-2.25574 L 305.744,-2.20889 L 305.69,-2.1709 L 305.63,-2.14291 L 305.566,-2.12576 L 305.5,-2.12
 z
M 309.434,-2.12576 L 309.37,-2.14291 L 309.31,-2.1709 L 309.256,-2.20889 L 309.209,-2.25574 L 309.171,-2.31
 L 309.143,-2.37003 L 309.126,-2.43401 L 309.12,-2.5 L 309.126,-2.56598 L 309.143,-2.62996 L 309.171,-2.68999
 L 309.209,-2.74425 L 309.256,-2.79109 L 309.31,-2.82909 L 309.37,-2.85707 L 309.434,-2.87422 L 309.5,-2.87999
 L 309.566,-2.87422 L 309.63,-2.85707 L 309.69,-2.82909 L 309.744,-2.79109 L 309.791,-2.74425 L 309.829,-2.68999
 L 309.857,-2.62996 L 309.874,-2.56598 L 309.88,-2.5 L 309.874,-2.43401 L 309.857,-2.37003 L 309.829,-2.31
 L 309.791,-2.25574 L 309.744,-2.20889 L 309.69,-2.1709 L 309.63,-2.14291 L 309.566,-2.12576 L 309.5,-2.12
 z
M 276.438,-0.9375 L 276.312,-0.9375 L 276.312,-1.1875 L 276.562,-1.1875 L 276.562,-1.0625 L 277,-1.0625
 L 277,-16.0317 L 276.562,-16.0317 L 276.562,-15.9067 L 276.312,-15.9067 L 276.312,-16.1567 L 276.438,-16.1567
 L 276.438,-18.0317 L 276.312,-18.0317 L 276.312,-18.2817 L 276.562,-18.2817 L 276.562,-18.1567 L 277,-18.1567
 L 277,-33.1259 L 276.562,-33.1259 L 276.562,-33.0009 L 276.312,-33.0009 L 276.312,-33.2509 L 276.438,-33.2509
 L 276.438,-34.1884 L 271.25,-34.1884 L 271.25,-33.7884 L 271,-33.7884 L 271,-32.8509 L 271.438,-32.8509
 L 271.438,-32.9759 L 271.688,-32.9759 L 271.688,-32.7259 L 271.562,-32.7259 L 271.562,-31.8509 L 271.688,-31.8509
 L 271.688,-31.6009 L 271.438,-31.6009 L 271.438,-31.7259 L 271,-31.7259 L 271,-2.46249 L 271.438,-2.46249
 L 271.438,-2.58749 L 271.688,-2.58749 L 271.688,-2.33749 L 271.562,-2.33749 L 271.562,-1.46249 L 271.688,-1.46249
 L 271.688,-1.21249 L 271.438,-1.21249 L 271.438,-1.33749 L 271,-1.33749 L 271,-0.399994 L 271.25,-0.399994
 L 271.25,-0 L 276.438,-0 z
M 272.435,-31.3191 L 272.372,-31.336 L 272.312,-31.3636 L 272.259,-31.4011 L 272.213,-31.4473 L 272.175,-31.5009
 L 272.148,-31.5601 L 272.131,-31.6233 L 272.125,-31.6884 L 272.131,-31.7535 L 272.148,-31.8167 L 272.175,-31.8759
 L 272.213,-31.9294 L 272.259,-31.9757 L 272.312,-32.0132 L 272.372,-32.0408 L 272.435,-32.0577 L 272.5,-32.0634
 L 272.565,-32.0577 L 272.628,-32.0408 L 272.688,-32.0132 L 272.741,-31.9757 L 272.787,-31.9294 L 272.825,-31.8759
 L 272.852,-31.8167 L 272.869,-31.7535 L 272.875,-31.6884 L 272.869,-31.6233 L 272.852,-31.5601 L 272.825,-31.5009
 L 272.787,-31.4473 L 272.741,-31.4011 L 272.688,-31.3636 L 272.628,-31.336 L 272.565,-31.3191 L 272.5,-31.3134
 z
M 275.435,-31.3191 L 275.372,-31.336 L 275.312,-31.3636 L 275.259,-31.4011 L 275.213,-31.4473 L 275.175,-31.5009
 L 275.148,-31.5601 L 275.131,-31.6233 L 275.125,-31.6884 L 275.131,-31.7535 L 275.148,-31.8167 L 275.175,-31.8759
 L 275.213,-31.9294 L 275.259,-31.9757 L 275.312,-32.0132 L 275.372,-32.0408 L 275.435,-32.0577 L 275.5,-32.0634
 L 275.565,-32.0577 L 275.628,-32.0408 L 275.688,-32.0132 L 275.741,-31.9757 L 275.787,-31.9294 L 275.825,-31.8759
 L 275.852,-31.8167 L 275.869,-31.7535 L 275.875,-31.6884 L 275.869,-31.6233 L 275.852,-31.5601 L 275.825,-31.5009
 L 275.787,-31.4473 L 275.741,-31.4011 L 275.688,-31.3636 L 275.628,-31.336 L 275.565,-31.3191 L 275.5,-31.3134
 z
M 272.496,-27.9975 L 272.395,-28.0246 L 272.3,-28.0688 L 272.214,-28.1288 L 272.14,-28.2027 L 272.08,-28.2884
 L 272.036,-28.3832 L 272.009,-28.4842 L 272,-28.5884 L 272.009,-28.6926 L 272.036,-28.7936 L 272.08,-28.8884
 L 272.14,-28.9741 L 272.214,-29.048 L 272.3,-29.108 L 272.395,-29.1522 L 272.496,-29.1793 L 272.6,-29.1884
 L 272.704,-29.1793 L 272.805,-29.1522 L 272.9,-29.108 L 272.986,-29.048 L 273.06,-28.9741 L 273.12,-28.8884
 L 273.164,-28.7936 L 273.191,-28.6926 L 273.2,-28.5884 L 273.191,-28.4842 L 273.164,-28.3832 L 273.12,-28.2884
 L 273.06,-28.2027 L 272.986,-28.1288 L 272.9,-28.0688 L 272.805,-28.0246 L 272.704,-27.9975 L 272.6,-27.9884
 z
M 272.496,-5.00911 L 272.395,-5.03618 L 272.3,-5.08038 L 272.214,-5.14037 L 272.14,-5.21432 L 272.08,-5.29999
 L 272.036,-5.39478 L 272.009,-5.4958 L 272,-5.59999 L 272.009,-5.70418 L 272.036,-5.80521 L 272.08,-5.89999
 L 272.14,-5.98567 L 272.214,-6.05962 L 272.3,-6.11961 L 272.395,-6.1638 L 272.496,-6.19087 L 272.6,-6.2
 L 272.704,-6.19087 L 272.805,-6.1638 L 272.9,-6.11961 L 272.986,-6.05962 L 273.06,-5.98567 L 273.12,-5.89999
 L 273.164,-5.80521 L 273.191,-5.70418 L 273.2,-5.59999 L 273.191,-5.4958 L 273.164,-5.39478 L 273.12,-5.29999
 L 273.06,-5.21432 L 272.986,-5.14037 L 272.9,-5.08038 L 272.805,-5.03618 L 272.704,-5.00911 L 272.6,-5
 z
M 275.435,-2.13069 L 275.372,-2.14761 L 275.312,-2.17523 L 275.259,-2.21272 L 275.213,-2.25894 L 275.175,-2.3125
 L 275.148,-2.37173 L 275.131,-2.43488 L 275.125,-2.5 L 275.131,-2.56511 L 275.148,-2.62825 L 275.175,-2.6875
 L 275.213,-2.74104 L 275.259,-2.78726 L 275.312,-2.82475 L 275.372,-2.85237 L 275.435,-2.86929 L 275.5,-2.875
 L 275.565,-2.86929 L 275.628,-2.85237 L 275.688,-2.82475 L 275.741,-2.78726 L 275.787,-2.74104 L 275.825,-2.6875
 L 275.852,-2.62825 L 275.869,-2.56511 L 275.875,-2.5 L 275.869,-2.43488 L 275.852,-2.37173 L 275.825,-2.3125
 L 275.787,-2.25894 L 275.741,-2.21272 L 275.688,-2.17523 L 275.628,-2.14761 L 275.565,-2.13069 L 275.5,-2.125
 z
M 272.435,-2.13069 L 272.372,-2.14761 L 272.312,-2.17523 L 272.259,-2.21272 L 272.213,-2.25894 L 272.175,-2.3125
 L 272.148,-2.37173 L 272.131,-2.43488 L 272.125,-2.5 L 272.131,-2.56511 L 272.148,-2.62825 L 272.175,-2.6875
 L 272.213,-2.74104 L 272.259,-2.78726 L 272.312,-2.82475 L 272.372,-2.85237 L 272.435,-2.86929 L 272.5,-2.875
 L 272.565,-2.86929 L 272.628,-2.85237 L 272.688,-2.82475 L 272.741,-2.78726 L 272.787,-2.74104 L 272.825,-2.6875
 L 272.852,-2.62825 L 272.869,-2.56511 L 272.875,-2.5 L 272.869,-2.43488 L 272.852,-2.37173 L 272.825,-2.3125
 L 272.787,-2.25894 L 272.741,-2.21272 L 272.688,-2.17523 L 272.628,-2.14761 L 272.565,-2.13069 L 272.5,-2.125
 z
M 340.25,-34.1884 L 327.25,-34.1884 L 327.25,-0 L 340.25,-0 z
M 330.5,-4.34419 L 330.5,-29.8442 L 337,-29.8442 L 337,-4.34419 z
M 328.913,-28.321 L 328.829,-28.3436 L 328.75,-28.3804 L 328.679,-28.4304 L 328.617,-28.492 L 328.567,-28.5634
 L 328.53,-28.6424 L 328.508,-28.7266 L 328.5,-28.8134 L 328.508,-28.9002 L 328.53,-28.9844 L 328.567,-29.0634
 L 328.617,-29.1348 L 328.679,-29.1964 L 328.75,-29.2464 L 328.829,-29.2832 L 328.913,-29.3058 L 329,-29.3134
 L 329.087,-29.3058 L 329.171,-29.2832 L 329.25,-29.2464 L 329.321,-29.1964 L 329.383,-29.1348 L 329.433,-29.0634
 L 329.47,-28.9844 L 329.492,-28.9002 L 329.5,-28.8134 L 329.492,-28.7266 L 329.47,-28.6424 L 329.433,-28.5634
 L 329.383,-28.492 L 329.321,-28.4304 L 329.25,-28.3804 L 329.171,-28.3436 L 329.087,-28.321 L 329,-28.3134
 z
M 338.413,-28.321 L 338.329,-28.3436 L 338.25,-28.3804 L 338.179,-28.4304 L 338.117,-28.492 L 338.067,-28.5634
 L 338.03,-28.6424 L 338.008,-28.7266 L 338,-28.8134 L 338.008,-28.9002 L 338.03,-28.9844 L 338.067,-29.0634
 L 338.117,-29.1348 L 338.179,-29.1964 L 338.25,-29.2464 L 338.329,-29.2832 L 338.413,-29.3058 L 338.5,-29.3134
 L 338.587,-29.3058 L 338.671,-29.2832 L 338.75,-29.2464 L 338.821,-29.1964 L 338.883,-29.1348 L 338.933,-29.0634
 L 338.97,-28.9844 L 338.992,-28.9002 L 339,-28.8134 L 338.992,-28.7266 L 338.97,-28.6424 L 338.933,-28.5634
 L 338.883,-28.492 L 338.821,-28.4304 L 338.75,-28.3804 L 338.671,-28.3436 L 338.587,-28.321 L 338.5,-28.3134
 z
M 328.913,-4.88258 L 328.829,-4.90515 L 328.75,-4.94199 L 328.679,-4.99197 L 328.617,-5.0536 L 328.567,-5.125
 L 328.53,-5.20398 L 328.508,-5.28816 L 328.5,-5.375 L 328.508,-5.46182 L 328.53,-5.54601 L 328.567,-5.625
 L 328.617,-5.69638 L 328.679,-5.75801 L 328.75,-5.808 L 328.829,-5.84483 L 328.913,-5.8674 L 329,-5.875
 L 329.087,-5.8674 L 329.171,-5.84483 L 329.25,-5.808 L 329.321,-5.75801 L 329.383,-5.69638 L 329.433,-5.625
 L 329.47,-5.54601 L 329.492,-5.46182 L 329.5,-5.375 L 329.492,-5.28816 L 329.47,-5.20398 L 329.433,-5.125
 L 329.383,-5.0536 L 329.321,-4.99197 L 329.25,-4.94199 L 329.171,-4.90515 L 329.087,-4.88258 L 329,-4.875
 z
M 338.413,-4.88258 L 338.329,-4.90515 L 338.25,-4.94199 L 338.179,-4.99197 L 338.117,-5.0536 L 338.067,-5.125
 L 338.03,-5.20398 L 338.008,-5.28816 L 338,-5.375 L 338.008,-5.46182 L 338.03,-5.54601 L 338.067,-5.625
 L 338.117,-5.69638 L 338.179,-5.75801 L 338.25,-5.808 L 338.329,-5.84483 L 338.413,-5.8674 L 338.5,-5.875
 L 338.587,-5.8674 L 338.671,-5.84483 L 338.75,-5.808 L 338.821,-5.75801 L 338.883,-5.69638 L 338.933,-5.625
 L 338.97,-5.54601 L 338.992,-5.46182 L 339,-5.375 L 338.992,-5.28816 L 338.97,-5.20398 L 338.933,-5.125
 L 338.883,-5.0536 L 338.821,-4.99197 L 338.75,-4.94199 L 338.671,-4.90515 L 338.587,-4.88258 L 338.5,-4.875
 z
M 286,-1 L 285.375,-1 L 285.375,-2 L 285.5,-2 L 285.5,-3 L 285.375,-3
 L 285.375,-14.0942 L 285.5,-14.0942 L 285.5,-15.0942 L 285.375,-15.0942 L 285.375,-16.0942 L 286,-16.0942
 L 286,-18.0942 L 285.375,-18.0942 L 285.375,-19.0942 L 285.5,-19.0942 L 285.5,-20.0942 L 285.375,-20.0942
 L 285.375,-31.1884 L 285.5,-31.1884 L 285.5,-32.1884 L 285.375,-32.1884 L 285.375,-33.1884 L 286,-33.1884
 L 286,-34.1884 L 282.5,-34.1884 L 282.5,-0 L 286,-0 z
M 284.163,-28.321 L 284.079,-28.3436 L 284,-28.3804 L 283.929,-28.4304 L 283.867,-28.492 L 283.817,-28.5634
 L 283.78,-28.6424 L 283.758,-28.7266 L 283.75,-28.8134 L 283.758,-28.9002 L 283.78,-28.9844 L 283.817,-29.0634
 L 283.867,-29.1348 L 283.929,-29.1964 L 284,-29.2464 L 284.079,-29.2832 L 284.163,-29.3058 L 284.25,-29.3134
 L 284.337,-29.3058 L 284.421,-29.2832 L 284.5,-29.2464 L 284.571,-29.1964 L 284.633,-29.1348 L 284.683,-29.0634
 L 284.72,-28.9844 L 284.742,-28.9002 L 284.75,-28.8134 L 284.742,-28.7266 L 284.72,-28.6424 L 284.683,-28.5634
 L 284.633,-28.492 L 284.571,-28.4304 L 284.5,-28.3804 L 284.421,-28.3436 L 284.337,-28.321 L 284.25,-28.3134
 z
M 284.163,-4.88258 L 284.079,-4.90515 L 284,-4.94199 L 283.929,-4.99197 L 283.867,-5.0536 L 283.817,-5.125
 L 283.78,-5.20398 L 283.758,-5.28816 L 283.75,-5.375 L 283.758,-5.46182 L 283.78,-5.54601 L 283.817,-5.625
 L 283.867,-5.69638 L 283.929,-5.75801 L 284,-5.808 L 284.079,-5.84483 L 284.163,-5.8674 L 284.25,-5.875
 L 284.337,-5.8674 L 284.421,-5.84483 L 284.5,-5.808 L 284.571,-5.75801 L 284.633,-5.69638 L 284.683,-5.625
 L 284.72,-5.54601 L 284.742,-5.46182 L 284.75,-5.375 L 284.742,-5.28816 L 284.72,-5.20398 L 284.683,-5.125
 L 284.633,-5.0536 L 284.571,-4.99197 L 284.5,-4.94199 L 284.421,-4.90515 L 284.337,-4.88258 L 284.25,-4.875
 z
M 62.75,-0.625 L 62.875,-0.625 L 62.875,-0.5 L 63.125,-0.5 L 63.125,-0.625 L 65.875,-0.625
 L 65.875,-0.5 L 66.125,-0.5 L 66.125,-0.625 L 66.25,-0.625 L 66.25,-0 L 67,-0
 L 67,-25 L 66.25,-25 L 66.25,-24.375 L 66.125,-24.375 L 66.125,-24.5 L 65.875,-24.5
 L 65.875,-24.375 L 63.125,-24.375 L 63.125,-24.5 L 62.875,-24.5 L 62.875,-24.375 L 62.75,-24.375
 L 62.75,-25 L 62,-25 L 62,-24 L 62.125,-24 L 62.125,-13 L 62,-13
 L 62,-12 L 62.125,-12 L 62.125,-1 L 62,-1 L 62,-0 L 62.75,-0
 z
M 63.125,-13.625 L 63.125,-13.875 L 63.2188,-13.875 L 63.2188,-14.125 L 63.125,-14.125 L 63.125,-14.375
 L 63.375,-14.375 L 63.375,-14.2812 L 63.625,-14.2812 L 63.625,-14.375 L 63.875,-14.375 L 63.875,-14.125
 L 63.7812,-14.125 L 63.7812,-13.875 L 63.875,-13.875 L 63.875,-13.625 L 63.625,-13.625 L 63.625,-13.7188
 L 63.375,-13.7188 L 63.375,-13.625 z
M 63.125,-10.625 L 63.125,-10.875 L 63.2188,-10.875 L 63.2188,-11.125 L 63.125,-11.125 L 63.125,-11.375
 L 63.375,-11.375 L 63.375,-11.2812 L 63.625,-11.2812 L 63.625,-11.375 L 63.875,-11.375 L 63.875,-11.125
 L 63.7812,-11.125 L 63.7812,-10.875 L 63.875,-10.875 L 63.875,-10.625 L 63.625,-10.625 L 63.625,-10.7188
 L 63.375,-10.7188 L 63.375,-10.625 z
M 15.5,-0.53125 L 20.5,-0.53125 L 20.5,-0 L 22,-0 L 22,-25 L 20.5,-25
 L 20.5,-24.4688 L 15.5,-24.4688 L 15.5,-25 L 0,-25 L 0,-21.6192 L 6,-21.6192
 L 6,-3.3808 L 0,-3.3808 L 0,-0 L 15.5,-0 z
M 0.913162,-22.1268 L 0.828979,-22.1494 L 0.75,-22.1862 L 0.678604,-22.2362 L 0.616974,-22.2978 L 0.566986,-22.3692
 L 0.530151,-22.4482 L 0.507584,-22.5324 L 0.5,-22.6192 L 0.507584,-22.706 L 0.530151,-22.7902 L 0.566986,-22.8692
 L 0.616974,-22.9406 L 0.678604,-23.0022 L 0.75,-23.0522 L 0.828979,-23.089 L 0.913162,-23.1116 L 1,-23.1192
 L 1.08682,-23.1116 L 1.17101,-23.089 L 1.25,-23.0522 L 1.32138,-23.0022 L 1.38301,-22.9406 L 1.433,-22.8692
 L 1.46983,-22.7902 L 1.4924,-22.706 L 1.5,-22.6192 L 1.4924,-22.5324 L 1.46983,-22.4482 L 1.433,-22.3692
 L 1.38301,-22.2978 L 1.32138,-22.2362 L 1.25,-22.1862 L 1.17101,-22.1494 L 1.08682,-22.1268 L 1,-22.1192
 z
M 2.91316,-22.1268 L 2.82898,-22.1494 L 2.75,-22.1862 L 2.6786,-22.2362 L 2.61697,-22.2978 L 2.56699,-22.3692
 L 2.53015,-22.4482 L 2.50758,-22.5324 L 2.5,-22.6192 L 2.50758,-22.706 L 2.53015,-22.7902 L 2.56699,-22.8692
 L 2.61697,-22.9406 L 2.6786,-23.0022 L 2.75,-23.0522 L 2.82898,-23.089 L 2.91316,-23.1116 L 3,-23.1192
 L 3.08682,-23.1116 L 3.17101,-23.089 L 3.25,-23.0522 L 3.32138,-23.0022 L 3.38301,-22.9406 L 3.433,-22.8692
 L 3.46983,-22.7902 L 3.4924,-22.706 L 3.5,-22.6192 L 3.4924,-22.5324 L 3.46983,-22.4482 L 3.433,-22.3692
 L 3.38301,-22.2978 L 3.32138,-22.2362 L 3.25,-22.1862 L 3.17101,-22.1494 L 3.08682,-22.1268 L 3,-22.1192
 z
M 0.913162,-1.88838 L 0.828979,-1.91095 L 0.75,-1.94778 L 0.678604,-1.99777 L 0.616974,-2.0594 L 0.566986,-2.1308
 L 0.530151,-2.20978 L 0.507584,-2.29398 L 0.5,-2.3808 L 0.507584,-2.46762 L 0.530151,-2.5518 L 0.566986,-2.6308
 L 0.616974,-2.70218 L 0.678604,-2.76381 L 0.75,-2.81381 L 0.828979,-2.85063 L 0.913162,-2.8732 L 1,-2.8808
 L 1.08682,-2.8732 L 1.17101,-2.85063 L 1.25,-2.81381 L 1.32138,-2.76381 L 1.38301,-2.70218 L 1.433,-2.6308
 L 1.46983,-2.5518 L 1.4924,-2.46762 L 1.5,-2.3808 L 1.4924,-2.29398 L 1.46983,-2.20978 L 1.433,-2.1308
 L 1.38301,-2.0594 L 1.32138,-1.99777 L 1.25,-1.94778 L 1.17101,-1.91095 L 1.08682,-1.88838 L 1,-1.8808
 z
M 2.91316,-1.88838 L 2.82898,-1.91095 L 2.75,-1.94778 L 2.6786,-1.99777 L 2.61697,-2.0594 L 2.56699,-2.1308
 L 2.53015,-2.20978 L 2.50758,-2.29398 L 2.5,-2.3808 L 2.50758,-2.46762 L 2.53015,-2.5518 L 2.56699,-2.6308
 L 2.61697,-2.70218 L 2.6786,-2.76381 L 2.75,-2.81381 L 2.82898,-2.85063 L 2.91316,-2.8732 L 3,-2.8808
 L 3.08682,-2.8732 L 3.17101,-2.85063 L 3.25,-2.81381 L 3.32138,-2.76381 L 3.38301,-2.70218 L 3.433,-2.6308
 L 3.46983,-2.5518 L 3.4924,-2.46762 L 3.5,-2.3808 L 3.4924,-2.29398 L 3.46983,-2.20978 L 3.433,-2.1308
 L 3.38301,-2.0594 L 3.32138,-1.99777 L 3.25,-1.94778 L 3.17101,-1.91095 L 3.08682,-1.88838 L 3,-1.8808
 z
M 50.5,-0.625 L 50.625,-0.625 L 50.625,-0.5 L 50.875,-0.5 L 50.875,-0.625 L 54.625,-0.625
 L 54.625,-0.5 L 54.875,-0.5 L 54.875,-0.625 L 55,-0.625 L 55,-0 L 56,-0
 L 56,-25 L 55,-25 L 55,-24.375 L 54.875,-24.375 L 54.875,-24.5 L 54.625,-24.5
 L 54.625,-24.375 L 50.875,-24.375 L 50.875,-24.5 L 50.625,-24.5 L 50.625,-24.375 L 50.5,-24.375
 L 50.5,-25 L 50,-25 L 50,-0 L 50.5,-0 z
M 53.625,-13.625 L 53.625,-13.875 L 53.7188,-13.875 L 53.7188,-14.125 L 53.625,-14.125 L 53.625,-14.375
 L 53.875,-14.375 L 53.875,-14.2812 L 54.125,-14.2812 L 54.125,-14.375 L 54.375,-14.375 L 54.375,-14.125
 L 54.2812,-14.125 L 54.2812,-13.875 L 54.375,-13.875 L 54.375,-13.625 L 54.125,-13.625 L 54.125,-13.7188
 L 53.875,-13.7188 L 53.875,-13.625 z
M 53.625,-10.625 L 53.625,-10.875 L 53.7188,-10.875 L 53.7188,-11.125 L 53.625,-11.125 L 53.625,-11.375
 L 53.875,-11.375 L 53.875,-11.2812 L 54.125,-11.2812 L 54.125,-11.375 L 54.375,-11.375 L 54.375,-11.125
 L 54.2812,-11.125 L 54.2812,-10.875 L 54.375,-10.875 L 54.375,-10.625 L 54.125,-10.625 L 54.125,-10.7188
 L 53.875,-10.7188 L 53.875,-10.625 z
M 30.75,-0.625 L 30.875,-0.625 L 30.875,-0.5 L 31.125,-0.5 L 31.125,-0.625 L 34.375,-0.625
 L 34.375,-0.5 L 34.625,-0.5 L 34.625,-0.625 L 34.75,-0.625 L 34.75,-0 L 35.5,-0
 L 35.5,-6.21875 L 35.25,-6.21875 L 35.25,-6.125 L 34.625,-6.125 L 34.625,-6.375 L 34.7188,-6.375
 L 34.7188,-6.625 L 34.625,-6.625 L 34.625,-6.875 L 35.25,-6.875 L 35.25,-6.78125 L 35.5,-6.78125
 L 35.5,-12.2188 L 35.25,-12.2188 L 35.25,-12.125 L 34.625,-12.125 L 34.625,-12.375 L 34.7188,-12.375
 L 34.7188,-12.625 L 34.625,-12.625 L 34.625,-12.875 L 35.25,-12.875 L 35.25,-12.7812 L 35.5,-12.7812
 L 35.5,-18.2188 L 35.25,-18.2188 L 35.25,-18.125 L 34.625,-18.125 L 34.625,-18.375 L 34.7188,-18.375
 L 34.7188,-18.625 L 34.625,-18.625 L 34.625,-18.875 L 35.25,-18.875 L 35.25,-18.7812 L 35.5,-18.7812
 L 35.5,-25 L 34.75,-25 L 34.75,-24.375 L 34.625,-24.375 L 34.625,-24.5 L 34.375,-24.5
 L 34.375,-24.375 L 31.125,-24.375 L 31.125,-24.5 L 30.875,-24.5 L 30.875,-24.375 L 30.75,-24.375
 L 30.75,-25 L 30,-25 L 30,-0 L 30.75,-0 z
M 30.375,-18.125 L 30.375,-18.375 L 30.4688,-18.375 L 30.4688,-18.625 L 30.375,-18.625 L 30.375,-18.875
 L 30.75,-18.875 L 30.75,-18.7812 L 31,-18.7812 L 31,-18.875 L 31.375,-18.875 L 31.375,-18.625
 L 31.2812,-18.625 L 31.2812,-18.375 L 31.375,-18.375 L 31.375,-18.125 L 31,-18.125 L 31,-18.2188
 L 30.75,-18.2188 L 30.75,-18.125 z
M 30.375,-12.125 L 30.375,-12.375 L 30.4688,-12.375 L 30.4688,-12.625 L 30.375,-12.625 L 30.375,-12.875
 L 30.75,-12.875 L 30.75,-12.7812 L 31,-12.7812 L 31,-12.875 L 31.375,-12.875 L 31.375,-12.625
 L 31.2812,-12.625 L 31.2812,-12.375 L 31.375,-12.375 L 31.375,-12.125 L 31,-12.125 L 31,-12.2188
 L 30.75,-12.2188 L 30.75,-12.125 z
M 30.375,-6.125 L 30.375,-6.375 L 30.4688,-6.375 L 30.4688,-6.625 L 30.375,-6.625 L 30.375,-6.875
 L 30.75,-6.875 L 30.75,-6.78125 L 31,-6.78125 L 31,-6.875 L 31.375,-6.875 L 31.375,-6.625
 L 31.2812,-6.625 L 31.2812,-6.375 L 31.375,-6.375 L 31.375,-6.125 L 31,-6.125 L 31,-6.21875
 L 30.75,-6.21875 L 30.75,-6.125 z
M 43.5,-0.625 L 43.625,-0.625 L 43.625,-0.5 L 43.875,-0.5 L 43.875,-0.625 L 48.125,-0.625
 L 48.125,-0.5 L 48.375,-0.5 L 48.375,-0.625 L 48.5,-0.625 L 48.5,-0 L 49,-0
 L 49,-1 L 48.875,-1 L 48.875,-12 L 49,-12 L 49,-13 L 48.875,-13
 L 48.875,-24 L 49,-24 L 49,-25 L 48.5,-25 L 48.5,-24.375 L 48.375,-24.375
 L 48.375,-24.5 L 48.125,-24.5 L 48.125,-24.375 L 43.875,-24.375 L 43.875,-24.5 L 43.625,-24.5
 L 43.625,-24.375 L 43.5,-24.375 L 43.5,-25 L 43,-25 L 43,-24 L 43.125,-24
 L 43.125,-13 L 43,-13 L 43,-12 L 43.125,-12 L 43.125,-1 L 43,-1
 L 43,-0 L 43.5,-0 z
M 45.625,-18.125 L 45.625,-18.375 L 45.7188,-18.375 L 45.7188,-18.625 L 45.625,-18.625 L 45.625,-18.875
 L 45.875,-18.875 L 45.875,-18.7812 L 46.125,-18.7812 L 46.125,-18.875 L 46.375,-18.875 L 46.375,-18.625
 L 46.2812,-18.625 L 46.2812,-18.375 L 46.375,-18.375 L 46.375,-18.125 L 46.125,-18.125 L 46.125,-18.2188
 L 45.875,-18.2188 L 45.875,-18.125 z
M 45.625,-12.125 L 45.625,-12.375 L 45.7188,-12.375 L 45.7188,-12.625 L 45.625,-12.625 L 45.625,-12.875
 L 45.875,-12.875 L 45.875,-12.7812 L 46.125,-12.7812 L 46.125,-12.875 L 46.375,-12.875 L 46.375,-12.625
 L 46.2812,-12.625 L 46.2812,-12.375 L 46.375,-12.375 L 46.375,-12.125 L 46.125,-12.125 L 46.125,-12.2188
 L 45.875,-12.2188 L 45.875,-12.125 z
M 45.625,-6.125 L 45.625,-6.375 L 45.7188,-6.375 L 45.7188,-6.625 L 45.625,-6.625 L 45.625,-6.875
 L 45.875,-6.875 L 45.875,-6.78125 L 46.125,-6.78125 L 46.125,-6.875 L 46.375,-6.875 L 46.375,-6.625
 L 46.2812,-6.625 L 46.2812,-6.375 L 46.375,-6.375 L 46.375,-6.125 L 46.125,-6.125 L 46.125,-6.21875
 L 45.875,-6.21875 L 45.875,-6.125 z
M 86.5,-25 L 81.5,-25 L 81.5,-0 L 86.5,-0 z
M 82.4132,-22.1268 L 82.329,-22.1494 L 82.25,-22.1862 L 82.1786,-22.2362 L 82.117,-22.2978 L 82.067,-22.3692
 L 82.0302,-22.4482 L 82.0076,-22.5324 L 82,-22.6192 L 82.0076,-22.706 L 82.0302,-22.7902 L 82.067,-22.8692
 L 82.117,-22.9406 L 82.1786,-23.0022 L 82.25,-23.0522 L 82.329,-23.089 L 82.4132,-23.1116 L 82.5,-23.1192
 L 82.5868,-23.1116 L 82.671,-23.089 L 82.75,-23.0522 L 82.8214,-23.0022 L 82.883,-22.9406 L 82.933,-22.8692
 L 82.9698,-22.7902 L 82.9924,-22.706 L 83,-22.6192 L 82.9924,-22.5324 L 82.9698,-22.4482 L 82.933,-22.3692
 L 82.883,-22.2978 L 82.8214,-22.2362 L 82.75,-22.1862 L 82.671,-22.1494 L 82.5868,-22.1268 L 82.5,-22.1192
 z
M 84.4132,-22.1268 L 84.329,-22.1494 L 84.25,-22.1862 L 84.1786,-22.2362 L 84.117,-22.2978 L 84.067,-22.3692
 L 84.0302,-22.4482 L 84.0076,-22.5324 L 84,-22.6192 L 84.0076,-22.706 L 84.0302,-22.7902 L 84.067,-22.8692
 L 84.117,-22.9406 L 84.1786,-23.0022 L 84.25,-23.0522 L 84.329,-23.089 L 84.4132,-23.1116 L 84.5,-23.1192
 L 84.5868,-23.1116 L 84.671,-23.089 L 84.75,-23.0522 L 84.8214,-23.0022 L 84.883,-22.9406 L 84.933,-22.8692
 L 84.9698,-22.7902 L 84.9924,-22.706 L 85,-22.6192 L 84.9924,-22.5324 L 84.9698,-22.4482 L 84.933,-22.3692
 L 84.883,-22.2978 L 84.8214,-22.2362 L 84.75,-22.1862 L 84.671,-22.1494 L 84.5868,-22.1268 L 84.5,-22.1192
 z
M 82.4132,-1.88838 L 82.329,-1.91095 L 82.25,-1.94778 L 82.1786,-1.99777 L 82.117,-2.0594 L 82.067,-2.1308
 L 82.0302,-2.20978 L 82.0076,-2.29398 L 82,-2.3808 L 82.0076,-2.46762 L 82.0302,-2.5518 L 82.067,-2.6308
 L 82.117,-2.70218 L 82.1786,-2.76381 L 82.25,-2.81381 L 82.329,-2.85063 L 82.4132,-2.8732 L 82.5,-2.8808
 L 82.5868,-2.8732 L 82.671,-2.85063 L 82.75,-2.81381 L 82.8214,-2.76381 L 82.883,-2.70218 L 82.933,-2.6308
 L 82.9698,-2.5518 L 82.9924,-2.46762 L 83,-2.3808 L 82.9924,-2.29398 L 82.9698,-2.20978 L 82.933,-2.1308
 L 82.883,-2.0594 L 82.8214,-1.99777 L 82.75,-1.94778 L 82.671,-1.91095 L 82.5868,-1.88838 L 82.5,-1.8808
 z
M 84.4132,-1.88838 L 84.329,-1.91095 L 84.25,-1.94778 L 84.1786,-1.99777 L 84.117,-2.0594 L 84.067,-2.1308
 L 84.0302,-2.20978 L 84.0076,-2.29398 L 84,-2.3808 L 84.0076,-2.46762 L 84.0302,-2.5518 L 84.067,-2.6308
 L 84.117,-2.70218 L 84.1786,-2.76381 L 84.25,-2.81381 L 84.329,-2.85063 L 84.4132,-2.8732 L 84.5,-2.8808
 L 84.5868,-2.8732 L 84.671,-2.85063 L 84.75,-2.81381 L 84.8214,-2.76381 L 84.883,-2.70218 L 84.933,-2.6308
 L 84.9698,-2.5518 L 84.9924,-2.46762 L 85,-2.3808 L 84.9924,-2.29398 L 84.9698,-2.20978 L 84.933,-2.1308
 L 84.883,-2.0594 L 84.8214,-1.99777 L 84.75,-1.94778 L 84.671,-1.91095 L 84.5868,-1.88838 L 84.5,-1.8808
 z
M 37.25,-16.625 L 37.375,-16.625 L 37.375,-16.5 L 40.625,-16.5 L 40.625,-16.625 L 40.75,-16.625
 L 40.75,-16 L 41.5,-16 L 41.5,-19.125 L 41.375,-19.125 L 41.375,-19.25 L 42,-19.25
 L 42,-19.75 L 41.375,-19.75 L 41.375,-19.875 L 41.5,-19.875 L 41.5,-23 L 40.75,-23
 L 40.75,-22.375 L 40.625,-22.375 L 40.625,-22.5 L 37.375,-22.5 L 37.375,-22.375 L 37.25,-22.375
 L 37.25,-23 L 36.5,-23 L 36.5,-16 L 37.25,-16 z
M 28.4688,-0.65625 L 28.3438,-0.65625 L 28.3438,-0.90625 L 28.5938,-0.90625 L 28.5938,-0.78125 L 29,-0.78125
 L 29,-4.21875 L 28.5938,-4.21875 L 28.5938,-4.09375 L 28.3438,-4.09375 L 28.3438,-4.34375 L 28.4688,-4.34375
 L 28.4688,-4.96875 L 28.0938,-4.96875 L 28.0938,-4.84375 L 27.8438,-4.84375 L 27.8438,-5.09375 L 27.9688,-5.09375
 L 27.9688,-5.40625 L 27.8438,-5.40625 L 27.8438,-5.65625 L 28.4688,-5.65625 L 28.4688,-5.53125 L 29,-5.53125
 L 29,-11.4688 L 28.5938,-11.4688 L 28.5938,-11.3438 L 28.0938,-11.3438 L 28.0938,-11.5938 L 28.2188,-11.5938
 L 28.2188,-11.9062 L 28.0938,-11.9062 L 28.0938,-12.1562 L 28.3438,-12.1562 L 28.3438,-12.0312 L 28.4688,-12.0312
 L 28.4688,-12.4062 L 28.3438,-12.4062 L 28.3438,-12.6562 L 28.7188,-12.6562 L 28.7188,-12.5312 L 29,-12.5312
 L 29,-17.4688 L 28.5938,-17.4688 L 28.5938,-17.3438 L 28.3438,-17.3438 L 28.3438,-17.5938 L 28.4688,-17.5938
 L 28.4688,-17.9688 L 28.3438,-17.9688 L 28.3438,-17.8438 L 28.0938,-17.8438 L 28.0938,-18.0938 L 28.2188,-18.0938
 L 28.2188,-18.5 L 24.2812,-18.5 L 24.2812,-18.0938 L 24.4062,-18.0938 L 24.4062,-17.8438 L 23.9062,-17.8438
 L 23.9062,-17.9688 L 23,-17.9688 L 23,-13.0312 L 23.4062,-13.0312 L 23.4062,-13.1562 L 23.6562,-13.1562
 L 23.6562,-12.5312 L 23.5312,-12.5312 L 23.5312,-12.0312 L 24.0312,-12.0312 L 24.0312,-12.1562 L 24.4062,-12.1562
 L 24.4062,-11.9062 L 24.2812,-11.9062 L 24.2812,-11.5938 L 24.4062,-11.5938 L 24.4062,-11.3438 L 24.0312,-11.3438
 L 24.0312,-11.4688 L 23,-11.4688 L 23,-5.53125 L 23.4062,-5.53125 L 23.4062,-5.65625 L 23.6562,-5.65625
 L 23.6562,-5.40625 L 23.5312,-5.40625 L 23.5312,-5.09375 L 23.6562,-5.09375 L 23.6562,-4.84375 L 23.4062,-4.84375
 L 23.4062,-4.96875 L 23,-4.96875 L 23,-2.03125 L 23.4062,-2.03125 L 23.4062,-2.15625 L 23.6562,-2.15625
 L 23.6562,-1.90625 L 23.5312,-1.90625 L 23.5312,-0 L 28.4688,-0 z
M 26.4895,-2.02278 L 26.237,-2.09045 L 26,-2.20096 L 25.7858,-2.35092 L 25.6009,-2.53581 L 25.451,-2.75
 L 25.3405,-2.98697 L 25.2728,-3.23952 L 25.25,-3.5 L 25.2728,-3.76047 L 25.3405,-4.01302 L 25.451,-4.25
 L 25.6009,-4.46417 L 25.7858,-4.64906 L 26,-4.79903 L 26.237,-4.90953 L 26.4895,-4.9772 L 26.75,-5
 L 27.0105,-4.9772 L 27.263,-4.90953 L 27.5,-4.79903 L 27.7142,-4.64906 L 27.8991,-4.46417 L 28.049,-4.25
 L 28.1595,-4.01302 L 28.2272,-3.76047 L 28.25,-3.5 L 28.2272,-3.23952 L 28.1595,-2.98697 L 28.049,-2.75
 L 27.8991,-2.53581 L 27.7142,-2.35092 L 27.5,-2.20096 L 27.263,-2.09045 L 27.0105,-2.02278 L 26.75,-2
 z
M 75.5,-18 L 72.5,-18 L 72.5,-0 L 75.5,-0 z
M 73.83,-16.4769 L 73.6767,-16.555 L 73.555,-16.6767 L 73.4769,-16.83 L 73.45,-17 L 73.4769,-17.17
 L 73.555,-17.3233 L 73.6767,-17.4449 L 73.83,-17.5231 L 74,-17.55 L 74.17,-17.5231 L 74.3233,-17.4449
 L 74.4449,-17.3233 L 74.5231,-17.17 L 74.55,-17 L 74.5231,-16.83 L 74.4449,-16.6767 L 74.3233,-16.555
 L 74.17,-16.4769 L 74,-16.45 z
M 73.83,-13.4769 L 73.6767,-13.555 L 73.555,-13.6767 L 73.4769,-13.83 L 73.45,-14 L 73.4769,-14.17
 L 73.555,-14.3233 L 73.6767,-14.4449 L 73.83,-14.5231 L 74,-14.55 L 74.17,-14.5231 L 74.3233,-14.4449
 L 74.4449,-14.3233 L 74.5231,-14.17 L 74.55,-14 L 74.5231,-13.83 L 74.4449,-13.6767 L 74.3233,-13.555
 L 74.17,-13.4769 L 74,-13.45 z
M 73.83,-8.47691 L 73.6767,-8.55504 L 73.555,-8.67671 L 73.4769,-8.83003 L 73.45,-9 L 73.4769,-9.16995
 L 73.555,-9.32327 L 73.6767,-9.44495 L 73.83,-9.52307 L 74,-9.54999 L 74.17,-9.52307 L 74.3233,-9.44495
 L 74.4449,-9.32327 L 74.5231,-9.16995 L 74.55,-9 L 74.5231,-8.83003 L 74.4449,-8.67671 L 74.3233,-8.55504
 L 74.17,-8.47691 L 74,-8.45 z
M 73.83,-3.47691 L 73.6767,-3.55504 L 73.555,-3.67671 L 73.4769,-3.83003 L 73.45,-4 L 73.4769,-4.16995
 L 73.555,-4.32327 L 73.6767,-4.44495 L 73.83,-4.52307 L 74,-4.54999 L 74.17,-4.52307 L 74.3233,-4.44495
 L 74.4449,-4.32327 L 74.5231,-4.16995 L 74.55,-4 L 74.5231,-3.83003 L 74.4449,-3.67671 L 74.3233,-3.55504
 L 74.17,-3.47691 L 74,-3.45 z
M 73.83,-0.476913 L 73.6767,-0.555038 L 73.555,-0.676712 L 73.4769,-0.830032 L 73.45,-1 L 73.4769,-1.16995
 L 73.555,-1.32327 L 73.6767,-1.44495 L 73.83,-1.52307 L 74,-1.54999 L 74.17,-1.52307 L 74.3233,-1.44495
 L 74.4449,-1.32327 L 74.5231,-1.16995 L 74.55,-1 L 74.5231,-0.830032 L 74.4449,-0.676712 L 74.3233,-0.555038
 L 74.17,-0.476913 L 74,-0.449997 z
M 37.25,-8.625 L 37.375,-8.625 L 37.375,-8.5 L 40.625,-8.5 L 40.625,-8.625 L 40.75,-8.625
 L 40.75,-8 L 41.5,-8 L 41.5,-11.125 L 41.375,-11.125 L 41.375,-11.25 L 42,-11.25
 L 42,-11.75 L 41.375,-11.75 L 41.375,-11.875 L 41.5,-11.875 L 41.5,-15 L 40.75,-15
 L 40.75,-14.375 L 40.625,-14.375 L 40.625,-14.5 L 37.375,-14.5 L 37.375,-14.375 L 37.25,-14.375
 L 37.25,-15 L 36.5,-15 L 36.5,-8 L 37.25,-8 z
M 345.75,-12 L 341.25,-12 L 341.25,-4 L 345.75,-4 z
M 343.684,-9.62576 L 343.62,-9.64291 L 343.56,-9.6709 L 343.506,-9.70889 L 343.459,-9.75574 L 343.421,-9.81
 L 343.393,-9.87003 L 343.376,-9.93401 L 343.37,-10 L 343.376,-10.066 L 343.393,-10.13 L 343.421,-10.19
 L 343.459,-10.2442 L 343.506,-10.2911 L 343.56,-10.3291 L 343.62,-10.3571 L 343.684,-10.3742 L 343.75,-10.38
 L 343.816,-10.3742 L 343.88,-10.3571 L 343.94,-10.3291 L 343.994,-10.2911 L 344.041,-10.2442 L 344.079,-10.19
 L 344.107,-10.13 L 344.124,-10.066 L 344.13,-10 L 344.124,-9.93401 L 344.107,-9.87003 L 344.079,-9.81
 L 344.041,-9.75574 L 343.994,-9.70889 L 343.94,-9.6709 L 343.88,-9.64291 L 343.816,-9.62576 L 343.75,-9.62
 z
M 343.684,-5.62576 L 343.62,-5.64291 L 343.56,-5.6709 L 343.506,-5.70889 L 343.459,-5.75574 L 343.421,-5.81
 L 343.393,-5.87003 L 343.376,-5.93401 L 343.37,-6 L 343.376,-6.06598 L 343.393,-6.12996 L 343.421,-6.18999
 L 343.459,-6.24425 L 343.506,-6.29109 L 343.56,-6.32909 L 343.62,-6.35707 L 343.684,-6.37422 L 343.75,-6.37999
 L 343.816,-6.37422 L 343.88,-6.35707 L 343.94,-6.32909 L 343.994,-6.29109 L 344.041,-6.24425 L 344.079,-6.18999
 L 344.107,-6.12996 L 344.124,-6.06598 L 344.13,-6 L 344.124,-5.93401 L 344.107,-5.87003 L 344.079,-5.81
 L 344.041,-5.75574 L 343.994,-5.70889 L 343.94,-5.6709 L 343.88,-5.64291 L 343.816,-5.62576 L 343.75,-5.62
 z
M 80.5,-10.5 L 76.5,-10.5 L 76.5,-5.75 L 80.5,-5.75 z
M 79.4349,-9.13069 L 79.3717,-9.14761 L 79.3125,-9.17523 L 79.2589,-9.21272 L 79.2127,-9.25894 L 79.1752,-9.3125
 L 79.1476,-9.37173 L 79.1307,-9.43488 L 79.125,-9.5 L 79.1307,-9.56511 L 79.1476,-9.62825 L 79.1752,-9.6875
 L 79.2127,-9.74104 L 79.2589,-9.78726 L 79.3125,-9.82475 L 79.3717,-9.85237 L 79.4349,-9.86929 L 79.5,-9.875
 L 79.5651,-9.86929 L 79.6283,-9.85237 L 79.6875,-9.82475 L 79.741,-9.78726 L 79.7873,-9.74104 L 79.8248,-9.6875
 L 79.8524,-9.62825 L 79.8693,-9.56511 L 79.875,-9.5 L 79.8693,-9.43488 L 79.8524,-9.37173 L 79.8248,-9.3125
 L 79.7873,-9.25894 L 79.741,-9.21272 L 79.6875,-9.17523 L 79.6283,-9.14761 L 79.5651,-9.13069 L 79.5,-9.125
 z
M 77.4349,-9.13069 L 77.3717,-9.14761 L 77.3125,-9.17523 L 77.2589,-9.21272 L 77.2127,-9.25894 L 77.1752,-9.3125
 L 77.1476,-9.37173 L 77.1307,-9.43488 L 77.125,-9.5 L 77.1307,-9.56511 L 77.1476,-9.62825 L 77.1752,-9.6875
 L 77.2127,-9.74104 L 77.2589,-9.78726 L 77.3125,-9.82475 L 77.3717,-9.85237 L 77.4349,-9.86929 L 77.5,-9.875
 L 77.5651,-9.86929 L 77.6283,-9.85237 L 77.6875,-9.82475 L 77.741,-9.78726 L 77.7873,-9.74104 L 77.8248,-9.6875
 L 77.8524,-9.62825 L 77.8693,-9.56511 L 77.875,-9.5 L 77.8693,-9.43488 L 77.8524,-9.37173 L 77.8248,-9.3125
 L 77.7873,-9.25894 L 77.741,-9.21272 L 77.6875,-9.17523 L 77.6283,-9.14761 L 77.5651,-9.13069 L 77.5,-9.125
 z
M 79.4132,-6.25758 L 79.329,-6.28015 L 79.25,-6.31699 L 79.1786,-6.36697 L 79.117,-6.4286 L 79.067,-6.5
 L 79.0302,-6.57898 L 79.0076,-6.66316 L 79,-6.75 L 79.0076,-6.83682 L 79.0302,-6.92101 L 79.067,-7
 L 79.117,-7.07138 L 79.1786,-7.13301 L 79.25,-7.183 L 79.329,-7.21983 L 79.4132,-7.2424 L 79.5,-7.25
 L 79.5868,-7.2424 L 79.671,-7.21983 L 79.75,-7.183 L 79.8214,-7.13301 L 79.883,-7.07138 L 79.933,-7
 L 79.9698,-6.92101 L 79.9924,-6.83682 L 80,-6.75 L 79.9924,-6.66316 L 79.9698,-6.57898 L 79.933,-6.5
 L 79.883,-6.4286 L 79.8214,-6.36697 L 79.75,-6.31699 L 79.671,-6.28015 L 79.5868,-6.25758 L 79.5,-6.25
 z
M 77.4132,-6.25758 L 77.329,-6.28015 L 77.25,-6.31699 L 77.1786,-6.36697 L 77.117,-6.4286 L 77.067,-6.5
 L 77.0302,-6.57898 L 77.0076,-6.66316 L 77,-6.75 L 77.0076,-6.83682 L 77.0302,-6.92101 L 77.067,-7
 L 77.117,-7.07138 L 77.1786,-7.13301 L 77.25,-7.183 L 77.329,-7.21983 L 77.4132,-7.2424 L 77.5,-7.25
 L 77.5868,-7.2424 L 77.671,-7.21983 L 77.75,-7.183 L 77.8214,-7.13301 L 77.883,-7.07138 L 77.933,-7
 L 77.9698,-6.92101 L 77.9924,-6.83682 L 78,-6.75 L 77.9924,-6.66316 L 77.9698,-6.57898 L 77.933,-6.5
 L 77.883,-6.4286 L 77.8214,-6.36697 L 77.75,-6.31699 L 77.671,-6.28015 L 77.5868,-6.25758 L 77.5,-6.25
 z
M 270,-3.625 L 269.5,-3.625 L 269.5,-4.43332 L 267.06,-8.5 L 266.625,-8.5 L 266.625,-9
 L 266,-9 L 266,-8 L 269,-3 L 270,-3 z
M 69.75,-5.125 L 69.875,-5.125 L 69.875,-5 L 71,-5 L 71,-6.125 L 70.875,-6.125
 L 70.875,-6.25 L 71.5,-6.25 L 71.5,-6.75 L 70.875,-6.75 L 70.875,-6.875 L 71,-6.875
 L 71,-8 L 68,-8 L 68,-5 L 69.125,-5 L 69.125,-5.125 L 69.25,-5.125
 L 69.25,-4.5 L 69.75,-4.5 z
M 69.4132,-6.00758 L 69.329,-6.03015 L 69.25,-6.06699 L 69.1786,-6.11697 L 69.117,-6.1786 L 69.067,-6.25
 L 69.0302,-6.32898 L 69.0076,-6.41316 L 69,-6.5 L 69.0076,-6.58682 L 69.0302,-6.67101 L 69.067,-6.75
 L 69.117,-6.82138 L 69.1786,-6.88301 L 69.25,-6.933 L 69.329,-6.96983 L 69.4132,-6.9924 L 69.5,-7
 L 69.5868,-6.9924 L 69.671,-6.96983 L 69.75,-6.933 L 69.8214,-6.88301 L 69.883,-6.82138 L 69.933,-6.75
 L 69.9698,-6.67101 L 69.9924,-6.58682 L 70,-6.5 L 69.9924,-6.41316 L 69.9698,-6.32898 L 69.933,-6.25
 L 69.883,-6.1786 L 69.8214,-6.11697 L 69.75,-6.06699 L 69.671,-6.03015 L 69.5868,-6.00758 L 69.5,-6
 z
M 61,-4.5 L 60.375,-4.5 L 60.375,-4.625 L 60.5,-4.625 L 60.5,-4.875 L 60.375,-4.875
 L 60.375,-6.125 L 60.5,-6.125 L 60.5,-6.375 L 60.375,-6.375 L 60.375,-6.5 L 61,-6.5
 L 61,-7 L 57,-7 L 57,-4 L 61,-4 z
M 58.4132,-5.00758 L 58.329,-5.03015 L 58.25,-5.06699 L 58.1786,-5.11697 L 58.117,-5.1786 L 58.067,-5.25
 L 58.0302,-5.32898 L 58.0076,-5.41316 L 58,-5.5 L 58.0076,-5.58682 L 58.0302,-5.67101 L 58.067,-5.75
 L 58.117,-5.82138 L 58.1786,-5.88301 L 58.25,-5.933 L 58.329,-5.96983 L 58.4132,-5.9924 L 58.5,-6
 L 58.5868,-5.9924 L 58.671,-5.96983 L 58.75,-5.933 L 58.8214,-5.88301 L 58.883,-5.82138 L 58.933,-5.75
 L 58.9698,-5.67101 L 58.9924,-5.58682 L 59,-5.5 L 58.9924,-5.41316 L 58.9698,-5.32898 L 58.933,-5.25
 L 58.883,-5.1786 L 58.8214,-5.11697 L 58.75,-5.06699 L 58.671,-5.03015 L 58.5868,-5.00758 L 58.5,-5
 z
M 37.25,-0.625 L 37.375,-0.625 L 37.375,-0.5 L 40.625,-0.5 L 40.625,-0.625 L 40.75,-0.625
 L 40.75,-0 L 41.5,-0 L 41.5,-3.125 L 41.375,-3.125 L 41.375,-3.25 L 42,-3.25
 L 42,-3.75 L 41.375,-3.75 L 41.375,-3.875 L 41.5,-3.875 L 41.5,-7 L 40.75,-7
 L 40.75,-6.375 L 40.625,-6.375 L 40.625,-6.5 L 37.375,-6.5 L 37.375,-6.375 L 37.25,-6.375
 L 37.25,-7 L 36.5,-7 L 36.5,-0 L 37.25,-0 z
M 80.5,-4.75 L 76.5,-4.75 L 76.5,-0 L 80.5,-0 z
M 77.4349,-3.38069 L 77.3717,-3.39761 L 77.3125,-3.42523 L 77.2589,-3.46272 L 77.2127,-3.50894 L 77.1752,-3.5625
 L 77.1476,-3.62173 L 77.1307,-3.68488 L 77.125,-3.75 L 77.1307,-3.81511 L 77.1476,-3.87825 L 77.1752,-3.9375
 L 77.2127,-3.99104 L 77.2589,-4.03726 L 77.3125,-4.07475 L 77.3717,-4.10237 L 77.4349,-4.11929 L 77.5,-4.125
 L 77.5651,-4.11929 L 77.6283,-4.10237 L 77.6875,-4.07475 L 77.741,-4.03726 L 77.7873,-3.99104 L 77.8248,-3.9375
 L 77.8524,-3.87825 L 77.8693,-3.81511 L 77.875,-3.75 L 77.8693,-3.68488 L 77.8524,-3.62173 L 77.8248,-3.5625
 L 77.7873,-3.50894 L 77.741,-3.46272 L 77.6875,-3.42523 L 77.6283,-3.39761 L 77.5651,-3.38069 L 77.5,-3.375
 z
M 79.4349,-3.38069 L 79.3717,-3.39761 L 79.3125,-3.42523 L 79.2589,-3.46272 L 79.2127,-3.50894 L 79.1752,-3.5625
 L 79.1476,-3.62173 L 79.1307,-3.68488 L 79.125,-3.75 L 79.1307,-3.81511 L 79.1476,-3.87825 L 79.1752,-3.9375
 L 79.2127,-3.99104 L 79.2589,-4.03726 L 79.3125,-4.07475 L 79.3717,-4.10237 L 79.4349,-4.11929 L 79.5,-4.125
 L 79.5651,-4.11929 L 79.6283,-4.10237 L 79.6875,-4.07475 L 79.741,-4.03726 L 79.7873,-3.99104 L 79.8248,-3.9375
 L 79.8524,-3.87825 L 79.8693,-3.81511 L 79.875,-3.75 L 79.8693,-3.68488 L 79.8524,-3.62173 L 79.8248,-3.5625
 L 79.7873,-3.50894 L 79.741,-3.46272 L 79.6875,-3.42523 L 79.6283,-3.39761 L 79.5651,-3.38069 L 79.5,-3.375
 z
M 77.4132,-0.507584 L 77.329,-0.530151 L 77.25,-0.566986 L 77.1786,-0.616974 L 77.117,-0.678604 L 77.067,-0.75
 L 77.0302,-0.828979 L 77.0076,-0.913162 L 77,-1 L 77.0076,-1.08682 L 77.0302,-1.17101 L 77.067,-1.25
 L 77.117,-1.32138 L 77.1786,-1.38301 L 77.25,-1.433 L 77.329,-1.46983 L 77.4132,-1.4924 L 77.5,-1.5
 L 77.5868,-1.4924 L 77.671,-1.46983 L 77.75,-1.433 L 77.8214,-1.38301 L 77.883,-1.32138 L 77.933,-1.25
 L 77.9698,-1.17101 L 77.9924,-1.08682 L 78,-1 L 77.9924,-0.913162 L 77.9698,-0.828979 L 77.933,-0.75
 L 77.883,-0.678604 L 77.8214,-0.616974 L 77.75,-0.566986 L 77.671,-0.530151 L 77.5868,-0.507584 L 77.5,-0.5
 z
M 79.4132,-0.507584 L 79.329,-0.530151 L 79.25,-0.566986 L 79.1786,-0.616974 L 79.117,-0.678604 L 79.067,-0.75
 L 79.0302,-0.828979 L 79.0076,-0.913162 L 79,-1 L 79.0076,-1.08682 L 79.0302,-1.17101 L 79.067,-1.25
 L 79.117,-1.32138 L 79.1786,-1.38301 L 79.25,-1.433 L 79.329,-1.46983 L 79.4132,-1.4924 L 79.5,-1.5
 L 79.5868,-1.4924 L 79.671,-1.46983 L 79.75,-1.433 L 79.8214,-1.38301 L 79.883,-1.32138 L 79.933,-1.25
 L 79.9698,-1.17101 L 79.9924,-1.08682 L 80,-1 L 79.9924,-0.913162 L 79.9698,-0.828979 L 79.933,-0.75
 L 79.883,-0.678604 L 79.8214,-0.616974 L 79.75,-0.566986 L 79.671,-0.530151 L 79.5868,-0.507584 L 79.5,-0.5
 z
M 69.75,-0.625 L 69.875,-0.625 L 69.875,-0.5 L 71,-0.5 L 71,-1.625 L 70.875,-1.625
 L 70.875,-1.75 L 71.5,-1.75 L 71.5,-2.25 L 70.875,-2.25 L 70.875,-2.375 L 71,-2.375
 L 71,-3.5 L 68,-3.5 L 68,-0.5 L 69.125,-0.5 L 69.125,-0.625 L 69.25,-0.625
 L 69.25,-0 L 69.75,-0 z
M 69.4132,-1.50758 L 69.329,-1.53015 L 69.25,-1.56699 L 69.1786,-1.61697 L 69.117,-1.6786 L 69.067,-1.75
 L 69.0302,-1.82898 L 69.0076,-1.91316 L 69,-2 L 69.0076,-2.08682 L 69.0302,-2.17101 L 69.067,-2.25
 L 69.117,-2.32138 L 69.1786,-2.38301 L 69.25,-2.433 L 69.329,-2.46983 L 69.4132,-2.4924 L 69.5,-2.5
 L 69.5868,-2.4924 L 69.671,-2.46983 L 69.75,-2.433 L 69.8214,-2.38301 L 69.883,-2.32138 L 69.933,-2.25
 L 69.9698,-2.17101 L 69.9924,-2.08682 L 70,-2 L 69.9924,-1.91316 L 69.9698,-1.82898 L 69.933,-1.75
 L 69.883,-1.6786 L 69.8214,-1.61697 L 69.75,-1.56699 L 69.671,-1.53015 L 69.5868,-1.50758 L 69.5,-1.5
 z
M 61,-0.5 L 60.375,-0.5 L 60.375,-0.625 L 60.5,-0.625 L 60.5,-0.875 L 60.375,-0.875
 L 60.375,-2.125 L 60.5,-2.125 L 60.5,-2.375 L 60.375,-2.375 L 60.375,-2.5 L 61,-2.5
 L 61,-3 L 57,-3 L 57,-0 L 61,-0 z
M 58.4132,-1.00758 L 58.329,-1.03015 L 58.25,-1.06699 L 58.1786,-1.11697 L 58.117,-1.1786 L 58.067,-1.25
 L 58.0302,-1.32898 L 58.0076,-1.41316 L 58,-1.5 L 58.0076,-1.58682 L 58.0302,-1.67101 L 58.067,-1.75
 L 58.117,-1.82138 L 58.1786,-1.88301 L 58.25,-1.933 L 58.329,-1.96983 L 58.4132,-1.9924 L 58.5,-2
 L 58.5868,-1.9924 L 58.671,-1.96983 L 58.75,-1.933 L 58.8214,-1.88301 L 58.883,-1.82138 L 58.933,-1.75
 L 58.9698,-1.67101 L 58.9924,-1.58682 L 59,-1.5 L 58.9924,-1.41316 L 58.9698,-1.32898 L 58.933,-1.25
 L 58.883,-1.1786 L 58.8214,-1.11697 L 58.75,-1.06699 L 58.671,-1.03015 L 58.5868,-1.00758 L 58.5,-1
 z
" stroke="black" fill="lightgray" stroke-width="0.5"/>
</svg>
