<?xml version="1.0" standalone="no"?>
<!DOCTYPE svg PUBLIC "-//W3C//DTD SVG 1.1//EN" "http://www.w3.org/Graphics/SVG/1.1/DTD/svg11.dtd">
<svg width="857mm" height="81mm" viewBox="-197 -81 857 81" xmlns="http://www.w3.org/2000/svg" version="1.1">
<title>OpenSCAD Model</title>
<path d="
M 317.5,-6 L 311.557,-6 L 311.557,-5.375 L 311.432,-5.375 L 311.432,-5.5 L 310.932,-5.5
 L 310.932,-5.375 L 306.115,-5.375 L 306.115,-5.5 L 305.615,-5.5 L 305.615,-5.375 L 305.49,-5.375
 L 305.49,-6 L 299.547,-6 L 299.547,-5.375 L 299.422,-5.375 L 299.422,-5.5 L 298.922,-5.5
 L 298.922,-5.375 L 294.104,-5.375 L 294.104,-5.5 L 293.604,-5.5 L 293.604,-5.375 L 293.479,-5.375
 L 293.479,-6 L 287.536,-6 L 287.536,-5.375 L 287.411,-5.375 L 287.411,-5.5 L 286.911,-5.5
 L 286.911,-5.375 L 282.094,-5.375 L 282.094,-5.5 L 281.594,-5.5 L 281.594,-5.375 L 281.469,-5.375
 L 281.469,-6 L 275.526,-6 L 275.526,-5.375 L 275.401,-5.375 L 275.401,-5.5 L 274.901,-5.5
 L 274.901,-5.375 L 270.083,-5.375 L 270.083,-5.5 L 269.583,-5.5 L 269.583,-5.375 L 269.458,-5.375
 L 269.458,-6 L 263.516,-6 L 263.516,-5.375 L 263.391,-5.375 L 263.391,-5.5 L 262.891,-5.5
 L 262.891,-5.375 L 258.073,-5.375 L 258.073,-5.5 L 257.573,-5.5 L 257.573,-5.375 L 257.448,-5.375
 L 257.448,-6 L 251.505,-6 L 251.505,-5.375 L 251.38,-5.375 L 251.38,-5.5 L 250.88,-5.5
 L 250.88,-5.375 L 250.5,-5.375 L 250.5,-9.4427 L 249.875,-9.4427 L 249.875,-9.5677 L 250,-9.5677
 L 250,-10.0677 L 249.875,-10.0677 L 249.875,-15.3854 L 250,-15.3854 L 250,-15.8854 L 249.875,-15.8854
 L 249.875,-16.0104 L 250.5,-16.0104 L 250.5,-22.4531 L 249.875,-22.4531 L 249.875,-22.5781 L 250,-22.5781
 L 250,-23.0781 L 249.875,-23.0781 L 249.875,-28.3958 L 250,-28.3958 L 250,-28.8958 L 249.875,-28.8958
 L 249.875,-29.0208 L 250.5,-29.0208 L 250.5,-35.4635 L 249.875,-35.4635 L 249.875,-35.5885 L 250,-35.5885
 L 250,-36.0885 L 249.875,-36.0885 L 249.875,-41.4062 L 250,-41.4062 L 250,-41.9062 L 249.875,-41.9062
 L 249.875,-42.0312 L 250.5,-42.0312 L 250.5,-48.474 L 249.875,-48.474 L 249.875,-48.599 L 250,-48.599
 L 250,-49.099 L 249.875,-49.099 L 249.875,-54.4167 L 250,-54.4167 L 250,-54.9167 L 249.875,-54.9167
 L 249.875,-55.0417 L 250.5,-55.0417 L 250.5,-61.4844 L 249.875,-61.4844 L 249.875,-61.6094 L 250,-61.6094
 L 250,-62.1094 L 249.875,-62.1094 L 249.875,-67.4271 L 250,-67.4271 L 250,-67.9271 L 249.875,-67.9271
 L 249.875,-68.0521 L 250.5,-68.0521 L 250.5,-74.4948 L 249.875,-74.4948 L 249.875,-74.6198 L 250,-74.6198
 L 250,-75.1198 L 249.875,-75.1198 L 249.875,-80.4375 L 250,-80.4375 L 250,-80.9375 L 249.875,-80.9375
 L 249.875,-81 L 244.5,-81 L 244.5,-80.3438 L 245.062,-80.3438 L 245.062,-80.4688 L 245.312,-80.4688
 L 245.312,-80.2188 L 245.188,-80.2188 L 245.188,-79.7812 L 245.312,-79.7812 L 245.312,-79.5312 L 245.062,-79.5312
 L 245.062,-79.6562 L 244.5,-79.6562 L 244.5,-54.3438 L 245.062,-54.3438 L 245.062,-54.4688 L 245.312,-54.4688
 L 245.312,-54.2188 L 245.188,-54.2188 L 245.188,-53.7812 L 245.312,-53.7812 L 245.312,-53.5312 L 245.062,-53.5312
 L 245.062,-53.6562 L 244.5,-53.6562 L 244.5,-4.34375 L 245.062,-4.34375 L 245.062,-4.46875 L 245.312,-4.46875
 L 245.312,-4.21875 L 245.188,-4.21875 L 245.188,-3.78125 L 245.312,-3.78125 L 245.312,-3.53125 L 245.062,-3.53125
 L 245.062,-3.65625 L 244.5,-3.65625 L 244.5,-3 L 245.5,-3 L 245.5,-2 L 317.5,-2
 z
M 168.875,-2.0625 L 169,-2.0625 L 169,-2.5625 L 168.875,-2.5625 L 168.875,-7.8802 L 169,-7.8802
 L 169,-8.3802 L 168.875,-8.3802 L 168.875,-8.5052 L 169.5,-8.5052 L 169.5,-14.9479 L 168.875,-14.9479
 L 168.875,-15.0729 L 169,-15.0729 L 169,-15.5729 L 168.875,-15.5729 L 168.875,-20.8906 L 169,-20.8906
 L 169,-21.3906 L 168.875,-21.3906 L 168.875,-21.5156 L 169.5,-21.5156 L 169.5,-27.9583 L 168.875,-27.9583
 L 168.875,-28.0833 L 169,-28.0833 L 169,-28.5833 L 168.875,-28.5833 L 168.875,-33.901 L 169,-33.901
 L 169,-34.401 L 168.875,-34.401 L 168.875,-34.526 L 169.5,-34.526 L 169.5,-40.9687 L 168.875,-40.9687
 L 168.875,-41.0937 L 169,-41.0937 L 169,-41.5937 L 168.875,-41.5937 L 168.875,-46.9115 L 169,-46.9115
 L 169,-47.4115 L 168.875,-47.4115 L 168.875,-47.5365 L 169.5,-47.5365 L 169.5,-53.9792 L 168.875,-53.9792
 L 168.875,-54.1042 L 169,-54.1042 L 169,-54.6042 L 168.875,-54.6042 L 168.875,-59.9219 L 169,-59.9219
 L 169,-60.4219 L 168.875,-60.4219 L 168.875,-60.5469 L 169.5,-60.5469 L 169.5,-66.9896 L 168.875,-66.9896
 L 168.875,-67.1146 L 169,-67.1146 L 169,-67.6146 L 168.875,-67.6146 L 168.875,-72.9323 L 169,-72.9323
 L 169,-73.4323 L 168.875,-73.4323 L 168.875,-73.5573 L 169.5,-73.5573 L 169.5,-80 L 165.5,-80
 L 165.5,-79.3438 L 166.062,-79.3438 L 166.062,-79.4688 L 166.312,-79.4688 L 166.312,-79.2188 L 166.188,-79.2188
 L 166.188,-78.7812 L 166.312,-78.7812 L 166.312,-78.5312 L 166.062,-78.5312 L 166.062,-78.6562 L 165.5,-78.6562
 L 165.5,-53.3438 L 166.062,-53.3438 L 166.062,-53.4688 L 166.312,-53.4688 L 166.312,-53.2188 L 166.188,-53.2188
 L 166.188,-52.7812 L 166.312,-52.7812 L 166.312,-52.5312 L 166.062,-52.5312 L 166.062,-52.6562 L 165.5,-52.6562
 L 165.5,-3.34375 L 166.062,-3.34375 L 166.062,-3.46875 L 166.312,-3.46875 L 166.312,-3.21875 L 166.188,-3.21875
 L 166.188,-2.78125 L 166.312,-2.78125 L 166.312,-2.53125 L 166.062,-2.53125 L 166.062,-2.65625 L 165.5,-2.65625
 L 165.5,-2 L 168.875,-2 z
M 167.431,-76.6061 L 167.363,-76.6241 L 167.3,-76.6536 L 167.243,-76.6936 L 167.194,-76.7429 L 167.154,-76.8
 L 167.124,-76.8632 L 167.106,-76.9305 L 167.1,-77 L 167.106,-77.0695 L 167.124,-77.1368 L 167.154,-77.2
 L 167.194,-77.2571 L 167.243,-77.3064 L 167.3,-77.3464 L 167.363,-77.3759 L 167.431,-77.3939 L 167.5,-77.4
 L 167.569,-77.3939 L 167.637,-77.3759 L 167.7,-77.3464 L 167.757,-77.3064 L 167.806,-77.2571 L 167.846,-77.2
 L 167.876,-77.1368 L 167.894,-77.0695 L 167.9,-77 L 167.894,-76.9305 L 167.876,-76.8632 L 167.846,-76.8
 L 167.806,-76.7429 L 167.757,-76.6936 L 167.7,-76.6536 L 167.637,-76.6241 L 167.569,-76.6061 L 167.5,-76.6
 z
M 167.431,-71.6061 L 167.363,-71.6241 L 167.3,-71.6536 L 167.243,-71.6936 L 167.194,-71.7429 L 167.154,-71.8
 L 167.124,-71.8632 L 167.106,-71.9305 L 167.1,-72 L 167.106,-72.0695 L 167.124,-72.1368 L 167.154,-72.2
 L 167.194,-72.2571 L 167.243,-72.3064 L 167.3,-72.3464 L 167.363,-72.3759 L 167.431,-72.3939 L 167.5,-72.4
 L 167.569,-72.3939 L 167.637,-72.3759 L 167.7,-72.3464 L 167.757,-72.3064 L 167.806,-72.2571 L 167.846,-72.2
 L 167.876,-72.1368 L 167.894,-72.0695 L 167.9,-72 L 167.894,-71.9305 L 167.876,-71.8632 L 167.846,-71.8
 L 167.806,-71.7429 L 167.757,-71.6936 L 167.7,-71.6536 L 167.637,-71.6241 L 167.569,-71.6061 L 167.5,-71.6
 z
M 167.431,-64.1061 L 167.363,-64.1241 L 167.3,-64.1536 L 167.243,-64.1936 L 167.194,-64.2429 L 167.154,-64.3
 L 167.124,-64.3632 L 167.106,-64.4305 L 167.1,-64.5 L 167.106,-64.5695 L 167.124,-64.6368 L 167.154,-64.7
 L 167.194,-64.7571 L 167.243,-64.8064 L 167.3,-64.8464 L 167.363,-64.8759 L 167.431,-64.8939 L 167.5,-64.9
 L 167.569,-64.8939 L 167.637,-64.8759 L 167.7,-64.8464 L 167.757,-64.8064 L 167.806,-64.7571 L 167.846,-64.7
 L 167.876,-64.6368 L 167.894,-64.5695 L 167.9,-64.5 L 167.894,-64.4305 L 167.876,-64.3632 L 167.846,-64.3
 L 167.806,-64.2429 L 167.757,-64.1936 L 167.7,-64.1536 L 167.637,-64.1241 L 167.569,-64.1061 L 167.5,-64.1
 z
M 167.431,-61.1061 L 167.363,-61.1241 L 167.3,-61.1536 L 167.243,-61.1936 L 167.194,-61.2429 L 167.154,-61.3
 L 167.124,-61.3632 L 167.106,-61.4305 L 167.1,-61.5 L 167.106,-61.5695 L 167.124,-61.6368 L 167.154,-61.7
 L 167.194,-61.7571 L 167.243,-61.8064 L 167.3,-61.8464 L 167.363,-61.8759 L 167.431,-61.8939 L 167.5,-61.9
 L 167.569,-61.8939 L 167.637,-61.8759 L 167.7,-61.8464 L 167.757,-61.8064 L 167.806,-61.7571 L 167.846,-61.7
 L 167.876,-61.6368 L 167.894,-61.5695 L 167.9,-61.5 L 167.894,-61.4305 L 167.876,-61.3632 L 167.846,-61.3
 L 167.806,-61.2429 L 167.757,-61.1936 L 167.7,-61.1536 L 167.637,-61.1241 L 167.569,-61.1061 L 167.5,-61.1
 z
M 167.431,-57.6061 L 167.363,-57.6241 L 167.3,-57.6536 L 167.243,-57.6936 L 167.194,-57.7429 L 167.154,-57.8
 L 167.124,-57.8632 L 167.106,-57.9305 L 167.1,-58 L 167.106,-58.0695 L 167.124,-58.1368 L 167.154,-58.2
 L 167.194,-58.2571 L 167.243,-58.3064 L 167.3,-58.3464 L 167.363,-58.3759 L 167.431,-58.3939 L 167.5,-58.4
 L 167.569,-58.3939 L 167.637,-58.3759 L 167.7,-58.3464 L 167.757,-58.3064 L 167.806,-58.2571 L 167.846,-58.2
 L 167.876,-58.1368 L 167.894,-58.0695 L 167.9,-58 L 167.894,-57.9305 L 167.876,-57.8632 L 167.846,-57.8
 L 167.806,-57.7429 L 167.757,-57.6936 L 167.7,-57.6536 L 167.637,-57.6241 L 167.569,-57.6061 L 167.5,-57.6
 z
M 167.431,-47.6061 L 167.363,-47.6241 L 167.3,-47.6536 L 167.243,-47.6936 L 167.194,-47.7429 L 167.154,-47.8
 L 167.124,-47.8632 L 167.106,-47.9305 L 167.1,-48 L 167.106,-48.0695 L 167.124,-48.1368 L 167.154,-48.2
 L 167.194,-48.2571 L 167.243,-48.3064 L 167.3,-48.3464 L 167.363,-48.3759 L 167.431,-48.3939 L 167.5,-48.4
 L 167.569,-48.3939 L 167.637,-48.3759 L 167.7,-48.3464 L 167.757,-48.3064 L 167.806,-48.2571 L 167.846,-48.2
 L 167.876,-48.1368 L 167.894,-48.0695 L 167.9,-48 L 167.894,-47.9305 L 167.876,-47.8632 L 167.846,-47.8
 L 167.806,-47.7429 L 167.757,-47.6936 L 167.7,-47.6536 L 167.637,-47.6241 L 167.569,-47.6061 L 167.5,-47.6
 z
M 167.431,-44.3561 L 167.363,-44.3741 L 167.3,-44.4036 L 167.243,-44.4436 L 167.194,-44.4929 L 167.154,-44.55
 L 167.124,-44.6132 L 167.106,-44.6805 L 167.1,-44.75 L 167.106,-44.8195 L 167.124,-44.8868 L 167.154,-44.95
 L 167.194,-45.0071 L 167.243,-45.0564 L 167.3,-45.0964 L 167.363,-45.1259 L 167.431,-45.1439 L 167.5,-45.15
 L 167.569,-45.1439 L 167.637,-45.1259 L 167.7,-45.0964 L 167.757,-45.0564 L 167.806,-45.0071 L 167.846,-44.95
 L 167.876,-44.8868 L 167.894,-44.8195 L 167.9,-44.75 L 167.894,-44.6805 L 167.876,-44.6132 L 167.846,-44.55
 L 167.806,-44.4929 L 167.757,-44.4436 L 167.7,-44.4036 L 167.637,-44.3741 L 167.569,-44.3561 L 167.5,-44.35
 z
M 167.431,-31.8561 L 167.363,-31.8741 L 167.3,-31.9036 L 167.243,-31.9436 L 167.194,-31.9929 L 167.154,-32.05
 L 167.124,-32.1132 L 167.106,-32.1805 L 167.1,-32.25 L 167.106,-32.3195 L 167.124,-32.3868 L 167.154,-32.45
 L 167.194,-32.5071 L 167.243,-32.5564 L 167.3,-32.5964 L 167.363,-32.6259 L 167.431,-32.6439 L 167.5,-32.65
 L 167.569,-32.6439 L 167.637,-32.6259 L 167.7,-32.5964 L 167.757,-32.5564 L 167.806,-32.5071 L 167.846,-32.45
 L 167.876,-32.3868 L 167.894,-32.3195 L 167.9,-32.25 L 167.894,-32.1805 L 167.876,-32.1132 L 167.846,-32.05
 L 167.806,-31.9929 L 167.757,-31.9436 L 167.7,-31.9036 L 167.637,-31.8741 L 167.569,-31.8561 L 167.5,-31.85
 z
M 167.431,-5.60606 L 167.363,-5.62411 L 167.3,-5.65358 L 167.243,-5.69357 L 167.194,-5.74287 L 167.154,-5.79999
 L 167.124,-5.86319 L 167.106,-5.93053 L 167.1,-6 L 167.106,-6.06946 L 167.124,-6.1368 L 167.154,-6.2
 L 167.194,-6.25711 L 167.243,-6.30641 L 167.3,-6.34641 L 167.363,-6.37587 L 167.431,-6.39392 L 167.5,-6.39999
 L 167.569,-6.39392 L 167.637,-6.37587 L 167.7,-6.34641 L 167.757,-6.30641 L 167.806,-6.25711 L 167.846,-6.2
 L 167.876,-6.1368 L 167.894,-6.06946 L 167.9,-6 L 167.894,-5.93053 L 167.876,-5.86319 L 167.846,-5.79999
 L 167.806,-5.74287 L 167.757,-5.69357 L 167.7,-5.65358 L 167.637,-5.62411 L 167.569,-5.60606 L 167.5,-5.59999
 z
M 167.431,-3.60606 L 167.363,-3.62411 L 167.3,-3.65358 L 167.243,-3.69357 L 167.194,-3.74287 L 167.154,-3.79999
 L 167.124,-3.86319 L 167.106,-3.93053 L 167.1,-4 L 167.106,-4.06946 L 167.124,-4.1368 L 167.154,-4.2
 L 167.194,-4.25711 L 167.243,-4.30641 L 167.3,-4.34641 L 167.363,-4.37587 L 167.431,-4.39392 L 167.5,-4.39999
 L 167.569,-4.39392 L 167.637,-4.37587 L 167.7,-4.34641 L 167.757,-4.30641 L 167.806,-4.25711 L 167.846,-4.2
 L 167.876,-4.1368 L 167.894,-4.06946 L 167.9,-4 L 167.894,-3.93053 L 167.876,-3.86319 L 167.846,-3.79999
 L 167.806,-3.74287 L 167.757,-3.69357 L 167.7,-3.65358 L 167.637,-3.62411 L 167.569,-3.60606 L 167.5,-3.59999
 z
M 524.5,-32.6939 L 523.875,-32.6939 L 523.875,-32.9439 L 524,-32.9439 L 524,-33.4439 L 523.875,-33.4439
 L 523.875,-40.1173 L 524,-40.1173 L 524,-40.6173 L 523.875,-40.6173 L 523.875,-40.8673 L 524.5,-40.8673
 L 524.5,-49.0408 L 523.875,-49.0408 L 523.875,-49.2908 L 524,-49.2908 L 524,-49.7908 L 523.875,-49.7908
 L 523.875,-56.4643 L 524,-56.4643 L 524,-56.9643 L 523.875,-56.9643 L 523.875,-57.2143 L 524.5,-57.2143
 L 524.5,-65.3877 L 523.875,-65.3877 L 523.875,-65.6377 L 524,-65.6377 L 524,-66.1377 L 523.875,-66.1377
 L 523.875,-72.8112 L 524,-72.8112 L 524,-73.3112 L 523.875,-73.3112 L 523.875,-73.5612 L 520.531,-73.5612
 L 520.531,-73.1549 L 520.656,-73.1549 L 520.656,-72.9049 L 520.406,-72.9049 L 520.406,-73.0299 L 520,-73.0299
 L 520,-67.7612 L 521.4,-67.7612 L 521.4,-61.3612 L 520,-61.3612 L 520,-50.5641 L 520.406,-50.5641
 L 520.406,-50.6891 L 520.656,-50.6891 L 520.656,-50.4391 L 520.531,-50.4391 L 520.531,-50.1266 L 520.656,-50.1266
 L 520.656,-49.8766 L 520.406,-49.8766 L 520.406,-50.0016 L 520,-50.0016 L 520,-25.0516 L 520.406,-25.0516
 L 520.406,-25.1766 L 520.656,-25.1766 L 520.656,-24.9266 L 520.531,-24.9266 L 520.531,-24.5204 L 524.5,-24.5204
 z
M 522.434,-71.687 L 522.37,-71.7041 L 522.31,-71.7321 L 522.256,-71.7701 L 522.209,-71.8169 L 522.171,-71.8712
 L 522.143,-71.9312 L 522.126,-71.9952 L 522.12,-72.0612 L 522.126,-72.1272 L 522.143,-72.1912 L 522.171,-72.2512
 L 522.209,-72.3055 L 522.256,-72.3523 L 522.31,-72.3903 L 522.37,-72.4183 L 522.434,-72.4354 L 522.5,-72.4412
 L 522.566,-72.4354 L 522.63,-72.4183 L 522.69,-72.3903 L 522.744,-72.3523 L 522.791,-72.3055 L 522.829,-72.2512
 L 522.857,-72.1912 L 522.874,-72.1272 L 522.88,-72.0612 L 522.874,-71.9952 L 522.857,-71.9312 L 522.829,-71.8712
 L 522.791,-71.8169 L 522.744,-71.7701 L 522.69,-71.7321 L 522.63,-71.7041 L 522.566,-71.687 L 522.5,-71.6812
 z
M 522.434,-68.687 L 522.37,-68.7041 L 522.31,-68.7321 L 522.256,-68.7701 L 522.209,-68.8169 L 522.171,-68.8712
 L 522.143,-68.9312 L 522.126,-68.9952 L 522.12,-69.0612 L 522.126,-69.1272 L 522.143,-69.1912 L 522.171,-69.2512
 L 522.209,-69.3055 L 522.256,-69.3523 L 522.31,-69.3903 L 522.37,-69.4183 L 522.434,-69.4354 L 522.5,-69.4412
 L 522.566,-69.4354 L 522.63,-69.4183 L 522.69,-69.3903 L 522.744,-69.3523 L 522.791,-69.3055 L 522.829,-69.2512
 L 522.857,-69.1912 L 522.874,-69.1272 L 522.88,-69.0612 L 522.874,-68.9952 L 522.857,-68.9312 L 522.829,-68.8712
 L 522.791,-68.8169 L 522.744,-68.7701 L 522.69,-68.7321 L 522.63,-68.7041 L 522.566,-68.687 L 522.5,-68.6812
 z
M 522.413,-59.038 L 522.328,-59.0607 L 522.249,-59.0977 L 522.177,-59.1479 L 522.115,-59.2099 L 522.065,-59.2816
 L 522.028,-59.361 L 522.005,-59.4456 L 521.997,-59.5329 L 522.005,-59.6201 L 522.028,-59.7048 L 522.065,-59.7841
 L 522.115,-59.8559 L 522.177,-59.9178 L 522.249,-59.9681 L 522.328,-60.0051 L 522.413,-60.0278 L 522.5,-60.0354
 L 522.587,-60.0278 L 522.672,-60.0051 L 522.751,-59.9681 L 522.823,-59.9178 L 522.885,-59.8559 L 522.935,-59.7841
 L 522.972,-59.7048 L 522.995,-59.6201 L 523.002,-59.5329 L 522.995,-59.4456 L 522.972,-59.361 L 522.935,-59.2816
 L 522.885,-59.2099 L 522.823,-59.1479 L 522.751,-59.0977 L 522.672,-59.0607 L 522.587,-59.038 L 522.5,-59.0304
 z
M 522.413,-56.038 L 522.328,-56.0607 L 522.249,-56.0977 L 522.177,-56.1479 L 522.115,-56.2099 L 522.065,-56.2816
 L 522.028,-56.361 L 522.005,-56.4456 L 521.997,-56.5329 L 522.005,-56.6201 L 522.028,-56.7048 L 522.065,-56.7841
 L 522.115,-56.8559 L 522.177,-56.9178 L 522.249,-56.9681 L 522.328,-57.0051 L 522.413,-57.0278 L 522.5,-57.0354
 L 522.587,-57.0278 L 522.672,-57.0051 L 522.751,-56.9681 L 522.823,-56.9178 L 522.885,-56.8559 L 522.935,-56.7841
 L 522.972,-56.7048 L 522.995,-56.6201 L 523.002,-56.5329 L 522.995,-56.4456 L 522.972,-56.361 L 522.935,-56.2816
 L 522.885,-56.2099 L 522.823,-56.1479 L 522.751,-56.0977 L 522.672,-56.0607 L 522.587,-56.038 L 522.5,-56.0304
 z
M 522.413,-52.038 L 522.328,-52.0607 L 522.249,-52.0977 L 522.177,-52.1479 L 522.115,-52.2099 L 522.065,-52.2816
 L 522.028,-52.361 L 522.005,-52.4456 L 521.997,-52.5329 L 522.005,-52.6201 L 522.028,-52.7048 L 522.065,-52.7841
 L 522.115,-52.8559 L 522.177,-52.9178 L 522.249,-52.9681 L 522.328,-53.0051 L 522.413,-53.0278 L 522.5,-53.0354
 L 522.587,-53.0278 L 522.672,-53.0051 L 522.751,-52.9681 L 522.823,-52.9178 L 522.885,-52.8559 L 522.935,-52.7841
 L 522.972,-52.7048 L 522.995,-52.6201 L 523.002,-52.5329 L 522.995,-52.4456 L 522.972,-52.361 L 522.935,-52.2816
 L 522.885,-52.2099 L 522.823,-52.1479 L 522.751,-52.0977 L 522.672,-52.0607 L 522.587,-52.038 L 522.5,-52.0304
 z
M 522.434,-30.1462 L 522.37,-30.1633 L 522.31,-30.1913 L 522.256,-30.2293 L 522.209,-30.2761 L 522.171,-30.3304
 L 522.143,-30.3904 L 522.126,-30.4544 L 522.12,-30.5204 L 522.126,-30.5864 L 522.143,-30.6504 L 522.171,-30.7104
 L 522.209,-30.7646 L 522.256,-30.8115 L 522.31,-30.8495 L 522.37,-30.8775 L 522.434,-30.8946 L 522.5,-30.9004
 L 522.566,-30.8946 L 522.63,-30.8775 L 522.69,-30.8495 L 522.744,-30.8115 L 522.791,-30.7646 L 522.829,-30.7104
 L 522.857,-30.6504 L 522.874,-30.5864 L 522.88,-30.5204 L 522.874,-30.4544 L 522.857,-30.3904 L 522.829,-30.3304
 L 522.791,-30.2761 L 522.744,-30.2293 L 522.69,-30.1913 L 522.63,-30.1633 L 522.566,-30.1462 L 522.5,-30.1404
 z
M 522.434,-26.1462 L 522.37,-26.1633 L 522.31,-26.1913 L 522.256,-26.2293 L 522.209,-26.2761 L 522.171,-26.3304
 L 522.143,-26.3904 L 522.126,-26.4544 L 522.12,-26.5204 L 522.126,-26.5864 L 522.143,-26.6504 L 522.171,-26.7104
 L 522.209,-26.7646 L 522.256,-26.8115 L 522.31,-26.8495 L 522.37,-26.8775 L 522.434,-26.8946 L 522.5,-26.9004
 L 522.566,-26.8946 L 522.63,-26.8775 L 522.69,-26.8495 L 522.744,-26.8115 L 522.791,-26.7646 L 522.829,-26.7104
 L 522.857,-26.6504 L 522.874,-26.5864 L 522.88,-26.5204 L 522.874,-26.4544 L 522.857,-26.3904 L 522.829,-26.3304
 L 522.791,-26.2761 L 522.744,-26.2293 L 522.69,-26.1913 L 522.63,-26.1633 L 522.566,-26.1462 L 522.5,-26.1404
 z
M 518.375,-24.7704 L 518.5,-24.7704 L 518.5,-25.2704 L 518.375,-25.2704 L 518.375,-31.9439 L 518.5,-31.9439
 L 518.5,-32.4439 L 518.375,-32.4439 L 518.375,-32.6939 L 519,-32.6939 L 519,-40.8673 L 518.375,-40.8673
 L 518.375,-41.1173 L 518.5,-41.1173 L 518.5,-41.6173 L 518.375,-41.6173 L 518.375,-48.2908 L 518.5,-48.2908
 L 518.5,-48.7908 L 518.375,-48.7908 L 518.375,-49.0408 L 519,-49.0408 L 519,-57.2143 L 518.375,-57.2143
 L 518.375,-57.4643 L 518.5,-57.4643 L 518.5,-57.9643 L 518.375,-57.9643 L 518.375,-64.6377 L 518.5,-64.6377
 L 518.5,-65.1377 L 518.375,-65.1377 L 518.375,-65.3877 L 519,-65.3877 L 519,-73.5612 L 513,-73.5612
 L 513,-65.3877 L 513.625,-65.3877 L 513.625,-65.1377 L 513.5,-65.1377 L 513.5,-64.6377 L 513.625,-64.6377
 L 513.625,-57.9643 L 513.5,-57.9643 L 513.5,-57.4643 L 513.625,-57.4643 L 513.625,-57.2143 L 513,-57.2143
 L 513,-49.0408 L 513.625,-49.0408 L 513.625,-48.7908 L 513.5,-48.7908 L 513.5,-48.2908 L 513.625,-48.2908
 L 513.625,-41.6173 L 513.5,-41.6173 L 513.5,-41.1173 L 513.625,-41.1173 L 513.625,-40.8673 L 513,-40.8673
 L 513,-32.6939 L 513.625,-32.6939 L 513.625,-32.4439 L 513.5,-32.4439 L 513.5,-31.9439 L 513.625,-31.9439
 L 513.625,-25.2704 L 513.5,-25.2704 L 513.5,-24.7704 L 513.625,-24.7704 L 513.625,-24.5204 L 518.375,-24.5204
 z
M 515.913,-59.9105 L 515.829,-59.933 L 515.75,-59.9699 L 515.679,-60.0199 L 515.617,-60.0815 L 515.567,-60.1529
 L 515.53,-60.2319 L 515.508,-60.3161 L 515.5,-60.4029 L 515.5,-60.6629 L 515.508,-60.7497 L 515.53,-60.8339
 L 515.567,-60.9129 L 515.617,-60.9843 L 515.679,-61.0459 L 515.75,-61.0959 L 515.829,-61.1327 L 515.913,-61.1553
 L 516,-61.1629 L 516.087,-61.1553 L 516.171,-61.1327 L 516.25,-61.0959 L 516.321,-61.0459 L 516.383,-60.9843
 L 516.433,-60.9129 L 516.47,-60.8339 L 516.492,-60.7497 L 516.5,-60.6629 L 516.5,-60.4029 L 516.492,-60.3161
 L 516.47,-60.2319 L 516.433,-60.1529 L 516.383,-60.0815 L 516.321,-60.0199 L 516.25,-59.9699 L 516.171,-59.933
 L 516.087,-59.9105 L 516,-59.9029 z
M 515.913,-52.9105 L 515.829,-52.933 L 515.75,-52.9699 L 515.679,-53.0199 L 515.617,-53.0815 L 515.567,-53.1529
 L 515.53,-53.2319 L 515.508,-53.3161 L 515.5,-53.4029 L 515.5,-53.6629 L 515.508,-53.7497 L 515.53,-53.8339
 L 515.567,-53.9129 L 515.617,-53.9843 L 515.679,-54.0459 L 515.75,-54.0959 L 515.829,-54.1327 L 515.913,-54.1553
 L 516,-54.1629 L 516.087,-54.1553 L 516.171,-54.1327 L 516.25,-54.0959 L 516.321,-54.0459 L 516.383,-53.9843
 L 516.433,-53.9129 L 516.47,-53.8339 L 516.492,-53.7497 L 516.5,-53.6629 L 516.5,-53.4029 L 516.492,-53.3161
 L 516.47,-53.2319 L 516.433,-53.1529 L 516.383,-53.0815 L 516.321,-53.0199 L 516.25,-52.9699 L 516.171,-52.933
 L 516.087,-52.9105 L 516,-52.9029 z
M 592.25,-18.2431 L 592.25,-37.7569 L 555.25,-56 L 555.25,-0 z
M 627.294,-16 L 627.294,-40 L 593.25,-56 L 593.25,-0 z
M 30.75,-26.625 L 30.875,-26.625 L 30.875,-26.5 L 31.125,-26.5 L 31.125,-26.625 L 34.375,-26.625
 L 34.375,-26.5 L 34.625,-26.5 L 34.625,-26.625 L 34.75,-26.625 L 34.75,-26 L 35.5,-26
 L 35.5,-32.2188 L 35.25,-32.2188 L 35.25,-32.125 L 34.625,-32.125 L 34.625,-32.375 L 34.7188,-32.375
 L 34.7188,-32.625 L 34.625,-32.625 L 34.625,-32.875 L 35.25,-32.875 L 35.25,-32.7812 L 35.5,-32.7812
 L 35.5,-38.2188 L 35.25,-38.2188 L 35.25,-38.125 L 34.625,-38.125 L 34.625,-38.375 L 34.7188,-38.375
 L 34.7188,-38.625 L 34.625,-38.625 L 34.625,-38.875 L 35.25,-38.875 L 35.25,-38.7812 L 35.5,-38.7812
 L 35.5,-44.2188 L 35.25,-44.2188 L 35.25,-44.125 L 34.625,-44.125 L 34.625,-44.375 L 34.7188,-44.375
 L 34.7188,-44.625 L 34.625,-44.625 L 34.625,-44.875 L 35.25,-44.875 L 35.25,-44.7812 L 35.5,-44.7812
 L 35.5,-51 L 34.75,-51 L 34.75,-50.375 L 34.625,-50.375 L 34.625,-50.5 L 34.375,-50.5
 L 34.375,-50.375 L 31.125,-50.375 L 31.125,-50.5 L 30.875,-50.5 L 30.875,-50.375 L 30.75,-50.375
 L 30.75,-51 L 30,-51 L 30,-26 L 30.75,-26 z
M 30.375,-44.125 L 30.375,-44.375 L 30.4688,-44.375 L 30.4688,-44.625 L 30.375,-44.625 L 30.375,-44.875
 L 30.75,-44.875 L 30.75,-44.7812 L 31,-44.7812 L 31,-44.875 L 31.375,-44.875 L 31.375,-44.625
 L 31.2812,-44.625 L 31.2812,-44.375 L 31.375,-44.375 L 31.375,-44.125 L 31,-44.125 L 31,-44.2188
 L 30.75,-44.2188 L 30.75,-44.125 z
M 30.375,-38.125 L 30.375,-38.375 L 30.4688,-38.375 L 30.4688,-38.625 L 30.375,-38.625 L 30.375,-38.875
 L 30.75,-38.875 L 30.75,-38.7812 L 31,-38.7812 L 31,-38.875 L 31.375,-38.875 L 31.375,-38.625
 L 31.2812,-38.625 L 31.2812,-38.375 L 31.375,-38.375 L 31.375,-38.125 L 31,-38.125 L 31,-38.2188
 L 30.75,-38.2188 L 30.75,-38.125 z
M 30.375,-32.125 L 30.375,-32.375 L 30.4688,-32.375 L 30.4688,-32.625 L 30.375,-32.625 L 30.375,-32.875
 L 30.75,-32.875 L 30.75,-32.7812 L 31,-32.7812 L 31,-32.875 L 31.375,-32.875 L 31.375,-32.625
 L 31.2812,-32.625 L 31.2812,-32.375 L 31.375,-32.375 L 31.375,-32.125 L 31,-32.125 L 31,-32.2188
 L 30.75,-32.2188 L 30.75,-32.125 z
M -1,-48 L -97,-48 L -97,-0.00999451 L -101,-0.00999451 L -101,-48 L -197,-48
 L -197,-0 L -1,-0 z
M 482,-16.6942 L 481.375,-16.6942 L 481.375,-16.8192 L 481.5,-16.8192 L 481.5,-45.9576 L 481.375,-45.9576
 L 481.375,-46.0826 L 482,-46.0826 L 482,-47.0826 L 478.5,-47.0826 L 478.5,-15.6942 L 482,-15.6942
 z
M 503,-4 L 502.375,-4 L 502.375,-5 L 502.5,-5 L 502.5,-6 L 502.375,-6
 L 502.375,-18.0942 L 502.5,-18.0942 L 502.5,-19.0942 L 502.375,-19.0942 L 502.375,-20.0942 L 503,-20.0942
 L 503,-22.0942 L 502.375,-22.0942 L 502.375,-23.0942 L 502.5,-23.0942 L 502.5,-24.0942 L 502.375,-24.0942
 L 502.375,-36.1884 L 502.5,-36.1884 L 502.5,-37.1884 L 502.375,-37.1884 L 502.375,-38.1884 L 503,-38.1884
 L 503,-42.1884 L 499.5,-42.1884 L 499.5,-0 L 503,-0 z
M 500.913,-39.696 L 500.829,-39.7186 L 500.75,-39.7554 L 500.679,-39.8054 L 500.617,-39.867 L 500.567,-39.9384
 L 500.53,-40.0174 L 500.508,-40.1016 L 500.5,-40.1884 L 500.508,-40.2752 L 500.53,-40.3594 L 500.567,-40.4384
 L 500.617,-40.5098 L 500.679,-40.5714 L 500.75,-40.6214 L 500.829,-40.6582 L 500.913,-40.6808 L 501,-40.6884
 L 501.087,-40.6808 L 501.171,-40.6582 L 501.25,-40.6214 L 501.321,-40.5714 L 501.383,-40.5098 L 501.433,-40.4384
 L 501.47,-40.3594 L 501.492,-40.2752 L 501.5,-40.1884 L 501.492,-40.1016 L 501.47,-40.0174 L 501.433,-39.9384
 L 501.383,-39.867 L 501.321,-39.8054 L 501.25,-39.7554 L 501.171,-39.7186 L 501.087,-39.696 L 501,-39.6884
 z
M 500.913,-1.50758 L 500.829,-1.53015 L 500.75,-1.56699 L 500.679,-1.61697 L 500.617,-1.6786 L 500.567,-1.75
 L 500.53,-1.82898 L 500.508,-1.91316 L 500.5,-2 L 500.508,-2.08682 L 500.53,-2.17101 L 500.567,-2.25
 L 500.617,-2.32138 L 500.679,-2.38301 L 500.75,-2.433 L 500.829,-2.46983 L 500.913,-2.4924 L 501,-2.5
 L 501.087,-2.4924 L 501.171,-2.46983 L 501.25,-2.433 L 501.321,-2.38301 L 501.383,-2.32138 L 501.433,-2.25
 L 501.47,-2.17101 L 501.492,-2.08682 L 501.5,-2 L 501.492,-1.91316 L 501.47,-1.82898 L 501.433,-1.75
 L 501.383,-1.6786 L 501.321,-1.61697 L 501.25,-1.56699 L 501.171,-1.53015 L 501.087,-1.50758 L 501,-1.5
 z
M 487.5,-21.9067 L 487.938,-21.9067 L 487.938,-22.0317 L 488.188,-22.0317 L 488.188,-21.7817 L 488.062,-21.7817
 L 488.062,-19.9067 L 488.188,-19.9067 L 488.188,-19.6567 L 487.938,-19.6567 L 487.938,-19.7817 L 487.5,-19.7817
 L 487.5,-3.75 L 488.125,-3.75 L 488.125,-3.625 L 488,-3.625 L 488,-2.625 L 488.125,-2.625
 L 488.125,-0.875 L 488,-0.875 L 488,-0.340897 L 493,-3.75 L 498.5,-3.75 L 498.5,-37.9384
 L 493,-37.9384 L 488,-41.3475 L 488,-40.8134 L 488.125,-40.8134 L 488.125,-39.0634 L 488,-39.0634
 L 488,-38.0634 L 488.125,-38.0634 L 488.125,-37.9384 L 487.5,-37.9384 z
M 496.413,-34.9435 L 496.328,-34.9662 L 496.249,-35.0032 L 496.177,-35.0535 L 496.115,-35.1154 L 496.065,-35.1871
 L 496.028,-35.2665 L 496.005,-35.3511 L 495.997,-35.4384 L 496.005,-35.5257 L 496.028,-35.6103 L 496.065,-35.6896
 L 496.115,-35.7614 L 496.177,-35.8233 L 496.249,-35.8736 L 496.328,-35.9106 L 496.413,-35.9333 L 496.5,-35.9409
 L 496.587,-35.9333 L 496.672,-35.9106 L 496.751,-35.8736 L 496.823,-35.8233 L 496.885,-35.7614 L 496.935,-35.6896
 L 496.972,-35.6103 L 496.995,-35.5257 L 497.002,-35.4384 L 496.995,-35.3511 L 496.972,-35.2665 L 496.935,-35.1871
 L 496.885,-35.1154 L 496.823,-35.0535 L 496.751,-35.0032 L 496.672,-34.9662 L 496.587,-34.9435 L 496.5,-34.9359
 z
M 492.413,-34.9435 L 492.328,-34.9662 L 492.249,-35.0032 L 492.177,-35.0535 L 492.115,-35.1154 L 492.065,-35.1871
 L 492.028,-35.2665 L 492.005,-35.3511 L 491.997,-35.4384 L 492.005,-35.5257 L 492.028,-35.6103 L 492.065,-35.6896
 L 492.115,-35.7614 L 492.177,-35.8233 L 492.249,-35.8736 L 492.328,-35.9106 L 492.413,-35.9333 L 492.5,-35.9409
 L 492.587,-35.9333 L 492.672,-35.9106 L 492.751,-35.8736 L 492.823,-35.8233 L 492.885,-35.7614 L 492.935,-35.6896
 L 492.972,-35.6103 L 492.995,-35.5257 L 493.002,-35.4384 L 492.995,-35.3511 L 492.972,-35.2665 L 492.935,-35.1871
 L 492.885,-35.1154 L 492.823,-35.0535 L 492.751,-35.0032 L 492.672,-34.9662 L 492.587,-34.9435 L 492.5,-34.9359
 z
M 489.413,-34.9435 L 489.328,-34.9662 L 489.249,-35.0032 L 489.177,-35.0535 L 489.115,-35.1154 L 489.065,-35.1871
 L 489.028,-35.2665 L 489.005,-35.3511 L 488.997,-35.4384 L 489.005,-35.5257 L 489.028,-35.6103 L 489.065,-35.6896
 L 489.115,-35.7614 L 489.177,-35.8233 L 489.249,-35.8736 L 489.328,-35.9106 L 489.413,-35.9333 L 489.5,-35.9409
 L 489.587,-35.9333 L 489.672,-35.9106 L 489.751,-35.8736 L 489.823,-35.8233 L 489.885,-35.7614 L 489.935,-35.6896
 L 489.972,-35.6103 L 489.995,-35.5257 L 490.002,-35.4384 L 489.995,-35.3511 L 489.972,-35.2665 L 489.935,-35.1871
 L 489.885,-35.1154 L 489.823,-35.0535 L 489.751,-35.0032 L 489.672,-34.9662 L 489.587,-34.9435 L 489.5,-34.9359
 z
M 490.562,-32.8129 L 490.562,-33.0629 L 490.688,-33.0629 L 490.688,-33.9379 L 490.562,-33.9379 L 490.562,-34.1879
 L 490.812,-34.1879 L 490.812,-34.0629 L 491.188,-34.0629 L 491.188,-34.1879 L 491.438,-34.1879 L 491.438,-33.9379
 L 491.312,-33.9379 L 491.312,-33.0629 L 491.438,-33.0629 L 491.438,-32.8129 L 491.188,-32.8129 L 491.188,-32.9379
 L 490.812,-32.9379 L 490.812,-32.8129 z
M 490.562,-7.50044 L 490.562,-7.75044 L 490.688,-7.75044 L 490.688,-8.62544 L 490.562,-8.62544 L 490.562,-8.87544
 L 490.812,-8.87544 L 490.812,-8.75044 L 491.188,-8.75044 L 491.188,-8.87544 L 491.438,-8.87544 L 491.438,-8.62544
 L 491.312,-8.62544 L 491.312,-7.75044 L 491.438,-7.75044 L 491.438,-7.50044 L 491.188,-7.50044 L 491.188,-7.62544
 L 490.812,-7.62544 L 490.812,-7.50044 z
M 489.413,-5.75513 L 489.328,-5.7778 L 489.249,-5.81482 L 489.177,-5.86505 L 489.115,-5.92699 L 489.065,-5.99875
 L 489.028,-6.07812 L 489.005,-6.16273 L 488.997,-6.25 L 489.005,-6.33725 L 489.028,-6.42186 L 489.065,-6.50124
 L 489.115,-6.573 L 489.177,-6.63493 L 489.249,-6.68517 L 489.328,-6.72218 L 489.413,-6.74486 L 489.5,-6.75249
 L 489.587,-6.74486 L 489.672,-6.72218 L 489.751,-6.68517 L 489.823,-6.63493 L 489.885,-6.573 L 489.935,-6.50124
 L 489.972,-6.42186 L 489.995,-6.33725 L 490.002,-6.25 L 489.995,-6.16273 L 489.972,-6.07812 L 489.935,-5.99875
 L 489.885,-5.92699 L 489.823,-5.86505 L 489.751,-5.81482 L 489.672,-5.7778 L 489.587,-5.75513 L 489.5,-5.7475
 z
M 496.413,-5.75513 L 496.328,-5.7778 L 496.249,-5.81482 L 496.177,-5.86505 L 496.115,-5.92699 L 496.065,-5.99875
 L 496.028,-6.07812 L 496.005,-6.16273 L 495.997,-6.25 L 496.005,-6.33725 L 496.028,-6.42186 L 496.065,-6.50124
 L 496.115,-6.573 L 496.177,-6.63493 L 496.249,-6.68517 L 496.328,-6.72218 L 496.413,-6.74486 L 496.5,-6.75249
 L 496.587,-6.74486 L 496.672,-6.72218 L 496.751,-6.68517 L 496.823,-6.63493 L 496.885,-6.573 L 496.935,-6.50124
 L 496.972,-6.42186 L 496.995,-6.33725 L 497.002,-6.25 L 496.995,-6.16273 L 496.972,-6.07812 L 496.935,-5.99875
 L 496.885,-5.92699 L 496.823,-5.86505 L 496.751,-5.81482 L 496.672,-5.7778 L 496.587,-5.75513 L 496.5,-5.7475
 z
M 492.413,-5.75513 L 492.328,-5.7778 L 492.249,-5.81482 L 492.177,-5.86505 L 492.115,-5.92699 L 492.065,-5.99875
 L 492.028,-6.07812 L 492.005,-6.16273 L 491.997,-6.25 L 492.005,-6.33725 L 492.028,-6.42186 L 492.065,-6.50124
 L 492.115,-6.573 L 492.177,-6.63493 L 492.249,-6.68517 L 492.328,-6.72218 L 492.413,-6.74486 L 492.5,-6.75249
 L 492.587,-6.74486 L 492.672,-6.72218 L 492.751,-6.68517 L 492.823,-6.63493 L 492.885,-6.573 L 492.935,-6.50124
 L 492.972,-6.42186 L 492.995,-6.33725 L 493.002,-6.25 L 492.995,-6.16273 L 492.972,-6.07812 L 492.935,-5.99875
 L 492.885,-5.92699 L 492.823,-5.86505 L 492.751,-5.81482 L 492.672,-5.7778 L 492.587,-5.75513 L 492.5,-5.7475
 z
M 629.544,-1.5 L 629.551,-1.58682 L 629.574,-1.67101 L 629.611,-1.75 L 629.661,-1.82138 L 629.722,-1.88301
 L 629.794,-1.933 L 629.873,-1.96983 L 629.957,-1.9924 L 630.044,-2 L 630.131,-1.9924 L 630.215,-1.96983
 L 630.294,-1.933 L 630.365,-1.88301 L 630.427,-1.82138 L 630.477,-1.75 L 630.514,-1.67101 L 630.536,-1.58682
 L 630.544,-1.5 L 630.544,-0 L 642.044,-0 L 642.044,-1.5 L 642.051,-1.58682 L 642.074,-1.67101
 L 642.111,-1.75 L 642.161,-1.82138 L 642.222,-1.88301 L 642.294,-1.933 L 642.373,-1.96983 L 642.457,-1.9924
 L 642.544,-2 L 642.631,-1.9924 L 642.715,-1.96983 L 642.794,-1.933 L 642.865,-1.88301 L 642.927,-1.82138
 L 642.977,-1.75 L 643.014,-1.67101 L 643.036,-1.58682 L 643.044,-1.5 L 643.044,-0 L 644.294,-0
 L 644.294,-41.1884 L 643.044,-41.1884 L 643.044,-39.6884 L 643.036,-39.6016 L 643.014,-39.5174 L 642.977,-39.4384
 L 642.927,-39.367 L 642.865,-39.3054 L 642.794,-39.2554 L 642.715,-39.2186 L 642.631,-39.196 L 642.544,-39.1884
 L 642.457,-39.196 L 642.373,-39.2186 L 642.294,-39.2554 L 642.222,-39.3054 L 642.161,-39.367 L 642.111,-39.4384
 L 642.074,-39.5174 L 642.051,-39.6016 L 642.044,-39.6884 L 642.044,-41.1884 L 630.544,-41.1884 L 630.544,-39.6884
 L 630.536,-39.6016 L 630.514,-39.5174 L 630.477,-39.4384 L 630.427,-39.367 L 630.365,-39.3054 L 630.294,-39.2554
 L 630.215,-39.2186 L 630.131,-39.196 L 630.044,-39.1884 L 629.957,-39.196 L 629.873,-39.2186 L 629.794,-39.2554
 L 629.722,-39.3054 L 629.661,-39.367 L 629.611,-39.4384 L 629.574,-39.5174 L 629.551,-39.6016 L 629.544,-39.6884
 L 629.544,-41.1884 L 628.294,-41.1884 L 628.294,-0 L 629.544,-0 z
M 646.794,-1.5 L 646.801,-1.58682 L 646.824,-1.67101 L 646.861,-1.75 L 646.911,-1.82138 L 646.972,-1.88301
 L 647.044,-1.933 L 647.123,-1.96983 L 647.207,-1.9924 L 647.294,-2 L 647.381,-1.9924 L 647.465,-1.96983
 L 647.544,-1.933 L 647.615,-1.88301 L 647.677,-1.82138 L 647.727,-1.75 L 647.764,-1.67101 L 647.786,-1.58682
 L 647.794,-1.5 L 647.794,-0 L 649.794,-0 L 649.794,-1.5 L 649.801,-1.58682 L 649.824,-1.67101
 L 649.861,-1.75 L 649.911,-1.82138 L 649.972,-1.88301 L 650.044,-1.933 L 650.123,-1.96983 L 650.207,-1.9924
 L 650.294,-2 L 650.381,-1.9924 L 650.465,-1.96983 L 650.544,-1.933 L 650.615,-1.88301 L 650.677,-1.82138
 L 650.727,-1.75 L 650.764,-1.67101 L 650.786,-1.58682 L 650.794,-1.5 L 650.794,-0 L 657.294,-0
 L 657.294,-1.5 L 657.301,-1.58682 L 657.324,-1.67101 L 657.361,-1.75 L 657.411,-1.82138 L 657.472,-1.88301
 L 657.544,-1.933 L 657.623,-1.96983 L 657.707,-1.9924 L 657.794,-2 L 657.881,-1.9924 L 657.965,-1.96983
 L 658.044,-1.933 L 658.115,-1.88301 L 658.177,-1.82138 L 658.227,-1.75 L 658.264,-1.67101 L 658.286,-1.58682
 L 658.294,-1.5 L 658.294,-0 L 659.794,-0 L 659.794,-41.1884 L 658.294,-41.1884 L 658.294,-39.6884
 L 658.286,-39.6016 L 658.264,-39.5174 L 658.227,-39.4384 L 658.177,-39.367 L 658.115,-39.3054 L 658.044,-39.2554
 L 657.965,-39.2186 L 657.881,-39.196 L 657.794,-39.1884 L 657.707,-39.196 L 657.623,-39.2186 L 657.544,-39.2554
 L 657.472,-39.3054 L 657.411,-39.367 L 657.361,-39.4384 L 657.324,-39.5174 L 657.301,-39.6016 L 657.294,-39.6884
 L 657.294,-41.1884 L 647.794,-41.1884 L 647.794,-39.6884 L 647.786,-39.6016 L 647.764,-39.5174 L 647.727,-39.4384
 L 647.677,-39.367 L 647.615,-39.3054 L 647.544,-39.2554 L 647.465,-39.2186 L 647.381,-39.196 L 647.294,-39.1884
 L 647.207,-39.196 L 647.123,-39.2186 L 647.044,-39.2554 L 646.972,-39.3054 L 646.911,-39.367 L 646.861,-39.4384
 L 646.824,-39.5174 L 646.801,-39.6016 L 646.794,-39.6884 L 646.794,-41.1884 L 645.294,-41.1884 L 645.294,-0
 L 646.794,-0 z
M 554.25,-14.1562 L 553.625,-14.1562 L 553.625,-14.2812 L 553.75,-14.2812 L 553.75,-38.3438 L 553.625,-38.3438
 L 553.625,-38.4688 L 554.25,-38.4688 L 554.25,-39.4688 L 550.75,-39.4688 L 550.75,-13.1562 L 554.25,-13.1562
 z
M 28.4688,-20.1562 L 28.3438,-20.1562 L 28.3438,-20.4062 L 28.5938,-20.4062 L 28.5938,-20.2812 L 29,-20.2812
 L 29,-23.7188 L 28.5938,-23.7188 L 28.5938,-23.5938 L 28.3438,-23.5938 L 28.3438,-23.8438 L 28.4688,-23.8438
 L 28.4688,-24.4688 L 28.0938,-24.4688 L 28.0938,-24.3438 L 27.8438,-24.3438 L 27.8438,-24.5938 L 27.9688,-24.5938
 L 27.9688,-24.9062 L 27.8438,-24.9062 L 27.8438,-25.1562 L 28.4688,-25.1562 L 28.4688,-25.0312 L 29,-25.0312
 L 29,-30.9688 L 28.5938,-30.9688 L 28.5938,-30.8438 L 28.0938,-30.8438 L 28.0938,-31.0938 L 28.2188,-31.0938
 L 28.2188,-31.4062 L 28.0938,-31.4062 L 28.0938,-31.6562 L 28.3438,-31.6562 L 28.3438,-31.5312 L 28.4688,-31.5312
 L 28.4688,-31.9062 L 28.3438,-31.9062 L 28.3438,-32.1562 L 28.7188,-32.1562 L 28.7188,-32.0312 L 29,-32.0312
 L 29,-36.9688 L 28.5938,-36.9688 L 28.5938,-36.8438 L 28.3438,-36.8438 L 28.3438,-37.0938 L 28.4688,-37.0938
 L 28.4688,-37.4688 L 28.3438,-37.4688 L 28.3438,-37.3438 L 28.0938,-37.3438 L 28.0938,-37.5938 L 28.2188,-37.5938
 L 28.2188,-38 L 24.2812,-38 L 24.2812,-37.5938 L 24.4062,-37.5938 L 24.4062,-37.3438 L 23.9062,-37.3438
 L 23.9062,-37.4688 L 23,-37.4688 L 23,-32.5312 L 23.4062,-32.5312 L 23.4062,-32.6562 L 23.6562,-32.6562
 L 23.6562,-32.0312 L 23.5312,-32.0312 L 23.5312,-31.5312 L 24.0312,-31.5312 L 24.0312,-31.6562 L 24.4062,-31.6562
 L 24.4062,-31.4062 L 24.2812,-31.4062 L 24.2812,-31.0938 L 24.4062,-31.0938 L 24.4062,-30.8438 L 24.0312,-30.8438
 L 24.0312,-30.9688 L 23,-30.9688 L 23,-25.0312 L 23.4062,-25.0312 L 23.4062,-25.1562 L 23.6562,-25.1562
 L 23.6562,-24.9062 L 23.5312,-24.9062 L 23.5312,-24.5938 L 23.6562,-24.5938 L 23.6562,-24.3438 L 23.4062,-24.3438
 L 23.4062,-24.4688 L 23,-24.4688 L 23,-21.5312 L 23.4062,-21.5312 L 23.4062,-21.6562 L 23.6562,-21.6562
 L 23.6562,-21.4062 L 23.5312,-21.4062 L 23.5312,-19.5 L 28.4688,-19.5 z
M 26.4895,-21.5228 L 26.237,-21.5905 L 26,-21.701 L 25.7858,-21.8509 L 25.6009,-22.0358 L 25.451,-22.25
 L 25.3405,-22.487 L 25.2728,-22.7395 L 25.25,-23 L 25.2728,-23.2605 L 25.3405,-23.513 L 25.451,-23.75
 L 25.6009,-23.9642 L 25.7858,-24.1491 L 26,-24.299 L 26.237,-24.4095 L 26.4895,-24.4772 L 26.75,-24.5
 L 27.0105,-24.4772 L 27.263,-24.4095 L 27.5,-24.299 L 27.7142,-24.1491 L 27.8991,-23.9642 L 28.049,-23.75
 L 28.1595,-23.513 L 28.2272,-23.2605 L 28.25,-23 L 28.2272,-22.7395 L 28.1595,-22.487 L 28.049,-22.25
 L 27.8991,-22.0358 L 27.7142,-21.8509 L 27.5,-21.701 L 27.263,-21.5905 L 27.0105,-21.5228 L 26.75,-21.5
 z
M 75.5,-37 L 72.5,-37 L 72.5,-19 L 75.5,-19 z
M 73.83,-35.4769 L 73.6767,-35.555 L 73.555,-35.6767 L 73.4769,-35.83 L 73.45,-36 L 73.4769,-36.17
 L 73.555,-36.3233 L 73.6767,-36.4449 L 73.83,-36.5231 L 74,-36.55 L 74.17,-36.5231 L 74.3233,-36.4449
 L 74.4449,-36.3233 L 74.5231,-36.17 L 74.55,-36 L 74.5231,-35.83 L 74.4449,-35.6767 L 74.3233,-35.555
 L 74.17,-35.4769 L 74,-35.45 z
M 73.83,-32.4769 L 73.6767,-32.555 L 73.555,-32.6767 L 73.4769,-32.83 L 73.45,-33 L 73.4769,-33.17
 L 73.555,-33.3233 L 73.6767,-33.4449 L 73.83,-33.5231 L 74,-33.55 L 74.17,-33.5231 L 74.3233,-33.4449
 L 74.4449,-33.3233 L 74.5231,-33.17 L 74.55,-33 L 74.5231,-32.83 L 74.4449,-32.6767 L 74.3233,-32.555
 L 74.17,-32.4769 L 74,-32.45 z
M 73.83,-27.4769 L 73.6767,-27.555 L 73.555,-27.6767 L 73.4769,-27.83 L 73.45,-28 L 73.4769,-28.17
 L 73.555,-28.3233 L 73.6767,-28.4449 L 73.83,-28.5231 L 74,-28.55 L 74.17,-28.5231 L 74.3233,-28.4449
 L 74.4449,-28.3233 L 74.5231,-28.17 L 74.55,-28 L 74.5231,-27.83 L 74.4449,-27.6767 L 74.3233,-27.555
 L 74.17,-27.4769 L 74,-27.45 z
M 73.83,-22.4769 L 73.6767,-22.555 L 73.555,-22.6767 L 73.4769,-22.83 L 73.45,-23 L 73.4769,-23.17
 L 73.555,-23.3233 L 73.6767,-23.4449 L 73.83,-23.5231 L 74,-23.55 L 74.17,-23.5231 L 74.3233,-23.4449
 L 74.4449,-23.3233 L 74.5231,-23.17 L 74.55,-23 L 74.5231,-22.83 L 74.4449,-22.6767 L 74.3233,-22.555
 L 74.17,-22.4769 L 74,-22.45 z
M 73.83,-19.4769 L 73.6767,-19.555 L 73.555,-19.6767 L 73.4769,-19.83 L 73.45,-20 L 73.4769,-20.17
 L 73.555,-20.3233 L 73.6767,-20.4449 L 73.83,-20.5231 L 74,-20.55 L 74.17,-20.5231 L 74.3233,-20.4449
 L 74.4449,-20.3233 L 74.5231,-20.17 L 74.55,-20 L 74.5231,-19.83 L 74.4449,-19.6767 L 74.3233,-19.555
 L 74.17,-19.4769 L 74,-19.45 z
M 512,-34.1884 L 504,-34.1884 L 504,-32.8509 L 504.438,-32.8509 L 504.438,-32.9759 L 504.688,-32.9759
 L 504.688,-32.7259 L 504.562,-32.7259 L 504.562,-31.8509 L 504.688,-31.8509 L 504.688,-31.6009 L 504.438,-31.6009
 L 504.438,-31.7259 L 504,-31.7259 L 504,-2.46249 L 504.438,-2.46249 L 504.438,-2.58749 L 504.688,-2.58749
 L 504.688,-2.33749 L 504.562,-2.33749 L 504.562,-1.46249 L 504.688,-1.46249 L 504.688,-1.21249 L 504.438,-1.21249
 L 504.438,-1.33749 L 504,-1.33749 L 504,-0 L 512,-0 z
M 509.934,-31.3142 L 509.87,-31.3313 L 509.81,-31.3593 L 509.756,-31.3973 L 509.709,-31.4441 L 509.671,-31.4984
 L 509.643,-31.5584 L 509.626,-31.6224 L 509.62,-31.6884 L 509.626,-31.7544 L 509.643,-31.8184 L 509.671,-31.8784
 L 509.709,-31.9326 L 509.756,-31.9795 L 509.81,-32.0175 L 509.87,-32.0455 L 509.934,-32.0626 L 510,-32.0684
 L 510.066,-32.0626 L 510.13,-32.0455 L 510.19,-32.0175 L 510.244,-31.9795 L 510.291,-31.9326 L 510.329,-31.8784
 L 510.357,-31.8184 L 510.374,-31.7544 L 510.38,-31.6884 L 510.374,-31.6224 L 510.357,-31.5584 L 510.329,-31.4984
 L 510.291,-31.4441 L 510.244,-31.3973 L 510.19,-31.3593 L 510.13,-31.3313 L 510.066,-31.3142 L 510,-31.3084
 z
M 505.934,-31.3142 L 505.87,-31.3313 L 505.81,-31.3593 L 505.756,-31.3973 L 505.709,-31.4441 L 505.671,-31.4984
 L 505.643,-31.5584 L 505.626,-31.6224 L 505.62,-31.6884 L 505.626,-31.7544 L 505.643,-31.8184 L 505.671,-31.8784
 L 505.709,-31.9326 L 505.756,-31.9795 L 505.81,-32.0175 L 505.87,-32.0455 L 505.934,-32.0626 L 506,-32.0684
 L 506.066,-32.0626 L 506.13,-32.0455 L 506.19,-32.0175 L 506.244,-31.9795 L 506.291,-31.9326 L 506.329,-31.8784
 L 506.357,-31.8184 L 506.374,-31.7544 L 506.38,-31.6884 L 506.374,-31.6224 L 506.357,-31.5584 L 506.329,-31.4984
 L 506.291,-31.4441 L 506.244,-31.3973 L 506.19,-31.3593 L 506.13,-31.3313 L 506.066,-31.3142 L 506,-31.3084
 z
M 505.585,-15.8016 L 505.364,-15.8608 L 505.156,-15.9575 L 504.969,-16.0888 L 504.807,-16.2505 L 504.676,-16.4379
 L 504.579,-16.6453 L 504.52,-16.8663 L 504.5,-17.0942 L 504.52,-17.3221 L 504.579,-17.5431 L 504.676,-17.7504
 L 504.807,-17.9379 L 504.969,-18.0996 L 505.156,-18.2309 L 505.364,-18.3275 L 505.585,-18.3867 L 505.812,-18.4067
 L 506.04,-18.3867 L 506.261,-18.3275 L 506.469,-18.2309 L 506.656,-18.0996 L 506.818,-17.9379 L 506.949,-17.7504
 L 507.046,-17.5431 L 507.105,-17.3221 L 507.125,-17.0942 L 507.105,-16.8663 L 507.046,-16.6453 L 506.949,-16.4379
 L 506.818,-16.2505 L 506.656,-16.0888 L 506.469,-15.9575 L 506.261,-15.8608 L 506.04,-15.8016 L 505.812,-15.7817
 z
M 509.934,-2.12576 L 509.87,-2.14291 L 509.81,-2.1709 L 509.756,-2.20889 L 509.709,-2.25574 L 509.671,-2.31
 L 509.643,-2.37003 L 509.626,-2.43401 L 509.62,-2.5 L 509.626,-2.56598 L 509.643,-2.62996 L 509.671,-2.68999
 L 509.709,-2.74425 L 509.756,-2.79109 L 509.81,-2.82909 L 509.87,-2.85707 L 509.934,-2.87422 L 510,-2.87999
 L 510.066,-2.87422 L 510.13,-2.85707 L 510.19,-2.82909 L 510.244,-2.79109 L 510.291,-2.74425 L 510.329,-2.68999
 L 510.357,-2.62996 L 510.374,-2.56598 L 510.38,-2.5 L 510.374,-2.43401 L 510.357,-2.37003 L 510.329,-2.31
 L 510.291,-2.25574 L 510.244,-2.20889 L 510.19,-2.1709 L 510.13,-2.14291 L 510.066,-2.12576 L 510,-2.12
 z
M 505.934,-2.12576 L 505.87,-2.14291 L 505.81,-2.1709 L 505.756,-2.20889 L 505.709,-2.25574 L 505.671,-2.31
 L 505.643,-2.37003 L 505.626,-2.43401 L 505.62,-2.5 L 505.626,-2.56598 L 505.643,-2.62996 L 505.671,-2.68999
 L 505.709,-2.74425 L 505.756,-2.79109 L 505.81,-2.82909 L 505.87,-2.85707 L 505.934,-2.87422 L 506,-2.87999
 L 506.066,-2.87422 L 506.13,-2.85707 L 506.19,-2.82909 L 506.244,-2.79109 L 506.291,-2.74425 L 506.329,-2.68999
 L 506.357,-2.62996 L 506.374,-2.56598 L 506.38,-2.5 L 506.374,-2.43401 L 506.357,-2.37003 L 506.329,-2.31
 L 506.291,-2.25574 L 506.244,-2.20889 L 506.19,-2.1709 L 506.13,-2.14291 L 506.066,-2.12576 L 506,-2.12
 z
M 476.938,-0.9375 L 476.812,-0.9375 L 476.812,-1.1875 L 477.062,-1.1875 L 477.062,-1.0625 L 477.5,-1.0625
 L 477.5,-16.0317 L 477.062,-16.0317 L 477.062,-15.9067 L 476.812,-15.9067 L 476.812,-16.1567 L 476.938,-16.1567
 L 476.938,-18.0317 L 476.812,-18.0317 L 476.812,-18.2817 L 477.062,-18.2817 L 477.062,-18.1567 L 477.5,-18.1567
 L 477.5,-33.1259 L 477.062,-33.1259 L 477.062,-33.0009 L 476.812,-33.0009 L 476.812,-33.2509 L 476.938,-33.2509
 L 476.938,-34.1884 L 471.75,-34.1884 L 471.75,-33.7884 L 471.5,-33.7884 L 471.5,-32.8509 L 471.938,-32.8509
 L 471.938,-32.9759 L 472.188,-32.9759 L 472.188,-32.7259 L 472.062,-32.7259 L 472.062,-31.8509 L 472.188,-31.8509
 L 472.188,-31.6009 L 471.938,-31.6009 L 471.938,-31.7259 L 471.5,-31.7259 L 471.5,-2.46249 L 471.938,-2.46249
 L 471.938,-2.58749 L 472.188,-2.58749 L 472.188,-2.33749 L 472.062,-2.33749 L 472.062,-1.46249 L 472.188,-1.46249
 L 472.188,-1.21249 L 471.938,-1.21249 L 471.938,-1.33749 L 471.5,-1.33749 L 471.5,-0.399994 L 471.75,-0.399994
 L 471.75,-0 L 476.938,-0 z
M 472.935,-31.3191 L 472.872,-31.336 L 472.812,-31.3636 L 472.759,-31.4011 L 472.713,-31.4473 L 472.675,-31.5009
 L 472.648,-31.5601 L 472.631,-31.6233 L 472.625,-31.6884 L 472.631,-31.7535 L 472.648,-31.8167 L 472.675,-31.8759
 L 472.713,-31.9294 L 472.759,-31.9757 L 472.812,-32.0132 L 472.872,-32.0408 L 472.935,-32.0577 L 473,-32.0634
 L 473.065,-32.0577 L 473.128,-32.0408 L 473.188,-32.0132 L 473.241,-31.9757 L 473.287,-31.9294 L 473.325,-31.8759
 L 473.352,-31.8167 L 473.369,-31.7535 L 473.375,-31.6884 L 473.369,-31.6233 L 473.352,-31.5601 L 473.325,-31.5009
 L 473.287,-31.4473 L 473.241,-31.4011 L 473.188,-31.3636 L 473.128,-31.336 L 473.065,-31.3191 L 473,-31.3134
 z
M 475.935,-31.3191 L 475.872,-31.336 L 475.812,-31.3636 L 475.759,-31.4011 L 475.713,-31.4473 L 475.675,-31.5009
 L 475.648,-31.5601 L 475.631,-31.6233 L 475.625,-31.6884 L 475.631,-31.7535 L 475.648,-31.8167 L 475.675,-31.8759
 L 475.713,-31.9294 L 475.759,-31.9757 L 475.812,-32.0132 L 475.872,-32.0408 L 475.935,-32.0577 L 476,-32.0634
 L 476.065,-32.0577 L 476.128,-32.0408 L 476.188,-32.0132 L 476.241,-31.9757 L 476.287,-31.9294 L 476.325,-31.8759
 L 476.352,-31.8167 L 476.369,-31.7535 L 476.375,-31.6884 L 476.369,-31.6233 L 476.352,-31.5601 L 476.325,-31.5009
 L 476.287,-31.4473 L 476.241,-31.4011 L 476.188,-31.3636 L 476.128,-31.336 L 476.065,-31.3191 L 476,-31.3134
 z
M 472.996,-27.9975 L 472.895,-28.0246 L 472.8,-28.0688 L 472.714,-28.1288 L 472.64,-28.2027 L 472.58,-28.2884
 L 472.536,-28.3832 L 472.509,-28.4842 L 472.5,-28.5884 L 472.509,-28.6926 L 472.536,-28.7936 L 472.58,-28.8884
 L 472.64,-28.9741 L 472.714,-29.048 L 472.8,-29.108 L 472.895,-29.1522 L 472.996,-29.1793 L 473.1,-29.1884
 L 473.204,-29.1793 L 473.305,-29.1522 L 473.4,-29.108 L 473.486,-29.048 L 473.56,-28.9741 L 473.62,-28.8884
 L 473.664,-28.7936 L 473.691,-28.6926 L 473.7,-28.5884 L 473.691,-28.4842 L 473.664,-28.3832 L 473.62,-28.2884
 L 473.56,-28.2027 L 473.486,-28.1288 L 473.4,-28.0688 L 473.305,-28.0246 L 473.204,-27.9975 L 473.1,-27.9884
 z
M 472.996,-5.00911 L 472.895,-5.03618 L 472.8,-5.08038 L 472.714,-5.14037 L 472.64,-5.21432 L 472.58,-5.29999
 L 472.536,-5.39478 L 472.509,-5.4958 L 472.5,-5.59999 L 472.509,-5.70418 L 472.536,-5.80521 L 472.58,-5.89999
 L 472.64,-5.98567 L 472.714,-6.05962 L 472.8,-6.11961 L 472.895,-6.1638 L 472.996,-6.19087 L 473.1,-6.2
 L 473.204,-6.19087 L 473.305,-6.1638 L 473.4,-6.11961 L 473.486,-6.05962 L 473.56,-5.98567 L 473.62,-5.89999
 L 473.664,-5.80521 L 473.691,-5.70418 L 473.7,-5.59999 L 473.691,-5.4958 L 473.664,-5.39478 L 473.62,-5.29999
 L 473.56,-5.21432 L 473.486,-5.14037 L 473.4,-5.08038 L 473.305,-5.03618 L 473.204,-5.00911 L 473.1,-5
 z
M 472.935,-2.13069 L 472.872,-2.14761 L 472.812,-2.17523 L 472.759,-2.21272 L 472.713,-2.25894 L 472.675,-2.3125
 L 472.648,-2.37173 L 472.631,-2.43488 L 472.625,-2.5 L 472.631,-2.56511 L 472.648,-2.62825 L 472.675,-2.6875
 L 472.713,-2.74104 L 472.759,-2.78726 L 472.812,-2.82475 L 472.872,-2.85237 L 472.935,-2.86929 L 473,-2.875
 L 473.065,-2.86929 L 473.128,-2.85237 L 473.188,-2.82475 L 473.241,-2.78726 L 473.287,-2.74104 L 473.325,-2.6875
 L 473.352,-2.62825 L 473.369,-2.56511 L 473.375,-2.5 L 473.369,-2.43488 L 473.352,-2.37173 L 473.325,-2.3125
 L 473.287,-2.25894 L 473.241,-2.21272 L 473.188,-2.17523 L 473.128,-2.14761 L 473.065,-2.13069 L 473,-2.125
 z
M 475.935,-2.13069 L 475.872,-2.14761 L 475.812,-2.17523 L 475.759,-2.21272 L 475.713,-2.25894 L 475.675,-2.3125
 L 475.648,-2.37173 L 475.631,-2.43488 L 475.625,-2.5 L 475.631,-2.56511 L 475.648,-2.62825 L 475.675,-2.6875
 L 475.713,-2.74104 L 475.759,-2.78726 L 475.812,-2.82475 L 475.872,-2.85237 L 475.935,-2.86929 L 476,-2.875
 L 476.065,-2.86929 L 476.128,-2.85237 L 476.188,-2.82475 L 476.241,-2.78726 L 476.287,-2.74104 L 476.325,-2.6875
 L 476.352,-2.62825 L 476.369,-2.56511 L 476.375,-2.5 L 476.369,-2.43488 L 476.352,-2.37173 L 476.325,-2.3125
 L 476.287,-2.25894 L 476.241,-2.21272 L 476.188,-2.17523 L 476.128,-2.14761 L 476.065,-2.13069 L 476,-2.125
 z
M 486.5,-1 L 485.875,-1 L 485.875,-2 L 486,-2 L 486,-3 L 485.875,-3
 L 485.875,-14.0942 L 486,-14.0942 L 486,-15.0942 L 485.875,-15.0942 L 485.875,-16.0942 L 486.5,-16.0942
 L 486.5,-18.0942 L 485.875,-18.0942 L 485.875,-19.0942 L 486,-19.0942 L 486,-20.0942 L 485.875,-20.0942
 L 485.875,-31.1884 L 486,-31.1884 L 486,-32.1884 L 485.875,-32.1884 L 485.875,-33.1884 L 486.5,-33.1884
 L 486.5,-34.1884 L 483,-34.1884 L 483,-0 L 486.5,-0 z
M 484.663,-28.321 L 484.579,-28.3436 L 484.5,-28.3804 L 484.429,-28.4304 L 484.367,-28.492 L 484.317,-28.5634
 L 484.28,-28.6424 L 484.258,-28.7266 L 484.25,-28.8134 L 484.258,-28.9002 L 484.28,-28.9844 L 484.317,-29.0634
 L 484.367,-29.1348 L 484.429,-29.1964 L 484.5,-29.2464 L 484.579,-29.2832 L 484.663,-29.3058 L 484.75,-29.3134
 L 484.837,-29.3058 L 484.921,-29.2832 L 485,-29.2464 L 485.071,-29.1964 L 485.133,-29.1348 L 485.183,-29.0634
 L 485.22,-28.9844 L 485.242,-28.9002 L 485.25,-28.8134 L 485.242,-28.7266 L 485.22,-28.6424 L 485.183,-28.5634
 L 485.133,-28.492 L 485.071,-28.4304 L 485,-28.3804 L 484.921,-28.3436 L 484.837,-28.321 L 484.75,-28.3134
 z
M 484.663,-4.88258 L 484.579,-4.90515 L 484.5,-4.94199 L 484.429,-4.99197 L 484.367,-5.0536 L 484.317,-5.125
 L 484.28,-5.20398 L 484.258,-5.28816 L 484.25,-5.375 L 484.258,-5.46182 L 484.28,-5.54601 L 484.317,-5.625
 L 484.367,-5.69638 L 484.429,-5.75801 L 484.5,-5.808 L 484.579,-5.84483 L 484.663,-5.8674 L 484.75,-5.875
 L 484.837,-5.8674 L 484.921,-5.84483 L 485,-5.808 L 485.071,-5.75801 L 485.133,-5.69638 L 485.183,-5.625
 L 485.22,-5.54601 L 485.242,-5.46182 L 485.25,-5.375 L 485.242,-5.28816 L 485.22,-5.20398 L 485.183,-5.125
 L 485.133,-5.0536 L 485.071,-4.99197 L 485,-4.94199 L 484.921,-4.90515 L 484.837,-4.88258 L 484.75,-4.875
 z
M 540.75,-34.1884 L 527.75,-34.1884 L 527.75,-0 L 540.75,-0 z
M 531,-4.34419 L 531,-29.8442 L 537.5,-29.8442 L 537.5,-4.34419 z
M 529.413,-28.321 L 529.329,-28.3436 L 529.25,-28.3804 L 529.179,-28.4304 L 529.117,-28.492 L 529.067,-28.5634
 L 529.03,-28.6424 L 529.008,-28.7266 L 529,-28.8134 L 529.008,-28.9002 L 529.03,-28.9844 L 529.067,-29.0634
 L 529.117,-29.1348 L 529.179,-29.1964 L 529.25,-29.2464 L 529.329,-29.2832 L 529.413,-29.3058 L 529.5,-29.3134
 L 529.587,-29.3058 L 529.671,-29.2832 L 529.75,-29.2464 L 529.821,-29.1964 L 529.883,-29.1348 L 529.933,-29.0634
 L 529.97,-28.9844 L 529.992,-28.9002 L 530,-28.8134 L 529.992,-28.7266 L 529.97,-28.6424 L 529.933,-28.5634
 L 529.883,-28.492 L 529.821,-28.4304 L 529.75,-28.3804 L 529.671,-28.3436 L 529.587,-28.321 L 529.5,-28.3134
 z
M 538.913,-28.321 L 538.829,-28.3436 L 538.75,-28.3804 L 538.679,-28.4304 L 538.617,-28.492 L 538.567,-28.5634
 L 538.53,-28.6424 L 538.508,-28.7266 L 538.5,-28.8134 L 538.508,-28.9002 L 538.53,-28.9844 L 538.567,-29.0634
 L 538.617,-29.1348 L 538.679,-29.1964 L 538.75,-29.2464 L 538.829,-29.2832 L 538.913,-29.3058 L 539,-29.3134
 L 539.087,-29.3058 L 539.171,-29.2832 L 539.25,-29.2464 L 539.321,-29.1964 L 539.383,-29.1348 L 539.433,-29.0634
 L 539.47,-28.9844 L 539.492,-28.9002 L 539.5,-28.8134 L 539.492,-28.7266 L 539.47,-28.6424 L 539.433,-28.5634
 L 539.383,-28.492 L 539.321,-28.4304 L 539.25,-28.3804 L 539.171,-28.3436 L 539.087,-28.321 L 539,-28.3134
 z
M 529.413,-4.88258 L 529.329,-4.90515 L 529.25,-4.94199 L 529.179,-4.99197 L 529.117,-5.0536 L 529.067,-5.125
 L 529.03,-5.20398 L 529.008,-5.28816 L 529,-5.375 L 529.008,-5.46182 L 529.03,-5.54601 L 529.067,-5.625
 L 529.117,-5.69638 L 529.179,-5.75801 L 529.25,-5.808 L 529.329,-5.84483 L 529.413,-5.8674 L 529.5,-5.875
 L 529.587,-5.8674 L 529.671,-5.84483 L 529.75,-5.808 L 529.821,-5.75801 L 529.883,-5.69638 L 529.933,-5.625
 L 529.97,-5.54601 L 529.992,-5.46182 L 530,-5.375 L 529.992,-5.28816 L 529.97,-5.20398 L 529.933,-5.125
 L 529.883,-5.0536 L 529.821,-4.99197 L 529.75,-4.94199 L 529.671,-4.90515 L 529.587,-4.88258 L 529.5,-4.875
 z
M 538.913,-4.88258 L 538.829,-4.90515 L 538.75,-4.94199 L 538.679,-4.99197 L 538.617,-5.0536 L 538.567,-5.125
 L 538.53,-5.20398 L 538.508,-5.28816 L 538.5,-5.375 L 538.508,-5.46182 L 538.53,-5.54601 L 538.567,-5.625
 L 538.617,-5.69638 L 538.679,-5.75801 L 538.75,-5.808 L 538.829,-5.84483 L 538.913,-5.8674 L 539,-5.875
 L 539.087,-5.8674 L 539.171,-5.84483 L 539.25,-5.808 L 539.321,-5.75801 L 539.383,-5.69638 L 539.433,-5.625
 L 539.47,-5.54601 L 539.492,-5.46182 L 539.5,-5.375 L 539.492,-5.28816 L 539.47,-5.20398 L 539.433,-5.125
 L 539.383,-5.0536 L 539.321,-4.99197 L 539.25,-4.94199 L 539.171,-4.90515 L 539.087,-4.88258 L 539,-4.875
 z
M 30.75,-0.625 L 30.875,-0.625 L 30.875,-0.5 L 31.125,-0.5 L 31.125,-0.625 L 34.375,-0.625
 L 34.375,-0.5 L 34.625,-0.5 L 34.625,-0.625 L 34.75,-0.625 L 34.75,-0 L 35.5,-0
 L 35.5,-6.21875 L 35.25,-6.21875 L 35.25,-6.125 L 34.625,-6.125 L 34.625,-6.375 L 34.7188,-6.375
 L 34.7188,-6.625 L 34.625,-6.625 L 34.625,-6.875 L 35.25,-6.875 L 35.25,-6.78125 L 35.5,-6.78125
 L 35.5,-12.2188 L 35.25,-12.2188 L 35.25,-12.125 L 34.625,-12.125 L 34.625,-12.375 L 34.7188,-12.375
 L 34.7188,-12.625 L 34.625,-12.625 L 34.625,-12.875 L 35.25,-12.875 L 35.25,-12.7812 L 35.5,-12.7812
 L 35.5,-18.2188 L 35.25,-18.2188 L 35.25,-18.125 L 34.625,-18.125 L 34.625,-18.375 L 34.7188,-18.375
 L 34.7188,-18.625 L 34.625,-18.625 L 34.625,-18.875 L 35.25,-18.875 L 35.25,-18.7812 L 35.5,-18.7812
 L 35.5,-25 L 34.75,-25 L 34.75,-24.375 L 34.625,-24.375 L 34.625,-24.5 L 34.375,-24.5
 L 34.375,-24.375 L 31.125,-24.375 L 31.125,-24.5 L 30.875,-24.5 L 30.875,-24.375 L 30.75,-24.375
 L 30.75,-25 L 30,-25 L 30,-0 L 30.75,-0 z
M 30.375,-18.125 L 30.375,-18.375 L 30.4688,-18.375 L 30.4688,-18.625 L 30.375,-18.625 L 30.375,-18.875
 L 30.75,-18.875 L 30.75,-18.7812 L 31,-18.7812 L 31,-18.875 L 31.375,-18.875 L 31.375,-18.625
 L 31.2812,-18.625 L 31.2812,-18.375 L 31.375,-18.375 L 31.375,-18.125 L 31,-18.125 L 31,-18.2188
 L 30.75,-18.2188 L 30.75,-18.125 z
M 30.375,-12.125 L 30.375,-12.375 L 30.4688,-12.375 L 30.4688,-12.625 L 30.375,-12.625 L 30.375,-12.875
 L 30.75,-12.875 L 30.75,-12.7812 L 31,-12.7812 L 31,-12.875 L 31.375,-12.875 L 31.375,-12.625
 L 31.2812,-12.625 L 31.2812,-12.375 L 31.375,-12.375 L 31.375,-12.125 L 31,-12.125 L 31,-12.2188
 L 30.75,-12.2188 L 30.75,-12.125 z
M 30.375,-6.125 L 30.375,-6.375 L 30.4688,-6.375 L 30.4688,-6.625 L 30.375,-6.625 L 30.375,-6.875
 L 30.75,-6.875 L 30.75,-6.78125 L 31,-6.78125 L 31,-6.875 L 31.375,-6.875 L 31.375,-6.625
 L 31.2812,-6.625 L 31.2812,-6.375 L 31.375,-6.375 L 31.375,-6.125 L 31,-6.125 L 31,-6.21875
 L 30.75,-6.21875 L 30.75,-6.125 z
M 62.75,-0.625 L 62.875,-0.625 L 62.875,-0.5 L 63.125,-0.5 L 63.125,-0.625 L 65.875,-0.625
 L 65.875,-0.5 L 66.125,-0.5 L 66.125,-0.625 L 66.25,-0.625 L 66.25,-0 L 67,-0
 L 67,-25 L 66.25,-25 L 66.25,-24.375 L 66.125,-24.375 L 66.125,-24.5 L 65.875,-24.5
 L 65.875,-24.375 L 63.125,-24.375 L 63.125,-24.5 L 62.875,-24.5 L 62.875,-24.375 L 62.75,-24.375
 L 62.75,-25 L 62,-25 L 62,-24 L 62.125,-24 L 62.125,-13 L 62,-13
 L 62,-12 L 62.125,-12 L 62.125,-1 L 62,-1 L 62,-0 L 62.75,-0
 z
M 63.125,-13.625 L 63.125,-13.875 L 63.2188,-13.875 L 63.2188,-14.125 L 63.125,-14.125 L 63.125,-14.375
 L 63.375,-14.375 L 63.375,-14.2812 L 63.625,-14.2812 L 63.625,-14.375 L 63.875,-14.375 L 63.875,-14.125
 L 63.7812,-14.125 L 63.7812,-13.875 L 63.875,-13.875 L 63.875,-13.625 L 63.625,-13.625 L 63.625,-13.7188
 L 63.375,-13.7188 L 63.375,-13.625 z
M 63.125,-10.625 L 63.125,-10.875 L 63.2188,-10.875 L 63.2188,-11.125 L 63.125,-11.125 L 63.125,-11.375
 L 63.375,-11.375 L 63.375,-11.2812 L 63.625,-11.2812 L 63.625,-11.375 L 63.875,-11.375 L 63.875,-11.125
 L 63.7812,-11.125 L 63.7812,-10.875 L 63.875,-10.875 L 63.875,-10.625 L 63.625,-10.625 L 63.625,-10.7188
 L 63.375,-10.7188 L 63.375,-10.625 z
M 15.5,-0.53125 L 20.5,-0.53125 L 20.5,-0 L 22,-0 L 22,-25 L 20.5,-25
 L 20.5,-24.4688 L 15.5,-24.4688 L 15.5,-25 L 0,-25 L 0,-21.6192 L 6,-21.6192
 L 6,-3.3808 L 0,-3.3808 L 0,-0 L 15.5,-0 z
M 2.91316,-22.1268 L 2.82898,-22.1494 L 2.75,-22.1862 L 2.6786,-22.2362 L 2.61697,-22.2978 L 2.56699,-22.3692
 L 2.53015,-22.4482 L 2.50758,-22.5324 L 2.5,-22.6192 L 2.50758,-22.706 L 2.53015,-22.7902 L 2.56699,-22.8692
 L 2.61697,-22.9406 L 2.6786,-23.0022 L 2.75,-23.0522 L 2.82898,-23.089 L 2.91316,-23.1116 L 3,-23.1192
 L 3.08682,-23.1116 L 3.17101,-23.089 L 3.25,-23.0522 L 3.32138,-23.0022 L 3.38301,-22.9406 L 3.433,-22.8692
 L 3.46983,-22.7902 L 3.4924,-22.706 L 3.5,-22.6192 L 3.4924,-22.5324 L 3.46983,-22.4482 L 3.433,-22.3692
 L 3.38301,-22.2978 L 3.32138,-22.2362 L 3.25,-22.1862 L 3.17101,-22.1494 L 3.08682,-22.1268 L 3,-22.1192
 z
M 0.913162,-22.1268 L 0.828979,-22.1494 L 0.75,-22.1862 L 0.678604,-22.2362 L 0.616974,-22.2978 L 0.566986,-22.3692
 L 0.530151,-22.4482 L 0.507584,-22.5324 L 0.5,-22.6192 L 0.507584,-22.706 L 0.530151,-22.7902 L 0.566986,-22.8692
 L 0.616974,-22.9406 L 0.678604,-23.0022 L 0.75,-23.0522 L 0.828979,-23.089 L 0.913162,-23.1116 L 1,-23.1192
 L 1.08682,-23.1116 L 1.17101,-23.089 L 1.25,-23.0522 L 1.32138,-23.0022 L 1.38301,-22.9406 L 1.433,-22.8692
 L 1.46983,-22.7902 L 1.4924,-22.706 L 1.5,-22.6192 L 1.4924,-22.5324 L 1.46983,-22.4482 L 1.433,-22.3692
 L 1.38301,-22.2978 L 1.32138,-22.2362 L 1.25,-22.1862 L 1.17101,-22.1494 L 1.08682,-22.1268 L 1,-22.1192
 z
M 2.91316,-1.88838 L 2.82898,-1.91095 L 2.75,-1.94778 L 2.6786,-1.99777 L 2.61697,-2.0594 L 2.56699,-2.1308
 L 2.53015,-2.20978 L 2.50758,-2.29398 L 2.5,-2.3808 L 2.50758,-2.46762 L 2.53015,-2.5518 L 2.56699,-2.6308
 L 2.61697,-2.70218 L 2.6786,-2.76381 L 2.75,-2.81381 L 2.82898,-2.85063 L 2.91316,-2.8732 L 3,-2.8808
 L 3.08682,-2.8732 L 3.17101,-2.85063 L 3.25,-2.81381 L 3.32138,-2.76381 L 3.38301,-2.70218 L 3.433,-2.6308
 L 3.46983,-2.5518 L 3.4924,-2.46762 L 3.5,-2.3808 L 3.4924,-2.29398 L 3.46983,-2.20978 L 3.433,-2.1308
 L 3.38301,-2.0594 L 3.32138,-1.99777 L 3.25,-1.94778 L 3.17101,-1.91095 L 3.08682,-1.88838 L 3,-1.8808
 z
M 0.913162,-1.88838 L 0.828979,-1.91095 L 0.75,-1.94778 L 0.678604,-1.99777 L 0.616974,-2.0594 L 0.566986,-2.1308
 L 0.530151,-2.20978 L 0.507584,-2.29398 L 0.5,-2.3808 L 0.507584,-2.46762 L 0.530151,-2.5518 L 0.566986,-2.6308
 L 0.616974,-2.70218 L 0.678604,-2.76381 L 0.75,-2.81381 L 0.828979,-2.85063 L 0.913162,-2.8732 L 1,-2.8808
 L 1.08682,-2.8732 L 1.17101,-2.85063 L 1.25,-2.81381 L 1.32138,-2.76381 L 1.38301,-2.70218 L 1.433,-2.6308
 L 1.46983,-2.5518 L 1.4924,-2.46762 L 1.5,-2.3808 L 1.4924,-2.29398 L 1.46983,-2.20978 L 1.433,-2.1308
 L 1.38301,-2.0594 L 1.32138,-1.99777 L 1.25,-1.94778 L 1.17101,-1.91095 L 1.08682,-1.88838 L 1,-1.8808
 z
M 50.5,-0.625 L 50.625,-0.625 L 50.625,-0.5 L 50.875,-0.5 L 50.875,-0.625 L 54.625,-0.625
 L 54.625,-0.5 L 54.875,-0.5 L 54.875,-0.625 L 55,-0.625 L 55,-0 L 56,-0
 L 56,-25 L 55,-25 L 55,-24.375 L 54.875,-24.375 L 54.875,-24.5 L 54.625,-24.5
 L 54.625,-24.375 L 50.875,-24.375 L 50.875,-24.5 L 50.625,-24.5 L 50.625,-24.375 L 50.5,-24.375
 L 50.5,-25 L 50,-25 L 50,-0 L 50.5,-0 z
M 53.625,-13.625 L 53.625,-13.875 L 53.7188,-13.875 L 53.7188,-14.125 L 53.625,-14.125 L 53.625,-14.375
 L 53.875,-14.375 L 53.875,-14.2812 L 54.125,-14.2812 L 54.125,-14.375 L 54.375,-14.375 L 54.375,-14.125
 L 54.2812,-14.125 L 54.2812,-13.875 L 54.375,-13.875 L 54.375,-13.625 L 54.125,-13.625 L 54.125,-13.7188
 L 53.875,-13.7188 L 53.875,-13.625 z
M 53.625,-10.625 L 53.625,-10.875 L 53.7188,-10.875 L 53.7188,-11.125 L 53.625,-11.125 L 53.625,-11.375
 L 53.875,-11.375 L 53.875,-11.2812 L 54.125,-11.2812 L 54.125,-11.375 L 54.375,-11.375 L 54.375,-11.125
 L 54.2812,-11.125 L 54.2812,-10.875 L 54.375,-10.875 L 54.375,-10.625 L 54.125,-10.625 L 54.125,-10.7188
 L 53.875,-10.7188 L 53.875,-10.625 z
M 86.5,-25 L 81.5,-25 L 81.5,-0 L 86.5,-0 z
M 84.4132,-22.1268 L 84.329,-22.1494 L 84.25,-22.1862 L 84.1786,-22.2362 L 84.117,-22.2978 L 84.067,-22.3692
 L 84.0302,-22.4482 L 84.0076,-22.5324 L 84,-22.6192 L 84.0076,-22.706 L 84.0302,-22.7902 L 84.067,-22.8692
 L 84.117,-22.9406 L 84.1786,-23.0022 L 84.25,-23.0522 L 84.329,-23.089 L 84.4132,-23.1116 L 84.5,-23.1192
 L 84.5868,-23.1116 L 84.671,-23.089 L 84.75,-23.0522 L 84.8214,-23.0022 L 84.883,-22.9406 L 84.933,-22.8692
 L 84.9698,-22.7902 L 84.9924,-22.706 L 85,-22.6192 L 84.9924,-22.5324 L 84.9698,-22.4482 L 84.933,-22.3692
 L 84.883,-22.2978 L 84.8214,-22.2362 L 84.75,-22.1862 L 84.671,-22.1494 L 84.5868,-22.1268 L 84.5,-22.1192
 z
M 82.4132,-22.1268 L 82.329,-22.1494 L 82.25,-22.1862 L 82.1786,-22.2362 L 82.117,-22.2978 L 82.067,-22.3692
 L 82.0302,-22.4482 L 82.0076,-22.5324 L 82,-22.6192 L 82.0076,-22.706 L 82.0302,-22.7902 L 82.067,-22.8692
 L 82.117,-22.9406 L 82.1786,-23.0022 L 82.25,-23.0522 L 82.329,-23.089 L 82.4132,-23.1116 L 82.5,-23.1192
 L 82.5868,-23.1116 L 82.671,-23.089 L 82.75,-23.0522 L 82.8214,-23.0022 L 82.883,-22.9406 L 82.933,-22.8692
 L 82.9698,-22.7902 L 82.9924,-22.706 L 83,-22.6192 L 82.9924,-22.5324 L 82.9698,-22.4482 L 82.933,-22.3692
 L 82.883,-22.2978 L 82.8214,-22.2362 L 82.75,-22.1862 L 82.671,-22.1494 L 82.5868,-22.1268 L 82.5,-22.1192
 z
M 82.4132,-1.88838 L 82.329,-1.91095 L 82.25,-1.94778 L 82.1786,-1.99777 L 82.117,-2.0594 L 82.067,-2.1308
 L 82.0302,-2.20978 L 82.0076,-2.29398 L 82,-2.3808 L 82.0076,-2.46762 L 82.0302,-2.5518 L 82.067,-2.6308
 L 82.117,-2.70218 L 82.1786,-2.76381 L 82.25,-2.81381 L 82.329,-2.85063 L 82.4132,-2.8732 L 82.5,-2.8808
 L 82.5868,-2.8732 L 82.671,-2.85063 L 82.75,-2.81381 L 82.8214,-2.76381 L 82.883,-2.70218 L 82.933,-2.6308
 L 82.9698,-2.5518 L 82.9924,-2.46762 L 83,-2.3808 L 82.9924,-2.29398 L 82.9698,-2.20978 L 82.933,-2.1308
 L 82.883,-2.0594 L 82.8214,-1.99777 L 82.75,-1.94778 L 82.671,-1.91095 L 82.5868,-1.88838 L 82.5,-1.8808
 z
M 84.4132,-1.88838 L 84.329,-1.91095 L 84.25,-1.94778 L 84.1786,-1.99777 L 84.117,-2.0594 L 84.067,-2.1308
 L 84.0302,-2.20978 L 84.0076,-2.29398 L 84,-2.3808 L 84.0076,-2.46762 L 84.0302,-2.5518 L 84.067,-2.6308
 L 84.117,-2.70218 L 84.1786,-2.76381 L 84.25,-2.81381 L 84.329,-2.85063 L 84.4132,-2.8732 L 84.5,-2.8808
 L 84.5868,-2.8732 L 84.671,-2.85063 L 84.75,-2.81381 L 84.8214,-2.76381 L 84.883,-2.70218 L 84.933,-2.6308
 L 84.9698,-2.5518 L 84.9924,-2.46762 L 85,-2.3808 L 84.9924,-2.29398 L 84.9698,-2.20978 L 84.933,-2.1308
 L 84.883,-2.0594 L 84.8214,-1.99777 L 84.75,-1.94778 L 84.671,-1.91095 L 84.5868,-1.88838 L 84.5,-1.8808
 z
M 43.5,-0.625 L 43.625,-0.625 L 43.625,-0.5 L 43.875,-0.5 L 43.875,-0.625 L 48.125,-0.625
 L 48.125,-0.5 L 48.375,-0.5 L 48.375,-0.625 L 48.5,-0.625 L 48.5,-0 L 49,-0
 L 49,-1 L 48.875,-1 L 48.875,-12 L 49,-12 L 49,-13 L 48.875,-13
 L 48.875,-24 L 49,-24 L 49,-25 L 48.5,-25 L 48.5,-24.375 L 48.375,-24.375
 L 48.375,-24.5 L 48.125,-24.5 L 48.125,-24.375 L 43.875,-24.375 L 43.875,-24.5 L 43.625,-24.5
 L 43.625,-24.375 L 43.5,-24.375 L 43.5,-25 L 43,-25 L 43,-24 L 43.125,-24
 L 43.125,-13 L 43,-13 L 43,-12 L 43.125,-12 L 43.125,-1 L 43,-1
 L 43,-0 L 43.5,-0 z
M 45.625,-18.125 L 45.625,-18.375 L 45.7188,-18.375 L 45.7188,-18.625 L 45.625,-18.625 L 45.625,-18.875
 L 45.875,-18.875 L 45.875,-18.7812 L 46.125,-18.7812 L 46.125,-18.875 L 46.375,-18.875 L 46.375,-18.625
 L 46.2812,-18.625 L 46.2812,-18.375 L 46.375,-18.375 L 46.375,-18.125 L 46.125,-18.125 L 46.125,-18.2188
 L 45.875,-18.2188 L 45.875,-18.125 z
M 45.625,-12.125 L 45.625,-12.375 L 45.7188,-12.375 L 45.7188,-12.625 L 45.625,-12.625 L 45.625,-12.875
 L 45.875,-12.875 L 45.875,-12.7812 L 46.125,-12.7812 L 46.125,-12.875 L 46.375,-12.875 L 46.375,-12.625
 L 46.2812,-12.625 L 46.2812,-12.375 L 46.375,-12.375 L 46.375,-12.125 L 46.125,-12.125 L 46.125,-12.2188
 L 45.875,-12.2188 L 45.875,-12.125 z
M 45.625,-6.125 L 45.625,-6.375 L 45.7188,-6.375 L 45.7188,-6.625 L 45.625,-6.625 L 45.625,-6.875
 L 45.875,-6.875 L 45.875,-6.78125 L 46.125,-6.78125 L 46.125,-6.875 L 46.375,-6.875 L 46.375,-6.625
 L 46.2812,-6.625 L 46.2812,-6.375 L 46.375,-6.375 L 46.375,-6.125 L 46.125,-6.125 L 46.125,-6.21875
 L 45.875,-6.21875 L 45.875,-6.125 z
M 37.25,-16.625 L 37.375,-16.625 L 37.375,-16.5 L 40.625,-16.5 L 40.625,-16.625 L 40.75,-16.625
 L 40.75,-16 L 41.5,-16 L 41.5,-19.125 L 41.375,-19.125 L 41.375,-19.25 L 42,-19.25
 L 42,-19.75 L 41.375,-19.75 L 41.375,-19.875 L 41.5,-19.875 L 41.5,-23 L 40.75,-23
 L 40.75,-22.375 L 40.625,-22.375 L 40.625,-22.5 L 37.375,-22.5 L 37.375,-22.375 L 37.25,-22.375
 L 37.25,-23 L 36.5,-23 L 36.5,-16 L 37.25,-16 z
M 28.4688,-0.65625 L 28.3438,-0.65625 L 28.3438,-0.90625 L 28.5938,-0.90625 L 28.5938,-0.78125 L 29,-0.78125
 L 29,-4.21875 L 28.5938,-4.21875 L 28.5938,-4.09375 L 28.3438,-4.09375 L 28.3438,-4.34375 L 28.4688,-4.34375
 L 28.4688,-4.96875 L 28.0938,-4.96875 L 28.0938,-4.84375 L 27.8438,-4.84375 L 27.8438,-5.09375 L 27.9688,-5.09375
 L 27.9688,-5.40625 L 27.8438,-5.40625 L 27.8438,-5.65625 L 28.4688,-5.65625 L 28.4688,-5.53125 L 29,-5.53125
 L 29,-11.4688 L 28.5938,-11.4688 L 28.5938,-11.3438 L 28.0938,-11.3438 L 28.0938,-11.5938 L 28.2188,-11.5938
 L 28.2188,-11.9062 L 28.0938,-11.9062 L 28.0938,-12.1562 L 28.3438,-12.1562 L 28.3438,-12.0312 L 28.4688,-12.0312
 L 28.4688,-12.4062 L 28.3438,-12.4062 L 28.3438,-12.6562 L 28.7188,-12.6562 L 28.7188,-12.5312 L 29,-12.5312
 L 29,-17.4688 L 28.5938,-17.4688 L 28.5938,-17.3438 L 28.3438,-17.3438 L 28.3438,-17.5938 L 28.4688,-17.5938
 L 28.4688,-17.9688 L 28.3438,-17.9688 L 28.3438,-17.8438 L 28.0938,-17.8438 L 28.0938,-18.0938 L 28.2188,-18.0938
 L 28.2188,-18.5 L 24.2812,-18.5 L 24.2812,-18.0938 L 24.4062,-18.0938 L 24.4062,-17.8438 L 23.9062,-17.8438
 L 23.9062,-17.9688 L 23,-17.9688 L 23,-13.0312 L 23.4062,-13.0312 L 23.4062,-13.1562 L 23.6562,-13.1562
 L 23.6562,-12.5312 L 23.5312,-12.5312 L 23.5312,-12.0312 L 24.0312,-12.0312 L 24.0312,-12.1562 L 24.4062,-12.1562
 L 24.4062,-11.9062 L 24.2812,-11.9062 L 24.2812,-11.5938 L 24.4062,-11.5938 L 24.4062,-11.3438 L 24.0312,-11.3438
 L 24.0312,-11.4688 L 23,-11.4688 L 23,-5.53125 L 23.4062,-5.53125 L 23.4062,-5.65625 L 23.6562,-5.65625
 L 23.6562,-5.40625 L 23.5312,-5.40625 L 23.5312,-5.09375 L 23.6562,-5.09375 L 23.6562,-4.84375 L 23.4062,-4.84375
 L 23.4062,-4.96875 L 23,-4.96875 L 23,-2.03125 L 23.4062,-2.03125 L 23.4062,-2.15625 L 23.6562,-2.15625
 L 23.6562,-1.90625 L 23.5312,-1.90625 L 23.5312,-0 L 28.4688,-0 z
M 26.4895,-2.02278 L 26.237,-2.09045 L 26,-2.20096 L 25.7858,-2.35092 L 25.6009,-2.53581 L 25.451,-2.75
 L 25.3405,-2.98697 L 25.2728,-3.23952 L 25.25,-3.5 L 25.2728,-3.76047 L 25.3405,-4.01302 L 25.451,-4.25
 L 25.6009,-4.46417 L 25.7858,-4.64906 L 26,-4.79903 L 26.237,-4.90953 L 26.4895,-4.9772 L 26.75,-5
 L 27.0105,-4.9772 L 27.263,-4.90953 L 27.5,-4.79903 L 27.7142,-4.64906 L 27.8991,-4.46417 L 28.049,-4.25
 L 28.1595,-4.01302 L 28.2272,-3.76047 L 28.25,-3.5 L 28.2272,-3.23952 L 28.1595,-2.98697 L 28.049,-2.75
 L 27.8991,-2.53581 L 27.7142,-2.35092 L 27.5,-2.20096 L 27.263,-2.09045 L 27.0105,-2.02278 L 26.75,-2
 z
M 75.5,-18 L 72.5,-18 L 72.5,-0 L 75.5,-0 z
M 73.83,-16.4769 L 73.6767,-16.555 L 73.555,-16.6767 L 73.4769,-16.83 L 73.45,-17 L 73.4769,-17.17
 L 73.555,-17.3233 L 73.6767,-17.4449 L 73.83,-17.5231 L 74,-17.55 L 74.17,-17.5231 L 74.3233,-17.4449
 L 74.4449,-17.3233 L 74.5231,-17.17 L 74.55,-17 L 74.5231,-16.83 L 74.4449,-16.6767 L 74.3233,-16.555
 L 74.17,-16.4769 L 74,-16.45 z
M 73.83,-13.4769 L 73.6767,-13.555 L 73.555,-13.6767 L 73.4769,-13.83 L 73.45,-14 L 73.4769,-14.17
 L 73.555,-14.3233 L 73.6767,-14.4449 L 73.83,-14.5231 L 74,-14.55 L 74.17,-14.5231 L 74.3233,-14.4449
 L 74.4449,-14.3233 L 74.5231,-14.17 L 74.55,-14 L 74.5231,-13.83 L 74.4449,-13.6767 L 74.3233,-13.555
 L 74.17,-13.4769 L 74,-13.45 z
M 73.83,-8.47691 L 73.6767,-8.55504 L 73.555,-8.67671 L 73.4769,-8.83003 L 73.45,-9 L 73.4769,-9.16995
 L 73.555,-9.32327 L 73.6767,-9.44495 L 73.83,-9.52307 L 74,-9.54999 L 74.17,-9.52307 L 74.3233,-9.44495
 L 74.4449,-9.32327 L 74.5231,-9.16995 L 74.55,-9 L 74.5231,-8.83003 L 74.4449,-8.67671 L 74.3233,-8.55504
 L 74.17,-8.47691 L 74,-8.45 z
M 73.83,-3.47691 L 73.6767,-3.55504 L 73.555,-3.67671 L 73.4769,-3.83003 L 73.45,-4 L 73.4769,-4.16995
 L 73.555,-4.32327 L 73.6767,-4.44495 L 73.83,-4.52307 L 74,-4.54999 L 74.17,-4.52307 L 74.3233,-4.44495
 L 74.4449,-4.32327 L 74.5231,-4.16995 L 74.55,-4 L 74.5231,-3.83003 L 74.4449,-3.67671 L 74.3233,-3.55504
 L 74.17,-3.47691 L 74,-3.45 z
M 73.83,-0.476913 L 73.6767,-0.555038 L 73.555,-0.676712 L 73.4769,-0.830032 L 73.45,-1 L 73.4769,-1.16995
 L 73.555,-1.32327 L 73.6767,-1.44495 L 73.83,-1.52307 L 74,-1.54999 L 74.17,-1.52307 L 74.3233,-1.44495
 L 74.4449,-1.32327 L 74.5231,-1.16995 L 74.55,-1 L 74.5231,-0.830032 L 74.4449,-0.676712 L 74.3233,-0.555038
 L 74.17,-0.476913 L 74,-0.449997 z
M 37.25,-8.625 L 37.375,-8.625 L 37.375,-8.5 L 40.625,-8.5 L 40.625,-8.625 L 40.75,-8.625
 L 40.75,-8 L 41.5,-8 L 41.5,-11.125 L 41.375,-11.125 L 41.375,-11.25 L 42,-11.25
 L 42,-11.75 L 41.375,-11.75 L 41.375,-11.875 L 41.5,-11.875 L 41.5,-15 L 40.75,-15
 L 40.75,-14.375 L 40.625,-14.375 L 40.625,-14.5 L 37.375,-14.5 L 37.375,-14.375 L 37.25,-14.375
 L 37.25,-15 L 36.5,-15 L 36.5,-8 L 37.25,-8 z
M 546.25,-12 L 541.75,-12 L 541.75,-4 L 546.25,-4 z
M 544.184,-9.62576 L 544.12,-9.64291 L 544.06,-9.6709 L 544.006,-9.70889 L 543.959,-9.75574 L 543.921,-9.81
 L 543.893,-9.87003 L 543.876,-9.93401 L 543.87,-10 L 543.876,-10.066 L 543.893,-10.13 L 543.921,-10.19
 L 543.959,-10.2442 L 544.006,-10.2911 L 544.06,-10.3291 L 544.12,-10.3571 L 544.184,-10.3742 L 544.25,-10.38
 L 544.316,-10.3742 L 544.38,-10.3571 L 544.44,-10.3291 L 544.494,-10.2911 L 544.541,-10.2442 L 544.579,-10.19
 L 544.607,-10.13 L 544.624,-10.066 L 544.63,-10 L 544.624,-9.93401 L 544.607,-9.87003 L 544.579,-9.81
 L 544.541,-9.75574 L 544.494,-9.70889 L 544.44,-9.6709 L 544.38,-9.64291 L 544.316,-9.62576 L 544.25,-9.62
 z
M 544.184,-5.62576 L 544.12,-5.64291 L 544.06,-5.6709 L 544.006,-5.70889 L 543.959,-5.75574 L 543.921,-5.81
 L 543.893,-5.87003 L 543.876,-5.93401 L 543.87,-6 L 543.876,-6.06598 L 543.893,-6.12996 L 543.921,-6.18999
 L 543.959,-6.24425 L 544.006,-6.29109 L 544.06,-6.32909 L 544.12,-6.35707 L 544.184,-6.37422 L 544.25,-6.37999
 L 544.316,-6.37422 L 544.38,-6.35707 L 544.44,-6.32909 L 544.494,-6.29109 L 544.541,-6.24425 L 544.579,-6.18999
 L 544.607,-6.12996 L 544.624,-6.06598 L 544.63,-6 L 544.624,-5.93401 L 544.607,-5.87003 L 544.579,-5.81
 L 544.541,-5.75574 L 544.494,-5.70889 L 544.44,-5.6709 L 544.38,-5.64291 L 544.316,-5.62576 L 544.25,-5.62
 z
M 80.5,-10.5 L 76.5,-10.5 L 76.5,-5.75 L 80.5,-5.75 z
M 79.4349,-9.13069 L 79.3717,-9.14761 L 79.3125,-9.17523 L 79.2589,-9.21272 L 79.2127,-9.25894 L 79.1752,-9.3125
 L 79.1476,-9.37173 L 79.1307,-9.43488 L 79.125,-9.5 L 79.1307,-9.56511 L 79.1476,-9.62825 L 79.1752,-9.6875
 L 79.2127,-9.74104 L 79.2589,-9.78726 L 79.3125,-9.82475 L 79.3717,-9.85237 L 79.4349,-9.86929 L 79.5,-9.875
 L 79.5651,-9.86929 L 79.6283,-9.85237 L 79.6875,-9.82475 L 79.741,-9.78726 L 79.7873,-9.74104 L 79.8248,-9.6875
 L 79.8524,-9.62825 L 79.8693,-9.56511 L 79.875,-9.5 L 79.8693,-9.43488 L 79.8524,-9.37173 L 79.8248,-9.3125
 L 79.7873,-9.25894 L 79.741,-9.21272 L 79.6875,-9.17523 L 79.6283,-9.14761 L 79.5651,-9.13069 L 79.5,-9.125
 z
M 77.4349,-9.13069 L 77.3717,-9.14761 L 77.3125,-9.17523 L 77.2589,-9.21272 L 77.2127,-9.25894 L 77.1752,-9.3125
 L 77.1476,-9.37173 L 77.1307,-9.43488 L 77.125,-9.5 L 77.1307,-9.56511 L 77.1476,-9.62825 L 77.1752,-9.6875
 L 77.2127,-9.74104 L 77.2589,-9.78726 L 77.3125,-9.82475 L 77.3717,-9.85237 L 77.4349,-9.86929 L 77.5,-9.875
 L 77.5651,-9.86929 L 77.6283,-9.85237 L 77.6875,-9.82475 L 77.741,-9.78726 L 77.7873,-9.74104 L 77.8248,-9.6875
 L 77.8524,-9.62825 L 77.8693,-9.56511 L 77.875,-9.5 L 77.8693,-9.43488 L 77.8524,-9.37173 L 77.8248,-9.3125
 L 77.7873,-9.25894 L 77.741,-9.21272 L 77.6875,-9.17523 L 77.6283,-9.14761 L 77.5651,-9.13069 L 77.5,-9.125
 z
M 79.4132,-6.25758 L 79.329,-6.28015 L 79.25,-6.31699 L 79.1786,-6.36697 L 79.117,-6.4286 L 79.067,-6.5
 L 79.0302,-6.57898 L 79.0076,-6.66316 L 79,-6.75 L 79.0076,-6.83682 L 79.0302,-6.92101 L 79.067,-7
 L 79.117,-7.07138 L 79.1786,-7.13301 L 79.25,-7.183 L 79.329,-7.21983 L 79.4132,-7.2424 L 79.5,-7.25
 L 79.5868,-7.2424 L 79.671,-7.21983 L 79.75,-7.183 L 79.8214,-7.13301 L 79.883,-7.07138 L 79.933,-7
 L 79.9698,-6.92101 L 79.9924,-6.83682 L 80,-6.75 L 79.9924,-6.66316 L 79.9698,-6.57898 L 79.933,-6.5
 L 79.883,-6.4286 L 79.8214,-6.36697 L 79.75,-6.31699 L 79.671,-6.28015 L 79.5868,-6.25758 L 79.5,-6.25
 z
M 77.4132,-6.25758 L 77.329,-6.28015 L 77.25,-6.31699 L 77.1786,-6.36697 L 77.117,-6.4286 L 77.067,-6.5
 L 77.0302,-6.57898 L 77.0076,-6.66316 L 77,-6.75 L 77.0076,-6.83682 L 77.0302,-6.92101 L 77.067,-7
 L 77.117,-7.07138 L 77.1786,-7.13301 L 77.25,-7.183 L 77.329,-7.21983 L 77.4132,-7.2424 L 77.5,-7.25
 L 77.5868,-7.2424 L 77.671,-7.21983 L 77.75,-7.183 L 77.8214,-7.13301 L 77.883,-7.07138 L 77.933,-7
 L 77.9698,-6.92101 L 77.9924,-6.83682 L 78,-6.75 L 77.9924,-6.66316 L 77.9698,-6.57898 L 77.933,-6.5
 L 77.883,-6.4286 L 77.8214,-6.36697 L 77.75,-6.31699 L 77.671,-6.28015 L 77.5868,-6.25758 L 77.5,-6.25
 z
M 463.5,-8.375 L 463.438,-8.375 L 463.438,-8.5 L 462.938,-8.5 L 462.938,-8.375 L 458.12,-8.375
 L 458.12,-8.5 L 457.62,-8.5 L 457.62,-8.375 L 457.495,-8.375 L 457.495,-9 L 451.552,-9
 L 451.552,-8.375 L 451.427,-8.375 L 451.427,-8.5 L 450.927,-8.5 L 450.927,-8.375 L 446.109,-8.375
 L 446.109,-8.5 L 445.609,-8.5 L 445.609,-8.375 L 445.484,-8.375 L 445.484,-9 L 439.542,-9
 L 439.542,-8.375 L 439.417,-8.375 L 439.417,-8.5 L 438.917,-8.5 L 438.917,-8.375 L 434.099,-8.375
 L 434.099,-8.5 L 433.599,-8.5 L 433.599,-8.375 L 433.474,-8.375 L 433.474,-9 L 427.531,-9
 L 427.531,-8.375 L 427.406,-8.375 L 427.406,-8.5 L 426.906,-8.5 L 426.906,-8.375 L 422.089,-8.375
 L 422.089,-8.5 L 421.589,-8.5 L 421.589,-8.375 L 421.464,-8.375 L 421.464,-9 L 415.521,-9
 L 415.521,-8.375 L 415.396,-8.375 L 415.396,-8.5 L 414.896,-8.5 L 414.896,-8.375 L 410.078,-8.375
 L 410.078,-8.5 L 409.578,-8.5 L 409.578,-8.375 L 409.453,-8.375 L 409.453,-9 L 403.51,-9
 L 403.51,-8.375 L 403.385,-8.375 L 403.385,-8.5 L 402.885,-8.5 L 402.885,-8.375 L 398.068,-8.375
 L 398.068,-8.5 L 397.568,-8.5 L 397.568,-8.375 L 397.443,-8.375 L 397.443,-9 L 391.5,-9
 L 391.5,-3 L 463.5,-3 z
M 390.5,-8.375 L 390.438,-8.375 L 390.438,-8.5 L 389.938,-8.5 L 389.938,-8.375 L 385.12,-8.375
 L 385.12,-8.5 L 384.62,-8.5 L 384.62,-8.375 L 384.495,-8.375 L 384.495,-9 L 378.552,-9
 L 378.552,-8.375 L 378.427,-8.375 L 378.427,-8.5 L 377.927,-8.5 L 377.927,-8.375 L 373.109,-8.375
 L 373.109,-8.5 L 372.609,-8.5 L 372.609,-8.375 L 372.484,-8.375 L 372.484,-9 L 366.542,-9
 L 366.542,-8.375 L 366.417,-8.375 L 366.417,-8.5 L 365.917,-8.5 L 365.917,-8.375 L 361.099,-8.375
 L 361.099,-8.5 L 360.599,-8.5 L 360.599,-8.375 L 360.474,-8.375 L 360.474,-9 L 354.531,-9
 L 354.531,-8.375 L 354.406,-8.375 L 354.406,-8.5 L 353.906,-8.5 L 353.906,-8.375 L 349.089,-8.375
 L 349.089,-8.5 L 348.589,-8.5 L 348.589,-8.375 L 348.464,-8.375 L 348.464,-9 L 342.521,-9
 L 342.521,-8.375 L 342.396,-8.375 L 342.396,-8.5 L 341.896,-8.5 L 341.896,-8.375 L 337.078,-8.375
 L 337.078,-8.5 L 336.578,-8.5 L 336.578,-8.375 L 336.453,-8.375 L 336.453,-9 L 330.51,-9
 L 330.51,-8.375 L 330.385,-8.375 L 330.385,-8.5 L 329.885,-8.5 L 329.885,-8.375 L 325.068,-8.375
 L 325.068,-8.5 L 324.568,-8.5 L 324.568,-8.375 L 324.443,-8.375 L 324.443,-9 L 318.5,-9
 L 318.5,-3 L 390.5,-3 z
M 470.5,-3.625 L 470,-3.625 L 470,-4.43332 L 467.56,-8.5 L 467.125,-8.5 L 467.125,-9
 L 466.5,-9 L 466.5,-8 L 469.5,-3 L 470.5,-3 z
M 69.75,-5.125 L 69.875,-5.125 L 69.875,-5 L 71,-5 L 71,-6.125 L 70.875,-6.125
 L 70.875,-6.25 L 71.5,-6.25 L 71.5,-6.75 L 70.875,-6.75 L 70.875,-6.875 L 71,-6.875
 L 71,-8 L 68,-8 L 68,-5 L 69.125,-5 L 69.125,-5.125 L 69.25,-5.125
 L 69.25,-4.5 L 69.75,-4.5 z
M 69.4132,-6.00758 L 69.329,-6.03015 L 69.25,-6.06699 L 69.1786,-6.11697 L 69.117,-6.1786 L 69.067,-6.25
 L 69.0302,-6.32898 L 69.0076,-6.41316 L 69,-6.5 L 69.0076,-6.58682 L 69.0302,-6.67101 L 69.067,-6.75
 L 69.117,-6.82138 L 69.1786,-6.88301 L 69.25,-6.933 L 69.329,-6.96983 L 69.4132,-6.9924 L 69.5,-7
 L 69.5868,-6.9924 L 69.671,-6.96983 L 69.75,-6.933 L 69.8214,-6.88301 L 69.883,-6.82138 L 69.933,-6.75
 L 69.9698,-6.67101 L 69.9924,-6.58682 L 70,-6.5 L 69.9924,-6.41316 L 69.9698,-6.32898 L 69.933,-6.25
 L 69.883,-6.1786 L 69.8214,-6.11697 L 69.75,-6.06699 L 69.671,-6.03015 L 69.5868,-6.00758 L 69.5,-6
 z
M 37.25,-0.625 L 37.375,-0.625 L 37.375,-0.5 L 40.625,-0.5 L 40.625,-0.625 L 40.75,-0.625
 L 40.75,-0 L 41.5,-0 L 41.5,-3.125 L 41.375,-3.125 L 41.375,-3.25 L 42,-3.25
 L 42,-3.75 L 41.375,-3.75 L 41.375,-3.875 L 41.5,-3.875 L 41.5,-7 L 40.75,-7
 L 40.75,-6.375 L 40.625,-6.375 L 40.625,-6.5 L 37.375,-6.5 L 37.375,-6.375 L 37.25,-6.375
 L 37.25,-7 L 36.5,-7 L 36.5,-0 L 37.25,-0 z
M 61,-4.5 L 60.375,-4.5 L 60.375,-4.625 L 60.5,-4.625 L 60.5,-4.875 L 60.375,-4.875
 L 60.375,-6.125 L 60.5,-6.125 L 60.5,-6.375 L 60.375,-6.375 L 60.375,-6.5 L 61,-6.5
 L 61,-7 L 57,-7 L 57,-4 L 61,-4 z
M 58.4132,-5.00758 L 58.329,-5.03015 L 58.25,-5.06699 L 58.1786,-5.11697 L 58.117,-5.1786 L 58.067,-5.25
 L 58.0302,-5.32898 L 58.0076,-5.41316 L 58,-5.5 L 58.0076,-5.58682 L 58.0302,-5.67101 L 58.067,-5.75
 L 58.117,-5.82138 L 58.1786,-5.88301 L 58.25,-5.933 L 58.329,-5.96983 L 58.4132,-5.9924 L 58.5,-6
 L 58.5868,-5.9924 L 58.671,-5.96983 L 58.75,-5.933 L 58.8214,-5.88301 L 58.883,-5.82138 L 58.933,-5.75
 L 58.9698,-5.67101 L 58.9924,-5.58682 L 59,-5.5 L 58.9924,-5.41316 L 58.9698,-5.32898 L 58.933,-5.25
 L 58.883,-5.1786 L 58.8214,-5.11697 L 58.75,-5.06699 L 58.671,-5.03015 L 58.5868,-5.00758 L 58.5,-5
 z
M 80.5,-4.75 L 76.5,-4.75 L 76.5,-0 L 80.5,-0 z
M 77.4349,-3.38069 L 77.3717,-3.39761 L 77.3125,-3.42523 L 77.2589,-3.46272 L 77.2127,-3.50894 L 77.1752,-3.5625
 L 77.1476,-3.62173 L 77.1307,-3.68488 L 77.125,-3.75 L 77.1307,-3.81511 L 77.1476,-3.87825 L 77.1752,-3.9375
 L 77.2127,-3.99104 L 77.2589,-4.03726 L 77.3125,-4.07475 L 77.3717,-4.10237 L 77.4349,-4.11929 L 77.5,-4.125
 L 77.5651,-4.11929 L 77.6283,-4.10237 L 77.6875,-4.07475 L 77.741,-4.03726 L 77.7873,-3.99104 L 77.8248,-3.9375
 L 77.8524,-3.87825 L 77.8693,-3.81511 L 77.875,-3.75 L 77.8693,-3.68488 L 77.8524,-3.62173 L 77.8248,-3.5625
 L 77.7873,-3.50894 L 77.741,-3.46272 L 77.6875,-3.42523 L 77.6283,-3.39761 L 77.5651,-3.38069 L 77.5,-3.375
 z
M 79.4349,-3.38069 L 79.3717,-3.39761 L 79.3125,-3.42523 L 79.2589,-3.46272 L 79.2127,-3.50894 L 79.1752,-3.5625
 L 79.1476,-3.62173 L 79.1307,-3.68488 L 79.125,-3.75 L 79.1307,-3.81511 L 79.1476,-3.87825 L 79.1752,-3.9375
 L 79.2127,-3.99104 L 79.2589,-4.03726 L 79.3125,-4.07475 L 79.3717,-4.10237 L 79.4349,-4.11929 L 79.5,-4.125
 L 79.5651,-4.11929 L 79.6283,-4.10237 L 79.6875,-4.07475 L 79.741,-4.03726 L 79.7873,-3.99104 L 79.8248,-3.9375
 L 79.8524,-3.87825 L 79.8693,-3.81511 L 79.875,-3.75 L 79.8693,-3.68488 L 79.8524,-3.62173 L 79.8248,-3.5625
 L 79.7873,-3.50894 L 79.741,-3.46272 L 79.6875,-3.42523 L 79.6283,-3.39761 L 79.5651,-3.38069 L 79.5,-3.375
 z
M 77.4132,-0.507584 L 77.329,-0.530151 L 77.25,-0.566986 L 77.1786,-0.616974 L 77.117,-0.678604 L 77.067,-0.75
 L 77.0302,-0.828979 L 77.0076,-0.913162 L 77,-1 L 77.0076,-1.08682 L 77.0302,-1.17101 L 77.067,-1.25
 L 77.117,-1.32138 L 77.1786,-1.38301 L 77.25,-1.433 L 77.329,-1.46983 L 77.4132,-1.4924 L 77.5,-1.5
 L 77.5868,-1.4924 L 77.671,-1.46983 L 77.75,-1.433 L 77.8214,-1.38301 L 77.883,-1.32138 L 77.933,-1.25
 L 77.9698,-1.17101 L 77.9924,-1.08682 L 78,-1 L 77.9924,-0.913162 L 77.9698,-0.828979 L 77.933,-0.75
 L 77.883,-0.678604 L 77.8214,-0.616974 L 77.75,-0.566986 L 77.671,-0.530151 L 77.5868,-0.507584 L 77.5,-0.5
 z
M 79.4132,-0.507584 L 79.329,-0.530151 L 79.25,-0.566986 L 79.1786,-0.616974 L 79.117,-0.678604 L 79.067,-0.75
 L 79.0302,-0.828979 L 79.0076,-0.913162 L 79,-1 L 79.0076,-1.08682 L 79.0302,-1.17101 L 79.067,-1.25
 L 79.117,-1.32138 L 79.1786,-1.38301 L 79.25,-1.433 L 79.329,-1.46983 L 79.4132,-1.4924 L 79.5,-1.5
 L 79.5868,-1.4924 L 79.671,-1.46983 L 79.75,-1.433 L 79.8214,-1.38301 L 79.883,-1.32138 L 79.933,-1.25
 L 79.9698,-1.17101 L 79.9924,-1.08682 L 80,-1 L 79.9924,-0.913162 L 79.9698,-0.828979 L 79.933,-0.75
 L 79.883,-0.678604 L 79.8214,-0.616974 L 79.75,-0.566986 L 79.671,-0.530151 L 79.5868,-0.507584 L 79.5,-0.5
 z
M 69.75,-0.625 L 69.875,-0.625 L 69.875,-0.5 L 71,-0.5 L 71,-1.625 L 70.875,-1.625
 L 70.875,-1.75 L 71.5,-1.75 L 71.5,-2.25 L 70.875,-2.25 L 70.875,-2.375 L 71,-2.375
 L 71,-3.5 L 68,-3.5 L 68,-0.5 L 69.125,-0.5 L 69.125,-0.625 L 69.25,-0.625
 L 69.25,-0 L 69.75,-0 z
M 69.4132,-1.50758 L 69.329,-1.53015 L 69.25,-1.56699 L 69.1786,-1.61697 L 69.117,-1.6786 L 69.067,-1.75
 L 69.0302,-1.82898 L 69.0076,-1.91316 L 69,-2 L 69.0076,-2.08682 L 69.0302,-2.17101 L 69.067,-2.25
 L 69.117,-2.32138 L 69.1786,-2.38301 L 69.25,-2.433 L 69.329,-2.46983 L 69.4132,-2.4924 L 69.5,-2.5
 L 69.5868,-2.4924 L 69.671,-2.46983 L 69.75,-2.433 L 69.8214,-2.38301 L 69.883,-2.32138 L 69.933,-2.25
 L 69.9698,-2.17101 L 69.9924,-2.08682 L 70,-2 L 69.9924,-1.91316 L 69.9698,-1.82898 L 69.933,-1.75
 L 69.883,-1.6786 L 69.8214,-1.61697 L 69.75,-1.56699 L 69.671,-1.53015 L 69.5868,-1.50758 L 69.5,-1.5
 z
M 61,-0.5 L 60.375,-0.5 L 60.375,-0.625 L 60.5,-0.625 L 60.5,-0.875 L 60.375,-0.875
 L 60.375,-2.125 L 60.5,-2.125 L 60.5,-2.375 L 60.375,-2.375 L 60.375,-2.5 L 61,-2.5
 L 61,-3 L 57,-3 L 57,-0 L 61,-0 z
M 58.4132,-1.00758 L 58.329,-1.03015 L 58.25,-1.06699 L 58.1786,-1.11697 L 58.117,-1.1786 L 58.067,-1.25
 L 58.0302,-1.32898 L 58.0076,-1.41316 L 58,-1.5 L 58.0076,-1.58682 L 58.0302,-1.67101 L 58.067,-1.75
 L 58.117,-1.82138 L 58.1786,-1.88301 L 58.25,-1.933 L 58.329,-1.96983 L 58.4132,-1.9924 L 58.5,-2
 L 58.5868,-1.9924 L 58.671,-1.96983 L 58.75,-1.933 L 58.8214,-1.88301 L 58.883,-1.82138 L 58.933,-1.75
 L 58.9698,-1.67101 L 58.9924,-1.58682 L 59,-1.5 L 58.9924,-1.41316 L 58.9698,-1.32898 L 58.933,-1.25
 L 58.883,-1.1786 L 58.8214,-1.11697 L 58.75,-1.06699 L 58.671,-1.03015 L 58.5868,-1.00758 L 58.5,-1
 z
" stroke="black" fill="lightgray" stroke-width="0.5"/>
</svg>
