<?xml version="1.0" standalone="no"?>
<!DOCTYPE svg PUBLIC "-//W3C//DTD SVG 1.1//EN" "http://www.w3.org/Graphics/SVG/1.1/DTD/svg11.dtd">
<svg width="331mm" height="145mm" viewBox="0 -117 331 145" xmlns="http://www.w3.org/2000/svg" version="1.1">
<title>OpenSCAD Model</title>
<path d="
M 124.5,-5.9427 L 123.875,-5.9427 L 123.875,-6.0677 L 124,-6.0677 L 124,-6.5677 L 123.875,-6.5677
 L 123.875,-11.3854 L 124,-11.3854 L 124,-11.8854 L 123.875,-11.8854 L 123.875,-12.0104 L 124.5,-12.0104
 L 124.5,-17.9531 L 123.875,-17.9531 L 123.875,-18.0781 L 124,-18.0781 L 124,-18.5781 L 123.875,-18.5781
 L 123.875,-23.3958 L 124,-23.3958 L 124,-23.8958 L 123.875,-23.8958 L 123.875,-24.0208 L 124.5,-24.0208
 L 124.5,-29.9635 L 123.875,-29.9635 L 123.875,-30.0885 L 124,-30.0885 L 124,-30.5885 L 123.875,-30.5885
 L 123.875,-35.4062 L 124,-35.4062 L 124,-35.9062 L 123.875,-35.9062 L 123.875,-36.0312 L 124.5,-36.0312
 L 124.5,-39 L 125.5,-39 L 125.5,-0 L 129.5,-0 L 129.5,-3 L 132.875,-3
 L 132.875,-3.0625 L 133,-3.0625 L 133,-3.5625 L 132.875,-3.5625 L 132.875,-8.3802 L 133,-8.3802
 L 133,-8.8802 L 132.875,-8.8802 L 132.875,-9.0052 L 133.5,-9.0052 L 133.5,-14.9479 L 132.875,-14.9479
 L 132.875,-15.0729 L 133,-15.0729 L 133,-15.5729 L 132.875,-15.5729 L 132.875,-20.3906 L 133,-20.3906
 L 133,-20.8906 L 132.875,-20.8906 L 132.875,-21.0156 L 133.5,-21.0156 L 133.5,-26.9583 L 132.875,-26.9583
 L 132.875,-27.0833 L 133,-27.0833 L 133,-27.5833 L 132.875,-27.5833 L 132.875,-32.401 L 133,-32.401
 L 133,-32.901 L 132.875,-32.901 L 132.875,-33.026 L 133.5,-33.026 L 133.5,-38.9687 L 132.875,-38.9687
 L 132.875,-39.0937 L 133,-39.0937 L 133,-39.5937 L 132.875,-39.5937 L 132.875,-44.4115 L 133,-44.4115
 L 133,-44.9115 L 132.875,-44.9115 L 132.875,-45.0365 L 133.5,-45.0365 L 133.5,-50.9792 L 132.875,-50.9792
 L 132.875,-51.1042 L 133,-51.1042 L 133,-51.6042 L 132.875,-51.6042 L 132.875,-56.4219 L 133,-56.4219
 L 133,-56.9219 L 132.875,-56.9219 L 132.875,-57.0469 L 133.5,-57.0469 L 133.5,-62.9896 L 132.875,-62.9896
 L 132.875,-63.1146 L 133,-63.1146 L 133,-63.6146 L 132.875,-63.6146 L 132.875,-68.4323 L 133,-68.4323
 L 133,-68.9323 L 132.875,-68.9323 L 132.875,-69.0573 L 133.5,-69.0573 L 133.5,-75 L 127.875,-75
 L 127.875,-77.4062 L 128,-77.4062 L 128,-77.9062 L 127.875,-77.9062 L 127.875,-78.0312 L 128.5,-78.0312
 L 128.5,-84.474 L 127.875,-84.474 L 127.875,-84.599 L 128,-84.599 L 128,-85.099 L 127.875,-85.099
 L 127.875,-90.4167 L 128,-90.4167 L 128,-90.9167 L 127.875,-90.9167 L 127.875,-91.0417 L 128.5,-91.0417
 L 128.5,-97.4844 L 127.875,-97.4844 L 127.875,-97.6094 L 128,-97.6094 L 128,-98.1094 L 127.875,-98.1094
 L 127.875,-103.427 L 128,-103.427 L 128,-103.927 L 127.875,-103.927 L 127.875,-104.052 L 128.5,-104.052
 L 128.5,-110.495 L 127.875,-110.495 L 127.875,-110.62 L 128,-110.62 L 128,-111.12 L 127.875,-111.12
 L 127.875,-116.437 L 128,-116.437 L 128,-116.937 L 127.875,-116.937 L 127.875,-117 L 122.5,-117
 L 122.5,-116.344 L 123.062,-116.344 L 123.062,-116.469 L 123.312,-116.469 L 123.312,-116.219 L 123.188,-116.219
 L 123.188,-115.781 L 123.312,-115.781 L 123.312,-115.531 L 123.062,-115.531 L 123.062,-115.656 L 122.5,-115.656
 L 122.5,-90.3438 L 123.062,-90.3438 L 123.062,-90.4688 L 123.312,-90.4688 L 123.312,-90.2188 L 123.188,-90.2188
 L 123.188,-89.7812 L 123.312,-89.7812 L 123.312,-89.5312 L 123.062,-89.5312 L 123.062,-89.6562 L 122.5,-89.6562
 L 122.5,-72 L 121,-72 L 121,-72.0885 L 120.875,-72.0885 L 120.875,-77.4062 L 121,-77.4062
 L 121,-77.9062 L 120.875,-77.9062 L 120.875,-78.0312 L 121.5,-78.0312 L 121.5,-84.474 L 120.875,-84.474
 L 120.875,-84.599 L 121,-84.599 L 121,-85.099 L 120.875,-85.099 L 120.875,-90.4167 L 121,-90.4167
 L 121,-90.9167 L 120.875,-90.9167 L 120.875,-91.0417 L 121.5,-91.0417 L 121.5,-97.4844 L 120.875,-97.4844
 L 120.875,-97.6094 L 121,-97.6094 L 121,-98.1094 L 120.875,-98.1094 L 120.875,-103.427 L 121,-103.427
 L 121,-103.927 L 120.875,-103.927 L 120.875,-104.052 L 121.5,-104.052 L 121.5,-110.495 L 120.875,-110.495
 L 120.875,-110.62 L 121,-110.62 L 121,-111.12 L 120.875,-111.12 L 120.875,-116.437 L 121,-116.437
 L 121,-116.937 L 120.875,-116.937 L 120.875,-117 L 115.5,-117 L 115.5,-116.344 L 116.062,-116.344
 L 116.062,-116.469 L 116.312,-116.469 L 116.312,-116.219 L 116.188,-116.219 L 116.188,-115.781 L 116.312,-115.781
 L 116.312,-115.531 L 116.062,-115.531 L 116.062,-115.656 L 115.5,-115.656 L 115.5,-90.3438 L 116.062,-90.3438
 L 116.062,-90.4688 L 116.312,-90.4688 L 116.312,-90.2188 L 116.188,-90.2188 L 116.188,-89.7812 L 116.312,-89.7812
 L 116.312,-89.5312 L 116.062,-89.5312 L 116.062,-89.6562 L 115.5,-89.6562 L 115.5,-40.3438 L 116.062,-40.3438
 L 116.062,-40.4688 L 116.312,-40.4688 L 116.312,-40.2188 L 116.188,-40.2188 L 116.188,-39.7812 L 116.312,-39.7812
 L 116.312,-39.5312 L 116.062,-39.5312 L 116.062,-39.6562 L 115.5,-39.6562 L 115.5,-39 L 120.5,-39
 L 120.5,-0 L 124.5,-0 z
M 94.875,-0.0625 L 95,-0.0625 L 95,-0.5625 L 94.875,-0.5625 L 94.875,-5.8802 L 95,-5.8802
 L 95,-6.3802 L 94.875,-6.3802 L 94.875,-6.5052 L 95.5,-6.5052 L 95.5,-12.9479 L 94.875,-12.9479
 L 94.875,-13.0729 L 95,-13.0729 L 95,-13.5729 L 94.875,-13.5729 L 94.875,-18.8906 L 95,-18.8906
 L 95,-19.3906 L 94.875,-19.3906 L 94.875,-19.5156 L 95.5,-19.5156 L 95.5,-25.9583 L 94.875,-25.9583
 L 94.875,-26.0833 L 95,-26.0833 L 95,-26.5833 L 94.875,-26.5833 L 94.875,-31.901 L 95,-31.901
 L 95,-32.401 L 94.875,-32.401 L 94.875,-32.526 L 95.5,-32.526 L 95.5,-38.9687 L 94.875,-38.9687
 L 94.875,-39.0937 L 95,-39.0937 L 95,-39.5937 L 94.875,-39.5937 L 94.875,-44.9115 L 95,-44.9115
 L 95,-45.4115 L 94.875,-45.4115 L 94.875,-45.5365 L 95.5,-45.5365 L 95.5,-51.9792 L 94.875,-51.9792
 L 94.875,-52.1042 L 95,-52.1042 L 95,-52.6042 L 94.875,-52.6042 L 94.875,-57.9219 L 95,-57.9219
 L 95,-58.4219 L 94.875,-58.4219 L 94.875,-58.5469 L 95.5,-58.5469 L 95.5,-64.9896 L 94.875,-64.9896
 L 94.875,-65.1146 L 95,-65.1146 L 95,-65.6146 L 94.875,-65.6146 L 94.875,-70.9323 L 95,-70.9323
 L 95,-71.4323 L 94.875,-71.4323 L 94.875,-71.5573 L 95.5,-71.5573 L 95.5,-78 L 91.5,-78
 L 91.5,-77.3438 L 92.0625,-77.3438 L 92.0625,-77.4688 L 92.3125,-77.4688 L 92.3125,-77.2188 L 92.1875,-77.2188
 L 92.1875,-76.7812 L 92.3125,-76.7812 L 92.3125,-76.5312 L 92.0625,-76.5312 L 92.0625,-76.6562 L 91.5,-76.6562
 L 91.5,-51.3438 L 92.0625,-51.3438 L 92.0625,-51.4688 L 92.3125,-51.4688 L 92.3125,-51.2188 L 92.1875,-51.2188
 L 92.1875,-50.7812 L 92.3125,-50.7812 L 92.3125,-50.5312 L 92.0625,-50.5312 L 92.0625,-50.6562 L 91.5,-50.6562
 L 91.5,-1.34375 L 92.0625,-1.34375 L 92.0625,-1.46875 L 92.3125,-1.46875 L 92.3125,-1.21875 L 92.1875,-1.21875
 L 92.1875,-0.78125 L 92.3125,-0.78125 L 92.3125,-0.53125 L 92.0625,-0.53125 L 92.0625,-0.65625 L 91.5,-0.65625
 L 91.5,-0 L 94.875,-0 z
M 93.4305,-74.6061 L 93.3632,-74.6241 L 93.3,-74.6536 L 93.2429,-74.6936 L 93.1936,-74.7429 L 93.1536,-74.8
 L 93.1241,-74.8632 L 93.1061,-74.9305 L 93.1,-75 L 93.1061,-75.0695 L 93.1241,-75.1368 L 93.1536,-75.2
 L 93.1936,-75.2571 L 93.2429,-75.3064 L 93.3,-75.3464 L 93.3632,-75.3759 L 93.4305,-75.3939 L 93.5,-75.4
 L 93.5695,-75.3939 L 93.6368,-75.3759 L 93.7,-75.3464 L 93.7571,-75.3064 L 93.8064,-75.2571 L 93.8464,-75.2
 L 93.8759,-75.1368 L 93.8939,-75.0695 L 93.9,-75 L 93.8939,-74.9305 L 93.8759,-74.8632 L 93.8464,-74.8
 L 93.8064,-74.7429 L 93.7571,-74.6936 L 93.7,-74.6536 L 93.6368,-74.6241 L 93.5695,-74.6061 L 93.5,-74.6
 z
M 93.4305,-69.6061 L 93.3632,-69.6241 L 93.3,-69.6536 L 93.2429,-69.6936 L 93.1936,-69.7429 L 93.1536,-69.8
 L 93.1241,-69.8632 L 93.1061,-69.9305 L 93.1,-70 L 93.1061,-70.0695 L 93.1241,-70.1368 L 93.1536,-70.2
 L 93.1936,-70.2571 L 93.2429,-70.3064 L 93.3,-70.3464 L 93.3632,-70.3759 L 93.4305,-70.3939 L 93.5,-70.4
 L 93.5695,-70.3939 L 93.6368,-70.3759 L 93.7,-70.3464 L 93.7571,-70.3064 L 93.8064,-70.2571 L 93.8464,-70.2
 L 93.8759,-70.1368 L 93.8939,-70.0695 L 93.9,-70 L 93.8939,-69.9305 L 93.8759,-69.8632 L 93.8464,-69.8
 L 93.8064,-69.7429 L 93.7571,-69.6936 L 93.7,-69.6536 L 93.6368,-69.6241 L 93.5695,-69.6061 L 93.5,-69.6
 z
M 93.4305,-62.1061 L 93.3632,-62.1241 L 93.3,-62.1536 L 93.2429,-62.1936 L 93.1936,-62.2429 L 93.1536,-62.3
 L 93.1241,-62.3632 L 93.1061,-62.4305 L 93.1,-62.5 L 93.1061,-62.5695 L 93.1241,-62.6368 L 93.1536,-62.7
 L 93.1936,-62.7571 L 93.2429,-62.8064 L 93.3,-62.8464 L 93.3632,-62.8759 L 93.4305,-62.8939 L 93.5,-62.9
 L 93.5695,-62.8939 L 93.6368,-62.8759 L 93.7,-62.8464 L 93.7571,-62.8064 L 93.8064,-62.7571 L 93.8464,-62.7
 L 93.8759,-62.6368 L 93.8939,-62.5695 L 93.9,-62.5 L 93.8939,-62.4305 L 93.8759,-62.3632 L 93.8464,-62.3
 L 93.8064,-62.2429 L 93.7571,-62.1936 L 93.7,-62.1536 L 93.6368,-62.1241 L 93.5695,-62.1061 L 93.5,-62.1
 z
M 93.4305,-59.1061 L 93.3632,-59.1241 L 93.3,-59.1536 L 93.2429,-59.1936 L 93.1936,-59.2429 L 93.1536,-59.3
 L 93.1241,-59.3632 L 93.1061,-59.4305 L 93.1,-59.5 L 93.1061,-59.5695 L 93.1241,-59.6368 L 93.1536,-59.7
 L 93.1936,-59.7571 L 93.2429,-59.8064 L 93.3,-59.8464 L 93.3632,-59.8759 L 93.4305,-59.8939 L 93.5,-59.9
 L 93.5695,-59.8939 L 93.6368,-59.8759 L 93.7,-59.8464 L 93.7571,-59.8064 L 93.8064,-59.7571 L 93.8464,-59.7
 L 93.8759,-59.6368 L 93.8939,-59.5695 L 93.9,-59.5 L 93.8939,-59.4305 L 93.8759,-59.3632 L 93.8464,-59.3
 L 93.8064,-59.2429 L 93.7571,-59.1936 L 93.7,-59.1536 L 93.6368,-59.1241 L 93.5695,-59.1061 L 93.5,-59.1
 z
M 93.4305,-55.6061 L 93.3632,-55.6241 L 93.3,-55.6536 L 93.2429,-55.6936 L 93.1936,-55.7429 L 93.1536,-55.8
 L 93.1241,-55.8632 L 93.1061,-55.9305 L 93.1,-56 L 93.1061,-56.0695 L 93.1241,-56.1368 L 93.1536,-56.2
 L 93.1936,-56.2571 L 93.2429,-56.3064 L 93.3,-56.3464 L 93.3632,-56.3759 L 93.4305,-56.3939 L 93.5,-56.4
 L 93.5695,-56.3939 L 93.6368,-56.3759 L 93.7,-56.3464 L 93.7571,-56.3064 L 93.8064,-56.2571 L 93.8464,-56.2
 L 93.8759,-56.1368 L 93.8939,-56.0695 L 93.9,-56 L 93.8939,-55.9305 L 93.8759,-55.8632 L 93.8464,-55.8
 L 93.8064,-55.7429 L 93.7571,-55.6936 L 93.7,-55.6536 L 93.6368,-55.6241 L 93.5695,-55.6061 L 93.5,-55.6
 z
M 93.4305,-45.6061 L 93.3632,-45.6241 L 93.3,-45.6536 L 93.2429,-45.6936 L 93.1936,-45.7429 L 93.1536,-45.8
 L 93.1241,-45.8632 L 93.1061,-45.9305 L 93.1,-46 L 93.1061,-46.0695 L 93.1241,-46.1368 L 93.1536,-46.2
 L 93.1936,-46.2571 L 93.2429,-46.3064 L 93.3,-46.3464 L 93.3632,-46.3759 L 93.4305,-46.3939 L 93.5,-46.4
 L 93.5695,-46.3939 L 93.6368,-46.3759 L 93.7,-46.3464 L 93.7571,-46.3064 L 93.8064,-46.2571 L 93.8464,-46.2
 L 93.8759,-46.1368 L 93.8939,-46.0695 L 93.9,-46 L 93.8939,-45.9305 L 93.8759,-45.8632 L 93.8464,-45.8
 L 93.8064,-45.7429 L 93.7571,-45.6936 L 93.7,-45.6536 L 93.6368,-45.6241 L 93.5695,-45.6061 L 93.5,-45.6
 z
M 93.4305,-42.3561 L 93.3632,-42.3741 L 93.3,-42.4036 L 93.2429,-42.4436 L 93.1936,-42.4929 L 93.1536,-42.55
 L 93.1241,-42.6132 L 93.1061,-42.6805 L 93.1,-42.75 L 93.1061,-42.8195 L 93.1241,-42.8868 L 93.1536,-42.95
 L 93.1936,-43.0071 L 93.2429,-43.0564 L 93.3,-43.0964 L 93.3632,-43.1259 L 93.4305,-43.1439 L 93.5,-43.15
 L 93.5695,-43.1439 L 93.6368,-43.1259 L 93.7,-43.0964 L 93.7571,-43.0564 L 93.8064,-43.0071 L 93.8464,-42.95
 L 93.8759,-42.8868 L 93.8939,-42.8195 L 93.9,-42.75 L 93.8939,-42.6805 L 93.8759,-42.6132 L 93.8464,-42.55
 L 93.8064,-42.4929 L 93.7571,-42.4436 L 93.7,-42.4036 L 93.6368,-42.3741 L 93.5695,-42.3561 L 93.5,-42.35
 z
M 93.4305,-29.8561 L 93.3632,-29.8741 L 93.3,-29.9036 L 93.2429,-29.9436 L 93.1936,-29.9929 L 93.1536,-30.05
 L 93.1241,-30.1132 L 93.1061,-30.1805 L 93.1,-30.25 L 93.1061,-30.3195 L 93.1241,-30.3868 L 93.1536,-30.45
 L 93.1936,-30.5071 L 93.2429,-30.5564 L 93.3,-30.5964 L 93.3632,-30.6259 L 93.4305,-30.6439 L 93.5,-30.65
 L 93.5695,-30.6439 L 93.6368,-30.6259 L 93.7,-30.5964 L 93.7571,-30.5564 L 93.8064,-30.5071 L 93.8464,-30.45
 L 93.8759,-30.3868 L 93.8939,-30.3195 L 93.9,-30.25 L 93.8939,-30.1805 L 93.8759,-30.1132 L 93.8464,-30.05
 L 93.8064,-29.9929 L 93.7571,-29.9436 L 93.7,-29.9036 L 93.6368,-29.8741 L 93.5695,-29.8561 L 93.5,-29.85
 z
M 93.4305,-3.60606 L 93.3632,-3.62411 L 93.3,-3.65358 L 93.2429,-3.69357 L 93.1936,-3.74287 L 93.1536,-3.79999
 L 93.1241,-3.86319 L 93.1061,-3.93053 L 93.1,-4 L 93.1061,-4.06946 L 93.1241,-4.1368 L 93.1536,-4.2
 L 93.1936,-4.25711 L 93.2429,-4.30641 L 93.3,-4.34641 L 93.3632,-4.37587 L 93.4305,-4.39392 L 93.5,-4.39999
 L 93.5695,-4.39392 L 93.6368,-4.37587 L 93.7,-4.34641 L 93.7571,-4.30641 L 93.8064,-4.25711 L 93.8464,-4.2
 L 93.8759,-4.1368 L 93.8939,-4.06946 L 93.9,-4 L 93.8939,-3.93053 L 93.8759,-3.86319 L 93.8464,-3.79999
 L 93.8064,-3.74287 L 93.7571,-3.69357 L 93.7,-3.65358 L 93.6368,-3.62411 L 93.5695,-3.60606 L 93.5,-3.59999
 z
M 93.4305,-1.60606 L 93.3632,-1.62411 L 93.3,-1.65358 L 93.2429,-1.69357 L 93.1936,-1.74287 L 93.1536,-1.79999
 L 93.1241,-1.86319 L 93.1061,-1.93053 L 93.1,-2 L 93.1061,-2.06946 L 93.1241,-2.1368 L 93.1536,-2.2
 L 93.1936,-2.25711 L 93.2429,-2.30641 L 93.3,-2.34641 L 93.3632,-2.37587 L 93.4305,-2.39392 L 93.5,-2.39999
 L 93.5695,-2.39392 L 93.6368,-2.37587 L 93.7,-2.34641 L 93.7571,-2.30641 L 93.8064,-2.25711 L 93.8464,-2.2
 L 93.8759,-2.1368 L 93.8939,-2.06946 L 93.9,-2 L 93.8939,-1.93053 L 93.8759,-1.86319 L 93.8464,-1.79999
 L 93.8064,-1.74287 L 93.7571,-1.69357 L 93.7,-1.65358 L 93.6368,-1.62411 L 93.5695,-1.60606 L 93.5,-1.59999
 z
M 99.875,-0.0625 L 100,-0.0625 L 100,-0.5625 L 99.875,-0.5625 L 99.875,-5.8802 L 100,-5.8802
 L 100,-6.3802 L 99.875,-6.3802 L 99.875,-6.5052 L 100.5,-6.5052 L 100.5,-12.9479 L 99.875,-12.9479
 L 99.875,-13.0729 L 100,-13.0729 L 100,-13.5729 L 99.875,-13.5729 L 99.875,-18.8906 L 100,-18.8906
 L 100,-19.3906 L 99.875,-19.3906 L 99.875,-19.5156 L 100.5,-19.5156 L 100.5,-25.9583 L 99.875,-25.9583
 L 99.875,-26.0833 L 100,-26.0833 L 100,-26.5833 L 99.875,-26.5833 L 99.875,-31.901 L 100,-31.901
 L 100,-32.401 L 99.875,-32.401 L 99.875,-32.526 L 100.5,-32.526 L 100.5,-38.9687 L 99.875,-38.9687
 L 99.875,-39.0937 L 100,-39.0937 L 100,-39.5937 L 99.875,-39.5937 L 99.875,-44.9115 L 100,-44.9115
 L 100,-45.4115 L 99.875,-45.4115 L 99.875,-45.5365 L 100.5,-45.5365 L 100.5,-51.9792 L 99.875,-51.9792
 L 99.875,-52.1042 L 100,-52.1042 L 100,-52.6042 L 99.875,-52.6042 L 99.875,-57.9219 L 100,-57.9219
 L 100,-58.4219 L 99.875,-58.4219 L 99.875,-58.5469 L 100.5,-58.5469 L 100.5,-64.9896 L 99.875,-64.9896
 L 99.875,-65.1146 L 100,-65.1146 L 100,-65.6146 L 99.875,-65.6146 L 99.875,-70.9323 L 100,-70.9323
 L 100,-71.4323 L 99.875,-71.4323 L 99.875,-71.5573 L 100.5,-71.5573 L 100.5,-78 L 96.5,-78
 L 96.5,-77.3438 L 97.0625,-77.3438 L 97.0625,-77.4688 L 97.3125,-77.4688 L 97.3125,-77.2188 L 97.1875,-77.2188
 L 97.1875,-76.7812 L 97.3125,-76.7812 L 97.3125,-76.5312 L 97.0625,-76.5312 L 97.0625,-76.6562 L 96.5,-76.6562
 L 96.5,-51.3438 L 97.0625,-51.3438 L 97.0625,-51.4688 L 97.3125,-51.4688 L 97.3125,-51.2188 L 97.1875,-51.2188
 L 97.1875,-50.7812 L 97.3125,-50.7812 L 97.3125,-50.5312 L 97.0625,-50.5312 L 97.0625,-50.6562 L 96.5,-50.6562
 L 96.5,-1.34375 L 97.0625,-1.34375 L 97.0625,-1.46875 L 97.3125,-1.46875 L 97.3125,-1.21875 L 97.1875,-1.21875
 L 97.1875,-0.78125 L 97.3125,-0.78125 L 97.3125,-0.53125 L 97.0625,-0.53125 L 97.0625,-0.65625 L 96.5,-0.65625
 L 96.5,-0 L 99.875,-0 z
M 98.4305,-74.6061 L 98.3632,-74.6241 L 98.3,-74.6536 L 98.2429,-74.6936 L 98.1936,-74.7429 L 98.1536,-74.8
 L 98.1241,-74.8632 L 98.1061,-74.9305 L 98.1,-75 L 98.1061,-75.0695 L 98.1241,-75.1368 L 98.1536,-75.2
 L 98.1936,-75.2571 L 98.2429,-75.3064 L 98.3,-75.3464 L 98.3632,-75.3759 L 98.4305,-75.3939 L 98.5,-75.4
 L 98.5695,-75.3939 L 98.6368,-75.3759 L 98.7,-75.3464 L 98.7571,-75.3064 L 98.8064,-75.2571 L 98.8464,-75.2
 L 98.8759,-75.1368 L 98.8939,-75.0695 L 98.9,-75 L 98.8939,-74.9305 L 98.8759,-74.8632 L 98.8464,-74.8
 L 98.8064,-74.7429 L 98.7571,-74.6936 L 98.7,-74.6536 L 98.6368,-74.6241 L 98.5695,-74.6061 L 98.5,-74.6
 z
M 98.4305,-69.6061 L 98.3632,-69.6241 L 98.3,-69.6536 L 98.2429,-69.6936 L 98.1936,-69.7429 L 98.1536,-69.8
 L 98.1241,-69.8632 L 98.1061,-69.9305 L 98.1,-70 L 98.1061,-70.0695 L 98.1241,-70.1368 L 98.1536,-70.2
 L 98.1936,-70.2571 L 98.2429,-70.3064 L 98.3,-70.3464 L 98.3632,-70.3759 L 98.4305,-70.3939 L 98.5,-70.4
 L 98.5695,-70.3939 L 98.6368,-70.3759 L 98.7,-70.3464 L 98.7571,-70.3064 L 98.8064,-70.2571 L 98.8464,-70.2
 L 98.8759,-70.1368 L 98.8939,-70.0695 L 98.9,-70 L 98.8939,-69.9305 L 98.8759,-69.8632 L 98.8464,-69.8
 L 98.8064,-69.7429 L 98.7571,-69.6936 L 98.7,-69.6536 L 98.6368,-69.6241 L 98.5695,-69.6061 L 98.5,-69.6
 z
M 98.4305,-62.1061 L 98.3632,-62.1241 L 98.3,-62.1536 L 98.2429,-62.1936 L 98.1936,-62.2429 L 98.1536,-62.3
 L 98.1241,-62.3632 L 98.1061,-62.4305 L 98.1,-62.5 L 98.1061,-62.5695 L 98.1241,-62.6368 L 98.1536,-62.7
 L 98.1936,-62.7571 L 98.2429,-62.8064 L 98.3,-62.8464 L 98.3632,-62.8759 L 98.4305,-62.8939 L 98.5,-62.9
 L 98.5695,-62.8939 L 98.6368,-62.8759 L 98.7,-62.8464 L 98.7571,-62.8064 L 98.8064,-62.7571 L 98.8464,-62.7
 L 98.8759,-62.6368 L 98.8939,-62.5695 L 98.9,-62.5 L 98.8939,-62.4305 L 98.8759,-62.3632 L 98.8464,-62.3
 L 98.8064,-62.2429 L 98.7571,-62.1936 L 98.7,-62.1536 L 98.6368,-62.1241 L 98.5695,-62.1061 L 98.5,-62.1
 z
M 98.4305,-59.1061 L 98.3632,-59.1241 L 98.3,-59.1536 L 98.2429,-59.1936 L 98.1936,-59.2429 L 98.1536,-59.3
 L 98.1241,-59.3632 L 98.1061,-59.4305 L 98.1,-59.5 L 98.1061,-59.5695 L 98.1241,-59.6368 L 98.1536,-59.7
 L 98.1936,-59.7571 L 98.2429,-59.8064 L 98.3,-59.8464 L 98.3632,-59.8759 L 98.4305,-59.8939 L 98.5,-59.9
 L 98.5695,-59.8939 L 98.6368,-59.8759 L 98.7,-59.8464 L 98.7571,-59.8064 L 98.8064,-59.7571 L 98.8464,-59.7
 L 98.8759,-59.6368 L 98.8939,-59.5695 L 98.9,-59.5 L 98.8939,-59.4305 L 98.8759,-59.3632 L 98.8464,-59.3
 L 98.8064,-59.2429 L 98.7571,-59.1936 L 98.7,-59.1536 L 98.6368,-59.1241 L 98.5695,-59.1061 L 98.5,-59.1
 z
M 98.4305,-55.6061 L 98.3632,-55.6241 L 98.3,-55.6536 L 98.2429,-55.6936 L 98.1936,-55.7429 L 98.1536,-55.8
 L 98.1241,-55.8632 L 98.1061,-55.9305 L 98.1,-56 L 98.1061,-56.0695 L 98.1241,-56.1368 L 98.1536,-56.2
 L 98.1936,-56.2571 L 98.2429,-56.3064 L 98.3,-56.3464 L 98.3632,-56.3759 L 98.4305,-56.3939 L 98.5,-56.4
 L 98.5695,-56.3939 L 98.6368,-56.3759 L 98.7,-56.3464 L 98.7571,-56.3064 L 98.8064,-56.2571 L 98.8464,-56.2
 L 98.8759,-56.1368 L 98.8939,-56.0695 L 98.9,-56 L 98.8939,-55.9305 L 98.8759,-55.8632 L 98.8464,-55.8
 L 98.8064,-55.7429 L 98.7571,-55.6936 L 98.7,-55.6536 L 98.6368,-55.6241 L 98.5695,-55.6061 L 98.5,-55.6
 z
M 98.4305,-45.6061 L 98.3632,-45.6241 L 98.3,-45.6536 L 98.2429,-45.6936 L 98.1936,-45.7429 L 98.1536,-45.8
 L 98.1241,-45.8632 L 98.1061,-45.9305 L 98.1,-46 L 98.1061,-46.0695 L 98.1241,-46.1368 L 98.1536,-46.2
 L 98.1936,-46.2571 L 98.2429,-46.3064 L 98.3,-46.3464 L 98.3632,-46.3759 L 98.4305,-46.3939 L 98.5,-46.4
 L 98.5695,-46.3939 L 98.6368,-46.3759 L 98.7,-46.3464 L 98.7571,-46.3064 L 98.8064,-46.2571 L 98.8464,-46.2
 L 98.8759,-46.1368 L 98.8939,-46.0695 L 98.9,-46 L 98.8939,-45.9305 L 98.8759,-45.8632 L 98.8464,-45.8
 L 98.8064,-45.7429 L 98.7571,-45.6936 L 98.7,-45.6536 L 98.6368,-45.6241 L 98.5695,-45.6061 L 98.5,-45.6
 z
M 98.4305,-42.3561 L 98.3632,-42.3741 L 98.3,-42.4036 L 98.2429,-42.4436 L 98.1936,-42.4929 L 98.1536,-42.55
 L 98.1241,-42.6132 L 98.1061,-42.6805 L 98.1,-42.75 L 98.1061,-42.8195 L 98.1241,-42.8868 L 98.1536,-42.95
 L 98.1936,-43.0071 L 98.2429,-43.0564 L 98.3,-43.0964 L 98.3632,-43.1259 L 98.4305,-43.1439 L 98.5,-43.15
 L 98.5695,-43.1439 L 98.6368,-43.1259 L 98.7,-43.0964 L 98.7571,-43.0564 L 98.8064,-43.0071 L 98.8464,-42.95
 L 98.8759,-42.8868 L 98.8939,-42.8195 L 98.9,-42.75 L 98.8939,-42.6805 L 98.8759,-42.6132 L 98.8464,-42.55
 L 98.8064,-42.4929 L 98.7571,-42.4436 L 98.7,-42.4036 L 98.6368,-42.3741 L 98.5695,-42.3561 L 98.5,-42.35
 z
M 98.4305,-29.8561 L 98.3632,-29.8741 L 98.3,-29.9036 L 98.2429,-29.9436 L 98.1936,-29.9929 L 98.1536,-30.05
 L 98.1241,-30.1132 L 98.1061,-30.1805 L 98.1,-30.25 L 98.1061,-30.3195 L 98.1241,-30.3868 L 98.1536,-30.45
 L 98.1936,-30.5071 L 98.2429,-30.5564 L 98.3,-30.5964 L 98.3632,-30.6259 L 98.4305,-30.6439 L 98.5,-30.65
 L 98.5695,-30.6439 L 98.6368,-30.6259 L 98.7,-30.5964 L 98.7571,-30.5564 L 98.8064,-30.5071 L 98.8464,-30.45
 L 98.8759,-30.3868 L 98.8939,-30.3195 L 98.9,-30.25 L 98.8939,-30.1805 L 98.8759,-30.1132 L 98.8464,-30.05
 L 98.8064,-29.9929 L 98.7571,-29.9436 L 98.7,-29.9036 L 98.6368,-29.8741 L 98.5695,-29.8561 L 98.5,-29.85
 z
M 98.4305,-3.60606 L 98.3632,-3.62411 L 98.3,-3.65358 L 98.2429,-3.69357 L 98.1936,-3.74287 L 98.1536,-3.79999
 L 98.1241,-3.86319 L 98.1061,-3.93053 L 98.1,-4 L 98.1061,-4.06946 L 98.1241,-4.1368 L 98.1536,-4.2
 L 98.1936,-4.25711 L 98.2429,-4.30641 L 98.3,-4.34641 L 98.3632,-4.37587 L 98.4305,-4.39392 L 98.5,-4.39999
 L 98.5695,-4.39392 L 98.6368,-4.37587 L 98.7,-4.34641 L 98.7571,-4.30641 L 98.8064,-4.25711 L 98.8464,-4.2
 L 98.8759,-4.1368 L 98.8939,-4.06946 L 98.9,-4 L 98.8939,-3.93053 L 98.8759,-3.86319 L 98.8464,-3.79999
 L 98.8064,-3.74287 L 98.7571,-3.69357 L 98.7,-3.65358 L 98.6368,-3.62411 L 98.5695,-3.60606 L 98.5,-3.59999
 z
M 98.4305,-1.60606 L 98.3632,-1.62411 L 98.3,-1.65358 L 98.2429,-1.69357 L 98.1936,-1.74287 L 98.1536,-1.79999
 L 98.1241,-1.86319 L 98.1061,-1.93053 L 98.1,-2 L 98.1061,-2.06946 L 98.1241,-2.1368 L 98.1536,-2.2
 L 98.1936,-2.25711 L 98.2429,-2.30641 L 98.3,-2.34641 L 98.3632,-2.37587 L 98.4305,-2.39392 L 98.5,-2.39999
 L 98.5695,-2.39392 L 98.6368,-2.37587 L 98.7,-2.34641 L 98.7571,-2.30641 L 98.8064,-2.25711 L 98.8464,-2.2
 L 98.8759,-2.1368 L 98.8939,-2.06946 L 98.9,-2 L 98.8939,-1.93053 L 98.8759,-1.86319 L 98.8464,-1.79999
 L 98.8064,-1.74287 L 98.7571,-1.69357 L 98.7,-1.65358 L 98.6368,-1.62411 L 98.5695,-1.60606 L 98.5,-1.59999
 z
M 139.375,-0.0625 L 139.5,-0.0625 L 139.5,-0.5625 L 139.375,-0.5625 L 139.375,-4.04167 L 140,-3
 L 141,-3 L 141,-3.625 L 140.5,-3.625 L 140.5,-4.43332 L 139.557,-6.0052 L 140,-6.0052
 L 140,-11.9479 L 139.375,-11.9479 L 139.375,-12.0729 L 139.5,-12.0729 L 139.5,-12.5729 L 139.375,-12.5729
 L 139.375,-17.3906 L 139.5,-17.3906 L 139.5,-17.8906 L 139.375,-17.8906 L 139.375,-18.0156 L 140,-18.0156
 L 140,-23.9583 L 139.375,-23.9583 L 139.375,-24.0833 L 139.5,-24.0833 L 139.5,-24.5833 L 139.375,-24.5833
 L 139.375,-29.401 L 139.5,-29.401 L 139.5,-29.901 L 139.375,-29.901 L 139.375,-30.026 L 140,-30.026
 L 140,-35.9687 L 139.375,-35.9687 L 139.375,-36.0937 L 139.5,-36.0937 L 139.5,-36.5937 L 139.375,-36.5937
 L 139.375,-41.4115 L 139.5,-41.4115 L 139.5,-41.9115 L 139.375,-41.9115 L 139.375,-42.0365 L 140,-42.0365
 L 140,-47.9792 L 139.375,-47.9792 L 139.375,-48.1042 L 139.5,-48.1042 L 139.5,-48.6042 L 139.375,-48.6042
 L 139.375,-53.4219 L 139.5,-53.4219 L 139.5,-53.9219 L 139.375,-53.9219 L 139.375,-54.0469 L 140,-54.0469
 L 140,-59.9896 L 139.375,-59.9896 L 139.375,-60.1146 L 139.5,-60.1146 L 139.5,-60.6146 L 139.375,-60.6146
 L 139.375,-65.4323 L 139.5,-65.4323 L 139.5,-65.9323 L 139.375,-65.9323 L 139.375,-66.0573 L 140,-66.0573
 L 140,-72 L 134,-72 L 134,-0 L 139.375,-0 z
M 30.75,-26.625 L 30.875,-26.625 L 30.875,-26.5 L 31.125,-26.5 L 31.125,-26.625 L 34.375,-26.625
 L 34.375,-26.5 L 34.625,-26.5 L 34.625,-26.625 L 34.75,-26.625 L 34.75,-26 L 35.5,-26
 L 35.5,-32.2188 L 35.25,-32.2188 L 35.25,-32.125 L 34.625,-32.125 L 34.625,-32.375 L 34.7188,-32.375
 L 34.7188,-32.625 L 34.625,-32.625 L 34.625,-32.875 L 35.25,-32.875 L 35.25,-32.7812 L 35.5,-32.7812
 L 35.5,-38.2188 L 35.25,-38.2188 L 35.25,-38.125 L 34.625,-38.125 L 34.625,-38.375 L 34.7188,-38.375
 L 34.7188,-38.625 L 34.625,-38.625 L 34.625,-38.875 L 35.25,-38.875 L 35.25,-38.7812 L 35.5,-38.7812
 L 35.5,-44.2188 L 35.25,-44.2188 L 35.25,-44.125 L 34.625,-44.125 L 34.625,-44.375 L 34.7188,-44.375
 L 34.7188,-44.625 L 34.625,-44.625 L 34.625,-44.875 L 35.25,-44.875 L 35.25,-44.7812 L 35.5,-44.7812
 L 35.5,-51 L 34.75,-51 L 34.75,-50.375 L 34.625,-50.375 L 34.625,-50.5 L 34.375,-50.5
 L 34.375,-50.375 L 31.125,-50.375 L 31.125,-50.5 L 30.875,-50.5 L 30.875,-50.375 L 30.75,-50.375
 L 30.75,-51 L 30,-51 L 30,-26 L 30.75,-26 z
M 30.375,-44.125 L 30.375,-44.375 L 30.4688,-44.375 L 30.4688,-44.625 L 30.375,-44.625 L 30.375,-44.875
 L 30.75,-44.875 L 30.75,-44.7812 L 31,-44.7812 L 31,-44.875 L 31.375,-44.875 L 31.375,-44.625
 L 31.2812,-44.625 L 31.2812,-44.375 L 31.375,-44.375 L 31.375,-44.125 L 31,-44.125 L 31,-44.2188
 L 30.75,-44.2188 L 30.75,-44.125 z
M 30.375,-38.125 L 30.375,-38.375 L 30.4688,-38.375 L 30.4688,-38.625 L 30.375,-38.625 L 30.375,-38.875
 L 30.75,-38.875 L 30.75,-38.7812 L 31,-38.7812 L 31,-38.875 L 31.375,-38.875 L 31.375,-38.625
 L 31.2812,-38.625 L 31.2812,-38.375 L 31.375,-38.375 L 31.375,-38.125 L 31,-38.125 L 31,-38.2188
 L 30.75,-38.2188 L 30.75,-38.125 z
M 30.375,-32.125 L 30.375,-32.375 L 30.4688,-32.375 L 30.4688,-32.625 L 30.375,-32.625 L 30.375,-32.875
 L 30.75,-32.875 L 30.75,-32.7812 L 31,-32.7812 L 31,-32.875 L 31.375,-32.875 L 31.375,-32.625
 L 31.2812,-32.625 L 31.2812,-32.375 L 31.375,-32.375 L 31.375,-32.125 L 31,-32.125 L 31,-32.2188
 L 30.75,-32.2188 L 30.75,-32.125 z
M 195,-8.17346 L 194.375,-8.17346 L 194.375,-8.42346 L 194.5,-8.42346 L 194.5,-8.92346 L 194.375,-8.92346
 L 194.375,-15.5969 L 194.5,-15.5969 L 194.5,-16.0969 L 194.375,-16.0969 L 194.375,-16.3469 L 195,-16.3469
 L 195,-24.5204 L 194.375,-24.5204 L 194.375,-24.7704 L 194.5,-24.7704 L 194.5,-25.2704 L 194.375,-25.2704
 L 194.375,-31.9439 L 194.5,-31.9439 L 194.5,-32.4439 L 194.375,-32.4439 L 194.375,-32.6939 L 195,-32.6939
 L 195,-40.8673 L 194.375,-40.8673 L 194.375,-41.1173 L 194.5,-41.1173 L 194.5,-41.6173 L 194.375,-41.6173
 L 194.375,-48.2908 L 194.5,-48.2908 L 194.5,-48.7908 L 194.375,-48.7908 L 194.375,-49.0408 L 191.031,-49.0408
 L 191.031,-48.6345 L 191.156,-48.6345 L 191.156,-48.3845 L 190.906,-48.3845 L 190.906,-48.5095 L 190.5,-48.5095
 L 190.5,-43.2408 L 191.9,-43.2408 L 191.9,-36.8408 L 190.5,-36.8408 L 190.5,-26.0437 L 190.906,-26.0437
 L 190.906,-26.1687 L 191.156,-26.1687 L 191.156,-25.9187 L 191.031,-25.9187 L 191.031,-25.6062 L 191.156,-25.6062
 L 191.156,-25.3562 L 190.906,-25.3562 L 190.906,-25.4812 L 190.5,-25.4812 L 190.5,-0.53125 L 190.906,-0.53125
 L 190.906,-0.65625 L 191.156,-0.65625 L 191.156,-0.40625 L 191.031,-0.40625 L 191.031,-0 L 195,-0
 z
M 192.934,-47.1666 L 192.87,-47.1837 L 192.81,-47.2117 L 192.756,-47.2497 L 192.709,-47.2965 L 192.671,-47.3508
 L 192.643,-47.4108 L 192.626,-47.4748 L 192.62,-47.5408 L 192.626,-47.6068 L 192.643,-47.6708 L 192.671,-47.7308
 L 192.709,-47.785 L 192.756,-47.8319 L 192.81,-47.8699 L 192.87,-47.8979 L 192.934,-47.915 L 193,-47.9208
 L 193.066,-47.915 L 193.13,-47.8979 L 193.19,-47.8699 L 193.244,-47.8319 L 193.291,-47.785 L 193.329,-47.7308
 L 193.357,-47.6708 L 193.374,-47.6068 L 193.38,-47.5408 L 193.374,-47.4748 L 193.357,-47.4108 L 193.329,-47.3508
 L 193.291,-47.2965 L 193.244,-47.2497 L 193.19,-47.2117 L 193.13,-47.1837 L 193.066,-47.1666 L 193,-47.1608
 z
M 192.934,-44.1666 L 192.87,-44.1837 L 192.81,-44.2117 L 192.756,-44.2497 L 192.709,-44.2965 L 192.671,-44.3508
 L 192.643,-44.4108 L 192.626,-44.4748 L 192.62,-44.5408 L 192.626,-44.6068 L 192.643,-44.6708 L 192.671,-44.7308
 L 192.709,-44.785 L 192.756,-44.8319 L 192.81,-44.8699 L 192.87,-44.8979 L 192.934,-44.915 L 193,-44.9208
 L 193.066,-44.915 L 193.13,-44.8979 L 193.19,-44.8699 L 193.244,-44.8319 L 193.291,-44.785 L 193.329,-44.7308
 L 193.357,-44.6708 L 193.374,-44.6068 L 193.38,-44.5408 L 193.374,-44.4748 L 193.357,-44.4108 L 193.329,-44.3508
 L 193.291,-44.2965 L 193.244,-44.2497 L 193.19,-44.2117 L 193.13,-44.1837 L 193.066,-44.1666 L 193,-44.1608
 z
M 192.913,-34.5176 L 192.828,-34.5403 L 192.749,-34.5773 L 192.677,-34.6275 L 192.615,-34.6895 L 192.565,-34.7612
 L 192.528,-34.8406 L 192.505,-34.9252 L 192.497,-35.0125 L 192.505,-35.0997 L 192.528,-35.1844 L 192.565,-35.2637
 L 192.615,-35.3355 L 192.677,-35.3974 L 192.749,-35.4477 L 192.828,-35.4847 L 192.913,-35.5074 L 193,-35.515
 L 193.087,-35.5074 L 193.172,-35.4847 L 193.251,-35.4477 L 193.323,-35.3974 L 193.385,-35.3355 L 193.435,-35.2637
 L 193.472,-35.1844 L 193.495,-35.0997 L 193.502,-35.0125 L 193.495,-34.9252 L 193.472,-34.8406 L 193.435,-34.7612
 L 193.385,-34.6895 L 193.323,-34.6275 L 193.251,-34.5773 L 193.172,-34.5403 L 193.087,-34.5176 L 193,-34.51
 z
M 192.913,-31.5176 L 192.828,-31.5403 L 192.749,-31.5773 L 192.677,-31.6275 L 192.615,-31.6895 L 192.565,-31.7612
 L 192.528,-31.8406 L 192.505,-31.9252 L 192.497,-32.0125 L 192.505,-32.0997 L 192.528,-32.1844 L 192.565,-32.2637
 L 192.615,-32.3355 L 192.677,-32.3974 L 192.749,-32.4477 L 192.828,-32.4847 L 192.913,-32.5074 L 193,-32.515
 L 193.087,-32.5074 L 193.172,-32.4847 L 193.251,-32.4477 L 193.323,-32.3974 L 193.385,-32.3355 L 193.435,-32.2637
 L 193.472,-32.1844 L 193.495,-32.0997 L 193.502,-32.0125 L 193.495,-31.9252 L 193.472,-31.8406 L 193.435,-31.7612
 L 193.385,-31.6895 L 193.323,-31.6275 L 193.251,-31.5773 L 193.172,-31.5403 L 193.087,-31.5176 L 193,-31.51
 z
M 192.913,-27.5176 L 192.828,-27.5403 L 192.749,-27.5773 L 192.677,-27.6275 L 192.615,-27.6895 L 192.565,-27.7612
 L 192.528,-27.8406 L 192.505,-27.9252 L 192.497,-28.0125 L 192.505,-28.0997 L 192.528,-28.1844 L 192.565,-28.2637
 L 192.615,-28.3355 L 192.677,-28.3974 L 192.749,-28.4477 L 192.828,-28.4847 L 192.913,-28.5074 L 193,-28.515
 L 193.087,-28.5074 L 193.172,-28.4847 L 193.251,-28.4477 L 193.323,-28.3974 L 193.385,-28.3355 L 193.435,-28.2637
 L 193.472,-28.1844 L 193.495,-28.0997 L 193.502,-28.0125 L 193.495,-27.9252 L 193.472,-27.8406 L 193.435,-27.7612
 L 193.385,-27.6895 L 193.323,-27.6275 L 193.251,-27.5773 L 193.172,-27.5403 L 193.087,-27.5176 L 193,-27.51
 z
M 192.934,-5.62576 L 192.87,-5.64291 L 192.81,-5.6709 L 192.756,-5.70889 L 192.709,-5.75574 L 192.671,-5.81
 L 192.643,-5.87003 L 192.626,-5.93401 L 192.62,-6 L 192.626,-6.06598 L 192.643,-6.12996 L 192.671,-6.18999
 L 192.709,-6.24425 L 192.756,-6.29109 L 192.81,-6.32909 L 192.87,-6.35707 L 192.934,-6.37422 L 193,-6.37999
 L 193.066,-6.37422 L 193.13,-6.35707 L 193.19,-6.32909 L 193.244,-6.29109 L 193.291,-6.24425 L 193.329,-6.18999
 L 193.357,-6.12996 L 193.374,-6.06598 L 193.38,-6 L 193.374,-5.93401 L 193.357,-5.87003 L 193.329,-5.81
 L 193.291,-5.75574 L 193.244,-5.70889 L 193.19,-5.6709 L 193.13,-5.64291 L 193.066,-5.62576 L 193,-5.62
 z
M 192.934,-1.62576 L 192.87,-1.64291 L 192.81,-1.6709 L 192.756,-1.70889 L 192.709,-1.75574 L 192.671,-1.81
 L 192.643,-1.87003 L 192.626,-1.93401 L 192.62,-2 L 192.626,-2.06598 L 192.643,-2.12996 L 192.671,-2.18999
 L 192.709,-2.24425 L 192.756,-2.29109 L 192.81,-2.32909 L 192.87,-2.35707 L 192.934,-2.37422 L 193,-2.37999
 L 193.066,-2.37422 L 193.13,-2.35707 L 193.19,-2.32909 L 193.244,-2.29109 L 193.291,-2.24425 L 193.329,-2.18999
 L 193.357,-2.12996 L 193.374,-2.06598 L 193.38,-2 L 193.374,-1.93401 L 193.357,-1.87003 L 193.329,-1.81
 L 193.291,-1.75574 L 193.244,-1.70889 L 193.19,-1.6709 L 193.13,-1.64291 L 193.066,-1.62576 L 193,-1.62
 z
M 188.875,-0.249985 L 189,-0.249985 L 189,-0.749985 L 188.875,-0.749985 L 188.875,-7.42346 L 189,-7.42346
 L 189,-7.92346 L 188.875,-7.92346 L 188.875,-8.17346 L 189.5,-8.17346 L 189.5,-16.3469 L 188.875,-16.3469
 L 188.875,-16.5969 L 189,-16.5969 L 189,-17.0969 L 188.875,-17.0969 L 188.875,-23.7704 L 189,-23.7704
 L 189,-24.2704 L 188.875,-24.2704 L 188.875,-24.5204 L 189.5,-24.5204 L 189.5,-32.6939 L 188.875,-32.6939
 L 188.875,-32.9439 L 189,-32.9439 L 189,-33.4439 L 188.875,-33.4439 L 188.875,-40.1173 L 189,-40.1173
 L 189,-40.6173 L 188.875,-40.6173 L 188.875,-40.8673 L 189.5,-40.8673 L 189.5,-49.0408 L 183.5,-49.0408
 L 183.5,-40.8673 L 184.125,-40.8673 L 184.125,-40.6173 L 184,-40.6173 L 184,-40.1173 L 184.125,-40.1173
 L 184.125,-33.4439 L 184,-33.4439 L 184,-32.9439 L 184.125,-32.9439 L 184.125,-32.6939 L 183.5,-32.6939
 L 183.5,-24.5204 L 184.125,-24.5204 L 184.125,-24.2704 L 184,-24.2704 L 184,-23.7704 L 184.125,-23.7704
 L 184.125,-17.0969 L 184,-17.0969 L 184,-16.5969 L 184.125,-16.5969 L 184.125,-16.3469 L 183.5,-16.3469
 L 183.5,-8.17346 L 184.125,-8.17346 L 184.125,-7.92346 L 184,-7.92346 L 184,-7.42346 L 184.125,-7.42346
 L 184.125,-0.75 L 184,-0.75 L 184,-0.25 L 184.125,-0.25 L 184.125,-0 L 188.875,-0
 z
M 186.413,-35.3901 L 186.329,-35.4126 L 186.25,-35.4495 L 186.179,-35.4995 L 186.117,-35.5611 L 186.067,-35.6325
 L 186.03,-35.7115 L 186.008,-35.7957 L 186,-35.8825 L 186,-36.1425 L 186.008,-36.2293 L 186.03,-36.3135
 L 186.067,-36.3925 L 186.117,-36.4639 L 186.179,-36.5255 L 186.25,-36.5755 L 186.329,-36.6123 L 186.413,-36.6349
 L 186.5,-36.6425 L 186.587,-36.6349 L 186.671,-36.6123 L 186.75,-36.5755 L 186.821,-36.5255 L 186.883,-36.4639
 L 186.933,-36.3925 L 186.97,-36.3135 L 186.992,-36.2293 L 187,-36.1425 L 187,-35.8825 L 186.992,-35.7957
 L 186.97,-35.7115 L 186.933,-35.6325 L 186.883,-35.5611 L 186.821,-35.4995 L 186.75,-35.4495 L 186.671,-35.4126
 L 186.587,-35.3901 L 186.5,-35.3825 z
M 186.413,-28.3901 L 186.329,-28.4126 L 186.25,-28.4495 L 186.179,-28.4995 L 186.117,-28.5611 L 186.067,-28.6325
 L 186.03,-28.7115 L 186.008,-28.7957 L 186,-28.8825 L 186,-29.1425 L 186.008,-29.2293 L 186.03,-29.3135
 L 186.067,-29.3925 L 186.117,-29.4639 L 186.179,-29.5255 L 186.25,-29.5755 L 186.329,-29.6123 L 186.413,-29.6349
 L 186.5,-29.6425 L 186.587,-29.6349 L 186.671,-29.6123 L 186.75,-29.5755 L 186.821,-29.5255 L 186.883,-29.4639
 L 186.933,-29.3925 L 186.97,-29.3135 L 186.992,-29.2293 L 187,-29.1425 L 187,-28.8825 L 186.992,-28.7957
 L 186.97,-28.7115 L 186.933,-28.6325 L 186.883,-28.5611 L 186.821,-28.4995 L 186.75,-28.4495 L 186.671,-28.4126
 L 186.587,-28.3901 L 186.5,-28.3825 z
M 152.5,-16.6942 L 151.875,-16.6942 L 151.875,-16.8192 L 152,-16.8192 L 152,-45.9576 L 151.875,-45.9576
 L 151.875,-46.0826 L 152.5,-46.0826 L 152.5,-47.0826 L 149,-47.0826 L 149,-15.6942 L 152.5,-15.6942
 z
M 173.5,-4 L 172.875,-4 L 172.875,-5 L 173,-5 L 173,-6 L 172.875,-6
 L 172.875,-18.0942 L 173,-18.0942 L 173,-19.0942 L 172.875,-19.0942 L 172.875,-20.0942 L 173.5,-20.0942
 L 173.5,-22.0942 L 172.875,-22.0942 L 172.875,-23.0942 L 173,-23.0942 L 173,-24.0942 L 172.875,-24.0942
 L 172.875,-36.1884 L 173,-36.1884 L 173,-37.1884 L 172.875,-37.1884 L 172.875,-38.1884 L 173.5,-38.1884
 L 173.5,-42.1884 L 170,-42.1884 L 170,-0 L 173.5,-0 z
M 171.413,-39.696 L 171.329,-39.7186 L 171.25,-39.7554 L 171.179,-39.8054 L 171.117,-39.867 L 171.067,-39.9384
 L 171.03,-40.0174 L 171.008,-40.1016 L 171,-40.1884 L 171.008,-40.2752 L 171.03,-40.3594 L 171.067,-40.4384
 L 171.117,-40.5098 L 171.179,-40.5714 L 171.25,-40.6214 L 171.329,-40.6582 L 171.413,-40.6808 L 171.5,-40.6884
 L 171.587,-40.6808 L 171.671,-40.6582 L 171.75,-40.6214 L 171.821,-40.5714 L 171.883,-40.5098 L 171.933,-40.4384
 L 171.97,-40.3594 L 171.992,-40.2752 L 172,-40.1884 L 171.992,-40.1016 L 171.97,-40.0174 L 171.933,-39.9384
 L 171.883,-39.867 L 171.821,-39.8054 L 171.75,-39.7554 L 171.671,-39.7186 L 171.587,-39.696 L 171.5,-39.6884
 z
M 171.413,-1.50758 L 171.329,-1.53015 L 171.25,-1.56699 L 171.179,-1.61697 L 171.117,-1.6786 L 171.067,-1.75
 L 171.03,-1.82898 L 171.008,-1.91316 L 171,-2 L 171.008,-2.08682 L 171.03,-2.17101 L 171.067,-2.25
 L 171.117,-2.32138 L 171.179,-2.38301 L 171.25,-2.433 L 171.329,-2.46983 L 171.413,-2.4924 L 171.5,-2.5
 L 171.587,-2.4924 L 171.671,-2.46983 L 171.75,-2.433 L 171.821,-2.38301 L 171.883,-2.32138 L 171.933,-2.25
 L 171.97,-2.17101 L 171.992,-2.08682 L 172,-2 L 171.992,-1.91316 L 171.97,-1.82898 L 171.933,-1.75
 L 171.883,-1.6786 L 171.821,-1.61697 L 171.75,-1.56699 L 171.671,-1.53015 L 171.587,-1.50758 L 171.5,-1.5
 z
M 158,-21.9067 L 158.438,-21.9067 L 158.438,-22.0317 L 158.688,-22.0317 L 158.688,-21.7817 L 158.562,-21.7817
 L 158.562,-19.9067 L 158.688,-19.9067 L 158.688,-19.6567 L 158.438,-19.6567 L 158.438,-19.7817 L 158,-19.7817
 L 158,-3.75 L 158.625,-3.75 L 158.625,-3.625 L 158.5,-3.625 L 158.5,-2.625 L 158.625,-2.625
 L 158.625,-0.875 L 158.5,-0.875 L 158.5,-0.340897 L 163.5,-3.75 L 169,-3.75 L 169,-37.9384
 L 163.5,-37.9384 L 158.5,-41.3475 L 158.5,-40.8134 L 158.625,-40.8134 L 158.625,-39.0634 L 158.5,-39.0634
 L 158.5,-38.0634 L 158.625,-38.0634 L 158.625,-37.9384 L 158,-37.9384 z
M 166.913,-34.9435 L 166.828,-34.9662 L 166.749,-35.0032 L 166.677,-35.0535 L 166.615,-35.1154 L 166.565,-35.1871
 L 166.528,-35.2665 L 166.505,-35.3511 L 166.497,-35.4384 L 166.505,-35.5257 L 166.528,-35.6103 L 166.565,-35.6896
 L 166.615,-35.7614 L 166.677,-35.8233 L 166.749,-35.8736 L 166.828,-35.9106 L 166.913,-35.9333 L 167,-35.9409
 L 167.087,-35.9333 L 167.172,-35.9106 L 167.251,-35.8736 L 167.323,-35.8233 L 167.385,-35.7614 L 167.435,-35.6896
 L 167.472,-35.6103 L 167.495,-35.5257 L 167.502,-35.4384 L 167.495,-35.3511 L 167.472,-35.2665 L 167.435,-35.1871
 L 167.385,-35.1154 L 167.323,-35.0535 L 167.251,-35.0032 L 167.172,-34.9662 L 167.087,-34.9435 L 167,-34.9359
 z
M 159.913,-34.9435 L 159.828,-34.9662 L 159.749,-35.0032 L 159.677,-35.0535 L 159.615,-35.1154 L 159.565,-35.1871
 L 159.528,-35.2665 L 159.505,-35.3511 L 159.497,-35.4384 L 159.505,-35.5257 L 159.528,-35.6103 L 159.565,-35.6896
 L 159.615,-35.7614 L 159.677,-35.8233 L 159.749,-35.8736 L 159.828,-35.9106 L 159.913,-35.9333 L 160,-35.9409
 L 160.087,-35.9333 L 160.172,-35.9106 L 160.251,-35.8736 L 160.323,-35.8233 L 160.385,-35.7614 L 160.435,-35.6896
 L 160.472,-35.6103 L 160.495,-35.5257 L 160.502,-35.4384 L 160.495,-35.3511 L 160.472,-35.2665 L 160.435,-35.1871
 L 160.385,-35.1154 L 160.323,-35.0535 L 160.251,-35.0032 L 160.172,-34.9662 L 160.087,-34.9435 L 160,-34.9359
 z
M 162.913,-34.9435 L 162.828,-34.9662 L 162.749,-35.0032 L 162.677,-35.0535 L 162.615,-35.1154 L 162.565,-35.1871
 L 162.528,-35.2665 L 162.505,-35.3511 L 162.497,-35.4384 L 162.505,-35.5257 L 162.528,-35.6103 L 162.565,-35.6896
 L 162.615,-35.7614 L 162.677,-35.8233 L 162.749,-35.8736 L 162.828,-35.9106 L 162.913,-35.9333 L 163,-35.9409
 L 163.087,-35.9333 L 163.172,-35.9106 L 163.251,-35.8736 L 163.323,-35.8233 L 163.385,-35.7614 L 163.435,-35.6896
 L 163.472,-35.6103 L 163.495,-35.5257 L 163.502,-35.4384 L 163.495,-35.3511 L 163.472,-35.2665 L 163.435,-35.1871
 L 163.385,-35.1154 L 163.323,-35.0535 L 163.251,-35.0032 L 163.172,-34.9662 L 163.087,-34.9435 L 163,-34.9359
 z
M 161.062,-32.8129 L 161.062,-33.0629 L 161.188,-33.0629 L 161.188,-33.9379 L 161.062,-33.9379 L 161.062,-34.1879
 L 161.312,-34.1879 L 161.312,-34.0629 L 161.688,-34.0629 L 161.688,-34.1879 L 161.938,-34.1879 L 161.938,-33.9379
 L 161.812,-33.9379 L 161.812,-33.0629 L 161.938,-33.0629 L 161.938,-32.8129 L 161.688,-32.8129 L 161.688,-32.9379
 L 161.312,-32.9379 L 161.312,-32.8129 z
M 161.062,-7.50044 L 161.062,-7.75044 L 161.188,-7.75044 L 161.188,-8.62544 L 161.062,-8.62544 L 161.062,-8.87544
 L 161.312,-8.87544 L 161.312,-8.75044 L 161.688,-8.75044 L 161.688,-8.87544 L 161.938,-8.87544 L 161.938,-8.62544
 L 161.812,-8.62544 L 161.812,-7.75044 L 161.938,-7.75044 L 161.938,-7.50044 L 161.688,-7.50044 L 161.688,-7.62544
 L 161.312,-7.62544 L 161.312,-7.50044 z
M 166.913,-5.75513 L 166.828,-5.7778 L 166.749,-5.81482 L 166.677,-5.86505 L 166.615,-5.92699 L 166.565,-5.99875
 L 166.528,-6.07812 L 166.505,-6.16273 L 166.497,-6.25 L 166.505,-6.33725 L 166.528,-6.42186 L 166.565,-6.50124
 L 166.615,-6.573 L 166.677,-6.63493 L 166.749,-6.68517 L 166.828,-6.72218 L 166.913,-6.74486 L 167,-6.75249
 L 167.087,-6.74486 L 167.172,-6.72218 L 167.251,-6.68517 L 167.323,-6.63493 L 167.385,-6.573 L 167.435,-6.50124
 L 167.472,-6.42186 L 167.495,-6.33725 L 167.502,-6.25 L 167.495,-6.16273 L 167.472,-6.07812 L 167.435,-5.99875
 L 167.385,-5.92699 L 167.323,-5.86505 L 167.251,-5.81482 L 167.172,-5.7778 L 167.087,-5.75513 L 167,-5.7475
 z
M 159.913,-5.75513 L 159.828,-5.7778 L 159.749,-5.81482 L 159.677,-5.86505 L 159.615,-5.92699 L 159.565,-5.99875
 L 159.528,-6.07812 L 159.505,-6.16273 L 159.497,-6.25 L 159.505,-6.33725 L 159.528,-6.42186 L 159.565,-6.50124
 L 159.615,-6.573 L 159.677,-6.63493 L 159.749,-6.68517 L 159.828,-6.72218 L 159.913,-6.74486 L 160,-6.75249
 L 160.087,-6.74486 L 160.172,-6.72218 L 160.251,-6.68517 L 160.323,-6.63493 L 160.385,-6.573 L 160.435,-6.50124
 L 160.472,-6.42186 L 160.495,-6.33725 L 160.502,-6.25 L 160.495,-6.16273 L 160.472,-6.07812 L 160.435,-5.99875
 L 160.385,-5.92699 L 160.323,-5.86505 L 160.251,-5.81482 L 160.172,-5.7778 L 160.087,-5.75513 L 160,-5.7475
 z
M 162.913,-5.75513 L 162.828,-5.7778 L 162.749,-5.81482 L 162.677,-5.86505 L 162.615,-5.92699 L 162.565,-5.99875
 L 162.528,-6.07812 L 162.505,-6.16273 L 162.497,-6.25 L 162.505,-6.33725 L 162.528,-6.42186 L 162.565,-6.50124
 L 162.615,-6.573 L 162.677,-6.63493 L 162.749,-6.68517 L 162.828,-6.72218 L 162.913,-6.74486 L 163,-6.75249
 L 163.087,-6.74486 L 163.172,-6.72218 L 163.251,-6.68517 L 163.323,-6.63493 L 163.385,-6.573 L 163.435,-6.50124
 L 163.472,-6.42186 L 163.495,-6.33725 L 163.502,-6.25 L 163.495,-6.16273 L 163.472,-6.07812 L 163.435,-5.99875
 L 163.385,-5.92699 L 163.323,-5.86505 L 163.251,-5.81482 L 163.172,-5.7778 L 163.087,-5.75513 L 163,-5.7475
 z
M 28.4688,-20.1562 L 28.3438,-20.1562 L 28.3438,-20.4062 L 28.5938,-20.4062 L 28.5938,-20.2812 L 29,-20.2812
 L 29,-23.7188 L 28.5938,-23.7188 L 28.5938,-23.5938 L 28.3438,-23.5938 L 28.3438,-23.8438 L 28.4688,-23.8438
 L 28.4688,-24.4688 L 28.0938,-24.4688 L 28.0938,-24.3438 L 27.8438,-24.3438 L 27.8438,-24.5938 L 27.9688,-24.5938
 L 27.9688,-24.9062 L 27.8438,-24.9062 L 27.8438,-25.1562 L 28.4688,-25.1562 L 28.4688,-25.0312 L 29,-25.0312
 L 29,-30.9688 L 28.5938,-30.9688 L 28.5938,-30.8438 L 28.0938,-30.8438 L 28.0938,-31.0938 L 28.2188,-31.0938
 L 28.2188,-31.4062 L 28.0938,-31.4062 L 28.0938,-31.6562 L 28.3438,-31.6562 L 28.3438,-31.5312 L 28.4688,-31.5312
 L 28.4688,-31.9062 L 28.3438,-31.9062 L 28.3438,-32.1562 L 28.7188,-32.1562 L 28.7188,-32.0312 L 29,-32.0312
 L 29,-36.9688 L 28.5938,-36.9688 L 28.5938,-36.8438 L 28.3438,-36.8438 L 28.3438,-37.0938 L 28.4688,-37.0938
 L 28.4688,-37.4688 L 28.3438,-37.4688 L 28.3438,-37.3438 L 28.0938,-37.3438 L 28.0938,-37.5938 L 28.2188,-37.5938
 L 28.2188,-38 L 24.2812,-38 L 24.2812,-37.5938 L 24.4062,-37.5938 L 24.4062,-37.3438 L 23.9062,-37.3438
 L 23.9062,-37.4688 L 23,-37.4688 L 23,-32.5312 L 23.4062,-32.5312 L 23.4062,-32.6562 L 23.6562,-32.6562
 L 23.6562,-32.0312 L 23.5312,-32.0312 L 23.5312,-31.5312 L 24.0312,-31.5312 L 24.0312,-31.6562 L 24.4062,-31.6562
 L 24.4062,-31.4062 L 24.2812,-31.4062 L 24.2812,-31.0938 L 24.4062,-31.0938 L 24.4062,-30.8438 L 24.0312,-30.8438
 L 24.0312,-30.9688 L 23,-30.9688 L 23,-25.0312 L 23.4062,-25.0312 L 23.4062,-25.1562 L 23.6562,-25.1562
 L 23.6562,-24.9062 L 23.5312,-24.9062 L 23.5312,-24.5938 L 23.6562,-24.5938 L 23.6562,-24.3438 L 23.4062,-24.3438
 L 23.4062,-24.4688 L 23,-24.4688 L 23,-21.5312 L 23.4062,-21.5312 L 23.4062,-21.6562 L 23.6562,-21.6562
 L 23.6562,-21.4062 L 23.5312,-21.4062 L 23.5312,-19.5 L 28.4688,-19.5 z
M 26.4895,-21.5228 L 26.237,-21.5905 L 26,-21.701 L 25.7858,-21.8509 L 25.6009,-22.0358 L 25.451,-22.25
 L 25.3405,-22.487 L 25.2728,-22.7395 L 25.25,-23 L 25.2728,-23.2605 L 25.3405,-23.513 L 25.451,-23.75
 L 25.6009,-23.9642 L 25.7858,-24.1491 L 26,-24.299 L 26.237,-24.4095 L 26.4895,-24.4772 L 26.75,-24.5
 L 27.0105,-24.4772 L 27.263,-24.4095 L 27.5,-24.299 L 27.7142,-24.1491 L 27.8991,-23.9642 L 28.049,-23.75
 L 28.1595,-23.513 L 28.2272,-23.2605 L 28.25,-23 L 28.2272,-22.7395 L 28.1595,-22.487 L 28.049,-22.25
 L 27.8991,-22.0358 L 27.7142,-21.8509 L 27.5,-21.701 L 27.263,-21.5905 L 27.0105,-21.5228 L 26.75,-21.5
 z
M 75.5,-37 L 72.5,-37 L 72.5,-19 L 75.5,-19 z
M 73.83,-35.4769 L 73.6767,-35.555 L 73.555,-35.6767 L 73.4769,-35.83 L 73.45,-36 L 73.4769,-36.17
 L 73.555,-36.3233 L 73.6767,-36.4449 L 73.83,-36.5231 L 74,-36.55 L 74.17,-36.5231 L 74.3233,-36.4449
 L 74.4449,-36.3233 L 74.5231,-36.17 L 74.55,-36 L 74.5231,-35.83 L 74.4449,-35.6767 L 74.3233,-35.555
 L 74.17,-35.4769 L 74,-35.45 z
M 73.83,-32.4769 L 73.6767,-32.555 L 73.555,-32.6767 L 73.4769,-32.83 L 73.45,-33 L 73.4769,-33.17
 L 73.555,-33.3233 L 73.6767,-33.4449 L 73.83,-33.5231 L 74,-33.55 L 74.17,-33.5231 L 74.3233,-33.4449
 L 74.4449,-33.3233 L 74.5231,-33.17 L 74.55,-33 L 74.5231,-32.83 L 74.4449,-32.6767 L 74.3233,-32.555
 L 74.17,-32.4769 L 74,-32.45 z
M 73.83,-27.4769 L 73.6767,-27.555 L 73.555,-27.6767 L 73.4769,-27.83 L 73.45,-28 L 73.4769,-28.17
 L 73.555,-28.3233 L 73.6767,-28.4449 L 73.83,-28.5231 L 74,-28.55 L 74.17,-28.5231 L 74.3233,-28.4449
 L 74.4449,-28.3233 L 74.5231,-28.17 L 74.55,-28 L 74.5231,-27.83 L 74.4449,-27.6767 L 74.3233,-27.555
 L 74.17,-27.4769 L 74,-27.45 z
M 73.83,-22.4769 L 73.6767,-22.555 L 73.555,-22.6767 L 73.4769,-22.83 L 73.45,-23 L 73.4769,-23.17
 L 73.555,-23.3233 L 73.6767,-23.4449 L 73.83,-23.5231 L 74,-23.55 L 74.17,-23.5231 L 74.3233,-23.4449
 L 74.4449,-23.3233 L 74.5231,-23.17 L 74.55,-23 L 74.5231,-22.83 L 74.4449,-22.6767 L 74.3233,-22.555
 L 74.17,-22.4769 L 74,-22.45 z
M 73.83,-19.4769 L 73.6767,-19.555 L 73.555,-19.6767 L 73.4769,-19.83 L 73.45,-20 L 73.4769,-20.17
 L 73.555,-20.3233 L 73.6767,-20.4449 L 73.83,-20.5231 L 74,-20.55 L 74.17,-20.5231 L 74.3233,-20.4449
 L 74.4449,-20.3233 L 74.5231,-20.17 L 74.55,-20 L 74.5231,-19.83 L 74.4449,-19.6767 L 74.3233,-19.555
 L 74.17,-19.4769 L 74,-19.45 z
M 182.5,-34.1884 L 174.5,-34.1884 L 174.5,-32.8509 L 174.938,-32.8509 L 174.938,-32.9759 L 175.188,-32.9759
 L 175.188,-32.7259 L 175.062,-32.7259 L 175.062,-31.8509 L 175.188,-31.8509 L 175.188,-31.6009 L 174.938,-31.6009
 L 174.938,-31.7259 L 174.5,-31.7259 L 174.5,-2.46249 L 174.938,-2.46249 L 174.938,-2.58749 L 175.188,-2.58749
 L 175.188,-2.33749 L 175.062,-2.33749 L 175.062,-1.46249 L 175.188,-1.46249 L 175.188,-1.21249 L 174.938,-1.21249
 L 174.938,-1.33749 L 174.5,-1.33749 L 174.5,-0 L 182.5,-0 z
M 176.434,-31.3142 L 176.37,-31.3313 L 176.31,-31.3593 L 176.256,-31.3973 L 176.209,-31.4441 L 176.171,-31.4984
 L 176.143,-31.5584 L 176.126,-31.6224 L 176.12,-31.6884 L 176.126,-31.7544 L 176.143,-31.8184 L 176.171,-31.8784
 L 176.209,-31.9326 L 176.256,-31.9795 L 176.31,-32.0175 L 176.37,-32.0455 L 176.434,-32.0626 L 176.5,-32.0684
 L 176.566,-32.0626 L 176.63,-32.0455 L 176.69,-32.0175 L 176.744,-31.9795 L 176.791,-31.9326 L 176.829,-31.8784
 L 176.857,-31.8184 L 176.874,-31.7544 L 176.88,-31.6884 L 176.874,-31.6224 L 176.857,-31.5584 L 176.829,-31.4984
 L 176.791,-31.4441 L 176.744,-31.3973 L 176.69,-31.3593 L 176.63,-31.3313 L 176.566,-31.3142 L 176.5,-31.3084
 z
M 180.434,-31.3142 L 180.37,-31.3313 L 180.31,-31.3593 L 180.256,-31.3973 L 180.209,-31.4441 L 180.171,-31.4984
 L 180.143,-31.5584 L 180.126,-31.6224 L 180.12,-31.6884 L 180.126,-31.7544 L 180.143,-31.8184 L 180.171,-31.8784
 L 180.209,-31.9326 L 180.256,-31.9795 L 180.31,-32.0175 L 180.37,-32.0455 L 180.434,-32.0626 L 180.5,-32.0684
 L 180.566,-32.0626 L 180.63,-32.0455 L 180.69,-32.0175 L 180.744,-31.9795 L 180.791,-31.9326 L 180.829,-31.8784
 L 180.857,-31.8184 L 180.874,-31.7544 L 180.88,-31.6884 L 180.874,-31.6224 L 180.857,-31.5584 L 180.829,-31.4984
 L 180.791,-31.4441 L 180.744,-31.3973 L 180.69,-31.3593 L 180.63,-31.3313 L 180.566,-31.3142 L 180.5,-31.3084
 z
M 176.085,-15.8016 L 175.864,-15.8608 L 175.656,-15.9575 L 175.469,-16.0888 L 175.307,-16.2505 L 175.176,-16.4379
 L 175.079,-16.6453 L 175.02,-16.8663 L 175,-17.0942 L 175.02,-17.3221 L 175.079,-17.5431 L 175.176,-17.7504
 L 175.307,-17.9379 L 175.469,-18.0996 L 175.656,-18.2309 L 175.864,-18.3275 L 176.085,-18.3867 L 176.312,-18.4067
 L 176.54,-18.3867 L 176.761,-18.3275 L 176.969,-18.2309 L 177.156,-18.0996 L 177.318,-17.9379 L 177.449,-17.7504
 L 177.546,-17.5431 L 177.605,-17.3221 L 177.625,-17.0942 L 177.605,-16.8663 L 177.546,-16.6453 L 177.449,-16.4379
 L 177.318,-16.2505 L 177.156,-16.0888 L 176.969,-15.9575 L 176.761,-15.8608 L 176.54,-15.8016 L 176.312,-15.7817
 z
M 176.434,-2.12576 L 176.37,-2.14291 L 176.31,-2.1709 L 176.256,-2.20889 L 176.209,-2.25574 L 176.171,-2.31
 L 176.143,-2.37003 L 176.126,-2.43401 L 176.12,-2.5 L 176.126,-2.56598 L 176.143,-2.62996 L 176.171,-2.68999
 L 176.209,-2.74425 L 176.256,-2.79109 L 176.31,-2.82909 L 176.37,-2.85707 L 176.434,-2.87422 L 176.5,-2.87999
 L 176.566,-2.87422 L 176.63,-2.85707 L 176.69,-2.82909 L 176.744,-2.79109 L 176.791,-2.74425 L 176.829,-2.68999
 L 176.857,-2.62996 L 176.874,-2.56598 L 176.88,-2.5 L 176.874,-2.43401 L 176.857,-2.37003 L 176.829,-2.31
 L 176.791,-2.25574 L 176.744,-2.20889 L 176.69,-2.1709 L 176.63,-2.14291 L 176.566,-2.12576 L 176.5,-2.12
 z
M 180.434,-2.12576 L 180.37,-2.14291 L 180.31,-2.1709 L 180.256,-2.20889 L 180.209,-2.25574 L 180.171,-2.31
 L 180.143,-2.37003 L 180.126,-2.43401 L 180.12,-2.5 L 180.126,-2.56598 L 180.143,-2.62996 L 180.171,-2.68999
 L 180.209,-2.74425 L 180.256,-2.79109 L 180.31,-2.82909 L 180.37,-2.85707 L 180.434,-2.87422 L 180.5,-2.87999
 L 180.566,-2.87422 L 180.63,-2.85707 L 180.69,-2.82909 L 180.744,-2.79109 L 180.791,-2.74425 L 180.829,-2.68999
 L 180.857,-2.62996 L 180.874,-2.56598 L 180.88,-2.5 L 180.874,-2.43401 L 180.857,-2.37003 L 180.829,-2.31
 L 180.791,-2.25574 L 180.744,-2.20889 L 180.69,-2.1709 L 180.63,-2.14291 L 180.566,-2.12576 L 180.5,-2.12
 z
M 157,-1 L 156.375,-1 L 156.375,-2 L 156.5,-2 L 156.5,-3 L 156.375,-3
 L 156.375,-14.0942 L 156.5,-14.0942 L 156.5,-15.0942 L 156.375,-15.0942 L 156.375,-16.0942 L 157,-16.0942
 L 157,-18.0942 L 156.375,-18.0942 L 156.375,-19.0942 L 156.5,-19.0942 L 156.5,-20.0942 L 156.375,-20.0942
 L 156.375,-31.1884 L 156.5,-31.1884 L 156.5,-32.1884 L 156.375,-32.1884 L 156.375,-33.1884 L 157,-33.1884
 L 157,-34.1884 L 153.5,-34.1884 L 153.5,-0 L 157,-0 z
M 155.163,-28.321 L 155.079,-28.3436 L 155,-28.3804 L 154.929,-28.4304 L 154.867,-28.492 L 154.817,-28.5634
 L 154.78,-28.6424 L 154.758,-28.7266 L 154.75,-28.8134 L 154.758,-28.9002 L 154.78,-28.9844 L 154.817,-29.0634
 L 154.867,-29.1348 L 154.929,-29.1964 L 155,-29.2464 L 155.079,-29.2832 L 155.163,-29.3058 L 155.25,-29.3134
 L 155.337,-29.3058 L 155.421,-29.2832 L 155.5,-29.2464 L 155.571,-29.1964 L 155.633,-29.1348 L 155.683,-29.0634
 L 155.72,-28.9844 L 155.742,-28.9002 L 155.75,-28.8134 L 155.742,-28.7266 L 155.72,-28.6424 L 155.683,-28.5634
 L 155.633,-28.492 L 155.571,-28.4304 L 155.5,-28.3804 L 155.421,-28.3436 L 155.337,-28.321 L 155.25,-28.3134
 z
M 155.163,-4.88258 L 155.079,-4.90515 L 155,-4.94199 L 154.929,-4.99197 L 154.867,-5.0536 L 154.817,-5.125
 L 154.78,-5.20398 L 154.758,-5.28816 L 154.75,-5.375 L 154.758,-5.46182 L 154.78,-5.54601 L 154.817,-5.625
 L 154.867,-5.69638 L 154.929,-5.75801 L 155,-5.808 L 155.079,-5.84483 L 155.163,-5.8674 L 155.25,-5.875
 L 155.337,-5.8674 L 155.421,-5.84483 L 155.5,-5.808 L 155.571,-5.75801 L 155.633,-5.69638 L 155.683,-5.625
 L 155.72,-5.54601 L 155.742,-5.46182 L 155.75,-5.375 L 155.742,-5.28816 L 155.72,-5.20398 L 155.683,-5.125
 L 155.633,-5.0536 L 155.571,-4.99197 L 155.5,-4.94199 L 155.421,-4.90515 L 155.337,-4.88258 L 155.25,-4.875
 z
M 262.75,9.7569 L 262.75,-9.7569 L 225.75,-28 L 225.75,28 z
M 297.794,12 L 297.794,-12 L 263.75,-28 L 263.75,28 z
M 224.75,-1 L 224.125,-1 L 224.125,-1.125 L 224.25,-1.125 L 224.25,-25.1875 L 224.125,-25.1875
 L 224.125,-25.3125 L 224.75,-25.3125 L 224.75,-26.3125 L 221.25,-26.3125 L 221.25,-0 L 224.75,-0
 z
M 30.75,-0.625 L 30.875,-0.625 L 30.875,-0.5 L 31.125,-0.5 L 31.125,-0.625 L 34.375,-0.625
 L 34.375,-0.5 L 34.625,-0.5 L 34.625,-0.625 L 34.75,-0.625 L 34.75,-0 L 35.5,-0
 L 35.5,-6.21875 L 35.25,-6.21875 L 35.25,-6.125 L 34.625,-6.125 L 34.625,-6.375 L 34.7188,-6.375
 L 34.7188,-6.625 L 34.625,-6.625 L 34.625,-6.875 L 35.25,-6.875 L 35.25,-6.78125 L 35.5,-6.78125
 L 35.5,-12.2188 L 35.25,-12.2188 L 35.25,-12.125 L 34.625,-12.125 L 34.625,-12.375 L 34.7188,-12.375
 L 34.7188,-12.625 L 34.625,-12.625 L 34.625,-12.875 L 35.25,-12.875 L 35.25,-12.7812 L 35.5,-12.7812
 L 35.5,-18.2188 L 35.25,-18.2188 L 35.25,-18.125 L 34.625,-18.125 L 34.625,-18.375 L 34.7188,-18.375
 L 34.7188,-18.625 L 34.625,-18.625 L 34.625,-18.875 L 35.25,-18.875 L 35.25,-18.7812 L 35.5,-18.7812
 L 35.5,-25 L 34.75,-25 L 34.75,-24.375 L 34.625,-24.375 L 34.625,-24.5 L 34.375,-24.5
 L 34.375,-24.375 L 31.125,-24.375 L 31.125,-24.5 L 30.875,-24.5 L 30.875,-24.375 L 30.75,-24.375
 L 30.75,-25 L 30,-25 L 30,-0 L 30.75,-0 z
M 30.375,-18.125 L 30.375,-18.375 L 30.4688,-18.375 L 30.4688,-18.625 L 30.375,-18.625 L 30.375,-18.875
 L 30.75,-18.875 L 30.75,-18.7812 L 31,-18.7812 L 31,-18.875 L 31.375,-18.875 L 31.375,-18.625
 L 31.2812,-18.625 L 31.2812,-18.375 L 31.375,-18.375 L 31.375,-18.125 L 31,-18.125 L 31,-18.2188
 L 30.75,-18.2188 L 30.75,-18.125 z
M 30.375,-12.125 L 30.375,-12.375 L 30.4688,-12.375 L 30.4688,-12.625 L 30.375,-12.625 L 30.375,-12.875
 L 30.75,-12.875 L 30.75,-12.7812 L 31,-12.7812 L 31,-12.875 L 31.375,-12.875 L 31.375,-12.625
 L 31.2812,-12.625 L 31.2812,-12.375 L 31.375,-12.375 L 31.375,-12.125 L 31,-12.125 L 31,-12.2188
 L 30.75,-12.2188 L 30.75,-12.125 z
M 30.375,-6.125 L 30.375,-6.375 L 30.4688,-6.375 L 30.4688,-6.625 L 30.375,-6.625 L 30.375,-6.875
 L 30.75,-6.875 L 30.75,-6.78125 L 31,-6.78125 L 31,-6.875 L 31.375,-6.875 L 31.375,-6.625
 L 31.2812,-6.625 L 31.2812,-6.375 L 31.375,-6.375 L 31.375,-6.125 L 31,-6.125 L 31,-6.21875
 L 30.75,-6.21875 L 30.75,-6.125 z
M 43.5,-0.625 L 43.625,-0.625 L 43.625,-0.5 L 43.875,-0.5 L 43.875,-0.625 L 48.125,-0.625
 L 48.125,-0.5 L 48.375,-0.5 L 48.375,-0.625 L 48.5,-0.625 L 48.5,-0 L 49,-0
 L 49,-1 L 48.875,-1 L 48.875,-12 L 49,-12 L 49,-13 L 48.875,-13
 L 48.875,-24 L 49,-24 L 49,-25 L 48.5,-25 L 48.5,-24.375 L 48.375,-24.375
 L 48.375,-24.5 L 48.125,-24.5 L 48.125,-24.375 L 43.875,-24.375 L 43.875,-24.5 L 43.625,-24.5
 L 43.625,-24.375 L 43.5,-24.375 L 43.5,-25 L 43,-25 L 43,-24 L 43.125,-24
 L 43.125,-13 L 43,-13 L 43,-12 L 43.125,-12 L 43.125,-1 L 43,-1
 L 43,-0 L 43.5,-0 z
M 45.625,-18.125 L 45.625,-18.375 L 45.7188,-18.375 L 45.7188,-18.625 L 45.625,-18.625 L 45.625,-18.875
 L 45.875,-18.875 L 45.875,-18.7812 L 46.125,-18.7812 L 46.125,-18.875 L 46.375,-18.875 L 46.375,-18.625
 L 46.2812,-18.625 L 46.2812,-18.375 L 46.375,-18.375 L 46.375,-18.125 L 46.125,-18.125 L 46.125,-18.2188
 L 45.875,-18.2188 L 45.875,-18.125 z
M 45.625,-12.125 L 45.625,-12.375 L 45.7188,-12.375 L 45.7188,-12.625 L 45.625,-12.625 L 45.625,-12.875
 L 45.875,-12.875 L 45.875,-12.7812 L 46.125,-12.7812 L 46.125,-12.875 L 46.375,-12.875 L 46.375,-12.625
 L 46.2812,-12.625 L 46.2812,-12.375 L 46.375,-12.375 L 46.375,-12.125 L 46.125,-12.125 L 46.125,-12.2188
 L 45.875,-12.2188 L 45.875,-12.125 z
M 45.625,-6.125 L 45.625,-6.375 L 45.7188,-6.375 L 45.7188,-6.625 L 45.625,-6.625 L 45.625,-6.875
 L 45.875,-6.875 L 45.875,-6.78125 L 46.125,-6.78125 L 46.125,-6.875 L 46.375,-6.875 L 46.375,-6.625
 L 46.2812,-6.625 L 46.2812,-6.375 L 46.375,-6.375 L 46.375,-6.125 L 46.125,-6.125 L 46.125,-6.21875
 L 45.875,-6.21875 L 45.875,-6.125 z
M 86.5,-25 L 81.5,-25 L 81.5,-0 L 86.5,-0 z
M 84.4132,-22.1268 L 84.329,-22.1494 L 84.25,-22.1862 L 84.1786,-22.2362 L 84.117,-22.2978 L 84.067,-22.3692
 L 84.0302,-22.4482 L 84.0076,-22.5324 L 84,-22.6192 L 84.0076,-22.706 L 84.0302,-22.7902 L 84.067,-22.8692
 L 84.117,-22.9406 L 84.1786,-23.0022 L 84.25,-23.0522 L 84.329,-23.089 L 84.4132,-23.1116 L 84.5,-23.1192
 L 84.5868,-23.1116 L 84.671,-23.089 L 84.75,-23.0522 L 84.8214,-23.0022 L 84.883,-22.9406 L 84.933,-22.8692
 L 84.9698,-22.7902 L 84.9924,-22.706 L 85,-22.6192 L 84.9924,-22.5324 L 84.9698,-22.4482 L 84.933,-22.3692
 L 84.883,-22.2978 L 84.8214,-22.2362 L 84.75,-22.1862 L 84.671,-22.1494 L 84.5868,-22.1268 L 84.5,-22.1192
 z
M 82.4132,-22.1268 L 82.329,-22.1494 L 82.25,-22.1862 L 82.1786,-22.2362 L 82.117,-22.2978 L 82.067,-22.3692
 L 82.0302,-22.4482 L 82.0076,-22.5324 L 82,-22.6192 L 82.0076,-22.706 L 82.0302,-22.7902 L 82.067,-22.8692
 L 82.117,-22.9406 L 82.1786,-23.0022 L 82.25,-23.0522 L 82.329,-23.089 L 82.4132,-23.1116 L 82.5,-23.1192
 L 82.5868,-23.1116 L 82.671,-23.089 L 82.75,-23.0522 L 82.8214,-23.0022 L 82.883,-22.9406 L 82.933,-22.8692
 L 82.9698,-22.7902 L 82.9924,-22.706 L 83,-22.6192 L 82.9924,-22.5324 L 82.9698,-22.4482 L 82.933,-22.3692
 L 82.883,-22.2978 L 82.8214,-22.2362 L 82.75,-22.1862 L 82.671,-22.1494 L 82.5868,-22.1268 L 82.5,-22.1192
 z
M 82.4132,-1.88838 L 82.329,-1.91095 L 82.25,-1.94778 L 82.1786,-1.99777 L 82.117,-2.0594 L 82.067,-2.1308
 L 82.0302,-2.20978 L 82.0076,-2.29398 L 82,-2.3808 L 82.0076,-2.46762 L 82.0302,-2.5518 L 82.067,-2.6308
 L 82.117,-2.70218 L 82.1786,-2.76381 L 82.25,-2.81381 L 82.329,-2.85063 L 82.4132,-2.8732 L 82.5,-2.8808
 L 82.5868,-2.8732 L 82.671,-2.85063 L 82.75,-2.81381 L 82.8214,-2.76381 L 82.883,-2.70218 L 82.933,-2.6308
 L 82.9698,-2.5518 L 82.9924,-2.46762 L 83,-2.3808 L 82.9924,-2.29398 L 82.9698,-2.20978 L 82.933,-2.1308
 L 82.883,-2.0594 L 82.8214,-1.99777 L 82.75,-1.94778 L 82.671,-1.91095 L 82.5868,-1.88838 L 82.5,-1.8808
 z
M 84.4132,-1.88838 L 84.329,-1.91095 L 84.25,-1.94778 L 84.1786,-1.99777 L 84.117,-2.0594 L 84.067,-2.1308
 L 84.0302,-2.20978 L 84.0076,-2.29398 L 84,-2.3808 L 84.0076,-2.46762 L 84.0302,-2.5518 L 84.067,-2.6308
 L 84.117,-2.70218 L 84.1786,-2.76381 L 84.25,-2.81381 L 84.329,-2.85063 L 84.4132,-2.8732 L 84.5,-2.8808
 L 84.5868,-2.8732 L 84.671,-2.85063 L 84.75,-2.81381 L 84.8214,-2.76381 L 84.883,-2.70218 L 84.933,-2.6308
 L 84.9698,-2.5518 L 84.9924,-2.46762 L 85,-2.3808 L 84.9924,-2.29398 L 84.9698,-2.20978 L 84.933,-2.1308
 L 84.883,-2.0594 L 84.8214,-1.99777 L 84.75,-1.94778 L 84.671,-1.91095 L 84.5868,-1.88838 L 84.5,-1.8808
 z
M 37.25,-16.625 L 37.375,-16.625 L 37.375,-16.5 L 40.625,-16.5 L 40.625,-16.625 L 40.75,-16.625
 L 40.75,-16 L 41.5,-16 L 41.5,-19.125 L 41.375,-19.125 L 41.375,-19.25 L 42,-19.25
 L 42,-19.75 L 41.375,-19.75 L 41.375,-19.875 L 41.5,-19.875 L 41.5,-23 L 40.75,-23
 L 40.75,-22.375 L 40.625,-22.375 L 40.625,-22.5 L 37.375,-22.5 L 37.375,-22.375 L 37.25,-22.375
 L 37.25,-23 L 36.5,-23 L 36.5,-16 L 37.25,-16 z
M 317.294,19.0942 L 317.301,19.0074 L 317.324,18.9232 L 317.361,18.8442 L 317.411,18.7728 L 317.472,18.7112
 L 317.544,18.6612 L 317.623,18.6243 L 317.707,18.6018 L 317.794,18.5942 L 317.881,18.6018 L 317.965,18.6243
 L 318.044,18.6612 L 318.115,18.7112 L 318.177,18.7728 L 318.227,18.8442 L 318.264,18.9232 L 318.286,19.0074
 L 318.294,19.0942 L 318.294,20.5942 L 320.294,20.5942 L 320.294,19.0942 L 320.301,19.0074 L 320.324,18.9232
 L 320.361,18.8442 L 320.411,18.7728 L 320.472,18.7112 L 320.544,18.6612 L 320.623,18.6243 L 320.707,18.6018
 L 320.794,18.5942 L 320.881,18.6018 L 320.965,18.6243 L 321.044,18.6612 L 321.115,18.7112 L 321.177,18.7728
 L 321.227,18.8442 L 321.264,18.9232 L 321.286,19.0074 L 321.294,19.0942 L 321.294,20.5942 L 327.794,20.5942
 L 327.794,19.0942 L 327.801,19.0074 L 327.824,18.9232 L 327.861,18.8442 L 327.911,18.7728 L 327.972,18.7112
 L 328.044,18.6612 L 328.123,18.6243 L 328.207,18.6018 L 328.294,18.5942 L 328.381,18.6018 L 328.465,18.6243
 L 328.544,18.6612 L 328.615,18.7112 L 328.677,18.7728 L 328.727,18.8442 L 328.764,18.9232 L 328.786,19.0074
 L 328.794,19.0942 L 328.794,20.5942 L 330.294,20.5942 L 330.294,-20.5942 L 328.794,-20.5942 L 328.794,-19.0942
 L 328.786,-19.0074 L 328.764,-18.9232 L 328.727,-18.8442 L 328.677,-18.7728 L 328.615,-18.7112 L 328.544,-18.6612
 L 328.465,-18.6243 L 328.381,-18.6018 L 328.294,-18.5942 L 328.207,-18.6018 L 328.123,-18.6243 L 328.044,-18.6612
 L 327.972,-18.7112 L 327.911,-18.7728 L 327.861,-18.8442 L 327.824,-18.9232 L 327.801,-19.0074 L 327.794,-19.0942
 L 327.794,-20.5942 L 318.294,-20.5942 L 318.294,-19.0942 L 318.286,-19.0074 L 318.264,-18.9232 L 318.227,-18.8442
 L 318.177,-18.7728 L 318.115,-18.7112 L 318.044,-18.6612 L 317.965,-18.6243 L 317.881,-18.6018 L 317.794,-18.5942
 L 317.707,-18.6018 L 317.623,-18.6243 L 317.544,-18.6612 L 317.472,-18.7112 L 317.411,-18.7728 L 317.361,-18.8442
 L 317.324,-18.9232 L 317.301,-19.0074 L 317.294,-19.0942 L 317.294,-20.5942 L 315.794,-20.5942 L 315.794,20.5942
 L 317.294,20.5942 z
M 300.044,19.0942 L 300.051,19.0074 L 300.074,18.9232 L 300.111,18.8442 L 300.161,18.7728 L 300.222,18.7112
 L 300.294,18.6612 L 300.373,18.6243 L 300.457,18.6018 L 300.544,18.5942 L 300.631,18.6018 L 300.715,18.6243
 L 300.794,18.6612 L 300.865,18.7112 L 300.927,18.7728 L 300.977,18.8442 L 301.014,18.9232 L 301.036,19.0074
 L 301.044,19.0942 L 301.044,20.5942 L 312.544,20.5942 L 312.544,19.0942 L 312.551,19.0074 L 312.574,18.9232
 L 312.611,18.8442 L 312.661,18.7728 L 312.722,18.7112 L 312.794,18.6612 L 312.873,18.6243 L 312.957,18.6018
 L 313.044,18.5942 L 313.131,18.6018 L 313.215,18.6243 L 313.294,18.6612 L 313.365,18.7112 L 313.427,18.7728
 L 313.477,18.8442 L 313.514,18.9232 L 313.536,19.0074 L 313.544,19.0942 L 313.544,20.5942 L 314.794,20.5942
 L 314.794,-20.5942 L 313.544,-20.5942 L 313.544,-19.0942 L 313.536,-19.0074 L 313.514,-18.9232 L 313.477,-18.8442
 L 313.427,-18.7728 L 313.365,-18.7112 L 313.294,-18.6612 L 313.215,-18.6243 L 313.131,-18.6018 L 313.044,-18.5942
 L 312.957,-18.6018 L 312.873,-18.6243 L 312.794,-18.6612 L 312.722,-18.7112 L 312.661,-18.7728 L 312.611,-18.8442
 L 312.574,-18.9232 L 312.551,-19.0074 L 312.544,-19.0942 L 312.544,-20.5942 L 301.044,-20.5942 L 301.044,-19.0942
 L 301.036,-19.0074 L 301.014,-18.9232 L 300.977,-18.8442 L 300.927,-18.7728 L 300.865,-18.7112 L 300.794,-18.6612
 L 300.715,-18.6243 L 300.631,-18.6018 L 300.544,-18.5942 L 300.457,-18.6018 L 300.373,-18.6243 L 300.294,-18.6612
 L 300.222,-18.7112 L 300.161,-18.7728 L 300.111,-18.8442 L 300.074,-18.9232 L 300.051,-19.0074 L 300.044,-19.0942
 L 300.044,-20.5942 L 298.794,-20.5942 L 298.794,20.5942 L 300.044,20.5942 z
M 28.4688,-0.65625 L 28.3438,-0.65625 L 28.3438,-0.90625 L 28.5938,-0.90625 L 28.5938,-0.78125 L 29,-0.78125
 L 29,-4.21875 L 28.5938,-4.21875 L 28.5938,-4.09375 L 28.3438,-4.09375 L 28.3438,-4.34375 L 28.4688,-4.34375
 L 28.4688,-4.96875 L 28.0938,-4.96875 L 28.0938,-4.84375 L 27.8438,-4.84375 L 27.8438,-5.09375 L 27.9688,-5.09375
 L 27.9688,-5.40625 L 27.8438,-5.40625 L 27.8438,-5.65625 L 28.4688,-5.65625 L 28.4688,-5.53125 L 29,-5.53125
 L 29,-11.4688 L 28.5938,-11.4688 L 28.5938,-11.3438 L 28.0938,-11.3438 L 28.0938,-11.5938 L 28.2188,-11.5938
 L 28.2188,-11.9062 L 28.0938,-11.9062 L 28.0938,-12.1562 L 28.3438,-12.1562 L 28.3438,-12.0312 L 28.4688,-12.0312
 L 28.4688,-12.4062 L 28.3438,-12.4062 L 28.3438,-12.6562 L 28.7188,-12.6562 L 28.7188,-12.5312 L 29,-12.5312
 L 29,-17.4688 L 28.5938,-17.4688 L 28.5938,-17.3438 L 28.3438,-17.3438 L 28.3438,-17.5938 L 28.4688,-17.5938
 L 28.4688,-17.9688 L 28.3438,-17.9688 L 28.3438,-17.8438 L 28.0938,-17.8438 L 28.0938,-18.0938 L 28.2188,-18.0938
 L 28.2188,-18.5 L 24.2812,-18.5 L 24.2812,-18.0938 L 24.4062,-18.0938 L 24.4062,-17.8438 L 23.9062,-17.8438
 L 23.9062,-17.9688 L 23,-17.9688 L 23,-13.0312 L 23.4062,-13.0312 L 23.4062,-13.1562 L 23.6562,-13.1562
 L 23.6562,-12.5312 L 23.5312,-12.5312 L 23.5312,-12.0312 L 24.0312,-12.0312 L 24.0312,-12.1562 L 24.4062,-12.1562
 L 24.4062,-11.9062 L 24.2812,-11.9062 L 24.2812,-11.5938 L 24.4062,-11.5938 L 24.4062,-11.3438 L 24.0312,-11.3438
 L 24.0312,-11.4688 L 23,-11.4688 L 23,-5.53125 L 23.4062,-5.53125 L 23.4062,-5.65625 L 23.6562,-5.65625
 L 23.6562,-5.40625 L 23.5312,-5.40625 L 23.5312,-5.09375 L 23.6562,-5.09375 L 23.6562,-4.84375 L 23.4062,-4.84375
 L 23.4062,-4.96875 L 23,-4.96875 L 23,-2.03125 L 23.4062,-2.03125 L 23.4062,-2.15625 L 23.6562,-2.15625
 L 23.6562,-1.90625 L 23.5312,-1.90625 L 23.5312,-0 L 28.4688,-0 z
M 26.4895,-2.02278 L 26.237,-2.09045 L 26,-2.20096 L 25.7858,-2.35092 L 25.6009,-2.53581 L 25.451,-2.75
 L 25.3405,-2.98697 L 25.2728,-3.23952 L 25.25,-3.5 L 25.2728,-3.76047 L 25.3405,-4.01302 L 25.451,-4.25
 L 25.6009,-4.46417 L 25.7858,-4.64906 L 26,-4.79903 L 26.237,-4.90953 L 26.4895,-4.9772 L 26.75,-5
 L 27.0105,-4.9772 L 27.263,-4.90953 L 27.5,-4.79903 L 27.7142,-4.64906 L 27.8991,-4.46417 L 28.049,-4.25
 L 28.1595,-4.01302 L 28.2272,-3.76047 L 28.25,-3.5 L 28.2272,-3.23952 L 28.1595,-2.98697 L 28.049,-2.75
 L 27.8991,-2.53581 L 27.7142,-2.35092 L 27.5,-2.20096 L 27.263,-2.09045 L 27.0105,-2.02278 L 26.75,-2
 z
M 75.5,-18 L 72.5,-18 L 72.5,-0 L 75.5,-0 z
M 73.83,-16.4769 L 73.6767,-16.555 L 73.555,-16.6767 L 73.4769,-16.83 L 73.45,-17 L 73.4769,-17.17
 L 73.555,-17.3233 L 73.6767,-17.4449 L 73.83,-17.5231 L 74,-17.55 L 74.17,-17.5231 L 74.3233,-17.4449
 L 74.4449,-17.3233 L 74.5231,-17.17 L 74.55,-17 L 74.5231,-16.83 L 74.4449,-16.6767 L 74.3233,-16.555
 L 74.17,-16.4769 L 74,-16.45 z
M 73.83,-13.4769 L 73.6767,-13.555 L 73.555,-13.6767 L 73.4769,-13.83 L 73.45,-14 L 73.4769,-14.17
 L 73.555,-14.3233 L 73.6767,-14.4449 L 73.83,-14.5231 L 74,-14.55 L 74.17,-14.5231 L 74.3233,-14.4449
 L 74.4449,-14.3233 L 74.5231,-14.17 L 74.55,-14 L 74.5231,-13.83 L 74.4449,-13.6767 L 74.3233,-13.555
 L 74.17,-13.4769 L 74,-13.45 z
M 73.83,-8.47691 L 73.6767,-8.55504 L 73.555,-8.67671 L 73.4769,-8.83003 L 73.45,-9 L 73.4769,-9.16995
 L 73.555,-9.32327 L 73.6767,-9.44495 L 73.83,-9.52307 L 74,-9.54999 L 74.17,-9.52307 L 74.3233,-9.44495
 L 74.4449,-9.32327 L 74.5231,-9.16995 L 74.55,-9 L 74.5231,-8.83003 L 74.4449,-8.67671 L 74.3233,-8.55504
 L 74.17,-8.47691 L 74,-8.45 z
M 73.83,-3.47691 L 73.6767,-3.55504 L 73.555,-3.67671 L 73.4769,-3.83003 L 73.45,-4 L 73.4769,-4.16995
 L 73.555,-4.32327 L 73.6767,-4.44495 L 73.83,-4.52307 L 74,-4.54999 L 74.17,-4.52307 L 74.3233,-4.44495
 L 74.4449,-4.32327 L 74.5231,-4.16995 L 74.55,-4 L 74.5231,-3.83003 L 74.4449,-3.67671 L 74.3233,-3.55504
 L 74.17,-3.47691 L 74,-3.45 z
M 73.83,-0.476913 L 73.6767,-0.555038 L 73.555,-0.676712 L 73.4769,-0.830032 L 73.45,-1 L 73.4769,-1.16995
 L 73.555,-1.32327 L 73.6767,-1.44495 L 73.83,-1.52307 L 74,-1.54999 L 74.17,-1.52307 L 74.3233,-1.44495
 L 74.4449,-1.32327 L 74.5231,-1.16995 L 74.55,-1 L 74.5231,-0.830032 L 74.4449,-0.676712 L 74.3233,-0.555038
 L 74.17,-0.476913 L 74,-0.449997 z
M 147.438,16.1567 L 147.312,16.1567 L 147.312,15.9067 L 147.562,15.9067 L 147.562,16.0317 L 148,16.0317
 L 148,1.0625 L 147.562,1.0625 L 147.562,1.1875 L 147.312,1.1875 L 147.312,0.9375 L 147.438,0.9375
 L 147.438,-0.9375 L 147.312,-0.9375 L 147.312,-1.1875 L 147.562,-1.1875 L 147.562,-1.0625 L 148,-1.0625
 L 148,-16.0317 L 147.562,-16.0317 L 147.562,-15.9067 L 147.312,-15.9067 L 147.312,-16.1567 L 147.438,-16.1567
 L 147.438,-17.0942 L 142.25,-17.0942 L 142.25,-16.6942 L 142,-16.6942 L 142,-15.7567 L 142.438,-15.7567
 L 142.438,-15.8817 L 142.688,-15.8817 L 142.688,-15.6317 L 142.562,-15.6317 L 142.562,-14.7567 L 142.688,-14.7567
 L 142.688,-14.5067 L 142.438,-14.5067 L 142.438,-14.6317 L 142,-14.6317 L 142,14.6317 L 142.438,14.6317
 L 142.438,14.5067 L 142.688,14.5067 L 142.688,14.7567 L 142.562,14.7567 L 142.562,15.6317 L 142.688,15.6317
 L 142.688,15.8817 L 142.438,15.8817 L 142.438,15.7567 L 142,15.7567 L 142,16.6942 L 142.25,16.6942
 L 142.25,17.0942 L 147.438,17.0942 z
M 146.435,-14.2249 L 146.372,-14.2418 L 146.312,-14.2694 L 146.259,-14.3069 L 146.213,-14.3531 L 146.175,-14.4067
 L 146.148,-14.4659 L 146.131,-14.5291 L 146.125,-14.5942 L 146.131,-14.6593 L 146.148,-14.7224 L 146.175,-14.7817
 L 146.213,-14.8352 L 146.259,-14.8815 L 146.312,-14.9189 L 146.372,-14.9466 L 146.435,-14.9635 L 146.5,-14.9692
 L 146.565,-14.9635 L 146.628,-14.9466 L 146.688,-14.9189 L 146.741,-14.8815 L 146.787,-14.8352 L 146.825,-14.7817
 L 146.852,-14.7224 L 146.869,-14.6593 L 146.875,-14.5942 L 146.869,-14.5291 L 146.852,-14.4659 L 146.825,-14.4067
 L 146.787,-14.3531 L 146.741,-14.3069 L 146.688,-14.2694 L 146.628,-14.2418 L 146.565,-14.2249 L 146.5,-14.2192
 z
M 143.435,-14.2249 L 143.372,-14.2418 L 143.312,-14.2694 L 143.259,-14.3069 L 143.213,-14.3531 L 143.175,-14.4067
 L 143.148,-14.4659 L 143.131,-14.5291 L 143.125,-14.5942 L 143.131,-14.6593 L 143.148,-14.7224 L 143.175,-14.7817
 L 143.213,-14.8352 L 143.259,-14.8815 L 143.312,-14.9189 L 143.372,-14.9466 L 143.435,-14.9635 L 143.5,-14.9692
 L 143.565,-14.9635 L 143.628,-14.9466 L 143.688,-14.9189 L 143.741,-14.8815 L 143.787,-14.8352 L 143.825,-14.7817
 L 143.852,-14.7224 L 143.869,-14.6593 L 143.875,-14.5942 L 143.869,-14.5291 L 143.852,-14.4659 L 143.825,-14.4067
 L 143.787,-14.3531 L 143.741,-14.3069 L 143.688,-14.2694 L 143.628,-14.2418 L 143.565,-14.2249 L 143.5,-14.2192
 z
M 143.496,-10.9033 L 143.395,-10.9304 L 143.3,-10.9746 L 143.214,-11.0346 L 143.14,-11.1085 L 143.08,-11.1942
 L 143.036,-11.289 L 143.009,-11.39 L 143,-11.4942 L 143.009,-11.5984 L 143.036,-11.6994 L 143.08,-11.7942
 L 143.14,-11.8799 L 143.214,-11.9538 L 143.3,-12.0138 L 143.395,-12.058 L 143.496,-12.0851 L 143.6,-12.0942
 L 143.704,-12.0851 L 143.805,-12.058 L 143.9,-12.0138 L 143.986,-11.9538 L 144.06,-11.8799 L 144.12,-11.7942
 L 144.164,-11.6994 L 144.191,-11.5984 L 144.2,-11.4942 L 144.191,-11.39 L 144.164,-11.289 L 144.12,-11.1942
 L 144.06,-11.1085 L 143.986,-11.0346 L 143.9,-10.9746 L 143.805,-10.9304 L 143.704,-10.9033 L 143.6,-10.8942
 z
M 143.496,12.0851 L 143.395,12.058 L 143.3,12.0138 L 143.214,11.9538 L 143.14,11.8799 L 143.08,11.7942
 L 143.036,11.6994 L 143.009,11.5984 L 143,11.4942 L 143.009,11.39 L 143.036,11.289 L 143.08,11.1942
 L 143.14,11.1085 L 143.214,11.0346 L 143.3,10.9746 L 143.395,10.9304 L 143.496,10.9033 L 143.6,10.8942
 L 143.704,10.9033 L 143.805,10.9304 L 143.9,10.9746 L 143.986,11.0346 L 144.06,11.1085 L 144.12,11.1942
 L 144.164,11.289 L 144.191,11.39 L 144.2,11.4942 L 144.191,11.5984 L 144.164,11.6994 L 144.12,11.7942
 L 144.06,11.8799 L 143.986,11.9538 L 143.9,12.0138 L 143.805,12.058 L 143.704,12.0851 L 143.6,12.0942
 z
M 143.435,14.9635 L 143.372,14.9466 L 143.312,14.9189 L 143.259,14.8815 L 143.213,14.8352 L 143.175,14.7817
 L 143.148,14.7224 L 143.131,14.6593 L 143.125,14.5942 L 143.131,14.5291 L 143.148,14.4659 L 143.175,14.4067
 L 143.213,14.3531 L 143.259,14.3069 L 143.312,14.2694 L 143.372,14.2418 L 143.435,14.2249 L 143.5,14.2192
 L 143.565,14.2249 L 143.628,14.2418 L 143.688,14.2694 L 143.741,14.3069 L 143.787,14.3531 L 143.825,14.4067
 L 143.852,14.4659 L 143.869,14.5291 L 143.875,14.5942 L 143.869,14.6593 L 143.852,14.7224 L 143.825,14.7817
 L 143.787,14.8352 L 143.741,14.8815 L 143.688,14.9189 L 143.628,14.9466 L 143.565,14.9635 L 143.5,14.9692
 z
M 146.435,14.9635 L 146.372,14.9466 L 146.312,14.9189 L 146.259,14.8815 L 146.213,14.8352 L 146.175,14.7817
 L 146.148,14.7224 L 146.131,14.6593 L 146.125,14.5942 L 146.131,14.5291 L 146.148,14.4659 L 146.175,14.4067
 L 146.213,14.3531 L 146.259,14.3069 L 146.312,14.2694 L 146.372,14.2418 L 146.435,14.2249 L 146.5,14.2192
 L 146.565,14.2249 L 146.628,14.2418 L 146.688,14.2694 L 146.741,14.3069 L 146.787,14.3531 L 146.825,14.4067
 L 146.852,14.4659 L 146.869,14.5291 L 146.875,14.5942 L 146.869,14.6593 L 146.852,14.7224 L 146.825,14.7817
 L 146.787,14.8352 L 146.741,14.8815 L 146.688,14.9189 L 146.628,14.9466 L 146.565,14.9635 L 146.5,14.9692
 z
M 211.25,-17.0942 L 198.25,-17.0942 L 198.25,17.0942 L 211.25,17.0942 z
M 201.5,12.75 L 201.5,-0 L 205,-0 L 205,-0.5 L 204.375,-0.5 L 204.375,-0.625
 L 204.5,-0.625 L 204.5,-1.25 L 201.5,-1.25 L 201.5,-12.75 L 208,-12.75 L 208,12.75
 z
M 209.413,-11.2268 L 209.329,-11.2493 L 209.25,-11.2862 L 209.179,-11.3362 L 209.117,-11.3978 L 209.067,-11.4692
 L 209.03,-11.5482 L 209.008,-11.6324 L 209,-11.7192 L 209.008,-11.806 L 209.03,-11.8902 L 209.067,-11.9692
 L 209.117,-12.0406 L 209.179,-12.1022 L 209.25,-12.1522 L 209.329,-12.189 L 209.413,-12.2116 L 209.5,-12.2192
 L 209.587,-12.2116 L 209.671,-12.189 L 209.75,-12.1522 L 209.821,-12.1022 L 209.883,-12.0406 L 209.933,-11.9692
 L 209.97,-11.8902 L 209.992,-11.806 L 210,-11.7192 L 209.992,-11.6324 L 209.97,-11.5482 L 209.933,-11.4692
 L 209.883,-11.3978 L 209.821,-11.3362 L 209.75,-11.2862 L 209.671,-11.2493 L 209.587,-11.2268 L 209.5,-11.2192
 z
M 199.913,-11.2268 L 199.829,-11.2493 L 199.75,-11.2862 L 199.679,-11.3362 L 199.617,-11.3978 L 199.567,-11.4692
 L 199.53,-11.5482 L 199.508,-11.6324 L 199.5,-11.7192 L 199.508,-11.806 L 199.53,-11.8902 L 199.567,-11.9692
 L 199.617,-12.0406 L 199.679,-12.1022 L 199.75,-12.1522 L 199.829,-12.189 L 199.913,-12.2116 L 200,-12.2192
 L 200.087,-12.2116 L 200.171,-12.189 L 200.25,-12.1522 L 200.321,-12.1022 L 200.383,-12.0406 L 200.433,-11.9692
 L 200.47,-11.8902 L 200.492,-11.806 L 200.5,-11.7192 L 200.492,-11.6324 L 200.47,-11.5482 L 200.433,-11.4692
 L 200.383,-11.3978 L 200.321,-11.3362 L 200.25,-11.2862 L 200.171,-11.2493 L 200.087,-11.2268 L 200,-11.2192
 z
M 199.913,12.2116 L 199.829,12.189 L 199.75,12.1522 L 199.679,12.1022 L 199.617,12.0406 L 199.567,11.9692
 L 199.53,11.8902 L 199.508,11.806 L 199.5,11.7192 L 199.508,11.6324 L 199.53,11.5482 L 199.567,11.4692
 L 199.617,11.3978 L 199.679,11.3362 L 199.75,11.2862 L 199.829,11.2493 L 199.913,11.2268 L 200,11.2192
 L 200.087,11.2268 L 200.171,11.2493 L 200.25,11.2862 L 200.321,11.3362 L 200.383,11.3978 L 200.433,11.4692
 L 200.47,11.5482 L 200.492,11.6324 L 200.5,11.7192 L 200.492,11.806 L 200.47,11.8902 L 200.433,11.9692
 L 200.383,12.0406 L 200.321,12.1022 L 200.25,12.1522 L 200.171,12.189 L 200.087,12.2116 L 200,12.2192
 z
M 209.413,12.2116 L 209.329,12.189 L 209.25,12.1522 L 209.179,12.1022 L 209.117,12.0406 L 209.067,11.9692
 L 209.03,11.8902 L 209.008,11.806 L 209,11.7192 L 209.008,11.6324 L 209.03,11.5482 L 209.067,11.4692
 L 209.117,11.3978 L 209.179,11.3362 L 209.25,11.2862 L 209.329,11.2493 L 209.413,11.2268 L 209.5,11.2192
 L 209.587,11.2268 L 209.671,11.2493 L 209.75,11.2862 L 209.821,11.3362 L 209.883,11.3978 L 209.933,11.4692
 L 209.97,11.5482 L 209.992,11.6324 L 210,11.7192 L 209.992,11.806 L 209.97,11.8902 L 209.933,11.9692
 L 209.883,12.0406 L 209.821,12.1022 L 209.75,12.1522 L 209.671,12.189 L 209.587,12.2116 L 209.5,12.2192
 z
M 37.25,-8.625 L 37.375,-8.625 L 37.375,-8.5 L 40.625,-8.5 L 40.625,-8.625 L 40.75,-8.625
 L 40.75,-8 L 41.5,-8 L 41.5,-11.125 L 41.375,-11.125 L 41.375,-11.25 L 42,-11.25
 L 42,-11.75 L 41.375,-11.75 L 41.375,-11.875 L 41.5,-11.875 L 41.5,-15 L 40.75,-15
 L 40.75,-14.375 L 40.625,-14.375 L 40.625,-14.5 L 37.375,-14.5 L 37.375,-14.375 L 37.25,-14.375
 L 37.25,-15 L 36.5,-15 L 36.5,-8 L 37.25,-8 z
M 50.5,11.875 L 50.625,11.875 L 50.625,12 L 50.875,12 L 50.875,11.875 L 54.625,11.875
 L 54.625,12 L 54.875,12 L 54.875,11.875 L 55,11.875 L 55,12.5 L 56,12.5
 L 56,-12.5 L 55,-12.5 L 55,-11.875 L 54.875,-11.875 L 54.875,-12 L 54.625,-12
 L 54.625,-11.875 L 50.875,-11.875 L 50.875,-12 L 50.625,-12 L 50.625,-11.875 L 50.5,-11.875
 L 50.5,-12.5 L 50,-12.5 L 50,12.5 L 50.5,12.5 z
M 53.625,-1.125 L 53.625,-1.375 L 53.7188,-1.375 L 53.7188,-1.625 L 53.625,-1.625 L 53.625,-1.875
 L 53.875,-1.875 L 53.875,-1.78125 L 54.125,-1.78125 L 54.125,-1.875 L 54.375,-1.875 L 54.375,-1.625
 L 54.2812,-1.625 L 54.2812,-1.375 L 54.375,-1.375 L 54.375,-1.125 L 54.125,-1.125 L 54.125,-1.21875
 L 53.875,-1.21875 L 53.875,-1.125 z
M 53.625,1.875 L 53.625,1.625 L 53.7188,1.625 L 53.7188,1.375 L 53.625,1.375 L 53.625,1.125
 L 53.875,1.125 L 53.875,1.21875 L 54.125,1.21875 L 54.125,1.125 L 54.375,1.125 L 54.375,1.375
 L 54.2812,1.375 L 54.2812,1.625 L 54.375,1.625 L 54.375,1.875 L 54.125,1.875 L 54.125,1.78125
 L 53.875,1.78125 L 53.875,1.875 z
M 15.5,11.9688 L 20.5,11.9688 L 20.5,12.5 L 22,12.5 L 22,-12.5 L 20.5,-12.5
 L 20.5,-11.9688 L 15.5,-11.9688 L 15.5,-12.5 L 0,-12.5 L 0,-9.11919 L 6,-9.11919
 L 6,9.11919 L 0,9.11919 L 0,12.5 L 15.5,12.5 z
M 0.913162,-9.62679 L 0.828979,-9.64935 L 0.75,-9.68619 L 0.678604,-9.73618 L 0.616974,-9.79781 L 0.566986,-9.86919
 L 0.530151,-9.94818 L 0.507584,-10.0324 L 0.5,-10.1192 L 0.507584,-10.206 L 0.530151,-10.2902 L 0.566986,-10.3692
 L 0.616974,-10.4406 L 0.678604,-10.5022 L 0.75,-10.5522 L 0.828979,-10.589 L 0.913162,-10.6116 L 1,-10.6192
 L 1.08682,-10.6116 L 1.17101,-10.589 L 1.25,-10.5522 L 1.32138,-10.5022 L 1.38301,-10.4406 L 1.433,-10.3692
 L 1.46983,-10.2902 L 1.4924,-10.206 L 1.5,-10.1192 L 1.4924,-10.0324 L 1.46983,-9.94818 L 1.433,-9.86919
 L 1.38301,-9.79781 L 1.32138,-9.73618 L 1.25,-9.68619 L 1.17101,-9.64935 L 1.08682,-9.62679 L 1,-9.61919
 z
M 2.91316,-9.62679 L 2.82898,-9.64935 L 2.75,-9.68619 L 2.6786,-9.73618 L 2.61697,-9.79781 L 2.56699,-9.86919
 L 2.53015,-9.94818 L 2.50758,-10.0324 L 2.5,-10.1192 L 2.50758,-10.206 L 2.53015,-10.2902 L 2.56699,-10.3692
 L 2.61697,-10.4406 L 2.6786,-10.5022 L 2.75,-10.5522 L 2.82898,-10.589 L 2.91316,-10.6116 L 3,-10.6192
 L 3.08682,-10.6116 L 3.17101,-10.589 L 3.25,-10.5522 L 3.32138,-10.5022 L 3.38301,-10.4406 L 3.433,-10.3692
 L 3.46983,-10.2902 L 3.4924,-10.206 L 3.5,-10.1192 L 3.4924,-10.0324 L 3.46983,-9.94818 L 3.433,-9.86919
 L 3.38301,-9.79781 L 3.32138,-9.73618 L 3.25,-9.68619 L 3.17101,-9.64935 L 3.08682,-9.62679 L 3,-9.61919
 z
M 0.913162,10.6116 L 0.828979,10.589 L 0.75,10.5522 L 0.678604,10.5022 L 0.616974,10.4406 L 0.566986,10.3692
 L 0.530151,10.2902 L 0.507584,10.206 L 0.5,10.1192 L 0.507584,10.0324 L 0.530151,9.94818 L 0.566986,9.86919
 L 0.616974,9.79781 L 0.678604,9.73618 L 0.75,9.68619 L 0.828979,9.64935 L 0.913162,9.62679 L 1,9.61919
 L 1.08682,9.62679 L 1.17101,9.64935 L 1.25,9.68619 L 1.32138,9.73618 L 1.38301,9.79781 L 1.433,9.86919
 L 1.46983,9.94818 L 1.4924,10.0324 L 1.5,10.1192 L 1.4924,10.206 L 1.46983,10.2902 L 1.433,10.3692
 L 1.38301,10.4406 L 1.32138,10.5022 L 1.25,10.5522 L 1.17101,10.589 L 1.08682,10.6116 L 1,10.6192
 z
M 2.91316,10.6116 L 2.82898,10.589 L 2.75,10.5522 L 2.6786,10.5022 L 2.61697,10.4406 L 2.56699,10.3692
 L 2.53015,10.2902 L 2.50758,10.206 L 2.5,10.1192 L 2.50758,10.0324 L 2.53015,9.94818 L 2.56699,9.86919
 L 2.61697,9.79781 L 2.6786,9.73618 L 2.75,9.68619 L 2.82898,9.64935 L 2.91316,9.62679 L 3,9.61919
 L 3.08682,9.62679 L 3.17101,9.64935 L 3.25,9.68619 L 3.32138,9.73618 L 3.38301,9.79781 L 3.433,9.86919
 L 3.46983,9.94818 L 3.4924,10.0324 L 3.5,10.1192 L 3.4924,10.206 L 3.46983,10.2902 L 3.433,10.3692
 L 3.38301,10.4406 L 3.32138,10.5022 L 3.25,10.5522 L 3.17101,10.589 L 3.08682,10.6116 L 3,10.6192
 z
M 62.75,11.875 L 62.875,11.875 L 62.875,12 L 63.125,12 L 63.125,11.875 L 65.875,11.875
 L 65.875,12 L 66.125,12 L 66.125,11.875 L 66.25,11.875 L 66.25,12.5 L 67,12.5
 L 67,-12.5 L 66.25,-12.5 L 66.25,-11.875 L 66.125,-11.875 L 66.125,-12 L 65.875,-12
 L 65.875,-11.875 L 63.125,-11.875 L 63.125,-12 L 62.875,-12 L 62.875,-11.875 L 62.75,-11.875
 L 62.75,-12.5 L 62,-12.5 L 62,-11.5 L 62.125,-11.5 L 62.125,-0.5 L 62,-0.5
 L 62,0.5 L 62.125,0.5 L 62.125,11.5 L 62,11.5 L 62,12.5 L 62.75,12.5
 z
M 63.125,-1.125 L 63.125,-1.375 L 63.2188,-1.375 L 63.2188,-1.625 L 63.125,-1.625 L 63.125,-1.875
 L 63.375,-1.875 L 63.375,-1.78125 L 63.625,-1.78125 L 63.625,-1.875 L 63.875,-1.875 L 63.875,-1.625
 L 63.7812,-1.625 L 63.7812,-1.375 L 63.875,-1.375 L 63.875,-1.125 L 63.625,-1.125 L 63.625,-1.21875
 L 63.375,-1.21875 L 63.375,-1.125 z
M 63.125,1.875 L 63.125,1.625 L 63.2188,1.625 L 63.2188,1.375 L 63.125,1.375 L 63.125,1.125
 L 63.375,1.125 L 63.375,1.21875 L 63.625,1.21875 L 63.625,1.125 L 63.875,1.125 L 63.875,1.375
 L 63.7812,1.375 L 63.7812,1.625 L 63.875,1.625 L 63.875,1.875 L 63.625,1.875 L 63.625,1.78125
 L 63.375,1.78125 L 63.375,1.875 z
M 80.5,-10.5 L 76.5,-10.5 L 76.5,-5.75 L 80.5,-5.75 z
M 77.4349,-9.13069 L 77.3717,-9.14761 L 77.3125,-9.17523 L 77.2589,-9.21272 L 77.2127,-9.25894 L 77.1752,-9.3125
 L 77.1476,-9.37173 L 77.1307,-9.43488 L 77.125,-9.5 L 77.1307,-9.56511 L 77.1476,-9.62825 L 77.1752,-9.6875
 L 77.2127,-9.74104 L 77.2589,-9.78726 L 77.3125,-9.82475 L 77.3717,-9.85237 L 77.4349,-9.86929 L 77.5,-9.875
 L 77.5651,-9.86929 L 77.6283,-9.85237 L 77.6875,-9.82475 L 77.741,-9.78726 L 77.7873,-9.74104 L 77.8248,-9.6875
 L 77.8524,-9.62825 L 77.8693,-9.56511 L 77.875,-9.5 L 77.8693,-9.43488 L 77.8524,-9.37173 L 77.8248,-9.3125
 L 77.7873,-9.25894 L 77.741,-9.21272 L 77.6875,-9.17523 L 77.6283,-9.14761 L 77.5651,-9.13069 L 77.5,-9.125
 z
M 79.4349,-9.13069 L 79.3717,-9.14761 L 79.3125,-9.17523 L 79.2589,-9.21272 L 79.2127,-9.25894 L 79.1752,-9.3125
 L 79.1476,-9.37173 L 79.1307,-9.43488 L 79.125,-9.5 L 79.1307,-9.56511 L 79.1476,-9.62825 L 79.1752,-9.6875
 L 79.2127,-9.74104 L 79.2589,-9.78726 L 79.3125,-9.82475 L 79.3717,-9.85237 L 79.4349,-9.86929 L 79.5,-9.875
 L 79.5651,-9.86929 L 79.6283,-9.85237 L 79.6875,-9.82475 L 79.741,-9.78726 L 79.7873,-9.74104 L 79.8248,-9.6875
 L 79.8524,-9.62825 L 79.8693,-9.56511 L 79.875,-9.5 L 79.8693,-9.43488 L 79.8524,-9.37173 L 79.8248,-9.3125
 L 79.7873,-9.25894 L 79.741,-9.21272 L 79.6875,-9.17523 L 79.6283,-9.14761 L 79.5651,-9.13069 L 79.5,-9.125
 z
M 79.4132,-6.25758 L 79.329,-6.28015 L 79.25,-6.31699 L 79.1786,-6.36697 L 79.117,-6.4286 L 79.067,-6.5
 L 79.0302,-6.57898 L 79.0076,-6.66316 L 79,-6.75 L 79.0076,-6.83682 L 79.0302,-6.92101 L 79.067,-7
 L 79.117,-7.07138 L 79.1786,-7.13301 L 79.25,-7.183 L 79.329,-7.21983 L 79.4132,-7.2424 L 79.5,-7.25
 L 79.5868,-7.2424 L 79.671,-7.21983 L 79.75,-7.183 L 79.8214,-7.13301 L 79.883,-7.07138 L 79.933,-7
 L 79.9698,-6.92101 L 79.9924,-6.83682 L 80,-6.75 L 79.9924,-6.66316 L 79.9698,-6.57898 L 79.933,-6.5
 L 79.883,-6.4286 L 79.8214,-6.36697 L 79.75,-6.31699 L 79.671,-6.28015 L 79.5868,-6.25758 L 79.5,-6.25
 z
M 77.4132,-6.25758 L 77.329,-6.28015 L 77.25,-6.31699 L 77.1786,-6.36697 L 77.117,-6.4286 L 77.067,-6.5
 L 77.0302,-6.57898 L 77.0076,-6.66316 L 77,-6.75 L 77.0076,-6.83682 L 77.0302,-6.92101 L 77.067,-7
 L 77.117,-7.07138 L 77.1786,-7.13301 L 77.25,-7.183 L 77.329,-7.21983 L 77.4132,-7.2424 L 77.5,-7.25
 L 77.5868,-7.2424 L 77.671,-7.21983 L 77.75,-7.183 L 77.8214,-7.13301 L 77.883,-7.07138 L 77.933,-7
 L 77.9698,-6.92101 L 77.9924,-6.83682 L 78,-6.75 L 77.9924,-6.66316 L 77.9698,-6.57898 L 77.933,-6.5
 L 77.883,-6.4286 L 77.8214,-6.36697 L 77.75,-6.31699 L 77.671,-6.28015 L 77.5868,-6.25758 L 77.5,-6.25
 z
M 69.75,-5.125 L 69.875,-5.125 L 69.875,-5 L 71,-5 L 71,-6.125 L 70.875,-6.125
 L 70.875,-6.25 L 71.5,-6.25 L 71.5,-6.75 L 70.875,-6.75 L 70.875,-6.875 L 71,-6.875
 L 71,-8 L 68,-8 L 68,-5 L 69.125,-5 L 69.125,-5.125 L 69.25,-5.125
 L 69.25,-4.5 L 69.75,-4.5 z
M 69.4132,-6.00758 L 69.329,-6.03015 L 69.25,-6.06699 L 69.1786,-6.11697 L 69.117,-6.1786 L 69.067,-6.25
 L 69.0302,-6.32898 L 69.0076,-6.41316 L 69,-6.5 L 69.0076,-6.58682 L 69.0302,-6.67101 L 69.067,-6.75
 L 69.117,-6.82138 L 69.1786,-6.88301 L 69.25,-6.933 L 69.329,-6.96983 L 69.4132,-6.9924 L 69.5,-7
 L 69.5868,-6.9924 L 69.671,-6.96983 L 69.75,-6.933 L 69.8214,-6.88301 L 69.883,-6.82138 L 69.933,-6.75
 L 69.9698,-6.67101 L 69.9924,-6.58682 L 70,-6.5 L 69.9924,-6.41316 L 69.9698,-6.32898 L 69.933,-6.25
 L 69.883,-6.1786 L 69.8214,-6.11697 L 69.75,-6.06699 L 69.671,-6.03015 L 69.5868,-6.00758 L 69.5,-6
 z
M 216.75,-8 L 212.25,-8 L 212.25,-0 L 216.75,-0 z
M 214.684,-5.62576 L 214.62,-5.64291 L 214.56,-5.6709 L 214.506,-5.70889 L 214.459,-5.75574 L 214.421,-5.81
 L 214.393,-5.87003 L 214.376,-5.93401 L 214.37,-6 L 214.376,-6.06598 L 214.393,-6.12996 L 214.421,-6.18999
 L 214.459,-6.24425 L 214.506,-6.29109 L 214.56,-6.32909 L 214.62,-6.35707 L 214.684,-6.37422 L 214.75,-6.37999
 L 214.816,-6.37422 L 214.88,-6.35707 L 214.94,-6.32909 L 214.994,-6.29109 L 215.041,-6.24425 L 215.079,-6.18999
 L 215.107,-6.12996 L 215.124,-6.06598 L 215.13,-6 L 215.124,-5.93401 L 215.107,-5.87003 L 215.079,-5.81
 L 215.041,-5.75574 L 214.994,-5.70889 L 214.94,-5.6709 L 214.88,-5.64291 L 214.816,-5.62576 L 214.75,-5.62
 z
M 214.684,-1.62576 L 214.62,-1.64291 L 214.56,-1.6709 L 214.506,-1.70889 L 214.459,-1.75574 L 214.421,-1.81
 L 214.393,-1.87003 L 214.376,-1.93401 L 214.37,-2 L 214.376,-2.06598 L 214.393,-2.12996 L 214.421,-2.18999
 L 214.459,-2.24425 L 214.506,-2.29109 L 214.56,-2.32909 L 214.62,-2.35707 L 214.684,-2.37422 L 214.75,-2.37999
 L 214.816,-2.37422 L 214.88,-2.35707 L 214.94,-2.32909 L 214.994,-2.29109 L 215.041,-2.24425 L 215.079,-2.18999
 L 215.107,-2.12996 L 215.124,-2.06598 L 215.13,-2 L 215.124,-1.93401 L 215.107,-1.87003 L 215.079,-1.81
 L 215.041,-1.75574 L 214.994,-1.70889 L 214.94,-1.6709 L 214.88,-1.64291 L 214.816,-1.62576 L 214.75,-1.62
 z
M 37.25,-0.625 L 37.375,-0.625 L 37.375,-0.5 L 40.625,-0.5 L 40.625,-0.625 L 40.75,-0.625
 L 40.75,-0 L 41.5,-0 L 41.5,-3.125 L 41.375,-3.125 L 41.375,-3.25 L 42,-3.25
 L 42,-3.75 L 41.375,-3.75 L 41.375,-3.875 L 41.5,-3.875 L 41.5,-7 L 40.75,-7
 L 40.75,-6.375 L 40.625,-6.375 L 40.625,-6.5 L 37.375,-6.5 L 37.375,-6.375 L 37.25,-6.375
 L 37.25,-7 L 36.5,-7 L 36.5,-0 L 37.25,-0 z
M 61,-4.5 L 60.375,-4.5 L 60.375,-4.625 L 60.5,-4.625 L 60.5,-4.875 L 60.375,-4.875
 L 60.375,-6.125 L 60.5,-6.125 L 60.5,-6.375 L 60.375,-6.375 L 60.375,-6.5 L 61,-6.5
 L 61,-7 L 57,-7 L 57,-4 L 61,-4 z
M 58.4132,-5.00758 L 58.329,-5.03015 L 58.25,-5.06699 L 58.1786,-5.11697 L 58.117,-5.1786 L 58.067,-5.25
 L 58.0302,-5.32898 L 58.0076,-5.41316 L 58,-5.5 L 58.0076,-5.58682 L 58.0302,-5.67101 L 58.067,-5.75
 L 58.117,-5.82138 L 58.1786,-5.88301 L 58.25,-5.933 L 58.329,-5.96983 L 58.4132,-5.9924 L 58.5,-6
 L 58.5868,-5.9924 L 58.671,-5.96983 L 58.75,-5.933 L 58.8214,-5.88301 L 58.883,-5.82138 L 58.933,-5.75
 L 58.9698,-5.67101 L 58.9924,-5.58682 L 59,-5.5 L 58.9924,-5.41316 L 58.9698,-5.32898 L 58.933,-5.25
 L 58.883,-5.1786 L 58.8214,-5.11697 L 58.75,-5.06699 L 58.671,-5.03015 L 58.5868,-5.00758 L 58.5,-5
 z
M 80.5,-4.75 L 76.5,-4.75 L 76.5,-0 L 80.5,-0 z
M 77.4349,-3.38069 L 77.3717,-3.39761 L 77.3125,-3.42523 L 77.2589,-3.46272 L 77.2127,-3.50894 L 77.1752,-3.5625
 L 77.1476,-3.62173 L 77.1307,-3.68488 L 77.125,-3.75 L 77.1307,-3.81511 L 77.1476,-3.87825 L 77.1752,-3.9375
 L 77.2127,-3.99104 L 77.2589,-4.03726 L 77.3125,-4.07475 L 77.3717,-4.10237 L 77.4349,-4.11929 L 77.5,-4.125
 L 77.5651,-4.11929 L 77.6283,-4.10237 L 77.6875,-4.07475 L 77.741,-4.03726 L 77.7873,-3.99104 L 77.8248,-3.9375
 L 77.8524,-3.87825 L 77.8693,-3.81511 L 77.875,-3.75 L 77.8693,-3.68488 L 77.8524,-3.62173 L 77.8248,-3.5625
 L 77.7873,-3.50894 L 77.741,-3.46272 L 77.6875,-3.42523 L 77.6283,-3.39761 L 77.5651,-3.38069 L 77.5,-3.375
 z
M 79.4349,-3.38069 L 79.3717,-3.39761 L 79.3125,-3.42523 L 79.2589,-3.46272 L 79.2127,-3.50894 L 79.1752,-3.5625
 L 79.1476,-3.62173 L 79.1307,-3.68488 L 79.125,-3.75 L 79.1307,-3.81511 L 79.1476,-3.87825 L 79.1752,-3.9375
 L 79.2127,-3.99104 L 79.2589,-4.03726 L 79.3125,-4.07475 L 79.3717,-4.10237 L 79.4349,-4.11929 L 79.5,-4.125
 L 79.5651,-4.11929 L 79.6283,-4.10237 L 79.6875,-4.07475 L 79.741,-4.03726 L 79.7873,-3.99104 L 79.8248,-3.9375
 L 79.8524,-3.87825 L 79.8693,-3.81511 L 79.875,-3.75 L 79.8693,-3.68488 L 79.8524,-3.62173 L 79.8248,-3.5625
 L 79.7873,-3.50894 L 79.741,-3.46272 L 79.6875,-3.42523 L 79.6283,-3.39761 L 79.5651,-3.38069 L 79.5,-3.375
 z
M 77.4132,-0.507584 L 77.329,-0.530151 L 77.25,-0.566986 L 77.1786,-0.616974 L 77.117,-0.678604 L 77.067,-0.75
 L 77.0302,-0.828979 L 77.0076,-0.913162 L 77,-1 L 77.0076,-1.08682 L 77.0302,-1.17101 L 77.067,-1.25
 L 77.117,-1.32138 L 77.1786,-1.38301 L 77.25,-1.433 L 77.329,-1.46983 L 77.4132,-1.4924 L 77.5,-1.5
 L 77.5868,-1.4924 L 77.671,-1.46983 L 77.75,-1.433 L 77.8214,-1.38301 L 77.883,-1.32138 L 77.933,-1.25
 L 77.9698,-1.17101 L 77.9924,-1.08682 L 78,-1 L 77.9924,-0.913162 L 77.9698,-0.828979 L 77.933,-0.75
 L 77.883,-0.678604 L 77.8214,-0.616974 L 77.75,-0.566986 L 77.671,-0.530151 L 77.5868,-0.507584 L 77.5,-0.5
 z
M 79.4132,-0.507584 L 79.329,-0.530151 L 79.25,-0.566986 L 79.1786,-0.616974 L 79.117,-0.678604 L 79.067,-0.75
 L 79.0302,-0.828979 L 79.0076,-0.913162 L 79,-1 L 79.0076,-1.08682 L 79.0302,-1.17101 L 79.067,-1.25
 L 79.117,-1.32138 L 79.1786,-1.38301 L 79.25,-1.433 L 79.329,-1.46983 L 79.4132,-1.4924 L 79.5,-1.5
 L 79.5868,-1.4924 L 79.671,-1.46983 L 79.75,-1.433 L 79.8214,-1.38301 L 79.883,-1.32138 L 79.933,-1.25
 L 79.9698,-1.17101 L 79.9924,-1.08682 L 80,-1 L 79.9924,-0.913162 L 79.9698,-0.828979 L 79.933,-0.75
 L 79.883,-0.678604 L 79.8214,-0.616974 L 79.75,-0.566986 L 79.671,-0.530151 L 79.5868,-0.507584 L 79.5,-0.5
 z
M 69.75,-0.625 L 69.875,-0.625 L 69.875,-0.5 L 71,-0.5 L 71,-1.625 L 70.875,-1.625
 L 70.875,-1.75 L 71.5,-1.75 L 71.5,-2.25 L 70.875,-2.25 L 70.875,-2.375 L 71,-2.375
 L 71,-3.5 L 68,-3.5 L 68,-0.5 L 69.125,-0.5 L 69.125,-0.625 L 69.25,-0.625
 L 69.25,-0 L 69.75,-0 z
M 69.4132,-1.50758 L 69.329,-1.53015 L 69.25,-1.56699 L 69.1786,-1.61697 L 69.117,-1.6786 L 69.067,-1.75
 L 69.0302,-1.82898 L 69.0076,-1.91316 L 69,-2 L 69.0076,-2.08682 L 69.0302,-2.17101 L 69.067,-2.25
 L 69.117,-2.32138 L 69.1786,-2.38301 L 69.25,-2.433 L 69.329,-2.46983 L 69.4132,-2.4924 L 69.5,-2.5
 L 69.5868,-2.4924 L 69.671,-2.46983 L 69.75,-2.433 L 69.8214,-2.38301 L 69.883,-2.32138 L 69.933,-2.25
 L 69.9698,-2.17101 L 69.9924,-2.08682 L 70,-2 L 69.9924,-1.91316 L 69.9698,-1.82898 L 69.933,-1.75
 L 69.883,-1.6786 L 69.8214,-1.61697 L 69.75,-1.56699 L 69.671,-1.53015 L 69.5868,-1.50758 L 69.5,-1.5
 z
M 61,-0.5 L 60.375,-0.5 L 60.375,-0.625 L 60.5,-0.625 L 60.5,-0.875 L 60.375,-0.875
 L 60.375,-2.125 L 60.5,-2.125 L 60.5,-2.375 L 60.375,-2.375 L 60.375,-2.5 L 61,-2.5
 L 61,-3 L 57,-3 L 57,-0 L 61,-0 z
M 58.4132,-1.00758 L 58.329,-1.03015 L 58.25,-1.06699 L 58.1786,-1.11697 L 58.117,-1.1786 L 58.067,-1.25
 L 58.0302,-1.32898 L 58.0076,-1.41316 L 58,-1.5 L 58.0076,-1.58682 L 58.0302,-1.67101 L 58.067,-1.75
 L 58.117,-1.82138 L 58.1786,-1.88301 L 58.25,-1.933 L 58.329,-1.96983 L 58.4132,-1.9924 L 58.5,-2
 L 58.5868,-1.9924 L 58.671,-1.96983 L 58.75,-1.933 L 58.8214,-1.88301 L 58.883,-1.82138 L 58.933,-1.75
 L 58.9698,-1.67101 L 58.9924,-1.58682 L 59,-1.5 L 58.9924,-1.41316 L 58.9698,-1.32898 L 58.933,-1.25
 L 58.883,-1.1786 L 58.8214,-1.11697 L 58.75,-1.06699 L 58.671,-1.03015 L 58.5868,-1.00758 L 58.5,-1
 z
" stroke="black" fill="lightgray" stroke-width="0.5"/>
</svg>
