<?xml version="1.0" standalone="no"?>
<!DOCTYPE svg PUBLIC "-//W3C//DTD SVG 1.1//EN" "http://www.w3.org/Graphics/SVG/1.1/DTD/svg11.dtd">
<svg width="711mm" height="74mm" viewBox="-197 -74 711 74" xmlns="http://www.w3.org/2000/svg" version="1.1">
<title>OpenSCAD Model</title>
<path d="
M 372.375,-24.7704 L 372.5,-24.7704 L 372.5,-25.2704 L 372.375,-25.2704 L 372.375,-31.9439 L 372.5,-31.9439
 L 372.5,-32.4439 L 372.375,-32.4439 L 372.375,-32.6939 L 373,-32.6939 L 373,-40.8673 L 372.375,-40.8673
 L 372.375,-41.1173 L 372.5,-41.1173 L 372.5,-41.6173 L 372.375,-41.6173 L 372.375,-48.2908 L 372.5,-48.2908
 L 372.5,-48.7908 L 372.375,-48.7908 L 372.375,-49.0408 L 373,-49.0408 L 373,-57.2143 L 372.375,-57.2143
 L 372.375,-57.4643 L 372.5,-57.4643 L 372.5,-57.9643 L 372.375,-57.9643 L 372.375,-64.6377 L 372.5,-64.6377
 L 372.5,-65.1377 L 372.375,-65.1377 L 372.375,-65.3877 L 373,-65.3877 L 373,-73.5612 L 367,-73.5612
 L 367,-65.3877 L 367.625,-65.3877 L 367.625,-65.1377 L 367.5,-65.1377 L 367.5,-64.6377 L 367.625,-64.6377
 L 367.625,-57.9643 L 367.5,-57.9643 L 367.5,-57.4643 L 367.625,-57.4643 L 367.625,-57.2143 L 367,-57.2143
 L 367,-49.0408 L 367.625,-49.0408 L 367.625,-48.7908 L 367.5,-48.7908 L 367.5,-48.2908 L 367.625,-48.2908
 L 367.625,-41.6173 L 367.5,-41.6173 L 367.5,-41.1173 L 367.625,-41.1173 L 367.625,-40.8673 L 367,-40.8673
 L 367,-32.6939 L 367.625,-32.6939 L 367.625,-32.4439 L 367.5,-32.4439 L 367.5,-31.9439 L 367.625,-31.9439
 L 367.625,-25.2704 L 367.5,-25.2704 L 367.5,-24.7704 L 367.625,-24.7704 L 367.625,-24.5204 L 372.375,-24.5204
 z
M 369.913,-59.9105 L 369.829,-59.933 L 369.75,-59.9699 L 369.679,-60.0199 L 369.617,-60.0815 L 369.567,-60.1529
 L 369.53,-60.2319 L 369.508,-60.3161 L 369.5,-60.4029 L 369.5,-60.6629 L 369.508,-60.7497 L 369.53,-60.8339
 L 369.567,-60.9129 L 369.617,-60.9843 L 369.679,-61.0459 L 369.75,-61.0959 L 369.829,-61.1327 L 369.913,-61.1553
 L 370,-61.1629 L 370.087,-61.1553 L 370.171,-61.1327 L 370.25,-61.0959 L 370.321,-61.0459 L 370.383,-60.9843
 L 370.433,-60.9129 L 370.47,-60.8339 L 370.492,-60.7497 L 370.5,-60.6629 L 370.5,-60.4029 L 370.492,-60.3161
 L 370.47,-60.2319 L 370.433,-60.1529 L 370.383,-60.0815 L 370.321,-60.0199 L 370.25,-59.9699 L 370.171,-59.933
 L 370.087,-59.9105 L 370,-59.9029 z
M 369.913,-52.9105 L 369.829,-52.933 L 369.75,-52.9699 L 369.679,-53.0199 L 369.617,-53.0815 L 369.567,-53.1529
 L 369.53,-53.2319 L 369.508,-53.3161 L 369.5,-53.4029 L 369.5,-53.6629 L 369.508,-53.7497 L 369.53,-53.8339
 L 369.567,-53.9129 L 369.617,-53.9843 L 369.679,-54.0459 L 369.75,-54.0959 L 369.829,-54.1327 L 369.913,-54.1553
 L 370,-54.1629 L 370.087,-54.1553 L 370.171,-54.1327 L 370.25,-54.0959 L 370.321,-54.0459 L 370.383,-53.9843
 L 370.433,-53.9129 L 370.47,-53.8339 L 370.492,-53.7497 L 370.5,-53.6629 L 370.5,-53.4029 L 370.492,-53.3161
 L 370.47,-53.2319 L 370.433,-53.1529 L 370.383,-53.0815 L 370.321,-53.0199 L 370.25,-52.9699 L 370.171,-52.933
 L 370.087,-52.9105 L 370,-52.9029 z
M 378.5,-32.6939 L 377.875,-32.6939 L 377.875,-32.9439 L 378,-32.9439 L 378,-33.4439 L 377.875,-33.4439
 L 377.875,-40.1173 L 378,-40.1173 L 378,-40.6173 L 377.875,-40.6173 L 377.875,-40.8673 L 378.5,-40.8673
 L 378.5,-49.0408 L 377.875,-49.0408 L 377.875,-49.2908 L 378,-49.2908 L 378,-49.7908 L 377.875,-49.7908
 L 377.875,-56.4643 L 378,-56.4643 L 378,-56.9643 L 377.875,-56.9643 L 377.875,-57.2143 L 378.5,-57.2143
 L 378.5,-65.3877 L 377.875,-65.3877 L 377.875,-65.6377 L 378,-65.6377 L 378,-66.1377 L 377.875,-66.1377
 L 377.875,-72.8112 L 378,-72.8112 L 378,-73.3112 L 377.875,-73.3112 L 377.875,-73.5612 L 374.531,-73.5612
 L 374.531,-73.1549 L 374.656,-73.1549 L 374.656,-72.9049 L 374.406,-72.9049 L 374.406,-73.0299 L 374,-73.0299
 L 374,-67.7612 L 375.4,-67.7612 L 375.4,-61.3612 L 374,-61.3612 L 374,-50.5641 L 374.406,-50.5641
 L 374.406,-50.6891 L 374.656,-50.6891 L 374.656,-50.4391 L 374.531,-50.4391 L 374.531,-50.1266 L 374.656,-50.1266
 L 374.656,-49.8766 L 374.406,-49.8766 L 374.406,-50.0016 L 374,-50.0016 L 374,-25.0516 L 374.406,-25.0516
 L 374.406,-25.1766 L 374.656,-25.1766 L 374.656,-24.9266 L 374.531,-24.9266 L 374.531,-24.5204 L 378.5,-24.5204
 z
M 376.434,-71.687 L 376.37,-71.7041 L 376.31,-71.7321 L 376.256,-71.7701 L 376.209,-71.8169 L 376.171,-71.8712
 L 376.143,-71.9312 L 376.126,-71.9952 L 376.12,-72.0612 L 376.126,-72.1272 L 376.143,-72.1912 L 376.171,-72.2512
 L 376.209,-72.3055 L 376.256,-72.3523 L 376.31,-72.3903 L 376.37,-72.4183 L 376.434,-72.4354 L 376.5,-72.4412
 L 376.566,-72.4354 L 376.63,-72.4183 L 376.69,-72.3903 L 376.744,-72.3523 L 376.791,-72.3055 L 376.829,-72.2512
 L 376.857,-72.1912 L 376.874,-72.1272 L 376.88,-72.0612 L 376.874,-71.9952 L 376.857,-71.9312 L 376.829,-71.8712
 L 376.791,-71.8169 L 376.744,-71.7701 L 376.69,-71.7321 L 376.63,-71.7041 L 376.566,-71.687 L 376.5,-71.6812
 z
M 376.434,-68.687 L 376.37,-68.7041 L 376.31,-68.7321 L 376.256,-68.7701 L 376.209,-68.8169 L 376.171,-68.8712
 L 376.143,-68.9312 L 376.126,-68.9952 L 376.12,-69.0612 L 376.126,-69.1272 L 376.143,-69.1912 L 376.171,-69.2512
 L 376.209,-69.3055 L 376.256,-69.3523 L 376.31,-69.3903 L 376.37,-69.4183 L 376.434,-69.4354 L 376.5,-69.4412
 L 376.566,-69.4354 L 376.63,-69.4183 L 376.69,-69.3903 L 376.744,-69.3523 L 376.791,-69.3055 L 376.829,-69.2512
 L 376.857,-69.1912 L 376.874,-69.1272 L 376.88,-69.0612 L 376.874,-68.9952 L 376.857,-68.9312 L 376.829,-68.8712
 L 376.791,-68.8169 L 376.744,-68.7701 L 376.69,-68.7321 L 376.63,-68.7041 L 376.566,-68.687 L 376.5,-68.6812
 z
M 376.413,-59.038 L 376.328,-59.0607 L 376.249,-59.0977 L 376.177,-59.1479 L 376.115,-59.2099 L 376.065,-59.2816
 L 376.028,-59.361 L 376.005,-59.4456 L 375.997,-59.5329 L 376.005,-59.6201 L 376.028,-59.7048 L 376.065,-59.7841
 L 376.115,-59.8559 L 376.177,-59.9178 L 376.249,-59.9681 L 376.328,-60.0051 L 376.413,-60.0278 L 376.5,-60.0354
 L 376.587,-60.0278 L 376.672,-60.0051 L 376.751,-59.9681 L 376.823,-59.9178 L 376.885,-59.8559 L 376.935,-59.7841
 L 376.972,-59.7048 L 376.995,-59.6201 L 377.002,-59.5329 L 376.995,-59.4456 L 376.972,-59.361 L 376.935,-59.2816
 L 376.885,-59.2099 L 376.823,-59.1479 L 376.751,-59.0977 L 376.672,-59.0607 L 376.587,-59.038 L 376.5,-59.0304
 z
M 376.413,-56.038 L 376.328,-56.0607 L 376.249,-56.0977 L 376.177,-56.1479 L 376.115,-56.2099 L 376.065,-56.2816
 L 376.028,-56.361 L 376.005,-56.4456 L 375.997,-56.5329 L 376.005,-56.6201 L 376.028,-56.7048 L 376.065,-56.7841
 L 376.115,-56.8559 L 376.177,-56.9178 L 376.249,-56.9681 L 376.328,-57.0051 L 376.413,-57.0278 L 376.5,-57.0354
 L 376.587,-57.0278 L 376.672,-57.0051 L 376.751,-56.9681 L 376.823,-56.9178 L 376.885,-56.8559 L 376.935,-56.7841
 L 376.972,-56.7048 L 376.995,-56.6201 L 377.002,-56.5329 L 376.995,-56.4456 L 376.972,-56.361 L 376.935,-56.2816
 L 376.885,-56.2099 L 376.823,-56.1479 L 376.751,-56.0977 L 376.672,-56.0607 L 376.587,-56.038 L 376.5,-56.0304
 z
M 376.413,-52.038 L 376.328,-52.0607 L 376.249,-52.0977 L 376.177,-52.1479 L 376.115,-52.2099 L 376.065,-52.2816
 L 376.028,-52.361 L 376.005,-52.4456 L 375.997,-52.5329 L 376.005,-52.6201 L 376.028,-52.7048 L 376.065,-52.7841
 L 376.115,-52.8559 L 376.177,-52.9178 L 376.249,-52.9681 L 376.328,-53.0051 L 376.413,-53.0278 L 376.5,-53.0354
 L 376.587,-53.0278 L 376.672,-53.0051 L 376.751,-52.9681 L 376.823,-52.9178 L 376.885,-52.8559 L 376.935,-52.7841
 L 376.972,-52.7048 L 376.995,-52.6201 L 377.002,-52.5329 L 376.995,-52.4456 L 376.972,-52.361 L 376.935,-52.2816
 L 376.885,-52.2099 L 376.823,-52.1479 L 376.751,-52.0977 L 376.672,-52.0607 L 376.587,-52.038 L 376.5,-52.0304
 z
M 376.434,-30.1462 L 376.37,-30.1633 L 376.31,-30.1913 L 376.256,-30.2293 L 376.209,-30.2761 L 376.171,-30.3304
 L 376.143,-30.3904 L 376.126,-30.4544 L 376.12,-30.5204 L 376.126,-30.5864 L 376.143,-30.6504 L 376.171,-30.7104
 L 376.209,-30.7646 L 376.256,-30.8115 L 376.31,-30.8495 L 376.37,-30.8775 L 376.434,-30.8946 L 376.5,-30.9004
 L 376.566,-30.8946 L 376.63,-30.8775 L 376.69,-30.8495 L 376.744,-30.8115 L 376.791,-30.7646 L 376.829,-30.7104
 L 376.857,-30.6504 L 376.874,-30.5864 L 376.88,-30.5204 L 376.874,-30.4544 L 376.857,-30.3904 L 376.829,-30.3304
 L 376.791,-30.2761 L 376.744,-30.2293 L 376.69,-30.1913 L 376.63,-30.1633 L 376.566,-30.1462 L 376.5,-30.1404
 z
M 376.434,-26.1462 L 376.37,-26.1633 L 376.31,-26.1913 L 376.256,-26.2293 L 376.209,-26.2761 L 376.171,-26.3304
 L 376.143,-26.3904 L 376.126,-26.4544 L 376.12,-26.5204 L 376.126,-26.5864 L 376.143,-26.6504 L 376.171,-26.7104
 L 376.209,-26.7646 L 376.256,-26.8115 L 376.31,-26.8495 L 376.37,-26.8775 L 376.434,-26.8946 L 376.5,-26.9004
 L 376.566,-26.8946 L 376.63,-26.8775 L 376.69,-26.8495 L 376.744,-26.8115 L 376.791,-26.7646 L 376.829,-26.7104
 L 376.857,-26.6504 L 376.874,-26.5864 L 376.88,-26.5204 L 376.874,-26.4544 L 376.857,-26.3904 L 376.829,-26.3304
 L 376.791,-26.2761 L 376.744,-26.2293 L 376.69,-26.1913 L 376.63,-26.1633 L 376.566,-26.1462 L 376.5,-26.1404
 z
M 446.25,-18.2431 L 446.25,-37.7569 L 409.25,-56 L 409.25,-0 z
M 481.294,-16 L 481.294,-40 L 447.25,-56 L 447.25,-0 z
M 97.1562,-39.5625 L 97.0312,-39.5625 L 97.0312,-39.8125 L 97.2812,-39.8125 L 97.2812,-39.6875 L 97.7188,-39.6875
 L 97.7188,-39.8125 L 97.9688,-39.8125 L 97.9688,-39.5625 L 97.8438,-39.5625 L 97.8438,-39 L 98.5,-39
 L 98.5,-45 L 92.0573,-45 L 92.0573,-44.375 L 91.9323,-44.375 L 91.9323,-44.5 L 91.4323,-44.5
 L 91.4323,-44.375 L 86.1146,-44.375 L 86.1146,-44.5 L 85.6146,-44.5 L 85.6146,-44.375 L 85.4896,-44.375
 L 85.4896,-45 L 79.0469,-45 L 79.0469,-44.375 L 78.9219,-44.375 L 78.9219,-44.5 L 78.4219,-44.5
 L 78.4219,-44.375 L 73.1042,-44.375 L 73.1042,-44.5 L 72.6042,-44.5 L 72.6042,-44.375 L 72.4792,-44.375
 L 72.4792,-45 L 66.0365,-45 L 66.0365,-44.375 L 65.9115,-44.375 L 65.9115,-44.5 L 65.4115,-44.5
 L 65.4115,-44.375 L 60.0938,-44.375 L 60.0938,-44.5 L 59.5938,-44.5 L 59.5938,-44.375 L 59.4688,-44.375
 L 59.4688,-45 L 53.026,-45 L 53.026,-44.375 L 52.901,-44.375 L 52.901,-44.5 L 52.401,-44.5
 L 52.401,-44.375 L 47.0833,-44.375 L 47.0833,-44.5 L 46.5833,-44.5 L 46.5833,-44.375 L 46.4583,-44.375
 L 46.4583,-45 L 40.0156,-45 L 40.0156,-44.375 L 39.8906,-44.375 L 39.8906,-44.5 L 39.3906,-44.5
 L 39.3906,-44.375 L 34.7188,-44.375 L 34.7188,-44.625 L 34.625,-44.625 L 34.625,-44.875 L 35.25,-44.875
 L 35.25,-44.7812 L 35.5,-44.7812 L 35.5,-51 L 34.75,-51 L 34.75,-50.375 L 34.625,-50.375
 L 34.625,-50.5 L 34.375,-50.5 L 34.375,-50.375 L 31.125,-50.375 L 31.125,-50.5 L 30.875,-50.5
 L 30.875,-50.375 L 30.75,-50.375 L 30.75,-51 L 30,-51 L 30,-45 L 27.0052,-45
 L 27.0052,-44.375 L 26.8802,-44.375 L 26.8802,-44.5 L 26.3802,-44.5 L 26.3802,-44.375 L 21.0625,-44.375
 L 21.0625,-44.5 L 20.5625,-44.5 L 20.5625,-44.375 L 20.5,-44.375 L 20.5,-42.5 L 20.0677,-42.5
 L 20.0677,-42.375 L 19.9427,-42.375 L 19.9427,-43 L 13.5,-43 L 13.5,-39 L 14.1562,-39
 L 14.1562,-39.5625 L 14.0312,-39.5625 L 14.0312,-39.8125 L 14.2812,-39.8125 L 14.2812,-39.6875 L 14.7188,-39.6875
 L 14.7188,-39.8125 L 14.9688,-39.8125 L 14.9688,-39.5625 L 14.8438,-39.5625 L 14.8438,-39 L 30,-39
 L 30,-26 L 30.75,-26 L 30.75,-26.625 L 30.875,-26.625 L 30.875,-26.5 L 31.125,-26.5
 L 31.125,-26.625 L 34.375,-26.625 L 34.375,-26.5 L 34.625,-26.5 L 34.625,-26.625 L 34.75,-26.625
 L 34.75,-26 L 35.5,-26 L 35.5,-32.2188 L 35.25,-32.2188 L 35.25,-32.125 L 34.625,-32.125
 L 34.625,-32.375 L 34.7188,-32.375 L 34.7188,-32.625 L 34.625,-32.625 L 34.625,-32.875 L 35.25,-32.875
 L 35.25,-32.7812 L 35.5,-32.7812 L 35.5,-38.2188 L 35.25,-38.2188 L 35.25,-38.125 L 34.625,-38.125
 L 34.625,-38.375 L 34.7188,-38.375 L 34.7188,-38.625 L 34.625,-38.625 L 34.625,-38.875 L 35.25,-38.875
 L 35.25,-38.7812 L 35.5,-38.7812 L 35.5,-39 L 97.1562,-39 z
M 16.4305,-40.6061 L 16.3632,-40.6241 L 16.3,-40.6536 L 16.2429,-40.6936 L 16.1936,-40.7429 L 16.1536,-40.8
 L 16.1241,-40.8632 L 16.1061,-40.9305 L 16.1,-41 L 16.1061,-41.0695 L 16.1241,-41.1368 L 16.1536,-41.2
 L 16.1936,-41.2571 L 16.2429,-41.3064 L 16.3,-41.3464 L 16.3632,-41.3759 L 16.4305,-41.3939 L 16.5,-41.4
 L 16.5695,-41.3939 L 16.6368,-41.3759 L 16.7,-41.3464 L 16.7571,-41.3064 L 16.8064,-41.2571 L 16.8464,-41.2
 L 16.8759,-41.1368 L 16.8939,-41.0695 L 16.9,-41 L 16.8939,-40.9305 L 16.8759,-40.8632 L 16.8464,-40.8
 L 16.8064,-40.7429 L 16.7571,-40.6936 L 16.7,-40.6536 L 16.6368,-40.6241 L 16.5695,-40.6061 L 16.5,-40.6
 z
M 30.375,-38.125 L 30.375,-38.375 L 30.4688,-38.375 L 30.4688,-38.625 L 30.375,-38.625 L 30.375,-38.875
 L 30.75,-38.875 L 30.75,-38.7812 L 31,-38.7812 L 31,-38.875 L 31.375,-38.875 L 31.375,-38.625
 L 31.2812,-38.625 L 31.2812,-38.375 L 31.375,-38.375 L 31.375,-38.125 L 31,-38.125 L 31,-38.2188
 L 30.75,-38.2188 L 30.75,-38.125 z
M 30.375,-32.125 L 30.375,-32.375 L 30.4688,-32.375 L 30.4688,-32.625 L 30.375,-32.625 L 30.375,-32.875
 L 30.75,-32.875 L 30.75,-32.7812 L 31,-32.7812 L 31,-32.875 L 31.375,-32.875 L 31.375,-32.625
 L 31.2812,-32.625 L 31.2812,-32.375 L 31.375,-32.375 L 31.375,-32.125 L 31,-32.125 L 31,-32.2188
 L 30.75,-32.2188 L 30.75,-32.125 z
M -1,-48 L -97,-48 L -97,-0.00999451 L -101,-0.00999451 L -101,-48 L -197,-48
 L -197,-0 L -1,-0 z
M 336,-16.6942 L 335.375,-16.6942 L 335.375,-16.8192 L 335.5,-16.8192 L 335.5,-45.9576 L 335.375,-45.9576
 L 335.375,-46.0826 L 336,-46.0826 L 336,-47.0826 L 332.5,-47.0826 L 332.5,-15.6942 L 336,-15.6942
 z
M 357,-4 L 356.375,-4 L 356.375,-5 L 356.5,-5 L 356.5,-6 L 356.375,-6
 L 356.375,-18.0942 L 356.5,-18.0942 L 356.5,-19.0942 L 356.375,-19.0942 L 356.375,-20.0942 L 357,-20.0942
 L 357,-22.0942 L 356.375,-22.0942 L 356.375,-23.0942 L 356.5,-23.0942 L 356.5,-24.0942 L 356.375,-24.0942
 L 356.375,-36.1884 L 356.5,-36.1884 L 356.5,-37.1884 L 356.375,-37.1884 L 356.375,-38.1884 L 357,-38.1884
 L 357,-42.1884 L 353.5,-42.1884 L 353.5,-0 L 357,-0 z
M 354.913,-39.696 L 354.829,-39.7186 L 354.75,-39.7554 L 354.679,-39.8054 L 354.617,-39.867 L 354.567,-39.9384
 L 354.53,-40.0174 L 354.508,-40.1016 L 354.5,-40.1884 L 354.508,-40.2752 L 354.53,-40.3594 L 354.567,-40.4384
 L 354.617,-40.5098 L 354.679,-40.5714 L 354.75,-40.6214 L 354.829,-40.6582 L 354.913,-40.6808 L 355,-40.6884
 L 355.087,-40.6808 L 355.171,-40.6582 L 355.25,-40.6214 L 355.321,-40.5714 L 355.383,-40.5098 L 355.433,-40.4384
 L 355.47,-40.3594 L 355.492,-40.2752 L 355.5,-40.1884 L 355.492,-40.1016 L 355.47,-40.0174 L 355.433,-39.9384
 L 355.383,-39.867 L 355.321,-39.8054 L 355.25,-39.7554 L 355.171,-39.7186 L 355.087,-39.696 L 355,-39.6884
 z
M 354.913,-1.50758 L 354.829,-1.53015 L 354.75,-1.56699 L 354.679,-1.61697 L 354.617,-1.6786 L 354.567,-1.75
 L 354.53,-1.82898 L 354.508,-1.91316 L 354.5,-2 L 354.508,-2.08682 L 354.53,-2.17101 L 354.567,-2.25
 L 354.617,-2.32138 L 354.679,-2.38301 L 354.75,-2.433 L 354.829,-2.46983 L 354.913,-2.4924 L 355,-2.5
 L 355.087,-2.4924 L 355.171,-2.46983 L 355.25,-2.433 L 355.321,-2.38301 L 355.383,-2.32138 L 355.433,-2.25
 L 355.47,-2.17101 L 355.492,-2.08682 L 355.5,-2 L 355.492,-1.91316 L 355.47,-1.82898 L 355.433,-1.75
 L 355.383,-1.6786 L 355.321,-1.61697 L 355.25,-1.56699 L 355.171,-1.53015 L 355.087,-1.50758 L 355,-1.5
 z
M 341.5,-21.9067 L 341.938,-21.9067 L 341.938,-22.0317 L 342.188,-22.0317 L 342.188,-21.7817 L 342.062,-21.7817
 L 342.062,-19.9067 L 342.188,-19.9067 L 342.188,-19.6567 L 341.938,-19.6567 L 341.938,-19.7817 L 341.5,-19.7817
 L 341.5,-3.75 L 342.125,-3.75 L 342.125,-3.625 L 342,-3.625 L 342,-2.625 L 342.125,-2.625
 L 342.125,-0.875 L 342,-0.875 L 342,-0.340897 L 347,-3.75 L 352.5,-3.75 L 352.5,-37.9384
 L 347,-37.9384 L 342,-41.3475 L 342,-40.8134 L 342.125,-40.8134 L 342.125,-39.0634 L 342,-39.0634
 L 342,-38.0634 L 342.125,-38.0634 L 342.125,-37.9384 L 341.5,-37.9384 z
M 350.413,-34.9435 L 350.328,-34.9662 L 350.249,-35.0032 L 350.177,-35.0535 L 350.115,-35.1154 L 350.065,-35.1871
 L 350.028,-35.2665 L 350.005,-35.3511 L 349.997,-35.4384 L 350.005,-35.5257 L 350.028,-35.6103 L 350.065,-35.6896
 L 350.115,-35.7614 L 350.177,-35.8233 L 350.249,-35.8736 L 350.328,-35.9106 L 350.413,-35.9333 L 350.5,-35.9409
 L 350.587,-35.9333 L 350.672,-35.9106 L 350.751,-35.8736 L 350.823,-35.8233 L 350.885,-35.7614 L 350.935,-35.6896
 L 350.972,-35.6103 L 350.995,-35.5257 L 351.002,-35.4384 L 350.995,-35.3511 L 350.972,-35.2665 L 350.935,-35.1871
 L 350.885,-35.1154 L 350.823,-35.0535 L 350.751,-35.0032 L 350.672,-34.9662 L 350.587,-34.9435 L 350.5,-34.9359
 z
M 346.413,-34.9435 L 346.328,-34.9662 L 346.249,-35.0032 L 346.177,-35.0535 L 346.115,-35.1154 L 346.065,-35.1871
 L 346.028,-35.2665 L 346.005,-35.3511 L 345.997,-35.4384 L 346.005,-35.5257 L 346.028,-35.6103 L 346.065,-35.6896
 L 346.115,-35.7614 L 346.177,-35.8233 L 346.249,-35.8736 L 346.328,-35.9106 L 346.413,-35.9333 L 346.5,-35.9409
 L 346.587,-35.9333 L 346.672,-35.9106 L 346.751,-35.8736 L 346.823,-35.8233 L 346.885,-35.7614 L 346.935,-35.6896
 L 346.972,-35.6103 L 346.995,-35.5257 L 347.002,-35.4384 L 346.995,-35.3511 L 346.972,-35.2665 L 346.935,-35.1871
 L 346.885,-35.1154 L 346.823,-35.0535 L 346.751,-35.0032 L 346.672,-34.9662 L 346.587,-34.9435 L 346.5,-34.9359
 z
M 343.413,-34.9435 L 343.328,-34.9662 L 343.249,-35.0032 L 343.177,-35.0535 L 343.115,-35.1154 L 343.065,-35.1871
 L 343.028,-35.2665 L 343.005,-35.3511 L 342.997,-35.4384 L 343.005,-35.5257 L 343.028,-35.6103 L 343.065,-35.6896
 L 343.115,-35.7614 L 343.177,-35.8233 L 343.249,-35.8736 L 343.328,-35.9106 L 343.413,-35.9333 L 343.5,-35.9409
 L 343.587,-35.9333 L 343.672,-35.9106 L 343.751,-35.8736 L 343.823,-35.8233 L 343.885,-35.7614 L 343.935,-35.6896
 L 343.972,-35.6103 L 343.995,-35.5257 L 344.002,-35.4384 L 343.995,-35.3511 L 343.972,-35.2665 L 343.935,-35.1871
 L 343.885,-35.1154 L 343.823,-35.0535 L 343.751,-35.0032 L 343.672,-34.9662 L 343.587,-34.9435 L 343.5,-34.9359
 z
M 344.562,-32.8129 L 344.562,-33.0629 L 344.688,-33.0629 L 344.688,-33.9379 L 344.562,-33.9379 L 344.562,-34.1879
 L 344.812,-34.1879 L 344.812,-34.0629 L 345.188,-34.0629 L 345.188,-34.1879 L 345.438,-34.1879 L 345.438,-33.9379
 L 345.312,-33.9379 L 345.312,-33.0629 L 345.438,-33.0629 L 345.438,-32.8129 L 345.188,-32.8129 L 345.188,-32.9379
 L 344.812,-32.9379 L 344.812,-32.8129 z
M 344.562,-7.50044 L 344.562,-7.75044 L 344.688,-7.75044 L 344.688,-8.62544 L 344.562,-8.62544 L 344.562,-8.87544
 L 344.812,-8.87544 L 344.812,-8.75044 L 345.188,-8.75044 L 345.188,-8.87544 L 345.438,-8.87544 L 345.438,-8.62544
 L 345.312,-8.62544 L 345.312,-7.75044 L 345.438,-7.75044 L 345.438,-7.50044 L 345.188,-7.50044 L 345.188,-7.62544
 L 344.812,-7.62544 L 344.812,-7.50044 z
M 346.413,-5.75513 L 346.328,-5.7778 L 346.249,-5.81482 L 346.177,-5.86505 L 346.115,-5.92699 L 346.065,-5.99875
 L 346.028,-6.07812 L 346.005,-6.16273 L 345.997,-6.25 L 346.005,-6.33725 L 346.028,-6.42186 L 346.065,-6.50124
 L 346.115,-6.573 L 346.177,-6.63493 L 346.249,-6.68517 L 346.328,-6.72218 L 346.413,-6.74486 L 346.5,-6.75249
 L 346.587,-6.74486 L 346.672,-6.72218 L 346.751,-6.68517 L 346.823,-6.63493 L 346.885,-6.573 L 346.935,-6.50124
 L 346.972,-6.42186 L 346.995,-6.33725 L 347.002,-6.25 L 346.995,-6.16273 L 346.972,-6.07812 L 346.935,-5.99875
 L 346.885,-5.92699 L 346.823,-5.86505 L 346.751,-5.81482 L 346.672,-5.7778 L 346.587,-5.75513 L 346.5,-5.7475
 z
M 343.413,-5.75513 L 343.328,-5.7778 L 343.249,-5.81482 L 343.177,-5.86505 L 343.115,-5.92699 L 343.065,-5.99875
 L 343.028,-6.07812 L 343.005,-6.16273 L 342.997,-6.25 L 343.005,-6.33725 L 343.028,-6.42186 L 343.065,-6.50124
 L 343.115,-6.573 L 343.177,-6.63493 L 343.249,-6.68517 L 343.328,-6.72218 L 343.413,-6.74486 L 343.5,-6.75249
 L 343.587,-6.74486 L 343.672,-6.72218 L 343.751,-6.68517 L 343.823,-6.63493 L 343.885,-6.573 L 343.935,-6.50124
 L 343.972,-6.42186 L 343.995,-6.33725 L 344.002,-6.25 L 343.995,-6.16273 L 343.972,-6.07812 L 343.935,-5.99875
 L 343.885,-5.92699 L 343.823,-5.86505 L 343.751,-5.81482 L 343.672,-5.7778 L 343.587,-5.75513 L 343.5,-5.7475
 z
M 350.413,-5.75513 L 350.328,-5.7778 L 350.249,-5.81482 L 350.177,-5.86505 L 350.115,-5.92699 L 350.065,-5.99875
 L 350.028,-6.07812 L 350.005,-6.16273 L 349.997,-6.25 L 350.005,-6.33725 L 350.028,-6.42186 L 350.065,-6.50124
 L 350.115,-6.573 L 350.177,-6.63493 L 350.249,-6.68517 L 350.328,-6.72218 L 350.413,-6.74486 L 350.5,-6.75249
 L 350.587,-6.74486 L 350.672,-6.72218 L 350.751,-6.68517 L 350.823,-6.63493 L 350.885,-6.573 L 350.935,-6.50124
 L 350.972,-6.42186 L 350.995,-6.33725 L 351.002,-6.25 L 350.995,-6.16273 L 350.972,-6.07812 L 350.935,-5.99875
 L 350.885,-5.92699 L 350.823,-5.86505 L 350.751,-5.81482 L 350.672,-5.7778 L 350.587,-5.75513 L 350.5,-5.7475
 z
M 500.794,-1.5 L 500.801,-1.58682 L 500.824,-1.67101 L 500.861,-1.75 L 500.911,-1.82138 L 500.972,-1.88301
 L 501.044,-1.933 L 501.123,-1.96983 L 501.207,-1.9924 L 501.294,-2 L 501.381,-1.9924 L 501.465,-1.96983
 L 501.544,-1.933 L 501.615,-1.88301 L 501.677,-1.82138 L 501.727,-1.75 L 501.764,-1.67101 L 501.786,-1.58682
 L 501.794,-1.5 L 501.794,-0 L 503.794,-0 L 503.794,-1.5 L 503.801,-1.58682 L 503.824,-1.67101
 L 503.861,-1.75 L 503.911,-1.82138 L 503.972,-1.88301 L 504.044,-1.933 L 504.123,-1.96983 L 504.207,-1.9924
 L 504.294,-2 L 504.381,-1.9924 L 504.465,-1.96983 L 504.544,-1.933 L 504.615,-1.88301 L 504.677,-1.82138
 L 504.727,-1.75 L 504.764,-1.67101 L 504.786,-1.58682 L 504.794,-1.5 L 504.794,-0 L 511.294,-0
 L 511.294,-1.5 L 511.301,-1.58682 L 511.324,-1.67101 L 511.361,-1.75 L 511.411,-1.82138 L 511.472,-1.88301
 L 511.544,-1.933 L 511.623,-1.96983 L 511.707,-1.9924 L 511.794,-2 L 511.881,-1.9924 L 511.965,-1.96983
 L 512.044,-1.933 L 512.115,-1.88301 L 512.177,-1.82138 L 512.227,-1.75 L 512.264,-1.67101 L 512.286,-1.58682
 L 512.294,-1.5 L 512.294,-0 L 513.794,-0 L 513.794,-41.1884 L 512.294,-41.1884 L 512.294,-39.6884
 L 512.286,-39.6016 L 512.264,-39.5174 L 512.227,-39.4384 L 512.177,-39.367 L 512.115,-39.3054 L 512.044,-39.2554
 L 511.965,-39.2186 L 511.881,-39.196 L 511.794,-39.1884 L 511.707,-39.196 L 511.623,-39.2186 L 511.544,-39.2554
 L 511.472,-39.3054 L 511.411,-39.367 L 511.361,-39.4384 L 511.324,-39.5174 L 511.301,-39.6016 L 511.294,-39.6884
 L 511.294,-41.1884 L 501.794,-41.1884 L 501.794,-39.6884 L 501.786,-39.6016 L 501.764,-39.5174 L 501.727,-39.4384
 L 501.677,-39.367 L 501.615,-39.3054 L 501.544,-39.2554 L 501.465,-39.2186 L 501.381,-39.196 L 501.294,-39.1884
 L 501.207,-39.196 L 501.123,-39.2186 L 501.044,-39.2554 L 500.972,-39.3054 L 500.911,-39.367 L 500.861,-39.4384
 L 500.824,-39.5174 L 500.801,-39.6016 L 500.794,-39.6884 L 500.794,-41.1884 L 499.294,-41.1884 L 499.294,-0
 L 500.794,-0 z
M 483.544,-1.5 L 483.551,-1.58682 L 483.574,-1.67101 L 483.611,-1.75 L 483.661,-1.82138 L 483.722,-1.88301
 L 483.794,-1.933 L 483.873,-1.96983 L 483.957,-1.9924 L 484.044,-2 L 484.131,-1.9924 L 484.215,-1.96983
 L 484.294,-1.933 L 484.365,-1.88301 L 484.427,-1.82138 L 484.477,-1.75 L 484.514,-1.67101 L 484.536,-1.58682
 L 484.544,-1.5 L 484.544,-0 L 496.044,-0 L 496.044,-1.5 L 496.051,-1.58682 L 496.074,-1.67101
 L 496.111,-1.75 L 496.161,-1.82138 L 496.222,-1.88301 L 496.294,-1.933 L 496.373,-1.96983 L 496.457,-1.9924
 L 496.544,-2 L 496.631,-1.9924 L 496.715,-1.96983 L 496.794,-1.933 L 496.865,-1.88301 L 496.927,-1.82138
 L 496.977,-1.75 L 497.014,-1.67101 L 497.036,-1.58682 L 497.044,-1.5 L 497.044,-0 L 498.294,-0
 L 498.294,-41.1884 L 497.044,-41.1884 L 497.044,-39.6884 L 497.036,-39.6016 L 497.014,-39.5174 L 496.977,-39.4384
 L 496.927,-39.367 L 496.865,-39.3054 L 496.794,-39.2554 L 496.715,-39.2186 L 496.631,-39.196 L 496.544,-39.1884
 L 496.457,-39.196 L 496.373,-39.2186 L 496.294,-39.2554 L 496.222,-39.3054 L 496.161,-39.367 L 496.111,-39.4384
 L 496.074,-39.5174 L 496.051,-39.6016 L 496.044,-39.6884 L 496.044,-41.1884 L 484.544,-41.1884 L 484.544,-39.6884
 L 484.536,-39.6016 L 484.514,-39.5174 L 484.477,-39.4384 L 484.427,-39.367 L 484.365,-39.3054 L 484.294,-39.2554
 L 484.215,-39.2186 L 484.131,-39.196 L 484.044,-39.1884 L 483.957,-39.196 L 483.873,-39.2186 L 483.794,-39.2554
 L 483.722,-39.3054 L 483.661,-39.367 L 483.611,-39.4384 L 483.574,-39.5174 L 483.551,-39.6016 L 483.544,-39.6884
 L 483.544,-41.1884 L 482.294,-41.1884 L 482.294,-0 L 483.544,-0 z
M 408.25,-14.1562 L 407.625,-14.1562 L 407.625,-14.2812 L 407.75,-14.2812 L 407.75,-38.3438 L 407.625,-38.3438
 L 407.625,-38.4688 L 408.25,-38.4688 L 408.25,-39.4688 L 404.75,-39.4688 L 404.75,-13.1562 L 408.25,-13.1562
 z
M 28.4688,-20.1562 L 28.3438,-20.1562 L 28.3438,-20.4062 L 28.5938,-20.4062 L 28.5938,-20.2812 L 29,-20.2812
 L 29,-23.7188 L 28.5938,-23.7188 L 28.5938,-23.5938 L 28.3438,-23.5938 L 28.3438,-23.8438 L 28.4688,-23.8438
 L 28.4688,-24.4688 L 28.0938,-24.4688 L 28.0938,-24.3438 L 27.8438,-24.3438 L 27.8438,-24.5938 L 27.9688,-24.5938
 L 27.9688,-24.9062 L 27.8438,-24.9062 L 27.8438,-25.1562 L 28.4688,-25.1562 L 28.4688,-25.0312 L 29,-25.0312
 L 29,-30.9688 L 28.5938,-30.9688 L 28.5938,-30.8438 L 28.0938,-30.8438 L 28.0938,-31.0938 L 28.2188,-31.0938
 L 28.2188,-31.4062 L 28.0938,-31.4062 L 28.0938,-31.6562 L 28.3438,-31.6562 L 28.3438,-31.5312 L 28.4688,-31.5312
 L 28.4688,-31.9062 L 28.3438,-31.9062 L 28.3438,-32.1562 L 28.7188,-32.1562 L 28.7188,-32.0312 L 29,-32.0312
 L 29,-36.9688 L 28.5938,-36.9688 L 28.5938,-36.8438 L 28.3438,-36.8438 L 28.3438,-37.0938 L 28.4688,-37.0938
 L 28.4688,-37.4688 L 28.3438,-37.4688 L 28.3438,-37.3438 L 28.0938,-37.3438 L 28.0938,-37.5938 L 28.2188,-37.5938
 L 28.2188,-38 L 24.2812,-38 L 24.2812,-37.5938 L 24.4062,-37.5938 L 24.4062,-37.3438 L 23.9062,-37.3438
 L 23.9062,-37.4688 L 23,-37.4688 L 23,-32.5312 L 23.4062,-32.5312 L 23.4062,-32.6562 L 23.6562,-32.6562
 L 23.6562,-32.0312 L 23.5312,-32.0312 L 23.5312,-31.5312 L 24.0312,-31.5312 L 24.0312,-31.6562 L 24.4062,-31.6562
 L 24.4062,-31.4062 L 24.2812,-31.4062 L 24.2812,-31.0938 L 24.4062,-31.0938 L 24.4062,-30.8438 L 24.0312,-30.8438
 L 24.0312,-30.9688 L 23,-30.9688 L 23,-25.0312 L 23.4062,-25.0312 L 23.4062,-25.1562 L 23.6562,-25.1562
 L 23.6562,-24.9062 L 23.5312,-24.9062 L 23.5312,-24.5938 L 23.6562,-24.5938 L 23.6562,-24.3438 L 23.4062,-24.3438
 L 23.4062,-24.4688 L 23,-24.4688 L 23,-21.5312 L 23.4062,-21.5312 L 23.4062,-21.6562 L 23.6562,-21.6562
 L 23.6562,-21.4062 L 23.5312,-21.4062 L 23.5312,-19.5 L 28.4688,-19.5 z
M 26.4895,-21.5228 L 26.237,-21.5905 L 26,-21.701 L 25.7858,-21.8509 L 25.6009,-22.0358 L 25.451,-22.25
 L 25.3405,-22.487 L 25.2728,-22.7395 L 25.25,-23 L 25.2728,-23.2605 L 25.3405,-23.513 L 25.451,-23.75
 L 25.6009,-23.9642 L 25.7858,-24.1491 L 26,-24.299 L 26.237,-24.4095 L 26.4895,-24.4772 L 26.75,-24.5
 L 27.0105,-24.4772 L 27.263,-24.4095 L 27.5,-24.299 L 27.7142,-24.1491 L 27.8991,-23.9642 L 28.049,-23.75
 L 28.1595,-23.513 L 28.2272,-23.2605 L 28.25,-23 L 28.2272,-22.7395 L 28.1595,-22.487 L 28.049,-22.25
 L 27.8991,-22.0358 L 27.7142,-21.8509 L 27.5,-21.701 L 27.263,-21.5905 L 27.0105,-21.5228 L 26.75,-21.5
 z
M 75.5,-37 L 72.5,-37 L 72.5,-19 L 75.5,-19 z
M 73.83,-35.4769 L 73.6767,-35.555 L 73.555,-35.6767 L 73.4769,-35.83 L 73.45,-36 L 73.4769,-36.17
 L 73.555,-36.3233 L 73.6767,-36.4449 L 73.83,-36.5231 L 74,-36.55 L 74.17,-36.5231 L 74.3233,-36.4449
 L 74.4449,-36.3233 L 74.5231,-36.17 L 74.55,-36 L 74.5231,-35.83 L 74.4449,-35.6767 L 74.3233,-35.555
 L 74.17,-35.4769 L 74,-35.45 z
M 73.83,-32.4769 L 73.6767,-32.555 L 73.555,-32.6767 L 73.4769,-32.83 L 73.45,-33 L 73.4769,-33.17
 L 73.555,-33.3233 L 73.6767,-33.4449 L 73.83,-33.5231 L 74,-33.55 L 74.17,-33.5231 L 74.3233,-33.4449
 L 74.4449,-33.3233 L 74.5231,-33.17 L 74.55,-33 L 74.5231,-32.83 L 74.4449,-32.6767 L 74.3233,-32.555
 L 74.17,-32.4769 L 74,-32.45 z
M 73.83,-27.4769 L 73.6767,-27.555 L 73.555,-27.6767 L 73.4769,-27.83 L 73.45,-28 L 73.4769,-28.17
 L 73.555,-28.3233 L 73.6767,-28.4449 L 73.83,-28.5231 L 74,-28.55 L 74.17,-28.5231 L 74.3233,-28.4449
 L 74.4449,-28.3233 L 74.5231,-28.17 L 74.55,-28 L 74.5231,-27.83 L 74.4449,-27.6767 L 74.3233,-27.555
 L 74.17,-27.4769 L 74,-27.45 z
M 73.83,-22.4769 L 73.6767,-22.555 L 73.555,-22.6767 L 73.4769,-22.83 L 73.45,-23 L 73.4769,-23.17
 L 73.555,-23.3233 L 73.6767,-23.4449 L 73.83,-23.5231 L 74,-23.55 L 74.17,-23.5231 L 74.3233,-23.4449
 L 74.4449,-23.3233 L 74.5231,-23.17 L 74.55,-23 L 74.5231,-22.83 L 74.4449,-22.6767 L 74.3233,-22.555
 L 74.17,-22.4769 L 74,-22.45 z
M 73.83,-19.4769 L 73.6767,-19.555 L 73.555,-19.6767 L 73.4769,-19.83 L 73.45,-20 L 73.4769,-20.17
 L 73.555,-20.3233 L 73.6767,-20.4449 L 73.83,-20.5231 L 74,-20.55 L 74.17,-20.5231 L 74.3233,-20.4449
 L 74.4449,-20.3233 L 74.5231,-20.17 L 74.55,-20 L 74.5231,-19.83 L 74.4449,-19.6767 L 74.3233,-19.555
 L 74.17,-19.4769 L 74,-19.45 z
M 330.938,-0.9375 L 330.812,-0.9375 L 330.812,-1.1875 L 331.062,-1.1875 L 331.062,-1.0625 L 331.5,-1.0625
 L 331.5,-16.0317 L 331.062,-16.0317 L 331.062,-15.9067 L 330.812,-15.9067 L 330.812,-16.1567 L 330.938,-16.1567
 L 330.938,-18.0317 L 330.812,-18.0317 L 330.812,-18.2817 L 331.062,-18.2817 L 331.062,-18.1567 L 331.5,-18.1567
 L 331.5,-33.1259 L 331.062,-33.1259 L 331.062,-33.0009 L 330.812,-33.0009 L 330.812,-33.2509 L 330.938,-33.2509
 L 330.938,-34.1884 L 325.75,-34.1884 L 325.75,-33.7884 L 325.5,-33.7884 L 325.5,-32.8509 L 325.938,-32.8509
 L 325.938,-32.9759 L 326.188,-32.9759 L 326.188,-32.7259 L 326.062,-32.7259 L 326.062,-31.8509 L 326.188,-31.8509
 L 326.188,-31.6009 L 325.938,-31.6009 L 325.938,-31.7259 L 325.5,-31.7259 L 325.5,-2.46249 L 325.938,-2.46249
 L 325.938,-2.58749 L 326.188,-2.58749 L 326.188,-2.33749 L 326.062,-2.33749 L 326.062,-1.46249 L 326.188,-1.46249
 L 326.188,-1.21249 L 325.938,-1.21249 L 325.938,-1.33749 L 325.5,-1.33749 L 325.5,-0.399994 L 325.75,-0.399994
 L 325.75,-0 L 330.938,-0 z
M 329.935,-31.3191 L 329.872,-31.336 L 329.812,-31.3636 L 329.759,-31.4011 L 329.713,-31.4473 L 329.675,-31.5009
 L 329.648,-31.5601 L 329.631,-31.6233 L 329.625,-31.6884 L 329.631,-31.7535 L 329.648,-31.8167 L 329.675,-31.8759
 L 329.713,-31.9294 L 329.759,-31.9757 L 329.812,-32.0132 L 329.872,-32.0408 L 329.935,-32.0577 L 330,-32.0634
 L 330.065,-32.0577 L 330.128,-32.0408 L 330.188,-32.0132 L 330.241,-31.9757 L 330.287,-31.9294 L 330.325,-31.8759
 L 330.352,-31.8167 L 330.369,-31.7535 L 330.375,-31.6884 L 330.369,-31.6233 L 330.352,-31.5601 L 330.325,-31.5009
 L 330.287,-31.4473 L 330.241,-31.4011 L 330.188,-31.3636 L 330.128,-31.336 L 330.065,-31.3191 L 330,-31.3134
 z
M 326.935,-31.3191 L 326.872,-31.336 L 326.812,-31.3636 L 326.759,-31.4011 L 326.713,-31.4473 L 326.675,-31.5009
 L 326.648,-31.5601 L 326.631,-31.6233 L 326.625,-31.6884 L 326.631,-31.7535 L 326.648,-31.8167 L 326.675,-31.8759
 L 326.713,-31.9294 L 326.759,-31.9757 L 326.812,-32.0132 L 326.872,-32.0408 L 326.935,-32.0577 L 327,-32.0634
 L 327.065,-32.0577 L 327.128,-32.0408 L 327.188,-32.0132 L 327.241,-31.9757 L 327.287,-31.9294 L 327.325,-31.8759
 L 327.352,-31.8167 L 327.369,-31.7535 L 327.375,-31.6884 L 327.369,-31.6233 L 327.352,-31.5601 L 327.325,-31.5009
 L 327.287,-31.4473 L 327.241,-31.4011 L 327.188,-31.3636 L 327.128,-31.336 L 327.065,-31.3191 L 327,-31.3134
 z
M 326.996,-27.9975 L 326.895,-28.0246 L 326.8,-28.0688 L 326.714,-28.1288 L 326.64,-28.2027 L 326.58,-28.2884
 L 326.536,-28.3832 L 326.509,-28.4842 L 326.5,-28.5884 L 326.509,-28.6926 L 326.536,-28.7936 L 326.58,-28.8884
 L 326.64,-28.9741 L 326.714,-29.048 L 326.8,-29.108 L 326.895,-29.1522 L 326.996,-29.1793 L 327.1,-29.1884
 L 327.204,-29.1793 L 327.305,-29.1522 L 327.4,-29.108 L 327.486,-29.048 L 327.56,-28.9741 L 327.62,-28.8884
 L 327.664,-28.7936 L 327.691,-28.6926 L 327.7,-28.5884 L 327.691,-28.4842 L 327.664,-28.3832 L 327.62,-28.2884
 L 327.56,-28.2027 L 327.486,-28.1288 L 327.4,-28.0688 L 327.305,-28.0246 L 327.204,-27.9975 L 327.1,-27.9884
 z
M 326.996,-5.00911 L 326.895,-5.03618 L 326.8,-5.08038 L 326.714,-5.14037 L 326.64,-5.21432 L 326.58,-5.29999
 L 326.536,-5.39478 L 326.509,-5.4958 L 326.5,-5.59999 L 326.509,-5.70418 L 326.536,-5.80521 L 326.58,-5.89999
 L 326.64,-5.98567 L 326.714,-6.05962 L 326.8,-6.11961 L 326.895,-6.1638 L 326.996,-6.19087 L 327.1,-6.2
 L 327.204,-6.19087 L 327.305,-6.1638 L 327.4,-6.11961 L 327.486,-6.05962 L 327.56,-5.98567 L 327.62,-5.89999
 L 327.664,-5.80521 L 327.691,-5.70418 L 327.7,-5.59999 L 327.691,-5.4958 L 327.664,-5.39478 L 327.62,-5.29999
 L 327.56,-5.21432 L 327.486,-5.14037 L 327.4,-5.08038 L 327.305,-5.03618 L 327.204,-5.00911 L 327.1,-5
 z
M 329.935,-2.13069 L 329.872,-2.14761 L 329.812,-2.17523 L 329.759,-2.21272 L 329.713,-2.25894 L 329.675,-2.3125
 L 329.648,-2.37173 L 329.631,-2.43488 L 329.625,-2.5 L 329.631,-2.56511 L 329.648,-2.62825 L 329.675,-2.6875
 L 329.713,-2.74104 L 329.759,-2.78726 L 329.812,-2.82475 L 329.872,-2.85237 L 329.935,-2.86929 L 330,-2.875
 L 330.065,-2.86929 L 330.128,-2.85237 L 330.188,-2.82475 L 330.241,-2.78726 L 330.287,-2.74104 L 330.325,-2.6875
 L 330.352,-2.62825 L 330.369,-2.56511 L 330.375,-2.5 L 330.369,-2.43488 L 330.352,-2.37173 L 330.325,-2.3125
 L 330.287,-2.25894 L 330.241,-2.21272 L 330.188,-2.17523 L 330.128,-2.14761 L 330.065,-2.13069 L 330,-2.125
 z
M 326.935,-2.13069 L 326.872,-2.14761 L 326.812,-2.17523 L 326.759,-2.21272 L 326.713,-2.25894 L 326.675,-2.3125
 L 326.648,-2.37173 L 326.631,-2.43488 L 326.625,-2.5 L 326.631,-2.56511 L 326.648,-2.62825 L 326.675,-2.6875
 L 326.713,-2.74104 L 326.759,-2.78726 L 326.812,-2.82475 L 326.872,-2.85237 L 326.935,-2.86929 L 327,-2.875
 L 327.065,-2.86929 L 327.128,-2.85237 L 327.188,-2.82475 L 327.241,-2.78726 L 327.287,-2.74104 L 327.325,-2.6875
 L 327.352,-2.62825 L 327.369,-2.56511 L 327.375,-2.5 L 327.369,-2.43488 L 327.352,-2.37173 L 327.325,-2.3125
 L 327.287,-2.25894 L 327.241,-2.21272 L 327.188,-2.17523 L 327.128,-2.14761 L 327.065,-2.13069 L 327,-2.125
 z
M 366,-34.1884 L 358,-34.1884 L 358,-32.8509 L 358.438,-32.8509 L 358.438,-32.9759 L 358.688,-32.9759
 L 358.688,-32.7259 L 358.562,-32.7259 L 358.562,-31.8509 L 358.688,-31.8509 L 358.688,-31.6009 L 358.438,-31.6009
 L 358.438,-31.7259 L 358,-31.7259 L 358,-2.46249 L 358.438,-2.46249 L 358.438,-2.58749 L 358.688,-2.58749
 L 358.688,-2.33749 L 358.562,-2.33749 L 358.562,-1.46249 L 358.688,-1.46249 L 358.688,-1.21249 L 358.438,-1.21249
 L 358.438,-1.33749 L 358,-1.33749 L 358,-0 L 366,-0 z
M 363.934,-31.3142 L 363.87,-31.3313 L 363.81,-31.3593 L 363.756,-31.3973 L 363.709,-31.4441 L 363.671,-31.4984
 L 363.643,-31.5584 L 363.626,-31.6224 L 363.62,-31.6884 L 363.626,-31.7544 L 363.643,-31.8184 L 363.671,-31.8784
 L 363.709,-31.9326 L 363.756,-31.9795 L 363.81,-32.0175 L 363.87,-32.0455 L 363.934,-32.0626 L 364,-32.0684
 L 364.066,-32.0626 L 364.13,-32.0455 L 364.19,-32.0175 L 364.244,-31.9795 L 364.291,-31.9326 L 364.329,-31.8784
 L 364.357,-31.8184 L 364.374,-31.7544 L 364.38,-31.6884 L 364.374,-31.6224 L 364.357,-31.5584 L 364.329,-31.4984
 L 364.291,-31.4441 L 364.244,-31.3973 L 364.19,-31.3593 L 364.13,-31.3313 L 364.066,-31.3142 L 364,-31.3084
 z
M 359.934,-31.3142 L 359.87,-31.3313 L 359.81,-31.3593 L 359.756,-31.3973 L 359.709,-31.4441 L 359.671,-31.4984
 L 359.643,-31.5584 L 359.626,-31.6224 L 359.62,-31.6884 L 359.626,-31.7544 L 359.643,-31.8184 L 359.671,-31.8784
 L 359.709,-31.9326 L 359.756,-31.9795 L 359.81,-32.0175 L 359.87,-32.0455 L 359.934,-32.0626 L 360,-32.0684
 L 360.066,-32.0626 L 360.13,-32.0455 L 360.19,-32.0175 L 360.244,-31.9795 L 360.291,-31.9326 L 360.329,-31.8784
 L 360.357,-31.8184 L 360.374,-31.7544 L 360.38,-31.6884 L 360.374,-31.6224 L 360.357,-31.5584 L 360.329,-31.4984
 L 360.291,-31.4441 L 360.244,-31.3973 L 360.19,-31.3593 L 360.13,-31.3313 L 360.066,-31.3142 L 360,-31.3084
 z
M 359.585,-15.8016 L 359.364,-15.8608 L 359.156,-15.9575 L 358.969,-16.0888 L 358.807,-16.2505 L 358.676,-16.4379
 L 358.579,-16.6453 L 358.52,-16.8663 L 358.5,-17.0942 L 358.52,-17.3221 L 358.579,-17.5431 L 358.676,-17.7504
 L 358.807,-17.9379 L 358.969,-18.0996 L 359.156,-18.2309 L 359.364,-18.3275 L 359.585,-18.3867 L 359.812,-18.4067
 L 360.04,-18.3867 L 360.261,-18.3275 L 360.469,-18.2309 L 360.656,-18.0996 L 360.818,-17.9379 L 360.949,-17.7504
 L 361.046,-17.5431 L 361.105,-17.3221 L 361.125,-17.0942 L 361.105,-16.8663 L 361.046,-16.6453 L 360.949,-16.4379
 L 360.818,-16.2505 L 360.656,-16.0888 L 360.469,-15.9575 L 360.261,-15.8608 L 360.04,-15.8016 L 359.812,-15.7817
 z
M 363.934,-2.12576 L 363.87,-2.14291 L 363.81,-2.1709 L 363.756,-2.20889 L 363.709,-2.25574 L 363.671,-2.31
 L 363.643,-2.37003 L 363.626,-2.43401 L 363.62,-2.5 L 363.626,-2.56598 L 363.643,-2.62996 L 363.671,-2.68999
 L 363.709,-2.74425 L 363.756,-2.79109 L 363.81,-2.82909 L 363.87,-2.85707 L 363.934,-2.87422 L 364,-2.87999
 L 364.066,-2.87422 L 364.13,-2.85707 L 364.19,-2.82909 L 364.244,-2.79109 L 364.291,-2.74425 L 364.329,-2.68999
 L 364.357,-2.62996 L 364.374,-2.56598 L 364.38,-2.5 L 364.374,-2.43401 L 364.357,-2.37003 L 364.329,-2.31
 L 364.291,-2.25574 L 364.244,-2.20889 L 364.19,-2.1709 L 364.13,-2.14291 L 364.066,-2.12576 L 364,-2.12
 z
M 359.934,-2.12576 L 359.87,-2.14291 L 359.81,-2.1709 L 359.756,-2.20889 L 359.709,-2.25574 L 359.671,-2.31
 L 359.643,-2.37003 L 359.626,-2.43401 L 359.62,-2.5 L 359.626,-2.56598 L 359.643,-2.62996 L 359.671,-2.68999
 L 359.709,-2.74425 L 359.756,-2.79109 L 359.81,-2.82909 L 359.87,-2.85707 L 359.934,-2.87422 L 360,-2.87999
 L 360.066,-2.87422 L 360.13,-2.85707 L 360.19,-2.82909 L 360.244,-2.79109 L 360.291,-2.74425 L 360.329,-2.68999
 L 360.357,-2.62996 L 360.374,-2.56598 L 360.38,-2.5 L 360.374,-2.43401 L 360.357,-2.37003 L 360.329,-2.31
 L 360.291,-2.25574 L 360.244,-2.20889 L 360.19,-2.1709 L 360.13,-2.14291 L 360.066,-2.12576 L 360,-2.12
 z
M 340.5,-1 L 339.875,-1 L 339.875,-2 L 340,-2 L 340,-3 L 339.875,-3
 L 339.875,-14.0942 L 340,-14.0942 L 340,-15.0942 L 339.875,-15.0942 L 339.875,-16.0942 L 340.5,-16.0942
 L 340.5,-18.0942 L 339.875,-18.0942 L 339.875,-19.0942 L 340,-19.0942 L 340,-20.0942 L 339.875,-20.0942
 L 339.875,-31.1884 L 340,-31.1884 L 340,-32.1884 L 339.875,-32.1884 L 339.875,-33.1884 L 340.5,-33.1884
 L 340.5,-34.1884 L 337,-34.1884 L 337,-0 L 340.5,-0 z
M 338.663,-28.321 L 338.579,-28.3436 L 338.5,-28.3804 L 338.429,-28.4304 L 338.367,-28.492 L 338.317,-28.5634
 L 338.28,-28.6424 L 338.258,-28.7266 L 338.25,-28.8134 L 338.258,-28.9002 L 338.28,-28.9844 L 338.317,-29.0634
 L 338.367,-29.1348 L 338.429,-29.1964 L 338.5,-29.2464 L 338.579,-29.2832 L 338.663,-29.3058 L 338.75,-29.3134
 L 338.837,-29.3058 L 338.921,-29.2832 L 339,-29.2464 L 339.071,-29.1964 L 339.133,-29.1348 L 339.183,-29.0634
 L 339.22,-28.9844 L 339.242,-28.9002 L 339.25,-28.8134 L 339.242,-28.7266 L 339.22,-28.6424 L 339.183,-28.5634
 L 339.133,-28.492 L 339.071,-28.4304 L 339,-28.3804 L 338.921,-28.3436 L 338.837,-28.321 L 338.75,-28.3134
 z
M 338.663,-4.88258 L 338.579,-4.90515 L 338.5,-4.94199 L 338.429,-4.99197 L 338.367,-5.0536 L 338.317,-5.125
 L 338.28,-5.20398 L 338.258,-5.28816 L 338.25,-5.375 L 338.258,-5.46182 L 338.28,-5.54601 L 338.317,-5.625
 L 338.367,-5.69638 L 338.429,-5.75801 L 338.5,-5.808 L 338.579,-5.84483 L 338.663,-5.8674 L 338.75,-5.875
 L 338.837,-5.8674 L 338.921,-5.84483 L 339,-5.808 L 339.071,-5.75801 L 339.133,-5.69638 L 339.183,-5.625
 L 339.22,-5.54601 L 339.242,-5.46182 L 339.25,-5.375 L 339.242,-5.28816 L 339.22,-5.20398 L 339.183,-5.125
 L 339.133,-5.0536 L 339.071,-4.99197 L 339,-4.94199 L 338.921,-4.90515 L 338.837,-4.88258 L 338.75,-4.875
 z
M 394.75,-34.1884 L 381.75,-34.1884 L 381.75,-0 L 394.75,-0 z
M 385,-4.34419 L 385,-29.8442 L 391.5,-29.8442 L 391.5,-4.34419 z
M 392.913,-28.321 L 392.829,-28.3436 L 392.75,-28.3804 L 392.679,-28.4304 L 392.617,-28.492 L 392.567,-28.5634
 L 392.53,-28.6424 L 392.508,-28.7266 L 392.5,-28.8134 L 392.508,-28.9002 L 392.53,-28.9844 L 392.567,-29.0634
 L 392.617,-29.1348 L 392.679,-29.1964 L 392.75,-29.2464 L 392.829,-29.2832 L 392.913,-29.3058 L 393,-29.3134
 L 393.087,-29.3058 L 393.171,-29.2832 L 393.25,-29.2464 L 393.321,-29.1964 L 393.383,-29.1348 L 393.433,-29.0634
 L 393.47,-28.9844 L 393.492,-28.9002 L 393.5,-28.8134 L 393.492,-28.7266 L 393.47,-28.6424 L 393.433,-28.5634
 L 393.383,-28.492 L 393.321,-28.4304 L 393.25,-28.3804 L 393.171,-28.3436 L 393.087,-28.321 L 393,-28.3134
 z
M 383.413,-28.321 L 383.329,-28.3436 L 383.25,-28.3804 L 383.179,-28.4304 L 383.117,-28.492 L 383.067,-28.5634
 L 383.03,-28.6424 L 383.008,-28.7266 L 383,-28.8134 L 383.008,-28.9002 L 383.03,-28.9844 L 383.067,-29.0634
 L 383.117,-29.1348 L 383.179,-29.1964 L 383.25,-29.2464 L 383.329,-29.2832 L 383.413,-29.3058 L 383.5,-29.3134
 L 383.587,-29.3058 L 383.671,-29.2832 L 383.75,-29.2464 L 383.821,-29.1964 L 383.883,-29.1348 L 383.933,-29.0634
 L 383.97,-28.9844 L 383.992,-28.9002 L 384,-28.8134 L 383.992,-28.7266 L 383.97,-28.6424 L 383.933,-28.5634
 L 383.883,-28.492 L 383.821,-28.4304 L 383.75,-28.3804 L 383.671,-28.3436 L 383.587,-28.321 L 383.5,-28.3134
 z
M 392.913,-4.88258 L 392.829,-4.90515 L 392.75,-4.94199 L 392.679,-4.99197 L 392.617,-5.0536 L 392.567,-5.125
 L 392.53,-5.20398 L 392.508,-5.28816 L 392.5,-5.375 L 392.508,-5.46182 L 392.53,-5.54601 L 392.567,-5.625
 L 392.617,-5.69638 L 392.679,-5.75801 L 392.75,-5.808 L 392.829,-5.84483 L 392.913,-5.8674 L 393,-5.875
 L 393.087,-5.8674 L 393.171,-5.84483 L 393.25,-5.808 L 393.321,-5.75801 L 393.383,-5.69638 L 393.433,-5.625
 L 393.47,-5.54601 L 393.492,-5.46182 L 393.5,-5.375 L 393.492,-5.28816 L 393.47,-5.20398 L 393.433,-5.125
 L 393.383,-5.0536 L 393.321,-4.99197 L 393.25,-4.94199 L 393.171,-4.90515 L 393.087,-4.88258 L 393,-4.875
 z
M 383.413,-4.88258 L 383.329,-4.90515 L 383.25,-4.94199 L 383.179,-4.99197 L 383.117,-5.0536 L 383.067,-5.125
 L 383.03,-5.20398 L 383.008,-5.28816 L 383,-5.375 L 383.008,-5.46182 L 383.03,-5.54601 L 383.067,-5.625
 L 383.117,-5.69638 L 383.179,-5.75801 L 383.25,-5.808 L 383.329,-5.84483 L 383.413,-5.8674 L 383.5,-5.875
 L 383.587,-5.8674 L 383.671,-5.84483 L 383.75,-5.808 L 383.821,-5.75801 L 383.883,-5.69638 L 383.933,-5.625
 L 383.97,-5.54601 L 383.992,-5.46182 L 384,-5.375 L 383.992,-5.28816 L 383.97,-5.20398 L 383.933,-5.125
 L 383.883,-5.0536 L 383.821,-4.99197 L 383.75,-4.94199 L 383.671,-4.90515 L 383.587,-4.88258 L 383.5,-4.875
 z
M 43.5,-0.625 L 43.625,-0.625 L 43.625,-0.5 L 43.875,-0.5 L 43.875,-0.625 L 48.125,-0.625
 L 48.125,-0.5 L 48.375,-0.5 L 48.375,-0.625 L 48.5,-0.625 L 48.5,-0 L 49,-0
 L 49,-1 L 48.875,-1 L 48.875,-12 L 49,-12 L 49,-13 L 48.875,-13
 L 48.875,-24 L 49,-24 L 49,-25 L 48.5,-25 L 48.5,-24.375 L 48.375,-24.375
 L 48.375,-24.5 L 48.125,-24.5 L 48.125,-24.375 L 43.875,-24.375 L 43.875,-24.5 L 43.625,-24.5
 L 43.625,-24.375 L 43.5,-24.375 L 43.5,-25 L 43,-25 L 43,-24 L 43.125,-24
 L 43.125,-13 L 43,-13 L 43,-12 L 43.125,-12 L 43.125,-1 L 43,-1
 L 43,-0 L 43.5,-0 z
M 45.625,-18.125 L 45.625,-18.375 L 45.7188,-18.375 L 45.7188,-18.625 L 45.625,-18.625 L 45.625,-18.875
 L 45.875,-18.875 L 45.875,-18.7812 L 46.125,-18.7812 L 46.125,-18.875 L 46.375,-18.875 L 46.375,-18.625
 L 46.2812,-18.625 L 46.2812,-18.375 L 46.375,-18.375 L 46.375,-18.125 L 46.125,-18.125 L 46.125,-18.2188
 L 45.875,-18.2188 L 45.875,-18.125 z
M 45.625,-12.125 L 45.625,-12.375 L 45.7188,-12.375 L 45.7188,-12.625 L 45.625,-12.625 L 45.625,-12.875
 L 45.875,-12.875 L 45.875,-12.7812 L 46.125,-12.7812 L 46.125,-12.875 L 46.375,-12.875 L 46.375,-12.625
 L 46.2812,-12.625 L 46.2812,-12.375 L 46.375,-12.375 L 46.375,-12.125 L 46.125,-12.125 L 46.125,-12.2188
 L 45.875,-12.2188 L 45.875,-12.125 z
M 45.625,-6.125 L 45.625,-6.375 L 45.7188,-6.375 L 45.7188,-6.625 L 45.625,-6.625 L 45.625,-6.875
 L 45.875,-6.875 L 45.875,-6.78125 L 46.125,-6.78125 L 46.125,-6.875 L 46.375,-6.875 L 46.375,-6.625
 L 46.2812,-6.625 L 46.2812,-6.375 L 46.375,-6.375 L 46.375,-6.125 L 46.125,-6.125 L 46.125,-6.21875
 L 45.875,-6.21875 L 45.875,-6.125 z
M 30.75,-0.625 L 30.875,-0.625 L 30.875,-0.5 L 31.125,-0.5 L 31.125,-0.625 L 34.375,-0.625
 L 34.375,-0.5 L 34.625,-0.5 L 34.625,-0.625 L 34.75,-0.625 L 34.75,-0 L 35.5,-0
 L 35.5,-6.21875 L 35.25,-6.21875 L 35.25,-6.125 L 34.625,-6.125 L 34.625,-6.375 L 34.7188,-6.375
 L 34.7188,-6.625 L 34.625,-6.625 L 34.625,-6.875 L 35.25,-6.875 L 35.25,-6.78125 L 35.5,-6.78125
 L 35.5,-12.2188 L 35.25,-12.2188 L 35.25,-12.125 L 34.625,-12.125 L 34.625,-12.375 L 34.7188,-12.375
 L 34.7188,-12.625 L 34.625,-12.625 L 34.625,-12.875 L 35.25,-12.875 L 35.25,-12.7812 L 35.5,-12.7812
 L 35.5,-18.2188 L 35.25,-18.2188 L 35.25,-18.125 L 34.625,-18.125 L 34.625,-18.375 L 34.7188,-18.375
 L 34.7188,-18.625 L 34.625,-18.625 L 34.625,-18.875 L 35.25,-18.875 L 35.25,-18.7812 L 35.5,-18.7812
 L 35.5,-25 L 34.75,-25 L 34.75,-24.375 L 34.625,-24.375 L 34.625,-24.5 L 34.375,-24.5
 L 34.375,-24.375 L 31.125,-24.375 L 31.125,-24.5 L 30.875,-24.5 L 30.875,-24.375 L 30.75,-24.375
 L 30.75,-25 L 30,-25 L 30,-0 L 30.75,-0 z
M 30.375,-18.125 L 30.375,-18.375 L 30.4688,-18.375 L 30.4688,-18.625 L 30.375,-18.625 L 30.375,-18.875
 L 30.75,-18.875 L 30.75,-18.7812 L 31,-18.7812 L 31,-18.875 L 31.375,-18.875 L 31.375,-18.625
 L 31.2812,-18.625 L 31.2812,-18.375 L 31.375,-18.375 L 31.375,-18.125 L 31,-18.125 L 31,-18.2188
 L 30.75,-18.2188 L 30.75,-18.125 z
M 30.375,-12.125 L 30.375,-12.375 L 30.4688,-12.375 L 30.4688,-12.625 L 30.375,-12.625 L 30.375,-12.875
 L 30.75,-12.875 L 30.75,-12.7812 L 31,-12.7812 L 31,-12.875 L 31.375,-12.875 L 31.375,-12.625
 L 31.2812,-12.625 L 31.2812,-12.375 L 31.375,-12.375 L 31.375,-12.125 L 31,-12.125 L 31,-12.2188
 L 30.75,-12.2188 L 30.75,-12.125 z
M 30.375,-6.125 L 30.375,-6.375 L 30.4688,-6.375 L 30.4688,-6.625 L 30.375,-6.625 L 30.375,-6.875
 L 30.75,-6.875 L 30.75,-6.78125 L 31,-6.78125 L 31,-6.875 L 31.375,-6.875 L 31.375,-6.625
 L 31.2812,-6.625 L 31.2812,-6.375 L 31.375,-6.375 L 31.375,-6.125 L 31,-6.125 L 31,-6.21875
 L 30.75,-6.21875 L 30.75,-6.125 z
M 15.5,-0.53125 L 20.5,-0.53125 L 20.5,-0 L 22,-0 L 22,-25 L 20.5,-25
 L 20.5,-24.4688 L 15.5,-24.4688 L 15.5,-25 L 0,-25 L 0,-21.6192 L 6,-21.6192
 L 6,-3.3808 L 0,-3.3808 L 0,-0 L 15.5,-0 z
M 0.913162,-22.1268 L 0.828979,-22.1494 L 0.75,-22.1862 L 0.678604,-22.2362 L 0.616974,-22.2978 L 0.566986,-22.3692
 L 0.530151,-22.4482 L 0.507584,-22.5324 L 0.5,-22.6192 L 0.507584,-22.706 L 0.530151,-22.7902 L 0.566986,-22.8692
 L 0.616974,-22.9406 L 0.678604,-23.0022 L 0.75,-23.0522 L 0.828979,-23.089 L 0.913162,-23.1116 L 1,-23.1192
 L 1.08682,-23.1116 L 1.17101,-23.089 L 1.25,-23.0522 L 1.32138,-23.0022 L 1.38301,-22.9406 L 1.433,-22.8692
 L 1.46983,-22.7902 L 1.4924,-22.706 L 1.5,-22.6192 L 1.4924,-22.5324 L 1.46983,-22.4482 L 1.433,-22.3692
 L 1.38301,-22.2978 L 1.32138,-22.2362 L 1.25,-22.1862 L 1.17101,-22.1494 L 1.08682,-22.1268 L 1,-22.1192
 z
M 2.91316,-22.1268 L 2.82898,-22.1494 L 2.75,-22.1862 L 2.6786,-22.2362 L 2.61697,-22.2978 L 2.56699,-22.3692
 L 2.53015,-22.4482 L 2.50758,-22.5324 L 2.5,-22.6192 L 2.50758,-22.706 L 2.53015,-22.7902 L 2.56699,-22.8692
 L 2.61697,-22.9406 L 2.6786,-23.0022 L 2.75,-23.0522 L 2.82898,-23.089 L 2.91316,-23.1116 L 3,-23.1192
 L 3.08682,-23.1116 L 3.17101,-23.089 L 3.25,-23.0522 L 3.32138,-23.0022 L 3.38301,-22.9406 L 3.433,-22.8692
 L 3.46983,-22.7902 L 3.4924,-22.706 L 3.5,-22.6192 L 3.4924,-22.5324 L 3.46983,-22.4482 L 3.433,-22.3692
 L 3.38301,-22.2978 L 3.32138,-22.2362 L 3.25,-22.1862 L 3.17101,-22.1494 L 3.08682,-22.1268 L 3,-22.1192
 z
M 2.91316,-1.88838 L 2.82898,-1.91095 L 2.75,-1.94778 L 2.6786,-1.99777 L 2.61697,-2.0594 L 2.56699,-2.1308
 L 2.53015,-2.20978 L 2.50758,-2.29398 L 2.5,-2.3808 L 2.50758,-2.46762 L 2.53015,-2.5518 L 2.56699,-2.6308
 L 2.61697,-2.70218 L 2.6786,-2.76381 L 2.75,-2.81381 L 2.82898,-2.85063 L 2.91316,-2.8732 L 3,-2.8808
 L 3.08682,-2.8732 L 3.17101,-2.85063 L 3.25,-2.81381 L 3.32138,-2.76381 L 3.38301,-2.70218 L 3.433,-2.6308
 L 3.46983,-2.5518 L 3.4924,-2.46762 L 3.5,-2.3808 L 3.4924,-2.29398 L 3.46983,-2.20978 L 3.433,-2.1308
 L 3.38301,-2.0594 L 3.32138,-1.99777 L 3.25,-1.94778 L 3.17101,-1.91095 L 3.08682,-1.88838 L 3,-1.8808
 z
M 0.913162,-1.88838 L 0.828979,-1.91095 L 0.75,-1.94778 L 0.678604,-1.99777 L 0.616974,-2.0594 L 0.566986,-2.1308
 L 0.530151,-2.20978 L 0.507584,-2.29398 L 0.5,-2.3808 L 0.507584,-2.46762 L 0.530151,-2.5518 L 0.566986,-2.6308
 L 0.616974,-2.70218 L 0.678604,-2.76381 L 0.75,-2.81381 L 0.828979,-2.85063 L 0.913162,-2.8732 L 1,-2.8808
 L 1.08682,-2.8732 L 1.17101,-2.85063 L 1.25,-2.81381 L 1.32138,-2.76381 L 1.38301,-2.70218 L 1.433,-2.6308
 L 1.46983,-2.5518 L 1.4924,-2.46762 L 1.5,-2.3808 L 1.4924,-2.29398 L 1.46983,-2.20978 L 1.433,-2.1308
 L 1.38301,-2.0594 L 1.32138,-1.99777 L 1.25,-1.94778 L 1.17101,-1.91095 L 1.08682,-1.88838 L 1,-1.8808
 z
M 86.5,-25 L 81.5,-25 L 81.5,-0 L 86.5,-0 z
M 82.4132,-22.1268 L 82.329,-22.1494 L 82.25,-22.1862 L 82.1786,-22.2362 L 82.117,-22.2978 L 82.067,-22.3692
 L 82.0302,-22.4482 L 82.0076,-22.5324 L 82,-22.6192 L 82.0076,-22.706 L 82.0302,-22.7902 L 82.067,-22.8692
 L 82.117,-22.9406 L 82.1786,-23.0022 L 82.25,-23.0522 L 82.329,-23.089 L 82.4132,-23.1116 L 82.5,-23.1192
 L 82.5868,-23.1116 L 82.671,-23.089 L 82.75,-23.0522 L 82.8214,-23.0022 L 82.883,-22.9406 L 82.933,-22.8692
 L 82.9698,-22.7902 L 82.9924,-22.706 L 83,-22.6192 L 82.9924,-22.5324 L 82.9698,-22.4482 L 82.933,-22.3692
 L 82.883,-22.2978 L 82.8214,-22.2362 L 82.75,-22.1862 L 82.671,-22.1494 L 82.5868,-22.1268 L 82.5,-22.1192
 z
M 84.4132,-22.1268 L 84.329,-22.1494 L 84.25,-22.1862 L 84.1786,-22.2362 L 84.117,-22.2978 L 84.067,-22.3692
 L 84.0302,-22.4482 L 84.0076,-22.5324 L 84,-22.6192 L 84.0076,-22.706 L 84.0302,-22.7902 L 84.067,-22.8692
 L 84.117,-22.9406 L 84.1786,-23.0022 L 84.25,-23.0522 L 84.329,-23.089 L 84.4132,-23.1116 L 84.5,-23.1192
 L 84.5868,-23.1116 L 84.671,-23.089 L 84.75,-23.0522 L 84.8214,-23.0022 L 84.883,-22.9406 L 84.933,-22.8692
 L 84.9698,-22.7902 L 84.9924,-22.706 L 85,-22.6192 L 84.9924,-22.5324 L 84.9698,-22.4482 L 84.933,-22.3692
 L 84.883,-22.2978 L 84.8214,-22.2362 L 84.75,-22.1862 L 84.671,-22.1494 L 84.5868,-22.1268 L 84.5,-22.1192
 z
M 84.4132,-1.88838 L 84.329,-1.91095 L 84.25,-1.94778 L 84.1786,-1.99777 L 84.117,-2.0594 L 84.067,-2.1308
 L 84.0302,-2.20978 L 84.0076,-2.29398 L 84,-2.3808 L 84.0076,-2.46762 L 84.0302,-2.5518 L 84.067,-2.6308
 L 84.117,-2.70218 L 84.1786,-2.76381 L 84.25,-2.81381 L 84.329,-2.85063 L 84.4132,-2.8732 L 84.5,-2.8808
 L 84.5868,-2.8732 L 84.671,-2.85063 L 84.75,-2.81381 L 84.8214,-2.76381 L 84.883,-2.70218 L 84.933,-2.6308
 L 84.9698,-2.5518 L 84.9924,-2.46762 L 85,-2.3808 L 84.9924,-2.29398 L 84.9698,-2.20978 L 84.933,-2.1308
 L 84.883,-2.0594 L 84.8214,-1.99777 L 84.75,-1.94778 L 84.671,-1.91095 L 84.5868,-1.88838 L 84.5,-1.8808
 z
M 82.4132,-1.88838 L 82.329,-1.91095 L 82.25,-1.94778 L 82.1786,-1.99777 L 82.117,-2.0594 L 82.067,-2.1308
 L 82.0302,-2.20978 L 82.0076,-2.29398 L 82,-2.3808 L 82.0076,-2.46762 L 82.0302,-2.5518 L 82.067,-2.6308
 L 82.117,-2.70218 L 82.1786,-2.76381 L 82.25,-2.81381 L 82.329,-2.85063 L 82.4132,-2.8732 L 82.5,-2.8808
 L 82.5868,-2.8732 L 82.671,-2.85063 L 82.75,-2.81381 L 82.8214,-2.76381 L 82.883,-2.70218 L 82.933,-2.6308
 L 82.9698,-2.5518 L 82.9924,-2.46762 L 83,-2.3808 L 82.9924,-2.29398 L 82.9698,-2.20978 L 82.933,-2.1308
 L 82.883,-2.0594 L 82.8214,-1.99777 L 82.75,-1.94778 L 82.671,-1.91095 L 82.5868,-1.88838 L 82.5,-1.8808
 z
M 50.5,-0.625 L 50.625,-0.625 L 50.625,-0.5 L 50.875,-0.5 L 50.875,-0.625 L 54.625,-0.625
 L 54.625,-0.5 L 54.875,-0.5 L 54.875,-0.625 L 55,-0.625 L 55,-0 L 56,-0
 L 56,-25 L 55,-25 L 55,-24.375 L 54.875,-24.375 L 54.875,-24.5 L 54.625,-24.5
 L 54.625,-24.375 L 50.875,-24.375 L 50.875,-24.5 L 50.625,-24.5 L 50.625,-24.375 L 50.5,-24.375
 L 50.5,-25 L 50,-25 L 50,-0 L 50.5,-0 z
M 53.625,-13.625 L 53.625,-13.875 L 53.7188,-13.875 L 53.7188,-14.125 L 53.625,-14.125 L 53.625,-14.375
 L 53.875,-14.375 L 53.875,-14.2812 L 54.125,-14.2812 L 54.125,-14.375 L 54.375,-14.375 L 54.375,-14.125
 L 54.2812,-14.125 L 54.2812,-13.875 L 54.375,-13.875 L 54.375,-13.625 L 54.125,-13.625 L 54.125,-13.7188
 L 53.875,-13.7188 L 53.875,-13.625 z
M 53.625,-10.625 L 53.625,-10.875 L 53.7188,-10.875 L 53.7188,-11.125 L 53.625,-11.125 L 53.625,-11.375
 L 53.875,-11.375 L 53.875,-11.2812 L 54.125,-11.2812 L 54.125,-11.375 L 54.375,-11.375 L 54.375,-11.125
 L 54.2812,-11.125 L 54.2812,-10.875 L 54.375,-10.875 L 54.375,-10.625 L 54.125,-10.625 L 54.125,-10.7188
 L 53.875,-10.7188 L 53.875,-10.625 z
M 62.75,-0.625 L 62.875,-0.625 L 62.875,-0.5 L 63.125,-0.5 L 63.125,-0.625 L 65.875,-0.625
 L 65.875,-0.5 L 66.125,-0.5 L 66.125,-0.625 L 66.25,-0.625 L 66.25,-0 L 67,-0
 L 67,-25 L 66.25,-25 L 66.25,-24.375 L 66.125,-24.375 L 66.125,-24.5 L 65.875,-24.5
 L 65.875,-24.375 L 63.125,-24.375 L 63.125,-24.5 L 62.875,-24.5 L 62.875,-24.375 L 62.75,-24.375
 L 62.75,-25 L 62,-25 L 62,-24 L 62.125,-24 L 62.125,-13 L 62,-13
 L 62,-12 L 62.125,-12 L 62.125,-1 L 62,-1 L 62,-0 L 62.75,-0
 z
M 63.125,-13.625 L 63.125,-13.875 L 63.2188,-13.875 L 63.2188,-14.125 L 63.125,-14.125 L 63.125,-14.375
 L 63.375,-14.375 L 63.375,-14.2812 L 63.625,-14.2812 L 63.625,-14.375 L 63.875,-14.375 L 63.875,-14.125
 L 63.7812,-14.125 L 63.7812,-13.875 L 63.875,-13.875 L 63.875,-13.625 L 63.625,-13.625 L 63.625,-13.7188
 L 63.375,-13.7188 L 63.375,-13.625 z
M 63.125,-10.625 L 63.125,-10.875 L 63.2188,-10.875 L 63.2188,-11.125 L 63.125,-11.125 L 63.125,-11.375
 L 63.375,-11.375 L 63.375,-11.2812 L 63.625,-11.2812 L 63.625,-11.375 L 63.875,-11.375 L 63.875,-11.125
 L 63.7812,-11.125 L 63.7812,-10.875 L 63.875,-10.875 L 63.875,-10.625 L 63.625,-10.625 L 63.625,-10.7188
 L 63.375,-10.7188 L 63.375,-10.625 z
M 37.25,-16.625 L 37.375,-16.625 L 37.375,-16.5 L 40.625,-16.5 L 40.625,-16.625 L 40.75,-16.625
 L 40.75,-16 L 41.5,-16 L 41.5,-19.125 L 41.375,-19.125 L 41.375,-19.25 L 42,-19.25
 L 42,-19.75 L 41.375,-19.75 L 41.375,-19.875 L 41.5,-19.875 L 41.5,-23 L 40.75,-23
 L 40.75,-22.375 L 40.625,-22.375 L 40.625,-22.5 L 37.375,-22.5 L 37.375,-22.375 L 37.25,-22.375
 L 37.25,-23 L 36.5,-23 L 36.5,-16 L 37.25,-16 z
M 28.4688,-0.65625 L 28.3438,-0.65625 L 28.3438,-0.90625 L 28.5938,-0.90625 L 28.5938,-0.78125 L 29,-0.78125
 L 29,-4.21875 L 28.5938,-4.21875 L 28.5938,-4.09375 L 28.3438,-4.09375 L 28.3438,-4.34375 L 28.4688,-4.34375
 L 28.4688,-4.96875 L 28.0938,-4.96875 L 28.0938,-4.84375 L 27.8438,-4.84375 L 27.8438,-5.09375 L 27.9688,-5.09375
 L 27.9688,-5.40625 L 27.8438,-5.40625 L 27.8438,-5.65625 L 28.4688,-5.65625 L 28.4688,-5.53125 L 29,-5.53125
 L 29,-11.4688 L 28.5938,-11.4688 L 28.5938,-11.3438 L 28.0938,-11.3438 L 28.0938,-11.5938 L 28.2188,-11.5938
 L 28.2188,-11.9062 L 28.0938,-11.9062 L 28.0938,-12.1562 L 28.3438,-12.1562 L 28.3438,-12.0312 L 28.4688,-12.0312
 L 28.4688,-12.4062 L 28.3438,-12.4062 L 28.3438,-12.6562 L 28.7188,-12.6562 L 28.7188,-12.5312 L 29,-12.5312
 L 29,-17.4688 L 28.5938,-17.4688 L 28.5938,-17.3438 L 28.3438,-17.3438 L 28.3438,-17.5938 L 28.4688,-17.5938
 L 28.4688,-17.9688 L 28.3438,-17.9688 L 28.3438,-17.8438 L 28.0938,-17.8438 L 28.0938,-18.0938 L 28.2188,-18.0938
 L 28.2188,-18.5 L 24.2812,-18.5 L 24.2812,-18.0938 L 24.4062,-18.0938 L 24.4062,-17.8438 L 23.9062,-17.8438
 L 23.9062,-17.9688 L 23,-17.9688 L 23,-13.0312 L 23.4062,-13.0312 L 23.4062,-13.1562 L 23.6562,-13.1562
 L 23.6562,-12.5312 L 23.5312,-12.5312 L 23.5312,-12.0312 L 24.0312,-12.0312 L 24.0312,-12.1562 L 24.4062,-12.1562
 L 24.4062,-11.9062 L 24.2812,-11.9062 L 24.2812,-11.5938 L 24.4062,-11.5938 L 24.4062,-11.3438 L 24.0312,-11.3438
 L 24.0312,-11.4688 L 23,-11.4688 L 23,-5.53125 L 23.4062,-5.53125 L 23.4062,-5.65625 L 23.6562,-5.65625
 L 23.6562,-5.40625 L 23.5312,-5.40625 L 23.5312,-5.09375 L 23.6562,-5.09375 L 23.6562,-4.84375 L 23.4062,-4.84375
 L 23.4062,-4.96875 L 23,-4.96875 L 23,-2.03125 L 23.4062,-2.03125 L 23.4062,-2.15625 L 23.6562,-2.15625
 L 23.6562,-1.90625 L 23.5312,-1.90625 L 23.5312,-0 L 28.4688,-0 z
M 26.4895,-2.02278 L 26.237,-2.09045 L 26,-2.20096 L 25.7858,-2.35092 L 25.6009,-2.53581 L 25.451,-2.75
 L 25.3405,-2.98697 L 25.2728,-3.23952 L 25.25,-3.5 L 25.2728,-3.76047 L 25.3405,-4.01302 L 25.451,-4.25
 L 25.6009,-4.46417 L 25.7858,-4.64906 L 26,-4.79903 L 26.237,-4.90953 L 26.4895,-4.9772 L 26.75,-5
 L 27.0105,-4.9772 L 27.263,-4.90953 L 27.5,-4.79903 L 27.7142,-4.64906 L 27.8991,-4.46417 L 28.049,-4.25
 L 28.1595,-4.01302 L 28.2272,-3.76047 L 28.25,-3.5 L 28.2272,-3.23952 L 28.1595,-2.98697 L 28.049,-2.75
 L 27.8991,-2.53581 L 27.7142,-2.35092 L 27.5,-2.20096 L 27.263,-2.09045 L 27.0105,-2.02278 L 26.75,-2
 z
M 75.5,-18 L 72.5,-18 L 72.5,-0 L 75.5,-0 z
M 73.83,-16.4769 L 73.6767,-16.555 L 73.555,-16.6767 L 73.4769,-16.83 L 73.45,-17 L 73.4769,-17.17
 L 73.555,-17.3233 L 73.6767,-17.4449 L 73.83,-17.5231 L 74,-17.55 L 74.17,-17.5231 L 74.3233,-17.4449
 L 74.4449,-17.3233 L 74.5231,-17.17 L 74.55,-17 L 74.5231,-16.83 L 74.4449,-16.6767 L 74.3233,-16.555
 L 74.17,-16.4769 L 74,-16.45 z
M 73.83,-13.4769 L 73.6767,-13.555 L 73.555,-13.6767 L 73.4769,-13.83 L 73.45,-14 L 73.4769,-14.17
 L 73.555,-14.3233 L 73.6767,-14.4449 L 73.83,-14.5231 L 74,-14.55 L 74.17,-14.5231 L 74.3233,-14.4449
 L 74.4449,-14.3233 L 74.5231,-14.17 L 74.55,-14 L 74.5231,-13.83 L 74.4449,-13.6767 L 74.3233,-13.555
 L 74.17,-13.4769 L 74,-13.45 z
M 73.83,-8.47691 L 73.6767,-8.55504 L 73.555,-8.67671 L 73.4769,-8.83003 L 73.45,-9 L 73.4769,-9.16995
 L 73.555,-9.32327 L 73.6767,-9.44495 L 73.83,-9.52307 L 74,-9.54999 L 74.17,-9.52307 L 74.3233,-9.44495
 L 74.4449,-9.32327 L 74.5231,-9.16995 L 74.55,-9 L 74.5231,-8.83003 L 74.4449,-8.67671 L 74.3233,-8.55504
 L 74.17,-8.47691 L 74,-8.45 z
M 73.83,-3.47691 L 73.6767,-3.55504 L 73.555,-3.67671 L 73.4769,-3.83003 L 73.45,-4 L 73.4769,-4.16995
 L 73.555,-4.32327 L 73.6767,-4.44495 L 73.83,-4.52307 L 74,-4.54999 L 74.17,-4.52307 L 74.3233,-4.44495
 L 74.4449,-4.32327 L 74.5231,-4.16995 L 74.55,-4 L 74.5231,-3.83003 L 74.4449,-3.67671 L 74.3233,-3.55504
 L 74.17,-3.47691 L 74,-3.45 z
M 73.83,-0.476913 L 73.6767,-0.555038 L 73.555,-0.676712 L 73.4769,-0.830032 L 73.45,-1 L 73.4769,-1.16995
 L 73.555,-1.32327 L 73.6767,-1.44495 L 73.83,-1.52307 L 74,-1.54999 L 74.17,-1.52307 L 74.3233,-1.44495
 L 74.4449,-1.32327 L 74.5231,-1.16995 L 74.55,-1 L 74.5231,-0.830032 L 74.4449,-0.676712 L 74.3233,-0.555038
 L 74.17,-0.476913 L 74,-0.449997 z
M 37.25,-8.625 L 37.375,-8.625 L 37.375,-8.5 L 40.625,-8.5 L 40.625,-8.625 L 40.75,-8.625
 L 40.75,-8 L 41.5,-8 L 41.5,-11.125 L 41.375,-11.125 L 41.375,-11.25 L 42,-11.25
 L 42,-11.75 L 41.375,-11.75 L 41.375,-11.875 L 41.5,-11.875 L 41.5,-15 L 40.75,-15
 L 40.75,-14.375 L 40.625,-14.375 L 40.625,-14.5 L 37.375,-14.5 L 37.375,-14.375 L 37.25,-14.375
 L 37.25,-15 L 36.5,-15 L 36.5,-8 L 37.25,-8 z
M 400.25,-12 L 395.75,-12 L 395.75,-4 L 400.25,-4 z
M 398.184,-9.62576 L 398.12,-9.64291 L 398.06,-9.6709 L 398.006,-9.70889 L 397.959,-9.75574 L 397.921,-9.81
 L 397.893,-9.87003 L 397.876,-9.93401 L 397.87,-10 L 397.876,-10.066 L 397.893,-10.13 L 397.921,-10.19
 L 397.959,-10.2442 L 398.006,-10.2911 L 398.06,-10.3291 L 398.12,-10.3571 L 398.184,-10.3742 L 398.25,-10.38
 L 398.316,-10.3742 L 398.38,-10.3571 L 398.44,-10.3291 L 398.494,-10.2911 L 398.541,-10.2442 L 398.579,-10.19
 L 398.607,-10.13 L 398.624,-10.066 L 398.63,-10 L 398.624,-9.93401 L 398.607,-9.87003 L 398.579,-9.81
 L 398.541,-9.75574 L 398.494,-9.70889 L 398.44,-9.6709 L 398.38,-9.64291 L 398.316,-9.62576 L 398.25,-9.62
 z
M 398.184,-5.62576 L 398.12,-5.64291 L 398.06,-5.6709 L 398.006,-5.70889 L 397.959,-5.75574 L 397.921,-5.81
 L 397.893,-5.87003 L 397.876,-5.93401 L 397.87,-6 L 397.876,-6.06598 L 397.893,-6.12996 L 397.921,-6.18999
 L 397.959,-6.24425 L 398.006,-6.29109 L 398.06,-6.32909 L 398.12,-6.35707 L 398.184,-6.37422 L 398.25,-6.37999
 L 398.316,-6.37422 L 398.38,-6.35707 L 398.44,-6.32909 L 398.494,-6.29109 L 398.541,-6.24425 L 398.579,-6.18999
 L 398.607,-6.12996 L 398.624,-6.06598 L 398.63,-6 L 398.624,-5.93401 L 398.607,-5.87003 L 398.579,-5.81
 L 398.541,-5.75574 L 398.494,-5.70889 L 398.44,-5.6709 L 398.38,-5.64291 L 398.316,-5.62576 L 398.25,-5.62
 z
M 80.5,-10.5 L 76.5,-10.5 L 76.5,-5.75 L 80.5,-5.75 z
M 77.4349,-9.13069 L 77.3717,-9.14761 L 77.3125,-9.17523 L 77.2589,-9.21272 L 77.2127,-9.25894 L 77.1752,-9.3125
 L 77.1476,-9.37173 L 77.1307,-9.43488 L 77.125,-9.5 L 77.1307,-9.56511 L 77.1476,-9.62825 L 77.1752,-9.6875
 L 77.2127,-9.74104 L 77.2589,-9.78726 L 77.3125,-9.82475 L 77.3717,-9.85237 L 77.4349,-9.86929 L 77.5,-9.875
 L 77.5651,-9.86929 L 77.6283,-9.85237 L 77.6875,-9.82475 L 77.741,-9.78726 L 77.7873,-9.74104 L 77.8248,-9.6875
 L 77.8524,-9.62825 L 77.8693,-9.56511 L 77.875,-9.5 L 77.8693,-9.43488 L 77.8524,-9.37173 L 77.8248,-9.3125
 L 77.7873,-9.25894 L 77.741,-9.21272 L 77.6875,-9.17523 L 77.6283,-9.14761 L 77.5651,-9.13069 L 77.5,-9.125
 z
M 79.4349,-9.13069 L 79.3717,-9.14761 L 79.3125,-9.17523 L 79.2589,-9.21272 L 79.2127,-9.25894 L 79.1752,-9.3125
 L 79.1476,-9.37173 L 79.1307,-9.43488 L 79.125,-9.5 L 79.1307,-9.56511 L 79.1476,-9.62825 L 79.1752,-9.6875
 L 79.2127,-9.74104 L 79.2589,-9.78726 L 79.3125,-9.82475 L 79.3717,-9.85237 L 79.4349,-9.86929 L 79.5,-9.875
 L 79.5651,-9.86929 L 79.6283,-9.85237 L 79.6875,-9.82475 L 79.741,-9.78726 L 79.7873,-9.74104 L 79.8248,-9.6875
 L 79.8524,-9.62825 L 79.8693,-9.56511 L 79.875,-9.5 L 79.8693,-9.43488 L 79.8524,-9.37173 L 79.8248,-9.3125
 L 79.7873,-9.25894 L 79.741,-9.21272 L 79.6875,-9.17523 L 79.6283,-9.14761 L 79.5651,-9.13069 L 79.5,-9.125
 z
M 79.4132,-6.25758 L 79.329,-6.28015 L 79.25,-6.31699 L 79.1786,-6.36697 L 79.117,-6.4286 L 79.067,-6.5
 L 79.0302,-6.57898 L 79.0076,-6.66316 L 79,-6.75 L 79.0076,-6.83682 L 79.0302,-6.92101 L 79.067,-7
 L 79.117,-7.07138 L 79.1786,-7.13301 L 79.25,-7.183 L 79.329,-7.21983 L 79.4132,-7.2424 L 79.5,-7.25
 L 79.5868,-7.2424 L 79.671,-7.21983 L 79.75,-7.183 L 79.8214,-7.13301 L 79.883,-7.07138 L 79.933,-7
 L 79.9698,-6.92101 L 79.9924,-6.83682 L 80,-6.75 L 79.9924,-6.66316 L 79.9698,-6.57898 L 79.933,-6.5
 L 79.883,-6.4286 L 79.8214,-6.36697 L 79.75,-6.31699 L 79.671,-6.28015 L 79.5868,-6.25758 L 79.5,-6.25
 z
M 77.4132,-6.25758 L 77.329,-6.28015 L 77.25,-6.31699 L 77.1786,-6.36697 L 77.117,-6.4286 L 77.067,-6.5
 L 77.0302,-6.57898 L 77.0076,-6.66316 L 77,-6.75 L 77.0076,-6.83682 L 77.0302,-6.92101 L 77.067,-7
 L 77.117,-7.07138 L 77.1786,-7.13301 L 77.25,-7.183 L 77.329,-7.21983 L 77.4132,-7.2424 L 77.5,-7.25
 L 77.5868,-7.2424 L 77.671,-7.21983 L 77.75,-7.183 L 77.8214,-7.13301 L 77.883,-7.07138 L 77.933,-7
 L 77.9698,-6.92101 L 77.9924,-6.83682 L 78,-6.75 L 77.9924,-6.66316 L 77.9698,-6.57898 L 77.933,-6.5
 L 77.883,-6.4286 L 77.8214,-6.36697 L 77.75,-6.31699 L 77.671,-6.28015 L 77.5868,-6.25758 L 77.5,-6.25
 z
M 317.5,-8.375 L 317.438,-8.375 L 317.438,-8.5 L 316.938,-8.5 L 316.938,-8.375 L 312.12,-8.375
 L 312.12,-8.5 L 311.62,-8.5 L 311.62,-8.375 L 311.495,-8.375 L 311.495,-9 L 305.552,-9
 L 305.552,-8.375 L 305.427,-8.375 L 305.427,-8.5 L 304.927,-8.5 L 304.927,-8.375 L 300.109,-8.375
 L 300.109,-8.5 L 299.609,-8.5 L 299.609,-8.375 L 299.484,-8.375 L 299.484,-9 L 293.542,-9
 L 293.542,-8.375 L 293.417,-8.375 L 293.417,-8.5 L 292.917,-8.5 L 292.917,-8.375 L 288.099,-8.375
 L 288.099,-8.5 L 287.599,-8.5 L 287.599,-8.375 L 287.474,-8.375 L 287.474,-9 L 281.531,-9
 L 281.531,-8.375 L 281.406,-8.375 L 281.406,-8.5 L 280.906,-8.5 L 280.906,-8.375 L 276.089,-8.375
 L 276.089,-8.5 L 275.589,-8.5 L 275.589,-8.375 L 275.464,-8.375 L 275.464,-9 L 269.521,-9
 L 269.521,-8.375 L 269.396,-8.375 L 269.396,-8.5 L 268.896,-8.5 L 268.896,-8.375 L 264.078,-8.375
 L 264.078,-8.5 L 263.578,-8.5 L 263.578,-8.375 L 263.453,-8.375 L 263.453,-9 L 257.51,-9
 L 257.51,-8.375 L 257.385,-8.375 L 257.385,-8.5 L 256.885,-8.5 L 256.885,-8.375 L 252.068,-8.375
 L 252.068,-8.5 L 251.568,-8.5 L 251.568,-8.375 L 251.443,-8.375 L 251.443,-9 L 245.5,-9
 L 245.5,-3 L 317.5,-3 z
M 244.5,-8.375 L 244.438,-8.375 L 244.438,-8.5 L 243.938,-8.5 L 243.938,-8.375 L 239.12,-8.375
 L 239.12,-8.5 L 238.62,-8.5 L 238.62,-8.375 L 238.495,-8.375 L 238.495,-9 L 232.552,-9
 L 232.552,-8.375 L 232.427,-8.375 L 232.427,-8.5 L 231.927,-8.5 L 231.927,-8.375 L 227.109,-8.375
 L 227.109,-8.5 L 226.609,-8.5 L 226.609,-8.375 L 226.484,-8.375 L 226.484,-9 L 220.542,-9
 L 220.542,-8.375 L 220.417,-8.375 L 220.417,-8.5 L 219.917,-8.5 L 219.917,-8.375 L 215.099,-8.375
 L 215.099,-8.5 L 214.599,-8.5 L 214.599,-8.375 L 214.474,-8.375 L 214.474,-9 L 208.531,-9
 L 208.531,-8.375 L 208.406,-8.375 L 208.406,-8.5 L 207.906,-8.5 L 207.906,-8.375 L 203.089,-8.375
 L 203.089,-8.5 L 202.589,-8.5 L 202.589,-8.375 L 202.464,-8.375 L 202.464,-9 L 196.521,-9
 L 196.521,-8.375 L 196.396,-8.375 L 196.396,-8.5 L 195.896,-8.5 L 195.896,-8.375 L 191.078,-8.375
 L 191.078,-8.5 L 190.578,-8.5 L 190.578,-8.375 L 190.453,-8.375 L 190.453,-9 L 184.51,-9
 L 184.51,-8.375 L 184.385,-8.375 L 184.385,-8.5 L 183.885,-8.5 L 183.885,-8.375 L 179.068,-8.375
 L 179.068,-8.5 L 178.568,-8.5 L 178.568,-8.375 L 178.443,-8.375 L 178.443,-9 L 172.5,-9
 L 172.5,-3 L 244.5,-3 z
M 324.5,-3.625 L 324,-3.625 L 324,-4.43332 L 321.56,-8.5 L 321.125,-8.5 L 321.125,-9
 L 320.5,-9 L 320.5,-8 L 323.5,-3 L 324.5,-3 z
M 69.75,-5.125 L 69.875,-5.125 L 69.875,-5 L 71,-5 L 71,-6.125 L 70.875,-6.125
 L 70.875,-6.25 L 71.5,-6.25 L 71.5,-6.75 L 70.875,-6.75 L 70.875,-6.875 L 71,-6.875
 L 71,-8 L 68,-8 L 68,-5 L 69.125,-5 L 69.125,-5.125 L 69.25,-5.125
 L 69.25,-4.5 L 69.75,-4.5 z
M 69.4132,-6.00758 L 69.329,-6.03015 L 69.25,-6.06699 L 69.1786,-6.11697 L 69.117,-6.1786 L 69.067,-6.25
 L 69.0302,-6.32898 L 69.0076,-6.41316 L 69,-6.5 L 69.0076,-6.58682 L 69.0302,-6.67101 L 69.067,-6.75
 L 69.117,-6.82138 L 69.1786,-6.88301 L 69.25,-6.933 L 69.329,-6.96983 L 69.4132,-6.9924 L 69.5,-7
 L 69.5868,-6.9924 L 69.671,-6.96983 L 69.75,-6.933 L 69.8214,-6.88301 L 69.883,-6.82138 L 69.933,-6.75
 L 69.9698,-6.67101 L 69.9924,-6.58682 L 70,-6.5 L 69.9924,-6.41316 L 69.9698,-6.32898 L 69.933,-6.25
 L 69.883,-6.1786 L 69.8214,-6.11697 L 69.75,-6.06699 L 69.671,-6.03015 L 69.5868,-6.00758 L 69.5,-6
 z
M 61,-4.5 L 60.375,-4.5 L 60.375,-4.625 L 60.5,-4.625 L 60.5,-4.875 L 60.375,-4.875
 L 60.375,-6.125 L 60.5,-6.125 L 60.5,-6.375 L 60.375,-6.375 L 60.375,-6.5 L 61,-6.5
 L 61,-7 L 57,-7 L 57,-4 L 61,-4 z
M 58.4132,-5.00758 L 58.329,-5.03015 L 58.25,-5.06699 L 58.1786,-5.11697 L 58.117,-5.1786 L 58.067,-5.25
 L 58.0302,-5.32898 L 58.0076,-5.41316 L 58,-5.5 L 58.0076,-5.58682 L 58.0302,-5.67101 L 58.067,-5.75
 L 58.117,-5.82138 L 58.1786,-5.88301 L 58.25,-5.933 L 58.329,-5.96983 L 58.4132,-5.9924 L 58.5,-6
 L 58.5868,-5.9924 L 58.671,-5.96983 L 58.75,-5.933 L 58.8214,-5.88301 L 58.883,-5.82138 L 58.933,-5.75
 L 58.9698,-5.67101 L 58.9924,-5.58682 L 59,-5.5 L 58.9924,-5.41316 L 58.9698,-5.32898 L 58.933,-5.25
 L 58.883,-5.1786 L 58.8214,-5.11697 L 58.75,-5.06699 L 58.671,-5.03015 L 58.5868,-5.00758 L 58.5,-5
 z
M 37.25,-0.625 L 37.375,-0.625 L 37.375,-0.5 L 40.625,-0.5 L 40.625,-0.625 L 40.75,-0.625
 L 40.75,-0 L 41.5,-0 L 41.5,-3.125 L 41.375,-3.125 L 41.375,-3.25 L 42,-3.25
 L 42,-3.75 L 41.375,-3.75 L 41.375,-3.875 L 41.5,-3.875 L 41.5,-7 L 40.75,-7
 L 40.75,-6.375 L 40.625,-6.375 L 40.625,-6.5 L 37.375,-6.5 L 37.375,-6.375 L 37.25,-6.375
 L 37.25,-7 L 36.5,-7 L 36.5,-0 L 37.25,-0 z
M 171.5,-6 L 165.557,-6 L 165.557,-5.375 L 165.432,-5.375 L 165.432,-5.5 L 164.932,-5.5
 L 164.932,-5.375 L 160.115,-5.375 L 160.115,-5.5 L 159.615,-5.5 L 159.615,-5.375 L 159.49,-5.375
 L 159.49,-6 L 153.547,-6 L 153.547,-5.375 L 153.422,-5.375 L 153.422,-5.5 L 152.922,-5.5
 L 152.922,-5.375 L 148.104,-5.375 L 148.104,-5.5 L 147.604,-5.5 L 147.604,-5.375 L 147.479,-5.375
 L 147.479,-6 L 141.536,-6 L 141.536,-5.375 L 141.411,-5.375 L 141.411,-5.5 L 140.911,-5.5
 L 140.911,-5.375 L 136.094,-5.375 L 136.094,-5.5 L 135.594,-5.5 L 135.594,-5.375 L 135.469,-5.375
 L 135.469,-6 L 129.526,-6 L 129.526,-5.375 L 129.401,-5.375 L 129.401,-5.5 L 128.901,-5.5
 L 128.901,-5.375 L 124.083,-5.375 L 124.083,-5.5 L 123.583,-5.5 L 123.583,-5.375 L 123.458,-5.375
 L 123.458,-6 L 117.516,-6 L 117.516,-5.375 L 117.391,-5.375 L 117.391,-5.5 L 116.891,-5.5
 L 116.891,-5.375 L 112.073,-5.375 L 112.073,-5.5 L 111.573,-5.5 L 111.573,-5.375 L 111.448,-5.375
 L 111.448,-6 L 105.505,-6 L 105.505,-5.375 L 105.38,-5.375 L 105.38,-5.5 L 104.88,-5.5
 L 104.88,-5.375 L 100.062,-5.375 L 100.062,-5.5 L 99.5625,-5.5 L 99.5625,-5.375 L 99.5,-5.375
 L 99.5,-2 L 171.5,-2 z
M 80.5,-4.75 L 76.5,-4.75 L 76.5,-0 L 80.5,-0 z
M 77.4349,-3.38069 L 77.3717,-3.39761 L 77.3125,-3.42523 L 77.2589,-3.46272 L 77.2127,-3.50894 L 77.1752,-3.5625
 L 77.1476,-3.62173 L 77.1307,-3.68488 L 77.125,-3.75 L 77.1307,-3.81511 L 77.1476,-3.87825 L 77.1752,-3.9375
 L 77.2127,-3.99104 L 77.2589,-4.03726 L 77.3125,-4.07475 L 77.3717,-4.10237 L 77.4349,-4.11929 L 77.5,-4.125
 L 77.5651,-4.11929 L 77.6283,-4.10237 L 77.6875,-4.07475 L 77.741,-4.03726 L 77.7873,-3.99104 L 77.8248,-3.9375
 L 77.8524,-3.87825 L 77.8693,-3.81511 L 77.875,-3.75 L 77.8693,-3.68488 L 77.8524,-3.62173 L 77.8248,-3.5625
 L 77.7873,-3.50894 L 77.741,-3.46272 L 77.6875,-3.42523 L 77.6283,-3.39761 L 77.5651,-3.38069 L 77.5,-3.375
 z
M 79.4349,-3.38069 L 79.3717,-3.39761 L 79.3125,-3.42523 L 79.2589,-3.46272 L 79.2127,-3.50894 L 79.1752,-3.5625
 L 79.1476,-3.62173 L 79.1307,-3.68488 L 79.125,-3.75 L 79.1307,-3.81511 L 79.1476,-3.87825 L 79.1752,-3.9375
 L 79.2127,-3.99104 L 79.2589,-4.03726 L 79.3125,-4.07475 L 79.3717,-4.10237 L 79.4349,-4.11929 L 79.5,-4.125
 L 79.5651,-4.11929 L 79.6283,-4.10237 L 79.6875,-4.07475 L 79.741,-4.03726 L 79.7873,-3.99104 L 79.8248,-3.9375
 L 79.8524,-3.87825 L 79.8693,-3.81511 L 79.875,-3.75 L 79.8693,-3.68488 L 79.8524,-3.62173 L 79.8248,-3.5625
 L 79.7873,-3.50894 L 79.741,-3.46272 L 79.6875,-3.42523 L 79.6283,-3.39761 L 79.5651,-3.38069 L 79.5,-3.375
 z
M 77.4132,-0.507584 L 77.329,-0.530151 L 77.25,-0.566986 L 77.1786,-0.616974 L 77.117,-0.678604 L 77.067,-0.75
 L 77.0302,-0.828979 L 77.0076,-0.913162 L 77,-1 L 77.0076,-1.08682 L 77.0302,-1.17101 L 77.067,-1.25
 L 77.117,-1.32138 L 77.1786,-1.38301 L 77.25,-1.433 L 77.329,-1.46983 L 77.4132,-1.4924 L 77.5,-1.5
 L 77.5868,-1.4924 L 77.671,-1.46983 L 77.75,-1.433 L 77.8214,-1.38301 L 77.883,-1.32138 L 77.933,-1.25
 L 77.9698,-1.17101 L 77.9924,-1.08682 L 78,-1 L 77.9924,-0.913162 L 77.9698,-0.828979 L 77.933,-0.75
 L 77.883,-0.678604 L 77.8214,-0.616974 L 77.75,-0.566986 L 77.671,-0.530151 L 77.5868,-0.507584 L 77.5,-0.5
 z
M 79.4132,-0.507584 L 79.329,-0.530151 L 79.25,-0.566986 L 79.1786,-0.616974 L 79.117,-0.678604 L 79.067,-0.75
 L 79.0302,-0.828979 L 79.0076,-0.913162 L 79,-1 L 79.0076,-1.08682 L 79.0302,-1.17101 L 79.067,-1.25
 L 79.117,-1.32138 L 79.1786,-1.38301 L 79.25,-1.433 L 79.329,-1.46983 L 79.4132,-1.4924 L 79.5,-1.5
 L 79.5868,-1.4924 L 79.671,-1.46983 L 79.75,-1.433 L 79.8214,-1.38301 L 79.883,-1.32138 L 79.933,-1.25
 L 79.9698,-1.17101 L 79.9924,-1.08682 L 80,-1 L 79.9924,-0.913162 L 79.9698,-0.828979 L 79.933,-0.75
 L 79.883,-0.678604 L 79.8214,-0.616974 L 79.75,-0.566986 L 79.671,-0.530151 L 79.5868,-0.507584 L 79.5,-0.5
 z
M 69.75,-0.625 L 69.875,-0.625 L 69.875,-0.5 L 71,-0.5 L 71,-1.625 L 70.875,-1.625
 L 70.875,-1.75 L 71.5,-1.75 L 71.5,-2.25 L 70.875,-2.25 L 70.875,-2.375 L 71,-2.375
 L 71,-3.5 L 68,-3.5 L 68,-0.5 L 69.125,-0.5 L 69.125,-0.625 L 69.25,-0.625
 L 69.25,-0 L 69.75,-0 z
M 69.4132,-1.50758 L 69.329,-1.53015 L 69.25,-1.56699 L 69.1786,-1.61697 L 69.117,-1.6786 L 69.067,-1.75
 L 69.0302,-1.82898 L 69.0076,-1.91316 L 69,-2 L 69.0076,-2.08682 L 69.0302,-2.17101 L 69.067,-2.25
 L 69.117,-2.32138 L 69.1786,-2.38301 L 69.25,-2.433 L 69.329,-2.46983 L 69.4132,-2.4924 L 69.5,-2.5
 L 69.5868,-2.4924 L 69.671,-2.46983 L 69.75,-2.433 L 69.8214,-2.38301 L 69.883,-2.32138 L 69.933,-2.25
 L 69.9698,-2.17101 L 69.9924,-2.08682 L 70,-2 L 69.9924,-1.91316 L 69.9698,-1.82898 L 69.933,-1.75
 L 69.883,-1.6786 L 69.8214,-1.61697 L 69.75,-1.56699 L 69.671,-1.53015 L 69.5868,-1.50758 L 69.5,-1.5
 z
M 61,-0.5 L 60.375,-0.5 L 60.375,-0.625 L 60.5,-0.625 L 60.5,-0.875 L 60.375,-0.875
 L 60.375,-2.125 L 60.5,-2.125 L 60.5,-2.375 L 60.375,-2.375 L 60.375,-2.5 L 61,-2.5
 L 61,-3 L 57,-3 L 57,-0 L 61,-0 z
M 58.4132,-1.00758 L 58.329,-1.03015 L 58.25,-1.06699 L 58.1786,-1.11697 L 58.117,-1.1786 L 58.067,-1.25
 L 58.0302,-1.32898 L 58.0076,-1.41316 L 58,-1.5 L 58.0076,-1.58682 L 58.0302,-1.67101 L 58.067,-1.75
 L 58.117,-1.82138 L 58.1786,-1.88301 L 58.25,-1.933 L 58.329,-1.96983 L 58.4132,-1.9924 L 58.5,-2
 L 58.5868,-1.9924 L 58.671,-1.96983 L 58.75,-1.933 L 58.8214,-1.88301 L 58.883,-1.82138 L 58.933,-1.75
 L 58.9698,-1.67101 L 58.9924,-1.58682 L 59,-1.5 L 58.9924,-1.41316 L 58.9698,-1.32898 L 58.933,-1.25
 L 58.883,-1.1786 L 58.8214,-1.11697 L 58.75,-1.06699 L 58.671,-1.03015 L 58.5868,-1.00758 L 58.5,-1
 z
" stroke="black" fill="lightgray" stroke-width="0.5"/>
</svg>
