  0
SECTION
  2
BLOCKS
  0
ENDSEC
  0
SECTION
  2
ENTITIES
  0
LINE
  8
0
 10
0
 20
0.53125
 11
0.65625
 21
0.53125
  0
LINE
  8
0
 10
0.65625
 20
0.53125
 11
0.65625
 21
0.65625
  0
LINE
  8
0
 10
0.65625
 20
0.65625
 11
0.90625
 21
0.65625
  0
LINE
  8
0
 10
0.90625
 20
0.65625
 11
0.90625
 21
0.40625
  0
LINE
  8
0
 10
0.90625
 20
0.40625
 11
0.78125
 21
0.40625
  0
LINE
  8
0
 10
0.78125
 20
0.40625
 11
0.78125
 21
0
  0
LINE
  8
0
 10
0.78125
 20
0
 11
4.21875
 21
0
  0
LINE
  8
0
 10
4.21875
 20
0
 11
4.21875
 21
0.40625
  0
LINE
  8
0
 10
4.21875
 20
0.40625
 11
4.09375
 21
0.40625
  0
LINE
  8
0
 10
4.09375
 20
0.40625
 11
4.09375
 21
0.65625
  0
LINE
  8
0
 10
4.09375
 20
0.65625
 11
4.34375
 21
0.65625
  0
LINE
  8
0
 10
4.34375
 20
0.65625
 11
4.34375
 21
0.53125
  0
LINE
  8
0
 10
4.34375
 20
0.53125
 11
4.96875
 21
0.53125
  0
LINE
  8
0
 10
4.96875
 20
0.53125
 11
4.96875
 21
0.90625
  0
LINE
  8
0
 10
4.96875
 20
0.90625
 11
4.84375
 21
0.90625
  0
LINE
  8
0
 10
4.84375
 20
0.90625
 11
4.84375
 21
1.15625
  0
LINE
  8
0
 10
4.84375
 20
1.15625
 11
5.09375
 21
1.15625
  0
LINE
  8
0
 10
5.09375
 20
1.15625
 11
5.09375
 21
1.03125
  0
LINE
  8
0
 10
5.09375
 20
1.03125
 11
5.40625
 21
1.03125
  0
LINE
  8
0
 10
5.40625
 20
1.03125
 11
5.40625
 21
1.15625
  0
LINE
  8
0
 10
5.40625
 20
1.15625
 11
5.65625
 21
1.15625
  0
LINE
  8
0
 10
5.65625
 20
1.15625
 11
5.65625
 21
0.53125
  0
LINE
  8
0
 10
5.65625
 20
0.53125
 11
5.53125
 21
0.53125
  0
LINE
  8
0
 10
5.53125
 20
0.53125
 11
5.53125
 21
0
  0
LINE
  8
0
 10
5.53125
 20
0
 11
11.4688
 21
0
  0
LINE
  8
0
 10
11.4688
 20
0
 11
11.4688
 21
0.40625
  0
LINE
  8
0
 10
11.4688
 20
0.40625
 11
11.3438
 21
0.40625
  0
LINE
  8
0
 10
11.3438
 20
0.40625
 11
11.3438
 21
0.90625
  0
LINE
  8
0
 10
11.3438
 20
0.90625
 11
11.5938
 21
0.90625
  0
LINE
  8
0
 10
11.5938
 20
0.90625
 11
11.5938
 21
0.78125
  0
LINE
  8
0
 10
11.5938
 20
0.78125
 11
11.9062
 21
0.78125
  0
LINE
  8
0
 10
11.9062
 20
0.78125
 11
11.9062
 21
0.90625
  0
LINE
  8
0
 10
11.9062
 20
0.90625
 11
12.1562
 21
0.90625
  0
LINE
  8
0
 10
12.1562
 20
0.90625
 11
12.1562
 21
0.65625
  0
LINE
  8
0
 10
12.1562
 20
0.65625
 11
12.0312
 21
0.65625
  0
LINE
  8
0
 10
12.0312
 20
0.65625
 11
12.0312
 21
0.53125
  0
LINE
  8
0
 10
12.0312
 20
0.53125
 11
12.4062
 21
0.53125
  0
LINE
  8
0
 10
12.4062
 20
0.53125
 11
12.4062
 21
0.65625
  0
LINE
  8
0
 10
12.4062
 20
0.65625
 11
12.6562
 21
0.65625
  0
LINE
  8
0
 10
12.6562
 20
0.65625
 11
12.6562
 21
0.28125
  0
LINE
  8
0
 10
12.6562
 20
0.28125
 11
12.5312
 21
0.28125
  0
LINE
  8
0
 10
12.5312
 20
0.28125
 11
12.5312
 21
0
  0
LINE
  8
0
 10
12.5312
 20
0
 11
17.4688
 21
0
  0
LINE
  8
0
 10
17.4688
 20
0
 11
17.4688
 21
0.40625
  0
LINE
  8
0
 10
17.4688
 20
0.40625
 11
17.3438
 21
0.40625
  0
LINE
  8
0
 10
17.3438
 20
0.40625
 11
17.3438
 21
0.65625
  0
LINE
  8
0
 10
17.3438
 20
0.65625
 11
17.5938
 21
0.65625
  0
LINE
  8
0
 10
17.5938
 20
0.65625
 11
17.5938
 21
0.53125
  0
LINE
  8
0
 10
17.5938
 20
0.53125
 11
17.9688
 21
0.53125
  0
LINE
  8
0
 10
17.9688
 20
0.53125
 11
17.9688
 21
0.65625
  0
LINE
  8
0
 10
17.9688
 20
0.65625
 11
17.8438
 21
0.65625
  0
LINE
  8
0
 10
17.8438
 20
0.65625
 11
17.8438
 21
0.90625
  0
LINE
  8
0
 10
17.8438
 20
0.90625
 11
18.0938
 21
0.90625
  0
LINE
  8
0
 10
18.0938
 20
0.90625
 11
18.0938
 21
0.78125
  0
LINE
  8
0
 10
18.0938
 20
0.78125
 11
18.5
 21
0.78125
  0
LINE
  8
0
 10
18.5
 20
0.78125
 11
18.5
 21
4.71875
  0
LINE
  8
0
 10
18.5
 20
4.71875
 11
18.0938
 21
4.71875
  0
LINE
  8
0
 10
18.0938
 20
4.71875
 11
18.0938
 21
4.59375
  0
LINE
  8
0
 10
18.0938
 20
4.59375
 11
17.8438
 21
4.59375
  0
LINE
  8
0
 10
17.8438
 20
4.59375
 11
17.8438
 21
5.09375
  0
LINE
  8
0
 10
17.8438
 20
5.09375
 11
17.9688
 21
5.09375
  0
LINE
  8
0
 10
17.9688
 20
5.09375
 11
17.9688
 21
6
  0
LINE
  8
0
 10
17.9688
 20
6
 11
13.0312
 21
6
  0
LINE
  8
0
 10
13.0312
 20
6
 11
13.0312
 21
5.59375
  0
LINE
  8
0
 10
13.0312
 20
5.59375
 11
13.1562
 21
5.59375
  0
LINE
  8
0
 10
13.1562
 20
5.59375
 11
13.1562
 21
5.34375
  0
LINE
  8
0
 10
13.1562
 20
5.34375
 11
12.5312
 21
5.34375
  0
LINE
  8
0
 10
12.5312
 20
5.34375
 11
12.5312
 21
5.46875
  0
LINE
  8
0
 10
12.5312
 20
5.46875
 11
12.0312
 21
5.46875
  0
LINE
  8
0
 10
12.0312
 20
5.46875
 11
12.0312
 21
4.96875
  0
LINE
  8
0
 10
12.0312
 20
4.96875
 11
12.1562
 21
4.96875
  0
LINE
  8
0
 10
12.1562
 20
4.96875
 11
12.1562
 21
4.59375
  0
LINE
  8
0
 10
12.1562
 20
4.59375
 11
11.9062
 21
4.59375
  0
LINE
  8
0
 10
11.9062
 20
4.59375
 11
11.9062
 21
4.71875
  0
LINE
  8
0
 10
11.9062
 20
4.71875
 11
11.5938
 21
4.71875
  0
LINE
  8
0
 10
11.5938
 20
4.71875
 11
11.5938
 21
4.59375
  0
LINE
  8
0
 10
11.5938
 20
4.59375
 11
11.3438
 21
4.59375
  0
LINE
  8
0
 10
11.3438
 20
4.59375
 11
11.3438
 21
4.96875
  0
LINE
  8
0
 10
11.3438
 20
4.96875
 11
11.4688
 21
4.96875
  0
LINE
  8
0
 10
11.4688
 20
4.96875
 11
11.4688
 21
6
  0
LINE
  8
0
 10
11.4688
 20
6
 11
5.53125
 21
6
  0
LINE
  8
0
 10
5.53125
 20
6
 11
5.53125
 21
5.59375
  0
LINE
  8
0
 10
5.53125
 20
5.59375
 11
5.65625
 21
5.59375
  0
LINE
  8
0
 10
5.65625
 20
5.59375
 11
5.65625
 21
5.34375
  0
LINE
  8
0
 10
5.65625
 20
5.34375
 11
5.40625
 21
5.34375
  0
LINE
  8
0
 10
5.40625
 20
5.34375
 11
5.40625
 21
5.46875
  0
LINE
  8
0
 10
5.40625
 20
5.46875
 11
5.09375
 21
5.46875
  0
LINE
  8
0
 10
5.09375
 20
5.46875
 11
5.09375
 21
5.34375
  0
LINE
  8
0
 10
5.09375
 20
5.34375
 11
4.84375
 21
5.34375
  0
LINE
  8
0
 10
4.84375
 20
5.34375
 11
4.84375
 21
5.59375
  0
LINE
  8
0
 10
4.84375
 20
5.59375
 11
4.96875
 21
5.59375
  0
LINE
  8
0
 10
4.96875
 20
5.59375
 11
4.96875
 21
6
  0
LINE
  8
0
 10
4.96875
 20
6
 11
2
 21
6
  0
LINE
  8
0
 10
2
 20
6
 11
2
 21
5.57
  0
LINE
  8
0
 10
2
 20
5.57
 11
0
 21
5.57
  0
LINE
  8
0
 10
0
 20
5.57
 11
0
 21
0.53125
  0
ENDSEC
  0
SECTION
  2
OBJECTS
  0
DICTIONARY
  0
ENDSEC
  0
EOF
