  0
SECTION
  2
BLOCKS
  0
ENDSEC
  0
SECTION
  2
ENTITIES
  0
LINE
  8
0
 10
47.875
 20
50.2908
 11
48
 21
50.2908
  0
LINE
  8
0
 10
48
 20
50.2908
 11
48
 21
50.7908
  0
LINE
  8
0
 10
48
 20
50.7908
 11
47.875
 21
50.7908
  0
LINE
  8
0
 10
47.875
 20
50.7908
 11
47.875
 21
57.4643
  0
LINE
  8
0
 10
47.875
 20
57.4643
 11
48
 21
57.4643
  0
LINE
  8
0
 10
48
 20
57.4643
 11
48
 21
57.9643
  0
LINE
  8
0
 10
48
 20
57.9643
 11
47.875
 21
57.9643
  0
LINE
  8
0
 10
47.875
 20
57.9643
 11
47.875
 21
58.2143
  0
LINE
  8
0
 10
47.875
 20
58.2143
 11
48.5
 21
58.2143
  0
LINE
  8
0
 10
48.5
 20
58.2143
 11
48.5
 21
66.3877
  0
LINE
  8
0
 10
48.5
 20
66.3877
 11
47.875
 21
66.3877
  0
LINE
  8
0
 10
47.875
 20
66.3877
 11
47.875
 21
66.6377
  0
LINE
  8
0
 10
47.875
 20
66.6377
 11
48
 21
66.6377
  0
LINE
  8
0
 10
48
 20
66.6377
 11
48
 21
67.1377
  0
LINE
  8
0
 10
48
 20
67.1377
 11
47.875
 21
67.1377
  0
LINE
  8
0
 10
47.875
 20
67.1377
 11
47.875
 21
73.8112
  0
LINE
  8
0
 10
47.875
 20
73.8112
 11
48
 21
73.8112
  0
LINE
  8
0
 10
48
 20
73.8112
 11
48
 21
74.3112
  0
LINE
  8
0
 10
48
 20
74.3112
 11
47.875
 21
74.3112
  0
LINE
  8
0
 10
47.875
 20
74.3112
 11
47.875
 21
74.5612
  0
LINE
  8
0
 10
47.875
 20
74.5612
 11
48.5
 21
74.5612
  0
LINE
  8
0
 10
48.5
 20
74.5612
 11
48.5
 21
82.7347
  0
LINE
  8
0
 10
48.5
 20
82.7347
 11
47.875
 21
82.7347
  0
LINE
  8
0
 10
47.875
 20
82.7347
 11
47.875
 21
82.9847
  0
LINE
  8
0
 10
47.875
 20
82.9847
 11
48
 21
82.9847
  0
LINE
  8
0
 10
48
 20
82.9847
 11
48
 21
83.4847
  0
LINE
  8
0
 10
48
 20
83.4847
 11
47.875
 21
83.4847
  0
LINE
  8
0
 10
47.875
 20
83.4847
 11
47.875
 21
90.1581
  0
LINE
  8
0
 10
47.875
 20
90.1581
 11
48
 21
90.1581
  0
LINE
  8
0
 10
48
 20
90.1581
 11
48
 21
90.6581
  0
LINE
  8
0
 10
48
 20
90.6581
 11
47.875
 21
90.6581
  0
LINE
  8
0
 10
47.875
 20
90.6581
 11
47.875
 21
90.9081
  0
LINE
  8
0
 10
47.875
 20
90.9081
 11
48.5
 21
90.9081
  0
LINE
  8
0
 10
48.5
 20
90.9081
 11
48.5
 21
99.0816
  0
LINE
  8
0
 10
48.5
 20
99.0816
 11
42.5
 21
99.0816
  0
LINE
  8
0
 10
42.5
 20
99.0816
 11
42.5
 21
90.9081
  0
LINE
  8
0
 10
42.5
 20
90.9081
 11
43.125
 21
90.9081
  0
LINE
  8
0
 10
43.125
 20
90.9081
 11
43.125
 21
90.6581
  0
LINE
  8
0
 10
43.125
 20
90.6581
 11
43
 21
90.6581
  0
LINE
  8
0
 10
43
 20
90.6581
 11
43
 21
90.1581
  0
LINE
  8
0
 10
43
 20
90.1581
 11
43.125
 21
90.1581
  0
LINE
  8
0
 10
43.125
 20
90.1581
 11
43.125
 21
83.4847
  0
LINE
  8
0
 10
43.125
 20
83.4847
 11
43
 21
83.4847
  0
LINE
  8
0
 10
43
 20
83.4847
 11
43
 21
82.9847
  0
LINE
  8
0
 10
43
 20
82.9847
 11
43.125
 21
82.9847
  0
LINE
  8
0
 10
43.125
 20
82.9847
 11
43.125
 21
82.7347
  0
LINE
  8
0
 10
43.125
 20
82.7347
 11
42.5
 21
82.7347
  0
LINE
  8
0
 10
42.5
 20
82.7347
 11
42.5
 21
74.5612
  0
LINE
  8
0
 10
42.5
 20
74.5612
 11
43.125
 21
74.5612
  0
LINE
  8
0
 10
43.125
 20
74.5612
 11
43.125
 21
74.3112
  0
LINE
  8
0
 10
43.125
 20
74.3112
 11
43
 21
74.3112
  0
LINE
  8
0
 10
43
 20
74.3112
 11
43
 21
73.8112
  0
LINE
  8
0
 10
43
 20
73.8112
 11
43.125
 21
73.8112
  0
LINE
  8
0
 10
43.125
 20
73.8112
 11
43.125
 21
67.1377
  0
LINE
  8
0
 10
43.125
 20
67.1377
 11
43
 21
67.1377
  0
LINE
  8
0
 10
43
 20
67.1377
 11
43
 21
66.6377
  0
LINE
  8
0
 10
43
 20
66.6377
 11
43.125
 21
66.6377
  0
LINE
  8
0
 10
43.125
 20
66.6377
 11
43.125
 21
66.3877
  0
LINE
  8
0
 10
43.125
 20
66.3877
 11
42.5
 21
66.3877
  0
LINE
  8
0
 10
42.5
 20
66.3877
 11
42.5
 21
58.2143
  0
LINE
  8
0
 10
42.5
 20
58.2143
 11
43.125
 21
58.2143
  0
LINE
  8
0
 10
43.125
 20
58.2143
 11
43.125
 21
57.9643
  0
LINE
  8
0
 10
43.125
 20
57.9643
 11
43
 21
57.9643
  0
LINE
  8
0
 10
43
 20
57.9643
 11
43
 21
57.4643
  0
LINE
  8
0
 10
43
 20
57.4643
 11
43.125
 21
57.4643
  0
LINE
  8
0
 10
43.125
 20
57.4643
 11
43.125
 21
50.7908
  0
LINE
  8
0
 10
43.125
 20
50.7908
 11
43
 21
50.7908
  0
LINE
  8
0
 10
43
 20
50.7908
 11
43
 21
50.2908
  0
LINE
  8
0
 10
43
 20
50.2908
 11
43.125
 21
50.2908
  0
LINE
  8
0
 10
43.125
 20
50.2908
 11
43.125
 21
50.0408
  0
LINE
  8
0
 10
43.125
 20
50.0408
 11
47.875
 21
50.0408
  0
LINE
  8
0
 10
47.875
 20
50.0408
 11
47.875
 21
50.2908
  0
LINE
  8
0
 10
45.4132
 20
85.4309
 11
45.329
 21
85.4534
  0
LINE
  8
0
 10
45.329
 20
85.4534
 11
45.25
 21
85.4903
  0
LINE
  8
0
 10
45.25
 20
85.4903
 11
45.1786
 21
85.5403
  0
LINE
  8
0
 10
45.1786
 20
85.5403
 11
45.117
 21
85.6019
  0
LINE
  8
0
 10
45.117
 20
85.6019
 11
45.067
 21
85.6733
  0
LINE
  8
0
 10
45.067
 20
85.6733
 11
45.0302
 21
85.7523
  0
LINE
  8
0
 10
45.0302
 20
85.7523
 11
45.0076
 21
85.8365
  0
LINE
  8
0
 10
45.0076
 20
85.8365
 11
45
 21
85.9233
  0
LINE
  8
0
 10
45
 20
85.9233
 11
45
 21
86.1833
  0
LINE
  8
0
 10
45
 20
86.1833
 11
45.0076
 21
86.2701
  0
LINE
  8
0
 10
45.0076
 20
86.2701
 11
45.0302
 21
86.3543
  0
LINE
  8
0
 10
45.0302
 20
86.3543
 11
45.067
 21
86.4333
  0
LINE
  8
0
 10
45.067
 20
86.4333
 11
45.117
 21
86.5047
  0
LINE
  8
0
 10
45.117
 20
86.5047
 11
45.1786
 21
86.5663
  0
LINE
  8
0
 10
45.1786
 20
86.5663
 11
45.25
 21
86.6163
  0
LINE
  8
0
 10
45.25
 20
86.6163
 11
45.329
 21
86.6531
  0
LINE
  8
0
 10
45.329
 20
86.6531
 11
45.4132
 21
86.6757
  0
LINE
  8
0
 10
45.4132
 20
86.6757
 11
45.5
 21
86.6833
  0
LINE
  8
0
 10
45.5
 20
86.6833
 11
45.5868
 21
86.6757
  0
LINE
  8
0
 10
45.5868
 20
86.6757
 11
45.671
 21
86.6531
  0
LINE
  8
0
 10
45.671
 20
86.6531
 11
45.75
 21
86.6163
  0
LINE
  8
0
 10
45.75
 20
86.6163
 11
45.8214
 21
86.5663
  0
LINE
  8
0
 10
45.8214
 20
86.5663
 11
45.883
 21
86.5047
  0
LINE
  8
0
 10
45.883
 20
86.5047
 11
45.933
 21
86.4333
  0
LINE
  8
0
 10
45.933
 20
86.4333
 11
45.9698
 21
86.3543
  0
LINE
  8
0
 10
45.9698
 20
86.3543
 11
45.9924
 21
86.2701
  0
LINE
  8
0
 10
45.9924
 20
86.2701
 11
46
 21
86.1833
  0
LINE
  8
0
 10
46
 20
86.1833
 11
46
 21
85.9233
  0
LINE
  8
0
 10
46
 20
85.9233
 11
45.9924
 21
85.8365
  0
LINE
  8
0
 10
45.9924
 20
85.8365
 11
45.9698
 21
85.7523
  0
LINE
  8
0
 10
45.9698
 20
85.7523
 11
45.933
 21
85.6733
  0
LINE
  8
0
 10
45.933
 20
85.6733
 11
45.883
 21
85.6019
  0
LINE
  8
0
 10
45.883
 20
85.6019
 11
45.8214
 21
85.5403
  0
LINE
  8
0
 10
45.8214
 20
85.5403
 11
45.75
 21
85.4903
  0
LINE
  8
0
 10
45.75
 20
85.4903
 11
45.671
 21
85.4534
  0
LINE
  8
0
 10
45.671
 20
85.4534
 11
45.5868
 21
85.4309
  0
LINE
  8
0
 10
45.5868
 20
85.4309
 11
45.5
 21
85.4233
  0
LINE
  8
0
 10
45.5
 20
85.4233
 11
45.4132
 21
85.4309
  0
LINE
  8
0
 10
45.4132
 20
78.4309
 11
45.329
 21
78.4534
  0
LINE
  8
0
 10
45.329
 20
78.4534
 11
45.25
 21
78.4903
  0
LINE
  8
0
 10
45.25
 20
78.4903
 11
45.1786
 21
78.5403
  0
LINE
  8
0
 10
45.1786
 20
78.5403
 11
45.117
 21
78.6019
  0
LINE
  8
0
 10
45.117
 20
78.6019
 11
45.067
 21
78.6733
  0
LINE
  8
0
 10
45.067
 20
78.6733
 11
45.0302
 21
78.7523
  0
LINE
  8
0
 10
45.0302
 20
78.7523
 11
45.0076
 21
78.8365
  0
LINE
  8
0
 10
45.0076
 20
78.8365
 11
45
 21
78.9233
  0
LINE
  8
0
 10
45
 20
78.9233
 11
45
 21
79.1833
  0
LINE
  8
0
 10
45
 20
79.1833
 11
45.0076
 21
79.2701
  0
LINE
  8
0
 10
45.0076
 20
79.2701
 11
45.0302
 21
79.3543
  0
LINE
  8
0
 10
45.0302
 20
79.3543
 11
45.067
 21
79.4333
  0
LINE
  8
0
 10
45.067
 20
79.4333
 11
45.117
 21
79.5047
  0
LINE
  8
0
 10
45.117
 20
79.5047
 11
45.1786
 21
79.5663
  0
LINE
  8
0
 10
45.1786
 20
79.5663
 11
45.25
 21
79.6163
  0
LINE
  8
0
 10
45.25
 20
79.6163
 11
45.329
 21
79.6531
  0
LINE
  8
0
 10
45.329
 20
79.6531
 11
45.4132
 21
79.6757
  0
LINE
  8
0
 10
45.4132
 20
79.6757
 11
45.5
 21
79.6833
  0
LINE
  8
0
 10
45.5
 20
79.6833
 11
45.5868
 21
79.6757
  0
LINE
  8
0
 10
45.5868
 20
79.6757
 11
45.671
 21
79.6531
  0
LINE
  8
0
 10
45.671
 20
79.6531
 11
45.75
 21
79.6163
  0
LINE
  8
0
 10
45.75
 20
79.6163
 11
45.8214
 21
79.5663
  0
LINE
  8
0
 10
45.8214
 20
79.5663
 11
45.883
 21
79.5047
  0
LINE
  8
0
 10
45.883
 20
79.5047
 11
45.933
 21
79.4333
  0
LINE
  8
0
 10
45.933
 20
79.4333
 11
45.9698
 21
79.3543
  0
LINE
  8
0
 10
45.9698
 20
79.3543
 11
45.9924
 21
79.2701
  0
LINE
  8
0
 10
45.9924
 20
79.2701
 11
46
 21
79.1833
  0
LINE
  8
0
 10
46
 20
79.1833
 11
46
 21
78.9233
  0
LINE
  8
0
 10
46
 20
78.9233
 11
45.9924
 21
78.8365
  0
LINE
  8
0
 10
45.9924
 20
78.8365
 11
45.9698
 21
78.7523
  0
LINE
  8
0
 10
45.9698
 20
78.7523
 11
45.933
 21
78.6733
  0
LINE
  8
0
 10
45.933
 20
78.6733
 11
45.883
 21
78.6019
  0
LINE
  8
0
 10
45.883
 20
78.6019
 11
45.8214
 21
78.5403
  0
LINE
  8
0
 10
45.8214
 20
78.5403
 11
45.75
 21
78.4903
  0
LINE
  8
0
 10
45.75
 20
78.4903
 11
45.671
 21
78.4534
  0
LINE
  8
0
 10
45.671
 20
78.4534
 11
45.5868
 21
78.4309
  0
LINE
  8
0
 10
45.5868
 20
78.4309
 11
45.5
 21
78.4233
  0
LINE
  8
0
 10
45.5
 20
78.4233
 11
45.4132
 21
78.4309
  0
LINE
  8
0
 10
54
 20
58.2143
 11
53.375
 21
58.2143
  0
LINE
  8
0
 10
53.375
 20
58.2143
 11
53.375
 21
58.4643
  0
LINE
  8
0
 10
53.375
 20
58.4643
 11
53.5
 21
58.4643
  0
LINE
  8
0
 10
53.5
 20
58.4643
 11
53.5
 21
58.9643
  0
LINE
  8
0
 10
53.5
 20
58.9643
 11
53.375
 21
58.9643
  0
LINE
  8
0
 10
53.375
 20
58.9643
 11
53.375
 21
65.6377
  0
LINE
  8
0
 10
53.375
 20
65.6377
 11
53.5
 21
65.6377
  0
LINE
  8
0
 10
53.5
 20
65.6377
 11
53.5
 21
66.1377
  0
LINE
  8
0
 10
53.5
 20
66.1377
 11
53.375
 21
66.1377
  0
LINE
  8
0
 10
53.375
 20
66.1377
 11
53.375
 21
66.3877
  0
LINE
  8
0
 10
53.375
 20
66.3877
 11
54
 21
66.3877
  0
LINE
  8
0
 10
54
 20
66.3877
 11
54
 21
74.5612
  0
LINE
  8
0
 10
54
 20
74.5612
 11
53.375
 21
74.5612
  0
LINE
  8
0
 10
53.375
 20
74.5612
 11
53.375
 21
74.8112
  0
LINE
  8
0
 10
53.375
 20
74.8112
 11
53.5
 21
74.8112
  0
LINE
  8
0
 10
53.5
 20
74.8112
 11
53.5
 21
75.3112
  0
LINE
  8
0
 10
53.5
 20
75.3112
 11
53.375
 21
75.3112
  0
LINE
  8
0
 10
53.375
 20
75.3112
 11
53.375
 21
81.9847
  0
LINE
  8
0
 10
53.375
 20
81.9847
 11
53.5
 21
81.9847
  0
LINE
  8
0
 10
53.5
 20
81.9847
 11
53.5
 21
82.4847
  0
LINE
  8
0
 10
53.5
 20
82.4847
 11
53.375
 21
82.4847
  0
LINE
  8
0
 10
53.375
 20
82.4847
 11
53.375
 21
82.7347
  0
LINE
  8
0
 10
53.375
 20
82.7347
 11
54
 21
82.7347
  0
LINE
  8
0
 10
54
 20
82.7347
 11
54
 21
90.9081
  0
LINE
  8
0
 10
54
 20
90.9081
 11
53.375
 21
90.9081
  0
LINE
  8
0
 10
53.375
 20
90.9081
 11
53.375
 21
91.1581
  0
LINE
  8
0
 10
53.375
 20
91.1581
 11
53.5
 21
91.1581
  0
LINE
  8
0
 10
53.5
 20
91.1581
 11
53.5
 21
91.6581
  0
LINE
  8
0
 10
53.5
 20
91.6581
 11
53.375
 21
91.6581
  0
LINE
  8
0
 10
53.375
 20
91.6581
 11
53.375
 21
98.3316
  0
LINE
  8
0
 10
53.375
 20
98.3316
 11
53.5
 21
98.3316
  0
LINE
  8
0
 10
53.5
 20
98.3316
 11
53.5
 21
98.8316
  0
LINE
  8
0
 10
53.5
 20
98.8316
 11
53.375
 21
98.8316
  0
LINE
  8
0
 10
53.375
 20
98.8316
 11
53.375
 21
99.0816
  0
LINE
  8
0
 10
53.375
 20
99.0816
 11
50.0312
 21
99.0816
  0
LINE
  8
0
 10
50.0312
 20
99.0816
 11
50.0312
 21
98.6753
  0
LINE
  8
0
 10
50.0312
 20
98.6753
 11
50.1562
 21
98.6753
  0
LINE
  8
0
 10
50.1562
 20
98.6753
 11
50.1562
 21
98.4253
  0
LINE
  8
0
 10
50.1562
 20
98.4253
 11
49.9062
 21
98.4253
  0
LINE
  8
0
 10
49.9062
 20
98.4253
 11
49.9062
 21
98.5503
  0
LINE
  8
0
 10
49.9062
 20
98.5503
 11
49.5
 21
98.5503
  0
LINE
  8
0
 10
49.5
 20
98.5503
 11
49.5
 21
93.2816
  0
LINE
  8
0
 10
49.5
 20
93.2816
 11
50.9
 21
93.2816
  0
LINE
  8
0
 10
50.9
 20
93.2816
 11
50.9
 21
86.8816
  0
LINE
  8
0
 10
50.9
 20
86.8816
 11
49.5
 21
86.8816
  0
LINE
  8
0
 10
49.5
 20
86.8816
 11
49.5
 21
76.0845
  0
LINE
  8
0
 10
49.5
 20
76.0845
 11
49.9062
 21
76.0845
  0
LINE
  8
0
 10
49.9062
 20
76.0845
 11
49.9062
 21
76.2095
  0
LINE
  8
0
 10
49.9062
 20
76.2095
 11
50.1562
 21
76.2095
  0
LINE
  8
0
 10
50.1562
 20
76.2095
 11
50.1562
 21
75.9595
  0
LINE
  8
0
 10
50.1562
 20
75.9595
 11
50.0312
 21
75.9595
  0
LINE
  8
0
 10
50.0312
 20
75.9595
 11
50.0312
 21
75.647
  0
LINE
  8
0
 10
50.0312
 20
75.647
 11
50.1562
 21
75.647
  0
LINE
  8
0
 10
50.1562
 20
75.647
 11
50.1562
 21
75.397
  0
LINE
  8
0
 10
50.1562
 20
75.397
 11
49.9062
 21
75.397
  0
LINE
  8
0
 10
49.9062
 20
75.397
 11
49.9062
 21
75.522
  0
LINE
  8
0
 10
49.9062
 20
75.522
 11
49.5
 21
75.522
  0
LINE
  8
0
 10
49.5
 20
75.522
 11
49.5
 21
50.572
  0
LINE
  8
0
 10
49.5
 20
50.572
 11
49.9062
 21
50.572
  0
LINE
  8
0
 10
49.9062
 20
50.572
 11
49.9062
 21
50.697
  0
LINE
  8
0
 10
49.9062
 20
50.697
 11
50.1562
 21
50.697
  0
LINE
  8
0
 10
50.1562
 20
50.697
 11
50.1562
 21
50.447
  0
LINE
  8
0
 10
50.1562
 20
50.447
 11
50.0312
 21
50.447
  0
LINE
  8
0
 10
50.0312
 20
50.447
 11
50.0312
 21
50.0408
  0
LINE
  8
0
 10
50.0312
 20
50.0408
 11
54
 21
50.0408
  0
LINE
  8
0
 10
54
 20
50.0408
 11
54
 21
58.2143
  0
LINE
  8
0
 10
51.934
 20
97.2074
 11
51.87
 21
97.2245
  0
LINE
  8
0
 10
51.87
 20
97.2245
 11
51.81
 21
97.2525
  0
LINE
  8
0
 10
51.81
 20
97.2525
 11
51.7557
 21
97.2905
  0
LINE
  8
0
 10
51.7557
 20
97.2905
 11
51.7089
 21
97.3373
  0
LINE
  8
0
 10
51.7089
 20
97.3373
 11
51.6709
 21
97.3916
  0
LINE
  8
0
 10
51.6709
 20
97.3916
 11
51.6429
 21
97.4516
  0
LINE
  8
0
 10
51.6429
 20
97.4516
 11
51.6258
 21
97.5156
  0
LINE
  8
0
 10
51.6258
 20
97.5156
 11
51.62
 21
97.5816
  0
LINE
  8
0
 10
51.62
 20
97.5816
 11
51.6258
 21
97.6476
  0
LINE
  8
0
 10
51.6258
 20
97.6476
 11
51.6429
 21
97.7116
  0
LINE
  8
0
 10
51.6429
 20
97.7116
 11
51.6709
 21
97.7716
  0
LINE
  8
0
 10
51.6709
 20
97.7716
 11
51.7089
 21
97.8259
  0
LINE
  8
0
 10
51.7089
 20
97.8259
 11
51.7557
 21
97.8727
  0
LINE
  8
0
 10
51.7557
 20
97.8727
 11
51.81
 21
97.9107
  0
LINE
  8
0
 10
51.81
 20
97.9107
 11
51.87
 21
97.9387
  0
LINE
  8
0
 10
51.87
 20
97.9387
 11
51.934
 21
97.9558
  0
LINE
  8
0
 10
51.934
 20
97.9558
 11
52
 21
97.9616
  0
LINE
  8
0
 10
52
 20
97.9616
 11
52.066
 21
97.9558
  0
LINE
  8
0
 10
52.066
 20
97.9558
 11
52.13
 21
97.9387
  0
LINE
  8
0
 10
52.13
 20
97.9387
 11
52.19
 21
97.9107
  0
LINE
  8
0
 10
52.19
 20
97.9107
 11
52.2442
 21
97.8727
  0
LINE
  8
0
 10
52.2442
 20
97.8727
 11
52.2911
 21
97.8259
  0
LINE
  8
0
 10
52.2911
 20
97.8259
 11
52.3291
 21
97.7716
  0
LINE
  8
0
 10
52.3291
 20
97.7716
 11
52.3571
 21
97.7116
  0
LINE
  8
0
 10
52.3571
 20
97.7116
 11
52.3742
 21
97.6476
  0
LINE
  8
0
 10
52.3742
 20
97.6476
 11
52.38
 21
97.5816
  0
LINE
  8
0
 10
52.38
 20
97.5816
 11
52.3742
 21
97.5156
  0
LINE
  8
0
 10
52.3742
 20
97.5156
 11
52.3571
 21
97.4516
  0
LINE
  8
0
 10
52.3571
 20
97.4516
 11
52.3291
 21
97.3916
  0
LINE
  8
0
 10
52.3291
 20
97.3916
 11
52.2911
 21
97.3373
  0
LINE
  8
0
 10
52.2911
 20
97.3373
 11
52.2442
 21
97.2905
  0
LINE
  8
0
 10
52.2442
 20
97.2905
 11
52.19
 21
97.2525
  0
LINE
  8
0
 10
52.19
 20
97.2525
 11
52.13
 21
97.2245
  0
LINE
  8
0
 10
52.13
 20
97.2245
 11
52.066
 21
97.2074
  0
LINE
  8
0
 10
52.066
 20
97.2074
 11
52
 21
97.2016
  0
LINE
  8
0
 10
52
 20
97.2016
 11
51.934
 21
97.2074
  0
LINE
  8
0
 10
51.934
 20
94.2074
 11
51.87
 21
94.2245
  0
LINE
  8
0
 10
51.87
 20
94.2245
 11
51.81
 21
94.2525
  0
LINE
  8
0
 10
51.81
 20
94.2525
 11
51.7557
 21
94.2905
  0
LINE
  8
0
 10
51.7557
 20
94.2905
 11
51.7089
 21
94.3373
  0
LINE
  8
0
 10
51.7089
 20
94.3373
 11
51.6709
 21
94.3916
  0
LINE
  8
0
 10
51.6709
 20
94.3916
 11
51.6429
 21
94.4516
  0
LINE
  8
0
 10
51.6429
 20
94.4516
 11
51.6258
 21
94.5156
  0
LINE
  8
0
 10
51.6258
 20
94.5156
 11
51.62
 21
94.5816
  0
LINE
  8
0
 10
51.62
 20
94.5816
 11
51.6258
 21
94.6476
  0
LINE
  8
0
 10
51.6258
 20
94.6476
 11
51.6429
 21
94.7116
  0
LINE
  8
0
 10
51.6429
 20
94.7116
 11
51.6709
 21
94.7716
  0
LINE
  8
0
 10
51.6709
 20
94.7716
 11
51.7089
 21
94.8259
  0
LINE
  8
0
 10
51.7089
 20
94.8259
 11
51.7557
 21
94.8727
  0
LINE
  8
0
 10
51.7557
 20
94.8727
 11
51.81
 21
94.9107
  0
LINE
  8
0
 10
51.81
 20
94.9107
 11
51.87
 21
94.9387
  0
LINE
  8
0
 10
51.87
 20
94.9387
 11
51.934
 21
94.9558
  0
LINE
  8
0
 10
51.934
 20
94.9558
 11
52
 21
94.9616
  0
LINE
  8
0
 10
52
 20
94.9616
 11
52.066
 21
94.9558
  0
LINE
  8
0
 10
52.066
 20
94.9558
 11
52.13
 21
94.9387
  0
LINE
  8
0
 10
52.13
 20
94.9387
 11
52.19
 21
94.9107
  0
LINE
  8
0
 10
52.19
 20
94.9107
 11
52.2442
 21
94.8727
  0
LINE
  8
0
 10
52.2442
 20
94.8727
 11
52.2911
 21
94.8259
  0
LINE
  8
0
 10
52.2911
 20
94.8259
 11
52.3291
 21
94.7716
  0
LINE
  8
0
 10
52.3291
 20
94.7716
 11
52.3571
 21
94.7116
  0
LINE
  8
0
 10
52.3571
 20
94.7116
 11
52.3742
 21
94.6476
  0
LINE
  8
0
 10
52.3742
 20
94.6476
 11
52.38
 21
94.5816
  0
LINE
  8
0
 10
52.38
 20
94.5816
 11
52.3742
 21
94.5156
  0
LINE
  8
0
 10
52.3742
 20
94.5156
 11
52.3571
 21
94.4516
  0
LINE
  8
0
 10
52.3571
 20
94.4516
 11
52.3291
 21
94.3916
  0
LINE
  8
0
 10
52.3291
 20
94.3916
 11
52.2911
 21
94.3373
  0
LINE
  8
0
 10
52.2911
 20
94.3373
 11
52.2442
 21
94.2905
  0
LINE
  8
0
 10
52.2442
 20
94.2905
 11
52.19
 21
94.2525
  0
LINE
  8
0
 10
52.19
 20
94.2525
 11
52.13
 21
94.2245
  0
LINE
  8
0
 10
52.13
 20
94.2245
 11
52.066
 21
94.2074
  0
LINE
  8
0
 10
52.066
 20
94.2074
 11
52
 21
94.2016
  0
LINE
  8
0
 10
52
 20
94.2016
 11
51.934
 21
94.2074
  0
LINE
  8
0
 10
51.9127
 20
84.5584
 11
51.8281
 21
84.5811
  0
LINE
  8
0
 10
51.8281
 20
84.5811
 11
51.7487
 21
84.6181
  0
LINE
  8
0
 10
51.7487
 20
84.6181
 11
51.677
 21
84.6684
  0
LINE
  8
0
 10
51.677
 20
84.6684
 11
51.6151
 21
84.7303
  0
LINE
  8
0
 10
51.6151
 20
84.7303
 11
51.5648
 21
84.802
  0
LINE
  8
0
 10
51.5648
 20
84.802
 11
51.5278
 21
84.8814
  0
LINE
  8
0
 10
51.5278
 20
84.8814
 11
51.5051
 21
84.966
  0
LINE
  8
0
 10
51.5051
 20
84.966
 11
51.4975
 21
85.0533
  0
LINE
  8
0
 10
51.4975
 20
85.0533
 11
51.5051
 21
85.1405
  0
LINE
  8
0
 10
51.5051
 20
85.1405
 11
51.5278
 21
85.2252
  0
LINE
  8
0
 10
51.5278
 20
85.2252
 11
51.5648
 21
85.3045
  0
LINE
  8
0
 10
51.5648
 20
85.3045
 11
51.6151
 21
85.3763
  0
LINE
  8
0
 10
51.6151
 20
85.3763
 11
51.677
 21
85.4382
  0
LINE
  8
0
 10
51.677
 20
85.4382
 11
51.7487
 21
85.4885
  0
LINE
  8
0
 10
51.7487
 20
85.4885
 11
51.8281
 21
85.5255
  0
LINE
  8
0
 10
51.8281
 20
85.5255
 11
51.9127
 21
85.5482
  0
LINE
  8
0
 10
51.9127
 20
85.5482
 11
52
 21
85.5558
  0
LINE
  8
0
 10
52
 20
85.5558
 11
52.0872
 21
85.5482
  0
LINE
  8
0
 10
52.0872
 20
85.5482
 11
52.1719
 21
85.5255
  0
LINE
  8
0
 10
52.1719
 20
85.5255
 11
52.2512
 21
85.4885
  0
LINE
  8
0
 10
52.2512
 20
85.4885
 11
52.323
 21
85.4382
  0
LINE
  8
0
 10
52.323
 20
85.4382
 11
52.3849
 21
85.3763
  0
LINE
  8
0
 10
52.3849
 20
85.3763
 11
52.4352
 21
85.3045
  0
LINE
  8
0
 10
52.4352
 20
85.3045
 11
52.4722
 21
85.2252
  0
LINE
  8
0
 10
52.4722
 20
85.2252
 11
52.4949
 21
85.1405
  0
LINE
  8
0
 10
52.4949
 20
85.1405
 11
52.5025
 21
85.0533
  0
LINE
  8
0
 10
52.5025
 20
85.0533
 11
52.4949
 21
84.966
  0
LINE
  8
0
 10
52.4949
 20
84.966
 11
52.4722
 21
84.8814
  0
LINE
  8
0
 10
52.4722
 20
84.8814
 11
52.4352
 21
84.802
  0
LINE
  8
0
 10
52.4352
 20
84.802
 11
52.3849
 21
84.7303
  0
LINE
  8
0
 10
52.3849
 20
84.7303
 11
52.323
 21
84.6684
  0
LINE
  8
0
 10
52.323
 20
84.6684
 11
52.2512
 21
84.6181
  0
LINE
  8
0
 10
52.2512
 20
84.6181
 11
52.1719
 21
84.5811
  0
LINE
  8
0
 10
52.1719
 20
84.5811
 11
52.0872
 21
84.5584
  0
LINE
  8
0
 10
52.0872
 20
84.5584
 11
52
 21
84.5508
  0
LINE
  8
0
 10
52
 20
84.5508
 11
51.9127
 21
84.5584
  0
LINE
  8
0
 10
51.9127
 20
81.5584
 11
51.8281
 21
81.5811
  0
LINE
  8
0
 10
51.8281
 20
81.5811
 11
51.7487
 21
81.6181
  0
LINE
  8
0
 10
51.7487
 20
81.6181
 11
51.677
 21
81.6684
  0
LINE
  8
0
 10
51.677
 20
81.6684
 11
51.6151
 21
81.7303
  0
LINE
  8
0
 10
51.6151
 20
81.7303
 11
51.5648
 21
81.802
  0
LINE
  8
0
 10
51.5648
 20
81.802
 11
51.5278
 21
81.8814
  0
LINE
  8
0
 10
51.5278
 20
81.8814
 11
51.5051
 21
81.966
  0
LINE
  8
0
 10
51.5051
 20
81.966
 11
51.4975
 21
82.0533
  0
LINE
  8
0
 10
51.4975
 20
82.0533
 11
51.5051
 21
82.1405
  0
LINE
  8
0
 10
51.5051
 20
82.1405
 11
51.5278
 21
82.2252
  0
LINE
  8
0
 10
51.5278
 20
82.2252
 11
51.5648
 21
82.3045
  0
LINE
  8
0
 10
51.5648
 20
82.3045
 11
51.6151
 21
82.3763
  0
LINE
  8
0
 10
51.6151
 20
82.3763
 11
51.677
 21
82.4382
  0
LINE
  8
0
 10
51.677
 20
82.4382
 11
51.7487
 21
82.4885
  0
LINE
  8
0
 10
51.7487
 20
82.4885
 11
51.8281
 21
82.5255
  0
LINE
  8
0
 10
51.8281
 20
82.5255
 11
51.9127
 21
82.5482
  0
LINE
  8
0
 10
51.9127
 20
82.5482
 11
52
 21
82.5558
  0
LINE
  8
0
 10
52
 20
82.5558
 11
52.0872
 21
82.5482
  0
LINE
  8
0
 10
52.0872
 20
82.5482
 11
52.1719
 21
82.5255
  0
LINE
  8
0
 10
52.1719
 20
82.5255
 11
52.2512
 21
82.4885
  0
LINE
  8
0
 10
52.2512
 20
82.4885
 11
52.323
 21
82.4382
  0
LINE
  8
0
 10
52.323
 20
82.4382
 11
52.3849
 21
82.3763
  0
LINE
  8
0
 10
52.3849
 20
82.3763
 11
52.4352
 21
82.3045
  0
LINE
  8
0
 10
52.4352
 20
82.3045
 11
52.4722
 21
82.2252
  0
LINE
  8
0
 10
52.4722
 20
82.2252
 11
52.4949
 21
82.1405
  0
LINE
  8
0
 10
52.4949
 20
82.1405
 11
52.5025
 21
82.0533
  0
LINE
  8
0
 10
52.5025
 20
82.0533
 11
52.4949
 21
81.966
  0
LINE
  8
0
 10
52.4949
 20
81.966
 11
52.4722
 21
81.8814
  0
LINE
  8
0
 10
52.4722
 20
81.8814
 11
52.4352
 21
81.802
  0
LINE
  8
0
 10
52.4352
 20
81.802
 11
52.3849
 21
81.7303
  0
LINE
  8
0
 10
52.3849
 20
81.7303
 11
52.323
 21
81.6684
  0
LINE
  8
0
 10
52.323
 20
81.6684
 11
52.2512
 21
81.6181
  0
LINE
  8
0
 10
52.2512
 20
81.6181
 11
52.1719
 21
81.5811
  0
LINE
  8
0
 10
52.1719
 20
81.5811
 11
52.0872
 21
81.5584
  0
LINE
  8
0
 10
52.0872
 20
81.5584
 11
52
 21
81.5508
  0
LINE
  8
0
 10
52
 20
81.5508
 11
51.9127
 21
81.5584
  0
LINE
  8
0
 10
51.9127
 20
77.5584
 11
51.8281
 21
77.5811
  0
LINE
  8
0
 10
51.8281
 20
77.5811
 11
51.7487
 21
77.6181
  0
LINE
  8
0
 10
51.7487
 20
77.6181
 11
51.677
 21
77.6684
  0
LINE
  8
0
 10
51.677
 20
77.6684
 11
51.6151
 21
77.7303
  0
LINE
  8
0
 10
51.6151
 20
77.7303
 11
51.5648
 21
77.802
  0
LINE
  8
0
 10
51.5648
 20
77.802
 11
51.5278
 21
77.8814
  0
LINE
  8
0
 10
51.5278
 20
77.8814
 11
51.5051
 21
77.966
  0
LINE
  8
0
 10
51.5051
 20
77.966
 11
51.4975
 21
78.0533
  0
LINE
  8
0
 10
51.4975
 20
78.0533
 11
51.5051
 21
78.1405
  0
LINE
  8
0
 10
51.5051
 20
78.1405
 11
51.5278
 21
78.2252
  0
LINE
  8
0
 10
51.5278
 20
78.2252
 11
51.5648
 21
78.3045
  0
LINE
  8
0
 10
51.5648
 20
78.3045
 11
51.6151
 21
78.3763
  0
LINE
  8
0
 10
51.6151
 20
78.3763
 11
51.677
 21
78.4382
  0
LINE
  8
0
 10
51.677
 20
78.4382
 11
51.7487
 21
78.4885
  0
LINE
  8
0
 10
51.7487
 20
78.4885
 11
51.8281
 21
78.5255
  0
LINE
  8
0
 10
51.8281
 20
78.5255
 11
51.9127
 21
78.5482
  0
LINE
  8
0
 10
51.9127
 20
78.5482
 11
52
 21
78.5558
  0
LINE
  8
0
 10
52
 20
78.5558
 11
52.0872
 21
78.5482
  0
LINE
  8
0
 10
52.0872
 20
78.5482
 11
52.1719
 21
78.5255
  0
LINE
  8
0
 10
52.1719
 20
78.5255
 11
52.2512
 21
78.4885
  0
LINE
  8
0
 10
52.2512
 20
78.4885
 11
52.323
 21
78.4382
  0
LINE
  8
0
 10
52.323
 20
78.4382
 11
52.3849
 21
78.3763
  0
LINE
  8
0
 10
52.3849
 20
78.3763
 11
52.4352
 21
78.3045
  0
LINE
  8
0
 10
52.4352
 20
78.3045
 11
52.4722
 21
78.2252
  0
LINE
  8
0
 10
52.4722
 20
78.2252
 11
52.4949
 21
78.1405
  0
LINE
  8
0
 10
52.4949
 20
78.1405
 11
52.5025
 21
78.0533
  0
LINE
  8
0
 10
52.5025
 20
78.0533
 11
52.4949
 21
77.966
  0
LINE
  8
0
 10
52.4949
 20
77.966
 11
52.4722
 21
77.8814
  0
LINE
  8
0
 10
52.4722
 20
77.8814
 11
52.4352
 21
77.802
  0
LINE
  8
0
 10
52.4352
 20
77.802
 11
52.3849
 21
77.7303
  0
LINE
  8
0
 10
52.3849
 20
77.7303
 11
52.323
 21
77.6684
  0
LINE
  8
0
 10
52.323
 20
77.6684
 11
52.2512
 21
77.6181
  0
LINE
  8
0
 10
52.2512
 20
77.6181
 11
52.1719
 21
77.5811
  0
LINE
  8
0
 10
52.1719
 20
77.5811
 11
52.0872
 21
77.5584
  0
LINE
  8
0
 10
52.0872
 20
77.5584
 11
52
 21
77.5508
  0
LINE
  8
0
 10
52
 20
77.5508
 11
51.9127
 21
77.5584
  0
LINE
  8
0
 10
51.934
 20
55.6666
 11
51.87
 21
55.6837
  0
LINE
  8
0
 10
51.87
 20
55.6837
 11
51.81
 21
55.7117
  0
LINE
  8
0
 10
51.81
 20
55.7117
 11
51.7557
 21
55.7497
  0
LINE
  8
0
 10
51.7557
 20
55.7497
 11
51.7089
 21
55.7965
  0
LINE
  8
0
 10
51.7089
 20
55.7965
 11
51.6709
 21
55.8508
  0
LINE
  8
0
 10
51.6709
 20
55.8508
 11
51.6429
 21
55.9108
  0
LINE
  8
0
 10
51.6429
 20
55.9108
 11
51.6258
 21
55.9748
  0
LINE
  8
0
 10
51.6258
 20
55.9748
 11
51.62
 21
56.0408
  0
LINE
  8
0
 10
51.62
 20
56.0408
 11
51.6258
 21
56.1068
  0
LINE
  8
0
 10
51.6258
 20
56.1068
 11
51.6429
 21
56.1708
  0
LINE
  8
0
 10
51.6429
 20
56.1708
 11
51.6709
 21
56.2308
  0
LINE
  8
0
 10
51.6709
 20
56.2308
 11
51.7089
 21
56.285
  0
LINE
  8
0
 10
51.7089
 20
56.285
 11
51.7557
 21
56.3319
  0
LINE
  8
0
 10
51.7557
 20
56.3319
 11
51.81
 21
56.3699
  0
LINE
  8
0
 10
51.81
 20
56.3699
 11
51.87
 21
56.3979
  0
LINE
  8
0
 10
51.87
 20
56.3979
 11
51.934
 21
56.415
  0
LINE
  8
0
 10
51.934
 20
56.415
 11
52
 21
56.4208
  0
LINE
  8
0
 10
52
 20
56.4208
 11
52.066
 21
56.415
  0
LINE
  8
0
 10
52.066
 20
56.415
 11
52.13
 21
56.3979
  0
LINE
  8
0
 10
52.13
 20
56.3979
 11
52.19
 21
56.3699
  0
LINE
  8
0
 10
52.19
 20
56.3699
 11
52.2442
 21
56.3319
  0
LINE
  8
0
 10
52.2442
 20
56.3319
 11
52.2911
 21
56.285
  0
LINE
  8
0
 10
52.2911
 20
56.285
 11
52.3291
 21
56.2308
  0
LINE
  8
0
 10
52.3291
 20
56.2308
 11
52.3571
 21
56.1708
  0
LINE
  8
0
 10
52.3571
 20
56.1708
 11
52.3742
 21
56.1068
  0
LINE
  8
0
 10
52.3742
 20
56.1068
 11
52.38
 21
56.0408
  0
LINE
  8
0
 10
52.38
 20
56.0408
 11
52.3742
 21
55.9748
  0
LINE
  8
0
 10
52.3742
 20
55.9748
 11
52.3571
 21
55.9108
  0
LINE
  8
0
 10
52.3571
 20
55.9108
 11
52.3291
 21
55.8508
  0
LINE
  8
0
 10
52.3291
 20
55.8508
 11
52.2911
 21
55.7965
  0
LINE
  8
0
 10
52.2911
 20
55.7965
 11
52.2442
 21
55.7497
  0
LINE
  8
0
 10
52.2442
 20
55.7497
 11
52.19
 21
55.7117
  0
LINE
  8
0
 10
52.19
 20
55.7117
 11
52.13
 21
55.6837
  0
LINE
  8
0
 10
52.13
 20
55.6837
 11
52.066
 21
55.6666
  0
LINE
  8
0
 10
52.066
 20
55.6666
 11
52
 21
55.6608
  0
LINE
  8
0
 10
52
 20
55.6608
 11
51.934
 21
55.6666
  0
LINE
  8
0
 10
51.934
 20
51.6666
 11
51.87
 21
51.6837
  0
LINE
  8
0
 10
51.87
 20
51.6837
 11
51.81
 21
51.7117
  0
LINE
  8
0
 10
51.81
 20
51.7117
 11
51.7557
 21
51.7497
  0
LINE
  8
0
 10
51.7557
 20
51.7497
 11
51.7089
 21
51.7965
  0
LINE
  8
0
 10
51.7089
 20
51.7965
 11
51.6709
 21
51.8508
  0
LINE
  8
0
 10
51.6709
 20
51.8508
 11
51.6429
 21
51.9108
  0
LINE
  8
0
 10
51.6429
 20
51.9108
 11
51.6258
 21
51.9748
  0
LINE
  8
0
 10
51.6258
 20
51.9748
 11
51.62
 21
52.0408
  0
LINE
  8
0
 10
51.62
 20
52.0408
 11
51.6258
 21
52.1068
  0
LINE
  8
0
 10
51.6258
 20
52.1068
 11
51.6429
 21
52.1708
  0
LINE
  8
0
 10
51.6429
 20
52.1708
 11
51.6709
 21
52.2308
  0
LINE
  8
0
 10
51.6709
 20
52.2308
 11
51.7089
 21
52.285
  0
LINE
  8
0
 10
51.7089
 20
52.285
 11
51.7557
 21
52.3319
  0
LINE
  8
0
 10
51.7557
 20
52.3319
 11
51.81
 21
52.3699
  0
LINE
  8
0
 10
51.81
 20
52.3699
 11
51.87
 21
52.3979
  0
LINE
  8
0
 10
51.87
 20
52.3979
 11
51.934
 21
52.415
  0
LINE
  8
0
 10
51.934
 20
52.415
 11
52
 21
52.4208
  0
LINE
  8
0
 10
52
 20
52.4208
 11
52.066
 21
52.415
  0
LINE
  8
0
 10
52.066
 20
52.415
 11
52.13
 21
52.3979
  0
LINE
  8
0
 10
52.13
 20
52.3979
 11
52.19
 21
52.3699
  0
LINE
  8
0
 10
52.19
 20
52.3699
 11
52.2442
 21
52.3319
  0
LINE
  8
0
 10
52.2442
 20
52.3319
 11
52.2911
 21
52.285
  0
LINE
  8
0
 10
52.2911
 20
52.285
 11
52.3291
 21
52.2308
  0
LINE
  8
0
 10
52.3291
 20
52.2308
 11
52.3571
 21
52.1708
  0
LINE
  8
0
 10
52.3571
 20
52.1708
 11
52.3742
 21
52.1068
  0
LINE
  8
0
 10
52.3742
 20
52.1068
 11
52.38
 21
52.0408
  0
LINE
  8
0
 10
52.38
 20
52.0408
 11
52.3742
 21
51.9748
  0
LINE
  8
0
 10
52.3742
 20
51.9748
 11
52.3571
 21
51.9108
  0
LINE
  8
0
 10
52.3571
 20
51.9108
 11
52.3291
 21
51.8508
  0
LINE
  8
0
 10
52.3291
 20
51.8508
 11
52.2911
 21
51.7965
  0
LINE
  8
0
 10
52.2911
 20
51.7965
 11
52.2442
 21
51.7497
  0
LINE
  8
0
 10
52.2442
 20
51.7497
 11
52.19
 21
51.7117
  0
LINE
  8
0
 10
52.19
 20
51.7117
 11
52.13
 21
51.6837
  0
LINE
  8
0
 10
52.13
 20
51.6837
 11
52.066
 21
51.6666
  0
LINE
  8
0
 10
52.066
 20
51.6666
 11
52
 21
51.6608
  0
LINE
  8
0
 10
52
 20
51.6608
 11
51.934
 21
51.6666
  0
LINE
  8
0
 10
31.5
 20
47.1884
 11
30.875
 21
47.1884
  0
LINE
  8
0
 10
30.875
 20
47.1884
 11
30.875
 21
48.1884
  0
LINE
  8
0
 10
30.875
 20
48.1884
 11
31
 21
48.1884
  0
LINE
  8
0
 10
31
 20
48.1884
 11
31
 21
49.1884
  0
LINE
  8
0
 10
31
 20
49.1884
 11
30.875
 21
49.1884
  0
LINE
  8
0
 10
30.875
 20
49.1884
 11
30.875
 21
61.2826
  0
LINE
  8
0
 10
30.875
 20
61.2826
 11
31
 21
61.2826
  0
LINE
  8
0
 10
31
 20
61.2826
 11
31
 21
62.2826
  0
LINE
  8
0
 10
31
 20
62.2826
 11
30.875
 21
62.2826
  0
LINE
  8
0
 10
30.875
 20
62.2826
 11
30.875
 21
63.2826
  0
LINE
  8
0
 10
30.875
 20
63.2826
 11
31.5
 21
63.2826
  0
LINE
  8
0
 10
31.5
 20
63.2826
 11
31.5
 21
65.2826
  0
LINE
  8
0
 10
31.5
 20
65.2826
 11
30.875
 21
65.2826
  0
LINE
  8
0
 10
30.875
 20
65.2826
 11
30.875
 21
66.2826
  0
LINE
  8
0
 10
30.875
 20
66.2826
 11
31
 21
66.2826
  0
LINE
  8
0
 10
31
 20
66.2826
 11
31
 21
67.2826
  0
LINE
  8
0
 10
31
 20
67.2826
 11
30.875
 21
67.2826
  0
LINE
  8
0
 10
30.875
 20
67.2826
 11
30.875
 21
79.3768
  0
LINE
  8
0
 10
30.875
 20
79.3768
 11
31
 21
79.3768
  0
LINE
  8
0
 10
31
 20
79.3768
 11
31
 21
80.3768
  0
LINE
  8
0
 10
31
 20
80.3768
 11
30.875
 21
80.3768
  0
LINE
  8
0
 10
30.875
 20
80.3768
 11
30.875
 21
81.3768
  0
LINE
  8
0
 10
30.875
 20
81.3768
 11
31.5
 21
81.3768
  0
LINE
  8
0
 10
31.5
 20
81.3768
 11
31.5
 21
85.3768
  0
LINE
  8
0
 10
31.5
 20
85.3768
 11
28
 21
85.3768
  0
LINE
  8
0
 10
28
 20
85.3768
 11
28
 21
43.1884
  0
LINE
  8
0
 10
28
 20
43.1884
 11
31.5
 21
43.1884
  0
LINE
  8
0
 10
31.5
 20
43.1884
 11
31.5
 21
47.1884
  0
LINE
  8
0
 10
29.4132
 20
82.8844
 11
29.329
 21
82.907
  0
LINE
  8
0
 10
29.329
 20
82.907
 11
29.25
 21
82.9438
  0
LINE
  8
0
 10
29.25
 20
82.9438
 11
29.1786
 21
82.9938
  0
LINE
  8
0
 10
29.1786
 20
82.9938
 11
29.117
 21
83.0554
  0
LINE
  8
0
 10
29.117
 20
83.0554
 11
29.067
 21
83.1268
  0
LINE
  8
0
 10
29.067
 20
83.1268
 11
29.0302
 21
83.2058
  0
LINE
  8
0
 10
29.0302
 20
83.2058
 11
29.0076
 21
83.29
  0
LINE
  8
0
 10
29.0076
 20
83.29
 11
29
 21
83.3768
  0
LINE
  8
0
 10
29
 20
83.3768
 11
29.0076
 21
83.4636
  0
LINE
  8
0
 10
29.0076
 20
83.4636
 11
29.0302
 21
83.5478
  0
LINE
  8
0
 10
29.0302
 20
83.5478
 11
29.067
 21
83.6268
  0
LINE
  8
0
 10
29.067
 20
83.6268
 11
29.117
 21
83.6982
  0
LINE
  8
0
 10
29.117
 20
83.6982
 11
29.1786
 21
83.7598
  0
LINE
  8
0
 10
29.1786
 20
83.7598
 11
29.25
 21
83.8098
  0
LINE
  8
0
 10
29.25
 20
83.8098
 11
29.329
 21
83.8466
  0
LINE
  8
0
 10
29.329
 20
83.8466
 11
29.4132
 21
83.8692
  0
LINE
  8
0
 10
29.4132
 20
83.8692
 11
29.5
 21
83.8768
  0
LINE
  8
0
 10
29.5
 20
83.8768
 11
29.5868
 21
83.8692
  0
LINE
  8
0
 10
29.5868
 20
83.8692
 11
29.671
 21
83.8466
  0
LINE
  8
0
 10
29.671
 20
83.8466
 11
29.75
 21
83.8098
  0
LINE
  8
0
 10
29.75
 20
83.8098
 11
29.8214
 21
83.7598
  0
LINE
  8
0
 10
29.8214
 20
83.7598
 11
29.883
 21
83.6982
  0
LINE
  8
0
 10
29.883
 20
83.6982
 11
29.933
 21
83.6268
  0
LINE
  8
0
 10
29.933
 20
83.6268
 11
29.9698
 21
83.5478
  0
LINE
  8
0
 10
29.9698
 20
83.5478
 11
29.9924
 21
83.4636
  0
LINE
  8
0
 10
29.9924
 20
83.4636
 11
30
 21
83.3768
  0
LINE
  8
0
 10
30
 20
83.3768
 11
29.9924
 21
83.29
  0
LINE
  8
0
 10
29.9924
 20
83.29
 11
29.9698
 21
83.2058
  0
LINE
  8
0
 10
29.9698
 20
83.2058
 11
29.933
 21
83.1268
  0
LINE
  8
0
 10
29.933
 20
83.1268
 11
29.883
 21
83.0554
  0
LINE
  8
0
 10
29.883
 20
83.0554
 11
29.8214
 21
82.9938
  0
LINE
  8
0
 10
29.8214
 20
82.9938
 11
29.75
 21
82.9438
  0
LINE
  8
0
 10
29.75
 20
82.9438
 11
29.671
 21
82.907
  0
LINE
  8
0
 10
29.671
 20
82.907
 11
29.5868
 21
82.8844
  0
LINE
  8
0
 10
29.5868
 20
82.8844
 11
29.5
 21
82.8768
  0
LINE
  8
0
 10
29.5
 20
82.8768
 11
29.4132
 21
82.8844
  0
LINE
  8
0
 10
29.4132
 20
44.696
 11
29.329
 21
44.7186
  0
LINE
  8
0
 10
29.329
 20
44.7186
 11
29.25
 21
44.7554
  0
LINE
  8
0
 10
29.25
 20
44.7554
 11
29.1786
 21
44.8054
  0
LINE
  8
0
 10
29.1786
 20
44.8054
 11
29.117
 21
44.867
  0
LINE
  8
0
 10
29.117
 20
44.867
 11
29.067
 21
44.9384
  0
LINE
  8
0
 10
29.067
 20
44.9384
 11
29.0302
 21
45.0174
  0
LINE
  8
0
 10
29.0302
 20
45.0174
 11
29.0076
 21
45.1016
  0
LINE
  8
0
 10
29.0076
 20
45.1016
 11
29
 21
45.1884
  0
LINE
  8
0
 10
29
 20
45.1884
 11
29.0076
 21
45.2752
  0
LINE
  8
0
 10
29.0076
 20
45.2752
 11
29.0302
 21
45.3594
  0
LINE
  8
0
 10
29.0302
 20
45.3594
 11
29.067
 21
45.4384
  0
LINE
  8
0
 10
29.067
 20
45.4384
 11
29.117
 21
45.5098
  0
LINE
  8
0
 10
29.117
 20
45.5098
 11
29.1786
 21
45.5714
  0
LINE
  8
0
 10
29.1786
 20
45.5714
 11
29.25
 21
45.6214
  0
LINE
  8
0
 10
29.25
 20
45.6214
 11
29.329
 21
45.6582
  0
LINE
  8
0
 10
29.329
 20
45.6582
 11
29.4132
 21
45.6808
  0
LINE
  8
0
 10
29.4132
 20
45.6808
 11
29.5
 21
45.6884
  0
LINE
  8
0
 10
29.5
 20
45.6884
 11
29.5868
 21
45.6808
  0
LINE
  8
0
 10
29.5868
 20
45.6808
 11
29.671
 21
45.6582
  0
LINE
  8
0
 10
29.671
 20
45.6582
 11
29.75
 21
45.6214
  0
LINE
  8
0
 10
29.75
 20
45.6214
 11
29.8214
 21
45.5714
  0
LINE
  8
0
 10
29.8214
 20
45.5714
 11
29.883
 21
45.5098
  0
LINE
  8
0
 10
29.883
 20
45.5098
 11
29.933
 21
45.4384
  0
LINE
  8
0
 10
29.933
 20
45.4384
 11
29.9698
 21
45.3594
  0
LINE
  8
0
 10
29.9698
 20
45.3594
 11
29.9924
 21
45.2752
  0
LINE
  8
0
 10
29.9924
 20
45.2752
 11
30
 21
45.1884
  0
LINE
  8
0
 10
30
 20
45.1884
 11
29.9924
 21
45.1016
  0
LINE
  8
0
 10
29.9924
 20
45.1016
 11
29.9698
 21
45.0174
  0
LINE
  8
0
 10
29.9698
 20
45.0174
 11
29.933
 21
44.9384
  0
LINE
  8
0
 10
29.933
 20
44.9384
 11
29.883
 21
44.867
  0
LINE
  8
0
 10
29.883
 20
44.867
 11
29.8214
 21
44.8054
  0
LINE
  8
0
 10
29.8214
 20
44.8054
 11
29.75
 21
44.7554
  0
LINE
  8
0
 10
29.75
 20
44.7554
 11
29.671
 21
44.7186
  0
LINE
  8
0
 10
29.671
 20
44.7186
 11
29.5868
 21
44.696
  0
LINE
  8
0
 10
29.5868
 20
44.696
 11
29.5
 21
44.6884
  0
LINE
  8
0
 10
29.5
 20
44.6884
 11
29.4132
 21
44.696
  0
LINE
  8
0
 10
16
 20
64.5951
 11
16.4375
 21
64.5951
  0
LINE
  8
0
 10
16.4375
 20
64.5951
 11
16.4375
 21
64.7201
  0
LINE
  8
0
 10
16.4375
 20
64.7201
 11
16.6875
 21
64.7201
  0
LINE
  8
0
 10
16.6875
 20
64.7201
 11
16.6875
 21
64.4701
  0
LINE
  8
0
 10
16.6875
 20
64.4701
 11
16.5625
 21
64.4701
  0
LINE
  8
0
 10
16.5625
 20
64.4701
 11
16.5625
 21
62.5951
  0
LINE
  8
0
 10
16.5625
 20
62.5951
 11
16.6875
 21
62.5951
  0
LINE
  8
0
 10
16.6875
 20
62.5951
 11
16.6875
 21
62.3451
  0
LINE
  8
0
 10
16.6875
 20
62.3451
 11
16.4375
 21
62.3451
  0
LINE
  8
0
 10
16.4375
 20
62.3451
 11
16.4375
 21
62.4701
  0
LINE
  8
0
 10
16.4375
 20
62.4701
 11
16
 21
62.4701
  0
LINE
  8
0
 10
16
 20
62.4701
 11
16
 21
46.4384
  0
LINE
  8
0
 10
16
 20
46.4384
 11
16.625
 21
46.4384
  0
LINE
  8
0
 10
16.625
 20
46.4384
 11
16.625
 21
46.3134
  0
LINE
  8
0
 10
16.625
 20
46.3134
 11
16.5
 21
46.3134
  0
LINE
  8
0
 10
16.5
 20
46.3134
 11
16.5
 21
45.3134
  0
LINE
  8
0
 10
16.5
 20
45.3134
 11
16.625
 21
45.3134
  0
LINE
  8
0
 10
16.625
 20
45.3134
 11
16.625
 21
43.5634
  0
LINE
  8
0
 10
16.625
 20
43.5634
 11
16.5
 21
43.5634
  0
LINE
  8
0
 10
16.5
 20
43.5634
 11
16.5
 21
43.0293
  0
LINE
  8
0
 10
16.5
 20
43.0293
 11
21.5
 21
46.4384
  0
LINE
  8
0
 10
21.5
 20
46.4384
 11
27
 21
46.4384
  0
LINE
  8
0
 10
27
 20
46.4384
 11
27
 21
80.6268
  0
LINE
  8
0
 10
27
 20
80.6268
 11
21.5
 21
80.6268
  0
LINE
  8
0
 10
21.5
 20
80.6268
 11
16.5
 21
84.0359
  0
LINE
  8
0
 10
16.5
 20
84.0359
 11
16.5
 21
83.5018
  0
LINE
  8
0
 10
16.5
 20
83.5018
 11
16.625
 21
83.5018
  0
LINE
  8
0
 10
16.625
 20
83.5018
 11
16.625
 21
81.7518
  0
LINE
  8
0
 10
16.625
 20
81.7518
 11
16.5
 21
81.7518
  0
LINE
  8
0
 10
16.5
 20
81.7518
 11
16.5
 21
80.7518
  0
LINE
  8
0
 10
16.5
 20
80.7518
 11
16.625
 21
80.7518
  0
LINE
  8
0
 10
16.625
 20
80.7518
 11
16.625
 21
80.6268
  0
LINE
  8
0
 10
16.625
 20
80.6268
 11
16
 21
80.6268
  0
LINE
  8
0
 10
16
 20
80.6268
 11
16
 21
64.5951
  0
LINE
  8
0
 10
17.9127
 20
77.6319
 11
17.8281
 21
77.6546
  0
LINE
  8
0
 10
17.8281
 20
77.6546
 11
17.7487
 21
77.6916
  0
LINE
  8
0
 10
17.7487
 20
77.6916
 11
17.677
 21
77.7419
  0
LINE
  8
0
 10
17.677
 20
77.7419
 11
17.6151
 21
77.8038
  0
LINE
  8
0
 10
17.6151
 20
77.8038
 11
17.5648
 21
77.8755
  0
LINE
  8
0
 10
17.5648
 20
77.8755
 11
17.5278
 21
77.9549
  0
LINE
  8
0
 10
17.5278
 20
77.9549
 11
17.5051
 21
78.0395
  0
LINE
  8
0
 10
17.5051
 20
78.0395
 11
17.4975
 21
78.1268
  0
LINE
  8
0
 10
17.4975
 20
78.1268
 11
17.5051
 21
78.2141
  0
LINE
  8
0
 10
17.5051
 20
78.2141
 11
17.5278
 21
78.2987
  0
LINE
  8
0
 10
17.5278
 20
78.2987
 11
17.5648
 21
78.378
  0
LINE
  8
0
 10
17.5648
 20
78.378
 11
17.6151
 21
78.4498
  0
LINE
  8
0
 10
17.6151
 20
78.4498
 11
17.677
 21
78.5117
  0
LINE
  8
0
 10
17.677
 20
78.5117
 11
17.7487
 21
78.562
  0
LINE
  8
0
 10
17.7487
 20
78.562
 11
17.8281
 21
78.599
  0
LINE
  8
0
 10
17.8281
 20
78.599
 11
17.9127
 21
78.6217
  0
LINE
  8
0
 10
17.9127
 20
78.6217
 11
18
 21
78.6293
  0
LINE
  8
0
 10
18
 20
78.6293
 11
18.0872
 21
78.6217
  0
LINE
  8
0
 10
18.0872
 20
78.6217
 11
18.1719
 21
78.599
  0
LINE
  8
0
 10
18.1719
 20
78.599
 11
18.2512
 21
78.562
  0
LINE
  8
0
 10
18.2512
 20
78.562
 11
18.323
 21
78.5117
  0
LINE
  8
0
 10
18.323
 20
78.5117
 11
18.3849
 21
78.4498
  0
LINE
  8
0
 10
18.3849
 20
78.4498
 11
18.4352
 21
78.378
  0
LINE
  8
0
 10
18.4352
 20
78.378
 11
18.4722
 21
78.2987
  0
LINE
  8
0
 10
18.4722
 20
78.2987
 11
18.4949
 21
78.2141
  0
LINE
  8
0
 10
18.4949
 20
78.2141
 11
18.5025
 21
78.1268
  0
LINE
  8
0
 10
18.5025
 20
78.1268
 11
18.4949
 21
78.0395
  0
LINE
  8
0
 10
18.4949
 20
78.0395
 11
18.4722
 21
77.9549
  0
LINE
  8
0
 10
18.4722
 20
77.9549
 11
18.4352
 21
77.8755
  0
LINE
  8
0
 10
18.4352
 20
77.8755
 11
18.3849
 21
77.8038
  0
LINE
  8
0
 10
18.3849
 20
77.8038
 11
18.323
 21
77.7419
  0
LINE
  8
0
 10
18.323
 20
77.7419
 11
18.2512
 21
77.6916
  0
LINE
  8
0
 10
18.2512
 20
77.6916
 11
18.1719
 21
77.6546
  0
LINE
  8
0
 10
18.1719
 20
77.6546
 11
18.0872
 21
77.6319
  0
LINE
  8
0
 10
18.0872
 20
77.6319
 11
18
 21
77.6243
  0
LINE
  8
0
 10
18
 20
77.6243
 11
17.9127
 21
77.6319
  0
LINE
  8
0
 10
24.9127
 20
77.6319
 11
24.8281
 21
77.6546
  0
LINE
  8
0
 10
24.8281
 20
77.6546
 11
24.7487
 21
77.6916
  0
LINE
  8
0
 10
24.7487
 20
77.6916
 11
24.677
 21
77.7419
  0
LINE
  8
0
 10
24.677
 20
77.7419
 11
24.6151
 21
77.8038
  0
LINE
  8
0
 10
24.6151
 20
77.8038
 11
24.5648
 21
77.8755
  0
LINE
  8
0
 10
24.5648
 20
77.8755
 11
24.5278
 21
77.9549
  0
LINE
  8
0
 10
24.5278
 20
77.9549
 11
24.5051
 21
78.0395
  0
LINE
  8
0
 10
24.5051
 20
78.0395
 11
24.4975
 21
78.1268
  0
LINE
  8
0
 10
24.4975
 20
78.1268
 11
24.5051
 21
78.2141
  0
LINE
  8
0
 10
24.5051
 20
78.2141
 11
24.5278
 21
78.2987
  0
LINE
  8
0
 10
24.5278
 20
78.2987
 11
24.5648
 21
78.378
  0
LINE
  8
0
 10
24.5648
 20
78.378
 11
24.6151
 21
78.4498
  0
LINE
  8
0
 10
24.6151
 20
78.4498
 11
24.677
 21
78.5117
  0
LINE
  8
0
 10
24.677
 20
78.5117
 11
24.7487
 21
78.562
  0
LINE
  8
0
 10
24.7487
 20
78.562
 11
24.8281
 21
78.599
  0
LINE
  8
0
 10
24.8281
 20
78.599
 11
24.9127
 21
78.6217
  0
LINE
  8
0
 10
24.9127
 20
78.6217
 11
25
 21
78.6293
  0
LINE
  8
0
 10
25
 20
78.6293
 11
25.0872
 21
78.6217
  0
LINE
  8
0
 10
25.0872
 20
78.6217
 11
25.1719
 21
78.599
  0
LINE
  8
0
 10
25.1719
 20
78.599
 11
25.2512
 21
78.562
  0
LINE
  8
0
 10
25.2512
 20
78.562
 11
25.323
 21
78.5117
  0
LINE
  8
0
 10
25.323
 20
78.5117
 11
25.3849
 21
78.4498
  0
LINE
  8
0
 10
25.3849
 20
78.4498
 11
25.4352
 21
78.378
  0
LINE
  8
0
 10
25.4352
 20
78.378
 11
25.4722
 21
78.2987
  0
LINE
  8
0
 10
25.4722
 20
78.2987
 11
25.4949
 21
78.2141
  0
LINE
  8
0
 10
25.4949
 20
78.2141
 11
25.5025
 21
78.1268
  0
LINE
  8
0
 10
25.5025
 20
78.1268
 11
25.4949
 21
78.0395
  0
LINE
  8
0
 10
25.4949
 20
78.0395
 11
25.4722
 21
77.9549
  0
LINE
  8
0
 10
25.4722
 20
77.9549
 11
25.4352
 21
77.8755
  0
LINE
  8
0
 10
25.4352
 20
77.8755
 11
25.3849
 21
77.8038
  0
LINE
  8
0
 10
25.3849
 20
77.8038
 11
25.323
 21
77.7419
  0
LINE
  8
0
 10
25.323
 20
77.7419
 11
25.2512
 21
77.6916
  0
LINE
  8
0
 10
25.2512
 20
77.6916
 11
25.1719
 21
77.6546
  0
LINE
  8
0
 10
25.1719
 20
77.6546
 11
25.0872
 21
77.6319
  0
LINE
  8
0
 10
25.0872
 20
77.6319
 11
25
 21
77.6243
  0
LINE
  8
0
 10
25
 20
77.6243
 11
24.9127
 21
77.6319
  0
LINE
  8
0
 10
20.9127
 20
77.6319
 11
20.8281
 21
77.6546
  0
LINE
  8
0
 10
20.8281
 20
77.6546
 11
20.7487
 21
77.6916
  0
LINE
  8
0
 10
20.7487
 20
77.6916
 11
20.677
 21
77.7419
  0
LINE
  8
0
 10
20.677
 20
77.7419
 11
20.6151
 21
77.8038
  0
LINE
  8
0
 10
20.6151
 20
77.8038
 11
20.5648
 21
77.8755
  0
LINE
  8
0
 10
20.5648
 20
77.8755
 11
20.5278
 21
77.9549
  0
LINE
  8
0
 10
20.5278
 20
77.9549
 11
20.5051
 21
78.0395
  0
LINE
  8
0
 10
20.5051
 20
78.0395
 11
20.4975
 21
78.1268
  0
LINE
  8
0
 10
20.4975
 20
78.1268
 11
20.5051
 21
78.2141
  0
LINE
  8
0
 10
20.5051
 20
78.2141
 11
20.5278
 21
78.2987
  0
LINE
  8
0
 10
20.5278
 20
78.2987
 11
20.5648
 21
78.378
  0
LINE
  8
0
 10
20.5648
 20
78.378
 11
20.6151
 21
78.4498
  0
LINE
  8
0
 10
20.6151
 20
78.4498
 11
20.677
 21
78.5117
  0
LINE
  8
0
 10
20.677
 20
78.5117
 11
20.7487
 21
78.562
  0
LINE
  8
0
 10
20.7487
 20
78.562
 11
20.8281
 21
78.599
  0
LINE
  8
0
 10
20.8281
 20
78.599
 11
20.9127
 21
78.6217
  0
LINE
  8
0
 10
20.9127
 20
78.6217
 11
21
 21
78.6293
  0
LINE
  8
0
 10
21
 20
78.6293
 11
21.0872
 21
78.6217
  0
LINE
  8
0
 10
21.0872
 20
78.6217
 11
21.1719
 21
78.599
  0
LINE
  8
0
 10
21.1719
 20
78.599
 11
21.2512
 21
78.562
  0
LINE
  8
0
 10
21.2512
 20
78.562
 11
21.323
 21
78.5117
  0
LINE
  8
0
 10
21.323
 20
78.5117
 11
21.3849
 21
78.4498
  0
LINE
  8
0
 10
21.3849
 20
78.4498
 11
21.4352
 21
78.378
  0
LINE
  8
0
 10
21.4352
 20
78.378
 11
21.4722
 21
78.2987
  0
LINE
  8
0
 10
21.4722
 20
78.2987
 11
21.4949
 21
78.2141
  0
LINE
  8
0
 10
21.4949
 20
78.2141
 11
21.5025
 21
78.1268
  0
LINE
  8
0
 10
21.5025
 20
78.1268
 11
21.4949
 21
78.0395
  0
LINE
  8
0
 10
21.4949
 20
78.0395
 11
21.4722
 21
77.9549
  0
LINE
  8
0
 10
21.4722
 20
77.9549
 11
21.4352
 21
77.8755
  0
LINE
  8
0
 10
21.4352
 20
77.8755
 11
21.3849
 21
77.8038
  0
LINE
  8
0
 10
21.3849
 20
77.8038
 11
21.323
 21
77.7419
  0
LINE
  8
0
 10
21.323
 20
77.7419
 11
21.2512
 21
77.6916
  0
LINE
  8
0
 10
21.2512
 20
77.6916
 11
21.1719
 21
77.6546
  0
LINE
  8
0
 10
21.1719
 20
77.6546
 11
21.0872
 21
77.6319
  0
LINE
  8
0
 10
21.0872
 20
77.6319
 11
21
 21
77.6243
  0
LINE
  8
0
 10
21
 20
77.6243
 11
20.9127
 21
77.6319
  0
LINE
  8
0
 10
19.0625
 20
75.5013
 11
19.0625
 21
75.7513
  0
LINE
  8
0
 10
19.0625
 20
75.7513
 11
19.1875
 21
75.7513
  0
LINE
  8
0
 10
19.1875
 20
75.7513
 11
19.1875
 21
76.6263
  0
LINE
  8
0
 10
19.1875
 20
76.6263
 11
19.0625
 21
76.6263
  0
LINE
  8
0
 10
19.0625
 20
76.6263
 11
19.0625
 21
76.8763
  0
LINE
  8
0
 10
19.0625
 20
76.8763
 11
19.3125
 21
76.8763
  0
LINE
  8
0
 10
19.3125
 20
76.8763
 11
19.3125
 21
76.7513
  0
LINE
  8
0
 10
19.3125
 20
76.7513
 11
19.6875
 21
76.7513
  0
LINE
  8
0
 10
19.6875
 20
76.7513
 11
19.6875
 21
76.8763
  0
LINE
  8
0
 10
19.6875
 20
76.8763
 11
19.9375
 21
76.8763
  0
LINE
  8
0
 10
19.9375
 20
76.8763
 11
19.9375
 21
76.6263
  0
LINE
  8
0
 10
19.9375
 20
76.6263
 11
19.8125
 21
76.6263
  0
LINE
  8
0
 10
19.8125
 20
76.6263
 11
19.8125
 21
75.7513
  0
LINE
  8
0
 10
19.8125
 20
75.7513
 11
19.9375
 21
75.7513
  0
LINE
  8
0
 10
19.9375
 20
75.7513
 11
19.9375
 21
75.5013
  0
LINE
  8
0
 10
19.9375
 20
75.5013
 11
19.6875
 21
75.5013
  0
LINE
  8
0
 10
19.6875
 20
75.5013
 11
19.6875
 21
75.6263
  0
LINE
  8
0
 10
19.6875
 20
75.6263
 11
19.3125
 21
75.6263
  0
LINE
  8
0
 10
19.3125
 20
75.6263
 11
19.3125
 21
75.5013
  0
LINE
  8
0
 10
19.3125
 20
75.5013
 11
19.0625
 21
75.5013
  0
LINE
  8
0
 10
19.0625
 20
50.1888
 11
19.0625
 21
50.4388
  0
LINE
  8
0
 10
19.0625
 20
50.4388
 11
19.1875
 21
50.4388
  0
LINE
  8
0
 10
19.1875
 20
50.4388
 11
19.1875
 21
51.3138
  0
LINE
  8
0
 10
19.1875
 20
51.3138
 11
19.0625
 21
51.3138
  0
LINE
  8
0
 10
19.0625
 20
51.3138
 11
19.0625
 21
51.5638
  0
LINE
  8
0
 10
19.0625
 20
51.5638
 11
19.3125
 21
51.5638
  0
LINE
  8
0
 10
19.3125
 20
51.5638
 11
19.3125
 21
51.4388
  0
LINE
  8
0
 10
19.3125
 20
51.4388
 11
19.6875
 21
51.4388
  0
LINE
  8
0
 10
19.6875
 20
51.4388
 11
19.6875
 21
51.5638
  0
LINE
  8
0
 10
19.6875
 20
51.5638
 11
19.9375
 21
51.5638
  0
LINE
  8
0
 10
19.9375
 20
51.5638
 11
19.9375
 21
51.3138
  0
LINE
  8
0
 10
19.9375
 20
51.3138
 11
19.8125
 21
51.3138
  0
LINE
  8
0
 10
19.8125
 20
51.3138
 11
19.8125
 21
50.4388
  0
LINE
  8
0
 10
19.8125
 20
50.4388
 11
19.9375
 21
50.4388
  0
LINE
  8
0
 10
19.9375
 20
50.4388
 11
19.9375
 21
50.1888
  0
LINE
  8
0
 10
19.9375
 20
50.1888
 11
19.6875
 21
50.1888
  0
LINE
  8
0
 10
19.6875
 20
50.1888
 11
19.6875
 21
50.3138
  0
LINE
  8
0
 10
19.6875
 20
50.3138
 11
19.3125
 21
50.3138
  0
LINE
  8
0
 10
19.3125
 20
50.3138
 11
19.3125
 21
50.1888
  0
LINE
  8
0
 10
19.3125
 20
50.1888
 11
19.0625
 21
50.1888
  0
LINE
  8
0
 10
17.9127
 20
48.4435
 11
17.8281
 21
48.4662
  0
LINE
  8
0
 10
17.8281
 20
48.4662
 11
17.7487
 21
48.5032
  0
LINE
  8
0
 10
17.7487
 20
48.5032
 11
17.677
 21
48.5535
  0
LINE
  8
0
 10
17.677
 20
48.5535
 11
17.6151
 21
48.6154
  0
LINE
  8
0
 10
17.6151
 20
48.6154
 11
17.5648
 21
48.6871
  0
LINE
  8
0
 10
17.5648
 20
48.6871
 11
17.5278
 21
48.7665
  0
LINE
  8
0
 10
17.5278
 20
48.7665
 11
17.5051
 21
48.8511
  0
LINE
  8
0
 10
17.5051
 20
48.8511
 11
17.4975
 21
48.9384
  0
LINE
  8
0
 10
17.4975
 20
48.9384
 11
17.5051
 21
49.0257
  0
LINE
  8
0
 10
17.5051
 20
49.0257
 11
17.5278
 21
49.1103
  0
LINE
  8
0
 10
17.5278
 20
49.1103
 11
17.5648
 21
49.1896
  0
LINE
  8
0
 10
17.5648
 20
49.1896
 11
17.6151
 21
49.2614
  0
LINE
  8
0
 10
17.6151
 20
49.2614
 11
17.677
 21
49.3233
  0
LINE
  8
0
 10
17.677
 20
49.3233
 11
17.7487
 21
49.3736
  0
LINE
  8
0
 10
17.7487
 20
49.3736
 11
17.8281
 21
49.4106
  0
LINE
  8
0
 10
17.8281
 20
49.4106
 11
17.9127
 21
49.4333
  0
LINE
  8
0
 10
17.9127
 20
49.4333
 11
18
 21
49.4409
  0
LINE
  8
0
 10
18
 20
49.4409
 11
18.0872
 21
49.4333
  0
LINE
  8
0
 10
18.0872
 20
49.4333
 11
18.1719
 21
49.4106
  0
LINE
  8
0
 10
18.1719
 20
49.4106
 11
18.2512
 21
49.3736
  0
LINE
  8
0
 10
18.2512
 20
49.3736
 11
18.323
 21
49.3233
  0
LINE
  8
0
 10
18.323
 20
49.3233
 11
18.3849
 21
49.2614
  0
LINE
  8
0
 10
18.3849
 20
49.2614
 11
18.4352
 21
49.1896
  0
LINE
  8
0
 10
18.4352
 20
49.1896
 11
18.4722
 21
49.1103
  0
LINE
  8
0
 10
18.4722
 20
49.1103
 11
18.4949
 21
49.0257
  0
LINE
  8
0
 10
18.4949
 20
49.0257
 11
18.5025
 21
48.9384
  0
LINE
  8
0
 10
18.5025
 20
48.9384
 11
18.4949
 21
48.8511
  0
LINE
  8
0
 10
18.4949
 20
48.8511
 11
18.4722
 21
48.7665
  0
LINE
  8
0
 10
18.4722
 20
48.7665
 11
18.4352
 21
48.6871
  0
LINE
  8
0
 10
18.4352
 20
48.6871
 11
18.3849
 21
48.6154
  0
LINE
  8
0
 10
18.3849
 20
48.6154
 11
18.323
 21
48.5535
  0
LINE
  8
0
 10
18.323
 20
48.5535
 11
18.2512
 21
48.5032
  0
LINE
  8
0
 10
18.2512
 20
48.5032
 11
18.1719
 21
48.4662
  0
LINE
  8
0
 10
18.1719
 20
48.4662
 11
18.0872
 21
48.4435
  0
LINE
  8
0
 10
18.0872
 20
48.4435
 11
18
 21
48.4359
  0
LINE
  8
0
 10
18
 20
48.4359
 11
17.9127
 21
48.4435
  0
LINE
  8
0
 10
24.9127
 20
48.4435
 11
24.8281
 21
48.4662
  0
LINE
  8
0
 10
24.8281
 20
48.4662
 11
24.7487
 21
48.5032
  0
LINE
  8
0
 10
24.7487
 20
48.5032
 11
24.677
 21
48.5535
  0
LINE
  8
0
 10
24.677
 20
48.5535
 11
24.6151
 21
48.6154
  0
LINE
  8
0
 10
24.6151
 20
48.6154
 11
24.5648
 21
48.6871
  0
LINE
  8
0
 10
24.5648
 20
48.6871
 11
24.5278
 21
48.7665
  0
LINE
  8
0
 10
24.5278
 20
48.7665
 11
24.5051
 21
48.8511
  0
LINE
  8
0
 10
24.5051
 20
48.8511
 11
24.4975
 21
48.9384
  0
LINE
  8
0
 10
24.4975
 20
48.9384
 11
24.5051
 21
49.0257
  0
LINE
  8
0
 10
24.5051
 20
49.0257
 11
24.5278
 21
49.1103
  0
LINE
  8
0
 10
24.5278
 20
49.1103
 11
24.5648
 21
49.1896
  0
LINE
  8
0
 10
24.5648
 20
49.1896
 11
24.6151
 21
49.2614
  0
LINE
  8
0
 10
24.6151
 20
49.2614
 11
24.677
 21
49.3233
  0
LINE
  8
0
 10
24.677
 20
49.3233
 11
24.7487
 21
49.3736
  0
LINE
  8
0
 10
24.7487
 20
49.3736
 11
24.8281
 21
49.4106
  0
LINE
  8
0
 10
24.8281
 20
49.4106
 11
24.9127
 21
49.4333
  0
LINE
  8
0
 10
24.9127
 20
49.4333
 11
25
 21
49.4409
  0
LINE
  8
0
 10
25
 20
49.4409
 11
25.0872
 21
49.4333
  0
LINE
  8
0
 10
25.0872
 20
49.4333
 11
25.1719
 21
49.4106
  0
LINE
  8
0
 10
25.1719
 20
49.4106
 11
25.2512
 21
49.3736
  0
LINE
  8
0
 10
25.2512
 20
49.3736
 11
25.323
 21
49.3233
  0
LINE
  8
0
 10
25.323
 20
49.3233
 11
25.3849
 21
49.2614
  0
LINE
  8
0
 10
25.3849
 20
49.2614
 11
25.4352
 21
49.1896
  0
LINE
  8
0
 10
25.4352
 20
49.1896
 11
25.4722
 21
49.1103
  0
LINE
  8
0
 10
25.4722
 20
49.1103
 11
25.4949
 21
49.0257
  0
LINE
  8
0
 10
25.4949
 20
49.0257
 11
25.5025
 21
48.9384
  0
LINE
  8
0
 10
25.5025
 20
48.9384
 11
25.4949
 21
48.8511
  0
LINE
  8
0
 10
25.4949
 20
48.8511
 11
25.4722
 21
48.7665
  0
LINE
  8
0
 10
25.4722
 20
48.7665
 11
25.4352
 21
48.6871
  0
LINE
  8
0
 10
25.4352
 20
48.6871
 11
25.3849
 21
48.6154
  0
LINE
  8
0
 10
25.3849
 20
48.6154
 11
25.323
 21
48.5535
  0
LINE
  8
0
 10
25.323
 20
48.5535
 11
25.2512
 21
48.5032
  0
LINE
  8
0
 10
25.2512
 20
48.5032
 11
25.1719
 21
48.4662
  0
LINE
  8
0
 10
25.1719
 20
48.4662
 11
25.0872
 21
48.4435
  0
LINE
  8
0
 10
25.0872
 20
48.4435
 11
25
 21
48.4359
  0
LINE
  8
0
 10
25
 20
48.4359
 11
24.9127
 21
48.4435
  0
LINE
  8
0
 10
20.9127
 20
48.4435
 11
20.8281
 21
48.4662
  0
LINE
  8
0
 10
20.8281
 20
48.4662
 11
20.7487
 21
48.5032
  0
LINE
  8
0
 10
20.7487
 20
48.5032
 11
20.677
 21
48.5535
  0
LINE
  8
0
 10
20.677
 20
48.5535
 11
20.6151
 21
48.6154
  0
LINE
  8
0
 10
20.6151
 20
48.6154
 11
20.5648
 21
48.6871
  0
LINE
  8
0
 10
20.5648
 20
48.6871
 11
20.5278
 21
48.7665
  0
LINE
  8
0
 10
20.5278
 20
48.7665
 11
20.5051
 21
48.8511
  0
LINE
  8
0
 10
20.5051
 20
48.8511
 11
20.4975
 21
48.9384
  0
LINE
  8
0
 10
20.4975
 20
48.9384
 11
20.5051
 21
49.0257
  0
LINE
  8
0
 10
20.5051
 20
49.0257
 11
20.5278
 21
49.1103
  0
LINE
  8
0
 10
20.5278
 20
49.1103
 11
20.5648
 21
49.1896
  0
LINE
  8
0
 10
20.5648
 20
49.1896
 11
20.6151
 21
49.2614
  0
LINE
  8
0
 10
20.6151
 20
49.2614
 11
20.677
 21
49.3233
  0
LINE
  8
0
 10
20.677
 20
49.3233
 11
20.7487
 21
49.3736
  0
LINE
  8
0
 10
20.7487
 20
49.3736
 11
20.8281
 21
49.4106
  0
LINE
  8
0
 10
20.8281
 20
49.4106
 11
20.9127
 21
49.4333
  0
LINE
  8
0
 10
20.9127
 20
49.4333
 11
21
 21
49.4409
  0
LINE
  8
0
 10
21
 20
49.4409
 11
21.0872
 21
49.4333
  0
LINE
  8
0
 10
21.0872
 20
49.4333
 11
21.1719
 21
49.4106
  0
LINE
  8
0
 10
21.1719
 20
49.4106
 11
21.2512
 21
49.3736
  0
LINE
  8
0
 10
21.2512
 20
49.3736
 11
21.323
 21
49.3233
  0
LINE
  8
0
 10
21.323
 20
49.3233
 11
21.3849
 21
49.2614
  0
LINE
  8
0
 10
21.3849
 20
49.2614
 11
21.4352
 21
49.1896
  0
LINE
  8
0
 10
21.4352
 20
49.1896
 11
21.4722
 21
49.1103
  0
LINE
  8
0
 10
21.4722
 20
49.1103
 11
21.4949
 21
49.0257
  0
LINE
  8
0
 10
21.4949
 20
49.0257
 11
21.5025
 21
48.9384
  0
LINE
  8
0
 10
21.5025
 20
48.9384
 11
21.4949
 21
48.8511
  0
LINE
  8
0
 10
21.4949
 20
48.8511
 11
21.4722
 21
48.7665
  0
LINE
  8
0
 10
21.4722
 20
48.7665
 11
21.4352
 21
48.6871
  0
LINE
  8
0
 10
21.4352
 20
48.6871
 11
21.3849
 21
48.6154
  0
LINE
  8
0
 10
21.3849
 20
48.6154
 11
21.323
 21
48.5535
  0
LINE
  8
0
 10
21.323
 20
48.5535
 11
21.2512
 21
48.5032
  0
LINE
  8
0
 10
21.2512
 20
48.5032
 11
21.1719
 21
48.4662
  0
LINE
  8
0
 10
21.1719
 20
48.4662
 11
21.0872
 21
48.4435
  0
LINE
  8
0
 10
21.0872
 20
48.4435
 11
21
 21
48.4359
  0
LINE
  8
0
 10
21
 20
48.4359
 11
20.9127
 21
48.4435
  0
LINE
  8
0
 10
5.4375
 20
36.1259
 11
5.3125
 21
36.1259
  0
LINE
  8
0
 10
5.3125
 20
36.1259
 11
5.3125
 21
36.3759
  0
LINE
  8
0
 10
5.3125
 20
36.3759
 11
5.5625
 21
36.3759
  0
LINE
  8
0
 10
5.5625
 20
36.3759
 11
5.5625
 21
36.2509
  0
LINE
  8
0
 10
5.5625
 20
36.2509
 11
6
 21
36.2509
  0
LINE
  8
0
 10
6
 20
36.2509
 11
6
 21
51.2201
  0
LINE
  8
0
 10
6
 20
51.2201
 11
5.5625
 21
51.2201
  0
LINE
  8
0
 10
5.5625
 20
51.2201
 11
5.5625
 21
51.0951
  0
LINE
  8
0
 10
5.5625
 20
51.0951
 11
5.3125
 21
51.0951
  0
LINE
  8
0
 10
5.3125
 20
51.0951
 11
5.3125
 21
51.3451
  0
LINE
  8
0
 10
5.3125
 20
51.3451
 11
5.4375
 21
51.3451
  0
LINE
  8
0
 10
5.4375
 20
51.3451
 11
5.4375
 21
53.2201
  0
LINE
  8
0
 10
5.4375
 20
53.2201
 11
5.3125
 21
53.2201
  0
LINE
  8
0
 10
5.3125
 20
53.2201
 11
5.3125
 21
53.4701
  0
LINE
  8
0
 10
5.3125
 20
53.4701
 11
5.5625
 21
53.4701
  0
LINE
  8
0
 10
5.5625
 20
53.4701
 11
5.5625
 21
53.3451
  0
LINE
  8
0
 10
5.5625
 20
53.3451
 11
6
 21
53.3451
  0
LINE
  8
0
 10
6
 20
53.3451
 11
6
 21
68.3143
  0
LINE
  8
0
 10
6
 20
68.3143
 11
5.5625
 21
68.3143
  0
LINE
  8
0
 10
5.5625
 20
68.3143
 11
5.5625
 21
68.1893
  0
LINE
  8
0
 10
5.5625
 20
68.1893
 11
5.3125
 21
68.1893
  0
LINE
  8
0
 10
5.3125
 20
68.1893
 11
5.3125
 21
68.4393
  0
LINE
  8
0
 10
5.3125
 20
68.4393
 11
5.4375
 21
68.4393
  0
LINE
  8
0
 10
5.4375
 20
68.4393
 11
5.4375
 21
69.3768
  0
LINE
  8
0
 10
5.4375
 20
69.3768
 11
0.25
 21
69.3768
  0
LINE
  8
0
 10
0.25
 20
69.3768
 11
0.25
 21
68.9768
  0
LINE
  8
0
 10
0.25
 20
68.9768
 11
0
 21
68.9768
  0
LINE
  8
0
 10
0
 20
68.9768
 11
0
 21
68.0393
  0
LINE
  8
0
 10
0
 20
68.0393
 11
0.4375
 21
68.0393
  0
LINE
  8
0
 10
0.4375
 20
68.0393
 11
0.4375
 21
68.1643
  0
LINE
  8
0
 10
0.4375
 20
68.1643
 11
0.6875
 21
68.1643
  0
LINE
  8
0
 10
0.6875
 20
68.1643
 11
0.6875
 21
67.9143
  0
LINE
  8
0
 10
0.6875
 20
67.9143
 11
0.5625
 21
67.9143
  0
LINE
  8
0
 10
0.5625
 20
67.9143
 11
0.5625
 21
67.0393
  0
LINE
  8
0
 10
0.5625
 20
67.0393
 11
0.6875
 21
67.0393
  0
LINE
  8
0
 10
0.6875
 20
67.0393
 11
0.6875
 21
66.7893
  0
LINE
  8
0
 10
0.6875
 20
66.7893
 11
0.4375
 21
66.7893
  0
LINE
  8
0
 10
0.4375
 20
66.7893
 11
0.4375
 21
66.9143
  0
LINE
  8
0
 10
0.4375
 20
66.9143
 11
0
 21
66.9143
  0
LINE
  8
0
 10
0
 20
66.9143
 11
0
 21
37.6509
  0
LINE
  8
0
 10
0
 20
37.6509
 11
0.4375
 21
37.6509
  0
LINE
  8
0
 10
0.4375
 20
37.6509
 11
0.4375
 21
37.7759
  0
LINE
  8
0
 10
0.4375
 20
37.7759
 11
0.6875
 21
37.7759
  0
LINE
  8
0
 10
0.6875
 20
37.7759
 11
0.6875
 21
37.5259
  0
LINE
  8
0
 10
0.6875
 20
37.5259
 11
0.5625
 21
37.5259
  0
LINE
  8
0
 10
0.5625
 20
37.5259
 11
0.5625
 21
36.6509
  0
LINE
  8
0
 10
0.5625
 20
36.6509
 11
0.6875
 21
36.6509
  0
LINE
  8
0
 10
0.6875
 20
36.6509
 11
0.6875
 21
36.4009
  0
LINE
  8
0
 10
0.6875
 20
36.4009
 11
0.4375
 21
36.4009
  0
LINE
  8
0
 10
0.4375
 20
36.4009
 11
0.4375
 21
36.5259
  0
LINE
  8
0
 10
0.4375
 20
36.5259
 11
0
 21
36.5259
  0
LINE
  8
0
 10
0
 20
36.5259
 11
0
 21
35.5884
  0
LINE
  8
0
 10
0
 20
35.5884
 11
0.25
 21
35.5884
  0
LINE
  8
0
 10
0.25
 20
35.5884
 11
0.25
 21
35.1884
  0
LINE
  8
0
 10
0.25
 20
35.1884
 11
5.4375
 21
35.1884
  0
LINE
  8
0
 10
5.4375
 20
35.1884
 11
5.4375
 21
36.1259
  0
LINE
  8
0
 10
4.43488
 20
66.5075
 11
4.37173
 21
66.5244
  0
LINE
  8
0
 10
4.37173
 20
66.5244
 11
4.3125
 21
66.552
  0
LINE
  8
0
 10
4.3125
 20
66.552
 11
4.25894
 21
66.5895
  0
LINE
  8
0
 10
4.25894
 20
66.5895
 11
4.21272
 21
66.6357
  0
LINE
  8
0
 10
4.21272
 20
66.6357
 11
4.17523
 21
66.6893
  0
LINE
  8
0
 10
4.17523
 20
66.6893
 11
4.14761
 21
66.7485
  0
LINE
  8
0
 10
4.14761
 20
66.7485
 11
4.13069
 21
66.8117
  0
LINE
  8
0
 10
4.13069
 20
66.8117
 11
4.125
 21
66.8768
  0
LINE
  8
0
 10
4.125
 20
66.8768
 11
4.13069
 21
66.9419
  0
LINE
  8
0
 10
4.13069
 20
66.9419
 11
4.14761
 21
67.0051
  0
LINE
  8
0
 10
4.14761
 20
67.0051
 11
4.17523
 21
67.0643
  0
LINE
  8
0
 10
4.17523
 20
67.0643
 11
4.21272
 21
67.1178
  0
LINE
  8
0
 10
4.21272
 20
67.1178
 11
4.25894
 21
67.1641
  0
LINE
  8
0
 10
4.25894
 20
67.1641
 11
4.3125
 21
67.2016
  0
LINE
  8
0
 10
4.3125
 20
67.2016
 11
4.37173
 21
67.2292
  0
LINE
  8
0
 10
4.37173
 20
67.2292
 11
4.43488
 21
67.2461
  0
LINE
  8
0
 10
4.43488
 20
67.2461
 11
4.5
 21
67.2518
  0
LINE
  8
0
 10
4.5
 20
67.2518
 11
4.56511
 21
67.2461
  0
LINE
  8
0
 10
4.56511
 20
67.2461
 11
4.62825
 21
67.2292
  0
LINE
  8
0
 10
4.62825
 20
67.2292
 11
4.6875
 21
67.2016
  0
LINE
  8
0
 10
4.6875
 20
67.2016
 11
4.74104
 21
67.1641
  0
LINE
  8
0
 10
4.74104
 20
67.1641
 11
4.78726
 21
67.1178
  0
LINE
  8
0
 10
4.78726
 20
67.1178
 11
4.82475
 21
67.0643
  0
LINE
  8
0
 10
4.82475
 20
67.0643
 11
4.85237
 21
67.0051
  0
LINE
  8
0
 10
4.85237
 20
67.0051
 11
4.86929
 21
66.9419
  0
LINE
  8
0
 10
4.86929
 20
66.9419
 11
4.875
 21
66.8768
  0
LINE
  8
0
 10
4.875
 20
66.8768
 11
4.86929
 21
66.8117
  0
LINE
  8
0
 10
4.86929
 20
66.8117
 11
4.85237
 21
66.7485
  0
LINE
  8
0
 10
4.85237
 20
66.7485
 11
4.82475
 21
66.6893
  0
LINE
  8
0
 10
4.82475
 20
66.6893
 11
4.78726
 21
66.6357
  0
LINE
  8
0
 10
4.78726
 20
66.6357
 11
4.74104
 21
66.5895
  0
LINE
  8
0
 10
4.74104
 20
66.5895
 11
4.6875
 21
66.552
  0
LINE
  8
0
 10
4.6875
 20
66.552
 11
4.62825
 21
66.5244
  0
LINE
  8
0
 10
4.62825
 20
66.5244
 11
4.56511
 21
66.5075
  0
LINE
  8
0
 10
4.56511
 20
66.5075
 11
4.5
 21
66.5018
  0
LINE
  8
0
 10
4.5
 20
66.5018
 11
4.43488
 21
66.5075
  0
LINE
  8
0
 10
1.43488
 20
66.5075
 11
1.37173
 21
66.5244
  0
LINE
  8
0
 10
1.37173
 20
66.5244
 11
1.3125
 21
66.552
  0
LINE
  8
0
 10
1.3125
 20
66.552
 11
1.25894
 21
66.5895
  0
LINE
  8
0
 10
1.25894
 20
66.5895
 11
1.21272
 21
66.6357
  0
LINE
  8
0
 10
1.21272
 20
66.6357
 11
1.17523
 21
66.6893
  0
LINE
  8
0
 10
1.17523
 20
66.6893
 11
1.14761
 21
66.7485
  0
LINE
  8
0
 10
1.14761
 20
66.7485
 11
1.13069
 21
66.8117
  0
LINE
  8
0
 10
1.13069
 20
66.8117
 11
1.125
 21
66.8768
  0
LINE
  8
0
 10
1.125
 20
66.8768
 11
1.13069
 21
66.9419
  0
LINE
  8
0
 10
1.13069
 20
66.9419
 11
1.14761
 21
67.0051
  0
LINE
  8
0
 10
1.14761
 20
67.0051
 11
1.17523
 21
67.0643
  0
LINE
  8
0
 10
1.17523
 20
67.0643
 11
1.21272
 21
67.1178
  0
LINE
  8
0
 10
1.21272
 20
67.1178
 11
1.25894
 21
67.1641
  0
LINE
  8
0
 10
1.25894
 20
67.1641
 11
1.3125
 21
67.2016
  0
LINE
  8
0
 10
1.3125
 20
67.2016
 11
1.37173
 21
67.2292
  0
LINE
  8
0
 10
1.37173
 20
67.2292
 11
1.43488
 21
67.2461
  0
LINE
  8
0
 10
1.43488
 20
67.2461
 11
1.5
 21
67.2518
  0
LINE
  8
0
 10
1.5
 20
67.2518
 11
1.56511
 21
67.2461
  0
LINE
  8
0
 10
1.56511
 20
67.2461
 11
1.62825
 21
67.2292
  0
LINE
  8
0
 10
1.62825
 20
67.2292
 11
1.6875
 21
67.2016
  0
LINE
  8
0
 10
1.6875
 20
67.2016
 11
1.74104
 21
67.1641
  0
LINE
  8
0
 10
1.74104
 20
67.1641
 11
1.78726
 21
67.1178
  0
LINE
  8
0
 10
1.78726
 20
67.1178
 11
1.82475
 21
67.0643
  0
LINE
  8
0
 10
1.82475
 20
67.0643
 11
1.85237
 21
67.0051
  0
LINE
  8
0
 10
1.85237
 20
67.0051
 11
1.86929
 21
66.9419
  0
LINE
  8
0
 10
1.86929
 20
66.9419
 11
1.875
 21
66.8768
  0
LINE
  8
0
 10
1.875
 20
66.8768
 11
1.86929
 21
66.8117
  0
LINE
  8
0
 10
1.86929
 20
66.8117
 11
1.85237
 21
66.7485
  0
LINE
  8
0
 10
1.85237
 20
66.7485
 11
1.82475
 21
66.6893
  0
LINE
  8
0
 10
1.82475
 20
66.6893
 11
1.78726
 21
66.6357
  0
LINE
  8
0
 10
1.78726
 20
66.6357
 11
1.74104
 21
66.5895
  0
LINE
  8
0
 10
1.74104
 20
66.5895
 11
1.6875
 21
66.552
  0
LINE
  8
0
 10
1.6875
 20
66.552
 11
1.62825
 21
66.5244
  0
LINE
  8
0
 10
1.62825
 20
66.5244
 11
1.56511
 21
66.5075
  0
LINE
  8
0
 10
1.56511
 20
66.5075
 11
1.5
 21
66.5018
  0
LINE
  8
0
 10
1.5
 20
66.5018
 11
1.43488
 21
66.5075
  0
LINE
  8
0
 10
1.4958
 20
63.1859
 11
1.39478
 21
63.213
  0
LINE
  8
0
 10
1.39478
 20
63.213
 11
1.29999
 21
63.2572
  0
LINE
  8
0
 10
1.29999
 20
63.2572
 11
1.21432
 21
63.3172
  0
LINE
  8
0
 10
1.21432
 20
63.3172
 11
1.14037
 21
63.3911
  0
LINE
  8
0
 10
1.14037
 20
63.3911
 11
1.08038
 21
63.4768
  0
LINE
  8
0
 10
1.08038
 20
63.4768
 11
1.03618
 21
63.5716
  0
LINE
  8
0
 10
1.03618
 20
63.5716
 11
1.00911
 21
63.6726
  0
LINE
  8
0
 10
1.00911
 20
63.6726
 11
1
 21
63.7768
  0
LINE
  8
0
 10
1
 20
63.7768
 11
1.00911
 21
63.881
  0
LINE
  8
0
 10
1.00911
 20
63.881
 11
1.03618
 21
63.982
  0
LINE
  8
0
 10
1.03618
 20
63.982
 11
1.08038
 21
64.0768
  0
LINE
  8
0
 10
1.08038
 20
64.0768
 11
1.14037
 21
64.1625
  0
LINE
  8
0
 10
1.14037
 20
64.1625
 11
1.21432
 21
64.2364
  0
LINE
  8
0
 10
1.21432
 20
64.2364
 11
1.29999
 21
64.2964
  0
LINE
  8
0
 10
1.29999
 20
64.2964
 11
1.39478
 21
64.3406
  0
LINE
  8
0
 10
1.39478
 20
64.3406
 11
1.4958
 21
64.3677
  0
LINE
  8
0
 10
1.4958
 20
64.3677
 11
1.59999
 21
64.3768
  0
LINE
  8
0
 10
1.59999
 20
64.3768
 11
1.70418
 21
64.3677
  0
LINE
  8
0
 10
1.70418
 20
64.3677
 11
1.80521
 21
64.3406
  0
LINE
  8
0
 10
1.80521
 20
64.3406
 11
1.89999
 21
64.2964
  0
LINE
  8
0
 10
1.89999
 20
64.2964
 11
1.98567
 21
64.2364
  0
LINE
  8
0
 10
1.98567
 20
64.2364
 11
2.05962
 21
64.1625
  0
LINE
  8
0
 10
2.05962
 20
64.1625
 11
2.11961
 21
64.0768
  0
LINE
  8
0
 10
2.11961
 20
64.0768
 11
2.1638
 21
63.982
  0
LINE
  8
0
 10
2.1638
 20
63.982
 11
2.19087
 21
63.881
  0
LINE
  8
0
 10
2.19087
 20
63.881
 11
2.2
 21
63.7768
  0
LINE
  8
0
 10
2.2
 20
63.7768
 11
2.19087
 21
63.6726
  0
LINE
  8
0
 10
2.19087
 20
63.6726
 11
2.1638
 21
63.5716
  0
LINE
  8
0
 10
2.1638
 20
63.5716
 11
2.11961
 21
63.4768
  0
LINE
  8
0
 10
2.11961
 20
63.4768
 11
2.05962
 21
63.3911
  0
LINE
  8
0
 10
2.05962
 20
63.3911
 11
1.98567
 21
63.3172
  0
LINE
  8
0
 10
1.98567
 20
63.3172
 11
1.89999
 21
63.2572
  0
LINE
  8
0
 10
1.89999
 20
63.2572
 11
1.80521
 21
63.213
  0
LINE
  8
0
 10
1.80521
 20
63.213
 11
1.70418
 21
63.1859
  0
LINE
  8
0
 10
1.70418
 20
63.1859
 11
1.59999
 21
63.1768
  0
LINE
  8
0
 10
1.59999
 20
63.1768
 11
1.4958
 21
63.1859
  0
LINE
  8
0
 10
1.4958
 20
40.1975
 11
1.39478
 21
40.2246
  0
LINE
  8
0
 10
1.39478
 20
40.2246
 11
1.29999
 21
40.2688
  0
LINE
  8
0
 10
1.29999
 20
40.2688
 11
1.21432
 21
40.3288
  0
LINE
  8
0
 10
1.21432
 20
40.3288
 11
1.14037
 21
40.4027
  0
LINE
  8
0
 10
1.14037
 20
40.4027
 11
1.08038
 21
40.4884
  0
LINE
  8
0
 10
1.08038
 20
40.4884
 11
1.03618
 21
40.5832
  0
LINE
  8
0
 10
1.03618
 20
40.5832
 11
1.00911
 21
40.6842
  0
LINE
  8
0
 10
1.00911
 20
40.6842
 11
1
 21
40.7884
  0
LINE
  8
0
 10
1
 20
40.7884
 11
1.00911
 21
40.8926
  0
LINE
  8
0
 10
1.00911
 20
40.8926
 11
1.03618
 21
40.9936
  0
LINE
  8
0
 10
1.03618
 20
40.9936
 11
1.08038
 21
41.0884
  0
LINE
  8
0
 10
1.08038
 20
41.0884
 11
1.14037
 21
41.1741
  0
LINE
  8
0
 10
1.14037
 20
41.1741
 11
1.21432
 21
41.248
  0
LINE
  8
0
 10
1.21432
 20
41.248
 11
1.29999
 21
41.308
  0
LINE
  8
0
 10
1.29999
 20
41.308
 11
1.39478
 21
41.3522
  0
LINE
  8
0
 10
1.39478
 20
41.3522
 11
1.4958
 21
41.3793
  0
LINE
  8
0
 10
1.4958
 20
41.3793
 11
1.59999
 21
41.3884
  0
LINE
  8
0
 10
1.59999
 20
41.3884
 11
1.70418
 21
41.3793
  0
LINE
  8
0
 10
1.70418
 20
41.3793
 11
1.80521
 21
41.3522
  0
LINE
  8
0
 10
1.80521
 20
41.3522
 11
1.89999
 21
41.308
  0
LINE
  8
0
 10
1.89999
 20
41.308
 11
1.98567
 21
41.248
  0
LINE
  8
0
 10
1.98567
 20
41.248
 11
2.05962
 21
41.1741
  0
LINE
  8
0
 10
2.05962
 20
41.1741
 11
2.11961
 21
41.0884
  0
LINE
  8
0
 10
2.11961
 20
41.0884
 11
2.1638
 21
40.9936
  0
LINE
  8
0
 10
2.1638
 20
40.9936
 11
2.19087
 21
40.8926
  0
LINE
  8
0
 10
2.19087
 20
40.8926
 11
2.2
 21
40.7884
  0
LINE
  8
0
 10
2.2
 20
40.7884
 11
2.19087
 21
40.6842
  0
LINE
  8
0
 10
2.19087
 20
40.6842
 11
2.1638
 21
40.5832
  0
LINE
  8
0
 10
2.1638
 20
40.5832
 11
2.11961
 21
40.4884
  0
LINE
  8
0
 10
2.11961
 20
40.4884
 11
2.05962
 21
40.4027
  0
LINE
  8
0
 10
2.05962
 20
40.4027
 11
1.98567
 21
40.3288
  0
LINE
  8
0
 10
1.98567
 20
40.3288
 11
1.89999
 21
40.2688
  0
LINE
  8
0
 10
1.89999
 20
40.2688
 11
1.80521
 21
40.2246
  0
LINE
  8
0
 10
1.80521
 20
40.2246
 11
1.70418
 21
40.1975
  0
LINE
  8
0
 10
1.70418
 20
40.1975
 11
1.59999
 21
40.1884
  0
LINE
  8
0
 10
1.59999
 20
40.1884
 11
1.4958
 21
40.1975
  0
LINE
  8
0
 10
1.43488
 20
37.3191
 11
1.37173
 21
37.336
  0
LINE
  8
0
 10
1.37173
 20
37.336
 11
1.3125
 21
37.3636
  0
LINE
  8
0
 10
1.3125
 20
37.3636
 11
1.25894
 21
37.4011
  0
LINE
  8
0
 10
1.25894
 20
37.4011
 11
1.21272
 21
37.4473
  0
LINE
  8
0
 10
1.21272
 20
37.4473
 11
1.17523
 21
37.5009
  0
LINE
  8
0
 10
1.17523
 20
37.5009
 11
1.14761
 21
37.5601
  0
LINE
  8
0
 10
1.14761
 20
37.5601
 11
1.13069
 21
37.6233
  0
LINE
  8
0
 10
1.13069
 20
37.6233
 11
1.125
 21
37.6884
  0
LINE
  8
0
 10
1.125
 20
37.6884
 11
1.13069
 21
37.7535
  0
LINE
  8
0
 10
1.13069
 20
37.7535
 11
1.14761
 21
37.8167
  0
LINE
  8
0
 10
1.14761
 20
37.8167
 11
1.17523
 21
37.8759
  0
LINE
  8
0
 10
1.17523
 20
37.8759
 11
1.21272
 21
37.9294
  0
LINE
  8
0
 10
1.21272
 20
37.9294
 11
1.25894
 21
37.9757
  0
LINE
  8
0
 10
1.25894
 20
37.9757
 11
1.3125
 21
38.0132
  0
LINE
  8
0
 10
1.3125
 20
38.0132
 11
1.37173
 21
38.0408
  0
LINE
  8
0
 10
1.37173
 20
38.0408
 11
1.43488
 21
38.0577
  0
LINE
  8
0
 10
1.43488
 20
38.0577
 11
1.5
 21
38.0634
  0
LINE
  8
0
 10
1.5
 20
38.0634
 11
1.56511
 21
38.0577
  0
LINE
  8
0
 10
1.56511
 20
38.0577
 11
1.62825
 21
38.0408
  0
LINE
  8
0
 10
1.62825
 20
38.0408
 11
1.6875
 21
38.0132
  0
LINE
  8
0
 10
1.6875
 20
38.0132
 11
1.74104
 21
37.9757
  0
LINE
  8
0
 10
1.74104
 20
37.9757
 11
1.78726
 21
37.9294
  0
LINE
  8
0
 10
1.78726
 20
37.9294
 11
1.82475
 21
37.8759
  0
LINE
  8
0
 10
1.82475
 20
37.8759
 11
1.85237
 21
37.8167
  0
LINE
  8
0
 10
1.85237
 20
37.8167
 11
1.86929
 21
37.7535
  0
LINE
  8
0
 10
1.86929
 20
37.7535
 11
1.875
 21
37.6884
  0
LINE
  8
0
 10
1.875
 20
37.6884
 11
1.86929
 21
37.6233
  0
LINE
  8
0
 10
1.86929
 20
37.6233
 11
1.85237
 21
37.5601
  0
LINE
  8
0
 10
1.85237
 20
37.5601
 11
1.82475
 21
37.5009
  0
LINE
  8
0
 10
1.82475
 20
37.5009
 11
1.78726
 21
37.4473
  0
LINE
  8
0
 10
1.78726
 20
37.4473
 11
1.74104
 21
37.4011
  0
LINE
  8
0
 10
1.74104
 20
37.4011
 11
1.6875
 21
37.3636
  0
LINE
  8
0
 10
1.6875
 20
37.3636
 11
1.62825
 21
37.336
  0
LINE
  8
0
 10
1.62825
 20
37.336
 11
1.56511
 21
37.3191
  0
LINE
  8
0
 10
1.56511
 20
37.3191
 11
1.5
 21
37.3134
  0
LINE
  8
0
 10
1.5
 20
37.3134
 11
1.43488
 21
37.3191
  0
LINE
  8
0
 10
4.43488
 20
37.3191
 11
4.37173
 21
37.336
  0
LINE
  8
0
 10
4.37173
 20
37.336
 11
4.3125
 21
37.3636
  0
LINE
  8
0
 10
4.3125
 20
37.3636
 11
4.25894
 21
37.4011
  0
LINE
  8
0
 10
4.25894
 20
37.4011
 11
4.21272
 21
37.4473
  0
LINE
  8
0
 10
4.21272
 20
37.4473
 11
4.17523
 21
37.5009
  0
LINE
  8
0
 10
4.17523
 20
37.5009
 11
4.14761
 21
37.5601
  0
LINE
  8
0
 10
4.14761
 20
37.5601
 11
4.13069
 21
37.6233
  0
LINE
  8
0
 10
4.13069
 20
37.6233
 11
4.125
 21
37.6884
  0
LINE
  8
0
 10
4.125
 20
37.6884
 11
4.13069
 21
37.7535
  0
LINE
  8
0
 10
4.13069
 20
37.7535
 11
4.14761
 21
37.8167
  0
LINE
  8
0
 10
4.14761
 20
37.8167
 11
4.17523
 21
37.8759
  0
LINE
  8
0
 10
4.17523
 20
37.8759
 11
4.21272
 21
37.9294
  0
LINE
  8
0
 10
4.21272
 20
37.9294
 11
4.25894
 21
37.9757
  0
LINE
  8
0
 10
4.25894
 20
37.9757
 11
4.3125
 21
38.0132
  0
LINE
  8
0
 10
4.3125
 20
38.0132
 11
4.37173
 21
38.0408
  0
LINE
  8
0
 10
4.37173
 20
38.0408
 11
4.43488
 21
38.0577
  0
LINE
  8
0
 10
4.43488
 20
38.0577
 11
4.5
 21
38.0634
  0
LINE
  8
0
 10
4.5
 20
38.0634
 11
4.56511
 21
38.0577
  0
LINE
  8
0
 10
4.56511
 20
38.0577
 11
4.62825
 21
38.0408
  0
LINE
  8
0
 10
4.62825
 20
38.0408
 11
4.6875
 21
38.0132
  0
LINE
  8
0
 10
4.6875
 20
38.0132
 11
4.74104
 21
37.9757
  0
LINE
  8
0
 10
4.74104
 20
37.9757
 11
4.78726
 21
37.9294
  0
LINE
  8
0
 10
4.78726
 20
37.9294
 11
4.82475
 21
37.8759
  0
LINE
  8
0
 10
4.82475
 20
37.8759
 11
4.85237
 21
37.8167
  0
LINE
  8
0
 10
4.85237
 20
37.8167
 11
4.86929
 21
37.7535
  0
LINE
  8
0
 10
4.86929
 20
37.7535
 11
4.875
 21
37.6884
  0
LINE
  8
0
 10
4.875
 20
37.6884
 11
4.86929
 21
37.6233
  0
LINE
  8
0
 10
4.86929
 20
37.6233
 11
4.85237
 21
37.5601
  0
LINE
  8
0
 10
4.85237
 20
37.5601
 11
4.82475
 21
37.5009
  0
LINE
  8
0
 10
4.82475
 20
37.5009
 11
4.78726
 21
37.4473
  0
LINE
  8
0
 10
4.78726
 20
37.4473
 11
4.74104
 21
37.4011
  0
LINE
  8
0
 10
4.74104
 20
37.4011
 11
4.6875
 21
37.3636
  0
LINE
  8
0
 10
4.6875
 20
37.3636
 11
4.62825
 21
37.336
  0
LINE
  8
0
 10
4.62825
 20
37.336
 11
4.56511
 21
37.3191
  0
LINE
  8
0
 10
4.56511
 20
37.3191
 11
4.5
 21
37.3134
  0
LINE
  8
0
 10
4.5
 20
37.3134
 11
4.43488
 21
37.3191
  0
LINE
  8
0
 10
40.5
 20
69.3768
 11
32.5
 21
69.3768
  0
LINE
  8
0
 10
32.5
 20
69.3768
 11
32.5
 21
68.0393
  0
LINE
  8
0
 10
32.5
 20
68.0393
 11
32.9375
 21
68.0393
  0
LINE
  8
0
 10
32.9375
 20
68.0393
 11
32.9375
 21
68.1643
  0
LINE
  8
0
 10
32.9375
 20
68.1643
 11
33.1875
 21
68.1643
  0
LINE
  8
0
 10
33.1875
 20
68.1643
 11
33.1875
 21
67.9143
  0
LINE
  8
0
 10
33.1875
 20
67.9143
 11
33.0625
 21
67.9143
  0
LINE
  8
0
 10
33.0625
 20
67.9143
 11
33.0625
 21
67.0393
  0
LINE
  8
0
 10
33.0625
 20
67.0393
 11
33.1875
 21
67.0393
  0
LINE
  8
0
 10
33.1875
 20
67.0393
 11
33.1875
 21
66.7893
  0
LINE
  8
0
 10
33.1875
 20
66.7893
 11
32.9375
 21
66.7893
  0
LINE
  8
0
 10
32.9375
 20
66.7893
 11
32.9375
 21
66.9143
  0
LINE
  8
0
 10
32.9375
 20
66.9143
 11
32.5
 21
66.9143
  0
LINE
  8
0
 10
32.5
 20
66.9143
 11
32.5
 21
37.6509
  0
LINE
  8
0
 10
32.5
 20
37.6509
 11
32.9375
 21
37.6509
  0
LINE
  8
0
 10
32.9375
 20
37.6509
 11
32.9375
 21
37.7759
  0
LINE
  8
0
 10
32.9375
 20
37.7759
 11
33.1875
 21
37.7759
  0
LINE
  8
0
 10
33.1875
 20
37.7759
 11
33.1875
 21
37.5259
  0
LINE
  8
0
 10
33.1875
 20
37.5259
 11
33.0625
 21
37.5259
  0
LINE
  8
0
 10
33.0625
 20
37.5259
 11
33.0625
 21
36.6509
  0
LINE
  8
0
 10
33.0625
 20
36.6509
 11
33.1875
 21
36.6509
  0
LINE
  8
0
 10
33.1875
 20
36.6509
 11
33.1875
 21
36.4009
  0
LINE
  8
0
 10
33.1875
 20
36.4009
 11
32.9375
 21
36.4009
  0
LINE
  8
0
 10
32.9375
 20
36.4009
 11
32.9375
 21
36.5259
  0
LINE
  8
0
 10
32.9375
 20
36.5259
 11
32.5
 21
36.5259
  0
LINE
  8
0
 10
32.5
 20
36.5259
 11
32.5
 21
35.1884
  0
LINE
  8
0
 10
32.5
 20
35.1884
 11
40.5
 21
35.1884
  0
LINE
  8
0
 10
40.5
 20
35.1884
 11
40.5
 21
69.3768
  0
LINE
  8
0
 10
34.434
 20
66.5026
 11
34.37
 21
66.5197
  0
LINE
  8
0
 10
34.37
 20
66.5197
 11
34.31
 21
66.5477
  0
LINE
  8
0
 10
34.31
 20
66.5477
 11
34.2557
 21
66.5857
  0
LINE
  8
0
 10
34.2557
 20
66.5857
 11
34.2089
 21
66.6325
  0
LINE
  8
0
 10
34.2089
 20
66.6325
 11
34.1709
 21
66.6868
  0
LINE
  8
0
 10
34.1709
 20
66.6868
 11
34.1429
 21
66.7468
  0
LINE
  8
0
 10
34.1429
 20
66.7468
 11
34.1258
 21
66.8108
  0
LINE
  8
0
 10
34.1258
 20
66.8108
 11
34.12
 21
66.8768
  0
LINE
  8
0
 10
34.12
 20
66.8768
 11
34.1258
 21
66.9428
  0
LINE
  8
0
 10
34.1258
 20
66.9428
 11
34.1429
 21
67.0068
  0
LINE
  8
0
 10
34.1429
 20
67.0068
 11
34.1709
 21
67.0668
  0
LINE
  8
0
 10
34.1709
 20
67.0668
 11
34.2089
 21
67.121
  0
LINE
  8
0
 10
34.2089
 20
67.121
 11
34.2557
 21
67.1679
  0
LINE
  8
0
 10
34.2557
 20
67.1679
 11
34.31
 21
67.2059
  0
LINE
  8
0
 10
34.31
 20
67.2059
 11
34.37
 21
67.2339
  0
LINE
  8
0
 10
34.37
 20
67.2339
 11
34.434
 21
67.251
  0
LINE
  8
0
 10
34.434
 20
67.251
 11
34.5
 21
67.2568
  0
LINE
  8
0
 10
34.5
 20
67.2568
 11
34.566
 21
67.251
  0
LINE
  8
0
 10
34.566
 20
67.251
 11
34.63
 21
67.2339
  0
LINE
  8
0
 10
34.63
 20
67.2339
 11
34.69
 21
67.2059
  0
LINE
  8
0
 10
34.69
 20
67.2059
 11
34.7442
 21
67.1679
  0
LINE
  8
0
 10
34.7442
 20
67.1679
 11
34.7911
 21
67.121
  0
LINE
  8
0
 10
34.7911
 20
67.121
 11
34.8291
 21
67.0668
  0
LINE
  8
0
 10
34.8291
 20
67.0668
 11
34.8571
 21
67.0068
  0
LINE
  8
0
 10
34.8571
 20
67.0068
 11
34.8742
 21
66.9428
  0
LINE
  8
0
 10
34.8742
 20
66.9428
 11
34.88
 21
66.8768
  0
LINE
  8
0
 10
34.88
 20
66.8768
 11
34.8742
 21
66.8108
  0
LINE
  8
0
 10
34.8742
 20
66.8108
 11
34.8571
 21
66.7468
  0
LINE
  8
0
 10
34.8571
 20
66.7468
 11
34.8291
 21
66.6868
  0
LINE
  8
0
 10
34.8291
 20
66.6868
 11
34.7911
 21
66.6325
  0
LINE
  8
0
 10
34.7911
 20
66.6325
 11
34.7442
 21
66.5857
  0
LINE
  8
0
 10
34.7442
 20
66.5857
 11
34.69
 21
66.5477
  0
LINE
  8
0
 10
34.69
 20
66.5477
 11
34.63
 21
66.5197
  0
LINE
  8
0
 10
34.63
 20
66.5197
 11
34.566
 21
66.5026
  0
LINE
  8
0
 10
34.566
 20
66.5026
 11
34.5
 21
66.4968
  0
LINE
  8
0
 10
34.5
 20
66.4968
 11
34.434
 21
66.5026
  0
LINE
  8
0
 10
38.434
 20
66.5026
 11
38.37
 21
66.5197
  0
LINE
  8
0
 10
38.37
 20
66.5197
 11
38.31
 21
66.5477
  0
LINE
  8
0
 10
38.31
 20
66.5477
 11
38.2557
 21
66.5857
  0
LINE
  8
0
 10
38.2557
 20
66.5857
 11
38.2089
 21
66.6325
  0
LINE
  8
0
 10
38.2089
 20
66.6325
 11
38.1709
 21
66.6868
  0
LINE
  8
0
 10
38.1709
 20
66.6868
 11
38.1429
 21
66.7468
  0
LINE
  8
0
 10
38.1429
 20
66.7468
 11
38.1258
 21
66.8108
  0
LINE
  8
0
 10
38.1258
 20
66.8108
 11
38.12
 21
66.8768
  0
LINE
  8
0
 10
38.12
 20
66.8768
 11
38.1258
 21
66.9428
  0
LINE
  8
0
 10
38.1258
 20
66.9428
 11
38.1429
 21
67.0068
  0
LINE
  8
0
 10
38.1429
 20
67.0068
 11
38.1709
 21
67.0668
  0
LINE
  8
0
 10
38.1709
 20
67.0668
 11
38.2089
 21
67.121
  0
LINE
  8
0
 10
38.2089
 20
67.121
 11
38.2557
 21
67.1679
  0
LINE
  8
0
 10
38.2557
 20
67.1679
 11
38.31
 21
67.2059
  0
LINE
  8
0
 10
38.31
 20
67.2059
 11
38.37
 21
67.2339
  0
LINE
  8
0
 10
38.37
 20
67.2339
 11
38.434
 21
67.251
  0
LINE
  8
0
 10
38.434
 20
67.251
 11
38.5
 21
67.2568
  0
LINE
  8
0
 10
38.5
 20
67.2568
 11
38.566
 21
67.251
  0
LINE
  8
0
 10
38.566
 20
67.251
 11
38.63
 21
67.2339
  0
LINE
  8
0
 10
38.63
 20
67.2339
 11
38.69
 21
67.2059
  0
LINE
  8
0
 10
38.69
 20
67.2059
 11
38.7442
 21
67.1679
  0
LINE
  8
0
 10
38.7442
 20
67.1679
 11
38.7911
 21
67.121
  0
LINE
  8
0
 10
38.7911
 20
67.121
 11
38.8291
 21
67.0668
  0
LINE
  8
0
 10
38.8291
 20
67.0668
 11
38.8571
 21
67.0068
  0
LINE
  8
0
 10
38.8571
 20
67.0068
 11
38.8742
 21
66.9428
  0
LINE
  8
0
 10
38.8742
 20
66.9428
 11
38.88
 21
66.8768
  0
LINE
  8
0
 10
38.88
 20
66.8768
 11
38.8742
 21
66.8108
  0
LINE
  8
0
 10
38.8742
 20
66.8108
 11
38.8571
 21
66.7468
  0
LINE
  8
0
 10
38.8571
 20
66.7468
 11
38.8291
 21
66.6868
  0
LINE
  8
0
 10
38.8291
 20
66.6868
 11
38.7911
 21
66.6325
  0
LINE
  8
0
 10
38.7911
 20
66.6325
 11
38.7442
 21
66.5857
  0
LINE
  8
0
 10
38.7442
 20
66.5857
 11
38.69
 21
66.5477
  0
LINE
  8
0
 10
38.69
 20
66.5477
 11
38.63
 21
66.5197
  0
LINE
  8
0
 10
38.63
 20
66.5197
 11
38.566
 21
66.5026
  0
LINE
  8
0
 10
38.566
 20
66.5026
 11
38.5
 21
66.4968
  0
LINE
  8
0
 10
38.5
 20
66.4968
 11
38.434
 21
66.5026
  0
LINE
  8
0
 10
34.0846
 20
50.99
 11
33.8636
 21
51.0492
  0
LINE
  8
0
 10
33.8636
 20
51.0492
 11
33.6562
 21
51.1459
  0
LINE
  8
0
 10
33.6562
 20
51.1459
 11
33.4688
 21
51.2772
  0
LINE
  8
0
 10
33.4688
 20
51.2772
 11
33.3071
 21
51.4389
  0
LINE
  8
0
 10
33.3071
 20
51.4389
 11
33.1758
 21
51.6263
  0
LINE
  8
0
 10
33.1758
 20
51.6263
 11
33.0791
 21
51.8337
  0
LINE
  8
0
 10
33.0791
 20
51.8337
 11
33.0199
 21
52.0547
  0
LINE
  8
0
 10
33.0199
 20
52.0547
 11
33
 21
52.2826
  0
LINE
  8
0
 10
33
 20
52.2826
 11
33.0199
 21
52.5105
  0
LINE
  8
0
 10
33.0199
 20
52.5105
 11
33.0791
 21
52.7315
  0
LINE
  8
0
 10
33.0791
 20
52.7315
 11
33.1758
 21
52.9388
  0
LINE
  8
0
 10
33.1758
 20
52.9388
 11
33.3071
 21
53.1263
  0
LINE
  8
0
 10
33.3071
 20
53.1263
 11
33.4688
 21
53.288
  0
LINE
  8
0
 10
33.4688
 20
53.288
 11
33.6562
 21
53.4193
  0
LINE
  8
0
 10
33.6562
 20
53.4193
 11
33.8636
 21
53.5159
  0
LINE
  8
0
 10
33.8636
 20
53.5159
 11
34.0846
 21
53.5751
  0
LINE
  8
0
 10
34.0846
 20
53.5751
 11
34.3125
 21
53.5951
  0
LINE
  8
0
 10
34.3125
 20
53.5951
 11
34.5404
 21
53.5751
  0
LINE
  8
0
 10
34.5404
 20
53.5751
 11
34.7614
 21
53.5159
  0
LINE
  8
0
 10
34.7614
 20
53.5159
 11
34.9688
 21
53.4193
  0
LINE
  8
0
 10
34.9688
 20
53.4193
 11
35.1562
 21
53.288
  0
LINE
  8
0
 10
35.1562
 20
53.288
 11
35.3179
 21
53.1263
  0
LINE
  8
0
 10
35.3179
 20
53.1263
 11
35.4492
 21
52.9388
  0
LINE
  8
0
 10
35.4492
 20
52.9388
 11
35.5458
 21
52.7315
  0
LINE
  8
0
 10
35.5458
 20
52.7315
 11
35.6051
 21
52.5105
  0
LINE
  8
0
 10
35.6051
 20
52.5105
 11
35.625
 21
52.2826
  0
LINE
  8
0
 10
35.625
 20
52.2826
 11
35.6051
 21
52.0547
  0
LINE
  8
0
 10
35.6051
 20
52.0547
 11
35.5458
 21
51.8337
  0
LINE
  8
0
 10
35.5458
 20
51.8337
 11
35.4492
 21
51.6263
  0
LINE
  8
0
 10
35.4492
 20
51.6263
 11
35.3179
 21
51.4389
  0
LINE
  8
0
 10
35.3179
 20
51.4389
 11
35.1562
 21
51.2772
  0
LINE
  8
0
 10
35.1562
 20
51.2772
 11
34.9688
 21
51.1459
  0
LINE
  8
0
 10
34.9688
 20
51.1459
 11
34.7614
 21
51.0492
  0
LINE
  8
0
 10
34.7614
 20
51.0492
 11
34.5404
 21
50.99
  0
LINE
  8
0
 10
34.5404
 20
50.99
 11
34.3125
 21
50.9701
  0
LINE
  8
0
 10
34.3125
 20
50.9701
 11
34.0846
 21
50.99
  0
LINE
  8
0
 10
38.434
 20
37.3142
 11
38.37
 21
37.3313
  0
LINE
  8
0
 10
38.37
 20
37.3313
 11
38.31
 21
37.3593
  0
LINE
  8
0
 10
38.31
 20
37.3593
 11
38.2557
 21
37.3973
  0
LINE
  8
0
 10
38.2557
 20
37.3973
 11
38.2089
 21
37.4441
  0
LINE
  8
0
 10
38.2089
 20
37.4441
 11
38.1709
 21
37.4984
  0
LINE
  8
0
 10
38.1709
 20
37.4984
 11
38.1429
 21
37.5584
  0
LINE
  8
0
 10
38.1429
 20
37.5584
 11
38.1258
 21
37.6224
  0
LINE
  8
0
 10
38.1258
 20
37.6224
 11
38.12
 21
37.6884
  0
LINE
  8
0
 10
38.12
 20
37.6884
 11
38.1258
 21
37.7544
  0
LINE
  8
0
 10
38.1258
 20
37.7544
 11
38.1429
 21
37.8184
  0
LINE
  8
0
 10
38.1429
 20
37.8184
 11
38.1709
 21
37.8784
  0
LINE
  8
0
 10
38.1709
 20
37.8784
 11
38.2089
 21
37.9326
  0
LINE
  8
0
 10
38.2089
 20
37.9326
 11
38.2557
 21
37.9795
  0
LINE
  8
0
 10
38.2557
 20
37.9795
 11
38.31
 21
38.0175
  0
LINE
  8
0
 10
38.31
 20
38.0175
 11
38.37
 21
38.0455
  0
LINE
  8
0
 10
38.37
 20
38.0455
 11
38.434
 21
38.0626
  0
LINE
  8
0
 10
38.434
 20
38.0626
 11
38.5
 21
38.0684
  0
LINE
  8
0
 10
38.5
 20
38.0684
 11
38.566
 21
38.0626
  0
LINE
  8
0
 10
38.566
 20
38.0626
 11
38.63
 21
38.0455
  0
LINE
  8
0
 10
38.63
 20
38.0455
 11
38.69
 21
38.0175
  0
LINE
  8
0
 10
38.69
 20
38.0175
 11
38.7442
 21
37.9795
  0
LINE
  8
0
 10
38.7442
 20
37.9795
 11
38.7911
 21
37.9326
  0
LINE
  8
0
 10
38.7911
 20
37.9326
 11
38.8291
 21
37.8784
  0
LINE
  8
0
 10
38.8291
 20
37.8784
 11
38.8571
 21
37.8184
  0
LINE
  8
0
 10
38.8571
 20
37.8184
 11
38.8742
 21
37.7544
  0
LINE
  8
0
 10
38.8742
 20
37.7544
 11
38.88
 21
37.6884
  0
LINE
  8
0
 10
38.88
 20
37.6884
 11
38.8742
 21
37.6224
  0
LINE
  8
0
 10
38.8742
 20
37.6224
 11
38.8571
 21
37.5584
  0
LINE
  8
0
 10
38.8571
 20
37.5584
 11
38.8291
 21
37.4984
  0
LINE
  8
0
 10
38.8291
 20
37.4984
 11
38.7911
 21
37.4441
  0
LINE
  8
0
 10
38.7911
 20
37.4441
 11
38.7442
 21
37.3973
  0
LINE
  8
0
 10
38.7442
 20
37.3973
 11
38.69
 21
37.3593
  0
LINE
  8
0
 10
38.69
 20
37.3593
 11
38.63
 21
37.3313
  0
LINE
  8
0
 10
38.63
 20
37.3313
 11
38.566
 21
37.3142
  0
LINE
  8
0
 10
38.566
 20
37.3142
 11
38.5
 21
37.3084
  0
LINE
  8
0
 10
38.5
 20
37.3084
 11
38.434
 21
37.3142
  0
LINE
  8
0
 10
34.434
 20
37.3142
 11
34.37
 21
37.3313
  0
LINE
  8
0
 10
34.37
 20
37.3313
 11
34.31
 21
37.3593
  0
LINE
  8
0
 10
34.31
 20
37.3593
 11
34.2557
 21
37.3973
  0
LINE
  8
0
 10
34.2557
 20
37.3973
 11
34.2089
 21
37.4441
  0
LINE
  8
0
 10
34.2089
 20
37.4441
 11
34.1709
 21
37.4984
  0
LINE
  8
0
 10
34.1709
 20
37.4984
 11
34.1429
 21
37.5584
  0
LINE
  8
0
 10
34.1429
 20
37.5584
 11
34.1258
 21
37.6224
  0
LINE
  8
0
 10
34.1258
 20
37.6224
 11
34.12
 21
37.6884
  0
LINE
  8
0
 10
34.12
 20
37.6884
 11
34.1258
 21
37.7544
  0
LINE
  8
0
 10
34.1258
 20
37.7544
 11
34.1429
 21
37.8184
  0
LINE
  8
0
 10
34.1429
 20
37.8184
 11
34.1709
 21
37.8784
  0
LINE
  8
0
 10
34.1709
 20
37.8784
 11
34.2089
 21
37.9326
  0
LINE
  8
0
 10
34.2089
 20
37.9326
 11
34.2557
 21
37.9795
  0
LINE
  8
0
 10
34.2557
 20
37.9795
 11
34.31
 21
38.0175
  0
LINE
  8
0
 10
34.31
 20
38.0175
 11
34.37
 21
38.0455
  0
LINE
  8
0
 10
34.37
 20
38.0455
 11
34.434
 21
38.0626
  0
LINE
  8
0
 10
34.434
 20
38.0626
 11
34.5
 21
38.0684
  0
LINE
  8
0
 10
34.5
 20
38.0684
 11
34.566
 21
38.0626
  0
LINE
  8
0
 10
34.566
 20
38.0626
 11
34.63
 21
38.0455
  0
LINE
  8
0
 10
34.63
 20
38.0455
 11
34.69
 21
38.0175
  0
LINE
  8
0
 10
34.69
 20
38.0175
 11
34.7442
 21
37.9795
  0
LINE
  8
0
 10
34.7442
 20
37.9795
 11
34.7911
 21
37.9326
  0
LINE
  8
0
 10
34.7911
 20
37.9326
 11
34.8291
 21
37.8784
  0
LINE
  8
0
 10
34.8291
 20
37.8784
 11
34.8571
 21
37.8184
  0
LINE
  8
0
 10
34.8571
 20
37.8184
 11
34.8742
 21
37.7544
  0
LINE
  8
0
 10
34.8742
 20
37.7544
 11
34.88
 21
37.6884
  0
LINE
  8
0
 10
34.88
 20
37.6884
 11
34.8742
 21
37.6224
  0
LINE
  8
0
 10
34.8742
 20
37.6224
 11
34.8571
 21
37.5584
  0
LINE
  8
0
 10
34.8571
 20
37.5584
 11
34.8291
 21
37.4984
  0
LINE
  8
0
 10
34.8291
 20
37.4984
 11
34.7911
 21
37.4441
  0
LINE
  8
0
 10
34.7911
 20
37.4441
 11
34.7442
 21
37.3973
  0
LINE
  8
0
 10
34.7442
 20
37.3973
 11
34.69
 21
37.3593
  0
LINE
  8
0
 10
34.69
 20
37.3593
 11
34.63
 21
37.3313
  0
LINE
  8
0
 10
34.63
 20
37.3313
 11
34.566
 21
37.3142
  0
LINE
  8
0
 10
34.566
 20
37.3142
 11
34.5
 21
37.3084
  0
LINE
  8
0
 10
34.5
 20
37.3084
 11
34.434
 21
37.3142
  0
LINE
  8
0
 10
15
 20
36.1884
 11
14.375
 21
36.1884
  0
LINE
  8
0
 10
14.375
 20
36.1884
 11
14.375
 21
37.1884
  0
LINE
  8
0
 10
14.375
 20
37.1884
 11
14.5
 21
37.1884
  0
LINE
  8
0
 10
14.5
 20
37.1884
 11
14.5
 21
38.1884
  0
LINE
  8
0
 10
14.5
 20
38.1884
 11
14.375
 21
38.1884
  0
LINE
  8
0
 10
14.375
 20
38.1884
 11
14.375
 21
49.2826
  0
LINE
  8
0
 10
14.375
 20
49.2826
 11
14.5
 21
49.2826
  0
LINE
  8
0
 10
14.5
 20
49.2826
 11
14.5
 21
50.2826
  0
LINE
  8
0
 10
14.5
 20
50.2826
 11
14.375
 21
50.2826
  0
LINE
  8
0
 10
14.375
 20
50.2826
 11
14.375
 21
51.2826
  0
LINE
  8
0
 10
14.375
 20
51.2826
 11
15
 21
51.2826
  0
LINE
  8
0
 10
15
 20
51.2826
 11
15
 21
53.2826
  0
LINE
  8
0
 10
15
 20
53.2826
 11
14.375
 21
53.2826
  0
LINE
  8
0
 10
14.375
 20
53.2826
 11
14.375
 21
54.2826
  0
LINE
  8
0
 10
14.375
 20
54.2826
 11
14.5
 21
54.2826
  0
LINE
  8
0
 10
14.5
 20
54.2826
 11
14.5
 21
55.2826
  0
LINE
  8
0
 10
14.5
 20
55.2826
 11
14.375
 21
55.2826
  0
LINE
  8
0
 10
14.375
 20
55.2826
 11
14.375
 21
66.3768
  0
LINE
  8
0
 10
14.375
 20
66.3768
 11
14.5
 21
66.3768
  0
LINE
  8
0
 10
14.5
 20
66.3768
 11
14.5
 21
67.3768
  0
LINE
  8
0
 10
14.5
 20
67.3768
 11
14.375
 21
67.3768
  0
LINE
  8
0
 10
14.375
 20
67.3768
 11
14.375
 21
68.3768
  0
LINE
  8
0
 10
14.375
 20
68.3768
 11
15
 21
68.3768
  0
LINE
  8
0
 10
15
 20
68.3768
 11
15
 21
69.3768
  0
LINE
  8
0
 10
15
 20
69.3768
 11
11.5
 21
69.3768
  0
LINE
  8
0
 10
11.5
 20
69.3768
 11
11.5
 21
35.1884
  0
LINE
  8
0
 10
11.5
 20
35.1884
 11
15
 21
35.1884
  0
LINE
  8
0
 10
15
 20
35.1884
 11
15
 21
36.1884
  0
LINE
  8
0
 10
13.1632
 20
63.5094
 11
13.079
 21
63.532
  0
LINE
  8
0
 10
13.079
 20
63.532
 11
13
 21
63.5688
  0
LINE
  8
0
 10
13
 20
63.5688
 11
12.9286
 21
63.6188
  0
LINE
  8
0
 10
12.9286
 20
63.6188
 11
12.867
 21
63.6804
  0
LINE
  8
0
 10
12.867
 20
63.6804
 11
12.817
 21
63.7518
  0
LINE
  8
0
 10
12.817
 20
63.7518
 11
12.7802
 21
63.8308
  0
LINE
  8
0
 10
12.7802
 20
63.8308
 11
12.7576
 21
63.915
  0
LINE
  8
0
 10
12.7576
 20
63.915
 11
12.75
 21
64.0018
  0
LINE
  8
0
 10
12.75
 20
64.0018
 11
12.7576
 21
64.0886
  0
LINE
  8
0
 10
12.7576
 20
64.0886
 11
12.7802
 21
64.1728
  0
LINE
  8
0
 10
12.7802
 20
64.1728
 11
12.817
 21
64.2518
  0
LINE
  8
0
 10
12.817
 20
64.2518
 11
12.867
 21
64.3232
  0
LINE
  8
0
 10
12.867
 20
64.3232
 11
12.9286
 21
64.3848
  0
LINE
  8
0
 10
12.9286
 20
64.3848
 11
13
 21
64.4348
  0
LINE
  8
0
 10
13
 20
64.4348
 11
13.079
 21
64.4716
  0
LINE
  8
0
 10
13.079
 20
64.4716
 11
13.1632
 21
64.4942
  0
LINE
  8
0
 10
13.1632
 20
64.4942
 11
13.25
 21
64.5018
  0
LINE
  8
0
 10
13.25
 20
64.5018
 11
13.3368
 21
64.4942
  0
LINE
  8
0
 10
13.3368
 20
64.4942
 11
13.421
 21
64.4716
  0
LINE
  8
0
 10
13.421
 20
64.4716
 11
13.5
 21
64.4348
  0
LINE
  8
0
 10
13.5
 20
64.4348
 11
13.5714
 21
64.3848
  0
LINE
  8
0
 10
13.5714
 20
64.3848
 11
13.633
 21
64.3232
  0
LINE
  8
0
 10
13.633
 20
64.3232
 11
13.683
 21
64.2518
  0
LINE
  8
0
 10
13.683
 20
64.2518
 11
13.7198
 21
64.1728
  0
LINE
  8
0
 10
13.7198
 20
64.1728
 11
13.7424
 21
64.0886
  0
LINE
  8
0
 10
13.7424
 20
64.0886
 11
13.75
 21
64.0018
  0
LINE
  8
0
 10
13.75
 20
64.0018
 11
13.7424
 21
63.915
  0
LINE
  8
0
 10
13.7424
 20
63.915
 11
13.7198
 21
63.8308
  0
LINE
  8
0
 10
13.7198
 20
63.8308
 11
13.683
 21
63.7518
  0
LINE
  8
0
 10
13.683
 20
63.7518
 11
13.633
 21
63.6804
  0
LINE
  8
0
 10
13.633
 20
63.6804
 11
13.5714
 21
63.6188
  0
LINE
  8
0
 10
13.5714
 20
63.6188
 11
13.5
 21
63.5688
  0
LINE
  8
0
 10
13.5
 20
63.5688
 11
13.421
 21
63.532
  0
LINE
  8
0
 10
13.421
 20
63.532
 11
13.3368
 21
63.5094
  0
LINE
  8
0
 10
13.3368
 20
63.5094
 11
13.25
 21
63.5018
  0
LINE
  8
0
 10
13.25
 20
63.5018
 11
13.1632
 21
63.5094
  0
LINE
  8
0
 10
13.1632
 20
40.071
 11
13.079
 21
40.0936
  0
LINE
  8
0
 10
13.079
 20
40.0936
 11
13
 21
40.1304
  0
LINE
  8
0
 10
13
 20
40.1304
 11
12.9286
 21
40.1804
  0
LINE
  8
0
 10
12.9286
 20
40.1804
 11
12.867
 21
40.242
  0
LINE
  8
0
 10
12.867
 20
40.242
 11
12.817
 21
40.3134
  0
LINE
  8
0
 10
12.817
 20
40.3134
 11
12.7802
 21
40.3924
  0
LINE
  8
0
 10
12.7802
 20
40.3924
 11
12.7576
 21
40.4766
  0
LINE
  8
0
 10
12.7576
 20
40.4766
 11
12.75
 21
40.5634
  0
LINE
  8
0
 10
12.75
 20
40.5634
 11
12.7576
 21
40.6502
  0
LINE
  8
0
 10
12.7576
 20
40.6502
 11
12.7802
 21
40.7344
  0
LINE
  8
0
 10
12.7802
 20
40.7344
 11
12.817
 21
40.8134
  0
LINE
  8
0
 10
12.817
 20
40.8134
 11
12.867
 21
40.8848
  0
LINE
  8
0
 10
12.867
 20
40.8848
 11
12.9286
 21
40.9464
  0
LINE
  8
0
 10
12.9286
 20
40.9464
 11
13
 21
40.9964
  0
LINE
  8
0
 10
13
 20
40.9964
 11
13.079
 21
41.0332
  0
LINE
  8
0
 10
13.079
 20
41.0332
 11
13.1632
 21
41.0558
  0
LINE
  8
0
 10
13.1632
 20
41.0558
 11
13.25
 21
41.0634
  0
LINE
  8
0
 10
13.25
 20
41.0634
 11
13.3368
 21
41.0558
  0
LINE
  8
0
 10
13.3368
 20
41.0558
 11
13.421
 21
41.0332
  0
LINE
  8
0
 10
13.421
 20
41.0332
 11
13.5
 21
40.9964
  0
LINE
  8
0
 10
13.5
 20
40.9964
 11
13.5714
 21
40.9464
  0
LINE
  8
0
 10
13.5714
 20
40.9464
 11
13.633
 21
40.8848
  0
LINE
  8
0
 10
13.633
 20
40.8848
 11
13.683
 21
40.8134
  0
LINE
  8
0
 10
13.683
 20
40.8134
 11
13.7198
 21
40.7344
  0
LINE
  8
0
 10
13.7198
 20
40.7344
 11
13.7424
 21
40.6502
  0
LINE
  8
0
 10
13.7424
 20
40.6502
 11
13.75
 21
40.5634
  0
LINE
  8
0
 10
13.75
 20
40.5634
 11
13.7424
 21
40.4766
  0
LINE
  8
0
 10
13.7424
 20
40.4766
 11
13.7198
 21
40.3924
  0
LINE
  8
0
 10
13.7198
 20
40.3924
 11
13.683
 21
40.3134
  0
LINE
  8
0
 10
13.683
 20
40.3134
 11
13.633
 21
40.242
  0
LINE
  8
0
 10
13.633
 20
40.242
 11
13.5714
 21
40.1804
  0
LINE
  8
0
 10
13.5714
 20
40.1804
 11
13.5
 21
40.1304
  0
LINE
  8
0
 10
13.5
 20
40.1304
 11
13.421
 21
40.0936
  0
LINE
  8
0
 10
13.421
 20
40.0936
 11
13.3368
 21
40.071
  0
LINE
  8
0
 10
13.3368
 20
40.071
 11
13.25
 21
40.0634
  0
LINE
  8
0
 10
13.25
 20
40.0634
 11
13.1632
 21
40.071
  0
LINE
  8
0
 10
10.5
 20
33.3884
 11
9.875
 21
33.3884
  0
LINE
  8
0
 10
9.875
 20
33.3884
 11
9.875
 21
33.5134
  0
LINE
  8
0
 10
9.875
 20
33.5134
 11
10
 21
33.5134
  0
LINE
  8
0
 10
10
 20
33.5134
 11
10
 21
62.6518
  0
LINE
  8
0
 10
10
 20
62.6518
 11
9.875
 21
62.6518
  0
LINE
  8
0
 10
9.875
 20
62.6518
 11
9.875
 21
62.7768
  0
LINE
  8
0
 10
9.875
 20
62.7768
 11
10.5
 21
62.7768
  0
LINE
  8
0
 10
10.5
 20
62.7768
 11
10.5
 21
63.7768
  0
LINE
  8
0
 10
10.5
 20
63.7768
 11
7
 21
63.7768
  0
LINE
  8
0
 10
7
 20
63.7768
 11
7
 21
32.3884
  0
LINE
  8
0
 10
7
 20
32.3884
 11
10.5
 21
32.3884
  0
LINE
  8
0
 10
10.5
 20
32.3884
 11
10.5
 21
33.3884
  0
LINE
  8
0
 10
86
 20
28.3125
 11
85.375
 21
28.3125
  0
LINE
  8
0
 10
85.375
 20
28.3125
 11
85.375
 21
28.4375
  0
LINE
  8
0
 10
85.375
 20
28.4375
 11
85.5
 21
28.4375
  0
LINE
  8
0
 10
85.5
 20
28.4375
 11
85.5
 21
52.5
  0
LINE
  8
0
 10
85.5
 20
52.5
 11
85.375
 21
52.5
  0
LINE
  8
0
 10
85.375
 20
52.5
 11
85.375
 21
52.625
  0
LINE
  8
0
 10
85.375
 20
52.625
 11
86
 21
52.625
  0
LINE
  8
0
 10
86
 20
52.625
 11
86
 21
53.625
  0
LINE
  8
0
 10
86
 20
53.625
 11
82.5
 21
53.625
  0
LINE
  8
0
 10
82.5
 20
53.625
 11
82.5
 21
27.3125
  0
LINE
  8
0
 10
82.5
 20
27.3125
 11
86
 21
27.3125
  0
LINE
  8
0
 10
86
 20
27.3125
 11
86
 21
28.3125
  0
LINE
  8
0
 10
54
 20
8.17346
 11
53.375
 21
8.17346
  0
LINE
  8
0
 10
53.375
 20
8.17346
 11
53.375
 21
8.42346
  0
LINE
  8
0
 10
53.375
 20
8.42346
 11
53.5
 21
8.42346
  0
LINE
  8
0
 10
53.5
 20
8.42346
 11
53.5
 21
8.92346
  0
LINE
  8
0
 10
53.5
 20
8.92346
 11
53.375
 21
8.92346
  0
LINE
  8
0
 10
53.375
 20
8.92346
 11
53.375
 21
15.5969
  0
LINE
  8
0
 10
53.375
 20
15.5969
 11
53.5
 21
15.5969
  0
LINE
  8
0
 10
53.5
 20
15.5969
 11
53.5
 21
16.0969
  0
LINE
  8
0
 10
53.5
 20
16.0969
 11
53.375
 21
16.0969
  0
LINE
  8
0
 10
53.375
 20
16.0969
 11
53.375
 21
16.3469
  0
LINE
  8
0
 10
53.375
 20
16.3469
 11
54
 21
16.3469
  0
LINE
  8
0
 10
54
 20
16.3469
 11
54
 21
24.5204
  0
LINE
  8
0
 10
54
 20
24.5204
 11
53.375
 21
24.5204
  0
LINE
  8
0
 10
53.375
 20
24.5204
 11
53.375
 21
24.7704
  0
LINE
  8
0
 10
53.375
 20
24.7704
 11
53.5
 21
24.7704
  0
LINE
  8
0
 10
53.5
 20
24.7704
 11
53.5
 21
25.2704
  0
LINE
  8
0
 10
53.5
 20
25.2704
 11
53.375
 21
25.2704
  0
LINE
  8
0
 10
53.375
 20
25.2704
 11
53.375
 21
31.9439
  0
LINE
  8
0
 10
53.375
 20
31.9439
 11
53.5
 21
31.9439
  0
LINE
  8
0
 10
53.5
 20
31.9439
 11
53.5
 21
32.4439
  0
LINE
  8
0
 10
53.5
 20
32.4439
 11
53.375
 21
32.4439
  0
LINE
  8
0
 10
53.375
 20
32.4439
 11
53.375
 21
32.6939
  0
LINE
  8
0
 10
53.375
 20
32.6939
 11
54
 21
32.6939
  0
LINE
  8
0
 10
54
 20
32.6939
 11
54
 21
40.8673
  0
LINE
  8
0
 10
54
 20
40.8673
 11
53.375
 21
40.8673
  0
LINE
  8
0
 10
53.375
 20
40.8673
 11
53.375
 21
41.1173
  0
LINE
  8
0
 10
53.375
 20
41.1173
 11
53.5
 21
41.1173
  0
LINE
  8
0
 10
53.5
 20
41.1173
 11
53.5
 21
41.6173
  0
LINE
  8
0
 10
53.5
 20
41.6173
 11
53.375
 21
41.6173
  0
LINE
  8
0
 10
53.375
 20
41.6173
 11
53.375
 21
48.2908
  0
LINE
  8
0
 10
53.375
 20
48.2908
 11
53.5
 21
48.2908
  0
LINE
  8
0
 10
53.5
 20
48.2908
 11
53.5
 21
48.7908
  0
LINE
  8
0
 10
53.5
 20
48.7908
 11
53.375
 21
48.7908
  0
LINE
  8
0
 10
53.375
 20
48.7908
 11
53.375
 21
49.0408
  0
LINE
  8
0
 10
53.375
 20
49.0408
 11
50.0312
 21
49.0408
  0
LINE
  8
0
 10
50.0312
 20
49.0408
 11
50.0312
 21
48.6345
  0
LINE
  8
0
 10
50.0312
 20
48.6345
 11
50.1562
 21
48.6345
  0
LINE
  8
0
 10
50.1562
 20
48.6345
 11
50.1562
 21
48.3845
  0
LINE
  8
0
 10
50.1562
 20
48.3845
 11
49.9062
 21
48.3845
  0
LINE
  8
0
 10
49.9062
 20
48.3845
 11
49.9062
 21
48.5095
  0
LINE
  8
0
 10
49.9062
 20
48.5095
 11
49.5
 21
48.5095
  0
LINE
  8
0
 10
49.5
 20
48.5095
 11
49.5
 21
43.2408
  0
LINE
  8
0
 10
49.5
 20
43.2408
 11
50.9
 21
43.2408
  0
LINE
  8
0
 10
50.9
 20
43.2408
 11
50.9
 21
36.8408
  0
LINE
  8
0
 10
50.9
 20
36.8408
 11
49.5
 21
36.8408
  0
LINE
  8
0
 10
49.5
 20
36.8408
 11
49.5
 21
26.0437
  0
LINE
  8
0
 10
49.5
 20
26.0437
 11
49.9062
 21
26.0437
  0
LINE
  8
0
 10
49.9062
 20
26.0437
 11
49.9062
 21
26.1687
  0
LINE
  8
0
 10
49.9062
 20
26.1687
 11
50.1562
 21
26.1687
  0
LINE
  8
0
 10
50.1562
 20
26.1687
 11
50.1562
 21
25.9187
  0
LINE
  8
0
 10
50.1562
 20
25.9187
 11
50.0312
 21
25.9187
  0
LINE
  8
0
 10
50.0312
 20
25.9187
 11
50.0312
 21
25.6062
  0
LINE
  8
0
 10
50.0312
 20
25.6062
 11
50.1562
 21
25.6062
  0
LINE
  8
0
 10
50.1562
 20
25.6062
 11
50.1562
 21
25.3562
  0
LINE
  8
0
 10
50.1562
 20
25.3562
 11
49.9062
 21
25.3562
  0
LINE
  8
0
 10
49.9062
 20
25.3562
 11
49.9062
 21
25.4812
  0
LINE
  8
0
 10
49.9062
 20
25.4812
 11
49.5
 21
25.4812
  0
LINE
  8
0
 10
49.5
 20
25.4812
 11
49.5
 21
0.53125
  0
LINE
  8
0
 10
49.5
 20
0.53125
 11
49.9062
 21
0.53125
  0
LINE
  8
0
 10
49.9062
 20
0.53125
 11
49.9062
 21
0.65625
  0
LINE
  8
0
 10
49.9062
 20
0.65625
 11
50.1562
 21
0.65625
  0
LINE
  8
0
 10
50.1562
 20
0.65625
 11
50.1562
 21
0.40625
  0
LINE
  8
0
 10
50.1562
 20
0.40625
 11
50.0312
 21
0.40625
  0
LINE
  8
0
 10
50.0312
 20
0.40625
 11
50.0312
 21
0
  0
LINE
  8
0
 10
50.0312
 20
0
 11
54
 21
0
  0
LINE
  8
0
 10
54
 20
0
 11
54
 21
8.17346
  0
LINE
  8
0
 10
51.934
 20
47.1666
 11
51.87
 21
47.1837
  0
LINE
  8
0
 10
51.87
 20
47.1837
 11
51.81
 21
47.2117
  0
LINE
  8
0
 10
51.81
 20
47.2117
 11
51.7557
 21
47.2497
  0
LINE
  8
0
 10
51.7557
 20
47.2497
 11
51.7089
 21
47.2965
  0
LINE
  8
0
 10
51.7089
 20
47.2965
 11
51.6709
 21
47.3508
  0
LINE
  8
0
 10
51.6709
 20
47.3508
 11
51.6429
 21
47.4108
  0
LINE
  8
0
 10
51.6429
 20
47.4108
 11
51.6258
 21
47.4748
  0
LINE
  8
0
 10
51.6258
 20
47.4748
 11
51.62
 21
47.5408
  0
LINE
  8
0
 10
51.62
 20
47.5408
 11
51.6258
 21
47.6068
  0
LINE
  8
0
 10
51.6258
 20
47.6068
 11
51.6429
 21
47.6708
  0
LINE
  8
0
 10
51.6429
 20
47.6708
 11
51.6709
 21
47.7308
  0
LINE
  8
0
 10
51.6709
 20
47.7308
 11
51.7089
 21
47.785
  0
LINE
  8
0
 10
51.7089
 20
47.785
 11
51.7557
 21
47.8319
  0
LINE
  8
0
 10
51.7557
 20
47.8319
 11
51.81
 21
47.8699
  0
LINE
  8
0
 10
51.81
 20
47.8699
 11
51.87
 21
47.8979
  0
LINE
  8
0
 10
51.87
 20
47.8979
 11
51.934
 21
47.915
  0
LINE
  8
0
 10
51.934
 20
47.915
 11
52
 21
47.9208
  0
LINE
  8
0
 10
52
 20
47.9208
 11
52.066
 21
47.915
  0
LINE
  8
0
 10
52.066
 20
47.915
 11
52.13
 21
47.8979
  0
LINE
  8
0
 10
52.13
 20
47.8979
 11
52.19
 21
47.8699
  0
LINE
  8
0
 10
52.19
 20
47.8699
 11
52.2442
 21
47.8319
  0
LINE
  8
0
 10
52.2442
 20
47.8319
 11
52.2911
 21
47.785
  0
LINE
  8
0
 10
52.2911
 20
47.785
 11
52.3291
 21
47.7308
  0
LINE
  8
0
 10
52.3291
 20
47.7308
 11
52.3571
 21
47.6708
  0
LINE
  8
0
 10
52.3571
 20
47.6708
 11
52.3742
 21
47.6068
  0
LINE
  8
0
 10
52.3742
 20
47.6068
 11
52.38
 21
47.5408
  0
LINE
  8
0
 10
52.38
 20
47.5408
 11
52.3742
 21
47.4748
  0
LINE
  8
0
 10
52.3742
 20
47.4748
 11
52.3571
 21
47.4108
  0
LINE
  8
0
 10
52.3571
 20
47.4108
 11
52.3291
 21
47.3508
  0
LINE
  8
0
 10
52.3291
 20
47.3508
 11
52.2911
 21
47.2965
  0
LINE
  8
0
 10
52.2911
 20
47.2965
 11
52.2442
 21
47.2497
  0
LINE
  8
0
 10
52.2442
 20
47.2497
 11
52.19
 21
47.2117
  0
LINE
  8
0
 10
52.19
 20
47.2117
 11
52.13
 21
47.1837
  0
LINE
  8
0
 10
52.13
 20
47.1837
 11
52.066
 21
47.1666
  0
LINE
  8
0
 10
52.066
 20
47.1666
 11
52
 21
47.1608
  0
LINE
  8
0
 10
52
 20
47.1608
 11
51.934
 21
47.1666
  0
LINE
  8
0
 10
51.934
 20
44.1666
 11
51.87
 21
44.1837
  0
LINE
  8
0
 10
51.87
 20
44.1837
 11
51.81
 21
44.2117
  0
LINE
  8
0
 10
51.81
 20
44.2117
 11
51.7557
 21
44.2497
  0
LINE
  8
0
 10
51.7557
 20
44.2497
 11
51.7089
 21
44.2965
  0
LINE
  8
0
 10
51.7089
 20
44.2965
 11
51.6709
 21
44.3508
  0
LINE
  8
0
 10
51.6709
 20
44.3508
 11
51.6429
 21
44.4108
  0
LINE
  8
0
 10
51.6429
 20
44.4108
 11
51.6258
 21
44.4748
  0
LINE
  8
0
 10
51.6258
 20
44.4748
 11
51.62
 21
44.5408
  0
LINE
  8
0
 10
51.62
 20
44.5408
 11
51.6258
 21
44.6068
  0
LINE
  8
0
 10
51.6258
 20
44.6068
 11
51.6429
 21
44.6708
  0
LINE
  8
0
 10
51.6429
 20
44.6708
 11
51.6709
 21
44.7308
  0
LINE
  8
0
 10
51.6709
 20
44.7308
 11
51.7089
 21
44.785
  0
LINE
  8
0
 10
51.7089
 20
44.785
 11
51.7557
 21
44.8319
  0
LINE
  8
0
 10
51.7557
 20
44.8319
 11
51.81
 21
44.8699
  0
LINE
  8
0
 10
51.81
 20
44.8699
 11
51.87
 21
44.8979
  0
LINE
  8
0
 10
51.87
 20
44.8979
 11
51.934
 21
44.915
  0
LINE
  8
0
 10
51.934
 20
44.915
 11
52
 21
44.9208
  0
LINE
  8
0
 10
52
 20
44.9208
 11
52.066
 21
44.915
  0
LINE
  8
0
 10
52.066
 20
44.915
 11
52.13
 21
44.8979
  0
LINE
  8
0
 10
52.13
 20
44.8979
 11
52.19
 21
44.8699
  0
LINE
  8
0
 10
52.19
 20
44.8699
 11
52.2442
 21
44.8319
  0
LINE
  8
0
 10
52.2442
 20
44.8319
 11
52.2911
 21
44.785
  0
LINE
  8
0
 10
52.2911
 20
44.785
 11
52.3291
 21
44.7308
  0
LINE
  8
0
 10
52.3291
 20
44.7308
 11
52.3571
 21
44.6708
  0
LINE
  8
0
 10
52.3571
 20
44.6708
 11
52.3742
 21
44.6068
  0
LINE
  8
0
 10
52.3742
 20
44.6068
 11
52.38
 21
44.5408
  0
LINE
  8
0
 10
52.38
 20
44.5408
 11
52.3742
 21
44.4748
  0
LINE
  8
0
 10
52.3742
 20
44.4748
 11
52.3571
 21
44.4108
  0
LINE
  8
0
 10
52.3571
 20
44.4108
 11
52.3291
 21
44.3508
  0
LINE
  8
0
 10
52.3291
 20
44.3508
 11
52.2911
 21
44.2965
  0
LINE
  8
0
 10
52.2911
 20
44.2965
 11
52.2442
 21
44.2497
  0
LINE
  8
0
 10
52.2442
 20
44.2497
 11
52.19
 21
44.2117
  0
LINE
  8
0
 10
52.19
 20
44.2117
 11
52.13
 21
44.1837
  0
LINE
  8
0
 10
52.13
 20
44.1837
 11
52.066
 21
44.1666
  0
LINE
  8
0
 10
52.066
 20
44.1666
 11
52
 21
44.1608
  0
LINE
  8
0
 10
52
 20
44.1608
 11
51.934
 21
44.1666
  0
LINE
  8
0
 10
51.9127
 20
34.5176
 11
51.8281
 21
34.5403
  0
LINE
  8
0
 10
51.8281
 20
34.5403
 11
51.7487
 21
34.5773
  0
LINE
  8
0
 10
51.7487
 20
34.5773
 11
51.677
 21
34.6275
  0
LINE
  8
0
 10
51.677
 20
34.6275
 11
51.6151
 21
34.6895
  0
LINE
  8
0
 10
51.6151
 20
34.6895
 11
51.5648
 21
34.7612
  0
LINE
  8
0
 10
51.5648
 20
34.7612
 11
51.5278
 21
34.8406
  0
LINE
  8
0
 10
51.5278
 20
34.8406
 11
51.5051
 21
34.9252
  0
LINE
  8
0
 10
51.5051
 20
34.9252
 11
51.4975
 21
35.0125
  0
LINE
  8
0
 10
51.4975
 20
35.0125
 11
51.5051
 21
35.0997
  0
LINE
  8
0
 10
51.5051
 20
35.0997
 11
51.5278
 21
35.1844
  0
LINE
  8
0
 10
51.5278
 20
35.1844
 11
51.5648
 21
35.2637
  0
LINE
  8
0
 10
51.5648
 20
35.2637
 11
51.6151
 21
35.3355
  0
LINE
  8
0
 10
51.6151
 20
35.3355
 11
51.677
 21
35.3974
  0
LINE
  8
0
 10
51.677
 20
35.3974
 11
51.7487
 21
35.4477
  0
LINE
  8
0
 10
51.7487
 20
35.4477
 11
51.8281
 21
35.4847
  0
LINE
  8
0
 10
51.8281
 20
35.4847
 11
51.9127
 21
35.5074
  0
LINE
  8
0
 10
51.9127
 20
35.5074
 11
52
 21
35.515
  0
LINE
  8
0
 10
52
 20
35.515
 11
52.0872
 21
35.5074
  0
LINE
  8
0
 10
52.0872
 20
35.5074
 11
52.1719
 21
35.4847
  0
LINE
  8
0
 10
52.1719
 20
35.4847
 11
52.2512
 21
35.4477
  0
LINE
  8
0
 10
52.2512
 20
35.4477
 11
52.323
 21
35.3974
  0
LINE
  8
0
 10
52.323
 20
35.3974
 11
52.3849
 21
35.3355
  0
LINE
  8
0
 10
52.3849
 20
35.3355
 11
52.4352
 21
35.2637
  0
LINE
  8
0
 10
52.4352
 20
35.2637
 11
52.4722
 21
35.1844
  0
LINE
  8
0
 10
52.4722
 20
35.1844
 11
52.4949
 21
35.0997
  0
LINE
  8
0
 10
52.4949
 20
35.0997
 11
52.5025
 21
35.0125
  0
LINE
  8
0
 10
52.5025
 20
35.0125
 11
52.4949
 21
34.9252
  0
LINE
  8
0
 10
52.4949
 20
34.9252
 11
52.4722
 21
34.8406
  0
LINE
  8
0
 10
52.4722
 20
34.8406
 11
52.4352
 21
34.7612
  0
LINE
  8
0
 10
52.4352
 20
34.7612
 11
52.3849
 21
34.6895
  0
LINE
  8
0
 10
52.3849
 20
34.6895
 11
52.323
 21
34.6275
  0
LINE
  8
0
 10
52.323
 20
34.6275
 11
52.2512
 21
34.5773
  0
LINE
  8
0
 10
52.2512
 20
34.5773
 11
52.1719
 21
34.5403
  0
LINE
  8
0
 10
52.1719
 20
34.5403
 11
52.0872
 21
34.5176
  0
LINE
  8
0
 10
52.0872
 20
34.5176
 11
52
 21
34.51
  0
LINE
  8
0
 10
52
 20
34.51
 11
51.9127
 21
34.5176
  0
LINE
  8
0
 10
51.9127
 20
31.5176
 11
51.8281
 21
31.5403
  0
LINE
  8
0
 10
51.8281
 20
31.5403
 11
51.7487
 21
31.5773
  0
LINE
  8
0
 10
51.7487
 20
31.5773
 11
51.677
 21
31.6275
  0
LINE
  8
0
 10
51.677
 20
31.6275
 11
51.6151
 21
31.6895
  0
LINE
  8
0
 10
51.6151
 20
31.6895
 11
51.5648
 21
31.7612
  0
LINE
  8
0
 10
51.5648
 20
31.7612
 11
51.5278
 21
31.8406
  0
LINE
  8
0
 10
51.5278
 20
31.8406
 11
51.5051
 21
31.9252
  0
LINE
  8
0
 10
51.5051
 20
31.9252
 11
51.4975
 21
32.0125
  0
LINE
  8
0
 10
51.4975
 20
32.0125
 11
51.5051
 21
32.0997
  0
LINE
  8
0
 10
51.5051
 20
32.0997
 11
51.5278
 21
32.1844
  0
LINE
  8
0
 10
51.5278
 20
32.1844
 11
51.5648
 21
32.2637
  0
LINE
  8
0
 10
51.5648
 20
32.2637
 11
51.6151
 21
32.3355
  0
LINE
  8
0
 10
51.6151
 20
32.3355
 11
51.677
 21
32.3974
  0
LINE
  8
0
 10
51.677
 20
32.3974
 11
51.7487
 21
32.4477
  0
LINE
  8
0
 10
51.7487
 20
32.4477
 11
51.8281
 21
32.4847
  0
LINE
  8
0
 10
51.8281
 20
32.4847
 11
51.9127
 21
32.5074
  0
LINE
  8
0
 10
51.9127
 20
32.5074
 11
52
 21
32.515
  0
LINE
  8
0
 10
52
 20
32.515
 11
52.0872
 21
32.5074
  0
LINE
  8
0
 10
52.0872
 20
32.5074
 11
52.1719
 21
32.4847
  0
LINE
  8
0
 10
52.1719
 20
32.4847
 11
52.2512
 21
32.4477
  0
LINE
  8
0
 10
52.2512
 20
32.4477
 11
52.323
 21
32.3974
  0
LINE
  8
0
 10
52.323
 20
32.3974
 11
52.3849
 21
32.3355
  0
LINE
  8
0
 10
52.3849
 20
32.3355
 11
52.4352
 21
32.2637
  0
LINE
  8
0
 10
52.4352
 20
32.2637
 11
52.4722
 21
32.1844
  0
LINE
  8
0
 10
52.4722
 20
32.1844
 11
52.4949
 21
32.0997
  0
LINE
  8
0
 10
52.4949
 20
32.0997
 11
52.5025
 21
32.0125
  0
LINE
  8
0
 10
52.5025
 20
32.0125
 11
52.4949
 21
31.9252
  0
LINE
  8
0
 10
52.4949
 20
31.9252
 11
52.4722
 21
31.8406
  0
LINE
  8
0
 10
52.4722
 20
31.8406
 11
52.4352
 21
31.7612
  0
LINE
  8
0
 10
52.4352
 20
31.7612
 11
52.3849
 21
31.6895
  0
LINE
  8
0
 10
52.3849
 20
31.6895
 11
52.323
 21
31.6275
  0
LINE
  8
0
 10
52.323
 20
31.6275
 11
52.2512
 21
31.5773
  0
LINE
  8
0
 10
52.2512
 20
31.5773
 11
52.1719
 21
31.5403
  0
LINE
  8
0
 10
52.1719
 20
31.5403
 11
52.0872
 21
31.5176
  0
LINE
  8
0
 10
52.0872
 20
31.5176
 11
52
 21
31.51
  0
LINE
  8
0
 10
52
 20
31.51
 11
51.9127
 21
31.5176
  0
LINE
  8
0
 10
51.9127
 20
27.5176
 11
51.8281
 21
27.5403
  0
LINE
  8
0
 10
51.8281
 20
27.5403
 11
51.7487
 21
27.5773
  0
LINE
  8
0
 10
51.7487
 20
27.5773
 11
51.677
 21
27.6275
  0
LINE
  8
0
 10
51.677
 20
27.6275
 11
51.6151
 21
27.6895
  0
LINE
  8
0
 10
51.6151
 20
27.6895
 11
51.5648
 21
27.7612
  0
LINE
  8
0
 10
51.5648
 20
27.7612
 11
51.5278
 21
27.8406
  0
LINE
  8
0
 10
51.5278
 20
27.8406
 11
51.5051
 21
27.9252
  0
LINE
  8
0
 10
51.5051
 20
27.9252
 11
51.4975
 21
28.0125
  0
LINE
  8
0
 10
51.4975
 20
28.0125
 11
51.5051
 21
28.0997
  0
LINE
  8
0
 10
51.5051
 20
28.0997
 11
51.5278
 21
28.1844
  0
LINE
  8
0
 10
51.5278
 20
28.1844
 11
51.5648
 21
28.2637
  0
LINE
  8
0
 10
51.5648
 20
28.2637
 11
51.6151
 21
28.3355
  0
LINE
  8
0
 10
51.6151
 20
28.3355
 11
51.677
 21
28.3974
  0
LINE
  8
0
 10
51.677
 20
28.3974
 11
51.7487
 21
28.4477
  0
LINE
  8
0
 10
51.7487
 20
28.4477
 11
51.8281
 21
28.4847
  0
LINE
  8
0
 10
51.8281
 20
28.4847
 11
51.9127
 21
28.5074
  0
LINE
  8
0
 10
51.9127
 20
28.5074
 11
52
 21
28.515
  0
LINE
  8
0
 10
52
 20
28.515
 11
52.0872
 21
28.5074
  0
LINE
  8
0
 10
52.0872
 20
28.5074
 11
52.1719
 21
28.4847
  0
LINE
  8
0
 10
52.1719
 20
28.4847
 11
52.2512
 21
28.4477
  0
LINE
  8
0
 10
52.2512
 20
28.4477
 11
52.323
 21
28.3974
  0
LINE
  8
0
 10
52.323
 20
28.3974
 11
52.3849
 21
28.3355
  0
LINE
  8
0
 10
52.3849
 20
28.3355
 11
52.4352
 21
28.2637
  0
LINE
  8
0
 10
52.4352
 20
28.2637
 11
52.4722
 21
28.1844
  0
LINE
  8
0
 10
52.4722
 20
28.1844
 11
52.4949
 21
28.0997
  0
LINE
  8
0
 10
52.4949
 20
28.0997
 11
52.5025
 21
28.0125
  0
LINE
  8
0
 10
52.5025
 20
28.0125
 11
52.4949
 21
27.9252
  0
LINE
  8
0
 10
52.4949
 20
27.9252
 11
52.4722
 21
27.8406
  0
LINE
  8
0
 10
52.4722
 20
27.8406
 11
52.4352
 21
27.7612
  0
LINE
  8
0
 10
52.4352
 20
27.7612
 11
52.3849
 21
27.6895
  0
LINE
  8
0
 10
52.3849
 20
27.6895
 11
52.323
 21
27.6275
  0
LINE
  8
0
 10
52.323
 20
27.6275
 11
52.2512
 21
27.5773
  0
LINE
  8
0
 10
52.2512
 20
27.5773
 11
52.1719
 21
27.5403
  0
LINE
  8
0
 10
52.1719
 20
27.5403
 11
52.0872
 21
27.5176
  0
LINE
  8
0
 10
52.0872
 20
27.5176
 11
52
 21
27.51
  0
LINE
  8
0
 10
52
 20
27.51
 11
51.9127
 21
27.5176
  0
LINE
  8
0
 10
51.934
 20
5.62576
 11
51.87
 21
5.64291
  0
LINE
  8
0
 10
51.87
 20
5.64291
 11
51.81
 21
5.6709
  0
LINE
  8
0
 10
51.81
 20
5.6709
 11
51.7557
 21
5.70889
  0
LINE
  8
0
 10
51.7557
 20
5.70889
 11
51.7089
 21
5.75574
  0
LINE
  8
0
 10
51.7089
 20
5.75574
 11
51.6709
 21
5.81
  0
LINE
  8
0
 10
51.6709
 20
5.81
 11
51.6429
 21
5.87003
  0
LINE
  8
0
 10
51.6429
 20
5.87003
 11
51.6258
 21
5.93401
  0
LINE
  8
0
 10
51.6258
 20
5.93401
 11
51.62
 21
6
  0
LINE
  8
0
 10
51.62
 20
6
 11
51.6258
 21
6.06598
  0
LINE
  8
0
 10
51.6258
 20
6.06598
 11
51.6429
 21
6.12996
  0
LINE
  8
0
 10
51.6429
 20
6.12996
 11
51.6709
 21
6.18999
  0
LINE
  8
0
 10
51.6709
 20
6.18999
 11
51.7089
 21
6.24425
  0
LINE
  8
0
 10
51.7089
 20
6.24425
 11
51.7557
 21
6.29109
  0
LINE
  8
0
 10
51.7557
 20
6.29109
 11
51.81
 21
6.32909
  0
LINE
  8
0
 10
51.81
 20
6.32909
 11
51.87
 21
6.35707
  0
LINE
  8
0
 10
51.87
 20
6.35707
 11
51.934
 21
6.37422
  0
LINE
  8
0
 10
51.934
 20
6.37422
 11
52
 21
6.37999
  0
LINE
  8
0
 10
52
 20
6.37999
 11
52.066
 21
6.37422
  0
LINE
  8
0
 10
52.066
 20
6.37422
 11
52.13
 21
6.35707
  0
LINE
  8
0
 10
52.13
 20
6.35707
 11
52.19
 21
6.32909
  0
LINE
  8
0
 10
52.19
 20
6.32909
 11
52.2442
 21
6.29109
  0
LINE
  8
0
 10
52.2442
 20
6.29109
 11
52.2911
 21
6.24425
  0
LINE
  8
0
 10
52.2911
 20
6.24425
 11
52.3291
 21
6.18999
  0
LINE
  8
0
 10
52.3291
 20
6.18999
 11
52.3571
 21
6.12996
  0
LINE
  8
0
 10
52.3571
 20
6.12996
 11
52.3742
 21
6.06598
  0
LINE
  8
0
 10
52.3742
 20
6.06598
 11
52.38
 21
6
  0
LINE
  8
0
 10
52.38
 20
6
 11
52.3742
 21
5.93401
  0
LINE
  8
0
 10
52.3742
 20
5.93401
 11
52.3571
 21
5.87003
  0
LINE
  8
0
 10
52.3571
 20
5.87003
 11
52.3291
 21
5.81
  0
LINE
  8
0
 10
52.3291
 20
5.81
 11
52.2911
 21
5.75574
  0
LINE
  8
0
 10
52.2911
 20
5.75574
 11
52.2442
 21
5.70889
  0
LINE
  8
0
 10
52.2442
 20
5.70889
 11
52.19
 21
5.6709
  0
LINE
  8
0
 10
52.19
 20
5.6709
 11
52.13
 21
5.64291
  0
LINE
  8
0
 10
52.13
 20
5.64291
 11
52.066
 21
5.62576
  0
LINE
  8
0
 10
52.066
 20
5.62576
 11
52
 21
5.62
  0
LINE
  8
0
 10
52
 20
5.62
 11
51.934
 21
5.62576
  0
LINE
  8
0
 10
51.934
 20
1.62576
 11
51.87
 21
1.64291
  0
LINE
  8
0
 10
51.87
 20
1.64291
 11
51.81
 21
1.6709
  0
LINE
  8
0
 10
51.81
 20
1.6709
 11
51.7557
 21
1.70889
  0
LINE
  8
0
 10
51.7557
 20
1.70889
 11
51.7089
 21
1.75574
  0
LINE
  8
0
 10
51.7089
 20
1.75574
 11
51.6709
 21
1.81
  0
LINE
  8
0
 10
51.6709
 20
1.81
 11
51.6429
 21
1.87003
  0
LINE
  8
0
 10
51.6429
 20
1.87003
 11
51.6258
 21
1.93401
  0
LINE
  8
0
 10
51.6258
 20
1.93401
 11
51.62
 21
2
  0
LINE
  8
0
 10
51.62
 20
2
 11
51.6258
 21
2.06598
  0
LINE
  8
0
 10
51.6258
 20
2.06598
 11
51.6429
 21
2.12996
  0
LINE
  8
0
 10
51.6429
 20
2.12996
 11
51.6709
 21
2.18999
  0
LINE
  8
0
 10
51.6709
 20
2.18999
 11
51.7089
 21
2.24425
  0
LINE
  8
0
 10
51.7089
 20
2.24425
 11
51.7557
 21
2.29109
  0
LINE
  8
0
 10
51.7557
 20
2.29109
 11
51.81
 21
2.32909
  0
LINE
  8
0
 10
51.81
 20
2.32909
 11
51.87
 21
2.35707
  0
LINE
  8
0
 10
51.87
 20
2.35707
 11
51.934
 21
2.37422
  0
LINE
  8
0
 10
51.934
 20
2.37422
 11
52
 21
2.37999
  0
LINE
  8
0
 10
52
 20
2.37999
 11
52.066
 21
2.37422
  0
LINE
  8
0
 10
52.066
 20
2.37422
 11
52.13
 21
2.35707
  0
LINE
  8
0
 10
52.13
 20
2.35707
 11
52.19
 21
2.32909
  0
LINE
  8
0
 10
52.19
 20
2.32909
 11
52.2442
 21
2.29109
  0
LINE
  8
0
 10
52.2442
 20
2.29109
 11
52.2911
 21
2.24425
  0
LINE
  8
0
 10
52.2911
 20
2.24425
 11
52.3291
 21
2.18999
  0
LINE
  8
0
 10
52.3291
 20
2.18999
 11
52.3571
 21
2.12996
  0
LINE
  8
0
 10
52.3571
 20
2.12996
 11
52.3742
 21
2.06598
  0
LINE
  8
0
 10
52.3742
 20
2.06598
 11
52.38
 21
2
  0
LINE
  8
0
 10
52.38
 20
2
 11
52.3742
 21
1.93401
  0
LINE
  8
0
 10
52.3742
 20
1.93401
 11
52.3571
 21
1.87003
  0
LINE
  8
0
 10
52.3571
 20
1.87003
 11
52.3291
 21
1.81
  0
LINE
  8
0
 10
52.3291
 20
1.81
 11
52.2911
 21
1.75574
  0
LINE
  8
0
 10
52.2911
 20
1.75574
 11
52.2442
 21
1.70889
  0
LINE
  8
0
 10
52.2442
 20
1.70889
 11
52.19
 21
1.6709
  0
LINE
  8
0
 10
52.19
 20
1.6709
 11
52.13
 21
1.64291
  0
LINE
  8
0
 10
52.13
 20
1.64291
 11
52.066
 21
1.62576
  0
LINE
  8
0
 10
52.066
 20
1.62576
 11
52
 21
1.62
  0
LINE
  8
0
 10
52
 20
1.62
 11
51.934
 21
1.62576
  0
LINE
  8
0
 10
47.875
 20
0.249985
 11
48
 21
0.249985
  0
LINE
  8
0
 10
48
 20
0.249985
 11
48
 21
0.749985
  0
LINE
  8
0
 10
48
 20
0.749985
 11
47.875
 21
0.749985
  0
LINE
  8
0
 10
47.875
 20
0.749985
 11
47.875
 21
7.42346
  0
LINE
  8
0
 10
47.875
 20
7.42346
 11
48
 21
7.42346
  0
LINE
  8
0
 10
48
 20
7.42346
 11
48
 21
7.92346
  0
LINE
  8
0
 10
48
 20
7.92346
 11
47.875
 21
7.92346
  0
LINE
  8
0
 10
47.875
 20
7.92346
 11
47.875
 21
8.17346
  0
LINE
  8
0
 10
47.875
 20
8.17346
 11
48.5
 21
8.17346
  0
LINE
  8
0
 10
48.5
 20
8.17346
 11
48.5
 21
16.3469
  0
LINE
  8
0
 10
48.5
 20
16.3469
 11
47.875
 21
16.3469
  0
LINE
  8
0
 10
47.875
 20
16.3469
 11
47.875
 21
16.5969
  0
LINE
  8
0
 10
47.875
 20
16.5969
 11
48
 21
16.5969
  0
LINE
  8
0
 10
48
 20
16.5969
 11
48
 21
17.0969
  0
LINE
  8
0
 10
48
 20
17.0969
 11
47.875
 21
17.0969
  0
LINE
  8
0
 10
47.875
 20
17.0969
 11
47.875
 21
23.7704
  0
LINE
  8
0
 10
47.875
 20
23.7704
 11
48
 21
23.7704
  0
LINE
  8
0
 10
48
 20
23.7704
 11
48
 21
24.2704
  0
LINE
  8
0
 10
48
 20
24.2704
 11
47.875
 21
24.2704
  0
LINE
  8
0
 10
47.875
 20
24.2704
 11
47.875
 21
24.5204
  0
LINE
  8
0
 10
47.875
 20
24.5204
 11
48.5
 21
24.5204
  0
LINE
  8
0
 10
48.5
 20
24.5204
 11
48.5
 21
32.6939
  0
LINE
  8
0
 10
48.5
 20
32.6939
 11
47.875
 21
32.6939
  0
LINE
  8
0
 10
47.875
 20
32.6939
 11
47.875
 21
32.9439
  0
LINE
  8
0
 10
47.875
 20
32.9439
 11
48
 21
32.9439
  0
LINE
  8
0
 10
48
 20
32.9439
 11
48
 21
33.4439
  0
LINE
  8
0
 10
48
 20
33.4439
 11
47.875
 21
33.4439
  0
LINE
  8
0
 10
47.875
 20
33.4439
 11
47.875
 21
40.1173
  0
LINE
  8
0
 10
47.875
 20
40.1173
 11
48
 21
40.1173
  0
LINE
  8
0
 10
48
 20
40.1173
 11
48
 21
40.6173
  0
LINE
  8
0
 10
48
 20
40.6173
 11
47.875
 21
40.6173
  0
LINE
  8
0
 10
47.875
 20
40.6173
 11
47.875
 21
40.8673
  0
LINE
  8
0
 10
47.875
 20
40.8673
 11
48.5
 21
40.8673
  0
LINE
  8
0
 10
48.5
 20
40.8673
 11
48.5
 21
49.0408
  0
LINE
  8
0
 10
48.5
 20
49.0408
 11
42.5
 21
49.0408
  0
LINE
  8
0
 10
42.5
 20
49.0408
 11
42.5
 21
40.8673
  0
LINE
  8
0
 10
42.5
 20
40.8673
 11
43.125
 21
40.8673
  0
LINE
  8
0
 10
43.125
 20
40.8673
 11
43.125
 21
40.6173
  0
LINE
  8
0
 10
43.125
 20
40.6173
 11
43
 21
40.6173
  0
LINE
  8
0
 10
43
 20
40.6173
 11
43
 21
40.1173
  0
LINE
  8
0
 10
43
 20
40.1173
 11
43.125
 21
40.1173
  0
LINE
  8
0
 10
43.125
 20
40.1173
 11
43.125
 21
33.4439
  0
LINE
  8
0
 10
43.125
 20
33.4439
 11
43
 21
33.4439
  0
LINE
  8
0
 10
43
 20
33.4439
 11
43
 21
32.9439
  0
LINE
  8
0
 10
43
 20
32.9439
 11
43.125
 21
32.9439
  0
LINE
  8
0
 10
43.125
 20
32.9439
 11
43.125
 21
32.6939
  0
LINE
  8
0
 10
43.125
 20
32.6939
 11
42.5
 21
32.6939
  0
LINE
  8
0
 10
42.5
 20
32.6939
 11
42.5
 21
24.5204
  0
LINE
  8
0
 10
42.5
 20
24.5204
 11
43.125
 21
24.5204
  0
LINE
  8
0
 10
43.125
 20
24.5204
 11
43.125
 21
24.2704
  0
LINE
  8
0
 10
43.125
 20
24.2704
 11
43
 21
24.2704
  0
LINE
  8
0
 10
43
 20
24.2704
 11
43
 21
23.7704
  0
LINE
  8
0
 10
43
 20
23.7704
 11
43.125
 21
23.7704
  0
LINE
  8
0
 10
43.125
 20
23.7704
 11
43.125
 21
17.0969
  0
LINE
  8
0
 10
43.125
 20
17.0969
 11
43
 21
17.0969
  0
LINE
  8
0
 10
43
 20
17.0969
 11
43
 21
16.5969
  0
LINE
  8
0
 10
43
 20
16.5969
 11
43.125
 21
16.5969
  0
LINE
  8
0
 10
43.125
 20
16.5969
 11
43.125
 21
16.3469
  0
LINE
  8
0
 10
43.125
 20
16.3469
 11
42.5
 21
16.3469
  0
LINE
  8
0
 10
42.5
 20
16.3469
 11
42.5
 21
8.17346
  0
LINE
  8
0
 10
42.5
 20
8.17346
 11
43.125
 21
8.17346
  0
LINE
  8
0
 10
43.125
 20
8.17346
 11
43.125
 21
7.92346
  0
LINE
  8
0
 10
43.125
 20
7.92346
 11
43
 21
7.92346
  0
LINE
  8
0
 10
43
 20
7.92346
 11
43
 21
7.42346
  0
LINE
  8
0
 10
43
 20
7.42346
 11
43.125
 21
7.42346
  0
LINE
  8
0
 10
43.125
 20
7.42346
 11
43.125
 21
0.75
  0
LINE
  8
0
 10
43.125
 20
0.75
 11
43
 21
0.75
  0
LINE
  8
0
 10
43
 20
0.75
 11
43
 21
0.25
  0
LINE
  8
0
 10
43
 20
0.25
 11
43.125
 21
0.25
  0
LINE
  8
0
 10
43.125
 20
0.25
 11
43.125
 21
0
  0
LINE
  8
0
 10
43.125
 20
0
 11
47.875
 21
0
  0
LINE
  8
0
 10
47.875
 20
0
 11
47.875
 21
0.249985
  0
LINE
  8
0
 10
45.4132
 20
35.3901
 11
45.329
 21
35.4126
  0
LINE
  8
0
 10
45.329
 20
35.4126
 11
45.25
 21
35.4495
  0
LINE
  8
0
 10
45.25
 20
35.4495
 11
45.1786
 21
35.4995
  0
LINE
  8
0
 10
45.1786
 20
35.4995
 11
45.117
 21
35.5611
  0
LINE
  8
0
 10
45.117
 20
35.5611
 11
45.067
 21
35.6325
  0
LINE
  8
0
 10
45.067
 20
35.6325
 11
45.0302
 21
35.7115
  0
LINE
  8
0
 10
45.0302
 20
35.7115
 11
45.0076
 21
35.7957
  0
LINE
  8
0
 10
45.0076
 20
35.7957
 11
45
 21
35.8825
  0
LINE
  8
0
 10
45
 20
35.8825
 11
45
 21
36.1425
  0
LINE
  8
0
 10
45
 20
36.1425
 11
45.0076
 21
36.2293
  0
LINE
  8
0
 10
45.0076
 20
36.2293
 11
45.0302
 21
36.3135
  0
LINE
  8
0
 10
45.0302
 20
36.3135
 11
45.067
 21
36.3925
  0
LINE
  8
0
 10
45.067
 20
36.3925
 11
45.117
 21
36.4639
  0
LINE
  8
0
 10
45.117
 20
36.4639
 11
45.1786
 21
36.5255
  0
LINE
  8
0
 10
45.1786
 20
36.5255
 11
45.25
 21
36.5755
  0
LINE
  8
0
 10
45.25
 20
36.5755
 11
45.329
 21
36.6123
  0
LINE
  8
0
 10
45.329
 20
36.6123
 11
45.4132
 21
36.6349
  0
LINE
  8
0
 10
45.4132
 20
36.6349
 11
45.5
 21
36.6425
  0
LINE
  8
0
 10
45.5
 20
36.6425
 11
45.5868
 21
36.6349
  0
LINE
  8
0
 10
45.5868
 20
36.6349
 11
45.671
 21
36.6123
  0
LINE
  8
0
 10
45.671
 20
36.6123
 11
45.75
 21
36.5755
  0
LINE
  8
0
 10
45.75
 20
36.5755
 11
45.8214
 21
36.5255
  0
LINE
  8
0
 10
45.8214
 20
36.5255
 11
45.883
 21
36.4639
  0
LINE
  8
0
 10
45.883
 20
36.4639
 11
45.933
 21
36.3925
  0
LINE
  8
0
 10
45.933
 20
36.3925
 11
45.9698
 21
36.3135
  0
LINE
  8
0
 10
45.9698
 20
36.3135
 11
45.9924
 21
36.2293
  0
LINE
  8
0
 10
45.9924
 20
36.2293
 11
46
 21
36.1425
  0
LINE
  8
0
 10
46
 20
36.1425
 11
46
 21
35.8825
  0
LINE
  8
0
 10
46
 20
35.8825
 11
45.9924
 21
35.7957
  0
LINE
  8
0
 10
45.9924
 20
35.7957
 11
45.9698
 21
35.7115
  0
LINE
  8
0
 10
45.9698
 20
35.7115
 11
45.933
 21
35.6325
  0
LINE
  8
0
 10
45.933
 20
35.6325
 11
45.883
 21
35.5611
  0
LINE
  8
0
 10
45.883
 20
35.5611
 11
45.8214
 21
35.4995
  0
LINE
  8
0
 10
45.8214
 20
35.4995
 11
45.75
 21
35.4495
  0
LINE
  8
0
 10
45.75
 20
35.4495
 11
45.671
 21
35.4126
  0
LINE
  8
0
 10
45.671
 20
35.4126
 11
45.5868
 21
35.3901
  0
LINE
  8
0
 10
45.5868
 20
35.3901
 11
45.5
 21
35.3825
  0
LINE
  8
0
 10
45.5
 20
35.3825
 11
45.4132
 21
35.3901
  0
LINE
  8
0
 10
45.4132
 20
28.3901
 11
45.329
 21
28.4126
  0
LINE
  8
0
 10
45.329
 20
28.4126
 11
45.25
 21
28.4495
  0
LINE
  8
0
 10
45.25
 20
28.4495
 11
45.1786
 21
28.4995
  0
LINE
  8
0
 10
45.1786
 20
28.4995
 11
45.117
 21
28.5611
  0
LINE
  8
0
 10
45.117
 20
28.5611
 11
45.067
 21
28.6325
  0
LINE
  8
0
 10
45.067
 20
28.6325
 11
45.0302
 21
28.7115
  0
LINE
  8
0
 10
45.0302
 20
28.7115
 11
45.0076
 21
28.7957
  0
LINE
  8
0
 10
45.0076
 20
28.7957
 11
45
 21
28.8825
  0
LINE
  8
0
 10
45
 20
28.8825
 11
45
 21
29.1425
  0
LINE
  8
0
 10
45
 20
29.1425
 11
45.0076
 21
29.2293
  0
LINE
  8
0
 10
45.0076
 20
29.2293
 11
45.0302
 21
29.3135
  0
LINE
  8
0
 10
45.0302
 20
29.3135
 11
45.067
 21
29.3925
  0
LINE
  8
0
 10
45.067
 20
29.3925
 11
45.117
 21
29.4639
  0
LINE
  8
0
 10
45.117
 20
29.4639
 11
45.1786
 21
29.5255
  0
LINE
  8
0
 10
45.1786
 20
29.5255
 11
45.25
 21
29.5755
  0
LINE
  8
0
 10
45.25
 20
29.5755
 11
45.329
 21
29.6123
  0
LINE
  8
0
 10
45.329
 20
29.6123
 11
45.4132
 21
29.6349
  0
LINE
  8
0
 10
45.4132
 20
29.6349
 11
45.5
 21
29.6425
  0
LINE
  8
0
 10
45.5
 20
29.6425
 11
45.5868
 21
29.6349
  0
LINE
  8
0
 10
45.5868
 20
29.6349
 11
45.671
 21
29.6123
  0
LINE
  8
0
 10
45.671
 20
29.6123
 11
45.75
 21
29.5755
  0
LINE
  8
0
 10
45.75
 20
29.5755
 11
45.8214
 21
29.5255
  0
LINE
  8
0
 10
45.8214
 20
29.5255
 11
45.883
 21
29.4639
  0
LINE
  8
0
 10
45.883
 20
29.4639
 11
45.933
 21
29.3925
  0
LINE
  8
0
 10
45.933
 20
29.3925
 11
45.9698
 21
29.3135
  0
LINE
  8
0
 10
45.9698
 20
29.3135
 11
45.9924
 21
29.2293
  0
LINE
  8
0
 10
45.9924
 20
29.2293
 11
46
 21
29.1425
  0
LINE
  8
0
 10
46
 20
29.1425
 11
46
 21
28.8825
  0
LINE
  8
0
 10
46
 20
28.8825
 11
45.9924
 21
28.7957
  0
LINE
  8
0
 10
45.9924
 20
28.7957
 11
45.9698
 21
28.7115
  0
LINE
  8
0
 10
45.9698
 20
28.7115
 11
45.933
 21
28.6325
  0
LINE
  8
0
 10
45.933
 20
28.6325
 11
45.883
 21
28.5611
  0
LINE
  8
0
 10
45.883
 20
28.5611
 11
45.8214
 21
28.4995
  0
LINE
  8
0
 10
45.8214
 20
28.4995
 11
45.75
 21
28.4495
  0
LINE
  8
0
 10
45.75
 20
28.4495
 11
45.671
 21
28.4126
  0
LINE
  8
0
 10
45.671
 20
28.4126
 11
45.5868
 21
28.3901
  0
LINE
  8
0
 10
45.5868
 20
28.3901
 11
45.5
 21
28.3825
  0
LINE
  8
0
 10
45.5
 20
28.3825
 11
45.4132
 21
28.3901
  0
LINE
  8
0
 10
31.5
 20
4
 11
30.875
 21
4
  0
LINE
  8
0
 10
30.875
 20
4
 11
30.875
 21
5
  0
LINE
  8
0
 10
30.875
 20
5
 11
31
 21
5
  0
LINE
  8
0
 10
31
 20
5
 11
31
 21
6
  0
LINE
  8
0
 10
31
 20
6
 11
30.875
 21
6
  0
LINE
  8
0
 10
30.875
 20
6
 11
30.875
 21
18.0942
  0
LINE
  8
0
 10
30.875
 20
18.0942
 11
31
 21
18.0942
  0
LINE
  8
0
 10
31
 20
18.0942
 11
31
 21
19.0942
  0
LINE
  8
0
 10
31
 20
19.0942
 11
30.875
 21
19.0942
  0
LINE
  8
0
 10
30.875
 20
19.0942
 11
30.875
 21
20.0942
  0
LINE
  8
0
 10
30.875
 20
20.0942
 11
31.5
 21
20.0942
  0
LINE
  8
0
 10
31.5
 20
20.0942
 11
31.5
 21
22.0942
  0
LINE
  8
0
 10
31.5
 20
22.0942
 11
30.875
 21
22.0942
  0
LINE
  8
0
 10
30.875
 20
22.0942
 11
30.875
 21
23.0942
  0
LINE
  8
0
 10
30.875
 20
23.0942
 11
31
 21
23.0942
  0
LINE
  8
0
 10
31
 20
23.0942
 11
31
 21
24.0942
  0
LINE
  8
0
 10
31
 20
24.0942
 11
30.875
 21
24.0942
  0
LINE
  8
0
 10
30.875
 20
24.0942
 11
30.875
 21
36.1884
  0
LINE
  8
0
 10
30.875
 20
36.1884
 11
31
 21
36.1884
  0
LINE
  8
0
 10
31
 20
36.1884
 11
31
 21
37.1884
  0
LINE
  8
0
 10
31
 20
37.1884
 11
30.875
 21
37.1884
  0
LINE
  8
0
 10
30.875
 20
37.1884
 11
30.875
 21
38.1884
  0
LINE
  8
0
 10
30.875
 20
38.1884
 11
31.5
 21
38.1884
  0
LINE
  8
0
 10
31.5
 20
38.1884
 11
31.5
 21
42.1884
  0
LINE
  8
0
 10
31.5
 20
42.1884
 11
28
 21
42.1884
  0
LINE
  8
0
 10
28
 20
42.1884
 11
28
 21
0
  0
LINE
  8
0
 10
28
 20
0
 11
31.5
 21
0
  0
LINE
  8
0
 10
31.5
 20
0
 11
31.5
 21
4
  0
LINE
  8
0
 10
29.4132
 20
39.696
 11
29.329
 21
39.7186
  0
LINE
  8
0
 10
29.329
 20
39.7186
 11
29.25
 21
39.7554
  0
LINE
  8
0
 10
29.25
 20
39.7554
 11
29.1786
 21
39.8054
  0
LINE
  8
0
 10
29.1786
 20
39.8054
 11
29.117
 21
39.867
  0
LINE
  8
0
 10
29.117
 20
39.867
 11
29.067
 21
39.9384
  0
LINE
  8
0
 10
29.067
 20
39.9384
 11
29.0302
 21
40.0174
  0
LINE
  8
0
 10
29.0302
 20
40.0174
 11
29.0076
 21
40.1016
  0
LINE
  8
0
 10
29.0076
 20
40.1016
 11
29
 21
40.1884
  0
LINE
  8
0
 10
29
 20
40.1884
 11
29.0076
 21
40.2752
  0
LINE
  8
0
 10
29.0076
 20
40.2752
 11
29.0302
 21
40.3594
  0
LINE
  8
0
 10
29.0302
 20
40.3594
 11
29.067
 21
40.4384
  0
LINE
  8
0
 10
29.067
 20
40.4384
 11
29.117
 21
40.5098
  0
LINE
  8
0
 10
29.117
 20
40.5098
 11
29.1786
 21
40.5714
  0
LINE
  8
0
 10
29.1786
 20
40.5714
 11
29.25
 21
40.6214
  0
LINE
  8
0
 10
29.25
 20
40.6214
 11
29.329
 21
40.6582
  0
LINE
  8
0
 10
29.329
 20
40.6582
 11
29.4132
 21
40.6808
  0
LINE
  8
0
 10
29.4132
 20
40.6808
 11
29.5
 21
40.6884
  0
LINE
  8
0
 10
29.5
 20
40.6884
 11
29.5868
 21
40.6808
  0
LINE
  8
0
 10
29.5868
 20
40.6808
 11
29.671
 21
40.6582
  0
LINE
  8
0
 10
29.671
 20
40.6582
 11
29.75
 21
40.6214
  0
LINE
  8
0
 10
29.75
 20
40.6214
 11
29.8214
 21
40.5714
  0
LINE
  8
0
 10
29.8214
 20
40.5714
 11
29.883
 21
40.5098
  0
LINE
  8
0
 10
29.883
 20
40.5098
 11
29.933
 21
40.4384
  0
LINE
  8
0
 10
29.933
 20
40.4384
 11
29.9698
 21
40.3594
  0
LINE
  8
0
 10
29.9698
 20
40.3594
 11
29.9924
 21
40.2752
  0
LINE
  8
0
 10
29.9924
 20
40.2752
 11
30
 21
40.1884
  0
LINE
  8
0
 10
30
 20
40.1884
 11
29.9924
 21
40.1016
  0
LINE
  8
0
 10
29.9924
 20
40.1016
 11
29.9698
 21
40.0174
  0
LINE
  8
0
 10
29.9698
 20
40.0174
 11
29.933
 21
39.9384
  0
LINE
  8
0
 10
29.933
 20
39.9384
 11
29.883
 21
39.867
  0
LINE
  8
0
 10
29.883
 20
39.867
 11
29.8214
 21
39.8054
  0
LINE
  8
0
 10
29.8214
 20
39.8054
 11
29.75
 21
39.7554
  0
LINE
  8
0
 10
29.75
 20
39.7554
 11
29.671
 21
39.7186
  0
LINE
  8
0
 10
29.671
 20
39.7186
 11
29.5868
 21
39.696
  0
LINE
  8
0
 10
29.5868
 20
39.696
 11
29.5
 21
39.6884
  0
LINE
  8
0
 10
29.5
 20
39.6884
 11
29.4132
 21
39.696
  0
LINE
  8
0
 10
29.4132
 20
1.50758
 11
29.329
 21
1.53015
  0
LINE
  8
0
 10
29.329
 20
1.53015
 11
29.25
 21
1.56699
  0
LINE
  8
0
 10
29.25
 20
1.56699
 11
29.1786
 21
1.61697
  0
LINE
  8
0
 10
29.1786
 20
1.61697
 11
29.117
 21
1.6786
  0
LINE
  8
0
 10
29.117
 20
1.6786
 11
29.067
 21
1.75
  0
LINE
  8
0
 10
29.067
 20
1.75
 11
29.0302
 21
1.82898
  0
LINE
  8
0
 10
29.0302
 20
1.82898
 11
29.0076
 21
1.91316
  0
LINE
  8
0
 10
29.0076
 20
1.91316
 11
29
 21
2
  0
LINE
  8
0
 10
29
 20
2
 11
29.0076
 21
2.08682
  0
LINE
  8
0
 10
29.0076
 20
2.08682
 11
29.0302
 21
2.17101
  0
LINE
  8
0
 10
29.0302
 20
2.17101
 11
29.067
 21
2.25
  0
LINE
  8
0
 10
29.067
 20
2.25
 11
29.117
 21
2.32138
  0
LINE
  8
0
 10
29.117
 20
2.32138
 11
29.1786
 21
2.38301
  0
LINE
  8
0
 10
29.1786
 20
2.38301
 11
29.25
 21
2.433
  0
LINE
  8
0
 10
29.25
 20
2.433
 11
29.329
 21
2.46983
  0
LINE
  8
0
 10
29.329
 20
2.46983
 11
29.4132
 21
2.4924
  0
LINE
  8
0
 10
29.4132
 20
2.4924
 11
29.5
 21
2.5
  0
LINE
  8
0
 10
29.5
 20
2.5
 11
29.5868
 21
2.4924
  0
LINE
  8
0
 10
29.5868
 20
2.4924
 11
29.671
 21
2.46983
  0
LINE
  8
0
 10
29.671
 20
2.46983
 11
29.75
 21
2.433
  0
LINE
  8
0
 10
29.75
 20
2.433
 11
29.8214
 21
2.38301
  0
LINE
  8
0
 10
29.8214
 20
2.38301
 11
29.883
 21
2.32138
  0
LINE
  8
0
 10
29.883
 20
2.32138
 11
29.933
 21
2.25
  0
LINE
  8
0
 10
29.933
 20
2.25
 11
29.9698
 21
2.17101
  0
LINE
  8
0
 10
29.9698
 20
2.17101
 11
29.9924
 21
2.08682
  0
LINE
  8
0
 10
29.9924
 20
2.08682
 11
30
 21
2
  0
LINE
  8
0
 10
30
 20
2
 11
29.9924
 21
1.91316
  0
LINE
  8
0
 10
29.9924
 20
1.91316
 11
29.9698
 21
1.82898
  0
LINE
  8
0
 10
29.9698
 20
1.82898
 11
29.933
 21
1.75
  0
LINE
  8
0
 10
29.933
 20
1.75
 11
29.883
 21
1.6786
  0
LINE
  8
0
 10
29.883
 20
1.6786
 11
29.8214
 21
1.61697
  0
LINE
  8
0
 10
29.8214
 20
1.61697
 11
29.75
 21
1.56699
  0
LINE
  8
0
 10
29.75
 20
1.56699
 11
29.671
 21
1.53015
  0
LINE
  8
0
 10
29.671
 20
1.53015
 11
29.5868
 21
1.50758
  0
LINE
  8
0
 10
29.5868
 20
1.50758
 11
29.5
 21
1.5
  0
LINE
  8
0
 10
29.5
 20
1.5
 11
29.4132
 21
1.50758
  0
LINE
  8
0
 10
16
 20
21.9067
 11
16.4375
 21
21.9067
  0
LINE
  8
0
 10
16.4375
 20
21.9067
 11
16.4375
 21
22.0317
  0
LINE
  8
0
 10
16.4375
 20
22.0317
 11
16.6875
 21
22.0317
  0
LINE
  8
0
 10
16.6875
 20
22.0317
 11
16.6875
 21
21.7817
  0
LINE
  8
0
 10
16.6875
 20
21.7817
 11
16.5625
 21
21.7817
  0
LINE
  8
0
 10
16.5625
 20
21.7817
 11
16.5625
 21
19.9067
  0
LINE
  8
0
 10
16.5625
 20
19.9067
 11
16.6875
 21
19.9067
  0
LINE
  8
0
 10
16.6875
 20
19.9067
 11
16.6875
 21
19.6567
  0
LINE
  8
0
 10
16.6875
 20
19.6567
 11
16.4375
 21
19.6567
  0
LINE
  8
0
 10
16.4375
 20
19.6567
 11
16.4375
 21
19.7817
  0
LINE
  8
0
 10
16.4375
 20
19.7817
 11
16
 21
19.7817
  0
LINE
  8
0
 10
16
 20
19.7817
 11
16
 21
3.75
  0
LINE
  8
0
 10
16
 20
3.75
 11
16.625
 21
3.75
  0
LINE
  8
0
 10
16.625
 20
3.75
 11
16.625
 21
3.625
  0
LINE
  8
0
 10
16.625
 20
3.625
 11
16.5
 21
3.625
  0
LINE
  8
0
 10
16.5
 20
3.625
 11
16.5
 21
2.625
  0
LINE
  8
0
 10
16.5
 20
2.625
 11
16.625
 21
2.625
  0
LINE
  8
0
 10
16.625
 20
2.625
 11
16.625
 21
0.875
  0
LINE
  8
0
 10
16.625
 20
0.875
 11
16.5
 21
0.875
  0
LINE
  8
0
 10
16.5
 20
0.875
 11
16.5
 21
0.340897
  0
LINE
  8
0
 10
16.5
 20
0.340897
 11
21.5
 21
3.75
  0
LINE
  8
0
 10
21.5
 20
3.75
 11
27
 21
3.75
  0
LINE
  8
0
 10
27
 20
3.75
 11
27
 21
37.9384
  0
LINE
  8
0
 10
27
 20
37.9384
 11
21.5
 21
37.9384
  0
LINE
  8
0
 10
21.5
 20
37.9384
 11
16.5
 21
41.3475
  0
LINE
  8
0
 10
16.5
 20
41.3475
 11
16.5
 21
40.8134
  0
LINE
  8
0
 10
16.5
 20
40.8134
 11
16.625
 21
40.8134
  0
LINE
  8
0
 10
16.625
 20
40.8134
 11
16.625
 21
39.0634
  0
LINE
  8
0
 10
16.625
 20
39.0634
 11
16.5
 21
39.0634
  0
LINE
  8
0
 10
16.5
 20
39.0634
 11
16.5
 21
38.0634
  0
LINE
  8
0
 10
16.5
 20
38.0634
 11
16.625
 21
38.0634
  0
LINE
  8
0
 10
16.625
 20
38.0634
 11
16.625
 21
37.9384
  0
LINE
  8
0
 10
16.625
 20
37.9384
 11
16
 21
37.9384
  0
LINE
  8
0
 10
16
 20
37.9384
 11
16
 21
21.9067
  0
LINE
  8
0
 10
24.9127
 20
34.9435
 11
24.8281
 21
34.9662
  0
LINE
  8
0
 10
24.8281
 20
34.9662
 11
24.7487
 21
35.0032
  0
LINE
  8
0
 10
24.7487
 20
35.0032
 11
24.677
 21
35.0535
  0
LINE
  8
0
 10
24.677
 20
35.0535
 11
24.6151
 21
35.1154
  0
LINE
  8
0
 10
24.6151
 20
35.1154
 11
24.5648
 21
35.1871
  0
LINE
  8
0
 10
24.5648
 20
35.1871
 11
24.5278
 21
35.2665
  0
LINE
  8
0
 10
24.5278
 20
35.2665
 11
24.5051
 21
35.3511
  0
LINE
  8
0
 10
24.5051
 20
35.3511
 11
24.4975
 21
35.4384
  0
LINE
  8
0
 10
24.4975
 20
35.4384
 11
24.5051
 21
35.5257
  0
LINE
  8
0
 10
24.5051
 20
35.5257
 11
24.5278
 21
35.6103
  0
LINE
  8
0
 10
24.5278
 20
35.6103
 11
24.5648
 21
35.6896
  0
LINE
  8
0
 10
24.5648
 20
35.6896
 11
24.6151
 21
35.7614
  0
LINE
  8
0
 10
24.6151
 20
35.7614
 11
24.677
 21
35.8233
  0
LINE
  8
0
 10
24.677
 20
35.8233
 11
24.7487
 21
35.8736
  0
LINE
  8
0
 10
24.7487
 20
35.8736
 11
24.8281
 21
35.9106
  0
LINE
  8
0
 10
24.8281
 20
35.9106
 11
24.9127
 21
35.9333
  0
LINE
  8
0
 10
24.9127
 20
35.9333
 11
25
 21
35.9409
  0
LINE
  8
0
 10
25
 20
35.9409
 11
25.0872
 21
35.9333
  0
LINE
  8
0
 10
25.0872
 20
35.9333
 11
25.1719
 21
35.9106
  0
LINE
  8
0
 10
25.1719
 20
35.9106
 11
25.2512
 21
35.8736
  0
LINE
  8
0
 10
25.2512
 20
35.8736
 11
25.323
 21
35.8233
  0
LINE
  8
0
 10
25.323
 20
35.8233
 11
25.3849
 21
35.7614
  0
LINE
  8
0
 10
25.3849
 20
35.7614
 11
25.4352
 21
35.6896
  0
LINE
  8
0
 10
25.4352
 20
35.6896
 11
25.4722
 21
35.6103
  0
LINE
  8
0
 10
25.4722
 20
35.6103
 11
25.4949
 21
35.5257
  0
LINE
  8
0
 10
25.4949
 20
35.5257
 11
25.5025
 21
35.4384
  0
LINE
  8
0
 10
25.5025
 20
35.4384
 11
25.4949
 21
35.3511
  0
LINE
  8
0
 10
25.4949
 20
35.3511
 11
25.4722
 21
35.2665
  0
LINE
  8
0
 10
25.4722
 20
35.2665
 11
25.4352
 21
35.1871
  0
LINE
  8
0
 10
25.4352
 20
35.1871
 11
25.3849
 21
35.1154
  0
LINE
  8
0
 10
25.3849
 20
35.1154
 11
25.323
 21
35.0535
  0
LINE
  8
0
 10
25.323
 20
35.0535
 11
25.2512
 21
35.0032
  0
LINE
  8
0
 10
25.2512
 20
35.0032
 11
25.1719
 21
34.9662
  0
LINE
  8
0
 10
25.1719
 20
34.9662
 11
25.0872
 21
34.9435
  0
LINE
  8
0
 10
25.0872
 20
34.9435
 11
25
 21
34.9359
  0
LINE
  8
0
 10
25
 20
34.9359
 11
24.9127
 21
34.9435
  0
LINE
  8
0
 10
20.9127
 20
34.9435
 11
20.8281
 21
34.9662
  0
LINE
  8
0
 10
20.8281
 20
34.9662
 11
20.7487
 21
35.0032
  0
LINE
  8
0
 10
20.7487
 20
35.0032
 11
20.677
 21
35.0535
  0
LINE
  8
0
 10
20.677
 20
35.0535
 11
20.6151
 21
35.1154
  0
LINE
  8
0
 10
20.6151
 20
35.1154
 11
20.5648
 21
35.1871
  0
LINE
  8
0
 10
20.5648
 20
35.1871
 11
20.5278
 21
35.2665
  0
LINE
  8
0
 10
20.5278
 20
35.2665
 11
20.5051
 21
35.3511
  0
LINE
  8
0
 10
20.5051
 20
35.3511
 11
20.4975
 21
35.4384
  0
LINE
  8
0
 10
20.4975
 20
35.4384
 11
20.5051
 21
35.5257
  0
LINE
  8
0
 10
20.5051
 20
35.5257
 11
20.5278
 21
35.6103
  0
LINE
  8
0
 10
20.5278
 20
35.6103
 11
20.5648
 21
35.6896
  0
LINE
  8
0
 10
20.5648
 20
35.6896
 11
20.6151
 21
35.7614
  0
LINE
  8
0
 10
20.6151
 20
35.7614
 11
20.677
 21
35.8233
  0
LINE
  8
0
 10
20.677
 20
35.8233
 11
20.7487
 21
35.8736
  0
LINE
  8
0
 10
20.7487
 20
35.8736
 11
20.8281
 21
35.9106
  0
LINE
  8
0
 10
20.8281
 20
35.9106
 11
20.9127
 21
35.9333
  0
LINE
  8
0
 10
20.9127
 20
35.9333
 11
21
 21
35.9409
  0
LINE
  8
0
 10
21
 20
35.9409
 11
21.0872
 21
35.9333
  0
LINE
  8
0
 10
21.0872
 20
35.9333
 11
21.1719
 21
35.9106
  0
LINE
  8
0
 10
21.1719
 20
35.9106
 11
21.2512
 21
35.8736
  0
LINE
  8
0
 10
21.2512
 20
35.8736
 11
21.323
 21
35.8233
  0
LINE
  8
0
 10
21.323
 20
35.8233
 11
21.3849
 21
35.7614
  0
LINE
  8
0
 10
21.3849
 20
35.7614
 11
21.4352
 21
35.6896
  0
LINE
  8
0
 10
21.4352
 20
35.6896
 11
21.4722
 21
35.6103
  0
LINE
  8
0
 10
21.4722
 20
35.6103
 11
21.4949
 21
35.5257
  0
LINE
  8
0
 10
21.4949
 20
35.5257
 11
21.5025
 21
35.4384
  0
LINE
  8
0
 10
21.5025
 20
35.4384
 11
21.4949
 21
35.3511
  0
LINE
  8
0
 10
21.4949
 20
35.3511
 11
21.4722
 21
35.2665
  0
LINE
  8
0
 10
21.4722
 20
35.2665
 11
21.4352
 21
35.1871
  0
LINE
  8
0
 10
21.4352
 20
35.1871
 11
21.3849
 21
35.1154
  0
LINE
  8
0
 10
21.3849
 20
35.1154
 11
21.323
 21
35.0535
  0
LINE
  8
0
 10
21.323
 20
35.0535
 11
21.2512
 21
35.0032
  0
LINE
  8
0
 10
21.2512
 20
35.0032
 11
21.1719
 21
34.9662
  0
LINE
  8
0
 10
21.1719
 20
34.9662
 11
21.0872
 21
34.9435
  0
LINE
  8
0
 10
21.0872
 20
34.9435
 11
21
 21
34.9359
  0
LINE
  8
0
 10
21
 20
34.9359
 11
20.9127
 21
34.9435
  0
LINE
  8
0
 10
17.9127
 20
34.9435
 11
17.8281
 21
34.9662
  0
LINE
  8
0
 10
17.8281
 20
34.9662
 11
17.7487
 21
35.0032
  0
LINE
  8
0
 10
17.7487
 20
35.0032
 11
17.677
 21
35.0535
  0
LINE
  8
0
 10
17.677
 20
35.0535
 11
17.6151
 21
35.1154
  0
LINE
  8
0
 10
17.6151
 20
35.1154
 11
17.5648
 21
35.1871
  0
LINE
  8
0
 10
17.5648
 20
35.1871
 11
17.5278
 21
35.2665
  0
LINE
  8
0
 10
17.5278
 20
35.2665
 11
17.5051
 21
35.3511
  0
LINE
  8
0
 10
17.5051
 20
35.3511
 11
17.4975
 21
35.4384
  0
LINE
  8
0
 10
17.4975
 20
35.4384
 11
17.5051
 21
35.5257
  0
LINE
  8
0
 10
17.5051
 20
35.5257
 11
17.5278
 21
35.6103
  0
LINE
  8
0
 10
17.5278
 20
35.6103
 11
17.5648
 21
35.6896
  0
LINE
  8
0
 10
17.5648
 20
35.6896
 11
17.6151
 21
35.7614
  0
LINE
  8
0
 10
17.6151
 20
35.7614
 11
17.677
 21
35.8233
  0
LINE
  8
0
 10
17.677
 20
35.8233
 11
17.7487
 21
35.8736
  0
LINE
  8
0
 10
17.7487
 20
35.8736
 11
17.8281
 21
35.9106
  0
LINE
  8
0
 10
17.8281
 20
35.9106
 11
17.9127
 21
35.9333
  0
LINE
  8
0
 10
17.9127
 20
35.9333
 11
18
 21
35.9409
  0
LINE
  8
0
 10
18
 20
35.9409
 11
18.0872
 21
35.9333
  0
LINE
  8
0
 10
18.0872
 20
35.9333
 11
18.1719
 21
35.9106
  0
LINE
  8
0
 10
18.1719
 20
35.9106
 11
18.2512
 21
35.8736
  0
LINE
  8
0
 10
18.2512
 20
35.8736
 11
18.323
 21
35.8233
  0
LINE
  8
0
 10
18.323
 20
35.8233
 11
18.3849
 21
35.7614
  0
LINE
  8
0
 10
18.3849
 20
35.7614
 11
18.4352
 21
35.6896
  0
LINE
  8
0
 10
18.4352
 20
35.6896
 11
18.4722
 21
35.6103
  0
LINE
  8
0
 10
18.4722
 20
35.6103
 11
18.4949
 21
35.5257
  0
LINE
  8
0
 10
18.4949
 20
35.5257
 11
18.5025
 21
35.4384
  0
LINE
  8
0
 10
18.5025
 20
35.4384
 11
18.4949
 21
35.3511
  0
LINE
  8
0
 10
18.4949
 20
35.3511
 11
18.4722
 21
35.2665
  0
LINE
  8
0
 10
18.4722
 20
35.2665
 11
18.4352
 21
35.1871
  0
LINE
  8
0
 10
18.4352
 20
35.1871
 11
18.3849
 21
35.1154
  0
LINE
  8
0
 10
18.3849
 20
35.1154
 11
18.323
 21
35.0535
  0
LINE
  8
0
 10
18.323
 20
35.0535
 11
18.2512
 21
35.0032
  0
LINE
  8
0
 10
18.2512
 20
35.0032
 11
18.1719
 21
34.9662
  0
LINE
  8
0
 10
18.1719
 20
34.9662
 11
18.0872
 21
34.9435
  0
LINE
  8
0
 10
18.0872
 20
34.9435
 11
18
 21
34.9359
  0
LINE
  8
0
 10
18
 20
34.9359
 11
17.9127
 21
34.9435
  0
LINE
  8
0
 10
19.0625
 20
32.8129
 11
19.0625
 21
33.0629
  0
LINE
  8
0
 10
19.0625
 20
33.0629
 11
19.1875
 21
33.0629
  0
LINE
  8
0
 10
19.1875
 20
33.0629
 11
19.1875
 21
33.9379
  0
LINE
  8
0
 10
19.1875
 20
33.9379
 11
19.0625
 21
33.9379
  0
LINE
  8
0
 10
19.0625
 20
33.9379
 11
19.0625
 21
34.1879
  0
LINE
  8
0
 10
19.0625
 20
34.1879
 11
19.3125
 21
34.1879
  0
LINE
  8
0
 10
19.3125
 20
34.1879
 11
19.3125
 21
34.0629
  0
LINE
  8
0
 10
19.3125
 20
34.0629
 11
19.6875
 21
34.0629
  0
LINE
  8
0
 10
19.6875
 20
34.0629
 11
19.6875
 21
34.1879
  0
LINE
  8
0
 10
19.6875
 20
34.1879
 11
19.9375
 21
34.1879
  0
LINE
  8
0
 10
19.9375
 20
34.1879
 11
19.9375
 21
33.9379
  0
LINE
  8
0
 10
19.9375
 20
33.9379
 11
19.8125
 21
33.9379
  0
LINE
  8
0
 10
19.8125
 20
33.9379
 11
19.8125
 21
33.0629
  0
LINE
  8
0
 10
19.8125
 20
33.0629
 11
19.9375
 21
33.0629
  0
LINE
  8
0
 10
19.9375
 20
33.0629
 11
19.9375
 21
32.8129
  0
LINE
  8
0
 10
19.9375
 20
32.8129
 11
19.6875
 21
32.8129
  0
LINE
  8
0
 10
19.6875
 20
32.8129
 11
19.6875
 21
32.9379
  0
LINE
  8
0
 10
19.6875
 20
32.9379
 11
19.3125
 21
32.9379
  0
LINE
  8
0
 10
19.3125
 20
32.9379
 11
19.3125
 21
32.8129
  0
LINE
  8
0
 10
19.3125
 20
32.8129
 11
19.0625
 21
32.8129
  0
LINE
  8
0
 10
19.0625
 20
7.50044
 11
19.0625
 21
7.75044
  0
LINE
  8
0
 10
19.0625
 20
7.75044
 11
19.1875
 21
7.75044
  0
LINE
  8
0
 10
19.1875
 20
7.75044
 11
19.1875
 21
8.62544
  0
LINE
  8
0
 10
19.1875
 20
8.62544
 11
19.0625
 21
8.62544
  0
LINE
  8
0
 10
19.0625
 20
8.62544
 11
19.0625
 21
8.87544
  0
LINE
  8
0
 10
19.0625
 20
8.87544
 11
19.3125
 21
8.87544
  0
LINE
  8
0
 10
19.3125
 20
8.87544
 11
19.3125
 21
8.75044
  0
LINE
  8
0
 10
19.3125
 20
8.75044
 11
19.6875
 21
8.75044
  0
LINE
  8
0
 10
19.6875
 20
8.75044
 11
19.6875
 21
8.87544
  0
LINE
  8
0
 10
19.6875
 20
8.87544
 11
19.9375
 21
8.87544
  0
LINE
  8
0
 10
19.9375
 20
8.87544
 11
19.9375
 21
8.62544
  0
LINE
  8
0
 10
19.9375
 20
8.62544
 11
19.8125
 21
8.62544
  0
LINE
  8
0
 10
19.8125
 20
8.62544
 11
19.8125
 21
7.75044
  0
LINE
  8
0
 10
19.8125
 20
7.75044
 11
19.9375
 21
7.75044
  0
LINE
  8
0
 10
19.9375
 20
7.75044
 11
19.9375
 21
7.50044
  0
LINE
  8
0
 10
19.9375
 20
7.50044
 11
19.6875
 21
7.50044
  0
LINE
  8
0
 10
19.6875
 20
7.50044
 11
19.6875
 21
7.62544
  0
LINE
  8
0
 10
19.6875
 20
7.62544
 11
19.3125
 21
7.62544
  0
LINE
  8
0
 10
19.3125
 20
7.62544
 11
19.3125
 21
7.50044
  0
LINE
  8
0
 10
19.3125
 20
7.50044
 11
19.0625
 21
7.50044
  0
LINE
  8
0
 10
20.9127
 20
5.75513
 11
20.8281
 21
5.7778
  0
LINE
  8
0
 10
20.8281
 20
5.7778
 11
20.7487
 21
5.81482
  0
LINE
  8
0
 10
20.7487
 20
5.81482
 11
20.677
 21
5.86505
  0
LINE
  8
0
 10
20.677
 20
5.86505
 11
20.6151
 21
5.92699
  0
LINE
  8
0
 10
20.6151
 20
5.92699
 11
20.5648
 21
5.99875
  0
LINE
  8
0
 10
20.5648
 20
5.99875
 11
20.5278
 21
6.07812
  0
LINE
  8
0
 10
20.5278
 20
6.07812
 11
20.5051
 21
6.16273
  0
LINE
  8
0
 10
20.5051
 20
6.16273
 11
20.4975
 21
6.25
  0
LINE
  8
0
 10
20.4975
 20
6.25
 11
20.5051
 21
6.33725
  0
LINE
  8
0
 10
20.5051
 20
6.33725
 11
20.5278
 21
6.42186
  0
LINE
  8
0
 10
20.5278
 20
6.42186
 11
20.5648
 21
6.50124
  0
LINE
  8
0
 10
20.5648
 20
6.50124
 11
20.6151
 21
6.573
  0
LINE
  8
0
 10
20.6151
 20
6.573
 11
20.677
 21
6.63493
  0
LINE
  8
0
 10
20.677
 20
6.63493
 11
20.7487
 21
6.68517
  0
LINE
  8
0
 10
20.7487
 20
6.68517
 11
20.8281
 21
6.72218
  0
LINE
  8
0
 10
20.8281
 20
6.72218
 11
20.9127
 21
6.74486
  0
LINE
  8
0
 10
20.9127
 20
6.74486
 11
21
 21
6.75249
  0
LINE
  8
0
 10
21
 20
6.75249
 11
21.0872
 21
6.74486
  0
LINE
  8
0
 10
21.0872
 20
6.74486
 11
21.1719
 21
6.72218
  0
LINE
  8
0
 10
21.1719
 20
6.72218
 11
21.2512
 21
6.68517
  0
LINE
  8
0
 10
21.2512
 20
6.68517
 11
21.323
 21
6.63493
  0
LINE
  8
0
 10
21.323
 20
6.63493
 11
21.3849
 21
6.573
  0
LINE
  8
0
 10
21.3849
 20
6.573
 11
21.4352
 21
6.50124
  0
LINE
  8
0
 10
21.4352
 20
6.50124
 11
21.4722
 21
6.42186
  0
LINE
  8
0
 10
21.4722
 20
6.42186
 11
21.4949
 21
6.33725
  0
LINE
  8
0
 10
21.4949
 20
6.33725
 11
21.5025
 21
6.25
  0
LINE
  8
0
 10
21.5025
 20
6.25
 11
21.4949
 21
6.16273
  0
LINE
  8
0
 10
21.4949
 20
6.16273
 11
21.4722
 21
6.07812
  0
LINE
  8
0
 10
21.4722
 20
6.07812
 11
21.4352
 21
5.99875
  0
LINE
  8
0
 10
21.4352
 20
5.99875
 11
21.3849
 21
5.92699
  0
LINE
  8
0
 10
21.3849
 20
5.92699
 11
21.323
 21
5.86505
  0
LINE
  8
0
 10
21.323
 20
5.86505
 11
21.2512
 21
5.81482
  0
LINE
  8
0
 10
21.2512
 20
5.81482
 11
21.1719
 21
5.7778
  0
LINE
  8
0
 10
21.1719
 20
5.7778
 11
21.0872
 21
5.75513
  0
LINE
  8
0
 10
21.0872
 20
5.75513
 11
21
 21
5.7475
  0
LINE
  8
0
 10
21
 20
5.7475
 11
20.9127
 21
5.75513
  0
LINE
  8
0
 10
17.9127
 20
5.75513
 11
17.8281
 21
5.7778
  0
LINE
  8
0
 10
17.8281
 20
5.7778
 11
17.7487
 21
5.81482
  0
LINE
  8
0
 10
17.7487
 20
5.81482
 11
17.677
 21
5.86505
  0
LINE
  8
0
 10
17.677
 20
5.86505
 11
17.6151
 21
5.92699
  0
LINE
  8
0
 10
17.6151
 20
5.92699
 11
17.5648
 21
5.99875
  0
LINE
  8
0
 10
17.5648
 20
5.99875
 11
17.5278
 21
6.07812
  0
LINE
  8
0
 10
17.5278
 20
6.07812
 11
17.5051
 21
6.16273
  0
LINE
  8
0
 10
17.5051
 20
6.16273
 11
17.4975
 21
6.25
  0
LINE
  8
0
 10
17.4975
 20
6.25
 11
17.5051
 21
6.33725
  0
LINE
  8
0
 10
17.5051
 20
6.33725
 11
17.5278
 21
6.42186
  0
LINE
  8
0
 10
17.5278
 20
6.42186
 11
17.5648
 21
6.50124
  0
LINE
  8
0
 10
17.5648
 20
6.50124
 11
17.6151
 21
6.573
  0
LINE
  8
0
 10
17.6151
 20
6.573
 11
17.677
 21
6.63493
  0
LINE
  8
0
 10
17.677
 20
6.63493
 11
17.7487
 21
6.68517
  0
LINE
  8
0
 10
17.7487
 20
6.68517
 11
17.8281
 21
6.72218
  0
LINE
  8
0
 10
17.8281
 20
6.72218
 11
17.9127
 21
6.74486
  0
LINE
  8
0
 10
17.9127
 20
6.74486
 11
18
 21
6.75249
  0
LINE
  8
0
 10
18
 20
6.75249
 11
18.0872
 21
6.74486
  0
LINE
  8
0
 10
18.0872
 20
6.74486
 11
18.1719
 21
6.72218
  0
LINE
  8
0
 10
18.1719
 20
6.72218
 11
18.2512
 21
6.68517
  0
LINE
  8
0
 10
18.2512
 20
6.68517
 11
18.323
 21
6.63493
  0
LINE
  8
0
 10
18.323
 20
6.63493
 11
18.3849
 21
6.573
  0
LINE
  8
0
 10
18.3849
 20
6.573
 11
18.4352
 21
6.50124
  0
LINE
  8
0
 10
18.4352
 20
6.50124
 11
18.4722
 21
6.42186
  0
LINE
  8
0
 10
18.4722
 20
6.42186
 11
18.4949
 21
6.33725
  0
LINE
  8
0
 10
18.4949
 20
6.33725
 11
18.5025
 21
6.25
  0
LINE
  8
0
 10
18.5025
 20
6.25
 11
18.4949
 21
6.16273
  0
LINE
  8
0
 10
18.4949
 20
6.16273
 11
18.4722
 21
6.07812
  0
LINE
  8
0
 10
18.4722
 20
6.07812
 11
18.4352
 21
5.99875
  0
LINE
  8
0
 10
18.4352
 20
5.99875
 11
18.3849
 21
5.92699
  0
LINE
  8
0
 10
18.3849
 20
5.92699
 11
18.323
 21
5.86505
  0
LINE
  8
0
 10
18.323
 20
5.86505
 11
18.2512
 21
5.81482
  0
LINE
  8
0
 10
18.2512
 20
5.81482
 11
18.1719
 21
5.7778
  0
LINE
  8
0
 10
18.1719
 20
5.7778
 11
18.0872
 21
5.75513
  0
LINE
  8
0
 10
18.0872
 20
5.75513
 11
18
 21
5.7475
  0
LINE
  8
0
 10
18
 20
5.7475
 11
17.9127
 21
5.75513
  0
LINE
  8
0
 10
24.9127
 20
5.75513
 11
24.8281
 21
5.7778
  0
LINE
  8
0
 10
24.8281
 20
5.7778
 11
24.7487
 21
5.81482
  0
LINE
  8
0
 10
24.7487
 20
5.81482
 11
24.677
 21
5.86505
  0
LINE
  8
0
 10
24.677
 20
5.86505
 11
24.6151
 21
5.92699
  0
LINE
  8
0
 10
24.6151
 20
5.92699
 11
24.5648
 21
5.99875
  0
LINE
  8
0
 10
24.5648
 20
5.99875
 11
24.5278
 21
6.07812
  0
LINE
  8
0
 10
24.5278
 20
6.07812
 11
24.5051
 21
6.16273
  0
LINE
  8
0
 10
24.5051
 20
6.16273
 11
24.4975
 21
6.25
  0
LINE
  8
0
 10
24.4975
 20
6.25
 11
24.5051
 21
6.33725
  0
LINE
  8
0
 10
24.5051
 20
6.33725
 11
24.5278
 21
6.42186
  0
LINE
  8
0
 10
24.5278
 20
6.42186
 11
24.5648
 21
6.50124
  0
LINE
  8
0
 10
24.5648
 20
6.50124
 11
24.6151
 21
6.573
  0
LINE
  8
0
 10
24.6151
 20
6.573
 11
24.677
 21
6.63493
  0
LINE
  8
0
 10
24.677
 20
6.63493
 11
24.7487
 21
6.68517
  0
LINE
  8
0
 10
24.7487
 20
6.68517
 11
24.8281
 21
6.72218
  0
LINE
  8
0
 10
24.8281
 20
6.72218
 11
24.9127
 21
6.74486
  0
LINE
  8
0
 10
24.9127
 20
6.74486
 11
25
 21
6.75249
  0
LINE
  8
0
 10
25
 20
6.75249
 11
25.0872
 21
6.74486
  0
LINE
  8
0
 10
25.0872
 20
6.74486
 11
25.1719
 21
6.72218
  0
LINE
  8
0
 10
25.1719
 20
6.72218
 11
25.2512
 21
6.68517
  0
LINE
  8
0
 10
25.2512
 20
6.68517
 11
25.323
 21
6.63493
  0
LINE
  8
0
 10
25.323
 20
6.63493
 11
25.3849
 21
6.573
  0
LINE
  8
0
 10
25.3849
 20
6.573
 11
25.4352
 21
6.50124
  0
LINE
  8
0
 10
25.4352
 20
6.50124
 11
25.4722
 21
6.42186
  0
LINE
  8
0
 10
25.4722
 20
6.42186
 11
25.4949
 21
6.33725
  0
LINE
  8
0
 10
25.4949
 20
6.33725
 11
25.5025
 21
6.25
  0
LINE
  8
0
 10
25.5025
 20
6.25
 11
25.4949
 21
6.16273
  0
LINE
  8
0
 10
25.4949
 20
6.16273
 11
25.4722
 21
6.07812
  0
LINE
  8
0
 10
25.4722
 20
6.07812
 11
25.4352
 21
5.99875
  0
LINE
  8
0
 10
25.4352
 20
5.99875
 11
25.3849
 21
5.92699
  0
LINE
  8
0
 10
25.3849
 20
5.92699
 11
25.323
 21
5.86505
  0
LINE
  8
0
 10
25.323
 20
5.86505
 11
25.2512
 21
5.81482
  0
LINE
  8
0
 10
25.2512
 20
5.81482
 11
25.1719
 21
5.7778
  0
LINE
  8
0
 10
25.1719
 20
5.7778
 11
25.0872
 21
5.75513
  0
LINE
  8
0
 10
25.0872
 20
5.75513
 11
25
 21
5.7475
  0
LINE
  8
0
 10
25
 20
5.7475
 11
24.9127
 21
5.75513
  0
LINE
  8
0
 10
40.5
 20
34.1884
 11
32.5
 21
34.1884
  0
LINE
  8
0
 10
32.5
 20
34.1884
 11
32.5
 21
32.8509
  0
LINE
  8
0
 10
32.5
 20
32.8509
 11
32.9375
 21
32.8509
  0
LINE
  8
0
 10
32.9375
 20
32.8509
 11
32.9375
 21
32.9759
  0
LINE
  8
0
 10
32.9375
 20
32.9759
 11
33.1875
 21
32.9759
  0
LINE
  8
0
 10
33.1875
 20
32.9759
 11
33.1875
 21
32.7259
  0
LINE
  8
0
 10
33.1875
 20
32.7259
 11
33.0625
 21
32.7259
  0
LINE
  8
0
 10
33.0625
 20
32.7259
 11
33.0625
 21
31.8509
  0
LINE
  8
0
 10
33.0625
 20
31.8509
 11
33.1875
 21
31.8509
  0
LINE
  8
0
 10
33.1875
 20
31.8509
 11
33.1875
 21
31.6009
  0
LINE
  8
0
 10
33.1875
 20
31.6009
 11
32.9375
 21
31.6009
  0
LINE
  8
0
 10
32.9375
 20
31.6009
 11
32.9375
 21
31.7259
  0
LINE
  8
0
 10
32.9375
 20
31.7259
 11
32.5
 21
31.7259
  0
LINE
  8
0
 10
32.5
 20
31.7259
 11
32.5
 21
2.46249
  0
LINE
  8
0
 10
32.5
 20
2.46249
 11
32.9375
 21
2.46249
  0
LINE
  8
0
 10
32.9375
 20
2.46249
 11
32.9375
 21
2.58749
  0
LINE
  8
0
 10
32.9375
 20
2.58749
 11
33.1875
 21
2.58749
  0
LINE
  8
0
 10
33.1875
 20
2.58749
 11
33.1875
 21
2.33749
  0
LINE
  8
0
 10
33.1875
 20
2.33749
 11
33.0625
 21
2.33749
  0
LINE
  8
0
 10
33.0625
 20
2.33749
 11
33.0625
 21
1.46249
  0
LINE
  8
0
 10
33.0625
 20
1.46249
 11
33.1875
 21
1.46249
  0
LINE
  8
0
 10
33.1875
 20
1.46249
 11
33.1875
 21
1.21249
  0
LINE
  8
0
 10
33.1875
 20
1.21249
 11
32.9375
 21
1.21249
  0
LINE
  8
0
 10
32.9375
 20
1.21249
 11
32.9375
 21
1.33749
  0
LINE
  8
0
 10
32.9375
 20
1.33749
 11
32.5
 21
1.33749
  0
LINE
  8
0
 10
32.5
 20
1.33749
 11
32.5
 21
0
  0
LINE
  8
0
 10
32.5
 20
0
 11
40.5
 21
0
  0
LINE
  8
0
 10
40.5
 20
0
 11
40.5
 21
34.1884
  0
LINE
  8
0
 10
34.434
 20
31.3142
 11
34.37
 21
31.3313
  0
LINE
  8
0
 10
34.37
 20
31.3313
 11
34.31
 21
31.3593
  0
LINE
  8
0
 10
34.31
 20
31.3593
 11
34.2557
 21
31.3973
  0
LINE
  8
0
 10
34.2557
 20
31.3973
 11
34.2089
 21
31.4441
  0
LINE
  8
0
 10
34.2089
 20
31.4441
 11
34.1709
 21
31.4984
  0
LINE
  8
0
 10
34.1709
 20
31.4984
 11
34.1429
 21
31.5584
  0
LINE
  8
0
 10
34.1429
 20
31.5584
 11
34.1258
 21
31.6224
  0
LINE
  8
0
 10
34.1258
 20
31.6224
 11
34.12
 21
31.6884
  0
LINE
  8
0
 10
34.12
 20
31.6884
 11
34.1258
 21
31.7544
  0
LINE
  8
0
 10
34.1258
 20
31.7544
 11
34.1429
 21
31.8184
  0
LINE
  8
0
 10
34.1429
 20
31.8184
 11
34.1709
 21
31.8784
  0
LINE
  8
0
 10
34.1709
 20
31.8784
 11
34.2089
 21
31.9326
  0
LINE
  8
0
 10
34.2089
 20
31.9326
 11
34.2557
 21
31.9795
  0
LINE
  8
0
 10
34.2557
 20
31.9795
 11
34.31
 21
32.0175
  0
LINE
  8
0
 10
34.31
 20
32.0175
 11
34.37
 21
32.0455
  0
LINE
  8
0
 10
34.37
 20
32.0455
 11
34.434
 21
32.0626
  0
LINE
  8
0
 10
34.434
 20
32.0626
 11
34.5
 21
32.0684
  0
LINE
  8
0
 10
34.5
 20
32.0684
 11
34.566
 21
32.0626
  0
LINE
  8
0
 10
34.566
 20
32.0626
 11
34.63
 21
32.0455
  0
LINE
  8
0
 10
34.63
 20
32.0455
 11
34.69
 21
32.0175
  0
LINE
  8
0
 10
34.69
 20
32.0175
 11
34.7442
 21
31.9795
  0
LINE
  8
0
 10
34.7442
 20
31.9795
 11
34.7911
 21
31.9326
  0
LINE
  8
0
 10
34.7911
 20
31.9326
 11
34.8291
 21
31.8784
  0
LINE
  8
0
 10
34.8291
 20
31.8784
 11
34.8571
 21
31.8184
  0
LINE
  8
0
 10
34.8571
 20
31.8184
 11
34.8742
 21
31.7544
  0
LINE
  8
0
 10
34.8742
 20
31.7544
 11
34.88
 21
31.6884
  0
LINE
  8
0
 10
34.88
 20
31.6884
 11
34.8742
 21
31.6224
  0
LINE
  8
0
 10
34.8742
 20
31.6224
 11
34.8571
 21
31.5584
  0
LINE
  8
0
 10
34.8571
 20
31.5584
 11
34.8291
 21
31.4984
  0
LINE
  8
0
 10
34.8291
 20
31.4984
 11
34.7911
 21
31.4441
  0
LINE
  8
0
 10
34.7911
 20
31.4441
 11
34.7442
 21
31.3973
  0
LINE
  8
0
 10
34.7442
 20
31.3973
 11
34.69
 21
31.3593
  0
LINE
  8
0
 10
34.69
 20
31.3593
 11
34.63
 21
31.3313
  0
LINE
  8
0
 10
34.63
 20
31.3313
 11
34.566
 21
31.3142
  0
LINE
  8
0
 10
34.566
 20
31.3142
 11
34.5
 21
31.3084
  0
LINE
  8
0
 10
34.5
 20
31.3084
 11
34.434
 21
31.3142
  0
LINE
  8
0
 10
38.434
 20
31.3142
 11
38.37
 21
31.3313
  0
LINE
  8
0
 10
38.37
 20
31.3313
 11
38.31
 21
31.3593
  0
LINE
  8
0
 10
38.31
 20
31.3593
 11
38.2557
 21
31.3973
  0
LINE
  8
0
 10
38.2557
 20
31.3973
 11
38.2089
 21
31.4441
  0
LINE
  8
0
 10
38.2089
 20
31.4441
 11
38.1709
 21
31.4984
  0
LINE
  8
0
 10
38.1709
 20
31.4984
 11
38.1429
 21
31.5584
  0
LINE
  8
0
 10
38.1429
 20
31.5584
 11
38.1258
 21
31.6224
  0
LINE
  8
0
 10
38.1258
 20
31.6224
 11
38.12
 21
31.6884
  0
LINE
  8
0
 10
38.12
 20
31.6884
 11
38.1258
 21
31.7544
  0
LINE
  8
0
 10
38.1258
 20
31.7544
 11
38.1429
 21
31.8184
  0
LINE
  8
0
 10
38.1429
 20
31.8184
 11
38.1709
 21
31.8784
  0
LINE
  8
0
 10
38.1709
 20
31.8784
 11
38.2089
 21
31.9326
  0
LINE
  8
0
 10
38.2089
 20
31.9326
 11
38.2557
 21
31.9795
  0
LINE
  8
0
 10
38.2557
 20
31.9795
 11
38.31
 21
32.0175
  0
LINE
  8
0
 10
38.31
 20
32.0175
 11
38.37
 21
32.0455
  0
LINE
  8
0
 10
38.37
 20
32.0455
 11
38.434
 21
32.0626
  0
LINE
  8
0
 10
38.434
 20
32.0626
 11
38.5
 21
32.0684
  0
LINE
  8
0
 10
38.5
 20
32.0684
 11
38.566
 21
32.0626
  0
LINE
  8
0
 10
38.566
 20
32.0626
 11
38.63
 21
32.0455
  0
LINE
  8
0
 10
38.63
 20
32.0455
 11
38.69
 21
32.0175
  0
LINE
  8
0
 10
38.69
 20
32.0175
 11
38.7442
 21
31.9795
  0
LINE
  8
0
 10
38.7442
 20
31.9795
 11
38.7911
 21
31.9326
  0
LINE
  8
0
 10
38.7911
 20
31.9326
 11
38.8291
 21
31.8784
  0
LINE
  8
0
 10
38.8291
 20
31.8784
 11
38.8571
 21
31.8184
  0
LINE
  8
0
 10
38.8571
 20
31.8184
 11
38.8742
 21
31.7544
  0
LINE
  8
0
 10
38.8742
 20
31.7544
 11
38.88
 21
31.6884
  0
LINE
  8
0
 10
38.88
 20
31.6884
 11
38.8742
 21
31.6224
  0
LINE
  8
0
 10
38.8742
 20
31.6224
 11
38.8571
 21
31.5584
  0
LINE
  8
0
 10
38.8571
 20
31.5584
 11
38.8291
 21
31.4984
  0
LINE
  8
0
 10
38.8291
 20
31.4984
 11
38.7911
 21
31.4441
  0
LINE
  8
0
 10
38.7911
 20
31.4441
 11
38.7442
 21
31.3973
  0
LINE
  8
0
 10
38.7442
 20
31.3973
 11
38.69
 21
31.3593
  0
LINE
  8
0
 10
38.69
 20
31.3593
 11
38.63
 21
31.3313
  0
LINE
  8
0
 10
38.63
 20
31.3313
 11
38.566
 21
31.3142
  0
LINE
  8
0
 10
38.566
 20
31.3142
 11
38.5
 21
31.3084
  0
LINE
  8
0
 10
38.5
 20
31.3084
 11
38.434
 21
31.3142
  0
LINE
  8
0
 10
34.0846
 20
15.8016
 11
33.8636
 21
15.8608
  0
LINE
  8
0
 10
33.8636
 20
15.8608
 11
33.6562
 21
15.9575
  0
LINE
  8
0
 10
33.6562
 20
15.9575
 11
33.4688
 21
16.0888
  0
LINE
  8
0
 10
33.4688
 20
16.0888
 11
33.3071
 21
16.2505
  0
LINE
  8
0
 10
33.3071
 20
16.2505
 11
33.1758
 21
16.4379
  0
LINE
  8
0
 10
33.1758
 20
16.4379
 11
33.0791
 21
16.6453
  0
LINE
  8
0
 10
33.0791
 20
16.6453
 11
33.0199
 21
16.8663
  0
LINE
  8
0
 10
33.0199
 20
16.8663
 11
33
 21
17.0942
  0
LINE
  8
0
 10
33
 20
17.0942
 11
33.0199
 21
17.3221
  0
LINE
  8
0
 10
33.0199
 20
17.3221
 11
33.0791
 21
17.5431
  0
LINE
  8
0
 10
33.0791
 20
17.5431
 11
33.1758
 21
17.7504
  0
LINE
  8
0
 10
33.1758
 20
17.7504
 11
33.3071
 21
17.9379
  0
LINE
  8
0
 10
33.3071
 20
17.9379
 11
33.4688
 21
18.0996
  0
LINE
  8
0
 10
33.4688
 20
18.0996
 11
33.6562
 21
18.2309
  0
LINE
  8
0
 10
33.6562
 20
18.2309
 11
33.8636
 21
18.3275
  0
LINE
  8
0
 10
33.8636
 20
18.3275
 11
34.0846
 21
18.3867
  0
LINE
  8
0
 10
34.0846
 20
18.3867
 11
34.3125
 21
18.4067
  0
LINE
  8
0
 10
34.3125
 20
18.4067
 11
34.5404
 21
18.3867
  0
LINE
  8
0
 10
34.5404
 20
18.3867
 11
34.7614
 21
18.3275
  0
LINE
  8
0
 10
34.7614
 20
18.3275
 11
34.9688
 21
18.2309
  0
LINE
  8
0
 10
34.9688
 20
18.2309
 11
35.1562
 21
18.0996
  0
LINE
  8
0
 10
35.1562
 20
18.0996
 11
35.3179
 21
17.9379
  0
LINE
  8
0
 10
35.3179
 20
17.9379
 11
35.4492
 21
17.7504
  0
LINE
  8
0
 10
35.4492
 20
17.7504
 11
35.5458
 21
17.5431
  0
LINE
  8
0
 10
35.5458
 20
17.5431
 11
35.6051
 21
17.3221
  0
LINE
  8
0
 10
35.6051
 20
17.3221
 11
35.625
 21
17.0942
  0
LINE
  8
0
 10
35.625
 20
17.0942
 11
35.6051
 21
16.8663
  0
LINE
  8
0
 10
35.6051
 20
16.8663
 11
35.5458
 21
16.6453
  0
LINE
  8
0
 10
35.5458
 20
16.6453
 11
35.4492
 21
16.4379
  0
LINE
  8
0
 10
35.4492
 20
16.4379
 11
35.3179
 21
16.2505
  0
LINE
  8
0
 10
35.3179
 20
16.2505
 11
35.1562
 21
16.0888
  0
LINE
  8
0
 10
35.1562
 20
16.0888
 11
34.9688
 21
15.9575
  0
LINE
  8
0
 10
34.9688
 20
15.9575
 11
34.7614
 21
15.8608
  0
LINE
  8
0
 10
34.7614
 20
15.8608
 11
34.5404
 21
15.8016
  0
LINE
  8
0
 10
34.5404
 20
15.8016
 11
34.3125
 21
15.7817
  0
LINE
  8
0
 10
34.3125
 20
15.7817
 11
34.0846
 21
15.8016
  0
LINE
  8
0
 10
38.434
 20
2.12576
 11
38.37
 21
2.14291
  0
LINE
  8
0
 10
38.37
 20
2.14291
 11
38.31
 21
2.1709
  0
LINE
  8
0
 10
38.31
 20
2.1709
 11
38.2557
 21
2.20889
  0
LINE
  8
0
 10
38.2557
 20
2.20889
 11
38.2089
 21
2.25574
  0
LINE
  8
0
 10
38.2089
 20
2.25574
 11
38.1709
 21
2.31
  0
LINE
  8
0
 10
38.1709
 20
2.31
 11
38.1429
 21
2.37003
  0
LINE
  8
0
 10
38.1429
 20
2.37003
 11
38.1258
 21
2.43401
  0
LINE
  8
0
 10
38.1258
 20
2.43401
 11
38.12
 21
2.5
  0
LINE
  8
0
 10
38.12
 20
2.5
 11
38.1258
 21
2.56598
  0
LINE
  8
0
 10
38.1258
 20
2.56598
 11
38.1429
 21
2.62996
  0
LINE
  8
0
 10
38.1429
 20
2.62996
 11
38.1709
 21
2.68999
  0
LINE
  8
0
 10
38.1709
 20
2.68999
 11
38.2089
 21
2.74425
  0
LINE
  8
0
 10
38.2089
 20
2.74425
 11
38.2557
 21
2.79109
  0
LINE
  8
0
 10
38.2557
 20
2.79109
 11
38.31
 21
2.82909
  0
LINE
  8
0
 10
38.31
 20
2.82909
 11
38.37
 21
2.85707
  0
LINE
  8
0
 10
38.37
 20
2.85707
 11
38.434
 21
2.87422
  0
LINE
  8
0
 10
38.434
 20
2.87422
 11
38.5
 21
2.87999
  0
LINE
  8
0
 10
38.5
 20
2.87999
 11
38.566
 21
2.87422
  0
LINE
  8
0
 10
38.566
 20
2.87422
 11
38.63
 21
2.85707
  0
LINE
  8
0
 10
38.63
 20
2.85707
 11
38.69
 21
2.82909
  0
LINE
  8
0
 10
38.69
 20
2.82909
 11
38.7442
 21
2.79109
  0
LINE
  8
0
 10
38.7442
 20
2.79109
 11
38.7911
 21
2.74425
  0
LINE
  8
0
 10
38.7911
 20
2.74425
 11
38.8291
 21
2.68999
  0
LINE
  8
0
 10
38.8291
 20
2.68999
 11
38.8571
 21
2.62996
  0
LINE
  8
0
 10
38.8571
 20
2.62996
 11
38.8742
 21
2.56598
  0
LINE
  8
0
 10
38.8742
 20
2.56598
 11
38.88
 21
2.5
  0
LINE
  8
0
 10
38.88
 20
2.5
 11
38.8742
 21
2.43401
  0
LINE
  8
0
 10
38.8742
 20
2.43401
 11
38.8571
 21
2.37003
  0
LINE
  8
0
 10
38.8571
 20
2.37003
 11
38.8291
 21
2.31
  0
LINE
  8
0
 10
38.8291
 20
2.31
 11
38.7911
 21
2.25574
  0
LINE
  8
0
 10
38.7911
 20
2.25574
 11
38.7442
 21
2.20889
  0
LINE
  8
0
 10
38.7442
 20
2.20889
 11
38.69
 21
2.1709
  0
LINE
  8
0
 10
38.69
 20
2.1709
 11
38.63
 21
2.14291
  0
LINE
  8
0
 10
38.63
 20
2.14291
 11
38.566
 21
2.12576
  0
LINE
  8
0
 10
38.566
 20
2.12576
 11
38.5
 21
2.12
  0
LINE
  8
0
 10
38.5
 20
2.12
 11
38.434
 21
2.12576
  0
LINE
  8
0
 10
34.434
 20
2.12576
 11
34.37
 21
2.14291
  0
LINE
  8
0
 10
34.37
 20
2.14291
 11
34.31
 21
2.1709
  0
LINE
  8
0
 10
34.31
 20
2.1709
 11
34.2557
 21
2.20889
  0
LINE
  8
0
 10
34.2557
 20
2.20889
 11
34.2089
 21
2.25574
  0
LINE
  8
0
 10
34.2089
 20
2.25574
 11
34.1709
 21
2.31
  0
LINE
  8
0
 10
34.1709
 20
2.31
 11
34.1429
 21
2.37003
  0
LINE
  8
0
 10
34.1429
 20
2.37003
 11
34.1258
 21
2.43401
  0
LINE
  8
0
 10
34.1258
 20
2.43401
 11
34.12
 21
2.5
  0
LINE
  8
0
 10
34.12
 20
2.5
 11
34.1258
 21
2.56598
  0
LINE
  8
0
 10
34.1258
 20
2.56598
 11
34.1429
 21
2.62996
  0
LINE
  8
0
 10
34.1429
 20
2.62996
 11
34.1709
 21
2.68999
  0
LINE
  8
0
 10
34.1709
 20
2.68999
 11
34.2089
 21
2.74425
  0
LINE
  8
0
 10
34.2089
 20
2.74425
 11
34.2557
 21
2.79109
  0
LINE
  8
0
 10
34.2557
 20
2.79109
 11
34.31
 21
2.82909
  0
LINE
  8
0
 10
34.31
 20
2.82909
 11
34.37
 21
2.85707
  0
LINE
  8
0
 10
34.37
 20
2.85707
 11
34.434
 21
2.87422
  0
LINE
  8
0
 10
34.434
 20
2.87422
 11
34.5
 21
2.87999
  0
LINE
  8
0
 10
34.5
 20
2.87999
 11
34.566
 21
2.87422
  0
LINE
  8
0
 10
34.566
 20
2.87422
 11
34.63
 21
2.85707
  0
LINE
  8
0
 10
34.63
 20
2.85707
 11
34.69
 21
2.82909
  0
LINE
  8
0
 10
34.69
 20
2.82909
 11
34.7442
 21
2.79109
  0
LINE
  8
0
 10
34.7442
 20
2.79109
 11
34.7911
 21
2.74425
  0
LINE
  8
0
 10
34.7911
 20
2.74425
 11
34.8291
 21
2.68999
  0
LINE
  8
0
 10
34.8291
 20
2.68999
 11
34.8571
 21
2.62996
  0
LINE
  8
0
 10
34.8571
 20
2.62996
 11
34.8742
 21
2.56598
  0
LINE
  8
0
 10
34.8742
 20
2.56598
 11
34.88
 21
2.5
  0
LINE
  8
0
 10
34.88
 20
2.5
 11
34.8742
 21
2.43401
  0
LINE
  8
0
 10
34.8742
 20
2.43401
 11
34.8571
 21
2.37003
  0
LINE
  8
0
 10
34.8571
 20
2.37003
 11
34.8291
 21
2.31
  0
LINE
  8
0
 10
34.8291
 20
2.31
 11
34.7911
 21
2.25574
  0
LINE
  8
0
 10
34.7911
 20
2.25574
 11
34.7442
 21
2.20889
  0
LINE
  8
0
 10
34.7442
 20
2.20889
 11
34.69
 21
2.1709
  0
LINE
  8
0
 10
34.69
 20
2.1709
 11
34.63
 21
2.14291
  0
LINE
  8
0
 10
34.63
 20
2.14291
 11
34.566
 21
2.12576
  0
LINE
  8
0
 10
34.566
 20
2.12576
 11
34.5
 21
2.12
  0
LINE
  8
0
 10
34.5
 20
2.12
 11
34.434
 21
2.12576
  0
LINE
  8
0
 10
15
 20
1
 11
14.375
 21
1
  0
LINE
  8
0
 10
14.375
 20
1
 11
14.375
 21
2
  0
LINE
  8
0
 10
14.375
 20
2
 11
14.5
 21
2
  0
LINE
  8
0
 10
14.5
 20
2
 11
14.5
 21
3
  0
LINE
  8
0
 10
14.5
 20
3
 11
14.375
 21
3
  0
LINE
  8
0
 10
14.375
 20
3
 11
14.375
 21
14.0942
  0
LINE
  8
0
 10
14.375
 20
14.0942
 11
14.5
 21
14.0942
  0
LINE
  8
0
 10
14.5
 20
14.0942
 11
14.5
 21
15.0942
  0
LINE
  8
0
 10
14.5
 20
15.0942
 11
14.375
 21
15.0942
  0
LINE
  8
0
 10
14.375
 20
15.0942
 11
14.375
 21
16.0942
  0
LINE
  8
0
 10
14.375
 20
16.0942
 11
15
 21
16.0942
  0
LINE
  8
0
 10
15
 20
16.0942
 11
15
 21
18.0942
  0
LINE
  8
0
 10
15
 20
18.0942
 11
14.375
 21
18.0942
  0
LINE
  8
0
 10
14.375
 20
18.0942
 11
14.375
 21
19.0942
  0
LINE
  8
0
 10
14.375
 20
19.0942
 11
14.5
 21
19.0942
  0
LINE
  8
0
 10
14.5
 20
19.0942
 11
14.5
 21
20.0942
  0
LINE
  8
0
 10
14.5
 20
20.0942
 11
14.375
 21
20.0942
  0
LINE
  8
0
 10
14.375
 20
20.0942
 11
14.375
 21
31.1884
  0
LINE
  8
0
 10
14.375
 20
31.1884
 11
14.5
 21
31.1884
  0
LINE
  8
0
 10
14.5
 20
31.1884
 11
14.5
 21
32.1884
  0
LINE
  8
0
 10
14.5
 20
32.1884
 11
14.375
 21
32.1884
  0
LINE
  8
0
 10
14.375
 20
32.1884
 11
14.375
 21
33.1884
  0
LINE
  8
0
 10
14.375
 20
33.1884
 11
15
 21
33.1884
  0
LINE
  8
0
 10
15
 20
33.1884
 11
15
 21
34.1884
  0
LINE
  8
0
 10
15
 20
34.1884
 11
11.5
 21
34.1884
  0
LINE
  8
0
 10
11.5
 20
34.1884
 11
11.5
 21
0
  0
LINE
  8
0
 10
11.5
 20
0
 11
15
 21
0
  0
LINE
  8
0
 10
15
 20
0
 11
15
 21
1
  0
LINE
  8
0
 10
13.1632
 20
28.321
 11
13.079
 21
28.3436
  0
LINE
  8
0
 10
13.079
 20
28.3436
 11
13
 21
28.3804
  0
LINE
  8
0
 10
13
 20
28.3804
 11
12.9286
 21
28.4304
  0
LINE
  8
0
 10
12.9286
 20
28.4304
 11
12.867
 21
28.492
  0
LINE
  8
0
 10
12.867
 20
28.492
 11
12.817
 21
28.5634
  0
LINE
  8
0
 10
12.817
 20
28.5634
 11
12.7802
 21
28.6424
  0
LINE
  8
0
 10
12.7802
 20
28.6424
 11
12.7576
 21
28.7266
  0
LINE
  8
0
 10
12.7576
 20
28.7266
 11
12.75
 21
28.8134
  0
LINE
  8
0
 10
12.75
 20
28.8134
 11
12.7576
 21
28.9002
  0
LINE
  8
0
 10
12.7576
 20
28.9002
 11
12.7802
 21
28.9844
  0
LINE
  8
0
 10
12.7802
 20
28.9844
 11
12.817
 21
29.0634
  0
LINE
  8
0
 10
12.817
 20
29.0634
 11
12.867
 21
29.1348
  0
LINE
  8
0
 10
12.867
 20
29.1348
 11
12.9286
 21
29.1964
  0
LINE
  8
0
 10
12.9286
 20
29.1964
 11
13
 21
29.2464
  0
LINE
  8
0
 10
13
 20
29.2464
 11
13.079
 21
29.2832
  0
LINE
  8
0
 10
13.079
 20
29.2832
 11
13.1632
 21
29.3058
  0
LINE
  8
0
 10
13.1632
 20
29.3058
 11
13.25
 21
29.3134
  0
LINE
  8
0
 10
13.25
 20
29.3134
 11
13.3368
 21
29.3058
  0
LINE
  8
0
 10
13.3368
 20
29.3058
 11
13.421
 21
29.2832
  0
LINE
  8
0
 10
13.421
 20
29.2832
 11
13.5
 21
29.2464
  0
LINE
  8
0
 10
13.5
 20
29.2464
 11
13.5714
 21
29.1964
  0
LINE
  8
0
 10
13.5714
 20
29.1964
 11
13.633
 21
29.1348
  0
LINE
  8
0
 10
13.633
 20
29.1348
 11
13.683
 21
29.0634
  0
LINE
  8
0
 10
13.683
 20
29.0634
 11
13.7198
 21
28.9844
  0
LINE
  8
0
 10
13.7198
 20
28.9844
 11
13.7424
 21
28.9002
  0
LINE
  8
0
 10
13.7424
 20
28.9002
 11
13.75
 21
28.8134
  0
LINE
  8
0
 10
13.75
 20
28.8134
 11
13.7424
 21
28.7266
  0
LINE
  8
0
 10
13.7424
 20
28.7266
 11
13.7198
 21
28.6424
  0
LINE
  8
0
 10
13.7198
 20
28.6424
 11
13.683
 21
28.5634
  0
LINE
  8
0
 10
13.683
 20
28.5634
 11
13.633
 21
28.492
  0
LINE
  8
0
 10
13.633
 20
28.492
 11
13.5714
 21
28.4304
  0
LINE
  8
0
 10
13.5714
 20
28.4304
 11
13.5
 21
28.3804
  0
LINE
  8
0
 10
13.5
 20
28.3804
 11
13.421
 21
28.3436
  0
LINE
  8
0
 10
13.421
 20
28.3436
 11
13.3368
 21
28.321
  0
LINE
  8
0
 10
13.3368
 20
28.321
 11
13.25
 21
28.3134
  0
LINE
  8
0
 10
13.25
 20
28.3134
 11
13.1632
 21
28.321
  0
LINE
  8
0
 10
13.1632
 20
4.88258
 11
13.079
 21
4.90515
  0
LINE
  8
0
 10
13.079
 20
4.90515
 11
13
 21
4.94199
  0
LINE
  8
0
 10
13
 20
4.94199
 11
12.9286
 21
4.99197
  0
LINE
  8
0
 10
12.9286
 20
4.99197
 11
12.867
 21
5.0536
  0
LINE
  8
0
 10
12.867
 20
5.0536
 11
12.817
 21
5.125
  0
LINE
  8
0
 10
12.817
 20
5.125
 11
12.7802
 21
5.20398
  0
LINE
  8
0
 10
12.7802
 20
5.20398
 11
12.7576
 21
5.28816
  0
LINE
  8
0
 10
12.7576
 20
5.28816
 11
12.75
 21
5.375
  0
LINE
  8
0
 10
12.75
 20
5.375
 11
12.7576
 21
5.46182
  0
LINE
  8
0
 10
12.7576
 20
5.46182
 11
12.7802
 21
5.54601
  0
LINE
  8
0
 10
12.7802
 20
5.54601
 11
12.817
 21
5.625
  0
LINE
  8
0
 10
12.817
 20
5.625
 11
12.867
 21
5.69638
  0
LINE
  8
0
 10
12.867
 20
5.69638
 11
12.9286
 21
5.75801
  0
LINE
  8
0
 10
12.9286
 20
5.75801
 11
13
 21
5.808
  0
LINE
  8
0
 10
13
 20
5.808
 11
13.079
 21
5.84483
  0
LINE
  8
0
 10
13.079
 20
5.84483
 11
13.1632
 21
5.8674
  0
LINE
  8
0
 10
13.1632
 20
5.8674
 11
13.25
 21
5.875
  0
LINE
  8
0
 10
13.25
 20
5.875
 11
13.3368
 21
5.8674
  0
LINE
  8
0
 10
13.3368
 20
5.8674
 11
13.421
 21
5.84483
  0
LINE
  8
0
 10
13.421
 20
5.84483
 11
13.5
 21
5.808
  0
LINE
  8
0
 10
13.5
 20
5.808
 11
13.5714
 21
5.75801
  0
LINE
  8
0
 10
13.5714
 20
5.75801
 11
13.633
 21
5.69638
  0
LINE
  8
0
 10
13.633
 20
5.69638
 11
13.683
 21
5.625
  0
LINE
  8
0
 10
13.683
 20
5.625
 11
13.7198
 21
5.54601
  0
LINE
  8
0
 10
13.7198
 20
5.54601
 11
13.7424
 21
5.46182
  0
LINE
  8
0
 10
13.7424
 20
5.46182
 11
13.75
 21
5.375
  0
LINE
  8
0
 10
13.75
 20
5.375
 11
13.7424
 21
5.28816
  0
LINE
  8
0
 10
13.7424
 20
5.28816
 11
13.7198
 21
5.20398
  0
LINE
  8
0
 10
13.7198
 20
5.20398
 11
13.683
 21
5.125
  0
LINE
  8
0
 10
13.683
 20
5.125
 11
13.633
 21
5.0536
  0
LINE
  8
0
 10
13.633
 20
5.0536
 11
13.5714
 21
4.99197
  0
LINE
  8
0
 10
13.5714
 20
4.99197
 11
13.5
 21
4.94199
  0
LINE
  8
0
 10
13.5
 20
4.94199
 11
13.421
 21
4.90515
  0
LINE
  8
0
 10
13.421
 20
4.90515
 11
13.3368
 21
4.88258
  0
LINE
  8
0
 10
13.3368
 20
4.88258
 11
13.25
 21
4.875
  0
LINE
  8
0
 10
13.25
 20
4.875
 11
13.1632
 21
4.88258
  0
LINE
  8
0
 10
5.4375
 20
0.9375
 11
5.3125
 21
0.9375
  0
LINE
  8
0
 10
5.3125
 20
0.9375
 11
5.3125
 21
1.1875
  0
LINE
  8
0
 10
5.3125
 20
1.1875
 11
5.5625
 21
1.1875
  0
LINE
  8
0
 10
5.5625
 20
1.1875
 11
5.5625
 21
1.0625
  0
LINE
  8
0
 10
5.5625
 20
1.0625
 11
6
 21
1.0625
  0
LINE
  8
0
 10
6
 20
1.0625
 11
6
 21
16.0317
  0
LINE
  8
0
 10
6
 20
16.0317
 11
5.5625
 21
16.0317
  0
LINE
  8
0
 10
5.5625
 20
16.0317
 11
5.5625
 21
15.9067
  0
LINE
  8
0
 10
5.5625
 20
15.9067
 11
5.3125
 21
15.9067
  0
LINE
  8
0
 10
5.3125
 20
15.9067
 11
5.3125
 21
16.1567
  0
LINE
  8
0
 10
5.3125
 20
16.1567
 11
5.4375
 21
16.1567
  0
LINE
  8
0
 10
5.4375
 20
16.1567
 11
5.4375
 21
18.0317
  0
LINE
  8
0
 10
5.4375
 20
18.0317
 11
5.3125
 21
18.0317
  0
LINE
  8
0
 10
5.3125
 20
18.0317
 11
5.3125
 21
18.2817
  0
LINE
  8
0
 10
5.3125
 20
18.2817
 11
5.5625
 21
18.2817
  0
LINE
  8
0
 10
5.5625
 20
18.2817
 11
5.5625
 21
18.1567
  0
LINE
  8
0
 10
5.5625
 20
18.1567
 11
6
 21
18.1567
  0
LINE
  8
0
 10
6
 20
18.1567
 11
6
 21
33.1259
  0
LINE
  8
0
 10
6
 20
33.1259
 11
5.5625
 21
33.1259
  0
LINE
  8
0
 10
5.5625
 20
33.1259
 11
5.5625
 21
33.0009
  0
LINE
  8
0
 10
5.5625
 20
33.0009
 11
5.3125
 21
33.0009
  0
LINE
  8
0
 10
5.3125
 20
33.0009
 11
5.3125
 21
33.2509
  0
LINE
  8
0
 10
5.3125
 20
33.2509
 11
5.4375
 21
33.2509
  0
LINE
  8
0
 10
5.4375
 20
33.2509
 11
5.4375
 21
34.1884
  0
LINE
  8
0
 10
5.4375
 20
34.1884
 11
0.25
 21
34.1884
  0
LINE
  8
0
 10
0.25
 20
34.1884
 11
0.25
 21
33.7884
  0
LINE
  8
0
 10
0.25
 20
33.7884
 11
0
 21
33.7884
  0
LINE
  8
0
 10
0
 20
33.7884
 11
0
 21
32.8509
  0
LINE
  8
0
 10
0
 20
32.8509
 11
0.4375
 21
32.8509
  0
LINE
  8
0
 10
0.4375
 20
32.8509
 11
0.4375
 21
32.9759
  0
LINE
  8
0
 10
0.4375
 20
32.9759
 11
0.6875
 21
32.9759
  0
LINE
  8
0
 10
0.6875
 20
32.9759
 11
0.6875
 21
32.7259
  0
LINE
  8
0
 10
0.6875
 20
32.7259
 11
0.5625
 21
32.7259
  0
LINE
  8
0
 10
0.5625
 20
32.7259
 11
0.5625
 21
31.8509
  0
LINE
  8
0
 10
0.5625
 20
31.8509
 11
0.6875
 21
31.8509
  0
LINE
  8
0
 10
0.6875
 20
31.8509
 11
0.6875
 21
31.6009
  0
LINE
  8
0
 10
0.6875
 20
31.6009
 11
0.4375
 21
31.6009
  0
LINE
  8
0
 10
0.4375
 20
31.6009
 11
0.4375
 21
31.7259
  0
LINE
  8
0
 10
0.4375
 20
31.7259
 11
0
 21
31.7259
  0
LINE
  8
0
 10
0
 20
31.7259
 11
0
 21
2.46249
  0
LINE
  8
0
 10
0
 20
2.46249
 11
0.4375
 21
2.46249
  0
LINE
  8
0
 10
0.4375
 20
2.46249
 11
0.4375
 21
2.58749
  0
LINE
  8
0
 10
0.4375
 20
2.58749
 11
0.6875
 21
2.58749
  0
LINE
  8
0
 10
0.6875
 20
2.58749
 11
0.6875
 21
2.33749
  0
LINE
  8
0
 10
0.6875
 20
2.33749
 11
0.5625
 21
2.33749
  0
LINE
  8
0
 10
0.5625
 20
2.33749
 11
0.5625
 21
1.46249
  0
LINE
  8
0
 10
0.5625
 20
1.46249
 11
0.6875
 21
1.46249
  0
LINE
  8
0
 10
0.6875
 20
1.46249
 11
0.6875
 21
1.21249
  0
LINE
  8
0
 10
0.6875
 20
1.21249
 11
0.4375
 21
1.21249
  0
LINE
  8
0
 10
0.4375
 20
1.21249
 11
0.4375
 21
1.33749
  0
LINE
  8
0
 10
0.4375
 20
1.33749
 11
0
 21
1.33749
  0
LINE
  8
0
 10
0
 20
1.33749
 11
0
 21
0.399994
  0
LINE
  8
0
 10
0
 20
0.399994
 11
0.25
 21
0.399994
  0
LINE
  8
0
 10
0.25
 20
0.399994
 11
0.25
 21
0
  0
LINE
  8
0
 10
0.25
 20
0
 11
5.4375
 21
0
  0
LINE
  8
0
 10
5.4375
 20
0
 11
5.4375
 21
0.9375
  0
LINE
  8
0
 10
1.43488
 20
31.3191
 11
1.37173
 21
31.336
  0
LINE
  8
0
 10
1.37173
 20
31.336
 11
1.3125
 21
31.3636
  0
LINE
  8
0
 10
1.3125
 20
31.3636
 11
1.25894
 21
31.4011
  0
LINE
  8
0
 10
1.25894
 20
31.4011
 11
1.21272
 21
31.4473
  0
LINE
  8
0
 10
1.21272
 20
31.4473
 11
1.17523
 21
31.5009
  0
LINE
  8
0
 10
1.17523
 20
31.5009
 11
1.14761
 21
31.5601
  0
LINE
  8
0
 10
1.14761
 20
31.5601
 11
1.13069
 21
31.6233
  0
LINE
  8
0
 10
1.13069
 20
31.6233
 11
1.125
 21
31.6884
  0
LINE
  8
0
 10
1.125
 20
31.6884
 11
1.13069
 21
31.7535
  0
LINE
  8
0
 10
1.13069
 20
31.7535
 11
1.14761
 21
31.8167
  0
LINE
  8
0
 10
1.14761
 20
31.8167
 11
1.17523
 21
31.8759
  0
LINE
  8
0
 10
1.17523
 20
31.8759
 11
1.21272
 21
31.9294
  0
LINE
  8
0
 10
1.21272
 20
31.9294
 11
1.25894
 21
31.9757
  0
LINE
  8
0
 10
1.25894
 20
31.9757
 11
1.3125
 21
32.0132
  0
LINE
  8
0
 10
1.3125
 20
32.0132
 11
1.37173
 21
32.0408
  0
LINE
  8
0
 10
1.37173
 20
32.0408
 11
1.43488
 21
32.0577
  0
LINE
  8
0
 10
1.43488
 20
32.0577
 11
1.5
 21
32.0634
  0
LINE
  8
0
 10
1.5
 20
32.0634
 11
1.56511
 21
32.0577
  0
LINE
  8
0
 10
1.56511
 20
32.0577
 11
1.62825
 21
32.0408
  0
LINE
  8
0
 10
1.62825
 20
32.0408
 11
1.6875
 21
32.0132
  0
LINE
  8
0
 10
1.6875
 20
32.0132
 11
1.74104
 21
31.9757
  0
LINE
  8
0
 10
1.74104
 20
31.9757
 11
1.78726
 21
31.9294
  0
LINE
  8
0
 10
1.78726
 20
31.9294
 11
1.82475
 21
31.8759
  0
LINE
  8
0
 10
1.82475
 20
31.8759
 11
1.85237
 21
31.8167
  0
LINE
  8
0
 10
1.85237
 20
31.8167
 11
1.86929
 21
31.7535
  0
LINE
  8
0
 10
1.86929
 20
31.7535
 11
1.875
 21
31.6884
  0
LINE
  8
0
 10
1.875
 20
31.6884
 11
1.86929
 21
31.6233
  0
LINE
  8
0
 10
1.86929
 20
31.6233
 11
1.85237
 21
31.5601
  0
LINE
  8
0
 10
1.85237
 20
31.5601
 11
1.82475
 21
31.5009
  0
LINE
  8
0
 10
1.82475
 20
31.5009
 11
1.78726
 21
31.4473
  0
LINE
  8
0
 10
1.78726
 20
31.4473
 11
1.74104
 21
31.4011
  0
LINE
  8
0
 10
1.74104
 20
31.4011
 11
1.6875
 21
31.3636
  0
LINE
  8
0
 10
1.6875
 20
31.3636
 11
1.62825
 21
31.336
  0
LINE
  8
0
 10
1.62825
 20
31.336
 11
1.56511
 21
31.3191
  0
LINE
  8
0
 10
1.56511
 20
31.3191
 11
1.5
 21
31.3134
  0
LINE
  8
0
 10
1.5
 20
31.3134
 11
1.43488
 21
31.3191
  0
LINE
  8
0
 10
4.43488
 20
31.3191
 11
4.37173
 21
31.336
  0
LINE
  8
0
 10
4.37173
 20
31.336
 11
4.3125
 21
31.3636
  0
LINE
  8
0
 10
4.3125
 20
31.3636
 11
4.25894
 21
31.4011
  0
LINE
  8
0
 10
4.25894
 20
31.4011
 11
4.21272
 21
31.4473
  0
LINE
  8
0
 10
4.21272
 20
31.4473
 11
4.17523
 21
31.5009
  0
LINE
  8
0
 10
4.17523
 20
31.5009
 11
4.14761
 21
31.5601
  0
LINE
  8
0
 10
4.14761
 20
31.5601
 11
4.13069
 21
31.6233
  0
LINE
  8
0
 10
4.13069
 20
31.6233
 11
4.125
 21
31.6884
  0
LINE
  8
0
 10
4.125
 20
31.6884
 11
4.13069
 21
31.7535
  0
LINE
  8
0
 10
4.13069
 20
31.7535
 11
4.14761
 21
31.8167
  0
LINE
  8
0
 10
4.14761
 20
31.8167
 11
4.17523
 21
31.8759
  0
LINE
  8
0
 10
4.17523
 20
31.8759
 11
4.21272
 21
31.9294
  0
LINE
  8
0
 10
4.21272
 20
31.9294
 11
4.25894
 21
31.9757
  0
LINE
  8
0
 10
4.25894
 20
31.9757
 11
4.3125
 21
32.0132
  0
LINE
  8
0
 10
4.3125
 20
32.0132
 11
4.37173
 21
32.0408
  0
LINE
  8
0
 10
4.37173
 20
32.0408
 11
4.43488
 21
32.0577
  0
LINE
  8
0
 10
4.43488
 20
32.0577
 11
4.5
 21
32.0634
  0
LINE
  8
0
 10
4.5
 20
32.0634
 11
4.56511
 21
32.0577
  0
LINE
  8
0
 10
4.56511
 20
32.0577
 11
4.62825
 21
32.0408
  0
LINE
  8
0
 10
4.62825
 20
32.0408
 11
4.6875
 21
32.0132
  0
LINE
  8
0
 10
4.6875
 20
32.0132
 11
4.74104
 21
31.9757
  0
LINE
  8
0
 10
4.74104
 20
31.9757
 11
4.78726
 21
31.9294
  0
LINE
  8
0
 10
4.78726
 20
31.9294
 11
4.82475
 21
31.8759
  0
LINE
  8
0
 10
4.82475
 20
31.8759
 11
4.85237
 21
31.8167
  0
LINE
  8
0
 10
4.85237
 20
31.8167
 11
4.86929
 21
31.7535
  0
LINE
  8
0
 10
4.86929
 20
31.7535
 11
4.875
 21
31.6884
  0
LINE
  8
0
 10
4.875
 20
31.6884
 11
4.86929
 21
31.6233
  0
LINE
  8
0
 10
4.86929
 20
31.6233
 11
4.85237
 21
31.5601
  0
LINE
  8
0
 10
4.85237
 20
31.5601
 11
4.82475
 21
31.5009
  0
LINE
  8
0
 10
4.82475
 20
31.5009
 11
4.78726
 21
31.4473
  0
LINE
  8
0
 10
4.78726
 20
31.4473
 11
4.74104
 21
31.4011
  0
LINE
  8
0
 10
4.74104
 20
31.4011
 11
4.6875
 21
31.3636
  0
LINE
  8
0
 10
4.6875
 20
31.3636
 11
4.62825
 21
31.336
  0
LINE
  8
0
 10
4.62825
 20
31.336
 11
4.56511
 21
31.3191
  0
LINE
  8
0
 10
4.56511
 20
31.3191
 11
4.5
 21
31.3134
  0
LINE
  8
0
 10
4.5
 20
31.3134
 11
4.43488
 21
31.3191
  0
LINE
  8
0
 10
1.4958
 20
27.9975
 11
1.39478
 21
28.0246
  0
LINE
  8
0
 10
1.39478
 20
28.0246
 11
1.29999
 21
28.0688
  0
LINE
  8
0
 10
1.29999
 20
28.0688
 11
1.21432
 21
28.1288
  0
LINE
  8
0
 10
1.21432
 20
28.1288
 11
1.14037
 21
28.2027
  0
LINE
  8
0
 10
1.14037
 20
28.2027
 11
1.08038
 21
28.2884
  0
LINE
  8
0
 10
1.08038
 20
28.2884
 11
1.03618
 21
28.3832
  0
LINE
  8
0
 10
1.03618
 20
28.3832
 11
1.00911
 21
28.4842
  0
LINE
  8
0
 10
1.00911
 20
28.4842
 11
1
 21
28.5884
  0
LINE
  8
0
 10
1
 20
28.5884
 11
1.00911
 21
28.6926
  0
LINE
  8
0
 10
1.00911
 20
28.6926
 11
1.03618
 21
28.7936
  0
LINE
  8
0
 10
1.03618
 20
28.7936
 11
1.08038
 21
28.8884
  0
LINE
  8
0
 10
1.08038
 20
28.8884
 11
1.14037
 21
28.9741
  0
LINE
  8
0
 10
1.14037
 20
28.9741
 11
1.21432
 21
29.048
  0
LINE
  8
0
 10
1.21432
 20
29.048
 11
1.29999
 21
29.108
  0
LINE
  8
0
 10
1.29999
 20
29.108
 11
1.39478
 21
29.1522
  0
LINE
  8
0
 10
1.39478
 20
29.1522
 11
1.4958
 21
29.1793
  0
LINE
  8
0
 10
1.4958
 20
29.1793
 11
1.59999
 21
29.1884
  0
LINE
  8
0
 10
1.59999
 20
29.1884
 11
1.70418
 21
29.1793
  0
LINE
  8
0
 10
1.70418
 20
29.1793
 11
1.80521
 21
29.1522
  0
LINE
  8
0
 10
1.80521
 20
29.1522
 11
1.89999
 21
29.108
  0
LINE
  8
0
 10
1.89999
 20
29.108
 11
1.98567
 21
29.048
  0
LINE
  8
0
 10
1.98567
 20
29.048
 11
2.05962
 21
28.9741
  0
LINE
  8
0
 10
2.05962
 20
28.9741
 11
2.11961
 21
28.8884
  0
LINE
  8
0
 10
2.11961
 20
28.8884
 11
2.1638
 21
28.7936
  0
LINE
  8
0
 10
2.1638
 20
28.7936
 11
2.19087
 21
28.6926
  0
LINE
  8
0
 10
2.19087
 20
28.6926
 11
2.2
 21
28.5884
  0
LINE
  8
0
 10
2.2
 20
28.5884
 11
2.19087
 21
28.4842
  0
LINE
  8
0
 10
2.19087
 20
28.4842
 11
2.1638
 21
28.3832
  0
LINE
  8
0
 10
2.1638
 20
28.3832
 11
2.11961
 21
28.2884
  0
LINE
  8
0
 10
2.11961
 20
28.2884
 11
2.05962
 21
28.2027
  0
LINE
  8
0
 10
2.05962
 20
28.2027
 11
1.98567
 21
28.1288
  0
LINE
  8
0
 10
1.98567
 20
28.1288
 11
1.89999
 21
28.0688
  0
LINE
  8
0
 10
1.89999
 20
28.0688
 11
1.80521
 21
28.0246
  0
LINE
  8
0
 10
1.80521
 20
28.0246
 11
1.70418
 21
27.9975
  0
LINE
  8
0
 10
1.70418
 20
27.9975
 11
1.59999
 21
27.9884
  0
LINE
  8
0
 10
1.59999
 20
27.9884
 11
1.4958
 21
27.9975
  0
LINE
  8
0
 10
1.4958
 20
5.00911
 11
1.39478
 21
5.03618
  0
LINE
  8
0
 10
1.39478
 20
5.03618
 11
1.29999
 21
5.08038
  0
LINE
  8
0
 10
1.29999
 20
5.08038
 11
1.21432
 21
5.14037
  0
LINE
  8
0
 10
1.21432
 20
5.14037
 11
1.14037
 21
5.21432
  0
LINE
  8
0
 10
1.14037
 20
5.21432
 11
1.08038
 21
5.29999
  0
LINE
  8
0
 10
1.08038
 20
5.29999
 11
1.03618
 21
5.39478
  0
LINE
  8
0
 10
1.03618
 20
5.39478
 11
1.00911
 21
5.4958
  0
LINE
  8
0
 10
1.00911
 20
5.4958
 11
1
 21
5.59999
  0
LINE
  8
0
 10
1
 20
5.59999
 11
1.00911
 21
5.70418
  0
LINE
  8
0
 10
1.00911
 20
5.70418
 11
1.03618
 21
5.80521
  0
LINE
  8
0
 10
1.03618
 20
5.80521
 11
1.08038
 21
5.89999
  0
LINE
  8
0
 10
1.08038
 20
5.89999
 11
1.14037
 21
5.98567
  0
LINE
  8
0
 10
1.14037
 20
5.98567
 11
1.21432
 21
6.05962
  0
LINE
  8
0
 10
1.21432
 20
6.05962
 11
1.29999
 21
6.11961
  0
LINE
  8
0
 10
1.29999
 20
6.11961
 11
1.39478
 21
6.1638
  0
LINE
  8
0
 10
1.39478
 20
6.1638
 11
1.4958
 21
6.19087
  0
LINE
  8
0
 10
1.4958
 20
6.19087
 11
1.59999
 21
6.2
  0
LINE
  8
0
 10
1.59999
 20
6.2
 11
1.70418
 21
6.19087
  0
LINE
  8
0
 10
1.70418
 20
6.19087
 11
1.80521
 21
6.1638
  0
LINE
  8
0
 10
1.80521
 20
6.1638
 11
1.89999
 21
6.11961
  0
LINE
  8
0
 10
1.89999
 20
6.11961
 11
1.98567
 21
6.05962
  0
LINE
  8
0
 10
1.98567
 20
6.05962
 11
2.05962
 21
5.98567
  0
LINE
  8
0
 10
2.05962
 20
5.98567
 11
2.11961
 21
5.89999
  0
LINE
  8
0
 10
2.11961
 20
5.89999
 11
2.1638
 21
5.80521
  0
LINE
  8
0
 10
2.1638
 20
5.80521
 11
2.19087
 21
5.70418
  0
LINE
  8
0
 10
2.19087
 20
5.70418
 11
2.2
 21
5.59999
  0
LINE
  8
0
 10
2.2
 20
5.59999
 11
2.19087
 21
5.4958
  0
LINE
  8
0
 10
2.19087
 20
5.4958
 11
2.1638
 21
5.39478
  0
LINE
  8
0
 10
2.1638
 20
5.39478
 11
2.11961
 21
5.29999
  0
LINE
  8
0
 10
2.11961
 20
5.29999
 11
2.05962
 21
5.21432
  0
LINE
  8
0
 10
2.05962
 20
5.21432
 11
1.98567
 21
5.14037
  0
LINE
  8
0
 10
1.98567
 20
5.14037
 11
1.89999
 21
5.08038
  0
LINE
  8
0
 10
1.89999
 20
5.08038
 11
1.80521
 21
5.03618
  0
LINE
  8
0
 10
1.80521
 20
5.03618
 11
1.70418
 21
5.00911
  0
LINE
  8
0
 10
1.70418
 20
5.00911
 11
1.59999
 21
5
  0
LINE
  8
0
 10
1.59999
 20
5
 11
1.4958
 21
5.00911
  0
LINE
  8
0
 10
1.43488
 20
2.13069
 11
1.37173
 21
2.14761
  0
LINE
  8
0
 10
1.37173
 20
2.14761
 11
1.3125
 21
2.17523
  0
LINE
  8
0
 10
1.3125
 20
2.17523
 11
1.25894
 21
2.21272
  0
LINE
  8
0
 10
1.25894
 20
2.21272
 11
1.21272
 21
2.25894
  0
LINE
  8
0
 10
1.21272
 20
2.25894
 11
1.17523
 21
2.3125
  0
LINE
  8
0
 10
1.17523
 20
2.3125
 11
1.14761
 21
2.37173
  0
LINE
  8
0
 10
1.14761
 20
2.37173
 11
1.13069
 21
2.43488
  0
LINE
  8
0
 10
1.13069
 20
2.43488
 11
1.125
 21
2.5
  0
LINE
  8
0
 10
1.125
 20
2.5
 11
1.13069
 21
2.56511
  0
LINE
  8
0
 10
1.13069
 20
2.56511
 11
1.14761
 21
2.62825
  0
LINE
  8
0
 10
1.14761
 20
2.62825
 11
1.17523
 21
2.6875
  0
LINE
  8
0
 10
1.17523
 20
2.6875
 11
1.21272
 21
2.74104
  0
LINE
  8
0
 10
1.21272
 20
2.74104
 11
1.25894
 21
2.78726
  0
LINE
  8
0
 10
1.25894
 20
2.78726
 11
1.3125
 21
2.82475
  0
LINE
  8
0
 10
1.3125
 20
2.82475
 11
1.37173
 21
2.85237
  0
LINE
  8
0
 10
1.37173
 20
2.85237
 11
1.43488
 21
2.86929
  0
LINE
  8
0
 10
1.43488
 20
2.86929
 11
1.5
 21
2.875
  0
LINE
  8
0
 10
1.5
 20
2.875
 11
1.56511
 21
2.86929
  0
LINE
  8
0
 10
1.56511
 20
2.86929
 11
1.62825
 21
2.85237
  0
LINE
  8
0
 10
1.62825
 20
2.85237
 11
1.6875
 21
2.82475
  0
LINE
  8
0
 10
1.6875
 20
2.82475
 11
1.74104
 21
2.78726
  0
LINE
  8
0
 10
1.74104
 20
2.78726
 11
1.78726
 21
2.74104
  0
LINE
  8
0
 10
1.78726
 20
2.74104
 11
1.82475
 21
2.6875
  0
LINE
  8
0
 10
1.82475
 20
2.6875
 11
1.85237
 21
2.62825
  0
LINE
  8
0
 10
1.85237
 20
2.62825
 11
1.86929
 21
2.56511
  0
LINE
  8
0
 10
1.86929
 20
2.56511
 11
1.875
 21
2.5
  0
LINE
  8
0
 10
1.875
 20
2.5
 11
1.86929
 21
2.43488
  0
LINE
  8
0
 10
1.86929
 20
2.43488
 11
1.85237
 21
2.37173
  0
LINE
  8
0
 10
1.85237
 20
2.37173
 11
1.82475
 21
2.3125
  0
LINE
  8
0
 10
1.82475
 20
2.3125
 11
1.78726
 21
2.25894
  0
LINE
  8
0
 10
1.78726
 20
2.25894
 11
1.74104
 21
2.21272
  0
LINE
  8
0
 10
1.74104
 20
2.21272
 11
1.6875
 21
2.17523
  0
LINE
  8
0
 10
1.6875
 20
2.17523
 11
1.62825
 21
2.14761
  0
LINE
  8
0
 10
1.62825
 20
2.14761
 11
1.56511
 21
2.13069
  0
LINE
  8
0
 10
1.56511
 20
2.13069
 11
1.5
 21
2.125
  0
LINE
  8
0
 10
1.5
 20
2.125
 11
1.43488
 21
2.13069
  0
LINE
  8
0
 10
4.43488
 20
2.13069
 11
4.37173
 21
2.14761
  0
LINE
  8
0
 10
4.37173
 20
2.14761
 11
4.3125
 21
2.17523
  0
LINE
  8
0
 10
4.3125
 20
2.17523
 11
4.25894
 21
2.21272
  0
LINE
  8
0
 10
4.25894
 20
2.21272
 11
4.21272
 21
2.25894
  0
LINE
  8
0
 10
4.21272
 20
2.25894
 11
4.17523
 21
2.3125
  0
LINE
  8
0
 10
4.17523
 20
2.3125
 11
4.14761
 21
2.37173
  0
LINE
  8
0
 10
4.14761
 20
2.37173
 11
4.13069
 21
2.43488
  0
LINE
  8
0
 10
4.13069
 20
2.43488
 11
4.125
 21
2.5
  0
LINE
  8
0
 10
4.125
 20
2.5
 11
4.13069
 21
2.56511
  0
LINE
  8
0
 10
4.13069
 20
2.56511
 11
4.14761
 21
2.62825
  0
LINE
  8
0
 10
4.14761
 20
2.62825
 11
4.17523
 21
2.6875
  0
LINE
  8
0
 10
4.17523
 20
2.6875
 11
4.21272
 21
2.74104
  0
LINE
  8
0
 10
4.21272
 20
2.74104
 11
4.25894
 21
2.78726
  0
LINE
  8
0
 10
4.25894
 20
2.78726
 11
4.3125
 21
2.82475
  0
LINE
  8
0
 10
4.3125
 20
2.82475
 11
4.37173
 21
2.85237
  0
LINE
  8
0
 10
4.37173
 20
2.85237
 11
4.43488
 21
2.86929
  0
LINE
  8
0
 10
4.43488
 20
2.86929
 11
4.5
 21
2.875
  0
LINE
  8
0
 10
4.5
 20
2.875
 11
4.56511
 21
2.86929
  0
LINE
  8
0
 10
4.56511
 20
2.86929
 11
4.62825
 21
2.85237
  0
LINE
  8
0
 10
4.62825
 20
2.85237
 11
4.6875
 21
2.82475
  0
LINE
  8
0
 10
4.6875
 20
2.82475
 11
4.74104
 21
2.78726
  0
LINE
  8
0
 10
4.74104
 20
2.78726
 11
4.78726
 21
2.74104
  0
LINE
  8
0
 10
4.78726
 20
2.74104
 11
4.82475
 21
2.6875
  0
LINE
  8
0
 10
4.82475
 20
2.6875
 11
4.85237
 21
2.62825
  0
LINE
  8
0
 10
4.85237
 20
2.62825
 11
4.86929
 21
2.56511
  0
LINE
  8
0
 10
4.86929
 20
2.56511
 11
4.875
 21
2.5
  0
LINE
  8
0
 10
4.875
 20
2.5
 11
4.86929
 21
2.43488
  0
LINE
  8
0
 10
4.86929
 20
2.43488
 11
4.85237
 21
2.37173
  0
LINE
  8
0
 10
4.85237
 20
2.37173
 11
4.82475
 21
2.3125
  0
LINE
  8
0
 10
4.82475
 20
2.3125
 11
4.78726
 21
2.25894
  0
LINE
  8
0
 10
4.78726
 20
2.25894
 11
4.74104
 21
2.21272
  0
LINE
  8
0
 10
4.74104
 20
2.21272
 11
4.6875
 21
2.17523
  0
LINE
  8
0
 10
4.6875
 20
2.17523
 11
4.62825
 21
2.14761
  0
LINE
  8
0
 10
4.62825
 20
2.14761
 11
4.56511
 21
2.13069
  0
LINE
  8
0
 10
4.56511
 20
2.13069
 11
4.5
 21
2.125
  0
LINE
  8
0
 10
4.5
 20
2.125
 11
4.43488
 21
2.13069
  0
LINE
  8
0
 10
76
 20
34.1884
 11
63
 21
34.1884
  0
LINE
  8
0
 10
63
 20
34.1884
 11
63
 21
0
  0
LINE
  8
0
 10
63
 20
0
 11
76
 21
0
  0
LINE
  8
0
 10
76
 20
0
 11
76
 21
34.1884
  0
LINE
  8
0
 10
66.25
 20
4.34419
 11
66.25
 21
29.8442
  0
LINE
  8
0
 10
66.25
 20
29.8442
 11
72.75
 21
29.8442
  0
LINE
  8
0
 10
72.75
 20
29.8442
 11
72.75
 21
4.34419
  0
LINE
  8
0
 10
72.75
 20
4.34419
 11
66.25
 21
4.34419
  0
LINE
  8
0
 10
64.6632
 20
28.321
 11
64.579
 21
28.3436
  0
LINE
  8
0
 10
64.579
 20
28.3436
 11
64.5
 21
28.3804
  0
LINE
  8
0
 10
64.5
 20
28.3804
 11
64.4286
 21
28.4304
  0
LINE
  8
0
 10
64.4286
 20
28.4304
 11
64.367
 21
28.492
  0
LINE
  8
0
 10
64.367
 20
28.492
 11
64.317
 21
28.5634
  0
LINE
  8
0
 10
64.317
 20
28.5634
 11
64.2802
 21
28.6424
  0
LINE
  8
0
 10
64.2802
 20
28.6424
 11
64.2576
 21
28.7266
  0
LINE
  8
0
 10
64.2576
 20
28.7266
 11
64.25
 21
28.8134
  0
LINE
  8
0
 10
64.25
 20
28.8134
 11
64.2576
 21
28.9002
  0
LINE
  8
0
 10
64.2576
 20
28.9002
 11
64.2802
 21
28.9844
  0
LINE
  8
0
 10
64.2802
 20
28.9844
 11
64.317
 21
29.0634
  0
LINE
  8
0
 10
64.317
 20
29.0634
 11
64.367
 21
29.1348
  0
LINE
  8
0
 10
64.367
 20
29.1348
 11
64.4286
 21
29.1964
  0
LINE
  8
0
 10
64.4286
 20
29.1964
 11
64.5
 21
29.2464
  0
LINE
  8
0
 10
64.5
 20
29.2464
 11
64.579
 21
29.2832
  0
LINE
  8
0
 10
64.579
 20
29.2832
 11
64.6632
 21
29.3058
  0
LINE
  8
0
 10
64.6632
 20
29.3058
 11
64.75
 21
29.3134
  0
LINE
  8
0
 10
64.75
 20
29.3134
 11
64.8368
 21
29.3058
  0
LINE
  8
0
 10
64.8368
 20
29.3058
 11
64.921
 21
29.2832
  0
LINE
  8
0
 10
64.921
 20
29.2832
 11
65
 21
29.2464
  0
LINE
  8
0
 10
65
 20
29.2464
 11
65.0714
 21
29.1964
  0
LINE
  8
0
 10
65.0714
 20
29.1964
 11
65.133
 21
29.1348
  0
LINE
  8
0
 10
65.133
 20
29.1348
 11
65.183
 21
29.0634
  0
LINE
  8
0
 10
65.183
 20
29.0634
 11
65.2198
 21
28.9844
  0
LINE
  8
0
 10
65.2198
 20
28.9844
 11
65.2424
 21
28.9002
  0
LINE
  8
0
 10
65.2424
 20
28.9002
 11
65.25
 21
28.8134
  0
LINE
  8
0
 10
65.25
 20
28.8134
 11
65.2424
 21
28.7266
  0
LINE
  8
0
 10
65.2424
 20
28.7266
 11
65.2198
 21
28.6424
  0
LINE
  8
0
 10
65.2198
 20
28.6424
 11
65.183
 21
28.5634
  0
LINE
  8
0
 10
65.183
 20
28.5634
 11
65.133
 21
28.492
  0
LINE
  8
0
 10
65.133
 20
28.492
 11
65.0714
 21
28.4304
  0
LINE
  8
0
 10
65.0714
 20
28.4304
 11
65
 21
28.3804
  0
LINE
  8
0
 10
65
 20
28.3804
 11
64.921
 21
28.3436
  0
LINE
  8
0
 10
64.921
 20
28.3436
 11
64.8368
 21
28.321
  0
LINE
  8
0
 10
64.8368
 20
28.321
 11
64.75
 21
28.3134
  0
LINE
  8
0
 10
64.75
 20
28.3134
 11
64.6632
 21
28.321
  0
LINE
  8
0
 10
74.1632
 20
28.321
 11
74.079
 21
28.3436
  0
LINE
  8
0
 10
74.079
 20
28.3436
 11
74
 21
28.3804
  0
LINE
  8
0
 10
74
 20
28.3804
 11
73.9286
 21
28.4304
  0
LINE
  8
0
 10
73.9286
 20
28.4304
 11
73.867
 21
28.492
  0
LINE
  8
0
 10
73.867
 20
28.492
 11
73.817
 21
28.5634
  0
LINE
  8
0
 10
73.817
 20
28.5634
 11
73.7802
 21
28.6424
  0
LINE
  8
0
 10
73.7802
 20
28.6424
 11
73.7576
 21
28.7266
  0
LINE
  8
0
 10
73.7576
 20
28.7266
 11
73.75
 21
28.8134
  0
LINE
  8
0
 10
73.75
 20
28.8134
 11
73.7576
 21
28.9002
  0
LINE
  8
0
 10
73.7576
 20
28.9002
 11
73.7802
 21
28.9844
  0
LINE
  8
0
 10
73.7802
 20
28.9844
 11
73.817
 21
29.0634
  0
LINE
  8
0
 10
73.817
 20
29.0634
 11
73.867
 21
29.1348
  0
LINE
  8
0
 10
73.867
 20
29.1348
 11
73.9286
 21
29.1964
  0
LINE
  8
0
 10
73.9286
 20
29.1964
 11
74
 21
29.2464
  0
LINE
  8
0
 10
74
 20
29.2464
 11
74.079
 21
29.2832
  0
LINE
  8
0
 10
74.079
 20
29.2832
 11
74.1632
 21
29.3058
  0
LINE
  8
0
 10
74.1632
 20
29.3058
 11
74.25
 21
29.3134
  0
LINE
  8
0
 10
74.25
 20
29.3134
 11
74.3368
 21
29.3058
  0
LINE
  8
0
 10
74.3368
 20
29.3058
 11
74.421
 21
29.2832
  0
LINE
  8
0
 10
74.421
 20
29.2832
 11
74.5
 21
29.2464
  0
LINE
  8
0
 10
74.5
 20
29.2464
 11
74.5714
 21
29.1964
  0
LINE
  8
0
 10
74.5714
 20
29.1964
 11
74.633
 21
29.1348
  0
LINE
  8
0
 10
74.633
 20
29.1348
 11
74.683
 21
29.0634
  0
LINE
  8
0
 10
74.683
 20
29.0634
 11
74.7198
 21
28.9844
  0
LINE
  8
0
 10
74.7198
 20
28.9844
 11
74.7424
 21
28.9002
  0
LINE
  8
0
 10
74.7424
 20
28.9002
 11
74.75
 21
28.8134
  0
LINE
  8
0
 10
74.75
 20
28.8134
 11
74.7424
 21
28.7266
  0
LINE
  8
0
 10
74.7424
 20
28.7266
 11
74.7198
 21
28.6424
  0
LINE
  8
0
 10
74.7198
 20
28.6424
 11
74.683
 21
28.5634
  0
LINE
  8
0
 10
74.683
 20
28.5634
 11
74.633
 21
28.492
  0
LINE
  8
0
 10
74.633
 20
28.492
 11
74.5714
 21
28.4304
  0
LINE
  8
0
 10
74.5714
 20
28.4304
 11
74.5
 21
28.3804
  0
LINE
  8
0
 10
74.5
 20
28.3804
 11
74.421
 21
28.3436
  0
LINE
  8
0
 10
74.421
 20
28.3436
 11
74.3368
 21
28.321
  0
LINE
  8
0
 10
74.3368
 20
28.321
 11
74.25
 21
28.3134
  0
LINE
  8
0
 10
74.25
 20
28.3134
 11
74.1632
 21
28.321
  0
LINE
  8
0
 10
74.1632
 20
4.88258
 11
74.079
 21
4.90515
  0
LINE
  8
0
 10
74.079
 20
4.90515
 11
74
 21
4.94199
  0
LINE
  8
0
 10
74
 20
4.94199
 11
73.9286
 21
4.99197
  0
LINE
  8
0
 10
73.9286
 20
4.99197
 11
73.867
 21
5.0536
  0
LINE
  8
0
 10
73.867
 20
5.0536
 11
73.817
 21
5.125
  0
LINE
  8
0
 10
73.817
 20
5.125
 11
73.7802
 21
5.20398
  0
LINE
  8
0
 10
73.7802
 20
5.20398
 11
73.7576
 21
5.28816
  0
LINE
  8
0
 10
73.7576
 20
5.28816
 11
73.75
 21
5.375
  0
LINE
  8
0
 10
73.75
 20
5.375
 11
73.7576
 21
5.46182
  0
LINE
  8
0
 10
73.7576
 20
5.46182
 11
73.7802
 21
5.54601
  0
LINE
  8
0
 10
73.7802
 20
5.54601
 11
73.817
 21
5.625
  0
LINE
  8
0
 10
73.817
 20
5.625
 11
73.867
 21
5.69638
  0
LINE
  8
0
 10
73.867
 20
5.69638
 11
73.9286
 21
5.75801
  0
LINE
  8
0
 10
73.9286
 20
5.75801
 11
74
 21
5.808
  0
LINE
  8
0
 10
74
 20
5.808
 11
74.079
 21
5.84483
  0
LINE
  8
0
 10
74.079
 20
5.84483
 11
74.1632
 21
5.8674
  0
LINE
  8
0
 10
74.1632
 20
5.8674
 11
74.25
 21
5.875
  0
LINE
  8
0
 10
74.25
 20
5.875
 11
74.3368
 21
5.8674
  0
LINE
  8
0
 10
74.3368
 20
5.8674
 11
74.421
 21
5.84483
  0
LINE
  8
0
 10
74.421
 20
5.84483
 11
74.5
 21
5.808
  0
LINE
  8
0
 10
74.5
 20
5.808
 11
74.5714
 21
5.75801
  0
LINE
  8
0
 10
74.5714
 20
5.75801
 11
74.633
 21
5.69638
  0
LINE
  8
0
 10
74.633
 20
5.69638
 11
74.683
 21
5.625
  0
LINE
  8
0
 10
74.683
 20
5.625
 11
74.7198
 21
5.54601
  0
LINE
  8
0
 10
74.7198
 20
5.54601
 11
74.7424
 21
5.46182
  0
LINE
  8
0
 10
74.7424
 20
5.46182
 11
74.75
 21
5.375
  0
LINE
  8
0
 10
74.75
 20
5.375
 11
74.7424
 21
5.28816
  0
LINE
  8
0
 10
74.7424
 20
5.28816
 11
74.7198
 21
5.20398
  0
LINE
  8
0
 10
74.7198
 20
5.20398
 11
74.683
 21
5.125
  0
LINE
  8
0
 10
74.683
 20
5.125
 11
74.633
 21
5.0536
  0
LINE
  8
0
 10
74.633
 20
5.0536
 11
74.5714
 21
4.99197
  0
LINE
  8
0
 10
74.5714
 20
4.99197
 11
74.5
 21
4.94199
  0
LINE
  8
0
 10
74.5
 20
4.94199
 11
74.421
 21
4.90515
  0
LINE
  8
0
 10
74.421
 20
4.90515
 11
74.3368
 21
4.88258
  0
LINE
  8
0
 10
74.3368
 20
4.88258
 11
74.25
 21
4.875
  0
LINE
  8
0
 10
74.25
 20
4.875
 11
74.1632
 21
4.88258
  0
LINE
  8
0
 10
64.6632
 20
4.88258
 11
64.579
 21
4.90515
  0
LINE
  8
0
 10
64.579
 20
4.90515
 11
64.5
 21
4.94199
  0
LINE
  8
0
 10
64.5
 20
4.94199
 11
64.4286
 21
4.99197
  0
LINE
  8
0
 10
64.4286
 20
4.99197
 11
64.367
 21
5.0536
  0
LINE
  8
0
 10
64.367
 20
5.0536
 11
64.317
 21
5.125
  0
LINE
  8
0
 10
64.317
 20
5.125
 11
64.2802
 21
5.20398
  0
LINE
  8
0
 10
64.2802
 20
5.20398
 11
64.2576
 21
5.28816
  0
LINE
  8
0
 10
64.2576
 20
5.28816
 11
64.25
 21
5.375
  0
LINE
  8
0
 10
64.25
 20
5.375
 11
64.2576
 21
5.46182
  0
LINE
  8
0
 10
64.2576
 20
5.46182
 11
64.2802
 21
5.54601
  0
LINE
  8
0
 10
64.2802
 20
5.54601
 11
64.317
 21
5.625
  0
LINE
  8
0
 10
64.317
 20
5.625
 11
64.367
 21
5.69638
  0
LINE
  8
0
 10
64.367
 20
5.69638
 11
64.4286
 21
5.75801
  0
LINE
  8
0
 10
64.4286
 20
5.75801
 11
64.5
 21
5.808
  0
LINE
  8
0
 10
64.5
 20
5.808
 11
64.579
 21
5.84483
  0
LINE
  8
0
 10
64.579
 20
5.84483
 11
64.6632
 21
5.8674
  0
LINE
  8
0
 10
64.6632
 20
5.8674
 11
64.75
 21
5.875
  0
LINE
  8
0
 10
64.75
 20
5.875
 11
64.8368
 21
5.8674
  0
LINE
  8
0
 10
64.8368
 20
5.8674
 11
64.921
 21
5.84483
  0
LINE
  8
0
 10
64.921
 20
5.84483
 11
65
 21
5.808
  0
LINE
  8
0
 10
65
 20
5.808
 11
65.0714
 21
5.75801
  0
LINE
  8
0
 10
65.0714
 20
5.75801
 11
65.133
 21
5.69638
  0
LINE
  8
0
 10
65.133
 20
5.69638
 11
65.183
 21
5.625
  0
LINE
  8
0
 10
65.183
 20
5.625
 11
65.2198
 21
5.54601
  0
LINE
  8
0
 10
65.2198
 20
5.54601
 11
65.2424
 21
5.46182
  0
LINE
  8
0
 10
65.2424
 20
5.46182
 11
65.25
 21
5.375
  0
LINE
  8
0
 10
65.25
 20
5.375
 11
65.2424
 21
5.28816
  0
LINE
  8
0
 10
65.2424
 20
5.28816
 11
65.2198
 21
5.20398
  0
LINE
  8
0
 10
65.2198
 20
5.20398
 11
65.183
 21
5.125
  0
LINE
  8
0
 10
65.183
 20
5.125
 11
65.133
 21
5.0536
  0
LINE
  8
0
 10
65.133
 20
5.0536
 11
65.0714
 21
4.99197
  0
LINE
  8
0
 10
65.0714
 20
4.99197
 11
65
 21
4.94199
  0
LINE
  8
0
 10
65
 20
4.94199
 11
64.921
 21
4.90515
  0
LINE
  8
0
 10
64.921
 20
4.90515
 11
64.8368
 21
4.88258
  0
LINE
  8
0
 10
64.8368
 20
4.88258
 11
64.75
 21
4.875
  0
LINE
  8
0
 10
64.75
 20
4.875
 11
64.6632
 21
4.88258
  0
LINE
  8
0
 10
10.5
 20
1
 11
9.875
 21
1
  0
LINE
  8
0
 10
9.875
 20
1
 11
9.875
 21
1.125
  0
LINE
  8
0
 10
9.875
 20
1.125
 11
10
 21
1.125
  0
LINE
  8
0
 10
10
 20
1.125
 11
10
 21
30.2634
  0
LINE
  8
0
 10
10
 20
30.2634
 11
9.875
 21
30.2634
  0
LINE
  8
0
 10
9.875
 20
30.2634
 11
9.875
 21
30.3884
  0
LINE
  8
0
 10
9.875
 20
30.3884
 11
10.5
 21
30.3884
  0
LINE
  8
0
 10
10.5
 20
30.3884
 11
10.5
 21
31.3884
  0
LINE
  8
0
 10
10.5
 20
31.3884
 11
7
 21
31.3884
  0
LINE
  8
0
 10
7
 20
31.3884
 11
7
 21
0
  0
LINE
  8
0
 10
7
 20
0
 11
10.5
 21
0
  0
LINE
  8
0
 10
10.5
 20
0
 11
10.5
 21
1
  0
LINE
  8
0
 10
86
 20
1
 11
85.375
 21
1
  0
LINE
  8
0
 10
85.375
 20
1
 11
85.375
 21
1.125
  0
LINE
  8
0
 10
85.375
 20
1.125
 11
85.5
 21
1.125
  0
LINE
  8
0
 10
85.5
 20
1.125
 11
85.5
 21
25.1875
  0
LINE
  8
0
 10
85.5
 20
25.1875
 11
85.375
 21
25.1875
  0
LINE
  8
0
 10
85.375
 20
25.1875
 11
85.375
 21
25.3125
  0
LINE
  8
0
 10
85.375
 20
25.3125
 11
86
 21
25.3125
  0
LINE
  8
0
 10
86
 20
25.3125
 11
86
 21
26.3125
  0
LINE
  8
0
 10
86
 20
26.3125
 11
82.5
 21
26.3125
  0
LINE
  8
0
 10
82.5
 20
26.3125
 11
82.5
 21
0
  0
LINE
  8
0
 10
82.5
 20
0
 11
86
 21
0
  0
LINE
  8
0
 10
86
 20
0
 11
86
 21
1
  0
LINE
  8
0
 10
62
 20
11.75
 11
61.375
 21
11.75
  0
LINE
  8
0
 10
61.375
 20
11.75
 11
61.375
 21
11.875
  0
LINE
  8
0
 10
61.375
 20
11.875
 11
61.5
 21
11.875
  0
LINE
  8
0
 10
61.5
 20
11.875
 11
61.5
 21
12.5
  0
LINE
  8
0
 10
61.5
 20
12.5
 11
56.5
 21
12.5
  0
LINE
  8
0
 10
56.5
 20
12.5
 11
56.5
 21
11.875
  0
LINE
  8
0
 10
56.5
 20
11.875
 11
56.625
 21
11.875
  0
LINE
  8
0
 10
56.625
 20
11.875
 11
56.625
 21
11.75
  0
LINE
  8
0
 10
56.625
 20
11.75
 11
56
 21
11.75
  0
LINE
  8
0
 10
56
 20
11.75
 11
56
 21
11.25
  0
LINE
  8
0
 10
56
 20
11.25
 11
62
 21
11.25
  0
LINE
  8
0
 10
62
 20
11.25
 11
62
 21
11.75
  0
LINE
  8
0
 10
62
 20
9.5
 11
61.375
 21
9.5
  0
LINE
  8
0
 10
61.375
 20
9.5
 11
61.375
 21
9.625
  0
LINE
  8
0
 10
61.375
 20
9.625
 11
61.5
 21
9.625
  0
LINE
  8
0
 10
61.5
 20
9.625
 11
61.5
 21
10.25
  0
LINE
  8
0
 10
61.5
 20
10.25
 11
56.5
 21
10.25
  0
LINE
  8
0
 10
56.5
 20
10.25
 11
56.5
 21
9.625
  0
LINE
  8
0
 10
56.5
 20
9.625
 11
56.625
 21
9.625
  0
LINE
  8
0
 10
56.625
 20
9.625
 11
56.625
 21
9.5
  0
LINE
  8
0
 10
56.625
 20
9.5
 11
56
 21
9.5
  0
LINE
  8
0
 10
56
 20
9.5
 11
56
 21
9
  0
LINE
  8
0
 10
56
 20
9
 11
62
 21
9
  0
LINE
  8
0
 10
62
 20
9
 11
62
 21
9.5
  0
LINE
  8
0
 10
62
 20
7.25
 11
61.375
 21
7.25
  0
LINE
  8
0
 10
61.375
 20
7.25
 11
61.375
 21
7.375
  0
LINE
  8
0
 10
61.375
 20
7.375
 11
61.5
 21
7.375
  0
LINE
  8
0
 10
61.5
 20
7.375
 11
61.5
 21
8
  0
LINE
  8
0
 10
61.5
 20
8
 11
56.5
 21
8
  0
LINE
  8
0
 10
56.5
 20
8
 11
56.5
 21
7.375
  0
LINE
  8
0
 10
56.5
 20
7.375
 11
56.625
 21
7.375
  0
LINE
  8
0
 10
56.625
 20
7.375
 11
56.625
 21
7.25
  0
LINE
  8
0
 10
56.625
 20
7.25
 11
56
 21
7.25
  0
LINE
  8
0
 10
56
 20
7.25
 11
56
 21
6.75
  0
LINE
  8
0
 10
56
 20
6.75
 11
62
 21
6.75
  0
LINE
  8
0
 10
62
 20
6.75
 11
62
 21
7.25
  0
LINE
  8
0
 10
62
 20
5
 11
61.375
 21
5
  0
LINE
  8
0
 10
61.375
 20
5
 11
61.375
 21
5.125
  0
LINE
  8
0
 10
61.375
 20
5.125
 11
61.5
 21
5.125
  0
LINE
  8
0
 10
61.5
 20
5.125
 11
61.5
 21
5.75
  0
LINE
  8
0
 10
61.5
 20
5.75
 11
56.5
 21
5.75
  0
LINE
  8
0
 10
56.5
 20
5.75
 11
56.5
 21
5.125
  0
LINE
  8
0
 10
56.5
 20
5.125
 11
56.625
 21
5.125
  0
LINE
  8
0
 10
56.625
 20
5.125
 11
56.625
 21
5
  0
LINE
  8
0
 10
56.625
 20
5
 11
56
 21
5
  0
LINE
  8
0
 10
56
 20
5
 11
56
 21
4.5
  0
LINE
  8
0
 10
56
 20
4.5
 11
62
 21
4.5
  0
LINE
  8
0
 10
62
 20
4.5
 11
62
 21
5
  0
LINE
  8
0
 10
62
 20
2.75
 11
61.375
 21
2.75
  0
LINE
  8
0
 10
61.375
 20
2.75
 11
61.375
 21
2.875
  0
LINE
  8
0
 10
61.375
 20
2.875
 11
61.5
 21
2.875
  0
LINE
  8
0
 10
61.5
 20
2.875
 11
61.5
 21
3.5
  0
LINE
  8
0
 10
61.5
 20
3.5
 11
56.5
 21
3.5
  0
LINE
  8
0
 10
56.5
 20
3.5
 11
56.5
 21
2.875
  0
LINE
  8
0
 10
56.5
 20
2.875
 11
56.625
 21
2.875
  0
LINE
  8
0
 10
56.625
 20
2.875
 11
56.625
 21
2.75
  0
LINE
  8
0
 10
56.625
 20
2.75
 11
56
 21
2.75
  0
LINE
  8
0
 10
56
 20
2.75
 11
56
 21
2.25
  0
LINE
  8
0
 10
56
 20
2.25
 11
62
 21
2.25
  0
LINE
  8
0
 10
62
 20
2.25
 11
62
 21
2.75
  0
LINE
  8
0
 10
62
 20
0.5
 11
61.375
 21
0.5
  0
LINE
  8
0
 10
61.375
 20
0.5
 11
61.375
 21
0.625
  0
LINE
  8
0
 10
61.375
 20
0.625
 11
61.5
 21
0.625
  0
LINE
  8
0
 10
61.5
 20
0.625
 11
61.5
 21
1.25
  0
LINE
  8
0
 10
61.5
 20
1.25
 11
56.5
 21
1.25
  0
LINE
  8
0
 10
56.5
 20
1.25
 11
56.5
 21
0.625
  0
LINE
  8
0
 10
56.5
 20
0.625
 11
56.625
 21
0.625
  0
LINE
  8
0
 10
56.625
 20
0.625
 11
56.625
 21
0.5
  0
LINE
  8
0
 10
56.625
 20
0.5
 11
56
 21
0.5
  0
LINE
  8
0
 10
56
 20
0.5
 11
56
 21
0
  0
LINE
  8
0
 10
56
 20
0
 11
62
 21
0
  0
LINE
  8
0
 10
62
 20
0
 11
62
 21
0.5
  0
ENDSEC
  0
SECTION
  2
OBJECTS
  0
DICTIONARY
  0
ENDSEC
  0
EOF
