  0
SECTION
  2
BLOCKS
  0
ENDSEC
  0
SECTION
  2
ENTITIES
  0
LINE
  8
0
 10
381
 20
35.625
 11
380.5
 21
35.625
  0
LINE
  8
0
 10
380.5
 20
35.625
 11
380.5
 21
36.4333
  0
LINE
  8
0
 10
380.5
 20
36.4333
 11
378.06
 21
40.5
  0
LINE
  8
0
 10
378.06
 20
40.5
 11
377.625
 21
40.5
  0
LINE
  8
0
 10
377.625
 20
40.5
 11
377.625
 21
41
  0
LINE
  8
0
 10
377.625
 20
41
 11
377
 21
41
  0
LINE
  8
0
 10
377
 20
41
 11
377
 21
40
  0
LINE
  8
0
 10
377
 20
40
 11
380
 21
35
  0
LINE
  8
0
 10
380
 20
35
 11
381
 21
35
  0
LINE
  8
0
 10
381
 20
35
 11
381
 21
35.625
  0
LINE
  8
0
 10
381
 20
28.625
 11
380.5
 21
28.625
  0
LINE
  8
0
 10
380.5
 20
28.625
 11
380.5
 21
29.4333
  0
LINE
  8
0
 10
380.5
 20
29.4333
 11
378.06
 21
33.5
  0
LINE
  8
0
 10
378.06
 20
33.5
 11
377.625
 21
33.5
  0
LINE
  8
0
 10
377.625
 20
33.5
 11
377.625
 21
34
  0
LINE
  8
0
 10
377.625
 20
34
 11
377
 21
34
  0
LINE
  8
0
 10
377
 20
34
 11
377
 21
33
  0
LINE
  8
0
 10
377
 20
33
 11
380
 21
28
  0
LINE
  8
0
 10
380
 20
28
 11
381
 21
28
  0
LINE
  8
0
 10
381
 20
28
 11
381
 21
28.625
  0
LINE
  8
0
 10
381
 20
21.625
 11
380.5
 21
21.625
  0
LINE
  8
0
 10
380.5
 20
21.625
 11
380.5
 21
22.4333
  0
LINE
  8
0
 10
380.5
 20
22.4333
 11
378.06
 21
26.5
  0
LINE
  8
0
 10
378.06
 20
26.5
 11
377.625
 21
26.5
  0
LINE
  8
0
 10
377.625
 20
26.5
 11
377.625
 21
27
  0
LINE
  8
0
 10
377.625
 20
27
 11
377
 21
27
  0
LINE
  8
0
 10
377
 20
27
 11
377
 21
26
  0
LINE
  8
0
 10
377
 20
26
 11
380
 21
21
  0
LINE
  8
0
 10
380
 20
21
 11
381
 21
21
  0
LINE
  8
0
 10
381
 20
21
 11
381
 21
21.625
  0
LINE
  8
0
 10
381
 20
14.625
 11
380.5
 21
14.625
  0
LINE
  8
0
 10
380.5
 20
14.625
 11
380.5
 21
15.4333
  0
LINE
  8
0
 10
380.5
 20
15.4333
 11
378.06
 21
19.5
  0
LINE
  8
0
 10
378.06
 20
19.5
 11
377.625
 21
19.5
  0
LINE
  8
0
 10
377.625
 20
19.5
 11
377.625
 21
20
  0
LINE
  8
0
 10
377.625
 20
20
 11
377
 21
20
  0
LINE
  8
0
 10
377
 20
20
 11
377
 21
19
  0
LINE
  8
0
 10
377
 20
19
 11
380
 21
14
  0
LINE
  8
0
 10
380
 20
14
 11
381
 21
14
  0
LINE
  8
0
 10
381
 20
14
 11
381
 21
14.625
  0
LINE
  8
0
 10
381
 20
7.625
 11
380.5
 21
7.625
  0
LINE
  8
0
 10
380.5
 20
7.625
 11
380.5
 21
8.43332
  0
LINE
  8
0
 10
380.5
 20
8.43332
 11
378.06
 21
12.5
  0
LINE
  8
0
 10
378.06
 20
12.5
 11
377.625
 21
12.5
  0
LINE
  8
0
 10
377.625
 20
12.5
 11
377.625
 21
13
  0
LINE
  8
0
 10
377.625
 20
13
 11
377
 21
13
  0
LINE
  8
0
 10
377
 20
13
 11
377
 21
12
  0
LINE
  8
0
 10
377
 20
12
 11
380
 21
7
  0
LINE
  8
0
 10
380
 20
7
 11
381
 21
7
  0
LINE
  8
0
 10
381
 20
7
 11
381
 21
7.625
  0
LINE
  8
0
 10
79.6562
 20
7.5625
 11
79.5312
 21
7.5625
  0
LINE
  8
0
 10
79.5312
 20
7.5625
 11
79.5312
 21
7.8125
  0
LINE
  8
0
 10
79.5312
 20
7.8125
 11
79.7812
 21
7.8125
  0
LINE
  8
0
 10
79.7812
 20
7.8125
 11
79.7812
 21
7.6875
  0
LINE
  8
0
 10
79.7812
 20
7.6875
 11
80.2188
 21
7.6875
  0
LINE
  8
0
 10
80.2188
 20
7.6875
 11
80.2188
 21
7.8125
  0
LINE
  8
0
 10
80.2188
 20
7.8125
 11
80.4688
 21
7.8125
  0
LINE
  8
0
 10
80.4688
 20
7.8125
 11
80.4688
 21
7.5625
  0
LINE
  8
0
 10
80.4688
 20
7.5625
 11
80.3438
 21
7.5625
  0
LINE
  8
0
 10
80.3438
 20
7.5625
 11
80.3438
 21
7
  0
LINE
  8
0
 10
80.3438
 20
7
 11
105.656
 21
7
  0
LINE
  8
0
 10
105.656
 20
7
 11
105.656
 21
7.5625
  0
LINE
  8
0
 10
105.656
 20
7.5625
 11
105.531
 21
7.5625
  0
LINE
  8
0
 10
105.531
 20
7.5625
 11
105.531
 21
7.8125
  0
LINE
  8
0
 10
105.531
 20
7.8125
 11
105.781
 21
7.8125
  0
LINE
  8
0
 10
105.781
 20
7.8125
 11
105.781
 21
7.6875
  0
LINE
  8
0
 10
105.781
 20
7.6875
 11
106.219
 21
7.6875
  0
LINE
  8
0
 10
106.219
 20
7.6875
 11
106.219
 21
7.8125
  0
LINE
  8
0
 10
106.219
 20
7.8125
 11
106.469
 21
7.8125
  0
LINE
  8
0
 10
106.469
 20
7.8125
 11
106.469
 21
7.5625
  0
LINE
  8
0
 10
106.469
 20
7.5625
 11
106.344
 21
7.5625
  0
LINE
  8
0
 10
106.344
 20
7.5625
 11
106.344
 21
7
  0
LINE
  8
0
 10
106.344
 20
7
 11
155.656
 21
7
  0
LINE
  8
0
 10
155.656
 20
7
 11
155.656
 21
7.5625
  0
LINE
  8
0
 10
155.656
 20
7.5625
 11
155.531
 21
7.5625
  0
LINE
  8
0
 10
155.531
 20
7.5625
 11
155.531
 21
7.8125
  0
LINE
  8
0
 10
155.531
 20
7.8125
 11
155.781
 21
7.8125
  0
LINE
  8
0
 10
155.781
 20
7.8125
 11
155.781
 21
7.6875
  0
LINE
  8
0
 10
155.781
 20
7.6875
 11
156.219
 21
7.6875
  0
LINE
  8
0
 10
156.219
 20
7.6875
 11
156.219
 21
7.8125
  0
LINE
  8
0
 10
156.219
 20
7.8125
 11
156.469
 21
7.8125
  0
LINE
  8
0
 10
156.469
 20
7.8125
 11
156.469
 21
7.5625
  0
LINE
  8
0
 10
156.469
 20
7.5625
 11
156.344
 21
7.5625
  0
LINE
  8
0
 10
156.344
 20
7.5625
 11
156.344
 21
7
  0
LINE
  8
0
 10
156.344
 20
7
 11
157
 21
7
  0
LINE
  8
0
 10
157
 20
7
 11
157
 21
13
  0
LINE
  8
0
 10
157
 20
13
 11
150.557
 21
13
  0
LINE
  8
0
 10
150.557
 20
13
 11
150.557
 21
12.375
  0
LINE
  8
0
 10
150.557
 20
12.375
 11
150.432
 21
12.375
  0
LINE
  8
0
 10
150.432
 20
12.375
 11
150.432
 21
12.5
  0
LINE
  8
0
 10
150.432
 20
12.5
 11
149.932
 21
12.5
  0
LINE
  8
0
 10
149.932
 20
12.5
 11
149.932
 21
12.375
  0
LINE
  8
0
 10
149.932
 20
12.375
 11
144.615
 21
12.375
  0
LINE
  8
0
 10
144.615
 20
12.375
 11
144.615
 21
12.5
  0
LINE
  8
0
 10
144.615
 20
12.5
 11
144.115
 21
12.5
  0
LINE
  8
0
 10
144.115
 20
12.5
 11
144.115
 21
12.375
  0
LINE
  8
0
 10
144.115
 20
12.375
 11
143.99
 21
12.375
  0
LINE
  8
0
 10
143.99
 20
12.375
 11
143.99
 21
13
  0
LINE
  8
0
 10
143.99
 20
13
 11
137.547
 21
13
  0
LINE
  8
0
 10
137.547
 20
13
 11
137.547
 21
12.375
  0
LINE
  8
0
 10
137.547
 20
12.375
 11
137.422
 21
12.375
  0
LINE
  8
0
 10
137.422
 20
12.375
 11
137.422
 21
12.5
  0
LINE
  8
0
 10
137.422
 20
12.5
 11
136.922
 21
12.5
  0
LINE
  8
0
 10
136.922
 20
12.5
 11
136.922
 21
12.375
  0
LINE
  8
0
 10
136.922
 20
12.375
 11
131.604
 21
12.375
  0
LINE
  8
0
 10
131.604
 20
12.375
 11
131.604
 21
12.5
  0
LINE
  8
0
 10
131.604
 20
12.5
 11
131.104
 21
12.5
  0
LINE
  8
0
 10
131.104
 20
12.5
 11
131.104
 21
12.375
  0
LINE
  8
0
 10
131.104
 20
12.375
 11
130.979
 21
12.375
  0
LINE
  8
0
 10
130.979
 20
12.375
 11
130.979
 21
13
  0
LINE
  8
0
 10
130.979
 20
13
 11
124.536
 21
13
  0
LINE
  8
0
 10
124.536
 20
13
 11
124.536
 21
12.375
  0
LINE
  8
0
 10
124.536
 20
12.375
 11
124.411
 21
12.375
  0
LINE
  8
0
 10
124.411
 20
12.375
 11
124.411
 21
12.5
  0
LINE
  8
0
 10
124.411
 20
12.5
 11
123.911
 21
12.5
  0
LINE
  8
0
 10
123.911
 20
12.5
 11
123.911
 21
12.375
  0
LINE
  8
0
 10
123.911
 20
12.375
 11
118.594
 21
12.375
  0
LINE
  8
0
 10
118.594
 20
12.375
 11
118.594
 21
12.5
  0
LINE
  8
0
 10
118.594
 20
12.5
 11
118.094
 21
12.5
  0
LINE
  8
0
 10
118.094
 20
12.5
 11
118.094
 21
12.375
  0
LINE
  8
0
 10
118.094
 20
12.375
 11
117.969
 21
12.375
  0
LINE
  8
0
 10
117.969
 20
12.375
 11
117.969
 21
13
  0
LINE
  8
0
 10
117.969
 20
13
 11
111.526
 21
13
  0
LINE
  8
0
 10
111.526
 20
13
 11
111.526
 21
12.375
  0
LINE
  8
0
 10
111.526
 20
12.375
 11
111.401
 21
12.375
  0
LINE
  8
0
 10
111.401
 20
12.375
 11
111.401
 21
12.5
  0
LINE
  8
0
 10
111.401
 20
12.5
 11
110.901
 21
12.5
  0
LINE
  8
0
 10
110.901
 20
12.5
 11
110.901
 21
12.375
  0
LINE
  8
0
 10
110.901
 20
12.375
 11
105.583
 21
12.375
  0
LINE
  8
0
 10
105.583
 20
12.375
 11
105.583
 21
12.5
  0
LINE
  8
0
 10
105.583
 20
12.5
 11
105.083
 21
12.5
  0
LINE
  8
0
 10
105.083
 20
12.5
 11
105.083
 21
12.375
  0
LINE
  8
0
 10
105.083
 20
12.375
 11
104.958
 21
12.375
  0
LINE
  8
0
 10
104.958
 20
12.375
 11
104.958
 21
13
  0
LINE
  8
0
 10
104.958
 20
13
 11
98.5156
 21
13
  0
LINE
  8
0
 10
98.5156
 20
13
 11
98.5156
 21
12.375
  0
LINE
  8
0
 10
98.5156
 20
12.375
 11
98.3906
 21
12.375
  0
LINE
  8
0
 10
98.3906
 20
12.375
 11
98.3906
 21
12.5
  0
LINE
  8
0
 10
98.3906
 20
12.5
 11
97.8906
 21
12.5
  0
LINE
  8
0
 10
97.8906
 20
12.5
 11
97.8906
 21
12.375
  0
LINE
  8
0
 10
97.8906
 20
12.375
 11
92.5729
 21
12.375
  0
LINE
  8
0
 10
92.5729
 20
12.375
 11
92.5729
 21
12.5
  0
LINE
  8
0
 10
92.5729
 20
12.5
 11
92.0729
 21
12.5
  0
LINE
  8
0
 10
92.0729
 20
12.5
 11
92.0729
 21
12.375
  0
LINE
  8
0
 10
92.0729
 20
12.375
 11
91.9479
 21
12.375
  0
LINE
  8
0
 10
91.9479
 20
12.375
 11
91.9479
 21
13
  0
LINE
  8
0
 10
91.9479
 20
13
 11
85.5052
 21
13
  0
LINE
  8
0
 10
85.5052
 20
13
 11
85.5052
 21
12.375
  0
LINE
  8
0
 10
85.5052
 20
12.375
 11
85.3802
 21
12.375
  0
LINE
  8
0
 10
85.3802
 20
12.375
 11
85.3802
 21
12.5
  0
LINE
  8
0
 10
85.3802
 20
12.5
 11
84.8802
 21
12.5
  0
LINE
  8
0
 10
84.8802
 20
12.5
 11
84.8802
 21
12.375
  0
LINE
  8
0
 10
84.8802
 20
12.375
 11
79.5625
 21
12.375
  0
LINE
  8
0
 10
79.5625
 20
12.375
 11
79.5625
 21
12.5
  0
LINE
  8
0
 10
79.5625
 20
12.5
 11
79.0625
 21
12.5
  0
LINE
  8
0
 10
79.0625
 20
12.5
 11
79.0625
 21
12.375
  0
LINE
  8
0
 10
79.0625
 20
12.375
 11
79
 21
12.375
  0
LINE
  8
0
 10
79
 20
12.375
 11
79
 21
7
  0
LINE
  8
0
 10
79
 20
7
 11
79.6562
 21
7
  0
LINE
  8
0
 10
79.6562
 20
7
 11
79.6562
 21
7.5625
  0
LINE
  8
0
 10
0.65625
 20
5.5625
 11
0.53125
 21
5.5625
  0
LINE
  8
0
 10
0.53125
 20
5.5625
 11
0.53125
 21
5.8125
  0
LINE
  8
0
 10
0.53125
 20
5.8125
 11
0.78125
 21
5.8125
  0
LINE
  8
0
 10
0.78125
 20
5.8125
 11
0.78125
 21
5.6875
  0
LINE
  8
0
 10
0.78125
 20
5.6875
 11
1.21875
 21
5.6875
  0
LINE
  8
0
 10
1.21875
 20
5.6875
 11
1.21875
 21
5.8125
  0
LINE
  8
0
 10
1.21875
 20
5.8125
 11
1.46875
 21
5.8125
  0
LINE
  8
0
 10
1.46875
 20
5.8125
 11
1.46875
 21
5.5625
  0
LINE
  8
0
 10
1.46875
 20
5.5625
 11
1.34375
 21
5.5625
  0
LINE
  8
0
 10
1.34375
 20
5.5625
 11
1.34375
 21
5
  0
LINE
  8
0
 10
1.34375
 20
5
 11
26.6562
 21
5
  0
LINE
  8
0
 10
26.6562
 20
5
 11
26.6562
 21
5.5625
  0
LINE
  8
0
 10
26.6562
 20
5.5625
 11
26.5312
 21
5.5625
  0
LINE
  8
0
 10
26.5312
 20
5.5625
 11
26.5312
 21
5.8125
  0
LINE
  8
0
 10
26.5312
 20
5.8125
 11
26.7812
 21
5.8125
  0
LINE
  8
0
 10
26.7812
 20
5.8125
 11
26.7812
 21
5.6875
  0
LINE
  8
0
 10
26.7812
 20
5.6875
 11
27.2188
 21
5.6875
  0
LINE
  8
0
 10
27.2188
 20
5.6875
 11
27.2188
 21
5.8125
  0
LINE
  8
0
 10
27.2188
 20
5.8125
 11
27.4688
 21
5.8125
  0
LINE
  8
0
 10
27.4688
 20
5.8125
 11
27.4688
 21
5.5625
  0
LINE
  8
0
 10
27.4688
 20
5.5625
 11
27.3438
 21
5.5625
  0
LINE
  8
0
 10
27.3438
 20
5.5625
 11
27.3438
 21
5
  0
LINE
  8
0
 10
27.3438
 20
5
 11
76.6562
 21
5
  0
LINE
  8
0
 10
76.6562
 20
5
 11
76.6562
 21
5.5625
  0
LINE
  8
0
 10
76.6562
 20
5.5625
 11
76.5312
 21
5.5625
  0
LINE
  8
0
 10
76.5312
 20
5.5625
 11
76.5312
 21
5.8125
  0
LINE
  8
0
 10
76.5312
 20
5.8125
 11
76.7812
 21
5.8125
  0
LINE
  8
0
 10
76.7812
 20
5.8125
 11
76.7812
 21
5.6875
  0
LINE
  8
0
 10
76.7812
 20
5.6875
 11
77.2188
 21
5.6875
  0
LINE
  8
0
 10
77.2188
 20
5.6875
 11
77.2188
 21
5.8125
  0
LINE
  8
0
 10
77.2188
 20
5.8125
 11
77.4688
 21
5.8125
  0
LINE
  8
0
 10
77.4688
 20
5.8125
 11
77.4688
 21
5.5625
  0
LINE
  8
0
 10
77.4688
 20
5.5625
 11
77.3438
 21
5.5625
  0
LINE
  8
0
 10
77.3438
 20
5.5625
 11
77.3438
 21
5
  0
LINE
  8
0
 10
77.3438
 20
5
 11
78
 21
5
  0
LINE
  8
0
 10
78
 20
5
 11
78
 21
8.375
  0
LINE
  8
0
 10
78
 20
8.375
 11
77.9375
 21
8.375
  0
LINE
  8
0
 10
77.9375
 20
8.375
 11
77.9375
 21
8.5
  0
LINE
  8
0
 10
77.9375
 20
8.5
 11
77.4375
 21
8.5
  0
LINE
  8
0
 10
77.4375
 20
8.5
 11
77.4375
 21
8.375
  0
LINE
  8
0
 10
77.4375
 20
8.375
 11
72.1198
 21
8.375
  0
LINE
  8
0
 10
72.1198
 20
8.375
 11
72.1198
 21
8.5
  0
LINE
  8
0
 10
72.1198
 20
8.5
 11
71.6198
 21
8.5
  0
LINE
  8
0
 10
71.6198
 20
8.5
 11
71.6198
 21
8.375
  0
LINE
  8
0
 10
71.6198
 20
8.375
 11
71.4948
 21
8.375
  0
LINE
  8
0
 10
71.4948
 20
8.375
 11
71.4948
 21
9
  0
LINE
  8
0
 10
71.4948
 20
9
 11
65.0521
 21
9
  0
LINE
  8
0
 10
65.0521
 20
9
 11
65.0521
 21
8.375
  0
LINE
  8
0
 10
65.0521
 20
8.375
 11
64.9271
 21
8.375
  0
LINE
  8
0
 10
64.9271
 20
8.375
 11
64.9271
 21
8.5
  0
LINE
  8
0
 10
64.9271
 20
8.5
 11
64.4271
 21
8.5
  0
LINE
  8
0
 10
64.4271
 20
8.5
 11
64.4271
 21
8.375
  0
LINE
  8
0
 10
64.4271
 20
8.375
 11
59.1094
 21
8.375
  0
LINE
  8
0
 10
59.1094
 20
8.375
 11
59.1094
 21
8.5
  0
LINE
  8
0
 10
59.1094
 20
8.5
 11
58.6094
 21
8.5
  0
LINE
  8
0
 10
58.6094
 20
8.5
 11
58.6094
 21
8.375
  0
LINE
  8
0
 10
58.6094
 20
8.375
 11
58.4844
 21
8.375
  0
LINE
  8
0
 10
58.4844
 20
8.375
 11
58.4844
 21
9
  0
LINE
  8
0
 10
58.4844
 20
9
 11
52.0417
 21
9
  0
LINE
  8
0
 10
52.0417
 20
9
 11
52.0417
 21
8.375
  0
LINE
  8
0
 10
52.0417
 20
8.375
 11
51.9167
 21
8.375
  0
LINE
  8
0
 10
51.9167
 20
8.375
 11
51.9167
 21
8.5
  0
LINE
  8
0
 10
51.9167
 20
8.5
 11
51.4167
 21
8.5
  0
LINE
  8
0
 10
51.4167
 20
8.5
 11
51.4167
 21
8.375
  0
LINE
  8
0
 10
51.4167
 20
8.375
 11
46.099
 21
8.375
  0
LINE
  8
0
 10
46.099
 20
8.375
 11
46.099
 21
8.5
  0
LINE
  8
0
 10
46.099
 20
8.5
 11
45.599
 21
8.5
  0
LINE
  8
0
 10
45.599
 20
8.5
 11
45.599
 21
8.375
  0
LINE
  8
0
 10
45.599
 20
8.375
 11
45.474
 21
8.375
  0
LINE
  8
0
 10
45.474
 20
8.375
 11
45.474
 21
9
  0
LINE
  8
0
 10
45.474
 20
9
 11
39.0312
 21
9
  0
LINE
  8
0
 10
39.0312
 20
9
 11
39.0312
 21
8.375
  0
LINE
  8
0
 10
39.0312
 20
8.375
 11
38.9062
 21
8.375
  0
LINE
  8
0
 10
38.9062
 20
8.375
 11
38.9062
 21
8.5
  0
LINE
  8
0
 10
38.9062
 20
8.5
 11
38.4062
 21
8.5
  0
LINE
  8
0
 10
38.4062
 20
8.5
 11
38.4062
 21
8.375
  0
LINE
  8
0
 10
38.4062
 20
8.375
 11
33.0885
 21
8.375
  0
LINE
  8
0
 10
33.0885
 20
8.375
 11
33.0885
 21
8.5
  0
LINE
  8
0
 10
33.0885
 20
8.5
 11
32.5885
 21
8.5
  0
LINE
  8
0
 10
32.5885
 20
8.5
 11
32.5885
 21
8.375
  0
LINE
  8
0
 10
32.5885
 20
8.375
 11
32.4635
 21
8.375
  0
LINE
  8
0
 10
32.4635
 20
8.375
 11
32.4635
 21
9
  0
LINE
  8
0
 10
32.4635
 20
9
 11
26.0208
 21
9
  0
LINE
  8
0
 10
26.0208
 20
9
 11
26.0208
 21
8.375
  0
LINE
  8
0
 10
26.0208
 20
8.375
 11
25.8958
 21
8.375
  0
LINE
  8
0
 10
25.8958
 20
8.375
 11
25.8958
 21
8.5
  0
LINE
  8
0
 10
25.8958
 20
8.5
 11
25.3958
 21
8.5
  0
LINE
  8
0
 10
25.3958
 20
8.5
 11
25.3958
 21
8.375
  0
LINE
  8
0
 10
25.3958
 20
8.375
 11
20.0781
 21
8.375
  0
LINE
  8
0
 10
20.0781
 20
8.375
 11
20.0781
 21
8.5
  0
LINE
  8
0
 10
20.0781
 20
8.5
 11
19.5781
 21
8.5
  0
LINE
  8
0
 10
19.5781
 20
8.5
 11
19.5781
 21
8.375
  0
LINE
  8
0
 10
19.5781
 20
8.375
 11
19.4531
 21
8.375
  0
LINE
  8
0
 10
19.4531
 20
8.375
 11
19.4531
 21
9
  0
LINE
  8
0
 10
19.4531
 20
9
 11
13.0104
 21
9
  0
LINE
  8
0
 10
13.0104
 20
9
 11
13.0104
 21
8.375
  0
LINE
  8
0
 10
13.0104
 20
8.375
 11
12.8854
 21
8.375
  0
LINE
  8
0
 10
12.8854
 20
8.375
 11
12.8854
 21
8.5
  0
LINE
  8
0
 10
12.8854
 20
8.5
 11
12.3854
 21
8.5
  0
LINE
  8
0
 10
12.3854
 20
8.5
 11
12.3854
 21
8.375
  0
LINE
  8
0
 10
12.3854
 20
8.375
 11
7.0677
 21
8.375
  0
LINE
  8
0
 10
7.0677
 20
8.375
 11
7.0677
 21
8.5
  0
LINE
  8
0
 10
7.0677
 20
8.5
 11
6.5677
 21
8.5
  0
LINE
  8
0
 10
6.5677
 20
8.5
 11
6.5677
 21
8.375
  0
LINE
  8
0
 10
6.5677
 20
8.375
 11
6.4427
 21
8.375
  0
LINE
  8
0
 10
6.4427
 20
8.375
 11
6.4427
 21
9
  0
LINE
  8
0
 10
6.4427
 20
9
 11
0
 21
9
  0
LINE
  8
0
 10
0
 20
9
 11
0
 21
5
  0
LINE
  8
0
 10
0
 20
5
 11
0.65625
 21
5
  0
LINE
  8
0
 10
0.65625
 20
5
 11
0.65625
 21
5.5625
  0
LINE
  8
0
 10
73.9305
 20
6.60606
 11
73.8632
 21
6.62411
  0
LINE
  8
0
 10
73.8632
 20
6.62411
 11
73.8
 21
6.65358
  0
LINE
  8
0
 10
73.8
 20
6.65358
 11
73.7429
 21
6.69357
  0
LINE
  8
0
 10
73.7429
 20
6.69357
 11
73.6936
 21
6.74287
  0
LINE
  8
0
 10
73.6936
 20
6.74287
 11
73.6536
 21
6.79999
  0
LINE
  8
0
 10
73.6536
 20
6.79999
 11
73.6241
 21
6.86319
  0
LINE
  8
0
 10
73.6241
 20
6.86319
 11
73.6061
 21
6.93053
  0
LINE
  8
0
 10
73.6061
 20
6.93053
 11
73.6
 21
7
  0
LINE
  8
0
 10
73.6
 20
7
 11
73.6061
 21
7.06946
  0
LINE
  8
0
 10
73.6061
 20
7.06946
 11
73.6241
 21
7.1368
  0
LINE
  8
0
 10
73.6241
 20
7.1368
 11
73.6536
 21
7.2
  0
LINE
  8
0
 10
73.6536
 20
7.2
 11
73.6936
 21
7.25711
  0
LINE
  8
0
 10
73.6936
 20
7.25711
 11
73.7429
 21
7.30641
  0
LINE
  8
0
 10
73.7429
 20
7.30641
 11
73.8
 21
7.34641
  0
LINE
  8
0
 10
73.8
 20
7.34641
 11
73.8632
 21
7.37587
  0
LINE
  8
0
 10
73.8632
 20
7.37587
 11
73.9305
 21
7.39392
  0
LINE
  8
0
 10
73.9305
 20
7.39392
 11
74
 21
7.39999
  0
LINE
  8
0
 10
74
 20
7.39999
 11
74.0695
 21
7.39392
  0
LINE
  8
0
 10
74.0695
 20
7.39392
 11
74.1368
 21
7.37587
  0
LINE
  8
0
 10
74.1368
 20
7.37587
 11
74.2
 21
7.34641
  0
LINE
  8
0
 10
74.2
 20
7.34641
 11
74.2571
 21
7.30641
  0
LINE
  8
0
 10
74.2571
 20
7.30641
 11
74.3064
 21
7.25711
  0
LINE
  8
0
 10
74.3064
 20
7.25711
 11
74.3464
 21
7.2
  0
LINE
  8
0
 10
74.3464
 20
7.2
 11
74.3759
 21
7.1368
  0
LINE
  8
0
 10
74.3759
 20
7.1368
 11
74.3939
 21
7.06946
  0
LINE
  8
0
 10
74.3939
 20
7.06946
 11
74.4
 21
7
  0
LINE
  8
0
 10
74.4
 20
7
 11
74.3939
 21
6.93053
  0
LINE
  8
0
 10
74.3939
 20
6.93053
 11
74.3759
 21
6.86319
  0
LINE
  8
0
 10
74.3759
 20
6.86319
 11
74.3464
 21
6.79999
  0
LINE
  8
0
 10
74.3464
 20
6.79999
 11
74.3064
 21
6.74287
  0
LINE
  8
0
 10
74.3064
 20
6.74287
 11
74.2571
 21
6.69357
  0
LINE
  8
0
 10
74.2571
 20
6.69357
 11
74.2
 21
6.65358
  0
LINE
  8
0
 10
74.2
 20
6.65358
 11
74.1368
 21
6.62411
  0
LINE
  8
0
 10
74.1368
 20
6.62411
 11
74.0695
 21
6.60606
  0
LINE
  8
0
 10
74.0695
 20
6.60606
 11
74
 21
6.59999
  0
LINE
  8
0
 10
74
 20
6.59999
 11
73.9305
 21
6.60606
  0
LINE
  8
0
 10
75.9305
 20
6.60606
 11
75.8632
 21
6.62411
  0
LINE
  8
0
 10
75.8632
 20
6.62411
 11
75.8
 21
6.65358
  0
LINE
  8
0
 10
75.8
 20
6.65358
 11
75.7429
 21
6.69357
  0
LINE
  8
0
 10
75.7429
 20
6.69357
 11
75.6936
 21
6.74287
  0
LINE
  8
0
 10
75.6936
 20
6.74287
 11
75.6536
 21
6.79999
  0
LINE
  8
0
 10
75.6536
 20
6.79999
 11
75.6241
 21
6.86319
  0
LINE
  8
0
 10
75.6241
 20
6.86319
 11
75.6061
 21
6.93053
  0
LINE
  8
0
 10
75.6061
 20
6.93053
 11
75.6
 21
7
  0
LINE
  8
0
 10
75.6
 20
7
 11
75.6061
 21
7.06946
  0
LINE
  8
0
 10
75.6061
 20
7.06946
 11
75.6241
 21
7.1368
  0
LINE
  8
0
 10
75.6241
 20
7.1368
 11
75.6536
 21
7.2
  0
LINE
  8
0
 10
75.6536
 20
7.2
 11
75.6936
 21
7.25711
  0
LINE
  8
0
 10
75.6936
 20
7.25711
 11
75.7429
 21
7.30641
  0
LINE
  8
0
 10
75.7429
 20
7.30641
 11
75.8
 21
7.34641
  0
LINE
  8
0
 10
75.8
 20
7.34641
 11
75.8632
 21
7.37587
  0
LINE
  8
0
 10
75.8632
 20
7.37587
 11
75.9305
 21
7.39392
  0
LINE
  8
0
 10
75.9305
 20
7.39392
 11
76
 21
7.39999
  0
LINE
  8
0
 10
76
 20
7.39999
 11
76.0695
 21
7.39392
  0
LINE
  8
0
 10
76.0695
 20
7.39392
 11
76.1368
 21
7.37587
  0
LINE
  8
0
 10
76.1368
 20
7.37587
 11
76.2
 21
7.34641
  0
LINE
  8
0
 10
76.2
 20
7.34641
 11
76.2571
 21
7.30641
  0
LINE
  8
0
 10
76.2571
 20
7.30641
 11
76.3064
 21
7.25711
  0
LINE
  8
0
 10
76.3064
 20
7.25711
 11
76.3464
 21
7.2
  0
LINE
  8
0
 10
76.3464
 20
7.2
 11
76.3759
 21
7.1368
  0
LINE
  8
0
 10
76.3759
 20
7.1368
 11
76.3939
 21
7.06946
  0
LINE
  8
0
 10
76.3939
 20
7.06946
 11
76.4
 21
7
  0
LINE
  8
0
 10
76.4
 20
7
 11
76.3939
 21
6.93053
  0
LINE
  8
0
 10
76.3939
 20
6.93053
 11
76.3759
 21
6.86319
  0
LINE
  8
0
 10
76.3759
 20
6.86319
 11
76.3464
 21
6.79999
  0
LINE
  8
0
 10
76.3464
 20
6.79999
 11
76.3064
 21
6.74287
  0
LINE
  8
0
 10
76.3064
 20
6.74287
 11
76.2571
 21
6.69357
  0
LINE
  8
0
 10
76.2571
 20
6.69357
 11
76.2
 21
6.65358
  0
LINE
  8
0
 10
76.2
 20
6.65358
 11
76.1368
 21
6.62411
  0
LINE
  8
0
 10
76.1368
 20
6.62411
 11
76.0695
 21
6.60606
  0
LINE
  8
0
 10
76.0695
 20
6.60606
 11
76
 21
6.59999
  0
LINE
  8
0
 10
76
 20
6.59999
 11
75.9305
 21
6.60606
  0
LINE
  8
0
 10
47.6805
 20
6.60606
 11
47.6132
 21
6.62411
  0
LINE
  8
0
 10
47.6132
 20
6.62411
 11
47.55
 21
6.65358
  0
LINE
  8
0
 10
47.55
 20
6.65358
 11
47.4929
 21
6.69357
  0
LINE
  8
0
 10
47.4929
 20
6.69357
 11
47.4436
 21
6.74287
  0
LINE
  8
0
 10
47.4436
 20
6.74287
 11
47.4036
 21
6.79999
  0
LINE
  8
0
 10
47.4036
 20
6.79999
 11
47.3741
 21
6.86319
  0
LINE
  8
0
 10
47.3741
 20
6.86319
 11
47.3561
 21
6.93053
  0
LINE
  8
0
 10
47.3561
 20
6.93053
 11
47.35
 21
7
  0
LINE
  8
0
 10
47.35
 20
7
 11
47.3561
 21
7.06946
  0
LINE
  8
0
 10
47.3561
 20
7.06946
 11
47.3741
 21
7.1368
  0
LINE
  8
0
 10
47.3741
 20
7.1368
 11
47.4036
 21
7.2
  0
LINE
  8
0
 10
47.4036
 20
7.2
 11
47.4436
 21
7.25711
  0
LINE
  8
0
 10
47.4436
 20
7.25711
 11
47.4929
 21
7.30641
  0
LINE
  8
0
 10
47.4929
 20
7.30641
 11
47.55
 21
7.34641
  0
LINE
  8
0
 10
47.55
 20
7.34641
 11
47.6132
 21
7.37587
  0
LINE
  8
0
 10
47.6132
 20
7.37587
 11
47.6805
 21
7.39392
  0
LINE
  8
0
 10
47.6805
 20
7.39392
 11
47.75
 21
7.39999
  0
LINE
  8
0
 10
47.75
 20
7.39999
 11
47.8195
 21
7.39392
  0
LINE
  8
0
 10
47.8195
 20
7.39392
 11
47.8868
 21
7.37587
  0
LINE
  8
0
 10
47.8868
 20
7.37587
 11
47.95
 21
7.34641
  0
LINE
  8
0
 10
47.95
 20
7.34641
 11
48.0071
 21
7.30641
  0
LINE
  8
0
 10
48.0071
 20
7.30641
 11
48.0564
 21
7.25711
  0
LINE
  8
0
 10
48.0564
 20
7.25711
 11
48.0964
 21
7.2
  0
LINE
  8
0
 10
48.0964
 20
7.2
 11
48.1259
 21
7.1368
  0
LINE
  8
0
 10
48.1259
 20
7.1368
 11
48.1439
 21
7.06946
  0
LINE
  8
0
 10
48.1439
 20
7.06946
 11
48.15
 21
7
  0
LINE
  8
0
 10
48.15
 20
7
 11
48.1439
 21
6.93053
  0
LINE
  8
0
 10
48.1439
 20
6.93053
 11
48.1259
 21
6.86319
  0
LINE
  8
0
 10
48.1259
 20
6.86319
 11
48.0964
 21
6.79999
  0
LINE
  8
0
 10
48.0964
 20
6.79999
 11
48.0564
 21
6.74287
  0
LINE
  8
0
 10
48.0564
 20
6.74287
 11
48.0071
 21
6.69357
  0
LINE
  8
0
 10
48.0071
 20
6.69357
 11
47.95
 21
6.65358
  0
LINE
  8
0
 10
47.95
 20
6.65358
 11
47.8868
 21
6.62411
  0
LINE
  8
0
 10
47.8868
 20
6.62411
 11
47.8195
 21
6.60606
  0
LINE
  8
0
 10
47.8195
 20
6.60606
 11
47.75
 21
6.59999
  0
LINE
  8
0
 10
47.75
 20
6.59999
 11
47.6805
 21
6.60606
  0
LINE
  8
0
 10
35.1805
 20
6.60606
 11
35.1132
 21
6.62411
  0
LINE
  8
0
 10
35.1132
 20
6.62411
 11
35.05
 21
6.65358
  0
LINE
  8
0
 10
35.05
 20
6.65358
 11
34.9929
 21
6.69357
  0
LINE
  8
0
 10
34.9929
 20
6.69357
 11
34.9436
 21
6.74287
  0
LINE
  8
0
 10
34.9436
 20
6.74287
 11
34.9036
 21
6.79999
  0
LINE
  8
0
 10
34.9036
 20
6.79999
 11
34.8741
 21
6.86319
  0
LINE
  8
0
 10
34.8741
 20
6.86319
 11
34.8561
 21
6.93053
  0
LINE
  8
0
 10
34.8561
 20
6.93053
 11
34.85
 21
7
  0
LINE
  8
0
 10
34.85
 20
7
 11
34.8561
 21
7.06946
  0
LINE
  8
0
 10
34.8561
 20
7.06946
 11
34.8741
 21
7.1368
  0
LINE
  8
0
 10
34.8741
 20
7.1368
 11
34.9036
 21
7.2
  0
LINE
  8
0
 10
34.9036
 20
7.2
 11
34.9436
 21
7.25711
  0
LINE
  8
0
 10
34.9436
 20
7.25711
 11
34.9929
 21
7.30641
  0
LINE
  8
0
 10
34.9929
 20
7.30641
 11
35.05
 21
7.34641
  0
LINE
  8
0
 10
35.05
 20
7.34641
 11
35.1132
 21
7.37587
  0
LINE
  8
0
 10
35.1132
 20
7.37587
 11
35.1805
 21
7.39392
  0
LINE
  8
0
 10
35.1805
 20
7.39392
 11
35.25
 21
7.39999
  0
LINE
  8
0
 10
35.25
 20
7.39999
 11
35.3195
 21
7.39392
  0
LINE
  8
0
 10
35.3195
 20
7.39392
 11
35.3868
 21
7.37587
  0
LINE
  8
0
 10
35.3868
 20
7.37587
 11
35.45
 21
7.34641
  0
LINE
  8
0
 10
35.45
 20
7.34641
 11
35.5071
 21
7.30641
  0
LINE
  8
0
 10
35.5071
 20
7.30641
 11
35.5564
 21
7.25711
  0
LINE
  8
0
 10
35.5564
 20
7.25711
 11
35.5964
 21
7.2
  0
LINE
  8
0
 10
35.5964
 20
7.2
 11
35.6259
 21
7.1368
  0
LINE
  8
0
 10
35.6259
 20
7.1368
 11
35.6439
 21
7.06946
  0
LINE
  8
0
 10
35.6439
 20
7.06946
 11
35.65
 21
7
  0
LINE
  8
0
 10
35.65
 20
7
 11
35.6439
 21
6.93053
  0
LINE
  8
0
 10
35.6439
 20
6.93053
 11
35.6259
 21
6.86319
  0
LINE
  8
0
 10
35.6259
 20
6.86319
 11
35.5964
 21
6.79999
  0
LINE
  8
0
 10
35.5964
 20
6.79999
 11
35.5564
 21
6.74287
  0
LINE
  8
0
 10
35.5564
 20
6.74287
 11
35.5071
 21
6.69357
  0
LINE
  8
0
 10
35.5071
 20
6.69357
 11
35.45
 21
6.65358
  0
LINE
  8
0
 10
35.45
 20
6.65358
 11
35.3868
 21
6.62411
  0
LINE
  8
0
 10
35.3868
 20
6.62411
 11
35.3195
 21
6.60606
  0
LINE
  8
0
 10
35.3195
 20
6.60606
 11
35.25
 21
6.59999
  0
LINE
  8
0
 10
35.25
 20
6.59999
 11
35.1805
 21
6.60606
  0
LINE
  8
0
 10
2.93053
 20
6.60606
 11
2.86319
 21
6.62411
  0
LINE
  8
0
 10
2.86319
 20
6.62411
 11
2.79999
 21
6.65358
  0
LINE
  8
0
 10
2.79999
 20
6.65358
 11
2.74287
 21
6.69357
  0
LINE
  8
0
 10
2.74287
 20
6.69357
 11
2.69357
 21
6.74287
  0
LINE
  8
0
 10
2.69357
 20
6.74287
 11
2.65358
 21
6.79999
  0
LINE
  8
0
 10
2.65358
 20
6.79999
 11
2.62411
 21
6.86319
  0
LINE
  8
0
 10
2.62411
 20
6.86319
 11
2.60606
 21
6.93053
  0
LINE
  8
0
 10
2.60606
 20
6.93053
 11
2.59999
 21
7
  0
LINE
  8
0
 10
2.59999
 20
7
 11
2.60606
 21
7.06946
  0
LINE
  8
0
 10
2.60606
 20
7.06946
 11
2.62411
 21
7.1368
  0
LINE
  8
0
 10
2.62411
 20
7.1368
 11
2.65358
 21
7.2
  0
LINE
  8
0
 10
2.65358
 20
7.2
 11
2.69357
 21
7.25711
  0
LINE
  8
0
 10
2.69357
 20
7.25711
 11
2.74287
 21
7.30641
  0
LINE
  8
0
 10
2.74287
 20
7.30641
 11
2.79999
 21
7.34641
  0
LINE
  8
0
 10
2.79999
 20
7.34641
 11
2.86319
 21
7.37587
  0
LINE
  8
0
 10
2.86319
 20
7.37587
 11
2.93053
 21
7.39392
  0
LINE
  8
0
 10
2.93053
 20
7.39392
 11
3
 21
7.39999
  0
LINE
  8
0
 10
3
 20
7.39999
 11
3.06946
 21
7.39392
  0
LINE
  8
0
 10
3.06946
 20
7.39392
 11
3.1368
 21
7.37587
  0
LINE
  8
0
 10
3.1368
 20
7.37587
 11
3.2
 21
7.34641
  0
LINE
  8
0
 10
3.2
 20
7.34641
 11
3.25711
 21
7.30641
  0
LINE
  8
0
 10
3.25711
 20
7.30641
 11
3.30641
 21
7.25711
  0
LINE
  8
0
 10
3.30641
 20
7.25711
 11
3.34641
 21
7.2
  0
LINE
  8
0
 10
3.34641
 20
7.2
 11
3.37587
 21
7.1368
  0
LINE
  8
0
 10
3.37587
 20
7.1368
 11
3.39392
 21
7.06946
  0
LINE
  8
0
 10
3.39392
 20
7.06946
 11
3.39999
 21
7
  0
LINE
  8
0
 10
3.39999
 20
7
 11
3.39392
 21
6.93053
  0
LINE
  8
0
 10
3.39392
 20
6.93053
 11
3.37587
 21
6.86319
  0
LINE
  8
0
 10
3.37587
 20
6.86319
 11
3.34641
 21
6.79999
  0
LINE
  8
0
 10
3.34641
 20
6.79999
 11
3.30641
 21
6.74287
  0
LINE
  8
0
 10
3.30641
 20
6.74287
 11
3.25711
 21
6.69357
  0
LINE
  8
0
 10
3.25711
 20
6.69357
 11
3.2
 21
6.65358
  0
LINE
  8
0
 10
3.2
 20
6.65358
 11
3.1368
 21
6.62411
  0
LINE
  8
0
 10
3.1368
 20
6.62411
 11
3.06946
 21
6.60606
  0
LINE
  8
0
 10
3.06946
 20
6.60606
 11
3
 21
6.59999
  0
LINE
  8
0
 10
3
 20
6.59999
 11
2.93053
 21
6.60606
  0
LINE
  8
0
 10
7.93053
 20
6.60606
 11
7.86319
 21
6.62411
  0
LINE
  8
0
 10
7.86319
 20
6.62411
 11
7.79999
 21
6.65358
  0
LINE
  8
0
 10
7.79999
 20
6.65358
 11
7.74287
 21
6.69357
  0
LINE
  8
0
 10
7.74287
 20
6.69357
 11
7.69357
 21
6.74287
  0
LINE
  8
0
 10
7.69357
 20
6.74287
 11
7.65358
 21
6.79999
  0
LINE
  8
0
 10
7.65358
 20
6.79999
 11
7.62411
 21
6.86319
  0
LINE
  8
0
 10
7.62411
 20
6.86319
 11
7.60606
 21
6.93053
  0
LINE
  8
0
 10
7.60606
 20
6.93053
 11
7.59999
 21
7
  0
LINE
  8
0
 10
7.59999
 20
7
 11
7.60606
 21
7.06946
  0
LINE
  8
0
 10
7.60606
 20
7.06946
 11
7.62411
 21
7.1368
  0
LINE
  8
0
 10
7.62411
 20
7.1368
 11
7.65358
 21
7.2
  0
LINE
  8
0
 10
7.65358
 20
7.2
 11
7.69357
 21
7.25711
  0
LINE
  8
0
 10
7.69357
 20
7.25711
 11
7.74287
 21
7.30641
  0
LINE
  8
0
 10
7.74287
 20
7.30641
 11
7.79999
 21
7.34641
  0
LINE
  8
0
 10
7.79999
 20
7.34641
 11
7.86319
 21
7.37587
  0
LINE
  8
0
 10
7.86319
 20
7.37587
 11
7.93053
 21
7.39392
  0
LINE
  8
0
 10
7.93053
 20
7.39392
 11
8
 21
7.39999
  0
LINE
  8
0
 10
8
 20
7.39999
 11
8.06946
 21
7.39392
  0
LINE
  8
0
 10
8.06946
 20
7.39392
 11
8.1368
 21
7.37587
  0
LINE
  8
0
 10
8.1368
 20
7.37587
 11
8.2
 21
7.34641
  0
LINE
  8
0
 10
8.2
 20
7.34641
 11
8.25711
 21
7.30641
  0
LINE
  8
0
 10
8.25711
 20
7.30641
 11
8.30641
 21
7.25711
  0
LINE
  8
0
 10
8.30641
 20
7.25711
 11
8.34641
 21
7.2
  0
LINE
  8
0
 10
8.34641
 20
7.2
 11
8.37587
 21
7.1368
  0
LINE
  8
0
 10
8.37587
 20
7.1368
 11
8.39392
 21
7.06946
  0
LINE
  8
0
 10
8.39392
 20
7.06946
 11
8.39999
 21
7
  0
LINE
  8
0
 10
8.39999
 20
7
 11
8.39392
 21
6.93053
  0
LINE
  8
0
 10
8.39392
 20
6.93053
 11
8.37587
 21
6.86319
  0
LINE
  8
0
 10
8.37587
 20
6.86319
 11
8.34641
 21
6.79999
  0
LINE
  8
0
 10
8.34641
 20
6.79999
 11
8.30641
 21
6.74287
  0
LINE
  8
0
 10
8.30641
 20
6.74287
 11
8.25711
 21
6.69357
  0
LINE
  8
0
 10
8.25711
 20
6.69357
 11
8.2
 21
6.65358
  0
LINE
  8
0
 10
8.2
 20
6.65358
 11
8.1368
 21
6.62411
  0
LINE
  8
0
 10
8.1368
 20
6.62411
 11
8.06946
 21
6.60606
  0
LINE
  8
0
 10
8.06946
 20
6.60606
 11
8
 21
6.59999
  0
LINE
  8
0
 10
8
 20
6.59999
 11
7.93053
 21
6.60606
  0
LINE
  8
0
 10
15.4305
 20
6.60606
 11
15.3632
 21
6.62411
  0
LINE
  8
0
 10
15.3632
 20
6.62411
 11
15.3
 21
6.65358
  0
LINE
  8
0
 10
15.3
 20
6.65358
 11
15.2429
 21
6.69357
  0
LINE
  8
0
 10
15.2429
 20
6.69357
 11
15.1936
 21
6.74287
  0
LINE
  8
0
 10
15.1936
 20
6.74287
 11
15.1536
 21
6.79999
  0
LINE
  8
0
 10
15.1536
 20
6.79999
 11
15.1241
 21
6.86319
  0
LINE
  8
0
 10
15.1241
 20
6.86319
 11
15.1061
 21
6.93053
  0
LINE
  8
0
 10
15.1061
 20
6.93053
 11
15.1
 21
7
  0
LINE
  8
0
 10
15.1
 20
7
 11
15.1061
 21
7.06946
  0
LINE
  8
0
 10
15.1061
 20
7.06946
 11
15.1241
 21
7.1368
  0
LINE
  8
0
 10
15.1241
 20
7.1368
 11
15.1536
 21
7.2
  0
LINE
  8
0
 10
15.1536
 20
7.2
 11
15.1936
 21
7.25711
  0
LINE
  8
0
 10
15.1936
 20
7.25711
 11
15.2429
 21
7.30641
  0
LINE
  8
0
 10
15.2429
 20
7.30641
 11
15.3
 21
7.34641
  0
LINE
  8
0
 10
15.3
 20
7.34641
 11
15.3632
 21
7.37587
  0
LINE
  8
0
 10
15.3632
 20
7.37587
 11
15.4305
 21
7.39392
  0
LINE
  8
0
 10
15.4305
 20
7.39392
 11
15.5
 21
7.39999
  0
LINE
  8
0
 10
15.5
 20
7.39999
 11
15.5695
 21
7.39392
  0
LINE
  8
0
 10
15.5695
 20
7.39392
 11
15.6368
 21
7.37587
  0
LINE
  8
0
 10
15.6368
 20
7.37587
 11
15.7
 21
7.34641
  0
LINE
  8
0
 10
15.7
 20
7.34641
 11
15.7571
 21
7.30641
  0
LINE
  8
0
 10
15.7571
 20
7.30641
 11
15.8064
 21
7.25711
  0
LINE
  8
0
 10
15.8064
 20
7.25711
 11
15.8464
 21
7.2
  0
LINE
  8
0
 10
15.8464
 20
7.2
 11
15.8759
 21
7.1368
  0
LINE
  8
0
 10
15.8759
 20
7.1368
 11
15.8939
 21
7.06946
  0
LINE
  8
0
 10
15.8939
 20
7.06946
 11
15.9
 21
7
  0
LINE
  8
0
 10
15.9
 20
7
 11
15.8939
 21
6.93053
  0
LINE
  8
0
 10
15.8939
 20
6.93053
 11
15.8759
 21
6.86319
  0
LINE
  8
0
 10
15.8759
 20
6.86319
 11
15.8464
 21
6.79999
  0
LINE
  8
0
 10
15.8464
 20
6.79999
 11
15.8064
 21
6.74287
  0
LINE
  8
0
 10
15.8064
 20
6.74287
 11
15.7571
 21
6.69357
  0
LINE
  8
0
 10
15.7571
 20
6.69357
 11
15.7
 21
6.65358
  0
LINE
  8
0
 10
15.7
 20
6.65358
 11
15.6368
 21
6.62411
  0
LINE
  8
0
 10
15.6368
 20
6.62411
 11
15.5695
 21
6.60606
  0
LINE
  8
0
 10
15.5695
 20
6.60606
 11
15.5
 21
6.59999
  0
LINE
  8
0
 10
15.5
 20
6.59999
 11
15.4305
 21
6.60606
  0
LINE
  8
0
 10
18.4305
 20
6.60606
 11
18.3632
 21
6.62411
  0
LINE
  8
0
 10
18.3632
 20
6.62411
 11
18.3
 21
6.65358
  0
LINE
  8
0
 10
18.3
 20
6.65358
 11
18.2429
 21
6.69357
  0
LINE
  8
0
 10
18.2429
 20
6.69357
 11
18.1936
 21
6.74287
  0
LINE
  8
0
 10
18.1936
 20
6.74287
 11
18.1536
 21
6.79999
  0
LINE
  8
0
 10
18.1536
 20
6.79999
 11
18.1241
 21
6.86319
  0
LINE
  8
0
 10
18.1241
 20
6.86319
 11
18.1061
 21
6.93053
  0
LINE
  8
0
 10
18.1061
 20
6.93053
 11
18.1
 21
7
  0
LINE
  8
0
 10
18.1
 20
7
 11
18.1061
 21
7.06946
  0
LINE
  8
0
 10
18.1061
 20
7.06946
 11
18.1241
 21
7.1368
  0
LINE
  8
0
 10
18.1241
 20
7.1368
 11
18.1536
 21
7.2
  0
LINE
  8
0
 10
18.1536
 20
7.2
 11
18.1936
 21
7.25711
  0
LINE
  8
0
 10
18.1936
 20
7.25711
 11
18.2429
 21
7.30641
  0
LINE
  8
0
 10
18.2429
 20
7.30641
 11
18.3
 21
7.34641
  0
LINE
  8
0
 10
18.3
 20
7.34641
 11
18.3632
 21
7.37587
  0
LINE
  8
0
 10
18.3632
 20
7.37587
 11
18.4305
 21
7.39392
  0
LINE
  8
0
 10
18.4305
 20
7.39392
 11
18.5
 21
7.39999
  0
LINE
  8
0
 10
18.5
 20
7.39999
 11
18.5695
 21
7.39392
  0
LINE
  8
0
 10
18.5695
 20
7.39392
 11
18.6368
 21
7.37587
  0
LINE
  8
0
 10
18.6368
 20
7.37587
 11
18.7
 21
7.34641
  0
LINE
  8
0
 10
18.7
 20
7.34641
 11
18.7571
 21
7.30641
  0
LINE
  8
0
 10
18.7571
 20
7.30641
 11
18.8064
 21
7.25711
  0
LINE
  8
0
 10
18.8064
 20
7.25711
 11
18.8464
 21
7.2
  0
LINE
  8
0
 10
18.8464
 20
7.2
 11
18.8759
 21
7.1368
  0
LINE
  8
0
 10
18.8759
 20
7.1368
 11
18.8939
 21
7.06946
  0
LINE
  8
0
 10
18.8939
 20
7.06946
 11
18.9
 21
7
  0
LINE
  8
0
 10
18.9
 20
7
 11
18.8939
 21
6.93053
  0
LINE
  8
0
 10
18.8939
 20
6.93053
 11
18.8759
 21
6.86319
  0
LINE
  8
0
 10
18.8759
 20
6.86319
 11
18.8464
 21
6.79999
  0
LINE
  8
0
 10
18.8464
 20
6.79999
 11
18.8064
 21
6.74287
  0
LINE
  8
0
 10
18.8064
 20
6.74287
 11
18.7571
 21
6.69357
  0
LINE
  8
0
 10
18.7571
 20
6.69357
 11
18.7
 21
6.65358
  0
LINE
  8
0
 10
18.7
 20
6.65358
 11
18.6368
 21
6.62411
  0
LINE
  8
0
 10
18.6368
 20
6.62411
 11
18.5695
 21
6.60606
  0
LINE
  8
0
 10
18.5695
 20
6.60606
 11
18.5
 21
6.59999
  0
LINE
  8
0
 10
18.5
 20
6.59999
 11
18.4305
 21
6.60606
  0
LINE
  8
0
 10
21.9305
 20
6.60606
 11
21.8632
 21
6.62411
  0
LINE
  8
0
 10
21.8632
 20
6.62411
 11
21.8
 21
6.65358
  0
LINE
  8
0
 10
21.8
 20
6.65358
 11
21.7429
 21
6.69357
  0
LINE
  8
0
 10
21.7429
 20
6.69357
 11
21.6936
 21
6.74287
  0
LINE
  8
0
 10
21.6936
 20
6.74287
 11
21.6536
 21
6.79999
  0
LINE
  8
0
 10
21.6536
 20
6.79999
 11
21.6241
 21
6.86319
  0
LINE
  8
0
 10
21.6241
 20
6.86319
 11
21.6061
 21
6.93053
  0
LINE
  8
0
 10
21.6061
 20
6.93053
 11
21.6
 21
7
  0
LINE
  8
0
 10
21.6
 20
7
 11
21.6061
 21
7.06946
  0
LINE
  8
0
 10
21.6061
 20
7.06946
 11
21.6241
 21
7.1368
  0
LINE
  8
0
 10
21.6241
 20
7.1368
 11
21.6536
 21
7.2
  0
LINE
  8
0
 10
21.6536
 20
7.2
 11
21.6936
 21
7.25711
  0
LINE
  8
0
 10
21.6936
 20
7.25711
 11
21.7429
 21
7.30641
  0
LINE
  8
0
 10
21.7429
 20
7.30641
 11
21.8
 21
7.34641
  0
LINE
  8
0
 10
21.8
 20
7.34641
 11
21.8632
 21
7.37587
  0
LINE
  8
0
 10
21.8632
 20
7.37587
 11
21.9305
 21
7.39392
  0
LINE
  8
0
 10
21.9305
 20
7.39392
 11
22
 21
7.39999
  0
LINE
  8
0
 10
22
 20
7.39999
 11
22.0695
 21
7.39392
  0
LINE
  8
0
 10
22.0695
 20
7.39392
 11
22.1368
 21
7.37587
  0
LINE
  8
0
 10
22.1368
 20
7.37587
 11
22.2
 21
7.34641
  0
LINE
  8
0
 10
22.2
 20
7.34641
 11
22.2571
 21
7.30641
  0
LINE
  8
0
 10
22.2571
 20
7.30641
 11
22.3064
 21
7.25711
  0
LINE
  8
0
 10
22.3064
 20
7.25711
 11
22.3464
 21
7.2
  0
LINE
  8
0
 10
22.3464
 20
7.2
 11
22.3759
 21
7.1368
  0
LINE
  8
0
 10
22.3759
 20
7.1368
 11
22.3939
 21
7.06946
  0
LINE
  8
0
 10
22.3939
 20
7.06946
 11
22.4
 21
7
  0
LINE
  8
0
 10
22.4
 20
7
 11
22.3939
 21
6.93053
  0
LINE
  8
0
 10
22.3939
 20
6.93053
 11
22.3759
 21
6.86319
  0
LINE
  8
0
 10
22.3759
 20
6.86319
 11
22.3464
 21
6.79999
  0
LINE
  8
0
 10
22.3464
 20
6.79999
 11
22.3064
 21
6.74287
  0
LINE
  8
0
 10
22.3064
 20
6.74287
 11
22.2571
 21
6.69357
  0
LINE
  8
0
 10
22.2571
 20
6.69357
 11
22.2
 21
6.65358
  0
LINE
  8
0
 10
22.2
 20
6.65358
 11
22.1368
 21
6.62411
  0
LINE
  8
0
 10
22.1368
 20
6.62411
 11
22.0695
 21
6.60606
  0
LINE
  8
0
 10
22.0695
 20
6.60606
 11
22
 21
6.59999
  0
LINE
  8
0
 10
22
 20
6.59999
 11
21.9305
 21
6.60606
  0
LINE
  8
0
 10
31.9305
 20
6.60606
 11
31.8632
 21
6.62411
  0
LINE
  8
0
 10
31.8632
 20
6.62411
 11
31.8
 21
6.65358
  0
LINE
  8
0
 10
31.8
 20
6.65358
 11
31.7429
 21
6.69357
  0
LINE
  8
0
 10
31.7429
 20
6.69357
 11
31.6936
 21
6.74287
  0
LINE
  8
0
 10
31.6936
 20
6.74287
 11
31.6536
 21
6.79999
  0
LINE
  8
0
 10
31.6536
 20
6.79999
 11
31.6241
 21
6.86319
  0
LINE
  8
0
 10
31.6241
 20
6.86319
 11
31.6061
 21
6.93053
  0
LINE
  8
0
 10
31.6061
 20
6.93053
 11
31.6
 21
7
  0
LINE
  8
0
 10
31.6
 20
7
 11
31.6061
 21
7.06946
  0
LINE
  8
0
 10
31.6061
 20
7.06946
 11
31.6241
 21
7.1368
  0
LINE
  8
0
 10
31.6241
 20
7.1368
 11
31.6536
 21
7.2
  0
LINE
  8
0
 10
31.6536
 20
7.2
 11
31.6936
 21
7.25711
  0
LINE
  8
0
 10
31.6936
 20
7.25711
 11
31.7429
 21
7.30641
  0
LINE
  8
0
 10
31.7429
 20
7.30641
 11
31.8
 21
7.34641
  0
LINE
  8
0
 10
31.8
 20
7.34641
 11
31.8632
 21
7.37587
  0
LINE
  8
0
 10
31.8632
 20
7.37587
 11
31.9305
 21
7.39392
  0
LINE
  8
0
 10
31.9305
 20
7.39392
 11
32
 21
7.39999
  0
LINE
  8
0
 10
32
 20
7.39999
 11
32.0695
 21
7.39392
  0
LINE
  8
0
 10
32.0695
 20
7.39392
 11
32.1368
 21
7.37587
  0
LINE
  8
0
 10
32.1368
 20
7.37587
 11
32.2
 21
7.34641
  0
LINE
  8
0
 10
32.2
 20
7.34641
 11
32.2571
 21
7.30641
  0
LINE
  8
0
 10
32.2571
 20
7.30641
 11
32.3064
 21
7.25711
  0
LINE
  8
0
 10
32.3064
 20
7.25711
 11
32.3464
 21
7.2
  0
LINE
  8
0
 10
32.3464
 20
7.2
 11
32.3759
 21
7.1368
  0
LINE
  8
0
 10
32.3759
 20
7.1368
 11
32.3939
 21
7.06946
  0
LINE
  8
0
 10
32.3939
 20
7.06946
 11
32.4
 21
7
  0
LINE
  8
0
 10
32.4
 20
7
 11
32.3939
 21
6.93053
  0
LINE
  8
0
 10
32.3939
 20
6.93053
 11
32.3759
 21
6.86319
  0
LINE
  8
0
 10
32.3759
 20
6.86319
 11
32.3464
 21
6.79999
  0
LINE
  8
0
 10
32.3464
 20
6.79999
 11
32.3064
 21
6.74287
  0
LINE
  8
0
 10
32.3064
 20
6.74287
 11
32.2571
 21
6.69357
  0
LINE
  8
0
 10
32.2571
 20
6.69357
 11
32.2
 21
6.65358
  0
LINE
  8
0
 10
32.2
 20
6.65358
 11
32.1368
 21
6.62411
  0
LINE
  8
0
 10
32.1368
 20
6.62411
 11
32.0695
 21
6.60606
  0
LINE
  8
0
 10
32.0695
 20
6.60606
 11
32
 21
6.59999
  0
LINE
  8
0
 10
32
 20
6.59999
 11
31.9305
 21
6.60606
  0
LINE
  8
0
 10
230
 20
9
 11
224.057
 21
9
  0
LINE
  8
0
 10
224.057
 20
9
 11
224.057
 21
8.375
  0
LINE
  8
0
 10
224.057
 20
8.375
 11
223.932
 21
8.375
  0
LINE
  8
0
 10
223.932
 20
8.375
 11
223.932
 21
8.5
  0
LINE
  8
0
 10
223.932
 20
8.5
 11
223.432
 21
8.5
  0
LINE
  8
0
 10
223.432
 20
8.5
 11
223.432
 21
8.375
  0
LINE
  8
0
 10
223.432
 20
8.375
 11
218.615
 21
8.375
  0
LINE
  8
0
 10
218.615
 20
8.375
 11
218.615
 21
8.5
  0
LINE
  8
0
 10
218.615
 20
8.5
 11
218.115
 21
8.5
  0
LINE
  8
0
 10
218.115
 20
8.5
 11
218.115
 21
8.375
  0
LINE
  8
0
 10
218.115
 20
8.375
 11
217.99
 21
8.375
  0
LINE
  8
0
 10
217.99
 20
8.375
 11
217.99
 21
9
  0
LINE
  8
0
 10
217.99
 20
9
 11
212.047
 21
9
  0
LINE
  8
0
 10
212.047
 20
9
 11
212.047
 21
8.375
  0
LINE
  8
0
 10
212.047
 20
8.375
 11
211.922
 21
8.375
  0
LINE
  8
0
 10
211.922
 20
8.375
 11
211.922
 21
8.5
  0
LINE
  8
0
 10
211.922
 20
8.5
 11
211.422
 21
8.5
  0
LINE
  8
0
 10
211.422
 20
8.5
 11
211.422
 21
8.375
  0
LINE
  8
0
 10
211.422
 20
8.375
 11
206.604
 21
8.375
  0
LINE
  8
0
 10
206.604
 20
8.375
 11
206.604
 21
8.5
  0
LINE
  8
0
 10
206.604
 20
8.5
 11
206.104
 21
8.5
  0
LINE
  8
0
 10
206.104
 20
8.5
 11
206.104
 21
8.375
  0
LINE
  8
0
 10
206.104
 20
8.375
 11
205.979
 21
8.375
  0
LINE
  8
0
 10
205.979
 20
8.375
 11
205.979
 21
9
  0
LINE
  8
0
 10
205.979
 20
9
 11
200.036
 21
9
  0
LINE
  8
0
 10
200.036
 20
9
 11
200.036
 21
8.375
  0
LINE
  8
0
 10
200.036
 20
8.375
 11
199.911
 21
8.375
  0
LINE
  8
0
 10
199.911
 20
8.375
 11
199.911
 21
8.5
  0
LINE
  8
0
 10
199.911
 20
8.5
 11
199.411
 21
8.5
  0
LINE
  8
0
 10
199.411
 20
8.5
 11
199.411
 21
8.375
  0
LINE
  8
0
 10
199.411
 20
8.375
 11
194.594
 21
8.375
  0
LINE
  8
0
 10
194.594
 20
8.375
 11
194.594
 21
8.5
  0
LINE
  8
0
 10
194.594
 20
8.5
 11
194.094
 21
8.5
  0
LINE
  8
0
 10
194.094
 20
8.5
 11
194.094
 21
8.375
  0
LINE
  8
0
 10
194.094
 20
8.375
 11
193.969
 21
8.375
  0
LINE
  8
0
 10
193.969
 20
8.375
 11
193.969
 21
9
  0
LINE
  8
0
 10
193.969
 20
9
 11
188.026
 21
9
  0
LINE
  8
0
 10
188.026
 20
9
 11
188.026
 21
8.375
  0
LINE
  8
0
 10
188.026
 20
8.375
 11
187.901
 21
8.375
  0
LINE
  8
0
 10
187.901
 20
8.375
 11
187.901
 21
8.5
  0
LINE
  8
0
 10
187.901
 20
8.5
 11
187.401
 21
8.5
  0
LINE
  8
0
 10
187.401
 20
8.5
 11
187.401
 21
8.375
  0
LINE
  8
0
 10
187.401
 20
8.375
 11
182.583
 21
8.375
  0
LINE
  8
0
 10
182.583
 20
8.375
 11
182.583
 21
8.5
  0
LINE
  8
0
 10
182.583
 20
8.5
 11
182.083
 21
8.5
  0
LINE
  8
0
 10
182.083
 20
8.5
 11
182.083
 21
8.375
  0
LINE
  8
0
 10
182.083
 20
8.375
 11
181.958
 21
8.375
  0
LINE
  8
0
 10
181.958
 20
8.375
 11
181.958
 21
9
  0
LINE
  8
0
 10
181.958
 20
9
 11
176.016
 21
9
  0
LINE
  8
0
 10
176.016
 20
9
 11
176.016
 21
8.375
  0
LINE
  8
0
 10
176.016
 20
8.375
 11
175.891
 21
8.375
  0
LINE
  8
0
 10
175.891
 20
8.375
 11
175.891
 21
8.5
  0
LINE
  8
0
 10
175.891
 20
8.5
 11
175.391
 21
8.5
  0
LINE
  8
0
 10
175.391
 20
8.5
 11
175.391
 21
8.375
  0
LINE
  8
0
 10
175.391
 20
8.375
 11
170.573
 21
8.375
  0
LINE
  8
0
 10
170.573
 20
8.375
 11
170.573
 21
8.5
  0
LINE
  8
0
 10
170.573
 20
8.5
 11
170.073
 21
8.5
  0
LINE
  8
0
 10
170.073
 20
8.5
 11
170.073
 21
8.375
  0
LINE
  8
0
 10
170.073
 20
8.375
 11
169.948
 21
8.375
  0
LINE
  8
0
 10
169.948
 20
8.375
 11
169.948
 21
9
  0
LINE
  8
0
 10
169.948
 20
9
 11
164.005
 21
9
  0
LINE
  8
0
 10
164.005
 20
9
 11
164.005
 21
8.375
  0
LINE
  8
0
 10
164.005
 20
8.375
 11
163.88
 21
8.375
  0
LINE
  8
0
 10
163.88
 20
8.375
 11
163.88
 21
8.5
  0
LINE
  8
0
 10
163.88
 20
8.5
 11
163.38
 21
8.5
  0
LINE
  8
0
 10
163.38
 20
8.5
 11
163.38
 21
8.375
  0
LINE
  8
0
 10
163.38
 20
8.375
 11
158.562
 21
8.375
  0
LINE
  8
0
 10
158.562
 20
8.375
 11
158.562
 21
8.5
  0
LINE
  8
0
 10
158.562
 20
8.5
 11
158.062
 21
8.5
  0
LINE
  8
0
 10
158.062
 20
8.5
 11
158.062
 21
8.375
  0
LINE
  8
0
 10
158.062
 20
8.375
 11
158
 21
8.375
  0
LINE
  8
0
 10
158
 20
8.375
 11
158
 21
5
  0
LINE
  8
0
 10
158
 20
5
 11
230
 21
5
  0
LINE
  8
0
 10
230
 20
5
 11
230
 21
9
  0
LINE
  8
0
 10
79.6562
 20
0.5625
 11
79.5312
 21
0.5625
  0
LINE
  8
0
 10
79.5312
 20
0.5625
 11
79.5312
 21
0.8125
  0
LINE
  8
0
 10
79.5312
 20
0.8125
 11
79.7812
 21
0.8125
  0
LINE
  8
0
 10
79.7812
 20
0.8125
 11
79.7812
 21
0.6875
  0
LINE
  8
0
 10
79.7812
 20
0.6875
 11
80.2188
 21
0.6875
  0
LINE
  8
0
 10
80.2188
 20
0.6875
 11
80.2188
 21
0.8125
  0
LINE
  8
0
 10
80.2188
 20
0.8125
 11
80.4688
 21
0.8125
  0
LINE
  8
0
 10
80.4688
 20
0.8125
 11
80.4688
 21
0.5625
  0
LINE
  8
0
 10
80.4688
 20
0.5625
 11
80.3438
 21
0.5625
  0
LINE
  8
0
 10
80.3438
 20
0.5625
 11
80.3438
 21
0
  0
LINE
  8
0
 10
80.3438
 20
0
 11
105.656
 21
0
  0
LINE
  8
0
 10
105.656
 20
0
 11
105.656
 21
0.5625
  0
LINE
  8
0
 10
105.656
 20
0.5625
 11
105.531
 21
0.5625
  0
LINE
  8
0
 10
105.531
 20
0.5625
 11
105.531
 21
0.8125
  0
LINE
  8
0
 10
105.531
 20
0.8125
 11
105.781
 21
0.8125
  0
LINE
  8
0
 10
105.781
 20
0.8125
 11
105.781
 21
0.6875
  0
LINE
  8
0
 10
105.781
 20
0.6875
 11
106.219
 21
0.6875
  0
LINE
  8
0
 10
106.219
 20
0.6875
 11
106.219
 21
0.8125
  0
LINE
  8
0
 10
106.219
 20
0.8125
 11
106.469
 21
0.8125
  0
LINE
  8
0
 10
106.469
 20
0.8125
 11
106.469
 21
0.5625
  0
LINE
  8
0
 10
106.469
 20
0.5625
 11
106.344
 21
0.5625
  0
LINE
  8
0
 10
106.344
 20
0.5625
 11
106.344
 21
0
  0
LINE
  8
0
 10
106.344
 20
0
 11
155.656
 21
0
  0
LINE
  8
0
 10
155.656
 20
0
 11
155.656
 21
0.5625
  0
LINE
  8
0
 10
155.656
 20
0.5625
 11
155.531
 21
0.5625
  0
LINE
  8
0
 10
155.531
 20
0.5625
 11
155.531
 21
0.8125
  0
LINE
  8
0
 10
155.531
 20
0.8125
 11
155.781
 21
0.8125
  0
LINE
  8
0
 10
155.781
 20
0.8125
 11
155.781
 21
0.6875
  0
LINE
  8
0
 10
155.781
 20
0.6875
 11
156.219
 21
0.6875
  0
LINE
  8
0
 10
156.219
 20
0.6875
 11
156.219
 21
0.8125
  0
LINE
  8
0
 10
156.219
 20
0.8125
 11
156.469
 21
0.8125
  0
LINE
  8
0
 10
156.469
 20
0.8125
 11
156.469
 21
0.5625
  0
LINE
  8
0
 10
156.469
 20
0.5625
 11
156.344
 21
0.5625
  0
LINE
  8
0
 10
156.344
 20
0.5625
 11
156.344
 21
0
  0
LINE
  8
0
 10
156.344
 20
0
 11
157
 21
0
  0
LINE
  8
0
 10
157
 20
0
 11
157
 21
6
  0
LINE
  8
0
 10
157
 20
6
 11
150.557
 21
6
  0
LINE
  8
0
 10
150.557
 20
6
 11
150.557
 21
5.375
  0
LINE
  8
0
 10
150.557
 20
5.375
 11
150.432
 21
5.375
  0
LINE
  8
0
 10
150.432
 20
5.375
 11
150.432
 21
5.5
  0
LINE
  8
0
 10
150.432
 20
5.5
 11
149.932
 21
5.5
  0
LINE
  8
0
 10
149.932
 20
5.5
 11
149.932
 21
5.375
  0
LINE
  8
0
 10
149.932
 20
5.375
 11
144.615
 21
5.375
  0
LINE
  8
0
 10
144.615
 20
5.375
 11
144.615
 21
5.5
  0
LINE
  8
0
 10
144.615
 20
5.5
 11
144.115
 21
5.5
  0
LINE
  8
0
 10
144.115
 20
5.5
 11
144.115
 21
5.375
  0
LINE
  8
0
 10
144.115
 20
5.375
 11
143.99
 21
5.375
  0
LINE
  8
0
 10
143.99
 20
5.375
 11
143.99
 21
6
  0
LINE
  8
0
 10
143.99
 20
6
 11
137.547
 21
6
  0
LINE
  8
0
 10
137.547
 20
6
 11
137.547
 21
5.375
  0
LINE
  8
0
 10
137.547
 20
5.375
 11
137.422
 21
5.375
  0
LINE
  8
0
 10
137.422
 20
5.375
 11
137.422
 21
5.5
  0
LINE
  8
0
 10
137.422
 20
5.5
 11
136.922
 21
5.5
  0
LINE
  8
0
 10
136.922
 20
5.5
 11
136.922
 21
5.375
  0
LINE
  8
0
 10
136.922
 20
5.375
 11
131.604
 21
5.375
  0
LINE
  8
0
 10
131.604
 20
5.375
 11
131.604
 21
5.5
  0
LINE
  8
0
 10
131.604
 20
5.5
 11
131.104
 21
5.5
  0
LINE
  8
0
 10
131.104
 20
5.5
 11
131.104
 21
5.375
  0
LINE
  8
0
 10
131.104
 20
5.375
 11
130.979
 21
5.375
  0
LINE
  8
0
 10
130.979
 20
5.375
 11
130.979
 21
6
  0
LINE
  8
0
 10
130.979
 20
6
 11
124.536
 21
6
  0
LINE
  8
0
 10
124.536
 20
6
 11
124.536
 21
5.375
  0
LINE
  8
0
 10
124.536
 20
5.375
 11
124.411
 21
5.375
  0
LINE
  8
0
 10
124.411
 20
5.375
 11
124.411
 21
5.5
  0
LINE
  8
0
 10
124.411
 20
5.5
 11
123.911
 21
5.5
  0
LINE
  8
0
 10
123.911
 20
5.5
 11
123.911
 21
5.375
  0
LINE
  8
0
 10
123.911
 20
5.375
 11
118.594
 21
5.375
  0
LINE
  8
0
 10
118.594
 20
5.375
 11
118.594
 21
5.5
  0
LINE
  8
0
 10
118.594
 20
5.5
 11
118.094
 21
5.5
  0
LINE
  8
0
 10
118.094
 20
5.5
 11
118.094
 21
5.375
  0
LINE
  8
0
 10
118.094
 20
5.375
 11
117.969
 21
5.375
  0
LINE
  8
0
 10
117.969
 20
5.375
 11
117.969
 21
6
  0
LINE
  8
0
 10
117.969
 20
6
 11
111.526
 21
6
  0
LINE
  8
0
 10
111.526
 20
6
 11
111.526
 21
5.375
  0
LINE
  8
0
 10
111.526
 20
5.375
 11
111.401
 21
5.375
  0
LINE
  8
0
 10
111.401
 20
5.375
 11
111.401
 21
5.5
  0
LINE
  8
0
 10
111.401
 20
5.5
 11
110.901
 21
5.5
  0
LINE
  8
0
 10
110.901
 20
5.5
 11
110.901
 21
5.375
  0
LINE
  8
0
 10
110.901
 20
5.375
 11
105.583
 21
5.375
  0
LINE
  8
0
 10
105.583
 20
5.375
 11
105.583
 21
5.5
  0
LINE
  8
0
 10
105.583
 20
5.5
 11
105.083
 21
5.5
  0
LINE
  8
0
 10
105.083
 20
5.5
 11
105.083
 21
5.375
  0
LINE
  8
0
 10
105.083
 20
5.375
 11
104.958
 21
5.375
  0
LINE
  8
0
 10
104.958
 20
5.375
 11
104.958
 21
6
  0
LINE
  8
0
 10
104.958
 20
6
 11
98.5156
 21
6
  0
LINE
  8
0
 10
98.5156
 20
6
 11
98.5156
 21
5.375
  0
LINE
  8
0
 10
98.5156
 20
5.375
 11
98.3906
 21
5.375
  0
LINE
  8
0
 10
98.3906
 20
5.375
 11
98.3906
 21
5.5
  0
LINE
  8
0
 10
98.3906
 20
5.5
 11
97.8906
 21
5.5
  0
LINE
  8
0
 10
97.8906
 20
5.5
 11
97.8906
 21
5.375
  0
LINE
  8
0
 10
97.8906
 20
5.375
 11
92.5729
 21
5.375
  0
LINE
  8
0
 10
92.5729
 20
5.375
 11
92.5729
 21
5.5
  0
LINE
  8
0
 10
92.5729
 20
5.5
 11
92.0729
 21
5.5
  0
LINE
  8
0
 10
92.0729
 20
5.5
 11
92.0729
 21
5.375
  0
LINE
  8
0
 10
92.0729
 20
5.375
 11
91.9479
 21
5.375
  0
LINE
  8
0
 10
91.9479
 20
5.375
 11
91.9479
 21
6
  0
LINE
  8
0
 10
91.9479
 20
6
 11
85.5052
 21
6
  0
LINE
  8
0
 10
85.5052
 20
6
 11
85.5052
 21
5.375
  0
LINE
  8
0
 10
85.5052
 20
5.375
 11
85.3802
 21
5.375
  0
LINE
  8
0
 10
85.3802
 20
5.375
 11
85.3802
 21
5.5
  0
LINE
  8
0
 10
85.3802
 20
5.5
 11
84.8802
 21
5.5
  0
LINE
  8
0
 10
84.8802
 20
5.5
 11
84.8802
 21
5.375
  0
LINE
  8
0
 10
84.8802
 20
5.375
 11
79.5625
 21
5.375
  0
LINE
  8
0
 10
79.5625
 20
5.375
 11
79.5625
 21
5.5
  0
LINE
  8
0
 10
79.5625
 20
5.5
 11
79.0625
 21
5.5
  0
LINE
  8
0
 10
79.0625
 20
5.5
 11
79.0625
 21
5.375
  0
LINE
  8
0
 10
79.0625
 20
5.375
 11
79
 21
5.375
  0
LINE
  8
0
 10
79
 20
5.375
 11
79
 21
0
  0
LINE
  8
0
 10
79
 20
0
 11
79.6562
 21
0
  0
LINE
  8
0
 10
79.6562
 20
0
 11
79.6562
 21
0.5625
  0
LINE
  8
0
 10
381
 20
0.625
 11
380.5
 21
0.625
  0
LINE
  8
0
 10
380.5
 20
0.625
 11
380.5
 21
1.43332
  0
LINE
  8
0
 10
380.5
 20
1.43332
 11
378.06
 21
5.5
  0
LINE
  8
0
 10
378.06
 20
5.5
 11
377.625
 21
5.5
  0
LINE
  8
0
 10
377.625
 20
5.5
 11
377.625
 21
6
  0
LINE
  8
0
 10
377.625
 20
6
 11
377
 21
6
  0
LINE
  8
0
 10
377
 20
6
 11
377
 21
5
  0
LINE
  8
0
 10
377
 20
5
 11
380
 21
0
  0
LINE
  8
0
 10
380
 20
0
 11
381
 21
0
  0
LINE
  8
0
 10
381
 20
0
 11
381
 21
0.625
  0
LINE
  8
0
 10
376
 20
5.375
 11
375.938
 21
5.375
  0
LINE
  8
0
 10
375.938
 20
5.375
 11
375.938
 21
5.5
  0
LINE
  8
0
 10
375.938
 20
5.5
 11
375.438
 21
5.5
  0
LINE
  8
0
 10
375.438
 20
5.5
 11
375.438
 21
5.375
  0
LINE
  8
0
 10
375.438
 20
5.375
 11
370.62
 21
5.375
  0
LINE
  8
0
 10
370.62
 20
5.375
 11
370.62
 21
5.5
  0
LINE
  8
0
 10
370.62
 20
5.5
 11
370.12
 21
5.5
  0
LINE
  8
0
 10
370.12
 20
5.5
 11
370.12
 21
5.375
  0
LINE
  8
0
 10
370.12
 20
5.375
 11
369.995
 21
5.375
  0
LINE
  8
0
 10
369.995
 20
5.375
 11
369.995
 21
6
  0
LINE
  8
0
 10
369.995
 20
6
 11
364.052
 21
6
  0
LINE
  8
0
 10
364.052
 20
6
 11
364.052
 21
5.375
  0
LINE
  8
0
 10
364.052
 20
5.375
 11
363.927
 21
5.375
  0
LINE
  8
0
 10
363.927
 20
5.375
 11
363.927
 21
5.5
  0
LINE
  8
0
 10
363.927
 20
5.5
 11
363.427
 21
5.5
  0
LINE
  8
0
 10
363.427
 20
5.5
 11
363.427
 21
5.375
  0
LINE
  8
0
 10
363.427
 20
5.375
 11
358.609
 21
5.375
  0
LINE
  8
0
 10
358.609
 20
5.375
 11
358.609
 21
5.5
  0
LINE
  8
0
 10
358.609
 20
5.5
 11
358.109
 21
5.5
  0
LINE
  8
0
 10
358.109
 20
5.5
 11
358.109
 21
5.375
  0
LINE
  8
0
 10
358.109
 20
5.375
 11
357.984
 21
5.375
  0
LINE
  8
0
 10
357.984
 20
5.375
 11
357.984
 21
6
  0
LINE
  8
0
 10
357.984
 20
6
 11
352.042
 21
6
  0
LINE
  8
0
 10
352.042
 20
6
 11
352.042
 21
5.375
  0
LINE
  8
0
 10
352.042
 20
5.375
 11
351.917
 21
5.375
  0
LINE
  8
0
 10
351.917
 20
5.375
 11
351.917
 21
5.5
  0
LINE
  8
0
 10
351.917
 20
5.5
 11
351.417
 21
5.5
  0
LINE
  8
0
 10
351.417
 20
5.5
 11
351.417
 21
5.375
  0
LINE
  8
0
 10
351.417
 20
5.375
 11
346.599
 21
5.375
  0
LINE
  8
0
 10
346.599
 20
5.375
 11
346.599
 21
5.5
  0
LINE
  8
0
 10
346.599
 20
5.5
 11
346.099
 21
5.5
  0
LINE
  8
0
 10
346.099
 20
5.5
 11
346.099
 21
5.375
  0
LINE
  8
0
 10
346.099
 20
5.375
 11
345.974
 21
5.375
  0
LINE
  8
0
 10
345.974
 20
5.375
 11
345.974
 21
6
  0
LINE
  8
0
 10
345.974
 20
6
 11
340.031
 21
6
  0
LINE
  8
0
 10
340.031
 20
6
 11
340.031
 21
5.375
  0
LINE
  8
0
 10
340.031
 20
5.375
 11
339.906
 21
5.375
  0
LINE
  8
0
 10
339.906
 20
5.375
 11
339.906
 21
5.5
  0
LINE
  8
0
 10
339.906
 20
5.5
 11
339.406
 21
5.5
  0
LINE
  8
0
 10
339.406
 20
5.5
 11
339.406
 21
5.375
  0
LINE
  8
0
 10
339.406
 20
5.375
 11
334.589
 21
5.375
  0
LINE
  8
0
 10
334.589
 20
5.375
 11
334.589
 21
5.5
  0
LINE
  8
0
 10
334.589
 20
5.5
 11
334.089
 21
5.5
  0
LINE
  8
0
 10
334.089
 20
5.5
 11
334.089
 21
5.375
  0
LINE
  8
0
 10
334.089
 20
5.375
 11
333.964
 21
5.375
  0
LINE
  8
0
 10
333.964
 20
5.375
 11
333.964
 21
6
  0
LINE
  8
0
 10
333.964
 20
6
 11
328.021
 21
6
  0
LINE
  8
0
 10
328.021
 20
6
 11
328.021
 21
5.375
  0
LINE
  8
0
 10
328.021
 20
5.375
 11
327.896
 21
5.375
  0
LINE
  8
0
 10
327.896
 20
5.375
 11
327.896
 21
5.5
  0
LINE
  8
0
 10
327.896
 20
5.5
 11
327.396
 21
5.5
  0
LINE
  8
0
 10
327.396
 20
5.5
 11
327.396
 21
5.375
  0
LINE
  8
0
 10
327.396
 20
5.375
 11
322.578
 21
5.375
  0
LINE
  8
0
 10
322.578
 20
5.375
 11
322.578
 21
5.5
  0
LINE
  8
0
 10
322.578
 20
5.5
 11
322.078
 21
5.5
  0
LINE
  8
0
 10
322.078
 20
5.5
 11
322.078
 21
5.375
  0
LINE
  8
0
 10
322.078
 20
5.375
 11
321.953
 21
5.375
  0
LINE
  8
0
 10
321.953
 20
5.375
 11
321.953
 21
6
  0
LINE
  8
0
 10
321.953
 20
6
 11
316.01
 21
6
  0
LINE
  8
0
 10
316.01
 20
6
 11
316.01
 21
5.375
  0
LINE
  8
0
 10
316.01
 20
5.375
 11
315.885
 21
5.375
  0
LINE
  8
0
 10
315.885
 20
5.375
 11
315.885
 21
5.5
  0
LINE
  8
0
 10
315.885
 20
5.5
 11
315.385
 21
5.5
  0
LINE
  8
0
 10
315.385
 20
5.5
 11
315.385
 21
5.375
  0
LINE
  8
0
 10
315.385
 20
5.375
 11
310.568
 21
5.375
  0
LINE
  8
0
 10
310.568
 20
5.375
 11
310.568
 21
5.5
  0
LINE
  8
0
 10
310.568
 20
5.5
 11
310.068
 21
5.5
  0
LINE
  8
0
 10
310.068
 20
5.5
 11
310.068
 21
5.375
  0
LINE
  8
0
 10
310.068
 20
5.375
 11
309.943
 21
5.375
  0
LINE
  8
0
 10
309.943
 20
5.375
 11
309.943
 21
6
  0
LINE
  8
0
 10
309.943
 20
6
 11
304
 21
6
  0
LINE
  8
0
 10
304
 20
6
 11
304
 21
0
  0
LINE
  8
0
 10
304
 20
0
 11
376
 21
0
  0
LINE
  8
0
 10
376
 20
0
 11
376
 21
5.375
  0
LINE
  8
0
 10
303
 20
5.375
 11
302.938
 21
5.375
  0
LINE
  8
0
 10
302.938
 20
5.375
 11
302.938
 21
5.5
  0
LINE
  8
0
 10
302.938
 20
5.5
 11
302.438
 21
5.5
  0
LINE
  8
0
 10
302.438
 20
5.5
 11
302.438
 21
5.375
  0
LINE
  8
0
 10
302.438
 20
5.375
 11
297.62
 21
5.375
  0
LINE
  8
0
 10
297.62
 20
5.375
 11
297.62
 21
5.5
  0
LINE
  8
0
 10
297.62
 20
5.5
 11
297.12
 21
5.5
  0
LINE
  8
0
 10
297.12
 20
5.5
 11
297.12
 21
5.375
  0
LINE
  8
0
 10
297.12
 20
5.375
 11
296.995
 21
5.375
  0
LINE
  8
0
 10
296.995
 20
5.375
 11
296.995
 21
6
  0
LINE
  8
0
 10
296.995
 20
6
 11
291.052
 21
6
  0
LINE
  8
0
 10
291.052
 20
6
 11
291.052
 21
5.375
  0
LINE
  8
0
 10
291.052
 20
5.375
 11
290.927
 21
5.375
  0
LINE
  8
0
 10
290.927
 20
5.375
 11
290.927
 21
5.5
  0
LINE
  8
0
 10
290.927
 20
5.5
 11
290.427
 21
5.5
  0
LINE
  8
0
 10
290.427
 20
5.5
 11
290.427
 21
5.375
  0
LINE
  8
0
 10
290.427
 20
5.375
 11
285.609
 21
5.375
  0
LINE
  8
0
 10
285.609
 20
5.375
 11
285.609
 21
5.5
  0
LINE
  8
0
 10
285.609
 20
5.5
 11
285.109
 21
5.5
  0
LINE
  8
0
 10
285.109
 20
5.5
 11
285.109
 21
5.375
  0
LINE
  8
0
 10
285.109
 20
5.375
 11
284.984
 21
5.375
  0
LINE
  8
0
 10
284.984
 20
5.375
 11
284.984
 21
6
  0
LINE
  8
0
 10
284.984
 20
6
 11
279.042
 21
6
  0
LINE
  8
0
 10
279.042
 20
6
 11
279.042
 21
5.375
  0
LINE
  8
0
 10
279.042
 20
5.375
 11
278.917
 21
5.375
  0
LINE
  8
0
 10
278.917
 20
5.375
 11
278.917
 21
5.5
  0
LINE
  8
0
 10
278.917
 20
5.5
 11
278.417
 21
5.5
  0
LINE
  8
0
 10
278.417
 20
5.5
 11
278.417
 21
5.375
  0
LINE
  8
0
 10
278.417
 20
5.375
 11
273.599
 21
5.375
  0
LINE
  8
0
 10
273.599
 20
5.375
 11
273.599
 21
5.5
  0
LINE
  8
0
 10
273.599
 20
5.5
 11
273.099
 21
5.5
  0
LINE
  8
0
 10
273.099
 20
5.5
 11
273.099
 21
5.375
  0
LINE
  8
0
 10
273.099
 20
5.375
 11
272.974
 21
5.375
  0
LINE
  8
0
 10
272.974
 20
5.375
 11
272.974
 21
6
  0
LINE
  8
0
 10
272.974
 20
6
 11
267.031
 21
6
  0
LINE
  8
0
 10
267.031
 20
6
 11
267.031
 21
5.375
  0
LINE
  8
0
 10
267.031
 20
5.375
 11
266.906
 21
5.375
  0
LINE
  8
0
 10
266.906
 20
5.375
 11
266.906
 21
5.5
  0
LINE
  8
0
 10
266.906
 20
5.5
 11
266.406
 21
5.5
  0
LINE
  8
0
 10
266.406
 20
5.5
 11
266.406
 21
5.375
  0
LINE
  8
0
 10
266.406
 20
5.375
 11
261.589
 21
5.375
  0
LINE
  8
0
 10
261.589
 20
5.375
 11
261.589
 21
5.5
  0
LINE
  8
0
 10
261.589
 20
5.5
 11
261.089
 21
5.5
  0
LINE
  8
0
 10
261.089
 20
5.5
 11
261.089
 21
5.375
  0
LINE
  8
0
 10
261.089
 20
5.375
 11
260.964
 21
5.375
  0
LINE
  8
0
 10
260.964
 20
5.375
 11
260.964
 21
6
  0
LINE
  8
0
 10
260.964
 20
6
 11
255.021
 21
6
  0
LINE
  8
0
 10
255.021
 20
6
 11
255.021
 21
5.375
  0
LINE
  8
0
 10
255.021
 20
5.375
 11
254.896
 21
5.375
  0
LINE
  8
0
 10
254.896
 20
5.375
 11
254.896
 21
5.5
  0
LINE
  8
0
 10
254.896
 20
5.5
 11
254.396
 21
5.5
  0
LINE
  8
0
 10
254.396
 20
5.5
 11
254.396
 21
5.375
  0
LINE
  8
0
 10
254.396
 20
5.375
 11
249.578
 21
5.375
  0
LINE
  8
0
 10
249.578
 20
5.375
 11
249.578
 21
5.5
  0
LINE
  8
0
 10
249.578
 20
5.5
 11
249.078
 21
5.5
  0
LINE
  8
0
 10
249.078
 20
5.5
 11
249.078
 21
5.375
  0
LINE
  8
0
 10
249.078
 20
5.375
 11
248.953
 21
5.375
  0
LINE
  8
0
 10
248.953
 20
5.375
 11
248.953
 21
6
  0
LINE
  8
0
 10
248.953
 20
6
 11
243.01
 21
6
  0
LINE
  8
0
 10
243.01
 20
6
 11
243.01
 21
5.375
  0
LINE
  8
0
 10
243.01
 20
5.375
 11
242.885
 21
5.375
  0
LINE
  8
0
 10
242.885
 20
5.375
 11
242.885
 21
5.5
  0
LINE
  8
0
 10
242.885
 20
5.5
 11
242.385
 21
5.5
  0
LINE
  8
0
 10
242.385
 20
5.5
 11
242.385
 21
5.375
  0
LINE
  8
0
 10
242.385
 20
5.375
 11
237.568
 21
5.375
  0
LINE
  8
0
 10
237.568
 20
5.375
 11
237.568
 21
5.5
  0
LINE
  8
0
 10
237.568
 20
5.5
 11
237.068
 21
5.5
  0
LINE
  8
0
 10
237.068
 20
5.5
 11
237.068
 21
5.375
  0
LINE
  8
0
 10
237.068
 20
5.375
 11
236.943
 21
5.375
  0
LINE
  8
0
 10
236.943
 20
5.375
 11
236.943
 21
6
  0
LINE
  8
0
 10
236.943
 20
6
 11
231
 21
6
  0
LINE
  8
0
 10
231
 20
6
 11
231
 21
0
  0
LINE
  8
0
 10
231
 20
0
 11
303
 21
0
  0
LINE
  8
0
 10
303
 20
0
 11
303
 21
5.375
  0
LINE
  8
0
 10
0.65625
 20
0.5625
 11
0.53125
 21
0.5625
  0
LINE
  8
0
 10
0.53125
 20
0.5625
 11
0.53125
 21
0.8125
  0
LINE
  8
0
 10
0.53125
 20
0.8125
 11
0.78125
 21
0.8125
  0
LINE
  8
0
 10
0.78125
 20
0.8125
 11
0.78125
 21
0.6875
  0
LINE
  8
0
 10
0.78125
 20
0.6875
 11
1.21875
 21
0.6875
  0
LINE
  8
0
 10
1.21875
 20
0.6875
 11
1.21875
 21
0.8125
  0
LINE
  8
0
 10
1.21875
 20
0.8125
 11
1.46875
 21
0.8125
  0
LINE
  8
0
 10
1.46875
 20
0.8125
 11
1.46875
 21
0.5625
  0
LINE
  8
0
 10
1.46875
 20
0.5625
 11
1.34375
 21
0.5625
  0
LINE
  8
0
 10
1.34375
 20
0.5625
 11
1.34375
 21
0
  0
LINE
  8
0
 10
1.34375
 20
0
 11
26.6562
 21
0
  0
LINE
  8
0
 10
26.6562
 20
0
 11
26.6562
 21
0.5625
  0
LINE
  8
0
 10
26.6562
 20
0.5625
 11
26.5312
 21
0.5625
  0
LINE
  8
0
 10
26.5312
 20
0.5625
 11
26.5312
 21
0.8125
  0
LINE
  8
0
 10
26.5312
 20
0.8125
 11
26.7812
 21
0.8125
  0
LINE
  8
0
 10
26.7812
 20
0.8125
 11
26.7812
 21
0.6875
  0
LINE
  8
0
 10
26.7812
 20
0.6875
 11
27.2188
 21
0.6875
  0
LINE
  8
0
 10
27.2188
 20
0.6875
 11
27.2188
 21
0.8125
  0
LINE
  8
0
 10
27.2188
 20
0.8125
 11
27.4688
 21
0.8125
  0
LINE
  8
0
 10
27.4688
 20
0.8125
 11
27.4688
 21
0.5625
  0
LINE
  8
0
 10
27.4688
 20
0.5625
 11
27.3438
 21
0.5625
  0
LINE
  8
0
 10
27.3438
 20
0.5625
 11
27.3438
 21
0
  0
LINE
  8
0
 10
27.3438
 20
0
 11
76.6562
 21
0
  0
LINE
  8
0
 10
76.6562
 20
0
 11
76.6562
 21
0.5625
  0
LINE
  8
0
 10
76.6562
 20
0.5625
 11
76.5312
 21
0.5625
  0
LINE
  8
0
 10
76.5312
 20
0.5625
 11
76.5312
 21
0.8125
  0
LINE
  8
0
 10
76.5312
 20
0.8125
 11
76.7812
 21
0.8125
  0
LINE
  8
0
 10
76.7812
 20
0.8125
 11
76.7812
 21
0.6875
  0
LINE
  8
0
 10
76.7812
 20
0.6875
 11
77.2188
 21
0.6875
  0
LINE
  8
0
 10
77.2188
 20
0.6875
 11
77.2188
 21
0.8125
  0
LINE
  8
0
 10
77.2188
 20
0.8125
 11
77.4688
 21
0.8125
  0
LINE
  8
0
 10
77.4688
 20
0.8125
 11
77.4688
 21
0.5625
  0
LINE
  8
0
 10
77.4688
 20
0.5625
 11
77.3438
 21
0.5625
  0
LINE
  8
0
 10
77.3438
 20
0.5625
 11
77.3438
 21
0
  0
LINE
  8
0
 10
77.3438
 20
0
 11
78
 21
0
  0
LINE
  8
0
 10
78
 20
0
 11
78
 21
3.375
  0
LINE
  8
0
 10
78
 20
3.375
 11
77.9375
 21
3.375
  0
LINE
  8
0
 10
77.9375
 20
3.375
 11
77.9375
 21
3.5
  0
LINE
  8
0
 10
77.9375
 20
3.5
 11
77.4375
 21
3.5
  0
LINE
  8
0
 10
77.4375
 20
3.5
 11
77.4375
 21
3.375
  0
LINE
  8
0
 10
77.4375
 20
3.375
 11
72.1198
 21
3.375
  0
LINE
  8
0
 10
72.1198
 20
3.375
 11
72.1198
 21
3.5
  0
LINE
  8
0
 10
72.1198
 20
3.5
 11
71.6198
 21
3.5
  0
LINE
  8
0
 10
71.6198
 20
3.5
 11
71.6198
 21
3.375
  0
LINE
  8
0
 10
71.6198
 20
3.375
 11
71.4948
 21
3.375
  0
LINE
  8
0
 10
71.4948
 20
3.375
 11
71.4948
 21
4
  0
LINE
  8
0
 10
71.4948
 20
4
 11
65.0521
 21
4
  0
LINE
  8
0
 10
65.0521
 20
4
 11
65.0521
 21
3.375
  0
LINE
  8
0
 10
65.0521
 20
3.375
 11
64.9271
 21
3.375
  0
LINE
  8
0
 10
64.9271
 20
3.375
 11
64.9271
 21
3.5
  0
LINE
  8
0
 10
64.9271
 20
3.5
 11
64.4271
 21
3.5
  0
LINE
  8
0
 10
64.4271
 20
3.5
 11
64.4271
 21
3.375
  0
LINE
  8
0
 10
64.4271
 20
3.375
 11
59.1094
 21
3.375
  0
LINE
  8
0
 10
59.1094
 20
3.375
 11
59.1094
 21
3.5
  0
LINE
  8
0
 10
59.1094
 20
3.5
 11
58.6094
 21
3.5
  0
LINE
  8
0
 10
58.6094
 20
3.5
 11
58.6094
 21
3.375
  0
LINE
  8
0
 10
58.6094
 20
3.375
 11
58.4844
 21
3.375
  0
LINE
  8
0
 10
58.4844
 20
3.375
 11
58.4844
 21
4
  0
LINE
  8
0
 10
58.4844
 20
4
 11
52.0417
 21
4
  0
LINE
  8
0
 10
52.0417
 20
4
 11
52.0417
 21
3.375
  0
LINE
  8
0
 10
52.0417
 20
3.375
 11
51.9167
 21
3.375
  0
LINE
  8
0
 10
51.9167
 20
3.375
 11
51.9167
 21
3.5
  0
LINE
  8
0
 10
51.9167
 20
3.5
 11
51.4167
 21
3.5
  0
LINE
  8
0
 10
51.4167
 20
3.5
 11
51.4167
 21
3.375
  0
LINE
  8
0
 10
51.4167
 20
3.375
 11
46.099
 21
3.375
  0
LINE
  8
0
 10
46.099
 20
3.375
 11
46.099
 21
3.5
  0
LINE
  8
0
 10
46.099
 20
3.5
 11
45.599
 21
3.5
  0
LINE
  8
0
 10
45.599
 20
3.5
 11
45.599
 21
3.375
  0
LINE
  8
0
 10
45.599
 20
3.375
 11
45.474
 21
3.375
  0
LINE
  8
0
 10
45.474
 20
3.375
 11
45.474
 21
4
  0
LINE
  8
0
 10
45.474
 20
4
 11
39.0312
 21
4
  0
LINE
  8
0
 10
39.0312
 20
4
 11
39.0312
 21
3.375
  0
LINE
  8
0
 10
39.0312
 20
3.375
 11
38.9062
 21
3.375
  0
LINE
  8
0
 10
38.9062
 20
3.375
 11
38.9062
 21
3.5
  0
LINE
  8
0
 10
38.9062
 20
3.5
 11
38.4062
 21
3.5
  0
LINE
  8
0
 10
38.4062
 20
3.5
 11
38.4062
 21
3.375
  0
LINE
  8
0
 10
38.4062
 20
3.375
 11
33.0885
 21
3.375
  0
LINE
  8
0
 10
33.0885
 20
3.375
 11
33.0885
 21
3.5
  0
LINE
  8
0
 10
33.0885
 20
3.5
 11
32.5885
 21
3.5
  0
LINE
  8
0
 10
32.5885
 20
3.5
 11
32.5885
 21
3.375
  0
LINE
  8
0
 10
32.5885
 20
3.375
 11
32.4635
 21
3.375
  0
LINE
  8
0
 10
32.4635
 20
3.375
 11
32.4635
 21
4
  0
LINE
  8
0
 10
32.4635
 20
4
 11
26.0208
 21
4
  0
LINE
  8
0
 10
26.0208
 20
4
 11
26.0208
 21
3.375
  0
LINE
  8
0
 10
26.0208
 20
3.375
 11
25.8958
 21
3.375
  0
LINE
  8
0
 10
25.8958
 20
3.375
 11
25.8958
 21
3.5
  0
LINE
  8
0
 10
25.8958
 20
3.5
 11
25.3958
 21
3.5
  0
LINE
  8
0
 10
25.3958
 20
3.5
 11
25.3958
 21
3.375
  0
LINE
  8
0
 10
25.3958
 20
3.375
 11
20.0781
 21
3.375
  0
LINE
  8
0
 10
20.0781
 20
3.375
 11
20.0781
 21
3.5
  0
LINE
  8
0
 10
20.0781
 20
3.5
 11
19.5781
 21
3.5
  0
LINE
  8
0
 10
19.5781
 20
3.5
 11
19.5781
 21
3.375
  0
LINE
  8
0
 10
19.5781
 20
3.375
 11
19.4531
 21
3.375
  0
LINE
  8
0
 10
19.4531
 20
3.375
 11
19.4531
 21
4
  0
LINE
  8
0
 10
19.4531
 20
4
 11
13.0104
 21
4
  0
LINE
  8
0
 10
13.0104
 20
4
 11
13.0104
 21
3.375
  0
LINE
  8
0
 10
13.0104
 20
3.375
 11
12.8854
 21
3.375
  0
LINE
  8
0
 10
12.8854
 20
3.375
 11
12.8854
 21
3.5
  0
LINE
  8
0
 10
12.8854
 20
3.5
 11
12.3854
 21
3.5
  0
LINE
  8
0
 10
12.3854
 20
3.5
 11
12.3854
 21
3.375
  0
LINE
  8
0
 10
12.3854
 20
3.375
 11
7.0677
 21
3.375
  0
LINE
  8
0
 10
7.0677
 20
3.375
 11
7.0677
 21
3.5
  0
LINE
  8
0
 10
7.0677
 20
3.5
 11
6.5677
 21
3.5
  0
LINE
  8
0
 10
6.5677
 20
3.5
 11
6.5677
 21
3.375
  0
LINE
  8
0
 10
6.5677
 20
3.375
 11
6.4427
 21
3.375
  0
LINE
  8
0
 10
6.4427
 20
3.375
 11
6.4427
 21
4
  0
LINE
  8
0
 10
6.4427
 20
4
 11
0
 21
4
  0
LINE
  8
0
 10
0
 20
4
 11
0
 21
0
  0
LINE
  8
0
 10
0
 20
0
 11
0.65625
 21
0
  0
LINE
  8
0
 10
0.65625
 20
0
 11
0.65625
 21
0.5625
  0
LINE
  8
0
 10
21.9305
 20
1.60606
 11
21.8632
 21
1.62411
  0
LINE
  8
0
 10
21.8632
 20
1.62411
 11
21.8
 21
1.65358
  0
LINE
  8
0
 10
21.8
 20
1.65358
 11
21.7429
 21
1.69357
  0
LINE
  8
0
 10
21.7429
 20
1.69357
 11
21.6936
 21
1.74287
  0
LINE
  8
0
 10
21.6936
 20
1.74287
 11
21.6536
 21
1.79999
  0
LINE
  8
0
 10
21.6536
 20
1.79999
 11
21.6241
 21
1.86319
  0
LINE
  8
0
 10
21.6241
 20
1.86319
 11
21.6061
 21
1.93053
  0
LINE
  8
0
 10
21.6061
 20
1.93053
 11
21.6
 21
2
  0
LINE
  8
0
 10
21.6
 20
2
 11
21.6061
 21
2.06946
  0
LINE
  8
0
 10
21.6061
 20
2.06946
 11
21.6241
 21
2.1368
  0
LINE
  8
0
 10
21.6241
 20
2.1368
 11
21.6536
 21
2.2
  0
LINE
  8
0
 10
21.6536
 20
2.2
 11
21.6936
 21
2.25711
  0
LINE
  8
0
 10
21.6936
 20
2.25711
 11
21.7429
 21
2.30641
  0
LINE
  8
0
 10
21.7429
 20
2.30641
 11
21.8
 21
2.34641
  0
LINE
  8
0
 10
21.8
 20
2.34641
 11
21.8632
 21
2.37587
  0
LINE
  8
0
 10
21.8632
 20
2.37587
 11
21.9305
 21
2.39392
  0
LINE
  8
0
 10
21.9305
 20
2.39392
 11
22
 21
2.39999
  0
LINE
  8
0
 10
22
 20
2.39999
 11
22.0695
 21
2.39392
  0
LINE
  8
0
 10
22.0695
 20
2.39392
 11
22.1368
 21
2.37587
  0
LINE
  8
0
 10
22.1368
 20
2.37587
 11
22.2
 21
2.34641
  0
LINE
  8
0
 10
22.2
 20
2.34641
 11
22.2571
 21
2.30641
  0
LINE
  8
0
 10
22.2571
 20
2.30641
 11
22.3064
 21
2.25711
  0
LINE
  8
0
 10
22.3064
 20
2.25711
 11
22.3464
 21
2.2
  0
LINE
  8
0
 10
22.3464
 20
2.2
 11
22.3759
 21
2.1368
  0
LINE
  8
0
 10
22.3759
 20
2.1368
 11
22.3939
 21
2.06946
  0
LINE
  8
0
 10
22.3939
 20
2.06946
 11
22.4
 21
2
  0
LINE
  8
0
 10
22.4
 20
2
 11
22.3939
 21
1.93053
  0
LINE
  8
0
 10
22.3939
 20
1.93053
 11
22.3759
 21
1.86319
  0
LINE
  8
0
 10
22.3759
 20
1.86319
 11
22.3464
 21
1.79999
  0
LINE
  8
0
 10
22.3464
 20
1.79999
 11
22.3064
 21
1.74287
  0
LINE
  8
0
 10
22.3064
 20
1.74287
 11
22.2571
 21
1.69357
  0
LINE
  8
0
 10
22.2571
 20
1.69357
 11
22.2
 21
1.65358
  0
LINE
  8
0
 10
22.2
 20
1.65358
 11
22.1368
 21
1.62411
  0
LINE
  8
0
 10
22.1368
 20
1.62411
 11
22.0695
 21
1.60606
  0
LINE
  8
0
 10
22.0695
 20
1.60606
 11
22
 21
1.59999
  0
LINE
  8
0
 10
22
 20
1.59999
 11
21.9305
 21
1.60606
  0
LINE
  8
0
 10
7.93053
 20
1.60606
 11
7.86319
 21
1.62411
  0
LINE
  8
0
 10
7.86319
 20
1.62411
 11
7.79999
 21
1.65358
  0
LINE
  8
0
 10
7.79999
 20
1.65358
 11
7.74287
 21
1.69357
  0
LINE
  8
0
 10
7.74287
 20
1.69357
 11
7.69357
 21
1.74287
  0
LINE
  8
0
 10
7.69357
 20
1.74287
 11
7.65358
 21
1.79999
  0
LINE
  8
0
 10
7.65358
 20
1.79999
 11
7.62411
 21
1.86319
  0
LINE
  8
0
 10
7.62411
 20
1.86319
 11
7.60606
 21
1.93053
  0
LINE
  8
0
 10
7.60606
 20
1.93053
 11
7.59999
 21
2
  0
LINE
  8
0
 10
7.59999
 20
2
 11
7.60606
 21
2.06946
  0
LINE
  8
0
 10
7.60606
 20
2.06946
 11
7.62411
 21
2.1368
  0
LINE
  8
0
 10
7.62411
 20
2.1368
 11
7.65358
 21
2.2
  0
LINE
  8
0
 10
7.65358
 20
2.2
 11
7.69357
 21
2.25711
  0
LINE
  8
0
 10
7.69357
 20
2.25711
 11
7.74287
 21
2.30641
  0
LINE
  8
0
 10
7.74287
 20
2.30641
 11
7.79999
 21
2.34641
  0
LINE
  8
0
 10
7.79999
 20
2.34641
 11
7.86319
 21
2.37587
  0
LINE
  8
0
 10
7.86319
 20
2.37587
 11
7.93053
 21
2.39392
  0
LINE
  8
0
 10
7.93053
 20
2.39392
 11
8
 21
2.39999
  0
LINE
  8
0
 10
8
 20
2.39999
 11
8.06946
 21
2.39392
  0
LINE
  8
0
 10
8.06946
 20
2.39392
 11
8.1368
 21
2.37587
  0
LINE
  8
0
 10
8.1368
 20
2.37587
 11
8.2
 21
2.34641
  0
LINE
  8
0
 10
8.2
 20
2.34641
 11
8.25711
 21
2.30641
  0
LINE
  8
0
 10
8.25711
 20
2.30641
 11
8.30641
 21
2.25711
  0
LINE
  8
0
 10
8.30641
 20
2.25711
 11
8.34641
 21
2.2
  0
LINE
  8
0
 10
8.34641
 20
2.2
 11
8.37587
 21
2.1368
  0
LINE
  8
0
 10
8.37587
 20
2.1368
 11
8.39392
 21
2.06946
  0
LINE
  8
0
 10
8.39392
 20
2.06946
 11
8.39999
 21
2
  0
LINE
  8
0
 10
8.39999
 20
2
 11
8.39392
 21
1.93053
  0
LINE
  8
0
 10
8.39392
 20
1.93053
 11
8.37587
 21
1.86319
  0
LINE
  8
0
 10
8.37587
 20
1.86319
 11
8.34641
 21
1.79999
  0
LINE
  8
0
 10
8.34641
 20
1.79999
 11
8.30641
 21
1.74287
  0
LINE
  8
0
 10
8.30641
 20
1.74287
 11
8.25711
 21
1.69357
  0
LINE
  8
0
 10
8.25711
 20
1.69357
 11
8.2
 21
1.65358
  0
LINE
  8
0
 10
8.2
 20
1.65358
 11
8.1368
 21
1.62411
  0
LINE
  8
0
 10
8.1368
 20
1.62411
 11
8.06946
 21
1.60606
  0
LINE
  8
0
 10
8.06946
 20
1.60606
 11
8
 21
1.59999
  0
LINE
  8
0
 10
8
 20
1.59999
 11
7.93053
 21
1.60606
  0
LINE
  8
0
 10
15.4305
 20
1.60606
 11
15.3632
 21
1.62411
  0
LINE
  8
0
 10
15.3632
 20
1.62411
 11
15.3
 21
1.65358
  0
LINE
  8
0
 10
15.3
 20
1.65358
 11
15.2429
 21
1.69357
  0
LINE
  8
0
 10
15.2429
 20
1.69357
 11
15.1936
 21
1.74287
  0
LINE
  8
0
 10
15.1936
 20
1.74287
 11
15.1536
 21
1.79999
  0
LINE
  8
0
 10
15.1536
 20
1.79999
 11
15.1241
 21
1.86319
  0
LINE
  8
0
 10
15.1241
 20
1.86319
 11
15.1061
 21
1.93053
  0
LINE
  8
0
 10
15.1061
 20
1.93053
 11
15.1
 21
2
  0
LINE
  8
0
 10
15.1
 20
2
 11
15.1061
 21
2.06946
  0
LINE
  8
0
 10
15.1061
 20
2.06946
 11
15.1241
 21
2.1368
  0
LINE
  8
0
 10
15.1241
 20
2.1368
 11
15.1536
 21
2.2
  0
LINE
  8
0
 10
15.1536
 20
2.2
 11
15.1936
 21
2.25711
  0
LINE
  8
0
 10
15.1936
 20
2.25711
 11
15.2429
 21
2.30641
  0
LINE
  8
0
 10
15.2429
 20
2.30641
 11
15.3
 21
2.34641
  0
LINE
  8
0
 10
15.3
 20
2.34641
 11
15.3632
 21
2.37587
  0
LINE
  8
0
 10
15.3632
 20
2.37587
 11
15.4305
 21
2.39392
  0
LINE
  8
0
 10
15.4305
 20
2.39392
 11
15.5
 21
2.39999
  0
LINE
  8
0
 10
15.5
 20
2.39999
 11
15.5695
 21
2.39392
  0
LINE
  8
0
 10
15.5695
 20
2.39392
 11
15.6368
 21
2.37587
  0
LINE
  8
0
 10
15.6368
 20
2.37587
 11
15.7
 21
2.34641
  0
LINE
  8
0
 10
15.7
 20
2.34641
 11
15.7571
 21
2.30641
  0
LINE
  8
0
 10
15.7571
 20
2.30641
 11
15.8064
 21
2.25711
  0
LINE
  8
0
 10
15.8064
 20
2.25711
 11
15.8464
 21
2.2
  0
LINE
  8
0
 10
15.8464
 20
2.2
 11
15.8759
 21
2.1368
  0
LINE
  8
0
 10
15.8759
 20
2.1368
 11
15.8939
 21
2.06946
  0
LINE
  8
0
 10
15.8939
 20
2.06946
 11
15.9
 21
2
  0
LINE
  8
0
 10
15.9
 20
2
 11
15.8939
 21
1.93053
  0
LINE
  8
0
 10
15.8939
 20
1.93053
 11
15.8759
 21
1.86319
  0
LINE
  8
0
 10
15.8759
 20
1.86319
 11
15.8464
 21
1.79999
  0
LINE
  8
0
 10
15.8464
 20
1.79999
 11
15.8064
 21
1.74287
  0
LINE
  8
0
 10
15.8064
 20
1.74287
 11
15.7571
 21
1.69357
  0
LINE
  8
0
 10
15.7571
 20
1.69357
 11
15.7
 21
1.65358
  0
LINE
  8
0
 10
15.7
 20
1.65358
 11
15.6368
 21
1.62411
  0
LINE
  8
0
 10
15.6368
 20
1.62411
 11
15.5695
 21
1.60606
  0
LINE
  8
0
 10
15.5695
 20
1.60606
 11
15.5
 21
1.59999
  0
LINE
  8
0
 10
15.5
 20
1.59999
 11
15.4305
 21
1.60606
  0
LINE
  8
0
 10
18.4305
 20
1.60606
 11
18.3632
 21
1.62411
  0
LINE
  8
0
 10
18.3632
 20
1.62411
 11
18.3
 21
1.65358
  0
LINE
  8
0
 10
18.3
 20
1.65358
 11
18.2429
 21
1.69357
  0
LINE
  8
0
 10
18.2429
 20
1.69357
 11
18.1936
 21
1.74287
  0
LINE
  8
0
 10
18.1936
 20
1.74287
 11
18.1536
 21
1.79999
  0
LINE
  8
0
 10
18.1536
 20
1.79999
 11
18.1241
 21
1.86319
  0
LINE
  8
0
 10
18.1241
 20
1.86319
 11
18.1061
 21
1.93053
  0
LINE
  8
0
 10
18.1061
 20
1.93053
 11
18.1
 21
2
  0
LINE
  8
0
 10
18.1
 20
2
 11
18.1061
 21
2.06946
  0
LINE
  8
0
 10
18.1061
 20
2.06946
 11
18.1241
 21
2.1368
  0
LINE
  8
0
 10
18.1241
 20
2.1368
 11
18.1536
 21
2.2
  0
LINE
  8
0
 10
18.1536
 20
2.2
 11
18.1936
 21
2.25711
  0
LINE
  8
0
 10
18.1936
 20
2.25711
 11
18.2429
 21
2.30641
  0
LINE
  8
0
 10
18.2429
 20
2.30641
 11
18.3
 21
2.34641
  0
LINE
  8
0
 10
18.3
 20
2.34641
 11
18.3632
 21
2.37587
  0
LINE
  8
0
 10
18.3632
 20
2.37587
 11
18.4305
 21
2.39392
  0
LINE
  8
0
 10
18.4305
 20
2.39392
 11
18.5
 21
2.39999
  0
LINE
  8
0
 10
18.5
 20
2.39999
 11
18.5695
 21
2.39392
  0
LINE
  8
0
 10
18.5695
 20
2.39392
 11
18.6368
 21
2.37587
  0
LINE
  8
0
 10
18.6368
 20
2.37587
 11
18.7
 21
2.34641
  0
LINE
  8
0
 10
18.7
 20
2.34641
 11
18.7571
 21
2.30641
  0
LINE
  8
0
 10
18.7571
 20
2.30641
 11
18.8064
 21
2.25711
  0
LINE
  8
0
 10
18.8064
 20
2.25711
 11
18.8464
 21
2.2
  0
LINE
  8
0
 10
18.8464
 20
2.2
 11
18.8759
 21
2.1368
  0
LINE
  8
0
 10
18.8759
 20
2.1368
 11
18.8939
 21
2.06946
  0
LINE
  8
0
 10
18.8939
 20
2.06946
 11
18.9
 21
2
  0
LINE
  8
0
 10
18.9
 20
2
 11
18.8939
 21
1.93053
  0
LINE
  8
0
 10
18.8939
 20
1.93053
 11
18.8759
 21
1.86319
  0
LINE
  8
0
 10
18.8759
 20
1.86319
 11
18.8464
 21
1.79999
  0
LINE
  8
0
 10
18.8464
 20
1.79999
 11
18.8064
 21
1.74287
  0
LINE
  8
0
 10
18.8064
 20
1.74287
 11
18.7571
 21
1.69357
  0
LINE
  8
0
 10
18.7571
 20
1.69357
 11
18.7
 21
1.65358
  0
LINE
  8
0
 10
18.7
 20
1.65358
 11
18.6368
 21
1.62411
  0
LINE
  8
0
 10
18.6368
 20
1.62411
 11
18.5695
 21
1.60606
  0
LINE
  8
0
 10
18.5695
 20
1.60606
 11
18.5
 21
1.59999
  0
LINE
  8
0
 10
18.5
 20
1.59999
 11
18.4305
 21
1.60606
  0
LINE
  8
0
 10
31.9305
 20
1.60606
 11
31.8632
 21
1.62411
  0
LINE
  8
0
 10
31.8632
 20
1.62411
 11
31.8
 21
1.65358
  0
LINE
  8
0
 10
31.8
 20
1.65358
 11
31.7429
 21
1.69357
  0
LINE
  8
0
 10
31.7429
 20
1.69357
 11
31.6936
 21
1.74287
  0
LINE
  8
0
 10
31.6936
 20
1.74287
 11
31.6536
 21
1.79999
  0
LINE
  8
0
 10
31.6536
 20
1.79999
 11
31.6241
 21
1.86319
  0
LINE
  8
0
 10
31.6241
 20
1.86319
 11
31.6061
 21
1.93053
  0
LINE
  8
0
 10
31.6061
 20
1.93053
 11
31.6
 21
2
  0
LINE
  8
0
 10
31.6
 20
2
 11
31.6061
 21
2.06946
  0
LINE
  8
0
 10
31.6061
 20
2.06946
 11
31.6241
 21
2.1368
  0
LINE
  8
0
 10
31.6241
 20
2.1368
 11
31.6536
 21
2.2
  0
LINE
  8
0
 10
31.6536
 20
2.2
 11
31.6936
 21
2.25711
  0
LINE
  8
0
 10
31.6936
 20
2.25711
 11
31.7429
 21
2.30641
  0
LINE
  8
0
 10
31.7429
 20
2.30641
 11
31.8
 21
2.34641
  0
LINE
  8
0
 10
31.8
 20
2.34641
 11
31.8632
 21
2.37587
  0
LINE
  8
0
 10
31.8632
 20
2.37587
 11
31.9305
 21
2.39392
  0
LINE
  8
0
 10
31.9305
 20
2.39392
 11
32
 21
2.39999
  0
LINE
  8
0
 10
32
 20
2.39999
 11
32.0695
 21
2.39392
  0
LINE
  8
0
 10
32.0695
 20
2.39392
 11
32.1368
 21
2.37587
  0
LINE
  8
0
 10
32.1368
 20
2.37587
 11
32.2
 21
2.34641
  0
LINE
  8
0
 10
32.2
 20
2.34641
 11
32.2571
 21
2.30641
  0
LINE
  8
0
 10
32.2571
 20
2.30641
 11
32.3064
 21
2.25711
  0
LINE
  8
0
 10
32.3064
 20
2.25711
 11
32.3464
 21
2.2
  0
LINE
  8
0
 10
32.3464
 20
2.2
 11
32.3759
 21
2.1368
  0
LINE
  8
0
 10
32.3759
 20
2.1368
 11
32.3939
 21
2.06946
  0
LINE
  8
0
 10
32.3939
 20
2.06946
 11
32.4
 21
2
  0
LINE
  8
0
 10
32.4
 20
2
 11
32.3939
 21
1.93053
  0
LINE
  8
0
 10
32.3939
 20
1.93053
 11
32.3759
 21
1.86319
  0
LINE
  8
0
 10
32.3759
 20
1.86319
 11
32.3464
 21
1.79999
  0
LINE
  8
0
 10
32.3464
 20
1.79999
 11
32.3064
 21
1.74287
  0
LINE
  8
0
 10
32.3064
 20
1.74287
 11
32.2571
 21
1.69357
  0
LINE
  8
0
 10
32.2571
 20
1.69357
 11
32.2
 21
1.65358
  0
LINE
  8
0
 10
32.2
 20
1.65358
 11
32.1368
 21
1.62411
  0
LINE
  8
0
 10
32.1368
 20
1.62411
 11
32.0695
 21
1.60606
  0
LINE
  8
0
 10
32.0695
 20
1.60606
 11
32
 21
1.59999
  0
LINE
  8
0
 10
32
 20
1.59999
 11
31.9305
 21
1.60606
  0
LINE
  8
0
 10
35.1805
 20
1.60606
 11
35.1132
 21
1.62411
  0
LINE
  8
0
 10
35.1132
 20
1.62411
 11
35.05
 21
1.65358
  0
LINE
  8
0
 10
35.05
 20
1.65358
 11
34.9929
 21
1.69357
  0
LINE
  8
0
 10
34.9929
 20
1.69357
 11
34.9436
 21
1.74287
  0
LINE
  8
0
 10
34.9436
 20
1.74287
 11
34.9036
 21
1.79999
  0
LINE
  8
0
 10
34.9036
 20
1.79999
 11
34.8741
 21
1.86319
  0
LINE
  8
0
 10
34.8741
 20
1.86319
 11
34.8561
 21
1.93053
  0
LINE
  8
0
 10
34.8561
 20
1.93053
 11
34.85
 21
2
  0
LINE
  8
0
 10
34.85
 20
2
 11
34.8561
 21
2.06946
  0
LINE
  8
0
 10
34.8561
 20
2.06946
 11
34.8741
 21
2.1368
  0
LINE
  8
0
 10
34.8741
 20
2.1368
 11
34.9036
 21
2.2
  0
LINE
  8
0
 10
34.9036
 20
2.2
 11
34.9436
 21
2.25711
  0
LINE
  8
0
 10
34.9436
 20
2.25711
 11
34.9929
 21
2.30641
  0
LINE
  8
0
 10
34.9929
 20
2.30641
 11
35.05
 21
2.34641
  0
LINE
  8
0
 10
35.05
 20
2.34641
 11
35.1132
 21
2.37587
  0
LINE
  8
0
 10
35.1132
 20
2.37587
 11
35.1805
 21
2.39392
  0
LINE
  8
0
 10
35.1805
 20
2.39392
 11
35.25
 21
2.39999
  0
LINE
  8
0
 10
35.25
 20
2.39999
 11
35.3195
 21
2.39392
  0
LINE
  8
0
 10
35.3195
 20
2.39392
 11
35.3868
 21
2.37587
  0
LINE
  8
0
 10
35.3868
 20
2.37587
 11
35.45
 21
2.34641
  0
LINE
  8
0
 10
35.45
 20
2.34641
 11
35.5071
 21
2.30641
  0
LINE
  8
0
 10
35.5071
 20
2.30641
 11
35.5564
 21
2.25711
  0
LINE
  8
0
 10
35.5564
 20
2.25711
 11
35.5964
 21
2.2
  0
LINE
  8
0
 10
35.5964
 20
2.2
 11
35.6259
 21
2.1368
  0
LINE
  8
0
 10
35.6259
 20
2.1368
 11
35.6439
 21
2.06946
  0
LINE
  8
0
 10
35.6439
 20
2.06946
 11
35.65
 21
2
  0
LINE
  8
0
 10
35.65
 20
2
 11
35.6439
 21
1.93053
  0
LINE
  8
0
 10
35.6439
 20
1.93053
 11
35.6259
 21
1.86319
  0
LINE
  8
0
 10
35.6259
 20
1.86319
 11
35.5964
 21
1.79999
  0
LINE
  8
0
 10
35.5964
 20
1.79999
 11
35.5564
 21
1.74287
  0
LINE
  8
0
 10
35.5564
 20
1.74287
 11
35.5071
 21
1.69357
  0
LINE
  8
0
 10
35.5071
 20
1.69357
 11
35.45
 21
1.65358
  0
LINE
  8
0
 10
35.45
 20
1.65358
 11
35.3868
 21
1.62411
  0
LINE
  8
0
 10
35.3868
 20
1.62411
 11
35.3195
 21
1.60606
  0
LINE
  8
0
 10
35.3195
 20
1.60606
 11
35.25
 21
1.59999
  0
LINE
  8
0
 10
35.25
 20
1.59999
 11
35.1805
 21
1.60606
  0
LINE
  8
0
 10
47.6805
 20
1.60606
 11
47.6132
 21
1.62411
  0
LINE
  8
0
 10
47.6132
 20
1.62411
 11
47.55
 21
1.65358
  0
LINE
  8
0
 10
47.55
 20
1.65358
 11
47.4929
 21
1.69357
  0
LINE
  8
0
 10
47.4929
 20
1.69357
 11
47.4436
 21
1.74287
  0
LINE
  8
0
 10
47.4436
 20
1.74287
 11
47.4036
 21
1.79999
  0
LINE
  8
0
 10
47.4036
 20
1.79999
 11
47.3741
 21
1.86319
  0
LINE
  8
0
 10
47.3741
 20
1.86319
 11
47.3561
 21
1.93053
  0
LINE
  8
0
 10
47.3561
 20
1.93053
 11
47.35
 21
2
  0
LINE
  8
0
 10
47.35
 20
2
 11
47.3561
 21
2.06946
  0
LINE
  8
0
 10
47.3561
 20
2.06946
 11
47.3741
 21
2.1368
  0
LINE
  8
0
 10
47.3741
 20
2.1368
 11
47.4036
 21
2.2
  0
LINE
  8
0
 10
47.4036
 20
2.2
 11
47.4436
 21
2.25711
  0
LINE
  8
0
 10
47.4436
 20
2.25711
 11
47.4929
 21
2.30641
  0
LINE
  8
0
 10
47.4929
 20
2.30641
 11
47.55
 21
2.34641
  0
LINE
  8
0
 10
47.55
 20
2.34641
 11
47.6132
 21
2.37587
  0
LINE
  8
0
 10
47.6132
 20
2.37587
 11
47.6805
 21
2.39392
  0
LINE
  8
0
 10
47.6805
 20
2.39392
 11
47.75
 21
2.39999
  0
LINE
  8
0
 10
47.75
 20
2.39999
 11
47.8195
 21
2.39392
  0
LINE
  8
0
 10
47.8195
 20
2.39392
 11
47.8868
 21
2.37587
  0
LINE
  8
0
 10
47.8868
 20
2.37587
 11
47.95
 21
2.34641
  0
LINE
  8
0
 10
47.95
 20
2.34641
 11
48.0071
 21
2.30641
  0
LINE
  8
0
 10
48.0071
 20
2.30641
 11
48.0564
 21
2.25711
  0
LINE
  8
0
 10
48.0564
 20
2.25711
 11
48.0964
 21
2.2
  0
LINE
  8
0
 10
48.0964
 20
2.2
 11
48.1259
 21
2.1368
  0
LINE
  8
0
 10
48.1259
 20
2.1368
 11
48.1439
 21
2.06946
  0
LINE
  8
0
 10
48.1439
 20
2.06946
 11
48.15
 21
2
  0
LINE
  8
0
 10
48.15
 20
2
 11
48.1439
 21
1.93053
  0
LINE
  8
0
 10
48.1439
 20
1.93053
 11
48.1259
 21
1.86319
  0
LINE
  8
0
 10
48.1259
 20
1.86319
 11
48.0964
 21
1.79999
  0
LINE
  8
0
 10
48.0964
 20
1.79999
 11
48.0564
 21
1.74287
  0
LINE
  8
0
 10
48.0564
 20
1.74287
 11
48.0071
 21
1.69357
  0
LINE
  8
0
 10
48.0071
 20
1.69357
 11
47.95
 21
1.65358
  0
LINE
  8
0
 10
47.95
 20
1.65358
 11
47.8868
 21
1.62411
  0
LINE
  8
0
 10
47.8868
 20
1.62411
 11
47.8195
 21
1.60606
  0
LINE
  8
0
 10
47.8195
 20
1.60606
 11
47.75
 21
1.59999
  0
LINE
  8
0
 10
47.75
 20
1.59999
 11
47.6805
 21
1.60606
  0
LINE
  8
0
 10
73.9305
 20
1.60606
 11
73.8632
 21
1.62411
  0
LINE
  8
0
 10
73.8632
 20
1.62411
 11
73.8
 21
1.65358
  0
LINE
  8
0
 10
73.8
 20
1.65358
 11
73.7429
 21
1.69357
  0
LINE
  8
0
 10
73.7429
 20
1.69357
 11
73.6936
 21
1.74287
  0
LINE
  8
0
 10
73.6936
 20
1.74287
 11
73.6536
 21
1.79999
  0
LINE
  8
0
 10
73.6536
 20
1.79999
 11
73.6241
 21
1.86319
  0
LINE
  8
0
 10
73.6241
 20
1.86319
 11
73.6061
 21
1.93053
  0
LINE
  8
0
 10
73.6061
 20
1.93053
 11
73.6
 21
2
  0
LINE
  8
0
 10
73.6
 20
2
 11
73.6061
 21
2.06946
  0
LINE
  8
0
 10
73.6061
 20
2.06946
 11
73.6241
 21
2.1368
  0
LINE
  8
0
 10
73.6241
 20
2.1368
 11
73.6536
 21
2.2
  0
LINE
  8
0
 10
73.6536
 20
2.2
 11
73.6936
 21
2.25711
  0
LINE
  8
0
 10
73.6936
 20
2.25711
 11
73.7429
 21
2.30641
  0
LINE
  8
0
 10
73.7429
 20
2.30641
 11
73.8
 21
2.34641
  0
LINE
  8
0
 10
73.8
 20
2.34641
 11
73.8632
 21
2.37587
  0
LINE
  8
0
 10
73.8632
 20
2.37587
 11
73.9305
 21
2.39392
  0
LINE
  8
0
 10
73.9305
 20
2.39392
 11
74
 21
2.39999
  0
LINE
  8
0
 10
74
 20
2.39999
 11
74.0695
 21
2.39392
  0
LINE
  8
0
 10
74.0695
 20
2.39392
 11
74.1368
 21
2.37587
  0
LINE
  8
0
 10
74.1368
 20
2.37587
 11
74.2
 21
2.34641
  0
LINE
  8
0
 10
74.2
 20
2.34641
 11
74.2571
 21
2.30641
  0
LINE
  8
0
 10
74.2571
 20
2.30641
 11
74.3064
 21
2.25711
  0
LINE
  8
0
 10
74.3064
 20
2.25711
 11
74.3464
 21
2.2
  0
LINE
  8
0
 10
74.3464
 20
2.2
 11
74.3759
 21
2.1368
  0
LINE
  8
0
 10
74.3759
 20
2.1368
 11
74.3939
 21
2.06946
  0
LINE
  8
0
 10
74.3939
 20
2.06946
 11
74.4
 21
2
  0
LINE
  8
0
 10
74.4
 20
2
 11
74.3939
 21
1.93053
  0
LINE
  8
0
 10
74.3939
 20
1.93053
 11
74.3759
 21
1.86319
  0
LINE
  8
0
 10
74.3759
 20
1.86319
 11
74.3464
 21
1.79999
  0
LINE
  8
0
 10
74.3464
 20
1.79999
 11
74.3064
 21
1.74287
  0
LINE
  8
0
 10
74.3064
 20
1.74287
 11
74.2571
 21
1.69357
  0
LINE
  8
0
 10
74.2571
 20
1.69357
 11
74.2
 21
1.65358
  0
LINE
  8
0
 10
74.2
 20
1.65358
 11
74.1368
 21
1.62411
  0
LINE
  8
0
 10
74.1368
 20
1.62411
 11
74.0695
 21
1.60606
  0
LINE
  8
0
 10
74.0695
 20
1.60606
 11
74
 21
1.59999
  0
LINE
  8
0
 10
74
 20
1.59999
 11
73.9305
 21
1.60606
  0
LINE
  8
0
 10
75.9305
 20
1.60606
 11
75.8632
 21
1.62411
  0
LINE
  8
0
 10
75.8632
 20
1.62411
 11
75.8
 21
1.65358
  0
LINE
  8
0
 10
75.8
 20
1.65358
 11
75.7429
 21
1.69357
  0
LINE
  8
0
 10
75.7429
 20
1.69357
 11
75.6936
 21
1.74287
  0
LINE
  8
0
 10
75.6936
 20
1.74287
 11
75.6536
 21
1.79999
  0
LINE
  8
0
 10
75.6536
 20
1.79999
 11
75.6241
 21
1.86319
  0
LINE
  8
0
 10
75.6241
 20
1.86319
 11
75.6061
 21
1.93053
  0
LINE
  8
0
 10
75.6061
 20
1.93053
 11
75.6
 21
2
  0
LINE
  8
0
 10
75.6
 20
2
 11
75.6061
 21
2.06946
  0
LINE
  8
0
 10
75.6061
 20
2.06946
 11
75.6241
 21
2.1368
  0
LINE
  8
0
 10
75.6241
 20
2.1368
 11
75.6536
 21
2.2
  0
LINE
  8
0
 10
75.6536
 20
2.2
 11
75.6936
 21
2.25711
  0
LINE
  8
0
 10
75.6936
 20
2.25711
 11
75.7429
 21
2.30641
  0
LINE
  8
0
 10
75.7429
 20
2.30641
 11
75.8
 21
2.34641
  0
LINE
  8
0
 10
75.8
 20
2.34641
 11
75.8632
 21
2.37587
  0
LINE
  8
0
 10
75.8632
 20
2.37587
 11
75.9305
 21
2.39392
  0
LINE
  8
0
 10
75.9305
 20
2.39392
 11
76
 21
2.39999
  0
LINE
  8
0
 10
76
 20
2.39999
 11
76.0695
 21
2.39392
  0
LINE
  8
0
 10
76.0695
 20
2.39392
 11
76.1368
 21
2.37587
  0
LINE
  8
0
 10
76.1368
 20
2.37587
 11
76.2
 21
2.34641
  0
LINE
  8
0
 10
76.2
 20
2.34641
 11
76.2571
 21
2.30641
  0
LINE
  8
0
 10
76.2571
 20
2.30641
 11
76.3064
 21
2.25711
  0
LINE
  8
0
 10
76.3064
 20
2.25711
 11
76.3464
 21
2.2
  0
LINE
  8
0
 10
76.3464
 20
2.2
 11
76.3759
 21
2.1368
  0
LINE
  8
0
 10
76.3759
 20
2.1368
 11
76.3939
 21
2.06946
  0
LINE
  8
0
 10
76.3939
 20
2.06946
 11
76.4
 21
2
  0
LINE
  8
0
 10
76.4
 20
2
 11
76.3939
 21
1.93053
  0
LINE
  8
0
 10
76.3939
 20
1.93053
 11
76.3759
 21
1.86319
  0
LINE
  8
0
 10
76.3759
 20
1.86319
 11
76.3464
 21
1.79999
  0
LINE
  8
0
 10
76.3464
 20
1.79999
 11
76.3064
 21
1.74287
  0
LINE
  8
0
 10
76.3064
 20
1.74287
 11
76.2571
 21
1.69357
  0
LINE
  8
0
 10
76.2571
 20
1.69357
 11
76.2
 21
1.65358
  0
LINE
  8
0
 10
76.2
 20
1.65358
 11
76.1368
 21
1.62411
  0
LINE
  8
0
 10
76.1368
 20
1.62411
 11
76.0695
 21
1.60606
  0
LINE
  8
0
 10
76.0695
 20
1.60606
 11
76
 21
1.59999
  0
LINE
  8
0
 10
76
 20
1.59999
 11
75.9305
 21
1.60606
  0
LINE
  8
0
 10
2.93053
 20
1.60606
 11
2.86319
 21
1.62411
  0
LINE
  8
0
 10
2.86319
 20
1.62411
 11
2.79999
 21
1.65358
  0
LINE
  8
0
 10
2.79999
 20
1.65358
 11
2.74287
 21
1.69357
  0
LINE
  8
0
 10
2.74287
 20
1.69357
 11
2.69357
 21
1.74287
  0
LINE
  8
0
 10
2.69357
 20
1.74287
 11
2.65358
 21
1.79999
  0
LINE
  8
0
 10
2.65358
 20
1.79999
 11
2.62411
 21
1.86319
  0
LINE
  8
0
 10
2.62411
 20
1.86319
 11
2.60606
 21
1.93053
  0
LINE
  8
0
 10
2.60606
 20
1.93053
 11
2.59999
 21
2
  0
LINE
  8
0
 10
2.59999
 20
2
 11
2.60606
 21
2.06946
  0
LINE
  8
0
 10
2.60606
 20
2.06946
 11
2.62411
 21
2.1368
  0
LINE
  8
0
 10
2.62411
 20
2.1368
 11
2.65358
 21
2.2
  0
LINE
  8
0
 10
2.65358
 20
2.2
 11
2.69357
 21
2.25711
  0
LINE
  8
0
 10
2.69357
 20
2.25711
 11
2.74287
 21
2.30641
  0
LINE
  8
0
 10
2.74287
 20
2.30641
 11
2.79999
 21
2.34641
  0
LINE
  8
0
 10
2.79999
 20
2.34641
 11
2.86319
 21
2.37587
  0
LINE
  8
0
 10
2.86319
 20
2.37587
 11
2.93053
 21
2.39392
  0
LINE
  8
0
 10
2.93053
 20
2.39392
 11
3
 21
2.39999
  0
LINE
  8
0
 10
3
 20
2.39999
 11
3.06946
 21
2.39392
  0
LINE
  8
0
 10
3.06946
 20
2.39392
 11
3.1368
 21
2.37587
  0
LINE
  8
0
 10
3.1368
 20
2.37587
 11
3.2
 21
2.34641
  0
LINE
  8
0
 10
3.2
 20
2.34641
 11
3.25711
 21
2.30641
  0
LINE
  8
0
 10
3.25711
 20
2.30641
 11
3.30641
 21
2.25711
  0
LINE
  8
0
 10
3.30641
 20
2.25711
 11
3.34641
 21
2.2
  0
LINE
  8
0
 10
3.34641
 20
2.2
 11
3.37587
 21
2.1368
  0
LINE
  8
0
 10
3.37587
 20
2.1368
 11
3.39392
 21
2.06946
  0
LINE
  8
0
 10
3.39392
 20
2.06946
 11
3.39999
 21
2
  0
LINE
  8
0
 10
3.39999
 20
2
 11
3.39392
 21
1.93053
  0
LINE
  8
0
 10
3.39392
 20
1.93053
 11
3.37587
 21
1.86319
  0
LINE
  8
0
 10
3.37587
 20
1.86319
 11
3.34641
 21
1.79999
  0
LINE
  8
0
 10
3.34641
 20
1.79999
 11
3.30641
 21
1.74287
  0
LINE
  8
0
 10
3.30641
 20
1.74287
 11
3.25711
 21
1.69357
  0
LINE
  8
0
 10
3.25711
 20
1.69357
 11
3.2
 21
1.65358
  0
LINE
  8
0
 10
3.2
 20
1.65358
 11
3.1368
 21
1.62411
  0
LINE
  8
0
 10
3.1368
 20
1.62411
 11
3.06946
 21
1.60606
  0
LINE
  8
0
 10
3.06946
 20
1.60606
 11
3
 21
1.59999
  0
LINE
  8
0
 10
3
 20
1.59999
 11
2.93053
 21
1.60606
  0
LINE
  8
0
 10
230
 20
4
 11
224.057
 21
4
  0
LINE
  8
0
 10
224.057
 20
4
 11
224.057
 21
3.375
  0
LINE
  8
0
 10
224.057
 20
3.375
 11
223.932
 21
3.375
  0
LINE
  8
0
 10
223.932
 20
3.375
 11
223.932
 21
3.5
  0
LINE
  8
0
 10
223.932
 20
3.5
 11
223.432
 21
3.5
  0
LINE
  8
0
 10
223.432
 20
3.5
 11
223.432
 21
3.375
  0
LINE
  8
0
 10
223.432
 20
3.375
 11
218.615
 21
3.375
  0
LINE
  8
0
 10
218.615
 20
3.375
 11
218.615
 21
3.5
  0
LINE
  8
0
 10
218.615
 20
3.5
 11
218.115
 21
3.5
  0
LINE
  8
0
 10
218.115
 20
3.5
 11
218.115
 21
3.375
  0
LINE
  8
0
 10
218.115
 20
3.375
 11
217.99
 21
3.375
  0
LINE
  8
0
 10
217.99
 20
3.375
 11
217.99
 21
4
  0
LINE
  8
0
 10
217.99
 20
4
 11
212.047
 21
4
  0
LINE
  8
0
 10
212.047
 20
4
 11
212.047
 21
3.375
  0
LINE
  8
0
 10
212.047
 20
3.375
 11
211.922
 21
3.375
  0
LINE
  8
0
 10
211.922
 20
3.375
 11
211.922
 21
3.5
  0
LINE
  8
0
 10
211.922
 20
3.5
 11
211.422
 21
3.5
  0
LINE
  8
0
 10
211.422
 20
3.5
 11
211.422
 21
3.375
  0
LINE
  8
0
 10
211.422
 20
3.375
 11
206.604
 21
3.375
  0
LINE
  8
0
 10
206.604
 20
3.375
 11
206.604
 21
3.5
  0
LINE
  8
0
 10
206.604
 20
3.5
 11
206.104
 21
3.5
  0
LINE
  8
0
 10
206.104
 20
3.5
 11
206.104
 21
3.375
  0
LINE
  8
0
 10
206.104
 20
3.375
 11
205.979
 21
3.375
  0
LINE
  8
0
 10
205.979
 20
3.375
 11
205.979
 21
4
  0
LINE
  8
0
 10
205.979
 20
4
 11
200.036
 21
4
  0
LINE
  8
0
 10
200.036
 20
4
 11
200.036
 21
3.375
  0
LINE
  8
0
 10
200.036
 20
3.375
 11
199.911
 21
3.375
  0
LINE
  8
0
 10
199.911
 20
3.375
 11
199.911
 21
3.5
  0
LINE
  8
0
 10
199.911
 20
3.5
 11
199.411
 21
3.5
  0
LINE
  8
0
 10
199.411
 20
3.5
 11
199.411
 21
3.375
  0
LINE
  8
0
 10
199.411
 20
3.375
 11
194.594
 21
3.375
  0
LINE
  8
0
 10
194.594
 20
3.375
 11
194.594
 21
3.5
  0
LINE
  8
0
 10
194.594
 20
3.5
 11
194.094
 21
3.5
  0
LINE
  8
0
 10
194.094
 20
3.5
 11
194.094
 21
3.375
  0
LINE
  8
0
 10
194.094
 20
3.375
 11
193.969
 21
3.375
  0
LINE
  8
0
 10
193.969
 20
3.375
 11
193.969
 21
4
  0
LINE
  8
0
 10
193.969
 20
4
 11
188.026
 21
4
  0
LINE
  8
0
 10
188.026
 20
4
 11
188.026
 21
3.375
  0
LINE
  8
0
 10
188.026
 20
3.375
 11
187.901
 21
3.375
  0
LINE
  8
0
 10
187.901
 20
3.375
 11
187.901
 21
3.5
  0
LINE
  8
0
 10
187.901
 20
3.5
 11
187.401
 21
3.5
  0
LINE
  8
0
 10
187.401
 20
3.5
 11
187.401
 21
3.375
  0
LINE
  8
0
 10
187.401
 20
3.375
 11
182.583
 21
3.375
  0
LINE
  8
0
 10
182.583
 20
3.375
 11
182.583
 21
3.5
  0
LINE
  8
0
 10
182.583
 20
3.5
 11
182.083
 21
3.5
  0
LINE
  8
0
 10
182.083
 20
3.5
 11
182.083
 21
3.375
  0
LINE
  8
0
 10
182.083
 20
3.375
 11
181.958
 21
3.375
  0
LINE
  8
0
 10
181.958
 20
3.375
 11
181.958
 21
4
  0
LINE
  8
0
 10
181.958
 20
4
 11
176.016
 21
4
  0
LINE
  8
0
 10
176.016
 20
4
 11
176.016
 21
3.375
  0
LINE
  8
0
 10
176.016
 20
3.375
 11
175.891
 21
3.375
  0
LINE
  8
0
 10
175.891
 20
3.375
 11
175.891
 21
3.5
  0
LINE
  8
0
 10
175.891
 20
3.5
 11
175.391
 21
3.5
  0
LINE
  8
0
 10
175.391
 20
3.5
 11
175.391
 21
3.375
  0
LINE
  8
0
 10
175.391
 20
3.375
 11
170.573
 21
3.375
  0
LINE
  8
0
 10
170.573
 20
3.375
 11
170.573
 21
3.5
  0
LINE
  8
0
 10
170.573
 20
3.5
 11
170.073
 21
3.5
  0
LINE
  8
0
 10
170.073
 20
3.5
 11
170.073
 21
3.375
  0
LINE
  8
0
 10
170.073
 20
3.375
 11
169.948
 21
3.375
  0
LINE
  8
0
 10
169.948
 20
3.375
 11
169.948
 21
4
  0
LINE
  8
0
 10
169.948
 20
4
 11
164.005
 21
4
  0
LINE
  8
0
 10
164.005
 20
4
 11
164.005
 21
3.375
  0
LINE
  8
0
 10
164.005
 20
3.375
 11
163.88
 21
3.375
  0
LINE
  8
0
 10
163.88
 20
3.375
 11
163.88
 21
3.5
  0
LINE
  8
0
 10
163.88
 20
3.5
 11
163.38
 21
3.5
  0
LINE
  8
0
 10
163.38
 20
3.5
 11
163.38
 21
3.375
  0
LINE
  8
0
 10
163.38
 20
3.375
 11
158.562
 21
3.375
  0
LINE
  8
0
 10
158.562
 20
3.375
 11
158.562
 21
3.5
  0
LINE
  8
0
 10
158.562
 20
3.5
 11
158.062
 21
3.5
  0
LINE
  8
0
 10
158.062
 20
3.5
 11
158.062
 21
3.375
  0
LINE
  8
0
 10
158.062
 20
3.375
 11
158
 21
3.375
  0
LINE
  8
0
 10
158
 20
3.375
 11
158
 21
0
  0
LINE
  8
0
 10
158
 20
0
 11
230
 21
0
  0
LINE
  8
0
 10
230
 20
0
 11
230
 21
4
  0
ENDSEC
  0
SECTION
  2
OBJECTS
  0
DICTIONARY
  0
ENDSEC
  0
EOF
